G04 ---------------------------- Layer name :KeepOutLayer*
G04 EasyEDA v5.5.11, Sun, 03 Jun 2018 10:16:40 GMT*
G04 422a67246ae34fc7a473e8fc002879eb*
G04 Gerber Generator version 0.2*
G04 Scale: 100 percent, Rotated: No, Reflected: No *
G04 Dimensions in millimeters *
G04 leading zeros omitted , absolute positions ,3 integer and 3 decimal *
%FSLAX33Y33*%
%MOMM*%
G90*
G71D02*

%ADD10C,0.254000*%
G54D10*
G01X73152Y32766D02*
G01X70866Y30988D01*
G01X69850Y30226D01*
G01X67818Y28702D01*
G01X51054Y17780D01*
G01X45720Y21082D01*
G01X37338Y26670D01*
G01X28956Y32258D01*
G01X28956Y32258D02*
G01X22860Y31496D01*
G01X22606Y31242D01*
G01X19558Y28448D01*
G01X16764Y24892D01*
G01X13716Y20320D01*
G01X11938Y17018D01*
G01X9906Y13970D01*
G01X7366Y8128D01*
G01X5080Y1778D01*
G01X3810Y0D01*
G01X2390Y2364D01*
G01X1270Y9906D01*
G01X0Y27178D01*
G01X1270Y37084D01*
G01X3556Y47752D01*
G01X7112Y57912D01*
G01X11684Y67310D01*
G01X17018Y75946D01*
G01X25146Y68072D01*
G01X32004Y62230D01*
G01X33274Y61468D01*
G01X34798Y61468D01*
G01X43434Y67310D01*
G01X50800Y71882D01*
G01X55372Y69342D01*
G01X67056Y61722D01*
G01X68072Y61468D01*
G01X68580Y61468D01*
G01X69850Y62484D01*
G01X81280Y72390D01*
G01X83058Y74168D01*
G01X84582Y75946D01*
G01X86868Y72898D01*
G01X93980Y59944D01*
G01X99568Y43688D01*
G01X100838Y35306D01*
G01X101600Y27178D01*
G01X100838Y9906D01*
G01X97790Y0D01*
G01X93218Y10668D01*
G01X90170Y16510D01*
G01X86868Y22352D01*
G01X82222Y29029D01*
G01X80772Y30988D01*
G01X80010Y31750D01*
G01X79286Y31965D01*
G01X73152Y32766D01*

%LPD*%
M00*
M02*
