;PTH Drill file created by EasyEDA 
M48
METRIC,LZ,000.000
;Holesize 1 = 0.306 METRIC
T01C0.306
;Holesize 2 = 0.701 METRIC
T02C0.701
;Holesize 3 = 0.889 METRIC
T03C0.889
;Holesize 4 = 0.915 METRIC
T04C0.915
;Holesize 5 = 1.701 METRIC
T05C1.701
%
G05
G90
T01
X038661Y059761
X036926Y035659
X036118Y041658
X029222Y041341
X020670Y033080
X013350Y045212
X071059Y039070
X057645Y051163
X074467Y056619
T02
X053014Y066548
X051308Y066548
X049657Y066548
X048016Y066548
X053522Y022606
X051816Y022606
X050165Y022606
X048524Y022606
X083494Y045720
X081788Y045720
X080137Y045720
X078496Y045720
T03
X089154Y035560
X091694Y035560
X094234Y035560
X096774Y035560
X015494Y036830
X018034Y036830
X020574Y036830
X023114Y036830
X008890Y028702
X006350Y028702
X003810Y028702
X008890Y023622
X006350Y023622
X003810Y023622
X008890Y018542
X006350Y018542
X003810Y018542
X019304Y063500
X016764Y063500
X014224Y063500
X019304Y058420
X016764Y058420
X014224Y058420
X019304Y053340
X016764Y053340
X014224Y053340
X097536Y028956
X094996Y028956
X092456Y028956
X097536Y023876
X094996Y023876
X092456Y023876
X097536Y018796
X094996Y018796
X092456Y018796
X085598Y065532
X083058Y065532
X080518Y065532
X085598Y060452
X083058Y060452
X080518Y060452
X085598Y055372
X083058Y055372
X080518Y055372
T04
X071628Y052832
X069088Y052832
X066548Y052832
X064008Y052832
X061468Y052832
X058928Y052832
X056388Y052832
X053848Y052832
X051308Y052832
X048768Y052832
X046228Y052832
X043688Y052832
X041148Y052832
X038608Y052832
X036068Y052832
X071628Y037592
X069088Y037592
X066548Y037592
X064008Y037592
X061468Y037592
X058928Y037592
X056388Y037592
X053848Y037592
X051308Y037592
X048768Y037592
X046228Y037592
X043688Y037592
X041148Y037592
X038608Y037592
X036068Y037592
T05
X090678Y042418
X090678Y047416
M30
