G04 ---------------------------- Layer name :BOTTOM SOLDER LAYER*
G04 EasyEDA v5.5.11, Sun, 03 Jun 2018 10:16:40 GMT*
G04 422a67246ae34fc7a473e8fc002879eb*
G04 Gerber Generator version 0.2*
G04 Scale: 100 percent, Rotated: No, Reflected: No *
G04 Dimensions in millimeters *
G04 leading zeros omitted , absolute positions ,3 integer and 3 decimal *
%FSLAX33Y33*%
%MOMM*%
G90*
G71D02*

%ADD16R,1.981200X1.981200*%
%ADD17C,1.981200*%
%ADD38R,1.778000X1.778000*%
%ADD39C,1.778000*%
%ADD40C,3.203194*%
%ADD41C,1.503197*%

%LPD*%
G54D16*
G01X71628Y52832D03*
G54D17*
G01X69088Y52832D03*
G01X66548Y52832D03*
G01X64008Y52832D03*
G01X61468Y52832D03*
G01X58928Y52832D03*
G01X56388Y52832D03*
G01X53848Y52832D03*
G01X51308Y52832D03*
G01X48768Y52832D03*
G01X46228Y52832D03*
G01X43688Y52832D03*
G01X41148Y52832D03*
G01X38608Y52832D03*
G01X36068Y52832D03*
G01X71628Y37592D03*
G01X69088Y37592D03*
G01X66548Y37592D03*
G01X64008Y37592D03*
G01X61468Y37592D03*
G01X58928Y37592D03*
G01X56388Y37592D03*
G01X53848Y37592D03*
G01X51308Y37592D03*
G01X48768Y37592D03*
G01X46228Y37592D03*
G01X43688Y37592D03*
G01X41148Y37592D03*
G01X38608Y37592D03*
G01X36068Y37592D03*
G54D38*
G01X89154Y35560D03*
G54D39*
G01X91694Y35560D03*
G01X94234Y35560D03*
G01X96774Y35560D03*
G54D38*
G01X15494Y36830D03*
G54D39*
G01X18034Y36830D03*
G01X20574Y36830D03*
G01X23114Y36830D03*
G01X8890Y28702D03*
G01X6350Y28702D03*
G54D38*
G01X3810Y28702D03*
G54D39*
G01X8890Y23622D03*
G01X6350Y23622D03*
G54D38*
G01X3810Y23622D03*
G54D39*
G01X8890Y18542D03*
G01X6350Y18542D03*
G54D38*
G01X3810Y18542D03*
G54D39*
G01X19304Y63500D03*
G01X16764Y63500D03*
G54D38*
G01X14224Y63500D03*
G54D39*
G01X19304Y58420D03*
G01X16764Y58420D03*
G54D38*
G01X14224Y58420D03*
G54D39*
G01X19304Y53340D03*
G01X16764Y53340D03*
G54D38*
G01X14224Y53340D03*
G54D39*
G01X97536Y28956D03*
G01X94996Y28956D03*
G54D38*
G01X92456Y28956D03*
G54D39*
G01X97536Y23876D03*
G01X94996Y23876D03*
G54D38*
G01X92456Y23876D03*
G54D39*
G01X97536Y18796D03*
G01X94996Y18796D03*
G54D38*
G01X92456Y18796D03*
G54D39*
G01X85598Y65532D03*
G01X83058Y65532D03*
G54D38*
G01X80518Y65532D03*
G54D39*
G01X85598Y60452D03*
G01X83058Y60452D03*
G54D38*
G01X80518Y60452D03*
G54D39*
G01X85598Y55372D03*
G01X83058Y55372D03*
G54D38*
G01X80518Y55372D03*
G54D40*
G01X90678Y42418D03*
G01X90678Y47416D03*
G54D41*
G01X53014Y66548D03*
G01X51308Y66548D03*
G01X49657Y66548D03*
G01X48016Y66548D03*
G01X53522Y22606D03*
G01X51816Y22606D03*
G01X50165Y22606D03*
G01X48524Y22606D03*
G01X83494Y45720D03*
G01X81788Y45720D03*
G01X80137Y45720D03*
G01X78496Y45720D03*
M00*
M02*
