G04 ---------------------------- Layer name :BOTTOM SILK LAYER*
G04 EasyEDA v5.5.11, Sun, 03 Jun 2018 10:16:40 GMT*
G04 422a67246ae34fc7a473e8fc002879eb*
G04 Gerber Generator version 0.2*
G04 Scale: 100 percent, Rotated: No, Reflected: No *
G04 Dimensions in millimeters *
G04 leading zeros omitted , absolute positions ,3 integer and 3 decimal *
%FSLAX33Y33*%
%MOMM*%
G90*
G71D02*

%ADD10C,0.254000*%
%ADD20C,0.203200*%
%ADD23C,0.177800*%
%ADD24C,1.999996*%
%ADD25C,1.199998*%
%ADD26C,1.499997*%
%ADD27C,1.699997*%
%ADD28C,0.999998*%
%ADD29C,2.199996*%
%ADD30C,2.499995*%
%ADD31C,2.799994*%
%ADD32C,3.199994*%
%ADD33C,1.899996*%
%ADD34C,2.099996*%
%ADD35C,2.299995*%
%ADD36C,2.899994*%
%ADD37C,0.299999*%

%LPD*%

%LPD*%
G36*
G01X53848Y59182D02*
G01X53848Y59182D01*
G01X53848Y59182D01*
G01X53862Y59158D01*
G01X53878Y59131D01*
G01X53894Y59102D01*
G01X53911Y59069D01*
G01X53928Y59033D01*
G01X53947Y58994D01*
G01X53966Y58953D01*
G01X53985Y58908D01*
G01X54005Y58862D01*
G01X54026Y58813D01*
G01X54047Y58761D01*
G01X54068Y58707D01*
G01X54091Y58651D01*
G01X54113Y58593D01*
G01X54136Y58533D01*
G01X54159Y58471D01*
G01X54183Y58408D01*
G01X54206Y58342D01*
G01X54230Y58275D01*
G01X54255Y58207D01*
G01X54279Y58137D01*
G01X54304Y58066D01*
G01X54329Y57994D01*
G01X54354Y57920D01*
G01X54379Y57846D01*
G01X54404Y57771D01*
G01X54429Y57694D01*
G01X54454Y57618D01*
G01X54479Y57540D01*
G01X54504Y57462D01*
G01X54528Y57384D01*
G01X54553Y57306D01*
G01X54578Y57227D01*
G01X54602Y57148D01*
G01X54626Y57069D01*
G01X54650Y56990D01*
G01X54673Y56911D01*
G01X54697Y56833D01*
G01X54719Y56755D01*
G01X54742Y56678D01*
G01X54764Y56601D01*
G01X54785Y56525D01*
G01X54807Y56449D01*
G01X54827Y56375D01*
G01X54847Y56301D01*
G01X54867Y56228D01*
G01X54886Y56157D01*
G01X54904Y56087D01*
G01X54922Y56018D01*
G01X54939Y55951D01*
G01X54955Y55885D01*
G01X54970Y55821D01*
G01X54985Y55759D01*
G01X54999Y55698D01*
G01X55012Y55640D01*
G01X55024Y55583D01*
G01X55035Y55529D01*
G01X55046Y55477D01*
G01X55055Y55427D01*
G01X55063Y55380D01*
G01X55071Y55336D01*
G01X55077Y55294D01*
G01X55082Y55254D01*
G01X55086Y55218D01*
G01X55086Y55218D01*
G01X55092Y55142D01*
G01X55094Y55070D01*
G01X55094Y55002D01*
G01X55089Y54939D01*
G01X55082Y54882D01*
G01X55072Y54831D01*
G01X55058Y54786D01*
G01X55042Y54748D01*
G01X55024Y54718D01*
G01X55002Y54696D01*
G01X54979Y54682D01*
G01X54953Y54677D01*
G01X54953Y54677D01*
G01X54942Y54679D01*
G01X54922Y54684D01*
G01X54895Y54693D01*
G01X54859Y54705D01*
G01X54817Y54719D01*
G01X54768Y54737D01*
G01X54712Y54757D01*
G01X54651Y54779D01*
G01X54585Y54804D01*
G01X54514Y54830D01*
G01X54439Y54859D01*
G01X54360Y54889D01*
G01X54277Y54921D01*
G01X54192Y54954D01*
G01X54105Y54988D01*
G01X54016Y55024D01*
G01X53143Y55370D01*
G01X52688Y55152D01*
G01X52688Y55152D01*
G01X52597Y55108D01*
G01X52514Y55065D01*
G01X52440Y55025D01*
G01X52377Y54989D01*
G01X52327Y54957D01*
G01X52291Y54931D01*
G01X52271Y54912D01*
G01X52268Y54901D01*
G01X52268Y54901D01*
G01X52285Y54896D01*
G01X52318Y54892D01*
G01X52366Y54891D01*
G01X52427Y54891D01*
G01X52499Y54894D01*
G01X52579Y54898D01*
G01X52667Y54905D01*
G01X52759Y54913D01*
G01X53215Y54958D01*
G01X54058Y54563D01*
G01X54058Y54563D01*
G01X54166Y54513D01*
G01X54269Y54464D01*
G01X54369Y54418D01*
G01X54465Y54374D01*
G01X54558Y54331D01*
G01X54647Y54290D01*
G01X54732Y54251D01*
G01X54814Y54214D01*
G01X54892Y54179D01*
G01X54966Y54145D01*
G01X55037Y54114D01*
G01X55105Y54084D01*
G01X55169Y54055D01*
G01X55230Y54029D01*
G01X55288Y54004D01*
G01X55342Y53981D01*
G01X55393Y53960D01*
G01X55441Y53940D01*
G01X55485Y53923D01*
G01X55526Y53906D01*
G01X55565Y53892D01*
G01X55600Y53879D01*
G01X55632Y53867D01*
G01X55661Y53857D01*
G01X55687Y53849D01*
G01X55711Y53842D01*
G01X55731Y53837D01*
G01X55748Y53834D01*
G01X55763Y53832D01*
G01X55775Y53831D01*
G01X55784Y53832D01*
G01X55790Y53834D01*
G01X55790Y53834D01*
G01X55799Y53847D01*
G01X55808Y53875D01*
G01X55816Y53914D01*
G01X55822Y53964D01*
G01X55828Y54022D01*
G01X55832Y54088D01*
G01X55834Y54160D01*
G01X55835Y54236D01*
G01X55835Y54236D01*
G01X55835Y54268D01*
G01X55834Y54301D01*
G01X55833Y54334D01*
G01X55832Y54369D01*
G01X55830Y54404D01*
G01X55827Y54440D01*
G01X55824Y54477D01*
G01X55821Y54515D01*
G01X55817Y54553D01*
G01X55813Y54593D01*
G01X55808Y54633D01*
G01X55803Y54674D01*
G01X55797Y54716D01*
G01X55791Y54759D01*
G01X55784Y54803D01*
G01X55777Y54848D01*
G01X55770Y54894D01*
G01X55762Y54940D01*
G01X55753Y54988D01*
G01X55744Y55036D01*
G01X55735Y55086D01*
G01X55725Y55136D01*
G01X55714Y55187D01*
G01X55703Y55240D01*
G01X55692Y55293D01*
G01X55680Y55347D01*
G01X55668Y55403D01*
G01X55655Y55459D01*
G01X55642Y55516D01*
G01X55628Y55574D01*
G01X55613Y55634D01*
G01X55598Y55694D01*
G01X55583Y55756D01*
G01X55567Y55818D01*
G01X55551Y55882D01*
G01X55534Y55946D01*
G01X55516Y56012D01*
G01X55499Y56079D01*
G01X55480Y56147D01*
G01X55461Y56216D01*
G01X55442Y56286D01*
G01X55422Y56357D01*
G01X55401Y56430D01*
G01X55380Y56503D01*
G01X55358Y56578D01*
G01X55336Y56654D01*
G01X55314Y56731D01*
G01X55291Y56809D01*
G01X55267Y56888D01*
G01X55243Y56969D01*
G01X55218Y57051D01*
G01X55192Y57134D01*
G01X55166Y57218D01*
G01X55140Y57303D01*
G01X55113Y57390D01*
G01X55086Y57478D01*
G01X55057Y57567D01*
G01X55029Y57657D01*
G01X55000Y57749D01*
G01X54970Y57842D01*
G01X54970Y57842D01*
G01X54937Y57944D01*
G01X54906Y58044D01*
G01X54875Y58141D01*
G01X54846Y58234D01*
G01X54819Y58323D01*
G01X54793Y58408D01*
G01X54769Y58487D01*
G01X54747Y58561D01*
G01X54728Y58629D01*
G01X54710Y58690D01*
G01X54695Y58744D01*
G01X54683Y58790D01*
G01X54674Y58828D01*
G01X54667Y58857D01*
G01X54664Y58877D01*
G01X54664Y58886D01*
G01X54664Y58886D01*
G01X54666Y58892D01*
G01X54671Y58894D01*
G01X54676Y58893D01*
G01X54682Y58889D01*
G01X54690Y58882D01*
G01X54698Y58872D01*
G01X54708Y58860D01*
G01X54719Y58844D01*
G01X54730Y58826D01*
G01X54743Y58806D01*
G01X54757Y58783D01*
G01X54771Y58757D01*
G01X54787Y58729D01*
G01X54803Y58699D01*
G01X54821Y58666D01*
G01X54839Y58631D01*
G01X54858Y58594D01*
G01X54877Y58555D01*
G01X54898Y58513D01*
G01X54919Y58470D01*
G01X54941Y58425D01*
G01X54963Y58378D01*
G01X54986Y58329D01*
G01X55010Y58278D01*
G01X55034Y58226D01*
G01X55059Y58172D01*
G01X55084Y58116D01*
G01X55110Y58059D01*
G01X55137Y58000D01*
G01X55164Y57940D01*
G01X55191Y57879D01*
G01X55218Y57817D01*
G01X55246Y57753D01*
G01X55275Y57688D01*
G01X55304Y57622D01*
G01X55332Y57555D01*
G01X55362Y57487D01*
G01X55391Y57419D01*
G01X55421Y57349D01*
G01X55451Y57279D01*
G01X55481Y57208D01*
G01X55511Y57136D01*
G01X55541Y57063D01*
G01X55571Y56991D01*
G01X55602Y56917D01*
G01X55632Y56844D01*
G01X55662Y56770D01*
G01X55693Y56695D01*
G01X55723Y56621D01*
G01X55753Y56546D01*
G01X55783Y56472D01*
G01X55813Y56397D01*
G01X55843Y56322D01*
G01X55873Y56247D01*
G01X55902Y56173D01*
G01X55931Y56099D01*
G01X55960Y56025D01*
G01X55988Y55951D01*
G01X56017Y55878D01*
G01X56044Y55805D01*
G01X56072Y55733D01*
G01X56099Y55661D01*
G01X56125Y55590D01*
G01X56152Y55520D01*
G01X56177Y55450D01*
G01X56202Y55382D01*
G01X56227Y55314D01*
G01X56251Y55247D01*
G01X56251Y55247D01*
G01X56278Y55171D01*
G01X56303Y55101D01*
G01X56325Y55038D01*
G01X56345Y54979D01*
G01X56362Y54926D01*
G01X56377Y54876D01*
G01X56391Y54828D01*
G01X56402Y54783D01*
G01X56412Y54740D01*
G01X56420Y54697D01*
G01X56427Y54654D01*
G01X56433Y54610D01*
G01X56437Y54564D01*
G01X56440Y54516D01*
G01X56443Y54464D01*
G01X56445Y54409D01*
G01X56446Y54348D01*
G01X56446Y54282D01*
G01X56447Y54210D01*
G01X56447Y54130D01*
G01X56447Y54130D01*
G01X56446Y54044D01*
G01X56445Y53961D01*
G01X56442Y53879D01*
G01X56439Y53801D01*
G01X56435Y53724D01*
G01X56430Y53651D01*
G01X56424Y53580D01*
G01X56417Y53513D01*
G01X56409Y53448D01*
G01X56400Y53386D01*
G01X56391Y53328D01*
G01X56381Y53273D01*
G01X56370Y53221D01*
G01X56358Y53173D01*
G01X56346Y53129D01*
G01X56332Y53088D01*
G01X56318Y53051D01*
G01X56304Y53019D01*
G01X56288Y52990D01*
G01X56272Y52965D01*
G01X56272Y52965D01*
G01X56266Y52957D01*
G01X56259Y52951D01*
G01X56251Y52945D01*
G01X56242Y52941D01*
G01X56231Y52938D01*
G01X56218Y52937D01*
G01X56202Y52938D01*
G01X56184Y52940D01*
G01X56163Y52945D01*
G01X56138Y52952D01*
G01X56110Y52961D01*
G01X56077Y52973D01*
G01X56040Y52987D01*
G01X55998Y53004D01*
G01X55952Y53024D01*
G01X55899Y53048D01*
G01X55841Y53074D01*
G01X55777Y53104D01*
G01X55706Y53137D01*
G01X55629Y53174D01*
G01X55544Y53215D01*
G01X55451Y53260D01*
G01X55351Y53309D01*
G01X55243Y53362D01*
G01X55126Y53420D01*
G01X55000Y53482D01*
G01X54865Y53549D01*
G01X54720Y53620D01*
G01X53229Y54358D01*
G01X52743Y54354D01*
G01X52258Y54350D01*
G01X52796Y54176D01*
G01X52796Y54176D01*
G01X52842Y54161D01*
G01X52886Y54147D01*
G01X52928Y54133D01*
G01X52969Y54119D01*
G01X53008Y54105D01*
G01X53046Y54091D01*
G01X53083Y54077D01*
G01X53120Y54063D01*
G01X53155Y54048D01*
G01X53190Y54033D01*
G01X53225Y54017D01*
G01X53260Y54001D01*
G01X53294Y53983D01*
G01X53329Y53965D01*
G01X53364Y53946D01*
G01X53399Y53925D01*
G01X53435Y53904D01*
G01X53472Y53881D01*
G01X53509Y53856D01*
G01X53548Y53830D01*
G01X53588Y53802D01*
G01X53630Y53772D01*
G01X53673Y53741D01*
G01X53718Y53707D01*
G01X53765Y53671D01*
G01X53814Y53633D01*
G01X53865Y53592D01*
G01X53919Y53549D01*
G01X53975Y53503D01*
G01X54034Y53455D01*
G01X54096Y53404D01*
G01X54161Y53349D01*
G01X54230Y53292D01*
G01X54301Y53231D01*
G01X54377Y53167D01*
G01X54456Y53100D01*
G01X54539Y53029D01*
G01X54626Y52955D01*
G01X54717Y52877D01*
G01X54813Y52795D01*
G01X54813Y52795D01*
G01X54923Y52700D01*
G01X55027Y52611D01*
G01X55124Y52527D01*
G01X55215Y52447D01*
G01X55299Y52373D01*
G01X55378Y52304D01*
G01X55451Y52238D01*
G01X55518Y52177D01*
G01X55580Y52120D01*
G01X55637Y52067D01*
G01X55689Y52017D01*
G01X55736Y51971D01*
G01X55779Y51928D01*
G01X55817Y51888D01*
G01X55851Y51850D01*
G01X55880Y51816D01*
G01X55906Y51783D01*
G01X55929Y51752D01*
G01X55948Y51724D01*
G01X55963Y51697D01*
G01X55976Y51672D01*
G01X55986Y51648D01*
G01X55993Y51625D01*
G01X55997Y51603D01*
G01X56000Y51581D01*
G01X56000Y51560D01*
G01X55998Y51539D01*
G01X55995Y51519D01*
G01X55995Y51519D01*
G01X55978Y51433D01*
G01X55961Y51350D01*
G01X55944Y51267D01*
G01X55927Y51186D01*
G01X55911Y51106D01*
G01X55894Y51028D01*
G01X55877Y50950D01*
G01X55861Y50874D01*
G01X55844Y50799D01*
G01X55828Y50725D01*
G01X55811Y50653D01*
G01X55795Y50581D01*
G01X55778Y50510D01*
G01X55762Y50441D01*
G01X55745Y50372D01*
G01X55729Y50304D01*
G01X55712Y50238D01*
G01X55696Y50172D01*
G01X55679Y50107D01*
G01X55662Y50043D01*
G01X55646Y49980D01*
G01X55629Y49917D01*
G01X55612Y49855D01*
G01X55595Y49794D01*
G01X55577Y49734D01*
G01X55560Y49675D01*
G01X55543Y49616D01*
G01X55525Y49557D01*
G01X55507Y49500D01*
G01X55489Y49442D01*
G01X55471Y49386D01*
G01X55453Y49330D01*
G01X55434Y49274D01*
G01X55416Y49219D01*
G01X55397Y49164D01*
G01X55377Y49109D01*
G01X55358Y49055D01*
G01X55338Y49001D01*
G01X55319Y48948D01*
G01X55298Y48895D01*
G01X55278Y48842D01*
G01X55257Y48789D01*
G01X55236Y48737D01*
G01X55215Y48684D01*
G01X55193Y48632D01*
G01X55171Y48580D01*
G01X55149Y48528D01*
G01X55126Y48475D01*
G01X55103Y48423D01*
G01X55080Y48371D01*
G01X55056Y48319D01*
G01X55032Y48267D01*
G01X55007Y48215D01*
G01X54982Y48162D01*
G01X54957Y48109D01*
G01X54931Y48057D01*
G01X54905Y48004D01*
G01X54878Y47950D01*
G01X54851Y47897D01*
G01X54824Y47843D01*
G01X54795Y47789D01*
G01X54767Y47734D01*
G01X54738Y47679D01*
G01X54708Y47623D01*
G01X54678Y47568D01*
G01X54648Y47511D01*
G01X54617Y47454D01*
G01X54585Y47397D01*
G01X54585Y47397D01*
G01X54548Y47330D01*
G01X54512Y47266D01*
G01X54478Y47205D01*
G01X54445Y47146D01*
G01X54413Y47091D01*
G01X54383Y47038D01*
G01X54354Y46987D01*
G01X54326Y46940D01*
G01X54300Y46895D01*
G01X54275Y46853D01*
G01X54252Y46814D01*
G01X54229Y46777D01*
G01X54208Y46744D01*
G01X54189Y46713D01*
G01X54171Y46685D01*
G01X54154Y46660D01*
G01X54138Y46638D01*
G01X54124Y46618D01*
G01X54111Y46602D01*
G01X54100Y46588D01*
G01X54089Y46577D01*
G01X54081Y46569D01*
G01X54073Y46564D01*
G01X54067Y46562D01*
G01X54062Y46563D01*
G01X54059Y46567D01*
G01X54056Y46573D01*
G01X54056Y46583D01*
G01X54056Y46595D01*
G01X54058Y46611D01*
G01X54061Y46629D01*
G01X54066Y46651D01*
G01X54072Y46675D01*
G01X54079Y46703D01*
G01X54088Y46733D01*
G01X54098Y46767D01*
G01X54109Y46803D01*
G01X54121Y46843D01*
G01X54135Y46885D01*
G01X54151Y46931D01*
G01X54167Y46980D01*
G01X54185Y47031D01*
G01X54205Y47086D01*
G01X54225Y47144D01*
G01X54247Y47205D01*
G01X54270Y47269D01*
G01X54295Y47336D01*
G01X54321Y47407D01*
G01X54348Y47480D01*
G01X54377Y47557D01*
G01X54407Y47636D01*
G01X54438Y47719D01*
G01X54471Y47805D01*
G01X54505Y47895D01*
G01X54541Y47987D01*
G01X54577Y48083D01*
G01X54577Y48083D01*
G01X54596Y48133D01*
G01X54615Y48184D01*
G01X54634Y48235D01*
G01X54653Y48287D01*
G01X54671Y48339D01*
G01X54689Y48391D01*
G01X54707Y48444D01*
G01X54725Y48498D01*
G01X54743Y48552D01*
G01X54760Y48606D01*
G01X54777Y48661D01*
G01X54794Y48716D01*
G01X54811Y48772D01*
G01X54828Y48828D01*
G01X54844Y48885D01*
G01X54861Y48942D01*
G01X54877Y49000D01*
G01X54893Y49058D01*
G01X54908Y49117D01*
G01X54924Y49177D01*
G01X54939Y49236D01*
G01X54955Y49297D01*
G01X54970Y49357D01*
G01X54984Y49419D01*
G01X54999Y49481D01*
G01X55014Y49543D01*
G01X55028Y49606D01*
G01X55042Y49670D01*
G01X55056Y49734D01*
G01X55070Y49798D01*
G01X55083Y49864D01*
G01X55097Y49929D01*
G01X55110Y49996D01*
G01X55123Y50063D01*
G01X55136Y50130D01*
G01X55149Y50198D01*
G01X55162Y50267D01*
G01X55174Y50336D01*
G01X55187Y50406D01*
G01X55199Y50477D01*
G01X55211Y50548D01*
G01X55223Y50619D01*
G01X55234Y50692D01*
G01X55246Y50765D01*
G01X55257Y50838D01*
G01X55269Y50912D01*
G01X55280Y50987D01*
G01X55291Y51063D01*
G01X55291Y51063D01*
G01X55298Y51111D01*
G01X55304Y51155D01*
G01X55310Y51197D01*
G01X55314Y51235D01*
G01X55318Y51272D01*
G01X55319Y51306D01*
G01X55319Y51339D01*
G01X55317Y51370D01*
G01X55313Y51401D01*
G01X55306Y51432D01*
G01X55296Y51462D01*
G01X55283Y51494D01*
G01X55266Y51525D01*
G01X55246Y51559D01*
G01X55222Y51593D01*
G01X55194Y51630D01*
G01X55161Y51670D01*
G01X55124Y51712D01*
G01X55082Y51758D01*
G01X55034Y51807D01*
G01X54982Y51860D01*
G01X54923Y51918D01*
G01X54858Y51980D01*
G01X54787Y52048D01*
G01X54710Y52122D01*
G01X54626Y52202D01*
G01X54535Y52288D01*
G01X54436Y52381D01*
G01X54436Y52381D01*
G01X54337Y52475D01*
G01X54243Y52563D01*
G01X54155Y52647D01*
G01X54072Y52725D01*
G01X53994Y52798D01*
G01X53921Y52867D01*
G01X53852Y52932D01*
G01X53787Y52992D01*
G01X53727Y53048D01*
G01X53671Y53100D01*
G01X53618Y53148D01*
G01X53568Y53193D01*
G01X53522Y53234D01*
G01X53478Y53272D01*
G01X53437Y53307D01*
G01X53399Y53339D01*
G01X53363Y53368D01*
G01X53329Y53395D01*
G01X53296Y53419D01*
G01X53265Y53441D01*
G01X53236Y53462D01*
G01X53207Y53480D01*
G01X53180Y53497D01*
G01X53153Y53512D01*
G01X53126Y53526D01*
G01X53100Y53539D01*
G01X53074Y53550D01*
G01X53047Y53561D01*
G01X53020Y53572D01*
G01X52992Y53582D01*
G01X52963Y53592D01*
G01X52932Y53601D01*
G01X52901Y53611D01*
G01X52868Y53621D01*
G01X52832Y53632D01*
G01X52795Y53643D01*
G01X52795Y53643D01*
G01X52708Y53669D01*
G01X52629Y53692D01*
G01X52560Y53711D01*
G01X52499Y53727D01*
G01X52447Y53739D01*
G01X52404Y53748D01*
G01X52369Y53753D01*
G01X52343Y53754D01*
G01X52326Y53752D01*
G01X52318Y53745D01*
G01X52318Y53735D01*
G01X52327Y53720D01*
G01X52344Y53701D01*
G01X52370Y53678D01*
G01X52404Y53651D01*
G01X52446Y53620D01*
G01X52497Y53584D01*
G01X52556Y53543D01*
G01X52623Y53498D01*
G01X52699Y53448D01*
G01X53184Y53130D01*
G01X53457Y52593D01*
G01X53457Y52593D01*
G01X53490Y52528D01*
G01X53523Y52461D01*
G01X53557Y52394D01*
G01X53591Y52325D01*
G01X53625Y52256D01*
G01X53659Y52186D01*
G01X53693Y52116D01*
G01X53727Y52045D01*
G01X53761Y51974D01*
G01X53795Y51903D01*
G01X53828Y51832D01*
G01X53861Y51761D01*
G01X53894Y51690D01*
G01X53927Y51620D01*
G01X53959Y51550D01*
G01X53991Y51480D01*
G01X54022Y51412D01*
G01X54053Y51344D01*
G01X54083Y51278D01*
G01X54112Y51213D01*
G01X54140Y51149D01*
G01X54168Y51086D01*
G01X54194Y51025D01*
G01X54220Y50965D01*
G01X54245Y50908D01*
G01X54269Y50852D01*
G01X54291Y50799D01*
G01X54312Y50747D01*
G01X54332Y50698D01*
G01X54351Y50651D01*
G01X54369Y50607D01*
G01X54385Y50566D01*
G01X54399Y50528D01*
G01X54412Y50492D01*
G01X54424Y50460D01*
G01X54433Y50430D01*
G01X54442Y50405D01*
G01X54448Y50382D01*
G01X54452Y50364D01*
G01X54455Y50349D01*
G01X54455Y50349D01*
G01X54457Y50326D01*
G01X54458Y50298D01*
G01X54458Y50265D01*
G01X54456Y50228D01*
G01X54454Y50187D01*
G01X54450Y50142D01*
G01X54445Y50093D01*
G01X54440Y50040D01*
G01X54433Y49984D01*
G01X54426Y49924D01*
G01X54418Y49862D01*
G01X54409Y49797D01*
G01X54399Y49729D01*
G01X54389Y49659D01*
G01X54378Y49587D01*
G01X54366Y49514D01*
G01X54353Y49438D01*
G01X54340Y49361D01*
G01X54327Y49283D01*
G01X54313Y49204D01*
G01X54299Y49124D01*
G01X54284Y49043D01*
G01X54269Y48962D01*
G01X54253Y48881D01*
G01X54237Y48800D01*
G01X54221Y48719D01*
G01X54205Y48638D01*
G01X54189Y48559D01*
G01X54172Y48480D01*
G01X54156Y48402D01*
G01X54139Y48326D01*
G01X54122Y48251D01*
G01X54106Y48179D01*
G01X54089Y48108D01*
G01X54073Y48039D01*
G01X54057Y47973D01*
G01X54041Y47909D01*
G01X54025Y47848D01*
G01X54009Y47791D01*
G01X53994Y47736D01*
G01X53979Y47686D01*
G01X53965Y47638D01*
G01X53951Y47595D01*
G01X53937Y47556D01*
G01X53937Y47556D01*
G01X53917Y47502D01*
G01X53896Y47445D01*
G01X53874Y47387D01*
G01X53851Y47327D01*
G01X53826Y47265D01*
G01X53801Y47202D01*
G01X53775Y47137D01*
G01X53748Y47072D01*
G01X53720Y47005D01*
G01X53692Y46938D01*
G01X53663Y46870D01*
G01X53633Y46801D01*
G01X53603Y46731D01*
G01X53572Y46661D01*
G01X53541Y46591D01*
G01X53510Y46521D01*
G01X53478Y46451D01*
G01X53447Y46380D01*
G01X53415Y46311D01*
G01X53383Y46241D01*
G01X53351Y46172D01*
G01X53319Y46104D01*
G01X53287Y46036D01*
G01X53255Y45969D01*
G01X53224Y45903D01*
G01X53193Y45839D01*
G01X53162Y45775D01*
G01X53131Y45714D01*
G01X53102Y45653D01*
G01X53072Y45594D01*
G01X53044Y45537D01*
G01X53016Y45482D01*
G01X52988Y45429D01*
G01X52962Y45379D01*
G01X52936Y45330D01*
G01X52911Y45284D01*
G01X52888Y45241D01*
G01X52865Y45200D01*
G01X52843Y45162D01*
G01X52823Y45127D01*
G01X52804Y45095D01*
G01X52786Y45066D01*
G01X52769Y45041D01*
G01X52754Y45019D01*
G01X52741Y45001D01*
G01X52729Y44986D01*
G01X52718Y44975D01*
G01X52709Y44968D01*
G01X52702Y44966D01*
G01X52697Y44967D01*
G01X52694Y44973D01*
G01X52692Y44984D01*
G01X52692Y44984D01*
G01X52693Y44989D01*
G01X52696Y45001D01*
G01X52701Y45019D01*
G01X52708Y45042D01*
G01X52717Y45071D01*
G01X52727Y45105D01*
G01X52740Y45144D01*
G01X52753Y45188D01*
G01X52769Y45236D01*
G01X52786Y45289D01*
G01X52804Y45346D01*
G01X52824Y45407D01*
G01X52845Y45472D01*
G01X52867Y45541D01*
G01X52890Y45612D01*
G01X52915Y45687D01*
G01X52940Y45765D01*
G01X52967Y45845D01*
G01X52994Y45928D01*
G01X53022Y46014D01*
G01X53051Y46101D01*
G01X53081Y46190D01*
G01X53111Y46281D01*
G01X53142Y46374D01*
G01X53593Y47727D01*
G01X53686Y48638D01*
G01X53686Y48638D01*
G01X53694Y48714D01*
G01X53702Y48791D01*
G01X53710Y48869D01*
G01X53717Y48947D01*
G01X53725Y49025D01*
G01X53732Y49103D01*
G01X53740Y49180D01*
G01X53747Y49256D01*
G01X53754Y49331D01*
G01X53761Y49404D01*
G01X53768Y49475D01*
G01X53774Y49544D01*
G01X53780Y49610D01*
G01X53785Y49673D01*
G01X53791Y49732D01*
G01X53795Y49788D01*
G01X53800Y49839D01*
G01X53803Y49887D01*
G01X53807Y49929D01*
G01X53809Y49966D01*
G01X53839Y50382D01*
G01X53465Y51196D01*
G01X53465Y51196D01*
G01X53412Y51311D01*
G01X53362Y51420D01*
G01X53314Y51524D01*
G01X53269Y51622D01*
G01X53226Y51714D01*
G01X53185Y51802D01*
G01X53146Y51885D01*
G01X53109Y51964D01*
G01X53073Y52038D01*
G01X53040Y52107D01*
G01X53007Y52173D01*
G01X52977Y52235D01*
G01X52947Y52293D01*
G01X52918Y52347D01*
G01X52891Y52398D01*
G01X52864Y52446D01*
G01X52839Y52491D01*
G01X52813Y52533D01*
G01X52789Y52573D01*
G01X52764Y52610D01*
G01X52740Y52644D01*
G01X52716Y52677D01*
G01X52693Y52708D01*
G01X52669Y52737D01*
G01X52644Y52765D01*
G01X52620Y52791D01*
G01X52595Y52816D01*
G01X52569Y52840D01*
G01X52543Y52864D01*
G01X52515Y52887D01*
G01X52487Y52909D01*
G01X52458Y52931D01*
G01X52427Y52953D01*
G01X52396Y52975D01*
G01X52362Y52998D01*
G01X52327Y53021D01*
G01X52291Y53045D01*
G01X52252Y53069D01*
G01X52212Y53095D01*
G01X52169Y53122D01*
G01X52169Y53122D01*
G01X52110Y53158D01*
G01X52056Y53189D01*
G01X52008Y53214D01*
G01X51966Y53233D01*
G01X51929Y53246D01*
G01X51898Y53253D01*
G01X51873Y53253D01*
G01X51853Y53246D01*
G01X51838Y53233D01*
G01X51829Y53212D01*
G01X51826Y53185D01*
G01X51827Y53151D01*
G01X51834Y53109D01*
G01X51847Y53059D01*
G01X51864Y53002D01*
G01X51887Y52937D01*
G01X51915Y52864D01*
G01X51948Y52784D01*
G01X51986Y52694D01*
G01X52029Y52597D01*
G01X52029Y52597D01*
G01X52057Y52535D01*
G01X52082Y52472D01*
G01X52106Y52410D01*
G01X52129Y52348D01*
G01X52150Y52285D01*
G01X52170Y52222D01*
G01X52188Y52160D01*
G01X52205Y52097D01*
G01X52220Y52034D01*
G01X52234Y51971D01*
G01X52246Y51908D01*
G01X52257Y51845D01*
G01X52266Y51781D01*
G01X52274Y51718D01*
G01X52280Y51654D01*
G01X52285Y51590D01*
G01X52289Y51526D01*
G01X52291Y51462D01*
G01X52291Y51397D01*
G01X52290Y51333D01*
G01X52287Y51268D01*
G01X52283Y51203D01*
G01X52278Y51138D01*
G01X52271Y51072D01*
G01X52262Y51007D01*
G01X52252Y50941D01*
G01X52241Y50875D01*
G01X52228Y50809D01*
G01X52214Y50742D01*
G01X52198Y50675D01*
G01X52180Y50608D01*
G01X52161Y50541D01*
G01X52161Y50541D01*
G01X52139Y50467D01*
G01X52116Y50393D01*
G01X52091Y50319D01*
G01X52065Y50245D01*
G01X52037Y50171D01*
G01X52009Y50098D01*
G01X51979Y50025D01*
G01X51949Y49953D01*
G01X51917Y49882D01*
G01X51885Y49812D01*
G01X51853Y49743D01*
G01X51820Y49675D01*
G01X51786Y49609D01*
G01X51752Y49544D01*
G01X51718Y49481D01*
G01X51684Y49420D01*
G01X51649Y49361D01*
G01X51615Y49304D01*
G01X51581Y49249D01*
G01X51547Y49197D01*
G01X51513Y49148D01*
G01X51480Y49101D01*
G01X51447Y49058D01*
G01X51414Y49017D01*
G01X51383Y48980D01*
G01X51352Y48946D01*
G01X51322Y48916D01*
G01X51293Y48889D01*
G01X51265Y48866D01*
G01X51238Y48847D01*
G01X51212Y48833D01*
G01X51187Y48822D01*
G01X51164Y48817D01*
G01X51143Y48815D01*
G01X51123Y48819D01*
G01X51105Y48827D01*
G01X51105Y48827D01*
G01X51064Y48846D01*
G01X51026Y48853D01*
G01X50986Y48846D01*
G01X50943Y48825D01*
G01X50943Y48825D01*
G01X50926Y48818D01*
G01X50907Y48815D01*
G01X50887Y48816D01*
G01X50865Y48822D01*
G01X50842Y48831D01*
G01X50818Y48845D01*
G01X50792Y48863D01*
G01X50766Y48884D01*
G01X50738Y48909D01*
G01X50710Y48938D01*
G01X50681Y48970D01*
G01X50651Y49005D01*
G01X50620Y49043D01*
G01X50589Y49084D01*
G01X50557Y49128D01*
G01X50525Y49175D01*
G01X50493Y49224D01*
G01X50460Y49275D01*
G01X50428Y49329D01*
G01X50395Y49385D01*
G01X50362Y49443D01*
G01X50329Y49503D01*
G01X50297Y49564D01*
G01X50264Y49628D01*
G01X50232Y49692D01*
G01X50201Y49758D01*
G01X50170Y49825D01*
G01X50139Y49893D01*
G01X50110Y49963D01*
G01X50081Y50033D01*
G01X50053Y50103D01*
G01X50026Y50174D01*
G01X49999Y50246D01*
G01X49974Y50318D01*
G01X49950Y50389D01*
G01X49928Y50461D01*
G01X49928Y50461D01*
G01X49908Y50526D01*
G01X49891Y50586D01*
G01X49876Y50643D01*
G01X49862Y50697D01*
G01X49850Y50750D01*
G01X49840Y50802D01*
G01X49831Y50854D01*
G01X49824Y50907D01*
G01X49817Y50962D01*
G01X49812Y51021D01*
G01X49808Y51083D01*
G01X49805Y51151D01*
G01X49803Y51224D01*
G01X49801Y51303D01*
G01X49800Y51391D01*
G01X49800Y51487D01*
G01X49797Y52102D01*
G01X50036Y52611D01*
G01X50036Y52611D01*
G01X50076Y52697D01*
G01X50111Y52776D01*
G01X50142Y52849D01*
G01X50170Y52916D01*
G01X50193Y52977D01*
G01X50211Y53031D01*
G01X50226Y53080D01*
G01X50236Y53123D01*
G01X50241Y53159D01*
G01X50242Y53190D01*
G01X50239Y53216D01*
G01X50231Y53235D01*
G01X50219Y53249D01*
G01X50202Y53258D01*
G01X50180Y53261D01*
G01X50153Y53259D01*
G01X50122Y53251D01*
G01X50086Y53238D01*
G01X50046Y53220D01*
G01X50000Y53197D01*
G01X49949Y53169D01*
G01X49894Y53136D01*
G01X49833Y53098D01*
G01X49768Y53055D01*
G01X49768Y53055D01*
G01X49725Y53026D01*
G01X49684Y52999D01*
G01X49646Y52972D01*
G01X49610Y52945D01*
G01X49575Y52919D01*
G01X49543Y52893D01*
G01X49511Y52866D01*
G01X49481Y52839D01*
G01X49452Y52811D01*
G01X49424Y52782D01*
G01X49397Y52751D01*
G01X49370Y52719D01*
G01X49344Y52684D01*
G01X49317Y52648D01*
G01X49291Y52608D01*
G01X49264Y52566D01*
G01X49236Y52521D01*
G01X49208Y52472D01*
G01X49179Y52419D01*
G01X49149Y52362D01*
G01X49117Y52301D01*
G01X49084Y52236D01*
G01X49050Y52165D01*
G01X49013Y52089D01*
G01X48974Y52008D01*
G01X48933Y51921D01*
G01X48890Y51829D01*
G01X48844Y51729D01*
G01X48844Y51729D01*
G01X48788Y51610D01*
G01X48736Y51498D01*
G01X48688Y51393D01*
G01X48642Y51294D01*
G01X48599Y51201D01*
G01X48560Y51114D01*
G01X48523Y51032D01*
G01X48489Y50956D01*
G01X48458Y50885D01*
G01X48429Y50818D01*
G01X48402Y50756D01*
G01X48378Y50697D01*
G01X48357Y50643D01*
G01X48337Y50592D01*
G01X48320Y50544D01*
G01X48304Y50499D01*
G01X48291Y50457D01*
G01X48279Y50417D01*
G01X48269Y50380D01*
G01X48260Y50343D01*
G01X48253Y50309D01*
G01X48247Y50276D01*
G01X48243Y50243D01*
G01X48240Y50211D01*
G01X48238Y50180D01*
G01X48237Y50148D01*
G01X48237Y50116D01*
G01X48237Y50084D01*
G01X48239Y50051D01*
G01X48241Y50017D01*
G01X48243Y49981D01*
G01X48246Y49944D01*
G01X48246Y49944D01*
G01X48254Y49850D01*
G01X48262Y49758D01*
G01X48269Y49669D01*
G01X48277Y49582D01*
G01X48284Y49498D01*
G01X48291Y49416D01*
G01X48298Y49335D01*
G01X48305Y49257D01*
G01X48312Y49181D01*
G01X48319Y49107D01*
G01X48326Y49035D01*
G01X48333Y48964D01*
G01X48340Y48895D01*
G01X48347Y48828D01*
G01X48354Y48762D01*
G01X48361Y48698D01*
G01X48368Y48636D01*
G01X48375Y48574D01*
G01X48383Y48514D01*
G01X48390Y48456D01*
G01X48398Y48398D01*
G01X48405Y48341D01*
G01X48413Y48286D01*
G01X48421Y48231D01*
G01X48429Y48178D01*
G01X48437Y48125D01*
G01X48446Y48073D01*
G01X48454Y48022D01*
G01X48463Y47971D01*
G01X48473Y47921D01*
G01X48482Y47871D01*
G01X48492Y47822D01*
G01X48502Y47773D01*
G01X48512Y47724D01*
G01X48522Y47675D01*
G01X48533Y47627D01*
G01X48544Y47579D01*
G01X48556Y47531D01*
G01X48568Y47482D01*
G01X48580Y47434D01*
G01X48593Y47385D01*
G01X48606Y47336D01*
G01X48620Y47287D01*
G01X48633Y47237D01*
G01X48648Y47187D01*
G01X48663Y47136D01*
G01X48678Y47085D01*
G01X48694Y47033D01*
G01X48710Y46980D01*
G01X48727Y46927D01*
G01X48744Y46872D01*
G01X48762Y46817D01*
G01X48781Y46761D01*
G01X48800Y46703D01*
G01X48819Y46644D01*
G01X48839Y46584D01*
G01X48860Y46523D01*
G01X48881Y46461D01*
G01X48903Y46397D01*
G01X48926Y46331D01*
G01X48950Y46264D01*
G01X48974Y46195D01*
G01X48998Y46125D01*
G01X49024Y46053D01*
G01X49024Y46053D01*
G01X49053Y45969D01*
G01X49082Y45888D01*
G01X49109Y45810D01*
G01X49134Y45736D01*
G01X49159Y45665D01*
G01X49182Y45597D01*
G01X49204Y45533D01*
G01X49224Y45472D01*
G01X49243Y45414D01*
G01X49261Y45360D01*
G01X49278Y45309D01*
G01X49293Y45261D01*
G01X49307Y45216D01*
G01X49320Y45175D01*
G01X49331Y45137D01*
G01X49341Y45102D01*
G01X49350Y45070D01*
G01X49357Y45042D01*
G01X49363Y45017D01*
G01X49367Y44996D01*
G01X49370Y44978D01*
G01X49372Y44962D01*
G01X49373Y44951D01*
G01X49372Y44942D01*
G01X49370Y44937D01*
G01X49366Y44935D01*
G01X49361Y44937D01*
G01X49354Y44941D01*
G01X49347Y44949D01*
G01X49337Y44961D01*
G01X49327Y44975D01*
G01X49315Y44993D01*
G01X49301Y45014D01*
G01X49286Y45039D01*
G01X49270Y45067D01*
G01X49253Y45098D01*
G01X49233Y45132D01*
G01X49213Y45169D01*
G01X49191Y45210D01*
G01X49168Y45254D01*
G01X49143Y45302D01*
G01X49116Y45353D01*
G01X49089Y45407D01*
G01X49060Y45464D01*
G01X49029Y45524D01*
G01X48997Y45588D01*
G01X48963Y45655D01*
G01X48928Y45726D01*
G01X48892Y45800D01*
G01X48854Y45877D01*
G01X48814Y45957D01*
G01X48773Y46040D01*
G01X48773Y46040D01*
G01X48738Y46113D01*
G01X48703Y46184D01*
G01X48670Y46253D01*
G01X48638Y46320D01*
G01X48607Y46385D01*
G01X48576Y46448D01*
G01X48547Y46511D01*
G01X48519Y46571D01*
G01X48491Y46630D01*
G01X48464Y46688D01*
G01X48439Y46745D01*
G01X48414Y46801D01*
G01X48390Y46855D01*
G01X48366Y46909D01*
G01X48344Y46961D01*
G01X48322Y47013D01*
G01X48300Y47065D01*
G01X48280Y47115D01*
G01X48260Y47165D01*
G01X48240Y47215D01*
G01X48221Y47264D01*
G01X48203Y47313D01*
G01X48185Y47361D01*
G01X48168Y47410D01*
G01X48151Y47458D01*
G01X48135Y47507D01*
G01X48119Y47555D01*
G01X48103Y47604D01*
G01X48088Y47653D01*
G01X48073Y47702D01*
G01X48058Y47752D01*
G01X48044Y47803D01*
G01X48029Y47854D01*
G01X48015Y47906D01*
G01X48001Y47958D01*
G01X47988Y48011D01*
G01X47974Y48066D01*
G01X47961Y48121D01*
G01X47947Y48178D01*
G01X47934Y48235D01*
G01X47921Y48294D01*
G01X47907Y48355D01*
G01X47894Y48417D01*
G01X47880Y48480D01*
G01X47867Y48545D01*
G01X47853Y48612D01*
G01X47839Y48680D01*
G01X47825Y48751D01*
G01X47811Y48823D01*
G01X47796Y48897D01*
G01X47781Y48974D01*
G01X47766Y49052D01*
G01X47766Y49052D01*
G01X47753Y49123D01*
G01X47740Y49190D01*
G01X47727Y49255D01*
G01X47715Y49318D01*
G01X47703Y49378D01*
G01X47692Y49436D01*
G01X47682Y49492D01*
G01X47672Y49546D01*
G01X47663Y49598D01*
G01X47655Y49649D01*
G01X47647Y49697D01*
G01X47639Y49744D01*
G01X47633Y49790D01*
G01X47627Y49834D01*
G01X47622Y49877D01*
G01X47618Y49919D01*
G01X47615Y49960D01*
G01X47612Y50001D01*
G01X47610Y50040D01*
G01X47609Y50079D01*
G01X47609Y50117D01*
G01X47610Y50155D01*
G01X47612Y50193D01*
G01X47614Y50230D01*
G01X47618Y50268D01*
G01X47622Y50305D01*
G01X47628Y50343D01*
G01X47635Y50380D01*
G01X47642Y50419D01*
G01X47651Y50458D01*
G01X47661Y50497D01*
G01X47672Y50537D01*
G01X47684Y50578D01*
G01X47697Y50620D01*
G01X47712Y50663D01*
G01X47727Y50708D01*
G01X47744Y50753D01*
G01X47762Y50800D01*
G01X47782Y50849D01*
G01X47802Y50899D01*
G01X47824Y50951D01*
G01X47847Y51005D01*
G01X47872Y51061D01*
G01X47898Y51119D01*
G01X47925Y51179D01*
G01X47954Y51241D01*
G01X47984Y51306D01*
G01X48016Y51374D01*
G01X48049Y51444D01*
G01X48084Y51517D01*
G01X48120Y51593D01*
G01X48158Y51672D01*
G01X48197Y51754D01*
G01X48238Y51840D01*
G01X48280Y51928D01*
G01X48324Y52021D01*
G01X48873Y53170D01*
G01X49353Y53454D01*
G01X49353Y53454D01*
G01X49432Y53501D01*
G01X49502Y53544D01*
G01X49564Y53582D01*
G01X49617Y53616D01*
G01X49662Y53647D01*
G01X49698Y53673D01*
G01X49726Y53695D01*
G01X49745Y53714D01*
G01X49756Y53729D01*
G01X49758Y53740D01*
G01X49752Y53747D01*
G01X49737Y53750D01*
G01X49713Y53750D01*
G01X49681Y53747D01*
G01X49641Y53740D01*
G01X49591Y53729D01*
G01X49534Y53715D01*
G01X49467Y53698D01*
G01X49392Y53677D01*
G01X49308Y53654D01*
G01X49308Y53654D01*
G01X49263Y53641D01*
G01X49221Y53629D01*
G01X49182Y53617D01*
G01X49144Y53605D01*
G01X49108Y53594D01*
G01X49073Y53582D01*
G01X49040Y53569D01*
G01X49007Y53556D01*
G01X48975Y53542D01*
G01X48943Y53527D01*
G01X48911Y53510D01*
G01X48878Y53492D01*
G01X48845Y53472D01*
G01X48811Y53450D01*
G01X48775Y53425D01*
G01X48738Y53398D01*
G01X48699Y53368D01*
G01X48658Y53335D01*
G01X48614Y53299D01*
G01X48568Y53260D01*
G01X48518Y53217D01*
G01X48464Y53169D01*
G01X48407Y53118D01*
G01X48346Y53063D01*
G01X48281Y53002D01*
G01X48211Y52937D01*
G01X48136Y52867D01*
G01X48056Y52792D01*
G01X47970Y52711D01*
G01X47878Y52625D01*
G01X47780Y52532D01*
G01X47675Y52434D01*
G01X47675Y52434D01*
G01X47571Y52336D01*
G01X47475Y52244D01*
G01X47386Y52160D01*
G01X47304Y52082D01*
G01X47229Y52010D01*
G01X47160Y51943D01*
G01X47098Y51882D01*
G01X47041Y51825D01*
G01X46990Y51772D01*
G01X46945Y51723D01*
G01X46905Y51678D01*
G01X46870Y51636D01*
G01X46840Y51596D01*
G01X46814Y51559D01*
G01X46792Y51523D01*
G01X46774Y51489D01*
G01X46760Y51456D01*
G01X46748Y51424D01*
G01X46740Y51391D01*
G01X46735Y51359D01*
G01X46733Y51326D01*
G01X46732Y51292D01*
G01X46734Y51257D01*
G01X46737Y51220D01*
G01X46742Y51180D01*
G01X46748Y51138D01*
G01X46755Y51093D01*
G01X46763Y51045D01*
G01X46763Y51045D01*
G01X46776Y50963D01*
G01X46788Y50883D01*
G01X46801Y50805D01*
G01X46814Y50728D01*
G01X46826Y50652D01*
G01X46839Y50578D01*
G01X46852Y50505D01*
G01X46864Y50433D01*
G01X46877Y50362D01*
G01X46890Y50292D01*
G01X46902Y50224D01*
G01X46915Y50156D01*
G01X46928Y50089D01*
G01X46941Y50024D01*
G01X46954Y49959D01*
G01X46967Y49895D01*
G01X46980Y49831D01*
G01X46994Y49769D01*
G01X47007Y49707D01*
G01X47021Y49646D01*
G01X47035Y49585D01*
G01X47049Y49525D01*
G01X47063Y49465D01*
G01X47077Y49406D01*
G01X47092Y49347D01*
G01X47107Y49289D01*
G01X47122Y49231D01*
G01X47137Y49173D01*
G01X47153Y49115D01*
G01X47169Y49058D01*
G01X47185Y49000D01*
G01X47201Y48943D01*
G01X47218Y48886D01*
G01X47235Y48828D01*
G01X47252Y48771D01*
G01X47270Y48714D01*
G01X47288Y48656D01*
G01X47307Y48598D01*
G01X47326Y48540D01*
G01X47345Y48481D01*
G01X47365Y48423D01*
G01X47385Y48363D01*
G01X47405Y48304D01*
G01X47426Y48244D01*
G01X47448Y48183D01*
G01X47469Y48122D01*
G01X47492Y48060D01*
G01X47515Y47997D01*
G01X47538Y47934D01*
G01X47562Y47869D01*
G01X47586Y47805D01*
G01X47611Y47739D01*
G01X47611Y47739D01*
G01X47667Y47593D01*
G01X47718Y47459D01*
G01X47764Y47337D01*
G01X47806Y47228D01*
G01X47843Y47129D01*
G01X47877Y47040D01*
G01X47906Y46961D01*
G01X47932Y46891D01*
G01X47955Y46830D01*
G01X47974Y46777D01*
G01X47990Y46732D01*
G01X48003Y46693D01*
G01X48013Y46661D01*
G01X48021Y46635D01*
G01X48027Y46614D01*
G01X48030Y46597D01*
G01X48031Y46585D01*
G01X48031Y46576D01*
G01X48029Y46570D01*
G01X48026Y46567D01*
G01X48021Y46565D01*
G01X48016Y46564D01*
G01X48009Y46564D01*
G01X48002Y46564D01*
G01X48002Y46564D01*
G01X47994Y46567D01*
G01X47984Y46574D01*
G01X47971Y46586D01*
G01X47957Y46602D01*
G01X47940Y46622D01*
G01X47922Y46647D01*
G01X47902Y46675D01*
G01X47880Y46707D01*
G01X47857Y46742D01*
G01X47832Y46781D01*
G01X47806Y46823D01*
G01X47778Y46868D01*
G01X47749Y46916D01*
G01X47719Y46967D01*
G01X47688Y47020D01*
G01X47656Y47076D01*
G01X47624Y47134D01*
G01X47590Y47194D01*
G01X47556Y47256D01*
G01X47521Y47319D01*
G01X47486Y47384D01*
G01X47450Y47450D01*
G01X47414Y47518D01*
G01X47378Y47586D01*
G01X47341Y47655D01*
G01X47305Y47725D01*
G01X47269Y47796D01*
G01X47232Y47867D01*
G01X47196Y47938D01*
G01X47161Y48009D01*
G01X47125Y48080D01*
G01X47090Y48150D01*
G01X47056Y48220D01*
G01X47023Y48290D01*
G01X46990Y48358D01*
G01X46958Y48426D01*
G01X46927Y48492D01*
G01X46897Y48557D01*
G01X46868Y48621D01*
G01X46841Y48683D01*
G01X46814Y48743D01*
G01X46790Y48801D01*
G01X46766Y48856D01*
G01X46744Y48910D01*
G01X46744Y48910D01*
G01X46732Y48942D01*
G01X46719Y48978D01*
G01X46705Y49017D01*
G01X46690Y49060D01*
G01X46674Y49107D01*
G01X46658Y49156D01*
G01X46642Y49208D01*
G01X46625Y49264D01*
G01X46607Y49321D01*
G01X46589Y49382D01*
G01X46571Y49444D01*
G01X46552Y49508D01*
G01X46533Y49575D01*
G01X46513Y49643D01*
G01X46494Y49712D01*
G01X46474Y49783D01*
G01X46455Y49856D01*
G01X46435Y49929D01*
G01X46415Y50002D01*
G01X46395Y50077D01*
G01X46376Y50152D01*
G01X46356Y50227D01*
G01X46337Y50303D01*
G01X46318Y50378D01*
G01X46299Y50453D01*
G01X46280Y50527D01*
G01X46262Y50601D01*
G01X46244Y50675D01*
G01X46227Y50747D01*
G01X46210Y50818D01*
G01X46194Y50887D01*
G01X46179Y50956D01*
G01X46164Y51022D01*
G01X46149Y51087D01*
G01X46136Y51149D01*
G01X46123Y51210D01*
G01X46111Y51268D01*
G01X46100Y51323D01*
G01X46090Y51376D01*
G01X46081Y51426D01*
G01X46024Y51752D01*
G01X46178Y51887D01*
G01X46178Y51887D01*
G01X46205Y51911D01*
G01X46235Y51937D01*
G01X46268Y51966D01*
G01X46305Y51998D01*
G01X46345Y52032D01*
G01X46388Y52069D01*
G01X46433Y52108D01*
G01X46481Y52149D01*
G01X46531Y52192D01*
G01X46583Y52237D01*
G01X46638Y52284D01*
G01X46694Y52332D01*
G01X46752Y52382D01*
G01X46812Y52433D01*
G01X46872Y52485D01*
G01X46935Y52538D01*
G01X46998Y52592D01*
G01X47061Y52646D01*
G01X47126Y52701D01*
G01X47191Y52757D01*
G01X47256Y52812D01*
G01X47322Y52868D01*
G01X47387Y52924D01*
G01X47452Y52979D01*
G01X47517Y53034D01*
G01X47582Y53089D01*
G01X47645Y53143D01*
G01X47708Y53197D01*
G01X47770Y53249D01*
G01X47830Y53300D01*
G01X47890Y53351D01*
G01X47947Y53400D01*
G01X48003Y53447D01*
G01X48057Y53493D01*
G01X48109Y53537D01*
G01X48159Y53579D01*
G01X48206Y53619D01*
G01X48251Y53656D01*
G01X48293Y53692D01*
G01X48332Y53725D01*
G01X48368Y53755D01*
G01X48401Y53782D01*
G01X48431Y53807D01*
G01X48456Y53828D01*
G01X48479Y53847D01*
G01X48497Y53861D01*
G01X48511Y53873D01*
G01X48521Y53880D01*
G01X48521Y53880D01*
G01X48543Y53896D01*
G01X48574Y53913D01*
G01X48611Y53933D01*
G01X48655Y53953D01*
G01X48704Y53975D01*
G01X48758Y53997D01*
G01X48815Y54020D01*
G01X48876Y54043D01*
G01X48939Y54066D01*
G01X49004Y54089D01*
G01X49070Y54111D01*
G01X49136Y54131D01*
G01X49136Y54131D01*
G01X49227Y54159D01*
G01X49308Y54185D01*
G01X49381Y54209D01*
G01X49444Y54230D01*
G01X49498Y54249D01*
G01X49543Y54266D01*
G01X49579Y54282D01*
G01X49607Y54295D01*
G01X49625Y54307D01*
G01X49634Y54318D01*
G01X49635Y54327D01*
G01X49627Y54334D01*
G01X49610Y54341D01*
G01X49584Y54346D01*
G01X49550Y54350D01*
G01X49508Y54353D01*
G01X49457Y54356D01*
G01X49397Y54357D01*
G01X49329Y54358D01*
G01X49253Y54358D01*
G01X48805Y54358D01*
G01X47331Y53618D01*
G01X47331Y53618D01*
G01X47212Y53559D01*
G01X47100Y53502D01*
G01X46992Y53449D01*
G01X46891Y53399D01*
G01X46795Y53351D01*
G01X46705Y53307D01*
G01X46619Y53265D01*
G01X46539Y53226D01*
G01X46464Y53189D01*
G01X46393Y53156D01*
G01X46327Y53125D01*
G01X46266Y53096D01*
G01X46209Y53070D01*
G01X46157Y53046D01*
G01X46109Y53025D01*
G01X46065Y53005D01*
G01X46024Y52988D01*
G01X45988Y52974D01*
G01X45955Y52961D01*
G01X45926Y52950D01*
G01X45900Y52942D01*
G01X45877Y52935D01*
G01X45858Y52930D01*
G01X45842Y52927D01*
G01X45828Y52926D01*
G01X45817Y52927D01*
G01X45809Y52929D01*
G01X45803Y52932D01*
G01X45803Y52932D01*
G01X45786Y52953D01*
G01X45768Y52978D01*
G01X45752Y53008D01*
G01X45736Y53043D01*
G01X45721Y53081D01*
G01X45707Y53123D01*
G01X45694Y53168D01*
G01X45681Y53217D01*
G01X45670Y53269D01*
G01X45659Y53324D01*
G01X45649Y53382D01*
G01X45640Y53441D01*
G01X45631Y53503D01*
G01X45624Y53567D01*
G01X45618Y53632D01*
G01X45612Y53698D01*
G01X45608Y53766D01*
G01X45604Y53834D01*
G01X45602Y53903D01*
G01X45600Y53973D01*
G01X45600Y54042D01*
G01X45601Y54112D01*
G01X45602Y54181D01*
G01X45605Y54249D01*
G01X45609Y54317D01*
G01X45614Y54384D01*
G01X45620Y54449D01*
G01X45628Y54512D01*
G01X45636Y54574D01*
G01X45646Y54634D01*
G01X45657Y54691D01*
G01X45669Y54746D01*
G01X45669Y54746D01*
G01X45679Y54782D01*
G01X45689Y54821D01*
G01X45700Y54863D01*
G01X45713Y54907D01*
G01X45727Y54953D01*
G01X45741Y55001D01*
G01X45757Y55051D01*
G01X45774Y55103D01*
G01X45792Y55158D01*
G01X45810Y55214D01*
G01X45830Y55271D01*
G01X45850Y55331D01*
G01X45872Y55392D01*
G01X45894Y55455D01*
G01X45916Y55519D01*
G01X45940Y55584D01*
G01X45964Y55651D01*
G01X45989Y55718D01*
G01X46014Y55787D01*
G01X46040Y55857D01*
G01X46067Y55928D01*
G01X46094Y56000D01*
G01X46122Y56072D01*
G01X46150Y56146D01*
G01X46178Y56219D01*
G01X46207Y56294D01*
G01X46236Y56369D01*
G01X46266Y56444D01*
G01X46295Y56519D01*
G01X46326Y56595D01*
G01X46356Y56671D01*
G01X46386Y56747D01*
G01X46417Y56822D01*
G01X46447Y56898D01*
G01X46478Y56974D01*
G01X46509Y57049D01*
G01X46540Y57124D01*
G01X46571Y57198D01*
G01X46601Y57272D01*
G01X46632Y57345D01*
G01X46663Y57418D01*
G01X46693Y57490D01*
G01X46723Y57561D01*
G01X46753Y57631D01*
G01X46783Y57700D01*
G01X46812Y57768D01*
G01X46841Y57835D01*
G01X46870Y57900D01*
G01X46899Y57965D01*
G01X46926Y58027D01*
G01X46954Y58089D01*
G01X46981Y58149D01*
G01X47007Y58207D01*
G01X47033Y58263D01*
G01X47058Y58317D01*
G01X47083Y58370D01*
G01X47107Y58421D01*
G01X47130Y58469D01*
G01X47153Y58516D01*
G01X47175Y58560D01*
G01X47196Y58602D01*
G01X47216Y58641D01*
G01X47235Y58678D01*
G01X47254Y58713D01*
G01X47271Y58744D01*
G01X47288Y58774D01*
G01X47303Y58800D01*
G01X47318Y58823D01*
G01X47331Y58844D01*
G01X47343Y58861D01*
G01X47355Y58875D01*
G01X47365Y58887D01*
G01X47373Y58894D01*
G01X47381Y58899D01*
G01X47387Y58900D01*
G01X47392Y58897D01*
G01X47392Y58897D01*
G01X47393Y58891D01*
G01X47390Y58877D01*
G01X47386Y58856D01*
G01X47379Y58826D01*
G01X47369Y58790D01*
G01X47358Y58747D01*
G01X47344Y58697D01*
G01X47329Y58642D01*
G01X47311Y58580D01*
G01X47292Y58514D01*
G01X47271Y58442D01*
G01X47248Y58365D01*
G01X47224Y58284D01*
G01X47198Y58199D01*
G01X47171Y58110D01*
G01X47143Y58018D01*
G01X47114Y57923D01*
G01X47083Y57824D01*
G01X47052Y57724D01*
G01X47020Y57621D01*
G01X47020Y57621D01*
G01X46986Y57512D01*
G01X46952Y57405D01*
G01X46920Y57301D01*
G01X46889Y57200D01*
G01X46858Y57101D01*
G01X46829Y57005D01*
G01X46800Y56911D01*
G01X46772Y56820D01*
G01X46746Y56731D01*
G01X46720Y56644D01*
G01X46694Y56560D01*
G01X46670Y56478D01*
G01X46647Y56398D01*
G01X46624Y56320D01*
G01X46602Y56244D01*
G01X46581Y56171D01*
G01X46561Y56099D01*
G01X46542Y56029D01*
G01X46523Y55961D01*
G01X46505Y55894D01*
G01X46488Y55830D01*
G01X46472Y55767D01*
G01X46456Y55706D01*
G01X46441Y55646D01*
G01X46426Y55588D01*
G01X46413Y55531D01*
G01X46400Y55476D01*
G01X46387Y55422D01*
G01X46375Y55370D01*
G01X46364Y55318D01*
G01X46354Y55268D01*
G01X46344Y55219D01*
G01X46334Y55172D01*
G01X46325Y55125D01*
G01X46317Y55079D01*
G01X46309Y55034D01*
G01X46302Y54991D01*
G01X46296Y54948D01*
G01X46289Y54905D01*
G01X46284Y54864D01*
G01X46279Y54823D01*
G01X46274Y54783D01*
G01X46270Y54743D01*
G01X46266Y54704D01*
G01X46262Y54665D01*
G01X46259Y54627D01*
G01X46257Y54589D01*
G01X46255Y54552D01*
G01X46253Y54515D01*
G01X46252Y54477D01*
G01X46250Y54441D01*
G01X46250Y54404D01*
G01X46242Y53880D01*
G01X46378Y53886D01*
G01X46378Y53886D01*
G01X46397Y53888D01*
G01X46423Y53895D01*
G01X46457Y53905D01*
G01X46498Y53919D01*
G01X46546Y53935D01*
G01X46599Y53955D01*
G01X46658Y53978D01*
G01X46723Y54003D01*
G01X46791Y54031D01*
G01X46864Y54061D01*
G01X46941Y54093D01*
G01X47020Y54127D01*
G01X47102Y54163D01*
G01X47186Y54200D01*
G01X47272Y54238D01*
G01X47358Y54277D01*
G01X47358Y54277D01*
G01X47484Y54335D01*
G01X47602Y54389D01*
G01X47713Y54439D01*
G01X47816Y54486D01*
G01X47913Y54530D01*
G01X48004Y54571D01*
G01X48088Y54608D01*
G01X48167Y54643D01*
G01X48241Y54675D01*
G01X48310Y54704D01*
G01X48374Y54731D01*
G01X48434Y54755D01*
G01X48491Y54777D01*
G01X48544Y54797D01*
G01X48593Y54815D01*
G01X48640Y54830D01*
G01X48685Y54844D01*
G01X48727Y54856D01*
G01X48768Y54866D01*
G01X48807Y54875D01*
G01X48845Y54883D01*
G01X48883Y54889D01*
G01X48920Y54894D01*
G01X48957Y54897D01*
G01X48995Y54900D01*
G01X49034Y54902D01*
G01X49073Y54903D01*
G01X49114Y54904D01*
G01X49157Y54904D01*
G01X49202Y54903D01*
G01X49249Y54903D01*
G01X49300Y54902D01*
G01X49300Y54902D01*
G01X49396Y54901D01*
G01X49487Y54900D01*
G01X49570Y54901D01*
G01X49643Y54902D01*
G01X49705Y54904D01*
G01X49753Y54907D01*
G01X49785Y54911D01*
G01X49799Y54915D01*
G01X49799Y54915D01*
G01X49796Y54925D01*
G01X49775Y54942D01*
G01X49740Y54964D01*
G01X49691Y54992D01*
G01X49632Y55023D01*
G01X49564Y55057D01*
G01X49490Y55092D01*
G01X49413Y55128D01*
G01X49333Y55164D01*
G01X49254Y55198D01*
G01X49178Y55229D01*
G01X49107Y55258D01*
G01X49043Y55281D01*
G01X48989Y55300D01*
G01X48946Y55311D01*
G01X48917Y55315D01*
G01X48917Y55315D01*
G01X48899Y55313D01*
G01X48871Y55308D01*
G01X48835Y55299D01*
G01X48792Y55287D01*
G01X48743Y55272D01*
G01X48688Y55254D01*
G01X48628Y55234D01*
G01X48563Y55212D01*
G01X48496Y55188D01*
G01X48425Y55162D01*
G01X48353Y55135D01*
G01X48280Y55107D01*
G01X48280Y55107D01*
G01X48182Y55069D01*
G01X48086Y55032D01*
G01X47993Y54996D01*
G01X47904Y54962D01*
G01X47818Y54930D01*
G01X47736Y54899D01*
G01X47658Y54871D01*
G01X47583Y54843D01*
G01X47513Y54818D01*
G01X47447Y54795D01*
G01X47385Y54773D01*
G01X47328Y54754D01*
G01X47276Y54736D01*
G01X47229Y54721D01*
G01X47187Y54708D01*
G01X47150Y54697D01*
G01X47119Y54688D01*
G01X47093Y54682D01*
G01X47073Y54679D01*
G01X47059Y54677D01*
G01X47059Y54677D01*
G01X47043Y54680D01*
G01X47029Y54688D01*
G01X47017Y54700D01*
G01X47006Y54718D01*
G01X46997Y54740D01*
G01X46989Y54767D01*
G01X46983Y54798D01*
G01X46978Y54833D01*
G01X46974Y54873D01*
G01X46972Y54916D01*
G01X46972Y54964D01*
G01X46973Y55015D01*
G01X46976Y55069D01*
G01X46979Y55127D01*
G01X46985Y55188D01*
G01X46991Y55252D01*
G01X47000Y55320D01*
G01X47009Y55390D01*
G01X47020Y55462D01*
G01X47032Y55537D01*
G01X47046Y55615D01*
G01X47061Y55695D01*
G01X47077Y55777D01*
G01X47095Y55860D01*
G01X47114Y55946D01*
G01X47134Y56033D01*
G01X47155Y56122D01*
G01X47178Y56212D01*
G01X47178Y56212D01*
G01X47195Y56276D01*
G01X47213Y56343D01*
G01X47231Y56410D01*
G01X47250Y56480D01*
G01X47271Y56551D01*
G01X47291Y56623D01*
G01X47313Y56697D01*
G01X47335Y56771D01*
G01X47358Y56847D01*
G01X47381Y56923D01*
G01X47405Y57000D01*
G01X47429Y57078D01*
G01X47454Y57156D01*
G01X47479Y57234D01*
G01X47504Y57313D01*
G01X47530Y57392D01*
G01X47556Y57470D01*
G01X47582Y57549D01*
G01X47608Y57627D01*
G01X47634Y57706D01*
G01X47661Y57783D01*
G01X47687Y57860D01*
G01X47713Y57936D01*
G01X47740Y58011D01*
G01X47766Y58086D01*
G01X47792Y58159D01*
G01X47818Y58231D01*
G01X47844Y58302D01*
G01X47869Y58371D01*
G01X47894Y58439D01*
G01X47919Y58504D01*
G01X47943Y58569D01*
G01X47967Y58631D01*
G01X47990Y58691D01*
G01X48013Y58749D01*
G01X48035Y58804D01*
G01X48057Y58857D01*
G01X48078Y58908D01*
G01X48098Y58956D01*
G01X48117Y59001D01*
G01X48136Y59043D01*
G01X48154Y59082D01*
G01X48171Y59118D01*
G01X48187Y59151D01*
G01X48202Y59180D01*
G01X48216Y59206D01*
G01X48229Y59228D01*
G01X48240Y59247D01*
G01X48251Y59261D01*
G01X48261Y59272D01*
G01X48269Y59278D01*
G01X48276Y59281D01*
G01X48276Y59281D01*
G01X48286Y59281D01*
G01X48294Y59280D01*
G01X48301Y59277D01*
G01X48305Y59270D01*
G01X48307Y59258D01*
G01X48307Y59238D01*
G01X48304Y59210D01*
G01X48297Y59171D01*
G01X48287Y59121D01*
G01X48273Y59057D01*
G01X48254Y58979D01*
G01X48232Y58883D01*
G01X48204Y58770D01*
G01X48171Y58637D01*
G01X48134Y58483D01*
G01X48090Y58306D01*
G01X48090Y58306D01*
G01X48065Y58205D01*
G01X48041Y58105D01*
G01X48017Y58007D01*
G01X47994Y57910D01*
G01X47972Y57814D01*
G01X47950Y57719D01*
G01X47929Y57626D01*
G01X47908Y57534D01*
G01X47887Y57444D01*
G01X47868Y57355D01*
G01X47849Y57268D01*
G01X47830Y57182D01*
G01X47812Y57098D01*
G01X47795Y57016D01*
G01X47779Y56935D01*
G01X47763Y56857D01*
G01X47747Y56780D01*
G01X47732Y56704D01*
G01X47718Y56631D01*
G01X47705Y56559D01*
G01X47692Y56490D01*
G01X47680Y56422D01*
G01X47669Y56357D01*
G01X47658Y56293D01*
G01X47648Y56232D01*
G01X47638Y56173D01*
G01X47630Y56116D01*
G01X47622Y56061D01*
G01X47615Y56009D01*
G01X47608Y55958D01*
G01X47602Y55911D01*
G01X47597Y55865D01*
G01X47593Y55822D01*
G01X47589Y55782D01*
G01X47586Y55744D01*
G01X47584Y55708D01*
G01X47583Y55675D01*
G01X47583Y55645D01*
G01X47583Y55618D01*
G01X47584Y55593D01*
G01X47586Y55571D01*
G01X47588Y55552D01*
G01X47592Y55535D01*
G01X47596Y55522D01*
G01X47601Y55511D01*
G01X47607Y55504D01*
G01X47614Y55499D01*
G01X47622Y55498D01*
G01X47622Y55498D01*
G01X47632Y55499D01*
G01X47648Y55502D01*
G01X47669Y55508D01*
G01X47696Y55515D01*
G01X47728Y55525D01*
G01X47764Y55537D01*
G01X47806Y55551D01*
G01X47852Y55567D01*
G01X47903Y55584D01*
G01X47958Y55603D01*
G01X48018Y55624D01*
G01X48081Y55647D01*
G01X48148Y55672D01*
G01X48219Y55698D01*
G01X48294Y55725D01*
G01X48372Y55754D01*
G01X48453Y55785D01*
G01X48538Y55816D01*
G01X48625Y55849D01*
G01X48715Y55884D01*
G01X49047Y56010D01*
G01X49582Y55686D01*
G01X49582Y55686D01*
G01X49693Y55618D01*
G01X49790Y55560D01*
G01X49873Y55510D01*
G01X49943Y55469D01*
G01X50002Y55436D01*
G01X50051Y55411D01*
G01X50090Y55394D01*
G01X50121Y55385D01*
G01X50144Y55383D01*
G01X50161Y55389D01*
G01X50172Y55401D01*
G01X50179Y55421D01*
G01X50183Y55447D01*
G01X50184Y55479D01*
G01X50184Y55518D01*
G01X50184Y55563D01*
G01X50184Y55563D01*
G01X50185Y55623D01*
G01X50188Y55678D01*
G01X50194Y55729D01*
G01X50202Y55777D01*
G01X50214Y55823D01*
G01X50229Y55867D01*
G01X50247Y55909D01*
G01X50269Y55952D01*
G01X50296Y55995D01*
G01X50327Y56040D01*
G01X50363Y56086D01*
G01X50404Y56136D01*
G01X50404Y56136D01*
G01X50446Y56183D01*
G01X50483Y56219D01*
G01X50513Y56244D01*
G01X50538Y56257D01*
G01X50557Y56259D01*
G01X50571Y56250D01*
G01X50578Y56229D01*
G01X50580Y56197D01*
G01X50575Y56154D01*
G01X50565Y56100D01*
G01X50549Y56034D01*
G01X50527Y55957D01*
G01X50527Y55957D01*
G01X50503Y55873D01*
G01X50485Y55798D01*
G01X50473Y55734D01*
G01X50467Y55681D01*
G01X50467Y55638D01*
G01X50473Y55606D01*
G01X50485Y55585D01*
G01X50502Y55574D01*
G01X50526Y55575D01*
G01X50555Y55588D01*
G01X50589Y55611D01*
G01X50630Y55646D01*
G01X50754Y55764D01*
G01X50890Y55655D01*
G01X51025Y55546D01*
G01X51152Y55667D01*
G01X51278Y55788D01*
G01X51406Y55665D01*
G01X51406Y55665D01*
G01X51444Y55632D01*
G01X51478Y55607D01*
G01X51508Y55592D01*
G01X51534Y55585D01*
G01X51555Y55587D01*
G01X51573Y55596D01*
G01X51586Y55614D01*
G01X51595Y55638D01*
G01X51600Y55671D01*
G01X51600Y55710D01*
G01X51596Y55756D01*
G01X51588Y55809D01*
G01X51574Y55867D01*
G01X51556Y55932D01*
G01X51533Y56003D01*
G01X51506Y56079D01*
G01X51506Y56079D01*
G01X51482Y56143D01*
G01X51465Y56198D01*
G01X51454Y56241D01*
G01X51449Y56274D01*
G01X51450Y56296D01*
G01X51458Y56307D01*
G01X51472Y56308D01*
G01X51493Y56298D01*
G01X51520Y56278D01*
G01X51554Y56247D01*
G01X51594Y56205D01*
G01X51641Y56153D01*
G01X51641Y56153D01*
G01X51683Y56104D01*
G01X51720Y56056D01*
G01X51753Y56011D01*
G01X51780Y55967D01*
G01X51804Y55923D01*
G01X51823Y55878D01*
G01X51839Y55833D01*
G01X51851Y55785D01*
G01X51860Y55735D01*
G01X51866Y55682D01*
G01X51869Y55625D01*
G01X51870Y55563D01*
G01X51870Y55563D01*
G01X51870Y55518D01*
G01X51871Y55479D01*
G01X51872Y55447D01*
G01X51876Y55421D01*
G01X51883Y55401D01*
G01X51895Y55388D01*
G01X51912Y55383D01*
G01X51935Y55384D01*
G01X51965Y55393D01*
G01X52004Y55410D01*
G01X52052Y55434D01*
G01X52110Y55467D01*
G01X52179Y55507D01*
G01X52260Y55556D01*
G01X52354Y55614D01*
G01X52463Y55680D01*
G01X52463Y55680D01*
G01X52534Y55723D01*
G01X52603Y55764D01*
G01X52669Y55804D01*
G01X52732Y55841D01*
G01X52790Y55875D01*
G01X52844Y55905D01*
G01X52892Y55932D01*
G01X52934Y55955D01*
G01X52969Y55974D01*
G01X52996Y55988D01*
G01X53015Y55996D01*
G01X53025Y55999D01*
G01X53025Y55999D01*
G01X53036Y55997D01*
G01X53058Y55990D01*
G01X53090Y55979D01*
G01X53131Y55965D01*
G01X53181Y55947D01*
G01X53238Y55925D01*
G01X53302Y55901D01*
G01X53371Y55875D01*
G01X53446Y55846D01*
G01X53526Y55815D01*
G01X53608Y55782D01*
G01X53694Y55748D01*
G01X53694Y55748D01*
G01X53779Y55714D01*
G01X53863Y55682D01*
G01X53944Y55651D01*
G01X54021Y55622D01*
G01X54094Y55595D01*
G01X54161Y55571D01*
G01X54222Y55550D01*
G01X54276Y55532D01*
G01X54321Y55517D01*
G01X54358Y55507D01*
G01X54385Y55500D01*
G01X54402Y55498D01*
G01X54402Y55498D01*
G01X54413Y55499D01*
G01X54422Y55502D01*
G01X54432Y55507D01*
G01X54440Y55515D01*
G01X54447Y55525D01*
G01X54454Y55537D01*
G01X54460Y55552D01*
G01X54465Y55568D01*
G01X54469Y55587D01*
G01X54472Y55609D01*
G01X54475Y55632D01*
G01X54476Y55658D01*
G01X54477Y55687D01*
G01X54477Y55717D01*
G01X54477Y55750D01*
G01X54475Y55786D01*
G01X54472Y55824D01*
G01X54469Y55864D01*
G01X54465Y55907D01*
G01X54460Y55953D01*
G01X54454Y56000D01*
G01X54448Y56051D01*
G01X54440Y56104D01*
G01X54432Y56159D01*
G01X54422Y56217D01*
G01X54412Y56278D01*
G01X54401Y56341D01*
G01X54390Y56407D01*
G01X54377Y56475D01*
G01X54363Y56546D01*
G01X54349Y56620D01*
G01X54334Y56696D01*
G01X54317Y56775D01*
G01X54300Y56857D01*
G01X54282Y56941D01*
G01X54264Y57028D01*
G01X54244Y57118D01*
G01X54223Y57211D01*
G01X54202Y57307D01*
G01X54179Y57405D01*
G01X54156Y57506D01*
G01X54132Y57610D01*
G01X54107Y57717D01*
G01X54081Y57827D01*
G01X54054Y57939D01*
G01X54026Y58055D01*
G01X53997Y58173D01*
G01X53968Y58295D01*
G01X53968Y58295D01*
G01X53934Y58431D01*
G01X53904Y58556D01*
G01X53877Y58669D01*
G01X53853Y58771D01*
G01X53832Y58863D01*
G01X53814Y58943D01*
G01X53799Y59014D01*
G01X53787Y59075D01*
G01X53777Y59127D01*
G01X53771Y59170D01*
G01X53767Y59204D01*
G01X53766Y59230D01*
G01X53767Y59248D01*
G01X53771Y59258D01*
G01X53778Y59261D01*
G01X53787Y59258D01*
G01X53799Y59247D01*
G01X53813Y59231D01*
G01X53829Y59209D01*
G01X53848Y59182D01*
G37*

%LPD*%
G36*
G01X74687Y56273D02*
G01X74680Y56271D01*
G01X74672Y56284D01*
G01X74666Y56311D01*
G01X74660Y56353D01*
G01X74655Y56412D01*
G01X74646Y56546D01*
G01X74529Y56555D01*
G01X74471Y56563D01*
G01X74421Y56579D01*
G01X74380Y56599D01*
G01X74347Y56624D01*
G01X74322Y56653D01*
G01X74306Y56684D01*
G01X74298Y56717D01*
G01X74297Y56751D01*
G01X74305Y56784D01*
G01X74320Y56816D01*
G01X74343Y56846D01*
G01X74373Y56873D01*
G01X74411Y56895D01*
G01X74456Y56912D01*
G01X74508Y56923D01*
G01X74568Y56927D01*
G01X74719Y56927D01*
G01X74719Y56602D01*
G01X74719Y56526D01*
G01X74716Y56459D01*
G01X74712Y56400D01*
G01X74706Y56351D01*
G01X74700Y56313D01*
G01X74694Y56287D01*
G01X74687Y56273D01*
G37*

%LPC*%
G36*
G01X74452Y56632D02*
G01X74543Y56617D01*
G01X74661Y56617D01*
G01X74661Y56871D01*
G01X74544Y56871D01*
G01X74488Y56868D01*
G01X74446Y56858D01*
G01X74417Y56839D01*
G01X74395Y56811D01*
G01X74373Y56735D01*
G01X74394Y56674D01*
G01X74452Y56632D01*
G37*

%LPD*%
G36*
G01X75026Y56282D02*
G01X75012Y56275D01*
G01X74999Y56281D01*
G01X74996Y56312D01*
G01X75000Y56382D01*
G01X75011Y56483D01*
G01X75027Y56603D01*
G01X75044Y56722D01*
G01X75058Y56821D01*
G01X75068Y56890D01*
G01X75071Y56918D01*
G01X75074Y56921D01*
G01X75083Y56924D01*
G01X75096Y56926D01*
G01X75111Y56927D01*
G01X75135Y56909D01*
G01X75167Y56856D01*
G01X75206Y56775D01*
G01X75248Y56670D01*
G01X75345Y56412D01*
G01X75438Y56663D01*
G01X75468Y56741D01*
G01X75495Y56805D01*
G01X75519Y56855D01*
G01X75541Y56890D01*
G01X75560Y56912D01*
G01X75577Y56919D01*
G01X75592Y56913D01*
G01X75607Y56892D01*
G01X75619Y56857D01*
G01X75632Y56808D01*
G01X75643Y56745D01*
G01X75654Y56667D01*
G01X75669Y56560D01*
G01X75683Y56463D01*
G01X75695Y56386D01*
G01X75703Y56341D01*
G01X75706Y56313D01*
G01X75703Y56294D01*
G01X75693Y56282D01*
G01X75676Y56278D01*
G01X75656Y56288D01*
G01X75640Y56322D01*
G01X75626Y56381D01*
G01X75615Y56468D01*
G01X75607Y56555D01*
G01X75599Y56626D01*
G01X75591Y56682D01*
G01X75584Y56723D01*
G01X75576Y56750D01*
G01X75567Y56763D01*
G01X75557Y56762D01*
G01X75545Y56748D01*
G01X75531Y56720D01*
G01X75514Y56680D01*
G01X75494Y56626D01*
G01X75470Y56561D01*
G01X75431Y56460D01*
G01X75396Y56376D01*
G01X75367Y56319D01*
G01X75349Y56297D01*
G01X75331Y56314D01*
G01X75303Y56365D01*
G01X75269Y56442D01*
G01X75232Y56536D01*
G01X75194Y56642D01*
G01X75165Y56717D01*
G01X75142Y56764D01*
G01X75126Y56783D01*
G01X75113Y56773D01*
G01X75104Y56736D01*
G01X75096Y56671D01*
G01X75087Y56581D01*
G01X75079Y56502D01*
G01X75070Y56434D01*
G01X75061Y56378D01*
G01X75049Y56334D01*
G01X75038Y56301D01*
G01X75026Y56282D01*
G37*

%LPC*%

%LPD*%
G36*
G01X71650Y56289D02*
G01X71628Y56278D01*
G01X71605Y56289D01*
G01X71592Y56334D01*
G01X71585Y56425D01*
G01X71583Y56574D01*
G01X71583Y56871D01*
G01X71510Y56871D01*
G01X71482Y56873D01*
G01X71458Y56879D01*
G01X71443Y56888D01*
G01X71437Y56899D01*
G01X71452Y56910D01*
G01X71492Y56919D01*
G01X71552Y56925D01*
G01X71628Y56927D01*
G01X71703Y56925D01*
G01X71763Y56919D01*
G01X71803Y56910D01*
G01X71818Y56899D01*
G01X71812Y56888D01*
G01X71797Y56879D01*
G01X71773Y56873D01*
G01X71745Y56871D01*
G01X71672Y56871D01*
G01X71672Y56574D01*
G01X71670Y56425D01*
G01X71663Y56334D01*
G01X71650Y56289D01*
G37*

%LPC*%

%LPD*%
G36*
G01X72087Y56283D02*
G01X72067Y56278D01*
G01X72045Y56290D01*
G01X72031Y56339D01*
G01X72025Y56438D01*
G01X72023Y56602D01*
G01X72025Y56767D01*
G01X72031Y56866D01*
G01X72045Y56914D01*
G01X72067Y56927D01*
G01X72088Y56919D01*
G01X72102Y56891D01*
G01X72109Y56837D01*
G01X72111Y56752D01*
G01X72111Y56576D01*
G01X72236Y56751D01*
G01X72281Y56812D01*
G01X72320Y56861D01*
G01X72353Y56898D01*
G01X72381Y56921D01*
G01X72404Y56932D01*
G01X72423Y56928D01*
G01X72437Y56911D01*
G01X72447Y56880D01*
G01X72454Y56835D01*
G01X72457Y56775D01*
G01X72458Y56701D01*
G01X72457Y56612D01*
G01X72450Y56468D01*
G01X72441Y56368D01*
G01X72429Y56308D01*
G01X72411Y56285D01*
G01X72394Y56293D01*
G01X72383Y56335D01*
G01X72377Y56417D01*
G01X72375Y56547D01*
G01X72375Y56820D01*
G01X72243Y56648D01*
G01X72181Y56562D01*
G01X72141Y56492D01*
G01X72118Y56432D01*
G01X72111Y56376D01*
G01X72109Y56332D01*
G01X72100Y56301D01*
G01X72087Y56283D01*
G37*

%LPC*%

%LPD*%
G36*
G01X73146Y56281D02*
G01X73131Y56278D01*
G01X73112Y56286D01*
G01X73093Y56308D01*
G01X73075Y56341D01*
G01X73062Y56383D01*
G01X73040Y56435D01*
G01X73007Y56472D01*
G01X72966Y56495D01*
G01X72921Y56503D01*
G01X72876Y56498D01*
G01X72833Y56477D01*
G01X72797Y56442D01*
G01X72771Y56393D01*
G01X72755Y56353D01*
G01X72735Y56320D01*
G01X72716Y56295D01*
G01X72698Y56283D01*
G01X72682Y56280D01*
G01X72673Y56284D01*
G01X72671Y56295D01*
G01X72676Y56312D01*
G01X72689Y56351D01*
G01X72714Y56426D01*
G01X72747Y56526D01*
G01X72784Y56640D01*
G01X72811Y56724D01*
G01X72836Y56793D01*
G01X72858Y56847D01*
G01X72878Y56885D01*
G01X72898Y56908D01*
G01X72916Y56916D01*
G01X72934Y56909D01*
G01X72953Y56886D01*
G01X72973Y56849D01*
G01X72996Y56796D01*
G01X73020Y56728D01*
G01X73047Y56646D01*
G01X73084Y56533D01*
G01X73116Y56434D01*
G01X73141Y56360D01*
G01X73155Y56321D01*
G01X73159Y56303D01*
G01X73157Y56289D01*
G01X73146Y56281D01*
G37*

%LPC*%
G36*
G01X72895Y56565D02*
G01X72952Y56562D01*
G01X72978Y56579D01*
G01X72978Y56627D01*
G01X72957Y56718D01*
G01X72921Y56855D01*
G01X72873Y56715D01*
G01X72823Y56574D01*
G01X72895Y56565D01*
G37*

%LPD*%
G36*
G01X73483Y56280D02*
G01X73443Y56278D01*
G01X73403Y56280D01*
G01X73371Y56286D01*
G01X73350Y56295D01*
G01X73342Y56306D01*
G01X73345Y56317D01*
G01X73351Y56326D01*
G01X73360Y56332D01*
G01X73371Y56334D01*
G01X73383Y56354D01*
G01X73392Y56412D01*
G01X73398Y56502D01*
G01X73400Y56618D01*
G01X73399Y56738D01*
G01X73393Y56824D01*
G01X73384Y56873D01*
G01X73371Y56885D01*
G01X73360Y56880D01*
G01X73351Y56881D01*
G01X73345Y56887D01*
G01X73342Y56897D01*
G01X73352Y56909D01*
G01X73378Y56917D01*
G01X73418Y56923D01*
G01X73466Y56924D01*
G01X73511Y56921D01*
G01X73540Y56918D01*
G01X73550Y56913D01*
G01X73540Y56908D01*
G01X73523Y56892D01*
G01X73509Y56859D01*
G01X73498Y56810D01*
G01X73490Y56751D01*
G01X73485Y56684D01*
G01X73482Y56614D01*
G01X73483Y56544D01*
G01X73487Y56479D01*
G01X73494Y56421D01*
G01X73504Y56375D01*
G01X73518Y56345D01*
G01X73534Y56334D01*
G01X73550Y56332D01*
G01X73561Y56326D01*
G01X73565Y56317D01*
G01X73562Y56306D01*
G01X73547Y56295D01*
G01X73519Y56286D01*
G01X73483Y56280D01*
G37*

%LPC*%

%LPD*%
G36*
G01X74075Y56278D02*
G01X73914Y56278D01*
G01X73842Y56280D01*
G01X73792Y56286D01*
G01X73762Y56298D01*
G01X73752Y56313D01*
G01X73761Y56328D01*
G01X73784Y56339D01*
G01X73824Y56346D01*
G01X73877Y56348D01*
G01X74001Y56348D01*
G01X74010Y56637D01*
G01X74014Y56729D01*
G01X74019Y56803D01*
G01X74025Y56858D01*
G01X74032Y56897D01*
G01X74039Y56918D01*
G01X74047Y56923D01*
G01X74054Y56911D01*
G01X74060Y56881D01*
G01X74066Y56836D01*
G01X74070Y56774D01*
G01X74074Y56696D01*
G01X74075Y56602D01*
G01X74075Y56278D01*
G37*

%LPC*%

%LPD*%
G36*
G01X76326Y56281D02*
G01X76273Y56278D01*
G01X76221Y56281D01*
G01X76173Y56289D01*
G01X76128Y56304D01*
G01X76088Y56323D01*
G01X76052Y56346D01*
G01X76020Y56373D01*
G01X75992Y56404D01*
G01X75969Y56437D01*
G01X75951Y56473D01*
G01X75937Y56511D01*
G01X75928Y56551D01*
G01X75924Y56591D01*
G01X75926Y56631D01*
G01X75933Y56672D01*
G01X75945Y56713D01*
G01X75963Y56752D01*
G01X75987Y56790D01*
G01X76017Y56826D01*
G01X76052Y56860D01*
G01X76094Y56891D01*
G01X76173Y56934D01*
G01X76245Y56951D01*
G01X76321Y56944D01*
G01X76411Y56913D01*
G01X76459Y56889D01*
G01X76500Y56861D01*
G01X76534Y56829D01*
G01X76562Y56793D01*
G01X76584Y56754D01*
G01X76600Y56714D01*
G01X76610Y56671D01*
G01X76615Y56628D01*
G01X76614Y56585D01*
G01X76607Y56542D01*
G01X76595Y56501D01*
G01X76578Y56461D01*
G01X76556Y56423D01*
G01X76529Y56389D01*
G01X76498Y56357D01*
G01X76461Y56330D01*
G01X76420Y56308D01*
G01X76375Y56291D01*
G01X76326Y56281D01*
G37*

%LPC*%
G36*
G01X76222Y56340D02*
G01X76285Y56334D01*
G01X76331Y56340D01*
G01X76375Y56358D01*
G01X76418Y56384D01*
G01X76458Y56418D01*
G01X76492Y56458D01*
G01X76520Y56501D01*
G01X76538Y56547D01*
G01X76545Y56593D01*
G01X76541Y56654D01*
G01X76526Y56711D01*
G01X76502Y56760D01*
G01X76470Y56802D01*
G01X76431Y56837D01*
G01X76386Y56863D01*
G01X76337Y56880D01*
G01X76285Y56888D01*
G01X76233Y56885D01*
G01X76179Y56872D01*
G01X76127Y56847D01*
G01X76078Y56810D01*
G01X76037Y56764D01*
G01X76009Y56715D01*
G01X75993Y56663D01*
G01X75988Y56611D01*
G01X75994Y56558D01*
G01X76011Y56507D01*
G01X76037Y56461D01*
G01X76071Y56420D01*
G01X76115Y56384D01*
G01X76165Y56358D01*
G01X76222Y56340D01*
G37*

%LPD*%
G36*
G01X77124Y56281D02*
G01X77075Y56278D01*
G01X76982Y56290D01*
G01X76892Y56320D01*
G01X76829Y56357D01*
G01X76816Y56392D01*
G01X76829Y56400D01*
G01X76852Y56400D01*
G01X76882Y56392D01*
G01X76918Y56376D01*
G01X77010Y56342D01*
G01X77093Y56338D01*
G01X77169Y56362D01*
G01X77242Y56416D01*
G01X77279Y56459D01*
G01X77305Y56503D01*
G01X77322Y56549D01*
G01X77329Y56596D01*
G01X77328Y56642D01*
G01X77320Y56687D01*
G01X77304Y56729D01*
G01X77282Y56769D01*
G01X77253Y56805D01*
G01X77219Y56835D01*
G01X77181Y56859D01*
G01X77139Y56877D01*
G01X77093Y56886D01*
G01X77045Y56887D01*
G01X76994Y56878D01*
G01X76942Y56858D01*
G01X76876Y56833D01*
G01X76838Y56829D01*
G01X76832Y56848D01*
G01X76862Y56886D01*
G01X76893Y56909D01*
G01X76931Y56926D01*
G01X76974Y56938D01*
G01X77020Y56944D01*
G01X77068Y56944D01*
G01X77117Y56938D01*
G01X77165Y56925D01*
G01X77210Y56907D01*
G01X77254Y56882D01*
G01X77291Y56852D01*
G01X77322Y56819D01*
G01X77348Y56783D01*
G01X77367Y56745D01*
G01X77382Y56704D01*
G01X77390Y56662D01*
G01X77394Y56620D01*
G01X77393Y56577D01*
G01X77386Y56535D01*
G01X77375Y56495D01*
G01X77359Y56456D01*
G01X77338Y56418D01*
G01X77313Y56385D01*
G01X77284Y56354D01*
G01X77250Y56329D01*
G01X77212Y56307D01*
G01X77170Y56291D01*
G01X77124Y56281D01*
G37*

%LPC*%

%LPD*%
G36*
G01X72073Y57273D02*
G01X72019Y57273D01*
G01X71966Y57276D01*
G01X71914Y57283D01*
G01X71863Y57293D01*
G01X71813Y57306D01*
G01X71765Y57323D01*
G01X71719Y57344D01*
G01X71676Y57367D01*
G01X71635Y57395D01*
G01X71597Y57425D01*
G01X71563Y57460D01*
G01X71532Y57497D01*
G01X71505Y57538D01*
G01X71478Y57588D01*
G01X71456Y57637D01*
G01X71439Y57685D01*
G01X71426Y57733D01*
G01X71419Y57780D01*
G01X71416Y57826D01*
G01X71418Y57872D01*
G01X71424Y57918D01*
G01X71436Y57963D01*
G01X71453Y58008D01*
G01X71475Y58053D01*
G01X71501Y58097D01*
G01X71533Y58142D01*
G01X71570Y58186D01*
G01X71611Y58231D01*
G01X71658Y58275D01*
G01X71710Y58319D01*
G01X71767Y58365D01*
G01X71829Y58409D01*
G01X71896Y58455D01*
G01X71975Y58508D01*
G01X72041Y58558D01*
G01X72092Y58604D01*
G01X72130Y58646D01*
G01X72154Y58685D01*
G01X72165Y58720D01*
G01X72164Y58754D01*
G01X72151Y58785D01*
G01X72100Y58827D01*
G01X72031Y58842D01*
G01X71956Y58828D01*
G01X71888Y58787D01*
G01X71817Y58723D01*
G01X71684Y58848D01*
G01X71551Y58974D01*
G01X71652Y59063D01*
G01X71694Y59097D01*
G01X71738Y59126D01*
G01X71782Y59151D01*
G01X71829Y59172D01*
G01X71877Y59188D01*
G01X71927Y59199D01*
G01X71978Y59206D01*
G01X72029Y59208D01*
G01X72082Y59206D01*
G01X72135Y59199D01*
G01X72189Y59188D01*
G01X72243Y59171D01*
G01X72296Y59149D01*
G01X72345Y59121D01*
G01X72392Y59087D01*
G01X72433Y59048D01*
G01X72471Y59005D01*
G01X72503Y58958D01*
G01X72530Y58908D01*
G01X72551Y58856D01*
G01X72566Y58803D01*
G01X72574Y58749D01*
G01X72575Y58694D01*
G01X72568Y58641D01*
G01X72554Y58586D01*
G01X72533Y58533D01*
G01X72503Y58481D01*
G01X72466Y58430D01*
G01X72420Y58379D01*
G01X72366Y58327D01*
G01X72301Y58274D01*
G01X72227Y58219D01*
G01X72120Y58142D01*
G01X72032Y58076D01*
G01X71961Y58018D01*
G01X71906Y57969D01*
G01X71865Y57926D01*
G01X71838Y57887D01*
G01X71823Y57853D01*
G01X71818Y57821D01*
G01X71824Y57773D01*
G01X71840Y57731D01*
G01X71865Y57696D01*
G01X71898Y57669D01*
G01X71938Y57648D01*
G01X71982Y57636D01*
G01X72030Y57631D01*
G01X72081Y57634D01*
G01X72133Y57646D01*
G01X72184Y57666D01*
G01X72234Y57695D01*
G01X72280Y57734D01*
G01X72320Y57770D01*
G01X72355Y57796D01*
G01X72387Y57809D01*
G01X72419Y57811D01*
G01X72455Y57801D01*
G01X72497Y57777D01*
G01X72549Y57741D01*
G01X72613Y57691D01*
G01X72705Y57616D01*
G01X72609Y57510D01*
G01X72570Y57471D01*
G01X72528Y57434D01*
G01X72483Y57402D01*
G01X72437Y57374D01*
G01X72388Y57349D01*
G01X72338Y57328D01*
G01X72286Y57310D01*
G01X72234Y57295D01*
G01X72180Y57284D01*
G01X72127Y57277D01*
G01X72073Y57273D01*
G37*

%LPC*%

%LPD*%
G36*
G01X75250Y57278D02*
G01X75200Y57277D01*
G01X75149Y57279D01*
G01X75099Y57285D01*
G01X75048Y57293D01*
G01X74999Y57305D01*
G01X74951Y57320D01*
G01X74904Y57338D01*
G01X74857Y57359D01*
G01X74813Y57384D01*
G01X74770Y57412D01*
G01X74730Y57443D01*
G01X74691Y57477D01*
G01X74656Y57515D01*
G01X74622Y57555D01*
G01X74592Y57600D01*
G01X74564Y57647D01*
G01X74540Y57700D01*
G01X74522Y57754D01*
G01X74508Y57810D01*
G01X74500Y57867D01*
G01X74497Y57925D01*
G01X74499Y57983D01*
G01X74505Y58040D01*
G01X74516Y58097D01*
G01X74531Y58153D01*
G01X74551Y58208D01*
G01X74574Y58261D01*
G01X74602Y58312D01*
G01X74633Y58360D01*
G01X74668Y58405D01*
G01X74706Y58447D01*
G01X74747Y58485D01*
G01X74792Y58519D01*
G01X74839Y58548D01*
G01X74889Y58572D01*
G01X74942Y58591D01*
G01X74989Y58605D01*
G01X75034Y58619D01*
G01X75070Y58629D01*
G01X75094Y58636D01*
G01X75105Y58648D01*
G01X75105Y58671D01*
G01X75096Y58704D01*
G01X75079Y58745D01*
G01X75054Y58793D01*
G01X75025Y58846D01*
G01X74990Y58902D01*
G01X74952Y58960D01*
G01X74911Y59018D01*
G01X74869Y59074D01*
G01X74827Y59127D01*
G01X74786Y59174D01*
G01X74747Y59216D01*
G01X74711Y59249D01*
G01X74680Y59271D01*
G01X74654Y59282D01*
G01X74632Y59285D01*
G01X74596Y59288D01*
G01X74546Y59292D01*
G01X74487Y59295D01*
G01X74417Y59299D01*
G01X74342Y59303D01*
G01X74261Y59306D01*
G01X74177Y59310D01*
G01X74109Y59313D01*
G01X74043Y59317D01*
G01X73978Y59322D01*
G01X73914Y59328D01*
G01X73852Y59336D01*
G01X73791Y59345D01*
G01X73731Y59354D01*
G01X73672Y59365D01*
G01X73615Y59378D01*
G01X73559Y59391D01*
G01X73504Y59406D01*
G01X73450Y59422D01*
G01X73398Y59439D01*
G01X73347Y59458D01*
G01X73296Y59478D01*
G01X73248Y59499D01*
G01X73200Y59521D01*
G01X73153Y59546D01*
G01X73107Y59571D01*
G01X73062Y59598D01*
G01X73018Y59626D01*
G01X72975Y59655D01*
G01X72934Y59686D01*
G01X72892Y59719D01*
G01X72853Y59754D01*
G01X72814Y59789D01*
G01X72776Y59826D01*
G01X72738Y59865D01*
G01X72701Y59905D01*
G01X72666Y59947D01*
G01X72631Y59990D01*
G01X72597Y60035D01*
G01X72564Y60082D01*
G01X72531Y60130D01*
G01X72499Y60180D01*
G01X72468Y60232D01*
G01X72437Y60285D01*
G01X72408Y60340D01*
G01X72378Y60397D01*
G01X72350Y60456D01*
G01X72322Y60516D01*
G01X72295Y60577D01*
G01X72268Y60641D01*
G01X72241Y60708D01*
G01X72215Y60775D01*
G01X72190Y60844D01*
G01X72165Y60915D01*
G01X72141Y60988D01*
G01X72113Y61072D01*
G01X72086Y61151D01*
G01X72059Y61225D01*
G01X72033Y61296D01*
G01X72007Y61363D01*
G01X71982Y61426D01*
G01X71956Y61487D01*
G01X71930Y61545D01*
G01X71904Y61601D01*
G01X71877Y61654D01*
G01X71849Y61706D01*
G01X71821Y61756D01*
G01X71792Y61804D01*
G01X71761Y61852D01*
G01X71730Y61898D01*
G01X71697Y61945D01*
G01X71662Y61990D01*
G01X71626Y62036D01*
G01X71588Y62083D01*
G01X71548Y62130D01*
G01X71502Y62184D01*
G01X71470Y62224D01*
G01X71453Y62251D01*
G01X71452Y62266D01*
G01X71468Y62270D01*
G01X71502Y62265D01*
G01X71555Y62251D01*
G01X71628Y62230D01*
G01X71671Y62217D01*
G01X71727Y62202D01*
G01X71794Y62184D01*
G01X71868Y62164D01*
G01X71948Y62143D01*
G01X72031Y62122D01*
G01X72116Y62100D01*
G01X72199Y62080D01*
G01X72279Y62060D01*
G01X72357Y62040D01*
G01X72435Y62019D01*
G01X72511Y61997D01*
G01X72587Y61976D01*
G01X72661Y61953D01*
G01X72734Y61930D01*
G01X72806Y61907D01*
G01X72877Y61884D01*
G01X72947Y61859D01*
G01X73016Y61834D01*
G01X73083Y61809D01*
G01X73150Y61784D01*
G01X73216Y61758D01*
G01X73280Y61731D01*
G01X73344Y61704D01*
G01X73406Y61677D01*
G01X73467Y61649D01*
G01X73527Y61621D01*
G01X73585Y61592D01*
G01X73643Y61563D01*
G01X73700Y61534D01*
G01X73755Y61503D01*
G01X73809Y61473D01*
G01X73863Y61442D01*
G01X73915Y61411D01*
G01X73965Y61379D01*
G01X74015Y61347D01*
G01X74063Y61314D01*
G01X74111Y61281D01*
G01X74157Y61248D01*
G01X74202Y61214D01*
G01X74246Y61179D01*
G01X74288Y61145D01*
G01X74330Y61110D01*
G01X74370Y61074D01*
G01X74409Y61038D01*
G01X74447Y61002D01*
G01X74484Y60966D01*
G01X74519Y60929D01*
G01X74554Y60891D01*
G01X74587Y60853D01*
G01X74619Y60815D01*
G01X74649Y60776D01*
G01X74679Y60738D01*
G01X74707Y60698D01*
G01X74734Y60658D01*
G01X74759Y60618D01*
G01X74784Y60577D01*
G01X74807Y60537D01*
G01X74829Y60496D01*
G01X74850Y60454D01*
G01X74870Y60412D01*
G01X74888Y60370D01*
G01X74905Y60327D01*
G01X74921Y60284D01*
G01X74949Y60203D01*
G01X74967Y60144D01*
G01X74975Y60106D01*
G01X74972Y60088D01*
G01X74956Y60089D01*
G01X74926Y60109D01*
G01X74881Y60145D01*
G01X74821Y60198D01*
G01X74791Y60223D01*
G01X74760Y60249D01*
G01X74726Y60276D01*
G01X74691Y60303D01*
G01X74654Y60331D01*
G01X74615Y60359D01*
G01X74574Y60387D01*
G01X74531Y60416D01*
G01X74487Y60446D01*
G01X74441Y60476D01*
G01X74393Y60507D01*
G01X74344Y60537D01*
G01X74292Y60569D01*
G01X74240Y60600D01*
G01X74185Y60632D01*
G01X74129Y60665D01*
G01X74072Y60697D01*
G01X74013Y60730D01*
G01X73953Y60764D01*
G01X73891Y60797D01*
G01X73828Y60831D01*
G01X73763Y60866D01*
G01X73697Y60900D01*
G01X73629Y60935D01*
G01X73560Y60969D01*
G01X73490Y61004D01*
G01X73419Y61039D01*
G01X73346Y61075D01*
G01X73228Y61131D01*
G01X73129Y61175D01*
G01X73061Y61204D01*
G01X73033Y61211D01*
G01X73049Y61193D01*
G01X73103Y61147D01*
G01X73186Y61083D01*
G01X73288Y61007D01*
G01X73349Y60962D01*
G01X73410Y60916D01*
G01X73470Y60870D01*
G01X73528Y60823D01*
G01X73587Y60776D01*
G01X73645Y60729D01*
G01X73702Y60681D01*
G01X73758Y60632D01*
G01X73813Y60584D01*
G01X73868Y60534D01*
G01X73922Y60485D01*
G01X73975Y60435D01*
G01X74027Y60385D01*
G01X74079Y60335D01*
G01X74129Y60285D01*
G01X74178Y60234D01*
G01X74227Y60183D01*
G01X74274Y60132D01*
G01X74321Y60082D01*
G01X74367Y60030D01*
G01X74411Y59980D01*
G01X74455Y59928D01*
G01X74497Y59877D01*
G01X74538Y59826D01*
G01X74578Y59775D01*
G01X74618Y59724D01*
G01X74655Y59673D01*
G01X74692Y59622D01*
G01X74728Y59572D01*
G01X74762Y59521D01*
G01X74795Y59471D01*
G01X74827Y59421D01*
G01X74857Y59371D01*
G01X74887Y59322D01*
G01X74914Y59272D01*
G01X74941Y59224D01*
G01X74966Y59175D01*
G01X74990Y59127D01*
G01X75012Y59079D01*
G01X75033Y59032D01*
G01X75053Y58985D01*
G01X75071Y58939D01*
G01X75087Y58892D01*
G01X75102Y58847D01*
G01X75128Y58770D01*
G01X75153Y58707D01*
G01X75173Y58665D01*
G01X75187Y58649D01*
G01X75201Y58664D01*
G01X75226Y58707D01*
G01X75256Y58770D01*
G01X75289Y58846D01*
G01X75308Y58892D01*
G01X75330Y58942D01*
G01X75353Y58994D01*
G01X75379Y59047D01*
G01X75406Y59104D01*
G01X75434Y59161D01*
G01X75464Y59220D01*
G01X75495Y59280D01*
G01X75527Y59341D01*
G01X75559Y59401D01*
G01X75592Y59462D01*
G01X75626Y59522D01*
G01X75660Y59582D01*
G01X75694Y59641D01*
G01X75727Y59698D01*
G01X75760Y59754D01*
G01X75792Y59807D01*
G01X75824Y59858D01*
G01X75855Y59906D01*
G01X75884Y59952D01*
G01X75912Y59994D01*
G01X75939Y60032D01*
G01X75964Y60066D01*
G01X75987Y60096D01*
G01X76014Y60130D01*
G01X76033Y60157D01*
G01X76043Y60176D01*
G01X76044Y60188D01*
G01X76035Y60192D01*
G01X76015Y60187D01*
G01X75984Y60175D01*
G01X75940Y60153D01*
G01X75883Y60122D01*
G01X75812Y60082D01*
G01X75727Y60033D01*
G01X75626Y59973D01*
G01X75512Y59906D01*
G01X75418Y59851D01*
G01X75342Y59807D01*
G01X75283Y59774D01*
G01X75237Y59752D01*
G01X75205Y59741D01*
G01X75182Y59739D01*
G01X75169Y59746D01*
G01X75162Y59763D01*
G01X75159Y59787D01*
G01X75159Y59819D01*
G01X75159Y59859D01*
G01X75160Y59906D01*
G01X75164Y59952D01*
G01X75171Y59998D01*
G01X75179Y60043D01*
G01X75191Y60087D01*
G01X75205Y60130D01*
G01X75222Y60173D01*
G01X75240Y60215D01*
G01X75262Y60256D01*
G01X75286Y60296D01*
G01X75313Y60336D01*
G01X75341Y60374D01*
G01X75372Y60412D01*
G01X75407Y60449D01*
G01X75443Y60485D01*
G01X75481Y60521D01*
G01X75522Y60555D01*
G01X75566Y60589D01*
G01X75611Y60621D01*
G01X75659Y60653D01*
G01X75710Y60684D01*
G01X75763Y60714D01*
G01X75818Y60743D01*
G01X75875Y60771D01*
G01X75935Y60798D01*
G01X75997Y60824D01*
G01X76061Y60850D01*
G01X76128Y60874D01*
G01X76197Y60898D01*
G01X76268Y60920D01*
G01X76342Y60942D01*
G01X76417Y60962D01*
G01X76495Y60982D01*
G01X76575Y61000D01*
G01X76657Y61018D01*
G01X76742Y61034D01*
G01X76795Y61045D01*
G01X76854Y61057D01*
G01X76914Y61070D01*
G01X76975Y61083D01*
G01X77034Y61097D01*
G01X77090Y61110D01*
G01X77140Y61124D01*
G01X77185Y61135D01*
G01X77261Y61157D01*
G01X77327Y61174D01*
G01X77374Y61186D01*
G01X77396Y61190D01*
G01X77396Y61178D01*
G01X77381Y61146D01*
G01X77353Y61099D01*
G01X77317Y61041D01*
G01X77283Y60989D01*
G01X77249Y60935D01*
G01X77217Y60879D01*
G01X77184Y60822D01*
G01X77152Y60762D01*
G01X77120Y60700D01*
G01X77087Y60634D01*
G01X77055Y60566D01*
G01X77022Y60493D01*
G01X76988Y60417D01*
G01X76953Y60336D01*
G01X76918Y60250D01*
G01X76888Y60180D01*
G01X76858Y60112D01*
G01X76827Y60047D01*
G01X76795Y59985D01*
G01X76763Y59924D01*
G01X76730Y59867D01*
G01X76696Y59812D01*
G01X76662Y59760D01*
G01X76627Y59709D01*
G01X76591Y59662D01*
G01X76554Y59617D01*
G01X76517Y59575D01*
G01X76478Y59535D01*
G01X76440Y59497D01*
G01X76400Y59462D01*
G01X76359Y59429D01*
G01X76317Y59399D01*
G01X76275Y59371D01*
G01X76232Y59345D01*
G01X76188Y59322D01*
G01X76143Y59301D01*
G01X76097Y59283D01*
G01X76050Y59266D01*
G01X76002Y59253D01*
G01X75954Y59241D01*
G01X75904Y59232D01*
G01X75854Y59225D01*
G01X75802Y59220D01*
G01X75704Y59211D01*
G01X75639Y59197D01*
G01X75597Y59177D01*
G01X75569Y59146D01*
G01X75542Y59106D01*
G01X75499Y59040D01*
G01X75446Y58958D01*
G01X75388Y58868D01*
G01X75247Y58650D01*
G01X75328Y58633D01*
G01X75394Y58617D01*
G01X75457Y58596D01*
G01X75517Y58571D01*
G01X75573Y58542D01*
G01X75625Y58509D01*
G01X75674Y58472D01*
G01X75719Y58432D01*
G01X75759Y58389D01*
G01X75796Y58343D01*
G01X75827Y58295D01*
G01X75855Y58244D01*
G01X75877Y58190D01*
G01X75895Y58135D01*
G01X75908Y58078D01*
G01X75916Y58019D01*
G01X75919Y57960D01*
G01X75917Y57899D01*
G01X75908Y57837D01*
G01X75895Y57774D01*
G01X75875Y57711D01*
G01X75856Y57662D01*
G01X75832Y57615D01*
G01X75805Y57571D01*
G01X75775Y57531D01*
G01X75742Y57492D01*
G01X75706Y57458D01*
G01X75668Y57426D01*
G01X75627Y57397D01*
G01X75585Y57371D01*
G01X75541Y57349D01*
G01X75495Y57329D01*
G01X75448Y57313D01*
G01X75399Y57299D01*
G01X75350Y57289D01*
G01X75300Y57282D01*
G01X75250Y57278D01*
G37*

%LPC*%
G36*
G01X75148Y57610D02*
G01X75193Y57604D01*
G01X75237Y57605D01*
G01X75280Y57612D01*
G01X75321Y57625D01*
G01X75359Y57645D01*
G01X75396Y57669D01*
G01X75429Y57698D01*
G01X75459Y57732D01*
G01X75486Y57769D01*
G01X75507Y57809D01*
G01X75524Y57852D01*
G01X75536Y57898D01*
G01X75541Y57945D01*
G01X75540Y57994D01*
G01X75532Y58044D01*
G01X75517Y58094D01*
G01X75494Y58144D01*
G01X75468Y58183D01*
G01X75436Y58217D01*
G01X75398Y58245D01*
G01X75357Y58268D01*
G01X75312Y58284D01*
G01X75264Y58295D01*
G01X75216Y58299D01*
G01X75167Y58297D01*
G01X75120Y58288D01*
G01X75074Y58273D01*
G01X75032Y58250D01*
G01X74994Y58221D01*
G01X74957Y58183D01*
G01X74927Y58141D01*
G01X74906Y58095D01*
G01X74890Y58047D01*
G01X74882Y57997D01*
G01X74881Y57947D01*
G01X74886Y57897D01*
G01X74899Y57847D01*
G01X74918Y57800D01*
G01X74944Y57755D01*
G01X74977Y57713D01*
G01X75017Y57676D01*
G01X75060Y57646D01*
G01X75104Y57624D01*
G01X75148Y57610D01*
G37*

%LPD*%
G36*
G01X73284Y57294D02*
G01X72873Y57294D01*
G01X72873Y59186D01*
G01X73284Y59186D01*
G01X73284Y58536D01*
G01X73869Y58536D01*
G01X73869Y59186D01*
G01X74280Y59186D01*
G01X74280Y57294D01*
G01X73869Y57294D01*
G01X73869Y58169D01*
G01X73284Y58169D01*
G01X73284Y57294D01*
G37*

%LPC*%

%LPD*%
G36*
G01X76438Y57294D02*
G01X76224Y57294D01*
G01X76140Y57295D01*
G01X76072Y57298D01*
G01X76026Y57302D01*
G01X76009Y57307D01*
G01X76012Y57317D01*
G01X76022Y57340D01*
G01X76036Y57375D01*
G01X76056Y57420D01*
G01X76079Y57474D01*
G01X76107Y57535D01*
G01X76136Y57601D01*
G01X76168Y57672D01*
G01X76328Y58024D01*
G01X76227Y58126D01*
G01X76194Y58164D01*
G01X76164Y58207D01*
G01X76139Y58254D01*
G01X76117Y58304D01*
G01X76098Y58356D01*
G01X76085Y58410D01*
G01X76075Y58466D01*
G01X76069Y58522D01*
G01X76067Y58579D01*
G01X76070Y58635D01*
G01X76077Y58691D01*
G01X76088Y58746D01*
G01X76103Y58798D01*
G01X76122Y58849D01*
G01X76146Y58895D01*
G01X76175Y58939D01*
G01X76210Y58985D01*
G01X76246Y59026D01*
G01X76283Y59059D01*
G01X76323Y59088D01*
G01X76369Y59111D01*
G01X76420Y59130D01*
G01X76479Y59145D01*
G01X76548Y59157D01*
G01X76629Y59166D01*
G01X76722Y59172D01*
G01X76830Y59177D01*
G01X76954Y59180D01*
G01X77416Y59189D01*
G01X77416Y57294D01*
G01X77005Y57294D01*
G01X77005Y57946D01*
G01X76853Y57938D01*
G01X76700Y57929D01*
G01X76569Y57612D01*
G01X76438Y57294D01*
G37*

%LPC*%
G36*
G01X76881Y58282D02*
G01X77005Y58282D01*
G01X77005Y58833D01*
G01X76783Y58818D01*
G01X76666Y58809D01*
G01X76591Y58794D01*
G01X76541Y58772D01*
G01X76504Y58738D01*
G01X76465Y58663D01*
G01X76450Y58572D01*
G01X76459Y58479D01*
G01X76494Y58402D01*
G01X76518Y58377D01*
G01X76551Y58353D01*
G01X76592Y58333D01*
G01X76639Y58315D01*
G01X76693Y58302D01*
G01X76752Y58291D01*
G01X76815Y58284D01*
G01X76881Y58282D01*
G37*

%LPD*%
G36*
G01X25171Y55165D02*
G01X24196Y55165D01*
G01X24082Y55165D01*
G01X23974Y55166D01*
G01X23871Y55167D01*
G01X23775Y55168D01*
G01X23685Y55171D01*
G01X23600Y55174D01*
G01X23521Y55177D01*
G01X23447Y55182D01*
G01X23378Y55188D01*
G01X23314Y55194D01*
G01X23254Y55202D01*
G01X23199Y55210D01*
G01X23149Y55220D01*
G01X23103Y55231D01*
G01X23061Y55244D01*
G01X23023Y55258D01*
G01X22988Y55273D01*
G01X22957Y55290D01*
G01X22929Y55309D01*
G01X22904Y55329D01*
G01X22882Y55351D01*
G01X22864Y55374D01*
G01X22847Y55400D01*
G01X22834Y55427D01*
G01X22822Y55457D01*
G01X22813Y55489D01*
G01X22805Y55523D01*
G01X22800Y55559D01*
G01X22795Y55598D01*
G01X22793Y55638D01*
G01X22791Y55682D01*
G01X22791Y55728D01*
G01X22791Y55782D01*
G01X22794Y55833D01*
G01X22799Y55880D01*
G01X22807Y55924D01*
G01X22817Y55963D01*
G01X22830Y56000D01*
G01X22847Y56033D01*
G01X22867Y56064D01*
G01X22892Y56091D01*
G01X22921Y56116D01*
G01X22954Y56138D01*
G01X22994Y56157D01*
G01X23038Y56174D01*
G01X23088Y56189D01*
G01X23143Y56202D01*
G01X23206Y56213D01*
G01X23275Y56222D01*
G01X23351Y56230D01*
G01X23434Y56235D01*
G01X23524Y56240D01*
G01X23623Y56243D01*
G01X23730Y56245D01*
G01X23846Y56246D01*
G01X23970Y56247D01*
G01X24080Y56247D01*
G01X24182Y56248D01*
G01X24275Y56250D01*
G01X24360Y56252D01*
G01X24436Y56255D01*
G01X24503Y56258D01*
G01X24560Y56263D01*
G01X24608Y56267D01*
G01X24646Y56272D01*
G01X24673Y56278D01*
G01X24690Y56284D01*
G01X24695Y56290D01*
G01X24691Y56295D01*
G01X24679Y56300D01*
G01X24659Y56305D01*
G01X24631Y56309D01*
G01X24596Y56312D01*
G01X24554Y56316D01*
G01X24503Y56319D01*
G01X24446Y56322D01*
G01X24382Y56325D01*
G01X24310Y56327D01*
G01X24232Y56329D01*
G01X24147Y56331D01*
G01X24056Y56332D01*
G01X23958Y56333D01*
G01X23854Y56333D01*
G01X23743Y56334D01*
G01X22791Y56334D01*
G01X22791Y56810D01*
G01X23797Y56808D01*
G01X23928Y56808D01*
G01X24049Y56807D01*
G01X24162Y56806D01*
G01X24265Y56805D01*
G01X24360Y56803D01*
G01X24446Y56801D01*
G01X24524Y56797D01*
G01X24594Y56794D01*
G01X24657Y56791D01*
G01X24712Y56787D01*
G01X24760Y56782D01*
G01X24801Y56777D01*
G01X24835Y56772D01*
G01X24863Y56766D01*
G01X24885Y56759D01*
G01X24901Y56752D01*
G01X24952Y56719D01*
G01X24998Y56678D01*
G01X25039Y56631D01*
G01X25075Y56578D01*
G01X25104Y56521D01*
G01X25128Y56459D01*
G01X25146Y56395D01*
G01X25157Y56328D01*
G01X25161Y56260D01*
G01X25158Y56191D01*
G01X25147Y56122D01*
G01X25129Y56055D01*
G01X25116Y56017D01*
G01X25103Y55982D01*
G01X25089Y55951D01*
G01X25073Y55923D01*
G01X25056Y55898D01*
G01X25036Y55876D01*
G01X25012Y55857D01*
G01X24985Y55840D01*
G01X24954Y55825D01*
G01X24918Y55813D01*
G01X24876Y55802D01*
G01X24828Y55794D01*
G01X24773Y55787D01*
G01X24711Y55782D01*
G01X24641Y55778D01*
G01X24561Y55775D01*
G01X24473Y55773D01*
G01X24375Y55772D01*
G01X24267Y55771D01*
G01X24047Y55771D01*
G01X23948Y55770D01*
G01X23854Y55769D01*
G01X23764Y55767D01*
G01X23679Y55765D01*
G01X23602Y55763D01*
G01X23533Y55761D01*
G01X23472Y55758D01*
G01X23421Y55755D01*
G01X23380Y55751D01*
G01X23351Y55748D01*
G01X23335Y55744D01*
G01X23308Y55733D01*
G01X23288Y55723D01*
G01X23274Y55713D01*
G01X23267Y55704D01*
G01X23267Y55696D01*
G01X23275Y55688D01*
G01X23289Y55681D01*
G01X23311Y55675D01*
G01X23341Y55669D01*
G01X23378Y55664D01*
G01X23424Y55659D01*
G01X23477Y55655D01*
G01X23539Y55652D01*
G01X23610Y55649D01*
G01X23689Y55646D01*
G01X23777Y55644D01*
G01X23873Y55643D01*
G01X23979Y55642D01*
G01X24094Y55641D01*
G01X24219Y55641D01*
G01X25171Y55641D01*
G01X25171Y55165D01*
G37*

%LPC*%

%LPD*%
G36*
G01X25661Y55166D02*
G01X25577Y55165D01*
G01X25470Y55167D01*
G01X25383Y55174D01*
G01X25324Y55185D01*
G01X25302Y55197D01*
G01X25305Y55205D01*
G01X25312Y55220D01*
G01X25323Y55242D01*
G01X25338Y55271D01*
G01X25357Y55307D01*
G01X25380Y55349D01*
G01X25406Y55396D01*
G01X25435Y55449D01*
G01X25467Y55507D01*
G01X25501Y55569D01*
G01X25538Y55635D01*
G01X25577Y55704D01*
G01X25618Y55776D01*
G01X25661Y55852D01*
G01X25705Y55929D01*
G01X25751Y56009D01*
G01X26199Y56788D01*
G01X26453Y56799D01*
G01X26708Y56811D01*
G01X27043Y56215D01*
G01X27078Y56153D01*
G01X27183Y55966D01*
G01X27218Y55904D01*
G01X27252Y55843D01*
G01X27286Y55785D01*
G01X27318Y55728D01*
G01X27349Y55673D01*
G01X27379Y55621D01*
G01X27406Y55572D01*
G01X27432Y55527D01*
G01X27455Y55486D01*
G01X27476Y55450D01*
G01X27494Y55418D01*
G01X27509Y55392D01*
G01X27640Y55165D01*
G01X27335Y55165D01*
G01X27241Y55165D01*
G01X27167Y55168D01*
G01X27111Y55172D01*
G01X27069Y55182D01*
G01X27039Y55195D01*
G01X27016Y55214D01*
G01X26998Y55239D01*
G01X26981Y55273D01*
G01X26964Y55308D01*
G01X26944Y55334D01*
G01X26917Y55354D01*
G01X26876Y55367D01*
G01X26816Y55375D01*
G01X26731Y55379D01*
G01X26616Y55381D01*
G01X26314Y55381D01*
G01X26199Y55379D01*
G01X26113Y55375D01*
G01X26051Y55366D01*
G01X26007Y55353D01*
G01X25975Y55334D01*
G01X25949Y55307D01*
G01X25925Y55273D01*
G01X25902Y55240D01*
G01X25879Y55216D01*
G01X25852Y55196D01*
G01X25820Y55183D01*
G01X25779Y55173D01*
G01X25727Y55168D01*
G01X25661Y55166D01*
G37*

%LPC*%
G36*
G01X26508Y55861D02*
G01X26563Y55860D01*
G01X26600Y55866D01*
G01X26620Y55880D01*
G01X26624Y55903D01*
G01X26613Y55937D01*
G01X26589Y55986D01*
G01X26553Y56049D01*
G01X26459Y56208D01*
G01X26359Y56044D01*
G01X26259Y55879D01*
G01X26434Y55865D01*
G01X26508Y55861D01*
G37*

%LPD*%
G36*
G01X30106Y55165D02*
G01X29021Y55165D01*
G01X28917Y55165D01*
G01X28820Y55166D01*
G01X28728Y55166D01*
G01X28642Y55167D01*
G01X28561Y55169D01*
G01X28485Y55172D01*
G01X28414Y55175D01*
G01X28348Y55179D01*
G01X28287Y55184D01*
G01X28230Y55190D01*
G01X28178Y55198D01*
G01X28129Y55206D01*
G01X28085Y55216D01*
G01X28044Y55228D01*
G01X28008Y55240D01*
G01X27974Y55255D01*
G01X27944Y55272D01*
G01X27917Y55290D01*
G01X27892Y55311D01*
G01X27871Y55333D01*
G01X27852Y55358D01*
G01X27836Y55385D01*
G01X27822Y55415D01*
G01X27810Y55447D01*
G01X27800Y55482D01*
G01X27792Y55519D01*
G01X27785Y55559D01*
G01X27779Y55603D01*
G01X27775Y55649D01*
G01X27773Y55698D01*
G01X27771Y55751D01*
G01X27769Y55807D01*
G01X27769Y55866D01*
G01X27768Y55929D01*
G01X27768Y56112D01*
G01X27769Y56209D01*
G01X27770Y56290D01*
G01X27773Y56357D01*
G01X27778Y56412D01*
G01X27785Y56457D01*
G01X27794Y56495D01*
G01X27806Y56528D01*
G01X27822Y56557D01*
G01X27842Y56585D01*
G01X27866Y56614D01*
G01X27894Y56647D01*
G01X28021Y56788D01*
G01X30106Y56814D01*
G01X30106Y55165D01*
G37*

%LPC*%
G36*
G01X28883Y55641D02*
G01X28989Y55641D01*
G01X29630Y55641D01*
G01X29630Y56334D01*
G01X28989Y56334D01*
G01X28883Y56333D01*
G01X28787Y56332D01*
G01X28700Y56331D01*
G01X28621Y56328D01*
G01X28552Y56325D01*
G01X28491Y56321D01*
G01X28438Y56316D01*
G01X28394Y56311D01*
G01X28358Y56305D01*
G01X28330Y56298D01*
G01X28309Y56290D01*
G01X28296Y56281D01*
G01X28281Y56257D01*
G01X28268Y56219D01*
G01X28259Y56171D01*
G01X28251Y56114D01*
G01X28247Y56052D01*
G01X28246Y55987D01*
G01X28247Y55923D01*
G01X28251Y55861D01*
G01X28259Y55804D01*
G01X28268Y55755D01*
G01X28281Y55717D01*
G01X28296Y55693D01*
G01X28309Y55684D01*
G01X28330Y55677D01*
G01X28358Y55670D01*
G01X28394Y55664D01*
G01X28438Y55658D01*
G01X28491Y55653D01*
G01X28552Y55650D01*
G01X28621Y55646D01*
G01X28700Y55644D01*
G01X28787Y55642D01*
G01X28883Y55641D01*
G37*

%LPD*%
G36*
G01X21811Y57070D02*
G01X21725Y57069D01*
G01X21593Y57072D01*
G01X21508Y57081D01*
G01X21466Y57098D01*
G01X21460Y57124D01*
G01X21474Y57150D01*
G01X21486Y57174D01*
G01X21503Y57204D01*
G01X21523Y57241D01*
G01X21547Y57284D01*
G01X21574Y57331D01*
G01X21603Y57384D01*
G01X21635Y57442D01*
G01X21670Y57503D01*
G01X21707Y57568D01*
G01X21745Y57637D01*
G01X21786Y57708D01*
G01X21828Y57782D01*
G01X21871Y57858D01*
G01X21916Y57935D01*
G01X22350Y58692D01*
G01X22603Y58704D01*
G01X22855Y58717D01*
G01X23180Y58146D01*
G01X23214Y58087D01*
G01X23249Y58026D01*
G01X23318Y57904D01*
G01X23352Y57844D01*
G01X23386Y57785D01*
G01X23420Y57726D01*
G01X23452Y57669D01*
G01X23483Y57614D01*
G01X23513Y57561D01*
G01X23541Y57512D01*
G01X23592Y57423D01*
G01X23614Y57385D01*
G01X23633Y57351D01*
G01X23649Y57322D01*
G01X23794Y57069D01*
G01X23494Y57069D01*
G01X23401Y57070D01*
G01X23329Y57072D01*
G01X23274Y57077D01*
G01X23232Y57086D01*
G01X23202Y57099D01*
G01X23180Y57119D01*
G01X23162Y57144D01*
G01X23145Y57177D01*
G01X23128Y57212D01*
G01X23108Y57239D01*
G01X23080Y57258D01*
G01X23039Y57271D01*
G01X22978Y57280D01*
G01X22893Y57284D01*
G01X22776Y57286D01*
G01X22472Y57286D01*
G01X22356Y57284D01*
G01X22270Y57279D01*
G01X22207Y57271D01*
G01X22162Y57258D01*
G01X22130Y57238D01*
G01X22105Y57212D01*
G01X22081Y57177D01*
G01X22057Y57145D01*
G01X22034Y57120D01*
G01X22008Y57101D01*
G01X21975Y57087D01*
G01X21933Y57078D01*
G01X21880Y57073D01*
G01X21811Y57070D01*
G37*

%LPC*%
G36*
G01X22582Y57770D02*
G01X22657Y57765D01*
G01X22713Y57766D01*
G01X22750Y57772D01*
G01X22771Y57787D01*
G01X22776Y57811D01*
G01X22766Y57846D01*
G01X22741Y57895D01*
G01X22704Y57957D01*
G01X22607Y58114D01*
G01X22407Y57783D01*
G01X22582Y57770D01*
G37*

%LPD*%
G36*
G01X28894Y57069D02*
G01X26513Y57069D01*
G01X26513Y57545D01*
G01X27466Y57545D01*
G01X27611Y57546D01*
G01X27741Y57546D01*
G01X27857Y57547D01*
G01X27959Y57548D01*
G01X28048Y57549D01*
G01X28126Y57551D01*
G01X28192Y57554D01*
G01X28248Y57557D01*
G01X28294Y57561D01*
G01X28332Y57566D01*
G01X28361Y57571D01*
G01X28383Y57577D01*
G01X28400Y57584D01*
G01X28410Y57591D01*
G01X28416Y57601D01*
G01X28418Y57610D01*
G01X28416Y57620D01*
G01X28410Y57629D01*
G01X28400Y57637D01*
G01X28383Y57644D01*
G01X28361Y57650D01*
G01X28332Y57655D01*
G01X28294Y57660D01*
G01X28248Y57664D01*
G01X28192Y57667D01*
G01X28126Y57670D01*
G01X28048Y57672D01*
G01X27959Y57673D01*
G01X27857Y57674D01*
G01X27741Y57675D01*
G01X27611Y57675D01*
G01X26513Y57675D01*
G01X26513Y58130D01*
G01X27466Y58115D01*
G01X27615Y58113D01*
G01X27749Y58112D01*
G01X27867Y58110D01*
G01X27971Y58110D01*
G01X28061Y58110D01*
G01X28139Y58111D01*
G01X28204Y58112D01*
G01X28259Y58115D01*
G01X28304Y58118D01*
G01X28339Y58122D01*
G01X28367Y58127D01*
G01X28388Y58133D01*
G01X28402Y58141D01*
G01X28411Y58149D01*
G01X28416Y58158D01*
G01X28418Y58170D01*
G01X28416Y58180D01*
G01X28411Y58190D01*
G01X28402Y58198D01*
G01X28387Y58206D01*
G01X28366Y58212D01*
G01X28338Y58218D01*
G01X28302Y58222D01*
G01X28256Y58226D01*
G01X28202Y58230D01*
G01X28136Y58232D01*
G01X28058Y58234D01*
G01X27968Y58236D01*
G01X27865Y58237D01*
G01X27747Y58238D01*
G01X27614Y58238D01*
G01X27466Y58238D01*
G01X26513Y58238D01*
G01X26513Y58714D01*
G01X28894Y58714D01*
G01X28894Y57069D01*
G37*

%LPC*%

%LPD*%
G36*
G01X29630Y57069D02*
G01X29154Y57069D01*
G01X29154Y58003D01*
G01X29154Y58110D01*
G01X29155Y58211D01*
G01X29156Y58306D01*
G01X29158Y58394D01*
G01X29160Y58472D01*
G01X29162Y58542D01*
G01X29164Y58601D01*
G01X29166Y58649D01*
G01X29169Y58685D01*
G01X29172Y58707D01*
G01X29174Y58714D01*
G01X29183Y58712D01*
G01X29201Y58704D01*
G01X29228Y58691D01*
G01X29264Y58675D01*
G01X29308Y58654D01*
G01X29358Y58630D01*
G01X29416Y58602D01*
G01X29478Y58572D01*
G01X29546Y58539D01*
G01X29617Y58503D01*
G01X29693Y58466D01*
G01X29771Y58428D01*
G01X30346Y58141D01*
G01X30917Y58428D01*
G01X30995Y58466D01*
G01X31070Y58503D01*
G01X31141Y58539D01*
G01X31208Y58572D01*
G01X31271Y58602D01*
G01X31328Y58630D01*
G01X31379Y58654D01*
G01X31422Y58675D01*
G01X31458Y58691D01*
G01X31485Y58704D01*
G01X31504Y58712D01*
G01X31512Y58714D01*
G01X31515Y58707D01*
G01X31517Y58685D01*
G01X31520Y58649D01*
G01X31523Y58601D01*
G01X31525Y58542D01*
G01X31528Y58472D01*
G01X31529Y58394D01*
G01X31531Y58306D01*
G01X31532Y58211D01*
G01X31533Y58110D01*
G01X31534Y58003D01*
G01X31534Y57892D01*
G01X31534Y57069D01*
G01X31058Y57069D01*
G01X31058Y57891D01*
G01X30699Y57713D01*
G01X30340Y57535D01*
G01X29985Y57714D01*
G01X29630Y57893D01*
G01X29630Y57069D01*
G37*

%LPC*%

%LPD*%
G36*
G01X25210Y57070D02*
G01X25002Y57070D01*
G01X24895Y57071D01*
G01X24795Y57072D01*
G01X24703Y57075D01*
G01X24616Y57078D01*
G01X24537Y57083D01*
G01X24463Y57089D01*
G01X24396Y57097D01*
G01X24334Y57106D01*
G01X24278Y57117D01*
G01X24227Y57131D01*
G01X24181Y57146D01*
G01X24140Y57163D01*
G01X24103Y57184D01*
G01X24070Y57206D01*
G01X24041Y57231D01*
G01X24016Y57259D01*
G01X23995Y57291D01*
G01X23977Y57325D01*
G01X23961Y57363D01*
G01X23949Y57404D01*
G01X23938Y57449D01*
G01X23930Y57497D01*
G01X23925Y57550D01*
G01X23921Y57607D01*
G01X23918Y57668D01*
G01X23917Y57733D01*
G01X23916Y57803D01*
G01X23916Y58151D01*
G01X25561Y58151D01*
G01X25561Y57675D01*
G01X24973Y57675D01*
G01X24818Y57675D01*
G01X24692Y57673D01*
G01X24591Y57669D01*
G01X24514Y57664D01*
G01X24458Y57656D01*
G01X24423Y57647D01*
G01X24405Y57636D01*
G01X24403Y57621D01*
G01X24415Y57610D01*
G01X24443Y57601D01*
G01X24486Y57591D01*
G01X24541Y57583D01*
G01X24607Y57575D01*
G01X24681Y57569D01*
G01X24763Y57563D01*
G01X24851Y57558D01*
G01X24943Y57555D01*
G01X25037Y57552D01*
G01X25131Y57551D01*
G01X25224Y57550D01*
G01X25315Y57551D01*
G01X25400Y57553D01*
G01X25479Y57556D01*
G01X25550Y57561D01*
G01X25611Y57567D01*
G01X25660Y57574D01*
G01X25696Y57583D01*
G01X25718Y57593D01*
G01X25735Y57616D01*
G01X25749Y57653D01*
G01X25761Y57702D01*
G01X25769Y57758D01*
G01X25774Y57820D01*
G01X25777Y57885D01*
G01X25776Y57951D01*
G01X25772Y58014D01*
G01X25766Y58071D01*
G01X25756Y58121D01*
G01X25742Y58160D01*
G01X25725Y58186D01*
G01X25715Y58193D01*
G01X25700Y58199D01*
G01X25679Y58205D01*
G01X25652Y58210D01*
G01X25619Y58214D01*
G01X25580Y58219D01*
G01X25534Y58222D01*
G01X25481Y58226D01*
G01X25421Y58229D01*
G01X25354Y58232D01*
G01X25281Y58234D01*
G01X25199Y58235D01*
G01X25110Y58237D01*
G01X25013Y58237D01*
G01X24908Y58238D01*
G01X24795Y58238D01*
G01X23916Y58238D01*
G01X23916Y58714D01*
G01X25959Y58714D01*
G01X26106Y58567D01*
G01X26174Y58492D01*
G01X26220Y58421D01*
G01X26248Y58349D01*
G01X26259Y58275D01*
G01X26262Y58179D01*
G01X26264Y58089D01*
G01X26266Y58004D01*
G01X26268Y57924D01*
G01X26268Y57848D01*
G01X26268Y57777D01*
G01X26266Y57710D01*
G01X26263Y57648D01*
G01X26259Y57590D01*
G01X26253Y57536D01*
G01X26246Y57486D01*
G01X26237Y57440D01*
G01X26226Y57397D01*
G01X26212Y57357D01*
G01X26197Y57321D01*
G01X26179Y57288D01*
G01X26158Y57258D01*
G01X26135Y57231D01*
G01X26109Y57207D01*
G01X26081Y57185D01*
G01X26049Y57166D01*
G01X26014Y57148D01*
G01X25976Y57134D01*
G01X25934Y57121D01*
G01X25889Y57110D01*
G01X25840Y57100D01*
G01X25787Y57093D01*
G01X25730Y57086D01*
G01X25669Y57081D01*
G01X25604Y57077D01*
G01X25535Y57074D01*
G01X25460Y57072D01*
G01X25382Y57071D01*
G01X25298Y57070D01*
G01X25210Y57070D01*
G37*

%LPC*%

%LPD*%
G36*
G01X26231Y58922D02*
G01X25538Y58922D01*
G01X25455Y58923D01*
G01X25375Y58923D01*
G01X25296Y58923D01*
G01X25218Y58924D01*
G01X25142Y58924D01*
G01X25068Y58924D01*
G01X24996Y58925D01*
G01X24925Y58926D01*
G01X24856Y58926D01*
G01X24790Y58927D01*
G01X24726Y58928D01*
G01X24664Y58929D01*
G01X24604Y58930D01*
G01X24547Y58931D01*
G01X24493Y58932D01*
G01X24441Y58933D01*
G01X24392Y58934D01*
G01X24345Y58935D01*
G01X24302Y58936D01*
G01X24262Y58937D01*
G01X24224Y58939D01*
G01X24190Y58940D01*
G01X24159Y58942D01*
G01X24132Y58943D01*
G01X24108Y58945D01*
G01X24087Y58946D01*
G01X24071Y58948D01*
G01X24058Y58950D01*
G01X24049Y58952D01*
G01X24044Y58953D01*
G01X24028Y58967D01*
G01X24015Y58986D01*
G01X24006Y59007D01*
G01X24003Y59028D01*
G01X24007Y59041D01*
G01X24020Y59039D01*
G01X24039Y59024D01*
G01X24061Y58997D01*
G01X24121Y58950D01*
G01X24187Y58944D01*
G01X24240Y58974D01*
G01X24263Y59037D01*
G01X24253Y59078D01*
G01X24224Y59102D01*
G01X24170Y59111D01*
G01X24089Y59107D01*
G01X24062Y59106D01*
G01X24051Y59110D01*
G01X24056Y59120D01*
G01X24077Y59136D01*
G01X24096Y59142D01*
G01X24132Y59147D01*
G01X24181Y59150D01*
G01X24242Y59151D01*
G01X24313Y59150D01*
G01X24393Y59147D01*
G01X24477Y59143D01*
G01X24566Y59137D01*
G01X24604Y59134D01*
G01X24647Y59131D01*
G01X24694Y59129D01*
G01X24745Y59126D01*
G01X24798Y59124D01*
G01X24855Y59122D01*
G01X24914Y59120D01*
G01X24976Y59119D01*
G01X25040Y59117D01*
G01X25106Y59115D01*
G01X25173Y59114D01*
G01X25242Y59113D01*
G01X25311Y59112D01*
G01X25381Y59112D01*
G01X25451Y59112D01*
G01X25520Y59111D01*
G01X25589Y59112D01*
G01X25658Y59112D01*
G01X25725Y59112D01*
G01X25791Y59113D01*
G01X26578Y59125D01*
G01X26591Y59309D01*
G01X26596Y59414D01*
G01X26585Y59469D01*
G01X26547Y59490D01*
G01X26472Y59493D01*
G01X26401Y59497D01*
G01X26361Y59516D01*
G01X26344Y59559D01*
G01X26340Y59636D01*
G01X26339Y59680D01*
G01X26334Y59716D01*
G01X26323Y59746D01*
G01X26305Y59771D01*
G01X26277Y59795D01*
G01X26237Y59819D01*
G01X26184Y59844D01*
G01X26115Y59874D01*
G01X25891Y59969D01*
G01X25790Y59874D01*
G01X25689Y59779D01*
G01X25474Y59991D01*
G01X25259Y60204D01*
G01X25362Y60314D01*
G01X25407Y60367D01*
G01X25432Y60413D01*
G01X25438Y60453D01*
G01X25426Y60489D01*
G01X25406Y60527D01*
G01X25379Y60582D01*
G01X25350Y60648D01*
G01X25322Y60716D01*
G01X25284Y60799D01*
G01X25245Y60848D01*
G01X25196Y60872D01*
G01X25127Y60878D01*
G01X25065Y60882D01*
G01X25025Y60897D01*
G01X25004Y60923D01*
G01X24998Y60965D01*
G01X24997Y60991D01*
G01X24990Y61011D01*
G01X24975Y61027D01*
G01X24949Y61038D01*
G01X24911Y61045D01*
G01X24858Y61049D01*
G01X24787Y61051D01*
G01X24695Y61051D01*
G01X24392Y61051D01*
G01X24392Y60056D01*
G01X23808Y60048D01*
G01X23728Y60047D01*
G01X23649Y60046D01*
G01X23573Y60045D01*
G01X23500Y60044D01*
G01X23431Y60043D01*
G01X23366Y60042D01*
G01X23308Y60041D01*
G01X23255Y60040D01*
G01X23210Y60039D01*
G01X23173Y60038D01*
G01X23144Y60038D01*
G01X23126Y60037D01*
G01X23079Y60041D01*
G01X23049Y60057D01*
G01X23033Y60090D01*
G01X23029Y60143D01*
G01X23029Y60251D01*
G01X23624Y60236D01*
G01X24219Y60220D01*
G01X24219Y61051D01*
G01X23720Y61051D01*
G01X23591Y61052D01*
G01X23484Y61054D01*
G01X23397Y61058D01*
G01X23330Y61063D01*
G01X23282Y61071D01*
G01X23249Y61080D01*
G01X23231Y61092D01*
G01X23227Y61105D01*
G01X23231Y61179D01*
G01X23222Y61230D01*
G01X23197Y61259D01*
G01X23181Y61262D01*
G01X23189Y61263D01*
G01X23237Y61267D01*
G01X23296Y61269D01*
G01X23364Y61271D01*
G01X23444Y61273D01*
G01X23535Y61273D01*
G01X23639Y61274D01*
G01X23757Y61273D01*
G01X23889Y61272D01*
G01X24037Y61271D01*
G01X24998Y61262D01*
G01X24998Y61373D01*
G01X25003Y61432D01*
G01X25024Y61465D01*
G01X25070Y61481D01*
G01X25150Y61484D01*
G01X25222Y61488D01*
G01X25269Y61501D01*
G01X25294Y61524D01*
G01X25303Y61560D01*
G01X25310Y61601D01*
G01X25328Y61658D01*
G01X25354Y61723D01*
G01X25386Y61787D01*
G01X25431Y61876D01*
G01X25445Y61932D01*
G01X25427Y61978D01*
G01X25376Y62037D01*
G01X25285Y62135D01*
G01X25496Y62350D01*
G01X25708Y62565D01*
G01X25800Y62478D01*
G01X25892Y62392D01*
G01X26116Y62485D01*
G01X26234Y62538D01*
G01X26302Y62583D01*
G01X26333Y62634D01*
G01X26340Y62702D01*
G01X26344Y62767D01*
G01X26362Y62805D01*
G01X26401Y62822D01*
G01X26470Y62826D01*
G01X26545Y62830D01*
G01X26583Y62857D01*
G01X26597Y62929D01*
G01X26600Y63067D01*
G01X26600Y63308D01*
G01X25615Y63298D01*
G01X24630Y63287D01*
G01X24630Y63490D01*
G01X25615Y63480D01*
G01X26600Y63469D01*
G01X26600Y63732D01*
G01X27695Y63744D01*
G01X27848Y63746D01*
G01X27986Y63747D01*
G01X28110Y63748D01*
G01X28220Y63749D01*
G01X28318Y63750D01*
G01X28404Y63749D01*
G01X28478Y63749D01*
G01X28543Y63748D01*
G01X28598Y63746D01*
G01X28644Y63743D01*
G01X28682Y63740D01*
G01X28713Y63736D01*
G01X28737Y63731D01*
G01X28755Y63726D01*
G01X28769Y63719D01*
G01X28778Y63711D01*
G01X28784Y63703D01*
G01X28787Y63693D01*
G01X28788Y63682D01*
G01X28788Y63670D01*
G01X28792Y63631D01*
G01X28808Y63604D01*
G01X28838Y63590D01*
G01X28883Y63587D01*
G01X28919Y63587D01*
G01X28945Y63583D01*
G01X28960Y63578D01*
G01X28960Y63571D01*
G01X28952Y63569D01*
G01X28934Y63567D01*
G01X28905Y63565D01*
G01X28867Y63564D01*
G01X28819Y63562D01*
G01X28763Y63561D01*
G01X28699Y63560D01*
G01X28628Y63559D01*
G01X28550Y63558D01*
G01X28465Y63558D01*
G01X28374Y63557D01*
G01X28075Y63557D01*
G01X27967Y63558D01*
G01X27857Y63559D01*
G01X26773Y63567D01*
G01X26773Y63196D01*
G01X26773Y63075D01*
G01X26775Y62984D01*
G01X26779Y62918D01*
G01X26787Y62874D01*
G01X26800Y62847D01*
G01X26819Y62832D01*
G01X26846Y62827D01*
G01X26881Y62826D01*
G01X26936Y62821D01*
G01X26969Y62803D01*
G01X26985Y62766D01*
G01X26989Y62704D01*
G01X26997Y62661D01*
G01X27020Y62619D01*
G01X27054Y62578D01*
G01X27098Y62540D01*
G01X27149Y62506D01*
G01X27205Y62477D01*
G01X27265Y62454D01*
G01X27324Y62438D01*
G01X27381Y62431D01*
G01X27435Y62432D01*
G01X27481Y62444D01*
G01X27518Y62467D01*
G01X27545Y62487D01*
G01X27576Y62503D01*
G01X27614Y62515D01*
G01X27663Y62524D01*
G01X27724Y62529D01*
G01X27800Y62531D01*
G01X27894Y62531D01*
G01X28008Y62528D01*
G01X28418Y62516D01*
G01X28418Y63299D01*
G01X29355Y63312D01*
G01X29497Y63313D01*
G01X29627Y63314D01*
G01X29744Y63315D01*
G01X29851Y63314D01*
G01X29947Y63313D01*
G01X30031Y63311D01*
G01X30107Y63308D01*
G01X30172Y63304D01*
G01X30229Y63299D01*
G01X30276Y63292D01*
G01X30316Y63285D01*
G01X30348Y63276D01*
G01X30373Y63265D01*
G01X30392Y63254D01*
G01X30403Y63240D01*
G01X30409Y63225D01*
G01X30410Y63208D01*
G01X30406Y63190D01*
G01X30397Y63169D01*
G01X30385Y63146D01*
G01X30376Y63135D01*
G01X30366Y63124D01*
G01X30352Y63115D01*
G01X30334Y63107D01*
G01X30311Y63100D01*
G01X30283Y63095D01*
G01X30280Y63094D01*
G01X30265Y63088D01*
G01X30249Y63090D01*
G01X30280Y63094D01*
G01X30316Y63108D01*
G01X30351Y63155D01*
G01X30354Y63220D01*
G01X30316Y63262D01*
G01X30259Y63272D01*
G01X30198Y63240D01*
G01X30177Y63213D01*
G01X30165Y63184D01*
G01X30161Y63156D01*
G01X30168Y63133D01*
G01X30211Y63096D01*
G01X30249Y63090D01*
G01X30247Y63090D01*
G01X30204Y63086D01*
G01X30152Y63083D01*
G01X30090Y63081D01*
G01X30018Y63080D01*
G01X29934Y63079D01*
G01X29838Y63079D01*
G01X29728Y63079D01*
G01X29604Y63080D01*
G01X29465Y63082D01*
G01X28591Y63092D01*
G01X28591Y62517D01*
G01X29075Y62528D01*
G01X29214Y62530D01*
G01X29325Y62531D01*
G01X29413Y62529D01*
G01X29479Y62524D01*
G01X29493Y62521D01*
G01X29480Y62518D01*
G01X29459Y62503D01*
G01X29441Y62481D01*
G01X29427Y62455D01*
G01X29422Y62388D01*
G01X29450Y62337D01*
G01X29491Y62318D01*
G01X29483Y62317D01*
G01X29435Y62312D01*
G01X29379Y62308D01*
G01X29315Y62305D01*
G01X29242Y62302D01*
G01X29160Y62301D01*
G01X29068Y62300D01*
G01X28967Y62300D01*
G01X28855Y62301D01*
G01X28733Y62302D01*
G01X28596Y62304D01*
G01X28475Y62305D01*
G01X28370Y62306D01*
G01X28280Y62306D01*
G01X28203Y62306D01*
G01X28140Y62305D01*
G01X28087Y62303D01*
G01X28046Y62300D01*
G01X28015Y62296D01*
G01X27992Y62291D01*
G01X27978Y62285D01*
G01X27971Y62278D01*
G01X27970Y62270D01*
G01X27974Y62260D01*
G01X27983Y62248D01*
G01X27995Y62236D01*
G01X28034Y62191D01*
G01X28046Y62156D01*
G01X28027Y62117D01*
G01X27977Y62060D01*
G01X27927Y62002D01*
G01X27907Y61953D01*
G01X27917Y61892D01*
G01X27953Y61799D01*
G01X27981Y61730D01*
G01X28008Y61662D01*
G01X28030Y61602D01*
G01X28045Y61560D01*
G01X28063Y61527D01*
G01X28095Y61503D01*
G01X28141Y61489D01*
G01X28200Y61484D01*
G01X28268Y61480D01*
G01X28307Y61464D01*
G01X28326Y61430D01*
G01X28331Y61373D01*
G01X28331Y61262D01*
G01X29311Y61271D01*
G01X29457Y61272D01*
G01X29591Y61273D01*
G01X29711Y61273D01*
G01X29820Y61272D01*
G01X29916Y61271D01*
G01X30002Y61269D01*
G01X30077Y61265D01*
G01X30141Y61261D01*
G01X30196Y61256D01*
G01X30242Y61249D01*
G01X30279Y61241D01*
G01X30308Y61231D01*
G01X30330Y61221D01*
G01X30344Y61208D01*
G01X30353Y61194D01*
G01X30355Y61177D01*
G01X30352Y61159D01*
G01X30344Y61139D01*
G01X30331Y61117D01*
G01X30315Y61093D01*
G01X30294Y61064D01*
G01X30283Y61056D01*
G01X30284Y61068D01*
G01X30294Y61102D01*
G01X30292Y61166D01*
G01X30258Y61222D01*
G01X30205Y61254D01*
G01X30151Y61248D01*
G01X30116Y61207D01*
G01X30108Y61156D01*
G01X30125Y61104D01*
G01X30168Y61064D01*
G01X30169Y61061D01*
G01X30160Y61058D01*
G01X30143Y61054D01*
G01X30117Y61052D01*
G01X30082Y61049D01*
G01X30040Y61047D01*
G01X29990Y61045D01*
G01X29932Y61044D01*
G01X29869Y61042D01*
G01X29799Y61041D01*
G01X29724Y61041D01*
G01X29470Y61041D01*
G01X29377Y61042D01*
G01X29280Y61043D01*
G01X29116Y61045D01*
G01X28972Y61047D01*
G01X28846Y61048D01*
G01X28738Y61049D01*
G01X28647Y61049D01*
G01X28570Y61048D01*
G01X28506Y61046D01*
G01X28456Y61043D01*
G01X28415Y61038D01*
G01X28386Y61033D01*
G01X28363Y61026D01*
G01X28348Y61018D01*
G01X28339Y61008D01*
G01X28334Y60996D01*
G01X28331Y60982D01*
G01X28331Y60967D01*
G01X28325Y60924D01*
G01X28305Y60897D01*
G01X28268Y60882D01*
G01X28209Y60878D01*
G01X28142Y60871D01*
G01X28091Y60837D01*
G01X28044Y60764D01*
G01X27987Y60637D01*
G01X27888Y60397D01*
G01X27979Y60300D01*
G01X28070Y60203D01*
G01X27640Y59779D01*
G01X27438Y59969D01*
G01X27259Y59883D01*
G01X27186Y59849D01*
G01X27119Y59822D01*
G01X27066Y59803D01*
G01X27035Y59796D01*
G01X27017Y59784D01*
G01X27003Y59751D01*
G01X26993Y59704D01*
G01X26989Y59645D01*
G01X26985Y59565D01*
G01X26971Y59519D01*
G01X26938Y59498D01*
G01X26881Y59493D01*
G01X26822Y59488D01*
G01X26790Y59464D01*
G01X26776Y59408D01*
G01X26773Y59307D01*
G01X26773Y59121D01*
G01X27995Y59126D01*
G01X28095Y59127D01*
G01X28194Y59127D01*
G01X28291Y59128D01*
G01X28385Y59129D01*
G01X28476Y59131D01*
G01X28564Y59132D01*
G01X28649Y59133D01*
G01X28730Y59135D01*
G01X28807Y59137D01*
G01X28879Y59139D01*
G01X28947Y59141D01*
G01X29010Y59143D01*
G01X29067Y59145D01*
G01X29119Y59147D01*
G01X29164Y59150D01*
G01X29203Y59153D01*
G01X29235Y59155D01*
G01X29260Y59158D01*
G01X29278Y59160D01*
G01X29287Y59163D01*
G01X29320Y59171D01*
G01X29354Y59166D01*
G01X29386Y59147D01*
G01X29417Y59116D01*
G01X29448Y59076D01*
G01X29456Y59061D01*
G01X29442Y59068D01*
G01X29404Y59097D01*
G01X29344Y59128D01*
G01X29291Y59126D01*
G01X29254Y59094D01*
G01X29240Y59035D01*
G01X29261Y58978D01*
G01X29281Y58965D01*
G01X29254Y58964D01*
G01X29216Y58963D01*
G01X29174Y58961D01*
G01X29129Y58959D01*
G01X29082Y58957D01*
G01X29032Y58956D01*
G01X28979Y58954D01*
G01X28923Y58953D01*
G01X28866Y58951D01*
G01X28805Y58950D01*
G01X28743Y58948D01*
G01X28678Y58947D01*
G01X28610Y58945D01*
G01X28541Y58944D01*
G01X28470Y58943D01*
G01X28397Y58942D01*
G01X28322Y58940D01*
G01X28245Y58939D01*
G01X28168Y58938D01*
G01X28088Y58937D01*
G01X28007Y58936D01*
G01X27924Y58935D01*
G01X27840Y58934D01*
G01X27756Y58933D01*
G01X27670Y58932D01*
G01X27583Y58931D01*
G01X27496Y58930D01*
G01X27408Y58930D01*
G01X27318Y58929D01*
G01X27229Y58928D01*
G01X27138Y58927D01*
G01X27048Y58926D01*
G01X26775Y58925D01*
G01X26684Y58924D01*
G01X26502Y58923D01*
G01X26411Y58923D01*
G01X26321Y58923D01*
G01X26231Y58922D01*
G37*

%LPC*%
G36*
G01X23074Y60086D02*
G01X23129Y60056D01*
G01X23194Y60059D01*
G01X23245Y60099D01*
G01X23258Y60147D01*
G01X23241Y60188D01*
G01X23197Y60218D01*
G01X23134Y60229D01*
G01X23098Y60223D01*
G01X23072Y60207D01*
G01X23056Y60180D01*
G01X23051Y60143D01*
G01X23074Y60086D01*
G37*
G36*
G01X24700Y63307D02*
G01X24739Y63302D01*
G01X24776Y63307D01*
G01X24804Y63324D01*
G01X24820Y63351D01*
G01X24825Y63389D01*
G01X24820Y63426D01*
G01X24804Y63454D01*
G01X24776Y63470D01*
G01X24739Y63475D01*
G01X24700Y63470D01*
G01X24674Y63454D01*
G01X24657Y63426D01*
G01X24652Y63389D01*
G01X24657Y63351D01*
G01X24674Y63324D01*
G01X24700Y63307D01*
G37*
G36*
G01X26621Y60274D02*
G01X26670Y60274D01*
G01X26719Y60275D01*
G01X26768Y60280D01*
G01X26817Y60287D01*
G01X26865Y60297D01*
G01X26913Y60309D01*
G01X26960Y60323D01*
G01X27006Y60341D01*
G01X27052Y60361D01*
G01X27097Y60383D01*
G01X27140Y60409D01*
G01X27183Y60437D01*
G01X27224Y60467D01*
G01X27263Y60500D01*
G01X27301Y60535D01*
G01X27338Y60573D01*
G01X27373Y60614D01*
G01X27405Y60657D01*
G01X27436Y60702D01*
G01X27464Y60750D01*
G01X27491Y60803D01*
G01X27514Y60855D01*
G01X27534Y60908D01*
G01X27550Y60962D01*
G01X27562Y61014D01*
G01X27571Y61068D01*
G01X27576Y61121D01*
G01X27578Y61173D01*
G01X27576Y61225D01*
G01X27572Y61276D01*
G01X27565Y61327D01*
G01X27554Y61378D01*
G01X27541Y61427D01*
G01X27524Y61475D01*
G01X27506Y61522D01*
G01X27484Y61568D01*
G01X27460Y61613D01*
G01X27434Y61656D01*
G01X27405Y61699D01*
G01X27374Y61739D01*
G01X27341Y61777D01*
G01X27306Y61814D01*
G01X27268Y61849D01*
G01X27229Y61882D01*
G01X27188Y61913D01*
G01X27145Y61941D01*
G01X27101Y61967D01*
G01X27055Y61991D01*
G01X27007Y62012D01*
G01X26958Y62030D01*
G01X26908Y62046D01*
G01X26856Y62059D01*
G01X26804Y62068D01*
G01X26750Y62075D01*
G01X26695Y62078D01*
G01X26640Y62079D01*
G01X26584Y62075D01*
G01X26527Y62068D01*
G01X26469Y62058D01*
G01X26411Y62044D01*
G01X26359Y62027D01*
G01X26309Y62008D01*
G01X26261Y61985D01*
G01X26214Y61959D01*
G01X26170Y61930D01*
G01X26128Y61899D01*
G01X26088Y61865D01*
G01X26050Y61829D01*
G01X26014Y61790D01*
G01X25981Y61749D01*
G01X25950Y61707D01*
G01X25921Y61663D01*
G01X25895Y61617D01*
G01X25871Y61570D01*
G01X25850Y61522D01*
G01X25831Y61472D01*
G01X25816Y61422D01*
G01X25802Y61370D01*
G01X25792Y61319D01*
G01X25784Y61266D01*
G01X25779Y61213D01*
G01X25777Y61160D01*
G01X25778Y61107D01*
G01X25783Y61054D01*
G01X25790Y61002D01*
G01X25800Y60949D01*
G01X25814Y60898D01*
G01X25831Y60847D01*
G01X25851Y60797D01*
G01X25874Y60748D01*
G01X25901Y60700D01*
G01X25931Y60654D01*
G01X25964Y60610D01*
G01X25999Y60568D01*
G01X26037Y60530D01*
G01X26075Y60494D01*
G01X26115Y60461D01*
G01X26156Y60430D01*
G01X26199Y60403D01*
G01X26242Y60377D01*
G01X26287Y60355D01*
G01X26333Y60336D01*
G01X26380Y60319D01*
G01X26427Y60305D01*
G01X26475Y60293D01*
G01X26523Y60284D01*
G01X26572Y60278D01*
G01X26621Y60274D01*
G37*

%LPD*%
G36*
G01X29416Y58975D02*
G01X29371Y58944D01*
G01X29311Y58946D01*
G01X29281Y58965D01*
G01X29289Y58966D01*
G01X29321Y58968D01*
G01X29350Y58969D01*
G01X29375Y58971D01*
G01X29396Y58973D01*
G01X29414Y58975D01*
G01X29416Y58975D01*
G01X29421Y58978D01*
G01X29439Y59003D01*
G01X29450Y59011D01*
G01X29452Y59005D01*
G01X29448Y58983D01*
G01X29446Y58981D01*
G01X29439Y58979D01*
G01X29428Y58977D01*
G01X29416Y58975D01*
G37*

%LPC*%

%LPD*%
G36*
G01X26405Y60716D02*
G01X26373Y60597D01*
G01X26331Y60705D01*
G01X26311Y60753D01*
G01X26289Y60804D01*
G01X26267Y60851D01*
G01X26249Y60888D01*
G01X26234Y60925D01*
G01X26223Y60970D01*
G01X26215Y61021D01*
G01X26211Y61078D01*
G01X26211Y61139D01*
G01X26213Y61202D01*
G01X26219Y61266D01*
G01X26228Y61329D01*
G01X26240Y61391D01*
G01X26255Y61450D01*
G01X26273Y61504D01*
G01X26293Y61552D01*
G01X26376Y61723D01*
G01X26406Y61603D01*
G01X26424Y61554D01*
G01X26448Y61517D01*
G01X26477Y61493D01*
G01X26509Y61484D01*
G01X26541Y61493D01*
G01X26575Y61519D01*
G01X26604Y61557D01*
G01X26628Y61603D01*
G01X26673Y61723D01*
G01X26706Y61603D01*
G01X26723Y61556D01*
G01X26743Y61521D01*
G01X26766Y61498D01*
G01X26792Y61489D01*
G01X26819Y61492D01*
G01X26849Y61508D01*
G01X26880Y61537D01*
G01X26912Y61579D01*
G01X26949Y61632D01*
G01X26976Y61644D01*
G01X27004Y61611D01*
G01X27047Y61529D01*
G01X27065Y61484D01*
G01X27081Y61430D01*
G01X27094Y61370D01*
G01X27105Y61305D01*
G01X27112Y61238D01*
G01X27117Y61171D01*
G01X27119Y61107D01*
G01X27117Y61047D01*
G01X27111Y60994D01*
G01X27103Y60950D01*
G01X27091Y60918D01*
G01X27076Y60900D01*
G01X27059Y60883D01*
G01X27045Y60857D01*
G01X27036Y60825D01*
G01X27033Y60792D01*
G01X27018Y60719D01*
G01X26985Y60684D01*
G01X26946Y60690D01*
G01X26916Y60744D01*
G01X26899Y60787D01*
G01X26874Y60816D01*
G01X26845Y60831D01*
G01X26813Y60833D01*
G01X26781Y60822D01*
G01X26751Y60799D01*
G01X26725Y60763D01*
G01X26706Y60716D01*
G01X26673Y60597D01*
G01X26628Y60716D01*
G01X26604Y60762D01*
G01X26575Y60800D01*
G01X26541Y60825D01*
G01X26509Y60835D01*
G01X26477Y60826D01*
G01X26448Y60802D01*
G01X26423Y60764D01*
G01X26405Y60716D01*
G37*

%LPC*%
G36*
G01X26394Y61276D02*
G01X26426Y61275D01*
G01X26450Y61284D01*
G01X26465Y61304D01*
G01X26470Y61333D01*
G01X26450Y61375D01*
G01X26404Y61389D01*
G01X26356Y61376D01*
G01X26327Y61333D01*
G01X26330Y61316D01*
G01X26343Y61299D01*
G01X26365Y61285D01*
G01X26394Y61276D01*
G37*

%LPD*%
G36*
G01X23162Y61013D02*
G01X23151Y61008D01*
G01X23089Y61030D01*
G01X23042Y61083D01*
G01X23020Y61150D01*
G01X23033Y61212D01*
G01X23041Y61223D01*
G01X23053Y61232D01*
G01X23068Y61240D01*
G01X23089Y61248D01*
G01X23115Y61254D01*
G01X23117Y61254D01*
G01X23157Y61268D01*
G01X23181Y61262D01*
G01X23148Y61259D01*
G01X23117Y61254D01*
G01X23094Y61246D01*
G01X23064Y61192D01*
G01X23070Y61126D01*
G01X23117Y61067D01*
G01X23144Y61044D01*
G01X23160Y61026D01*
G01X23162Y61013D01*
G37*

%LPC*%

%LPD*%
G36*
G01X29509Y62321D02*
G01X29497Y62316D01*
G01X29491Y62318D01*
G01X29509Y62321D01*
G01X29549Y62338D01*
G01X29574Y62391D01*
G01X29571Y62451D01*
G01X29545Y62502D01*
G01X29509Y62519D01*
G01X29493Y62521D01*
G01X29500Y62523D01*
G01X29509Y62519D01*
G01X29528Y62516D01*
G01X29563Y62504D01*
G01X29587Y62488D01*
G01X29604Y62467D01*
G01X29617Y62445D01*
G01X29626Y62425D01*
G01X29631Y62407D01*
G01X29632Y62390D01*
G01X29629Y62375D01*
G01X29619Y62362D01*
G01X29605Y62350D01*
G01X29584Y62340D01*
G01X29557Y62331D01*
G01X29524Y62323D01*
G01X29509Y62321D01*
G37*

%LPC*%

%LPD*%
G36*
G01X29009Y63693D02*
G01X29022Y63662D01*
G01X28997Y63667D01*
G01X28937Y63713D01*
G01X28903Y63745D01*
G01X28876Y63773D01*
G01X28857Y63795D01*
G01X28850Y63806D01*
G01X28857Y63821D01*
G01X28879Y63816D01*
G01X28912Y63794D01*
G01X28956Y63754D01*
G01X29009Y63693D01*
G37*

%LPC*%

%LPD*%
G36*
G01X85462Y33424D02*
G01X85407Y33423D01*
G01X85352Y33424D01*
G01X85296Y33425D01*
G01X85240Y33428D01*
G01X85184Y33433D01*
G01X85128Y33438D01*
G01X85072Y33444D01*
G01X85015Y33452D01*
G01X84959Y33460D01*
G01X84902Y33470D01*
G01X84846Y33481D01*
G01X84789Y33493D01*
G01X84733Y33507D01*
G01X84676Y33521D01*
G01X84620Y33537D01*
G01X84564Y33553D01*
G01X84508Y33571D01*
G01X84453Y33590D01*
G01X84398Y33610D01*
G01X84343Y33632D01*
G01X84289Y33654D01*
G01X84236Y33677D01*
G01X84182Y33702D01*
G01X84129Y33727D01*
G01X84077Y33754D01*
G01X84025Y33782D01*
G01X83974Y33810D01*
G01X83924Y33840D01*
G01X83875Y33871D01*
G01X83826Y33903D01*
G01X83778Y33936D01*
G01X83732Y33971D01*
G01X83685Y34006D01*
G01X83640Y34042D01*
G01X83596Y34080D01*
G01X83553Y34118D01*
G01X83511Y34157D01*
G01X83470Y34198D01*
G01X83430Y34239D01*
G01X83392Y34282D01*
G01X83354Y34326D01*
G01X83318Y34370D01*
G01X83284Y34415D01*
G01X83250Y34462D01*
G01X83124Y34644D01*
G01X83547Y34641D01*
G01X83971Y34638D01*
G01X84194Y34408D01*
G01X84237Y34365D01*
G01X84280Y34324D01*
G01X84325Y34285D01*
G01X84371Y34247D01*
G01X84417Y34211D01*
G01X84465Y34177D01*
G01X84514Y34145D01*
G01X84564Y34114D01*
G01X84615Y34085D01*
G01X84667Y34058D01*
G01X84721Y34033D01*
G01X84776Y34009D01*
G01X84831Y33987D01*
G01X84889Y33966D01*
G01X84948Y33947D01*
G01X85008Y33930D01*
G01X85070Y33914D01*
G01X85133Y33900D01*
G01X85198Y33887D01*
G01X85264Y33876D01*
G01X85332Y33866D01*
G01X85402Y33858D01*
G01X85474Y33852D01*
G01X85547Y33846D01*
G01X85622Y33843D01*
G01X85696Y33841D01*
G01X85767Y33842D01*
G01X85837Y33846D01*
G01X85904Y33852D01*
G01X85970Y33860D01*
G01X86034Y33870D01*
G01X86096Y33884D01*
G01X86156Y33899D01*
G01X86214Y33917D01*
G01X86271Y33936D01*
G01X86325Y33959D01*
G01X86378Y33984D01*
G01X86430Y34011D01*
G01X86479Y34041D01*
G01X86527Y34073D01*
G01X86573Y34108D01*
G01X86618Y34145D01*
G01X86661Y34185D01*
G01X86702Y34227D01*
G01X86743Y34272D01*
G01X86781Y34319D01*
G01X86818Y34369D01*
G01X86853Y34421D01*
G01X86874Y34444D01*
G01X86883Y34438D01*
G01X86883Y34408D01*
G01X86874Y34360D01*
G01X86858Y34299D01*
G01X86837Y34231D01*
G01X86811Y34162D01*
G01X86781Y34097D01*
G01X86760Y34056D01*
G01X86736Y34017D01*
G01X86711Y33978D01*
G01X86685Y33942D01*
G01X86657Y33905D01*
G01X86627Y33871D01*
G01X86596Y33838D01*
G01X86563Y33807D01*
G01X86529Y33776D01*
G01X86494Y33747D01*
G01X86458Y33720D01*
G01X86420Y33693D01*
G01X86381Y33668D01*
G01X86341Y33643D01*
G01X86299Y33620D01*
G01X86257Y33599D01*
G01X86213Y33579D01*
G01X86168Y33560D01*
G01X86123Y33542D01*
G01X86077Y33526D01*
G01X86029Y33511D01*
G01X85982Y33497D01*
G01X85932Y33484D01*
G01X85882Y33472D01*
G01X85832Y33462D01*
G01X85781Y33453D01*
G01X85729Y33445D01*
G01X85677Y33439D01*
G01X85624Y33433D01*
G01X85570Y33429D01*
G01X85516Y33426D01*
G01X85462Y33424D01*
G37*

%LPC*%

%LPD*%
G36*
G01X78170Y34176D02*
G01X78102Y34172D01*
G01X78033Y34173D01*
G01X77963Y34176D01*
G01X77892Y34184D01*
G01X77822Y34195D01*
G01X77750Y34209D01*
G01X77680Y34228D01*
G01X77610Y34250D01*
G01X77410Y34320D01*
G01X77363Y34490D01*
G01X77344Y34560D01*
G01X77326Y34625D01*
G01X77311Y34678D01*
G01X77302Y34712D01*
G01X77298Y34743D01*
G01X77305Y34764D01*
G01X77324Y34776D01*
G01X77355Y34779D01*
G01X77397Y34771D01*
G01X77450Y34754D01*
G01X77515Y34728D01*
G01X77590Y34692D01*
G01X77662Y34658D01*
G01X77731Y34630D01*
G01X77798Y34609D01*
G01X77861Y34593D01*
G01X77921Y34583D01*
G01X77976Y34579D01*
G01X78029Y34580D01*
G01X78078Y34587D01*
G01X78123Y34600D01*
G01X78163Y34618D01*
G01X78200Y34641D01*
G01X78232Y34670D01*
G01X78258Y34704D01*
G01X78280Y34742D01*
G01X78298Y34785D01*
G01X78309Y34834D01*
G01X78315Y34887D01*
G01X78316Y34944D01*
G01X78311Y35007D01*
G01X78300Y35073D01*
G01X78281Y35145D01*
G01X78255Y35214D01*
G01X78223Y35277D01*
G01X78186Y35335D01*
G01X78144Y35387D01*
G01X78096Y35434D01*
G01X78044Y35475D01*
G01X77987Y35508D01*
G01X77927Y35535D01*
G01X77864Y35555D01*
G01X77798Y35567D01*
G01X77729Y35571D01*
G01X77675Y35567D01*
G01X77617Y35556D01*
G01X77557Y35541D01*
G01X77499Y35520D01*
G01X77445Y35496D01*
G01X77396Y35470D01*
G01X77355Y35441D01*
G01X77325Y35411D01*
G01X77289Y35375D01*
G01X77256Y35355D01*
G01X77224Y35351D01*
G01X77194Y35365D01*
G01X77166Y35395D01*
G01X77139Y35444D01*
G01X77113Y35509D01*
G01X77088Y35592D01*
G01X77065Y35682D01*
G01X77047Y35757D01*
G01X77037Y35810D01*
G01X77036Y35832D01*
G01X77059Y35849D01*
G01X77092Y35866D01*
G01X77133Y35882D01*
G01X77182Y35897D01*
G01X77239Y35912D01*
G01X77300Y35925D01*
G01X77366Y35937D01*
G01X77434Y35948D01*
G01X77505Y35956D01*
G01X77576Y35964D01*
G01X77647Y35969D01*
G01X77716Y35972D01*
G01X77782Y35973D01*
G01X77844Y35971D01*
G01X77901Y35967D01*
G01X77952Y35960D01*
G01X78018Y35946D01*
G01X78084Y35928D01*
G01X78149Y35905D01*
G01X78213Y35879D01*
G01X78275Y35850D01*
G01X78335Y35817D01*
G01X78394Y35780D01*
G01X78450Y35740D01*
G01X78504Y35698D01*
G01X78556Y35652D01*
G01X78604Y35605D01*
G01X78650Y35554D01*
G01X78692Y35502D01*
G01X78730Y35447D01*
G01X78765Y35390D01*
G01X78796Y35332D01*
G01X78817Y35283D01*
G01X78836Y35231D01*
G01X78851Y35175D01*
G01X78864Y35118D01*
G01X78874Y35058D01*
G01X78880Y34998D01*
G01X78884Y34936D01*
G01X78885Y34875D01*
G01X78884Y34815D01*
G01X78879Y34756D01*
G01X78872Y34700D01*
G01X78861Y34646D01*
G01X78848Y34595D01*
G01X78831Y34549D01*
G01X78813Y34507D01*
G01X78791Y34470D01*
G01X78759Y34429D01*
G01X78723Y34391D01*
G01X78682Y34355D01*
G01X78637Y34323D01*
G01X78589Y34293D01*
G01X78537Y34267D01*
G01X78482Y34243D01*
G01X78425Y34223D01*
G01X78364Y34206D01*
G01X78301Y34192D01*
G01X78237Y34182D01*
G01X78170Y34176D01*
G37*

%LPC*%

%LPD*%
G36*
G01X74383Y34179D02*
G01X74321Y34179D01*
G01X74259Y34180D01*
G01X74196Y34184D01*
G01X74134Y34189D01*
G01X74073Y34197D01*
G01X74013Y34207D01*
G01X73955Y34219D01*
G01X73900Y34234D01*
G01X73847Y34250D01*
G01X73648Y34320D01*
G01X73601Y34490D01*
G01X73581Y34560D01*
G01X73563Y34625D01*
G01X73549Y34678D01*
G01X73539Y34712D01*
G01X73535Y34743D01*
G01X73543Y34764D01*
G01X73562Y34776D01*
G01X73593Y34779D01*
G01X73635Y34771D01*
G01X73688Y34754D01*
G01X73752Y34728D01*
G01X73828Y34692D01*
G01X73900Y34658D01*
G01X73969Y34630D01*
G01X74035Y34609D01*
G01X74098Y34593D01*
G01X74158Y34583D01*
G01X74214Y34579D01*
G01X74267Y34580D01*
G01X74316Y34587D01*
G01X74361Y34600D01*
G01X74401Y34618D01*
G01X74437Y34641D01*
G01X74469Y34670D01*
G01X74496Y34704D01*
G01X74518Y34742D01*
G01X74535Y34785D01*
G01X74546Y34834D01*
G01X74553Y34887D01*
G01X74554Y34944D01*
G01X74549Y35007D01*
G01X74537Y35073D01*
G01X74519Y35145D01*
G01X74493Y35214D01*
G01X74461Y35277D01*
G01X74424Y35335D01*
G01X74381Y35387D01*
G01X74334Y35434D01*
G01X74281Y35475D01*
G01X74225Y35508D01*
G01X74165Y35535D01*
G01X74101Y35555D01*
G01X74035Y35567D01*
G01X73967Y35571D01*
G01X73912Y35567D01*
G01X73855Y35556D01*
G01X73795Y35541D01*
G01X73737Y35520D01*
G01X73682Y35496D01*
G01X73634Y35470D01*
G01X73592Y35441D01*
G01X73562Y35411D01*
G01X73500Y35362D01*
G01X73440Y35361D01*
G01X73388Y35404D01*
G01X73351Y35489D01*
G01X73335Y35546D01*
G01X73319Y35608D01*
G01X73302Y35667D01*
G01X73287Y35715D01*
G01X73268Y35784D01*
G01X73277Y35825D01*
G01X73330Y35857D01*
G01X73443Y35898D01*
G01X73494Y35914D01*
G01X73551Y35928D01*
G01X73612Y35941D01*
G01X73678Y35952D01*
G01X73745Y35961D01*
G01X73813Y35967D01*
G01X73883Y35972D01*
G01X73950Y35975D01*
G01X74015Y35975D01*
G01X74077Y35973D01*
G01X74134Y35968D01*
G01X74185Y35961D01*
G01X74242Y35949D01*
G01X74297Y35934D01*
G01X74351Y35918D01*
G01X74403Y35899D01*
G01X74454Y35877D01*
G01X74503Y35854D01*
G01X74551Y35828D01*
G01X74597Y35800D01*
G01X74641Y35770D01*
G01X74684Y35739D01*
G01X74725Y35706D01*
G01X74764Y35671D01*
G01X74802Y35635D01*
G01X74838Y35597D01*
G01X74872Y35558D01*
G01X74904Y35518D01*
G01X74934Y35477D01*
G01X74963Y35436D01*
G01X74989Y35393D01*
G01X75013Y35349D01*
G01X75035Y35305D01*
G01X75055Y35260D01*
G01X75074Y35215D01*
G01X75090Y35169D01*
G01X75103Y35124D01*
G01X75115Y35077D01*
G01X75124Y35032D01*
G01X75131Y34986D01*
G01X75136Y34940D01*
G01X75138Y34895D01*
G01X75138Y34850D01*
G01X75136Y34805D01*
G01X75131Y34761D01*
G01X75124Y34718D01*
G01X75114Y34676D01*
G01X75102Y34634D01*
G01X75087Y34594D01*
G01X75069Y34555D01*
G01X75049Y34517D01*
G01X75027Y34479D01*
G01X75001Y34444D01*
G01X74973Y34410D01*
G01X74942Y34378D01*
G01X74908Y34348D01*
G01X74871Y34319D01*
G01X74831Y34293D01*
G01X74789Y34268D01*
G01X74744Y34245D01*
G01X74703Y34229D01*
G01X74659Y34215D01*
G01X74610Y34204D01*
G01X74557Y34195D01*
G01X74501Y34187D01*
G01X74443Y34182D01*
G01X74383Y34179D01*
G37*

%LPC*%

%LPD*%
G36*
G01X81909Y34183D02*
G01X81832Y34182D01*
G01X81757Y34184D01*
G01X81685Y34189D01*
G01X81615Y34197D01*
G01X81549Y34209D01*
G01X81485Y34223D01*
G01X81423Y34241D01*
G01X81365Y34262D01*
G01X81310Y34285D01*
G01X81258Y34312D01*
G01X81209Y34342D01*
G01X81164Y34374D01*
G01X81122Y34409D01*
G01X81083Y34447D01*
G01X81048Y34488D01*
G01X81016Y34532D01*
G01X80988Y34578D01*
G01X80964Y34627D01*
G01X80944Y34679D01*
G01X80931Y34717D01*
G01X80916Y34766D01*
G01X80900Y34823D01*
G01X80882Y34888D01*
G01X80863Y34960D01*
G01X80844Y35036D01*
G01X80823Y35116D01*
G01X80803Y35199D01*
G01X80783Y35283D01*
G01X80762Y35366D01*
G01X80743Y35448D01*
G01X80725Y35528D01*
G01X80708Y35604D01*
G01X80693Y35674D01*
G01X80679Y35738D01*
G01X80668Y35795D01*
G01X80659Y35842D01*
G01X80653Y35879D01*
G01X80650Y35904D01*
G01X80650Y35917D01*
G01X80659Y35929D01*
G01X80675Y35938D01*
G01X80702Y35946D01*
G01X80741Y35951D01*
G01X80792Y35955D01*
G01X80860Y35958D01*
G01X80944Y35959D01*
G01X81047Y35960D01*
G01X81428Y35960D01*
G01X81463Y35808D01*
G01X81481Y35727D01*
G01X81493Y35663D01*
G01X81497Y35616D01*
G01X81494Y35583D01*
G01X81483Y35561D01*
G01X81463Y35548D01*
G01X81433Y35543D01*
G01X81394Y35541D01*
G01X81354Y35542D01*
G01X81325Y35540D01*
G01X81307Y35530D01*
G01X81300Y35507D01*
G01X81303Y35464D01*
G01X81318Y35397D01*
G01X81341Y35300D01*
G01X81375Y35167D01*
G01X81401Y35069D01*
G01X81424Y34983D01*
G01X81446Y34909D01*
G01X81467Y34846D01*
G01X81488Y34793D01*
G01X81509Y34749D01*
G01X81529Y34713D01*
G01X81552Y34683D01*
G01X81576Y34660D01*
G01X81603Y34641D01*
G01X81632Y34626D01*
G01X81664Y34613D01*
G01X81700Y34602D01*
G01X81734Y34595D01*
G01X81771Y34592D01*
G01X81812Y34592D01*
G01X81861Y34596D01*
G01X81919Y34603D01*
G01X81990Y34616D01*
G01X82077Y34632D01*
G01X82129Y34638D01*
G01X82161Y34622D01*
G01X82185Y34565D01*
G01X82213Y34453D01*
G01X82231Y34374D01*
G01X82241Y34314D01*
G01X82240Y34270D01*
G01X82225Y34239D01*
G01X82196Y34218D01*
G01X82148Y34205D01*
G01X82080Y34196D01*
G01X81989Y34187D01*
G01X81909Y34183D01*
G37*

%LPC*%

%LPD*%
G36*
G01X72988Y34186D02*
G01X72919Y34186D01*
G01X72846Y34188D01*
G01X72771Y34191D01*
G01X72693Y34195D01*
G01X72614Y34200D01*
G01X72534Y34206D01*
G01X72456Y34213D01*
G01X72378Y34222D01*
G01X72302Y34231D01*
G01X72229Y34241D01*
G01X72160Y34252D01*
G01X72095Y34265D01*
G01X72035Y34277D01*
G01X71982Y34291D01*
G01X71935Y34305D01*
G01X71896Y34319D01*
G01X71837Y34349D01*
G01X71782Y34383D01*
G01X71734Y34423D01*
G01X71690Y34465D01*
G01X71652Y34511D01*
G01X71620Y34560D01*
G01X71594Y34611D01*
G01X71574Y34662D01*
G01X71561Y34715D01*
G01X71554Y34768D01*
G01X71555Y34820D01*
G01X71562Y34872D01*
G01X71576Y34921D01*
G01X71598Y34969D01*
G01X71628Y35014D01*
G01X71665Y35055D01*
G01X71748Y35134D01*
G01X71649Y35202D01*
G01X71610Y35233D01*
G01X71576Y35269D01*
G01X71547Y35308D01*
G01X71524Y35350D01*
G01X71506Y35395D01*
G01X71494Y35441D01*
G01X71488Y35489D01*
G01X71489Y35537D01*
G01X71495Y35585D01*
G01X71508Y35633D01*
G01X71527Y35679D01*
G01X71552Y35723D01*
G01X71574Y35753D01*
G01X71598Y35780D01*
G01X71623Y35805D01*
G01X71652Y35827D01*
G01X71684Y35847D01*
G01X71720Y35865D01*
G01X71761Y35881D01*
G01X71806Y35894D01*
G01X71856Y35906D01*
G01X71913Y35917D01*
G01X71976Y35926D01*
G01X72046Y35933D01*
G01X72123Y35939D01*
G01X72209Y35945D01*
G01X72303Y35949D01*
G01X72405Y35953D01*
G01X72896Y35967D01*
G01X73111Y35123D01*
G01X73133Y35037D01*
G01X73154Y34953D01*
G01X73174Y34871D01*
G01X73193Y34792D01*
G01X73211Y34717D01*
G01X73228Y34645D01*
G01X73243Y34578D01*
G01X73258Y34515D01*
G01X73270Y34457D01*
G01X73282Y34405D01*
G01X73291Y34360D01*
G01X73299Y34320D01*
G01X73304Y34288D01*
G01X73308Y34263D01*
G01X73310Y34246D01*
G01X73309Y34237D01*
G01X73299Y34225D01*
G01X73279Y34215D01*
G01X73249Y34207D01*
G01X73211Y34200D01*
G01X73165Y34194D01*
G01X73111Y34190D01*
G01X73052Y34187D01*
G01X72988Y34186D01*
G37*

%LPC*%
G36*
G01X72290Y35305D02*
G01X72350Y35302D01*
G01X72437Y35304D01*
G01X72479Y35321D01*
G01X72488Y35364D01*
G01X72473Y35449D01*
G01X72455Y35544D01*
G01X72273Y35535D01*
G01X72177Y35529D01*
G01X72121Y35517D01*
G01X72094Y35496D01*
G01X72083Y35462D01*
G01X72084Y35428D01*
G01X72095Y35397D01*
G01X72117Y35371D01*
G01X72149Y35347D01*
G01X72188Y35328D01*
G01X72236Y35314D01*
G01X72290Y35305D01*
G37*
G36*
G01X72475Y34616D02*
G01X72549Y34614D01*
G01X72610Y34615D01*
G01X72654Y34621D01*
G01X72670Y34631D01*
G01X72667Y34648D01*
G01X72660Y34682D01*
G01X72650Y34727D01*
G01X72637Y34780D01*
G01X72603Y34913D01*
G01X72402Y34913D01*
G01X72308Y34911D01*
G01X72237Y34903D01*
G01X72187Y34888D01*
G01X72155Y34868D01*
G01X72128Y34816D01*
G01X72133Y34756D01*
G01X72168Y34698D01*
G01X72228Y34652D01*
G01X72268Y34640D01*
G01X72327Y34629D01*
G01X72399Y34621D01*
G01X72475Y34616D01*
G37*

%LPD*%
G36*
G01X76805Y34196D02*
G01X76554Y34196D01*
G01X76523Y34305D01*
G01X76509Y34360D01*
G01X76492Y34429D01*
G01X76475Y34501D01*
G01X76459Y34570D01*
G01X76425Y34725D01*
G01X76180Y34745D01*
G01X76102Y34752D01*
G01X76028Y34761D01*
G01X75957Y34772D01*
G01X75890Y34785D01*
G01X75825Y34801D01*
G01X75764Y34818D01*
G01X75705Y34838D01*
G01X75650Y34859D01*
G01X75598Y34882D01*
G01X75550Y34907D01*
G01X75504Y34935D01*
G01X75462Y34964D01*
G01X75423Y34995D01*
G01X75388Y35028D01*
G01X75356Y35063D01*
G01X75327Y35100D01*
G01X75301Y35139D01*
G01X75279Y35180D01*
G01X75260Y35222D01*
G01X75245Y35266D01*
G01X75233Y35313D01*
G01X75224Y35361D01*
G01X75219Y35411D01*
G01X75218Y35462D01*
G01X75221Y35552D01*
G01X75233Y35617D01*
G01X75261Y35672D01*
G01X75307Y35731D01*
G01X75334Y35762D01*
G01X75362Y35790D01*
G01X75391Y35814D01*
G01X75422Y35836D01*
G01X75454Y35855D01*
G01X75489Y35872D01*
G01X75528Y35887D01*
G01X75572Y35900D01*
G01X75620Y35911D01*
G01X75674Y35921D01*
G01X75734Y35928D01*
G01X75802Y35935D01*
G01X75877Y35941D01*
G01X75960Y35946D01*
G01X76053Y35949D01*
G01X76156Y35953D01*
G01X76664Y35968D01*
G01X76692Y35867D01*
G01X76710Y35798D01*
G01X76729Y35726D01*
G01X76749Y35653D01*
G01X76768Y35579D01*
G01X76787Y35503D01*
G01X76807Y35427D01*
G01X76845Y35273D01*
G01X76864Y35197D01*
G01X76883Y35122D01*
G01X76901Y35046D01*
G01X76919Y34973D01*
G01X76936Y34901D01*
G01X76953Y34831D01*
G01X76969Y34763D01*
G01X76984Y34698D01*
G01X76998Y34635D01*
G01X77011Y34577D01*
G01X77023Y34521D01*
G01X77035Y34470D01*
G01X77044Y34423D01*
G01X77053Y34381D01*
G01X77061Y34343D01*
G01X77066Y34311D01*
G01X77071Y34285D01*
G01X77073Y34265D01*
G01X77075Y34250D01*
G01X77074Y34243D01*
G01X77054Y34219D01*
G01X77010Y34205D01*
G01X76930Y34198D01*
G01X76805Y34196D01*
G37*

%LPC*%
G36*
G01X76160Y35149D02*
G01X76210Y35148D01*
G01X76252Y35153D01*
G01X76283Y35163D01*
G01X76301Y35181D01*
G01X76302Y35205D01*
G01X76293Y35236D01*
G01X76281Y35284D01*
G01X76267Y35340D01*
G01X76252Y35399D01*
G01X76218Y35541D01*
G01X76049Y35541D01*
G01X75981Y35538D01*
G01X75920Y35531D01*
G01X75872Y35519D01*
G01X75845Y35505D01*
G01X75821Y35461D01*
G01X75811Y35401D01*
G01X75817Y35335D01*
G01X75839Y35273D01*
G01X75862Y35246D01*
G01X75897Y35221D01*
G01X75942Y35198D01*
G01X75993Y35180D01*
G01X76049Y35165D01*
G01X76106Y35154D01*
G01X76160Y35149D01*
G37*

%LPD*%
G36*
G01X79908Y34196D02*
G01X79249Y34196D01*
G01X79215Y34320D01*
G01X79202Y34375D01*
G01X79191Y34431D01*
G01X79182Y34483D01*
G01X79177Y34522D01*
G01X79172Y34599D01*
G01X79577Y34608D01*
G01X79982Y34616D01*
G01X79820Y35247D01*
G01X79798Y35332D01*
G01X79777Y35415D01*
G01X79758Y35494D01*
G01X79740Y35570D01*
G01X79724Y35640D01*
G01X79710Y35704D01*
G01X79698Y35761D01*
G01X79687Y35811D01*
G01X79680Y35853D01*
G01X79675Y35885D01*
G01X79673Y35907D01*
G01X79673Y35918D01*
G01X79702Y35937D01*
G01X79763Y35951D01*
G01X79847Y35959D01*
G01X79942Y35962D01*
G01X80037Y35960D01*
G01X80120Y35953D01*
G01X80181Y35941D01*
G01X80209Y35922D01*
G01X80220Y35888D01*
G01X80234Y35846D01*
G01X80248Y35796D01*
G01X80280Y35678D01*
G01X80297Y35612D01*
G01X80315Y35541D01*
G01X80334Y35467D01*
G01X80353Y35389D01*
G01X80373Y35309D01*
G01X80393Y35227D01*
G01X80412Y35144D01*
G01X80432Y35061D01*
G01X80451Y34978D01*
G01X80470Y34897D01*
G01X80488Y34816D01*
G01X80505Y34739D01*
G01X80522Y34664D01*
G01X80537Y34593D01*
G01X80551Y34526D01*
G01X80564Y34464D01*
G01X80575Y34408D01*
G01X80585Y34358D01*
G01X80592Y34315D01*
G01X80597Y34280D01*
G01X80601Y34254D01*
G01X80602Y34236D01*
G01X80600Y34229D01*
G01X80590Y34223D01*
G01X80572Y34218D01*
G01X80544Y34214D01*
G01X80509Y34210D01*
G01X80464Y34207D01*
G01X80411Y34204D01*
G01X80349Y34201D01*
G01X80278Y34199D01*
G01X80198Y34198D01*
G01X80111Y34197D01*
G01X80014Y34196D01*
G01X79908Y34196D01*
G37*

%LPC*%

%LPD*%
G36*
G01X85446Y34558D02*
G01X85377Y34557D01*
G01X85308Y34560D01*
G01X85238Y34566D01*
G01X85169Y34577D01*
G01X85102Y34591D01*
G01X85037Y34609D01*
G01X84976Y34630D01*
G01X84919Y34655D01*
G01X84868Y34684D01*
G01X84823Y34715D01*
G01X84786Y34749D01*
G01X84758Y34783D01*
G01X84747Y34807D01*
G01X84751Y34821D01*
G01X84770Y34826D01*
G01X84802Y34821D01*
G01X84848Y34807D01*
G01X84907Y34782D01*
G01X84976Y34749D01*
G01X85022Y34728D01*
G01X85072Y34711D01*
G01X85127Y34697D01*
G01X85184Y34686D01*
G01X85243Y34678D01*
G01X85304Y34674D01*
G01X85364Y34672D01*
G01X85423Y34674D01*
G01X85481Y34680D01*
G01X85535Y34688D01*
G01X85584Y34700D01*
G01X85629Y34716D01*
G01X85676Y34740D01*
G01X85715Y34768D01*
G01X85748Y34799D01*
G01X85776Y34834D01*
G01X85797Y34872D01*
G01X85812Y34913D01*
G01X85821Y34955D01*
G01X85825Y35000D01*
G01X85824Y35046D01*
G01X85817Y35092D01*
G01X85805Y35139D01*
G01X85789Y35186D01*
G01X85767Y35232D01*
G01X85742Y35278D01*
G01X85712Y35322D01*
G01X85678Y35364D01*
G01X85640Y35404D01*
G01X85598Y35441D01*
G01X85553Y35475D01*
G01X85504Y35505D01*
G01X85452Y35531D01*
G01X85397Y35553D01*
G01X85339Y35570D01*
G01X85279Y35581D01*
G01X85216Y35587D01*
G01X85157Y35587D01*
G01X85100Y35583D01*
G01X85048Y35573D01*
G01X85000Y35560D01*
G01X84956Y35541D01*
G01X84916Y35519D01*
G01X84882Y35494D01*
G01X84852Y35466D01*
G01X84827Y35434D01*
G01X84808Y35400D01*
G01X84794Y35364D01*
G01X84787Y35327D01*
G01X84785Y35288D01*
G01X84790Y35247D01*
G01X84801Y35206D01*
G01X84819Y35165D01*
G01X84844Y35123D01*
G01X84877Y35082D01*
G01X84916Y35041D01*
G01X84977Y34988D01*
G01X85023Y34954D01*
G01X85056Y34940D01*
G01X85074Y34947D01*
G01X85077Y34975D01*
G01X85068Y35024D01*
G01X85044Y35093D01*
G01X85007Y35185D01*
G01X84967Y35280D01*
G01X84938Y35349D01*
G01X84920Y35397D01*
G01X84914Y35427D01*
G01X84918Y35444D01*
G01X84933Y35451D01*
G01X84958Y35452D01*
G01X84993Y35451D01*
G01X85028Y35449D01*
G01X85056Y35443D01*
G01X85075Y35433D01*
G01X85082Y35420D01*
G01X85086Y35409D01*
G01X85096Y35405D01*
G01X85114Y35409D01*
G01X85140Y35420D01*
G01X85182Y35439D01*
G01X85228Y35447D01*
G01X85274Y35448D01*
G01X85321Y35441D01*
G01X85368Y35427D01*
G01X85415Y35408D01*
G01X85461Y35382D01*
G01X85505Y35352D01*
G01X85546Y35318D01*
G01X85584Y35280D01*
G01X85618Y35240D01*
G01X85648Y35198D01*
G01X85673Y35155D01*
G01X85692Y35110D01*
G01X85705Y35067D01*
G01X85710Y35024D01*
G01X85709Y34982D01*
G01X85699Y34942D01*
G01X85679Y34906D01*
G01X85650Y34873D01*
G01X85580Y34839D01*
G01X85484Y34825D01*
G01X85389Y34831D01*
G01X85325Y34859D01*
G01X85308Y34875D01*
G01X85297Y34880D01*
G01X85292Y34875D01*
G01X85290Y34859D01*
G01X85280Y34843D01*
G01X85254Y34832D01*
G01X85214Y34825D01*
G01X85167Y34824D01*
G01X85114Y34827D01*
G01X85062Y34836D01*
G01X85012Y34848D01*
G01X84970Y34866D01*
G01X84921Y34895D01*
G01X84876Y34927D01*
G01X84835Y34963D01*
G01X84798Y35000D01*
G01X84766Y35041D01*
G01X84738Y35083D01*
G01X84715Y35126D01*
G01X84696Y35171D01*
G01X84682Y35216D01*
G01X84673Y35261D01*
G01X84668Y35306D01*
G01X84668Y35350D01*
G01X84673Y35394D01*
G01X84683Y35436D01*
G01X84698Y35476D01*
G01X84718Y35513D01*
G01X84743Y35548D01*
G01X84774Y35580D01*
G01X84809Y35609D01*
G01X84850Y35633D01*
G01X84892Y35651D01*
G01X84939Y35666D01*
G01X84991Y35678D01*
G01X85046Y35685D01*
G01X85105Y35690D01*
G01X85164Y35692D01*
G01X85224Y35690D01*
G01X85284Y35684D01*
G01X85342Y35675D01*
G01X85397Y35663D01*
G01X85450Y35647D01*
G01X85497Y35629D01*
G01X85555Y35600D01*
G01X85609Y35568D01*
G01X85659Y35533D01*
G01X85706Y35494D01*
G01X85749Y35454D01*
G01X85787Y35412D01*
G01X85823Y35368D01*
G01X85853Y35322D01*
G01X85879Y35276D01*
G01X85902Y35228D01*
G01X85920Y35180D01*
G01X85934Y35131D01*
G01X85943Y35082D01*
G01X85948Y35034D01*
G01X85949Y34986D01*
G01X85944Y34939D01*
G01X85935Y34894D01*
G01X85921Y34849D01*
G01X85903Y34807D01*
G01X85879Y34767D01*
G01X85850Y34728D01*
G01X85817Y34693D01*
G01X85778Y34661D01*
G01X85734Y34631D01*
G01X85687Y34608D01*
G01X85633Y34589D01*
G01X85574Y34574D01*
G01X85512Y34564D01*
G01X85446Y34558D01*
G37*

%LPC*%
G36*
G01X85385Y34932D02*
G01X85427Y34923D01*
G01X85468Y34929D01*
G01X85501Y34947D01*
G01X85520Y34976D01*
G01X85528Y35014D01*
G01X85526Y35058D01*
G01X85514Y35105D01*
G01X85494Y35155D01*
G01X85466Y35203D01*
G01X85432Y35249D01*
G01X85394Y35290D01*
G01X85351Y35324D01*
G01X85306Y35348D01*
G01X85259Y35360D01*
G01X85250Y35358D01*
G01X85237Y35351D01*
G01X85222Y35340D01*
G01X85207Y35326D01*
G01X85184Y35292D01*
G01X85174Y35252D01*
G01X85175Y35206D01*
G01X85186Y35158D01*
G01X85206Y35110D01*
G01X85233Y35063D01*
G01X85265Y35020D01*
G01X85302Y34982D01*
G01X85342Y34952D01*
G01X85385Y34932D01*
G37*

%LPD*%
G36*
G01X86563Y34715D02*
G01X86499Y34710D01*
G01X86433Y34714D01*
G01X86368Y34727D01*
G01X86306Y34748D01*
G01X86247Y34777D01*
G01X86194Y34814D01*
G01X86148Y34859D01*
G01X86110Y34912D01*
G01X86099Y34934D01*
G01X86087Y34968D01*
G01X86073Y35012D01*
G01X86058Y35064D01*
G01X86041Y35123D01*
G01X86025Y35187D01*
G01X86008Y35254D01*
G01X85992Y35324D01*
G01X85976Y35394D01*
G01X85962Y35463D01*
G01X85948Y35531D01*
G01X85936Y35593D01*
G01X85926Y35650D01*
G01X85919Y35700D01*
G01X85914Y35742D01*
G01X85912Y35773D01*
G01X85916Y35808D01*
G01X85934Y35829D01*
G01X85973Y35838D01*
G01X86041Y35840D01*
G01X86171Y35840D01*
G01X86238Y35489D01*
G01X86259Y35380D01*
G01X86278Y35287D01*
G01X86296Y35207D01*
G01X86313Y35140D01*
G01X86329Y35086D01*
G01X86345Y35041D01*
G01X86362Y35007D01*
G01X86379Y34981D01*
G01X86397Y34963D01*
G01X86417Y34951D01*
G01X86439Y34945D01*
G01X86464Y34943D01*
G01X86499Y34947D01*
G01X86536Y34957D01*
G01X86569Y34972D01*
G01X86596Y34990D01*
G01X86627Y35014D01*
G01X86656Y35021D01*
G01X86696Y35010D01*
G01X86757Y34980D01*
G01X86868Y34923D01*
G01X86781Y34825D01*
G01X86736Y34784D01*
G01X86684Y34751D01*
G01X86625Y34728D01*
G01X86563Y34715D01*
G37*

%LPC*%

%LPD*%
G36*
G01X83302Y34721D02*
G01X83233Y34716D01*
G01X83162Y34718D01*
G01X83091Y34727D01*
G01X83021Y34743D01*
G01X82953Y34767D01*
G01X82889Y34798D01*
G01X82813Y34844D01*
G01X82781Y34877D01*
G01X82789Y34912D01*
G01X82830Y34967D01*
G01X82864Y35004D01*
G01X82892Y35019D01*
G01X82925Y35014D01*
G01X82976Y34990D01*
G01X83042Y34961D01*
G01X83105Y34944D01*
G01X83163Y34939D01*
G01X83217Y34945D01*
G01X83264Y34961D01*
G01X83305Y34987D01*
G01X83338Y35022D01*
G01X83363Y35065D01*
G01X83379Y35117D01*
G01X83386Y35174D01*
G01X83381Y35239D01*
G01X83365Y35310D01*
G01X83345Y35369D01*
G01X83319Y35422D01*
G01X83288Y35470D01*
G01X83254Y35512D01*
G01X83215Y35547D01*
G01X83174Y35576D01*
G01X83131Y35597D01*
G01X83086Y35611D01*
G01X83040Y35618D01*
G01X82992Y35616D01*
G01X82945Y35607D01*
G01X82897Y35588D01*
G01X82836Y35561D01*
G01X82795Y35554D01*
G01X82761Y35571D01*
G01X82716Y35614D01*
G01X82640Y35691D01*
G01X82705Y35757D01*
G01X82735Y35781D01*
G01X82772Y35801D01*
G01X82814Y35818D01*
G01X82861Y35829D01*
G01X82912Y35836D01*
G01X82966Y35839D01*
G01X83022Y35837D01*
G01X83079Y35832D01*
G01X83136Y35821D01*
G01X83193Y35806D01*
G01X83247Y35788D01*
G01X83299Y35764D01*
G01X83357Y35731D01*
G01X83410Y35692D01*
G01X83459Y35648D01*
G01X83503Y35600D01*
G01X83543Y35549D01*
G01X83577Y35494D01*
G01X83606Y35436D01*
G01X83630Y35377D01*
G01X83648Y35315D01*
G01X83660Y35253D01*
G01X83667Y35190D01*
G01X83667Y35127D01*
G01X83661Y35065D01*
G01X83649Y35004D01*
G01X83630Y34944D01*
G01X83603Y34887D01*
G01X83574Y34844D01*
G01X83534Y34808D01*
G01X83485Y34777D01*
G01X83430Y34752D01*
G01X83368Y34733D01*
G01X83302Y34721D01*
G37*

%LPC*%

%LPD*%
G36*
G01X84305Y34729D02*
G01X84214Y34727D01*
G01X84122Y34727D01*
G01X84034Y34731D01*
G01X83957Y34739D01*
G01X83893Y34750D01*
G01X83847Y34763D01*
G01X83827Y34781D01*
G01X83810Y34828D01*
G01X83803Y34866D01*
G01X83806Y34894D01*
G01X83822Y34914D01*
G01X83852Y34929D01*
G01X83897Y34939D01*
G01X83959Y34945D01*
G01X84040Y34949D01*
G01X84271Y34958D01*
G01X84191Y35377D01*
G01X84175Y35461D01*
G01X84160Y35541D01*
G01X84148Y35614D01*
G01X84138Y35678D01*
G01X84130Y35733D01*
G01X84125Y35775D01*
G01X84123Y35804D01*
G01X84124Y35818D01*
G01X84173Y35837D01*
G01X84258Y35840D01*
G01X84342Y35828D01*
G01X84385Y35803D01*
G01X84392Y35780D01*
G01X84401Y35740D01*
G01X84412Y35687D01*
G01X84426Y35621D01*
G01X84441Y35546D01*
G01X84458Y35463D01*
G01X84474Y35377D01*
G01X84508Y35199D01*
G01X84524Y35113D01*
G01X84539Y35033D01*
G01X84552Y34959D01*
G01X84563Y34896D01*
G01X84571Y34844D01*
G01X84577Y34808D01*
G01X84579Y34788D01*
G01X84565Y34771D01*
G01X84525Y34756D01*
G01X84465Y34744D01*
G01X84390Y34735D01*
G01X84305Y34729D01*
G37*

%LPC*%

%LPD*%
G36*
G01X84052Y36092D02*
G01X83884Y35928D01*
G01X83468Y35936D01*
G01X83053Y35945D01*
G01X83224Y36127D01*
G01X83265Y36169D01*
G01X83307Y36209D01*
G01X83352Y36248D01*
G01X83398Y36284D01*
G01X83446Y36319D01*
G01X83494Y36352D01*
G01X83545Y36383D01*
G01X83597Y36412D01*
G01X83650Y36440D01*
G01X83705Y36465D01*
G01X83760Y36489D01*
G01X83817Y36510D01*
G01X83875Y36530D01*
G01X83934Y36547D01*
G01X83994Y36563D01*
G01X84055Y36577D01*
G01X84116Y36588D01*
G01X84179Y36597D01*
G01X84242Y36604D01*
G01X84306Y36610D01*
G01X84371Y36613D01*
G01X84436Y36614D01*
G01X84501Y36613D01*
G01X84567Y36610D01*
G01X84634Y36604D01*
G01X84701Y36597D01*
G01X84768Y36587D01*
G01X84836Y36576D01*
G01X84885Y36565D01*
G01X84939Y36552D01*
G01X84999Y36536D01*
G01X85062Y36519D01*
G01X85128Y36499D01*
G01X85196Y36478D01*
G01X85265Y36456D01*
G01X85334Y36433D01*
G01X85403Y36409D01*
G01X85470Y36386D01*
G01X85534Y36362D01*
G01X85595Y36339D01*
G01X85651Y36317D01*
G01X85702Y36296D01*
G01X85747Y36277D01*
G01X85785Y36259D01*
G01X85814Y36243D01*
G01X85835Y36230D01*
G01X85846Y36219D01*
G01X85846Y36212D01*
G01X85822Y36215D01*
G01X85762Y36229D01*
G01X85675Y36250D01*
G01X85571Y36278D01*
G01X85500Y36298D01*
G01X85431Y36314D01*
G01X85362Y36329D01*
G01X85294Y36342D01*
G01X85228Y36354D01*
G01X85162Y36363D01*
G01X85098Y36370D01*
G01X85034Y36376D01*
G01X84972Y36379D01*
G01X84911Y36381D01*
G01X84851Y36381D01*
G01X84792Y36379D01*
G01X84735Y36375D01*
G01X84679Y36369D01*
G01X84625Y36361D01*
G01X84571Y36351D01*
G01X84520Y36340D01*
G01X84469Y36327D01*
G01X84420Y36312D01*
G01X84373Y36295D01*
G01X84327Y36276D01*
G01X84283Y36255D01*
G01X84240Y36233D01*
G01X84199Y36208D01*
G01X84159Y36182D01*
G01X84122Y36154D01*
G01X84086Y36124D01*
G01X84052Y36092D01*
G37*

%LPC*%

%LPD*%
G54D24*
G01X43434Y59182D02*
G01X43180Y59182D01*
G01X40386Y56896D01*
G01X39624Y56388D01*
G01X37084Y54610D01*
G01X36576Y47498D01*
G01X36830Y42672D01*
G01X36830Y35814D01*
G01X51054Y26162D01*
G01X58420Y30988D01*
G01X61976Y33528D01*
G01X64770Y35306D01*
G01X65024Y37592D01*
G01X65024Y43434D01*
G01X65278Y54610D01*
G01X62484Y56388D01*
G01X50800Y63754D01*
G01X43180Y59182D01*
G54D25*
G01X24638Y53848D02*
G01X26670Y52832D01*
G01X28702Y52070D01*
G01X29972Y51562D01*
G01X32258Y50800D01*
G01X36576Y49784D01*
G54D26*
G01X24892Y53848D02*
G01X22352Y54864D01*
G01X18034Y57150D01*
G54D27*
G01X19558Y56388D02*
G01X17221Y57556D01*
G01X14759Y59471D01*
G01X14732Y59436D01*
G54D24*
G01X14732Y59436D02*
G01X13716Y57404D01*
G01X7620Y45466D01*
G01X3302Y33274D01*
G01X1270Y21082D01*
G54D28*
G01X2032Y30480D02*
G01X1016Y25908D01*
G01X1270Y27178D02*
G01X1270Y25908D01*
G01X762Y25400D01*
G01X762Y24638D01*
G01X1016Y24892D02*
G01X1016Y23114D01*
G01X762Y22860D01*
G01X1016Y28448D02*
G01X1016Y26416D01*
G01X508Y25908D01*
G01X762Y27432D02*
G01X762Y26924D01*
G01X508Y26670D01*
G01X1270Y24638D02*
G01X1270Y24130D01*
G01X762Y23622D01*
G01X762Y24638D01*
G01X1270Y25146D01*
G01X1270Y23876D01*
G01X1524Y21590D02*
G01X1524Y19304D01*
G01X1016Y18796D01*
G01X1016Y21336D01*
G01X1270Y20320D02*
G01X1270Y18034D01*
G01X1016Y17780D01*
G01X1016Y19812D01*
G01X1270Y20066D01*
G01X1270Y17780D02*
G01X1270Y16764D01*
G01X3048Y33782D02*
G01X1778Y30988D01*
G01X508Y27686D01*
G01X2286Y24130D02*
G01X2032Y22352D01*
G01X2032Y21082D01*
G01X1778Y19050D01*
G01X1270Y16764D01*
G54D25*
G01X65786Y49530D02*
G01X71374Y51308D01*
G01X75692Y53086D01*
G01X80010Y55118D01*
G54D26*
G01X75692Y53086D02*
G01X80010Y55118D01*
G01X82804Y56642D01*
G54D27*
G01X82804Y56642D02*
G01X84582Y57658D01*
G01X87122Y59182D01*
G54D24*
G01X87376Y59436D02*
G01X87884Y58166D01*
G01X90424Y53594D01*
G01X92456Y49022D01*
G01X96266Y39878D01*
G01X99060Y31750D01*
G01X100584Y23876D01*
G54D28*
G01X100076Y24892D02*
G01X100076Y23876D01*
G01X100076Y22606D01*
G01X100838Y19050D01*
G01X100584Y24384D02*
G01X100584Y21082D01*
G01X100838Y20828D01*
G01X100838Y23368D02*
G01X100838Y22606D01*
G01X100584Y22860D01*
G01X100584Y23368D02*
G01X100584Y20574D01*
G01X100838Y20320D01*
G01X100838Y22352D01*
G01X100584Y27940D02*
G01X100584Y25908D01*
G01X100838Y25654D01*
G01X100838Y26924D01*
G01X100076Y30480D02*
G01X100838Y27940D01*
G01X101092Y27178D01*
G54D26*
G01X65278Y43942D02*
G01X65278Y44196D01*
G01X86614Y44196D01*
G54D27*
G01X86614Y44196D02*
G01X87122Y43434D01*
G01X89662Y38354D01*
G54D29*
G01X88646Y40386D02*
G01X90170Y37338D01*
G01X91948Y33020D01*
G54D30*
G01X90678Y36068D02*
G01X92456Y31242D01*
G01X94234Y26924D01*
G54D31*
G01X93726Y28194D02*
G01X95758Y22352D01*
G01X97536Y14986D01*
G54D32*
G01X96012Y20574D02*
G01X98298Y12446D01*
G01X98552Y7620D01*
G54D28*
G01X98552Y9144D02*
G01X99060Y5588D01*
G01X98044Y6858D02*
G01X98044Y3556D01*
G01X98298Y3302D01*
G01X98298Y4572D01*
G01X98806Y5080D01*
G01X98044Y4064D02*
G01X98044Y4064D01*
G01X98552Y4572D01*
G01X98044Y5334D02*
G01X98044Y3810D01*
G01X98552Y4318D01*
G01X98552Y5588D01*
G01X99314Y6350D01*
G01X99314Y8128D01*
G01X100076Y8890D01*
G01X99568Y8890D01*
G01X96774Y12954D02*
G01X97282Y9144D01*
G01X97536Y5842D01*
G01X98044Y3048D01*
G01X97790Y762D01*
G01X99314Y14224D02*
G01X99822Y12192D01*
G01X100330Y9398D01*
G01X100330Y20828D02*
G01X100584Y17526D01*
G01X100584Y14478D01*
G01X100584Y11176D01*
G54D26*
G01X36322Y44196D02*
G01X18796Y44450D01*
G01X15494Y44196D01*
G54D27*
G01X15494Y44450D02*
G01X14478Y42672D01*
G01X12954Y39878D01*
G54D33*
G01X13462Y40894D02*
G01X11684Y37084D01*
G01X10414Y34036D01*
G54D34*
G01X11430Y36576D02*
G01X9398Y31496D01*
G01X8128Y27940D01*
G54D35*
G01X8890Y30480D02*
G01X7112Y25400D01*
G01X5842Y21336D01*
G54D30*
G01X6604Y23368D02*
G01X4826Y16510D01*
G01X3556Y11430D01*
G54D36*
G01X3810Y12446D02*
G01X3048Y8128D01*
G01X3302Y4064D01*
G54D24*
G01X1778Y22606D02*
G01X2286Y10160D01*
G01X3048Y5588D01*
G54D28*
G01X40132Y57150D02*
G01X38354Y58420D01*
G01X34290Y61214D01*
G01X61468Y57404D02*
G01X63754Y58420D01*
G01X67564Y61214D01*
G01X37592Y34798D02*
G01X33782Y33528D01*
G01X30226Y32512D01*
G01X64516Y35052D02*
G01X67056Y33782D01*
G01X71882Y32512D01*
G54D37*
G01X42418Y41402D02*
G01X59436Y41402D01*
G54D24*
G01X98298Y6604D02*
G01X98044Y2286D01*
G01X98044Y1524D01*
G01X98079Y1704D01*
G01X98044Y3302D01*
G54D23*
G01X57670Y65024D02*
G01X57670Y63934D01*
G01X57670Y63934D02*
G01X57048Y63934D01*
G01X56705Y65024D02*
G01X56705Y63934D01*
G01X56705Y65024D02*
G01X56029Y65024D01*
G01X56705Y64505D02*
G01X56288Y64505D01*
G01X56705Y63934D02*
G01X56029Y63934D01*
G01X55686Y65024D02*
G01X55686Y63934D01*
G01X55686Y65024D02*
G01X55321Y65024D01*
G01X55166Y64973D01*
G01X55062Y64869D01*
G01X55011Y64764D01*
G01X54957Y64609D01*
G01X54957Y64350D01*
G01X55011Y64193D01*
G01X55062Y64089D01*
G01X55166Y63985D01*
G01X55321Y63934D01*
G01X55686Y63934D01*
G01X54615Y64818D02*
G01X54510Y64869D01*
G01X54355Y65024D01*
G01X54355Y63934D01*
G01X57884Y25908D02*
G01X57884Y24818D01*
G01X57884Y24818D02*
G01X57261Y24818D01*
G01X56918Y25908D02*
G01X56918Y24818D01*
G01X56918Y25908D02*
G01X56243Y25908D01*
G01X56918Y25389D02*
G01X56502Y25389D01*
G01X56918Y24818D02*
G01X56243Y24818D01*
G01X55900Y25908D02*
G01X55900Y24818D01*
G01X55900Y25908D02*
G01X55534Y25908D01*
G01X55379Y25857D01*
G01X55275Y25753D01*
G01X55224Y25648D01*
G01X55171Y25493D01*
G01X55171Y25234D01*
G01X55224Y25077D01*
G01X55275Y24973D01*
G01X55379Y24869D01*
G01X55534Y24818D01*
G01X55900Y24818D01*
G01X54777Y25648D02*
G01X54777Y25702D01*
G01X54724Y25806D01*
G01X54673Y25857D01*
G01X54569Y25908D01*
G01X54361Y25908D01*
G01X54256Y25857D01*
G01X54206Y25806D01*
G01X54152Y25702D01*
G01X54152Y25598D01*
G01X54206Y25493D01*
G01X54310Y25336D01*
G01X54828Y24818D01*
G01X54102Y24818D01*
G01X82776Y50546D02*
G01X82776Y49456D01*
G01X82776Y49456D02*
G01X82153Y49456D01*
G01X81810Y50546D02*
G01X81810Y49456D01*
G01X81810Y50546D02*
G01X81135Y50546D01*
G01X81810Y50027D02*
G01X81394Y50027D01*
G01X81810Y49456D02*
G01X81135Y49456D01*
G01X80792Y50546D02*
G01X80792Y49456D01*
G01X80792Y50546D02*
G01X80426Y50546D01*
G01X80271Y50495D01*
G01X80167Y50391D01*
G01X80116Y50286D01*
G01X80063Y50131D01*
G01X80063Y49872D01*
G01X80116Y49715D01*
G01X80167Y49611D01*
G01X80271Y49507D01*
G01X80426Y49456D01*
G01X80792Y49456D01*
G01X79616Y50546D02*
G01X79044Y50546D01*
G01X79357Y50131D01*
G01X79202Y50131D01*
G01X79098Y50078D01*
G01X79044Y50027D01*
G01X78994Y49872D01*
G01X78994Y49768D01*
G01X79044Y49611D01*
G01X79148Y49507D01*
G01X79306Y49456D01*
G01X79461Y49456D01*
G01X79616Y49507D01*
G01X79669Y49560D01*
G01X79720Y49664D01*

%LPD*%
G36*
G01X61945Y42404D02*
G01X61815Y42402D01*
G01X61686Y42404D01*
G01X61555Y42409D01*
G01X61423Y42419D01*
G01X61289Y42432D01*
G01X61154Y42448D01*
G01X61018Y42468D01*
G01X60880Y42492D01*
G01X60741Y42519D01*
G01X60571Y43319D01*
G01X62395Y43319D01*
G01X62336Y43583D01*
G01X62200Y43605D01*
G01X62067Y43623D01*
G01X61939Y43637D01*
G01X61814Y43646D01*
G01X61695Y43652D01*
G01X61579Y43654D01*
G01X61454Y43652D01*
G01X61328Y43646D01*
G01X61199Y43636D01*
G01X61069Y43622D01*
G01X60936Y43604D01*
G01X60802Y43582D01*
G01X60666Y43555D01*
G01X60528Y43525D01*
G01X60464Y43820D01*
G01X60596Y43847D01*
G01X60726Y43871D01*
G01X60857Y43891D01*
G01X60987Y43907D01*
G01X61117Y43920D01*
G01X61247Y43929D01*
G01X61377Y43934D01*
G01X61506Y43936D01*
G01X61635Y43934D01*
G01X61766Y43929D01*
G01X61899Y43920D01*
G01X62033Y43907D01*
G01X62168Y43891D01*
G01X62305Y43871D01*
G01X62443Y43847D01*
G01X62583Y43820D01*
G01X62750Y43027D01*
G01X60926Y43027D01*
G01X60985Y42753D01*
G01X61122Y42731D01*
G01X61255Y42713D01*
G01X61383Y42699D01*
G01X61508Y42690D01*
G01X61628Y42684D01*
G01X61744Y42682D01*
G01X61869Y42684D01*
G01X61995Y42690D01*
G01X62123Y42700D01*
G01X62254Y42715D01*
G01X62386Y42733D01*
G01X62521Y42756D01*
G01X62657Y42783D01*
G01X62796Y42814D01*
G01X62859Y42519D01*
G01X62727Y42492D01*
G01X62596Y42468D01*
G01X62465Y42448D01*
G01X62334Y42431D01*
G01X62204Y42419D01*
G01X62074Y42409D01*
G01X61945Y42404D01*
G37*

%LPC*%

%LPD*%
G36*
G01X41132Y42405D02*
G01X40840Y42405D01*
G01X40573Y43657D01*
G01X40467Y43651D01*
G01X40360Y43642D01*
G01X40251Y43631D01*
G01X40141Y43616D01*
G01X40029Y43599D01*
G01X39917Y43579D01*
G01X39803Y43556D01*
G01X39687Y43530D01*
G01X39624Y43825D01*
G01X39756Y43852D01*
G01X39887Y43876D01*
G01X40018Y43896D01*
G01X40149Y43912D01*
G01X40279Y43925D01*
G01X40409Y43934D01*
G01X40538Y43939D01*
G01X40667Y43942D01*
G01X40797Y43939D01*
G01X40929Y43934D01*
G01X41062Y43925D01*
G01X41195Y43912D01*
G01X41330Y43896D01*
G01X41466Y43876D01*
G01X41604Y43852D01*
G01X41742Y43825D01*
G01X41805Y43530D01*
G01X41674Y43557D01*
G01X41547Y43581D01*
G01X41423Y43602D01*
G01X41304Y43619D01*
G01X41188Y43634D01*
G01X41077Y43646D01*
G01X40969Y43654D01*
G01X40866Y43660D01*
G01X41132Y42405D01*
G37*

%LPC*%

%LPD*%
G36*
G01X43545Y42407D02*
G01X43416Y42405D01*
G01X43286Y42407D01*
G01X43155Y42412D01*
G01X43023Y42421D01*
G01X42889Y42434D01*
G01X42754Y42451D01*
G01X42618Y42470D01*
G01X42480Y42494D01*
G01X42341Y42522D01*
G01X42067Y43820D01*
G01X42198Y43847D01*
G01X42328Y43871D01*
G01X42459Y43891D01*
G01X42589Y43907D01*
G01X42719Y43920D01*
G01X42849Y43929D01*
G01X42979Y43934D01*
G01X43108Y43936D01*
G01X43238Y43934D01*
G01X43369Y43929D01*
G01X43502Y43920D01*
G01X43636Y43907D01*
G01X43771Y43891D01*
G01X43907Y43871D01*
G01X44046Y43847D01*
G01X44185Y43820D01*
G01X44460Y42522D01*
G01X44328Y42494D01*
G01X44197Y42470D01*
G01X44065Y42451D01*
G01X43934Y42434D01*
G01X43804Y42421D01*
G01X43674Y42412D01*
G01X43545Y42407D01*
G37*

%LPC*%
G36*
G01X43228Y42689D02*
G01X43345Y42687D01*
G01X43469Y42689D01*
G01X43594Y42695D01*
G01X43721Y42705D01*
G01X43851Y42719D01*
G01X43982Y42738D01*
G01X44114Y42760D01*
G01X43939Y43583D01*
G01X43802Y43605D01*
G01X43670Y43623D01*
G01X43541Y43637D01*
G01X43416Y43646D01*
G01X43296Y43652D01*
G01X43180Y43654D01*
G01X43056Y43652D01*
G01X42931Y43646D01*
G01X42804Y43636D01*
G01X42675Y43622D01*
G01X42545Y43603D01*
G01X42412Y43581D01*
G01X42585Y42755D01*
G01X42722Y42734D01*
G01X42855Y42717D01*
G01X42983Y42704D01*
G01X43108Y42694D01*
G01X43228Y42689D01*
G37*

%LPD*%
G36*
G01X46390Y42406D02*
G01X46250Y42405D01*
G01X46092Y42406D01*
G01X45940Y42409D01*
G01X45794Y42414D01*
G01X45654Y42422D01*
G01X45520Y42432D01*
G01X45393Y42443D01*
G01X45271Y42457D01*
G01X45156Y42473D01*
G01X45021Y43111D01*
G01X45323Y43169D01*
G01X44996Y43225D01*
G01X44856Y43881D01*
G01X44966Y43894D01*
G01X45083Y43905D01*
G01X45208Y43915D01*
G01X45339Y43922D01*
G01X45478Y43929D01*
G01X45623Y43933D01*
G01X45776Y43935D01*
G01X45935Y43936D01*
G01X46077Y43936D01*
G01X46216Y43934D01*
G01X46353Y43930D01*
G01X46488Y43926D01*
G01X46621Y43920D01*
G01X46751Y43913D01*
G01X46879Y43904D01*
G01X47004Y43894D01*
G01X47128Y43883D01*
G01X47249Y43870D01*
G01X47302Y43611D01*
G01X47129Y43611D01*
G01X47312Y42755D01*
G01X47477Y42763D01*
G01X47533Y42496D01*
G01X47416Y42479D01*
G01X47296Y42463D01*
G01X47174Y42450D01*
G01X47050Y42438D01*
G01X46923Y42428D01*
G01X46793Y42420D01*
G01X46661Y42413D01*
G01X46527Y42408D01*
G01X46390Y42406D01*
G37*

%LPC*%
G36*
G01X45991Y43330D02*
G01X46116Y43327D01*
G01X46901Y43327D01*
G01X46835Y43627D01*
G01X46720Y43637D01*
G01X46601Y43646D01*
G01X46479Y43653D01*
G01X46355Y43658D01*
G01X46227Y43661D01*
G01X46095Y43662D01*
G01X45987Y43662D01*
G01X45878Y43659D01*
G01X45768Y43655D01*
G01X45658Y43650D01*
G01X45546Y43643D01*
G01X45433Y43635D01*
G01X45320Y43625D01*
G01X45206Y43614D01*
G01X45247Y43439D01*
G01X45412Y43405D01*
G01X45568Y43377D01*
G01X45717Y43355D01*
G01X45858Y43339D01*
G01X45991Y43330D01*
G37*
G36*
G01X46132Y42695D02*
G01X46281Y42694D01*
G01X46414Y42695D01*
G01X46544Y42698D01*
G01X46670Y42704D01*
G01X46792Y42711D01*
G01X46911Y42721D01*
G01X47025Y42732D01*
G01X46959Y43032D01*
G01X46177Y43032D01*
G01X46064Y43029D01*
G01X45941Y43017D01*
G01X45810Y42999D01*
G01X45670Y42973D01*
G01X45520Y42940D01*
G01X45361Y42900D01*
G01X45394Y42735D01*
G01X45541Y42723D01*
G01X45688Y42713D01*
G01X45836Y42705D01*
G01X45984Y42699D01*
G01X46132Y42695D01*
G37*

%LPD*%
G36*
G01X48633Y42405D02*
G01X48338Y42405D01*
G01X48214Y42999D01*
G01X48338Y43072D01*
G01X48514Y43124D01*
G01X48173Y43185D01*
G01X48102Y43525D01*
G01X48099Y43525D01*
G01X48036Y43820D01*
G01X48168Y43847D01*
G01X48298Y43871D01*
G01X48429Y43891D01*
G01X48559Y43907D01*
G01X48689Y43920D01*
G01X48819Y43929D01*
G01X48948Y43934D01*
G01X49077Y43936D01*
G01X49221Y43934D01*
G01X49362Y43929D01*
G01X49501Y43920D01*
G01X49636Y43907D01*
G01X49770Y43891D01*
G01X49900Y43871D01*
G01X50029Y43847D01*
G01X50154Y43820D01*
G01X50358Y43771D01*
G01X50416Y43505D01*
G01X50215Y43538D01*
G01X50454Y42405D01*
G01X50159Y42405D01*
G01X50025Y43035D01*
G01X49331Y43027D01*
G01X49180Y43020D01*
G01X49036Y43006D01*
G01X48900Y42982D01*
G01X48771Y42951D01*
G01X48649Y42912D01*
G01X48534Y42865D01*
G01X48633Y42405D01*
G37*

%LPC*%
G36*
G01X49037Y43328D02*
G01X49128Y43327D01*
G01X49961Y43329D01*
G01X49908Y43583D01*
G01X49771Y43605D01*
G01X49639Y43623D01*
G01X49510Y43637D01*
G01X49385Y43646D01*
G01X49265Y43652D01*
G01X49149Y43654D01*
G01X49026Y43652D01*
G01X48901Y43646D01*
G01X48775Y43636D01*
G01X48646Y43622D01*
G01X48516Y43603D01*
G01X48384Y43581D01*
G01X48427Y43383D01*
G01X48569Y43365D01*
G01X48701Y43352D01*
G01X48823Y43341D01*
G01X48935Y43333D01*
G01X49037Y43328D01*
G37*

%LPD*%
G36*
G01X52374Y42406D02*
G01X52209Y42405D01*
G01X52051Y42406D01*
G01X51899Y42409D01*
G01X51753Y42414D01*
G01X51613Y42422D01*
G01X51479Y42432D01*
G01X51352Y42443D01*
G01X51230Y42457D01*
G01X51114Y42473D01*
G01X51051Y42771D01*
G01X51169Y42756D01*
G01X51288Y42743D01*
G01X51407Y42731D01*
G01X51525Y42722D01*
G01X51644Y42713D01*
G01X51763Y42707D01*
G01X51882Y42701D01*
G01X52001Y42697D01*
G01X52120Y42695D01*
G01X52240Y42694D01*
G01X52373Y42695D01*
G01X52502Y42698D01*
G01X52628Y42704D01*
G01X52750Y42711D01*
G01X52869Y42721D01*
G01X52984Y42732D01*
G01X52918Y43032D01*
G01X51462Y43032D01*
G01X51401Y43327D01*
G01X52857Y43327D01*
G01X52793Y43624D01*
G01X52677Y43636D01*
G01X52558Y43645D01*
G01X52434Y43652D01*
G01X52307Y43658D01*
G01X52176Y43661D01*
G01X52042Y43662D01*
G01X51922Y43661D01*
G01X51804Y43659D01*
G01X51685Y43655D01*
G01X51567Y43649D01*
G01X51449Y43642D01*
G01X51332Y43634D01*
G01X51215Y43623D01*
G01X51098Y43612D01*
G01X50981Y43598D01*
G01X50866Y43583D01*
G01X50802Y43881D01*
G01X50912Y43894D01*
G01X51030Y43905D01*
G01X51154Y43915D01*
G01X51285Y43922D01*
G01X51424Y43929D01*
G01X51569Y43933D01*
G01X51722Y43935D01*
G01X51882Y43936D01*
G01X52017Y43936D01*
G01X52147Y43934D01*
G01X52273Y43932D01*
G01X52394Y43928D01*
G01X52511Y43924D01*
G01X52623Y43918D01*
G01X52731Y43912D01*
G01X52834Y43904D01*
G01X52933Y43895D01*
G01X53027Y43886D01*
G01X53068Y43708D01*
G01X53070Y43708D01*
G01X53286Y42682D01*
G01X53284Y42682D01*
G01X53329Y42473D01*
G01X53215Y42457D01*
G01X53093Y42443D01*
G01X52964Y42432D01*
G01X52827Y42422D01*
G01X52684Y42414D01*
G01X52533Y42409D01*
G01X52374Y42406D01*
G37*

%LPC*%

%LPD*%
G36*
G01X56388Y42405D02*
G01X55321Y42405D01*
G01X55191Y42407D01*
G01X55060Y42412D01*
G01X54928Y42421D01*
G01X54794Y42434D01*
G01X54659Y42451D01*
G01X54523Y42470D01*
G01X54385Y42494D01*
G01X54246Y42522D01*
G01X53969Y43820D01*
G01X54101Y43847D01*
G01X54232Y43871D01*
G01X54363Y43891D01*
G01X54493Y43907D01*
G01X54623Y43920D01*
G01X54752Y43929D01*
G01X54882Y43934D01*
G01X55011Y43936D01*
G01X56062Y43936D01*
G01X56261Y43929D01*
G01X56314Y43675D01*
G01X56118Y43667D01*
G01X56329Y42689D01*
G01X56509Y42682D01*
G01X56565Y42420D01*
G01X56388Y42405D01*
G37*

%LPC*%
G36*
G01X55133Y42689D02*
G01X55250Y42687D01*
G01X56034Y42689D01*
G01X55824Y43672D01*
G01X55567Y43665D01*
G01X55344Y43660D01*
G01X55189Y43657D01*
G01X55102Y43655D01*
G01X55084Y43654D01*
G01X54960Y43652D01*
G01X54834Y43646D01*
G01X54707Y43636D01*
G01X54577Y43622D01*
G01X54447Y43603D01*
G01X54315Y43581D01*
G01X54490Y42755D01*
G01X54627Y42734D01*
G01X54760Y42717D01*
G01X54888Y42704D01*
G01X55013Y42694D01*
G01X55133Y42689D01*
G37*

%LPD*%
G36*
G01X57424Y42405D02*
G01X57129Y42405D01*
G01X56802Y43936D01*
G01X57096Y43936D01*
G01X57424Y42405D01*
G37*

%LPC*%

%LPD*%
G36*
G01X60195Y42405D02*
G01X59900Y42405D01*
G01X59766Y43032D01*
G01X59148Y43032D01*
G01X59032Y43033D01*
G01X58914Y43035D01*
G01X58795Y43038D01*
G01X58675Y43043D01*
G01X58554Y43049D01*
G01X58432Y43057D01*
G01X58309Y43066D01*
G01X58185Y43076D01*
G01X58060Y43088D01*
G01X57934Y43101D01*
G01X57843Y43525D01*
G01X57840Y43525D01*
G01X57777Y43820D01*
G01X57908Y43847D01*
G01X58039Y43871D01*
G01X58170Y43891D01*
G01X58300Y43907D01*
G01X58430Y43920D01*
G01X58560Y43929D01*
G01X58689Y43934D01*
G01X58818Y43936D01*
G01X58955Y43934D01*
G01X59092Y43929D01*
G01X59227Y43920D01*
G01X59362Y43907D01*
G01X59496Y43891D01*
G01X59630Y43871D01*
G01X59763Y43847D01*
G01X59895Y43820D01*
G01X60111Y43771D01*
G01X60164Y43522D01*
G01X59949Y43548D01*
G01X60195Y42405D01*
G37*

%LPC*%
G36*
G01X58956Y43327D02*
G01X59088Y43327D01*
G01X59707Y43327D01*
G01X59649Y43583D01*
G01X59512Y43605D01*
G01X59380Y43623D01*
G01X59251Y43637D01*
G01X59126Y43646D01*
G01X59006Y43652D01*
G01X58889Y43654D01*
G01X58766Y43652D01*
G01X58642Y43646D01*
G01X58516Y43636D01*
G01X58387Y43622D01*
G01X58257Y43603D01*
G01X58125Y43581D01*
G01X58173Y43352D01*
G01X58271Y43346D01*
G01X58373Y43341D01*
G01X58480Y43337D01*
G01X58592Y43333D01*
G01X58709Y43330D01*
G01X58830Y43328D01*
G01X58956Y43327D01*
G37*

%LPD*%
G54D20*
G01X58332Y40132D02*
G01X58332Y39177D01*
G01X58332Y40132D02*
G01X57969Y39177D01*
G01X57605Y40132D02*
G01X57969Y39177D01*
G01X57605Y40132D02*
G01X57605Y39177D01*
G01X57305Y40132D02*
G01X57305Y39177D01*
G01X57305Y40132D02*
G01X56714Y40132D01*
G01X57305Y39677D02*
G01X56942Y39677D01*
G01X57305Y39177D02*
G01X56714Y39177D01*
G01X55732Y39904D02*
G01X55778Y39995D01*
G01X55869Y40086D01*
G01X55960Y40132D01*
G01X56142Y40132D01*
G01X56232Y40086D01*
G01X56323Y39995D01*
G01X56369Y39904D01*
G01X56414Y39768D01*
G01X56414Y39541D01*
G01X56369Y39404D01*
G01X56323Y39313D01*
G01X56232Y39222D01*
G01X56142Y39177D01*
G01X55960Y39177D01*
G01X55869Y39222D01*
G01X55778Y39313D01*
G01X55732Y39404D01*
G01X55732Y39541D01*
G01X55960Y39541D02*
G01X55732Y39541D01*
G01X55069Y40132D02*
G01X55432Y39177D01*
G01X55069Y40132D02*
G01X54705Y39177D01*
G01X55296Y39495D02*
G01X54842Y39495D01*
G01X53705Y40132D02*
G01X53705Y39177D01*
G01X53705Y40132D02*
G01X53387Y40132D01*
G01X53251Y40086D01*
G01X53160Y39995D01*
G01X53114Y39904D01*
G01X53069Y39768D01*
G01X53069Y39541D01*
G01X53114Y39404D01*
G01X53160Y39313D01*
G01X53251Y39222D01*
G01X53387Y39177D01*
G01X53705Y39177D01*
G01X52405Y40132D02*
G01X52769Y39177D01*
G01X52405Y40132D02*
G01X52042Y39177D01*
G01X52632Y39495D02*
G01X52178Y39495D01*
G01X51105Y39995D02*
G01X51196Y40086D01*
G01X51332Y40132D01*
G01X51514Y40132D01*
G01X51651Y40086D01*
G01X51742Y39995D01*
G01X51742Y39904D01*
G01X51696Y39813D01*
G01X51651Y39768D01*
G01X51560Y39722D01*
G01X51287Y39632D01*
G01X51196Y39586D01*
G01X51151Y39541D01*
G01X51105Y39450D01*
G01X51105Y39313D01*
G01X51196Y39222D01*
G01X51332Y39177D01*
G01X51514Y39177D01*
G01X51651Y39222D01*
G01X51742Y39313D01*
G01X50105Y40132D02*
G01X50105Y39177D01*
G01X50105Y40132D02*
G01X49696Y40132D01*
G01X49560Y40086D01*
G01X49514Y40041D01*
G01X49469Y39950D01*
G01X49469Y39813D01*
G01X49514Y39722D01*
G01X49560Y39677D01*
G01X49696Y39632D01*
G01X50105Y39632D01*
G01X49169Y40132D02*
G01X49169Y39177D01*
G01X49169Y40132D02*
G01X48760Y40132D01*
G01X48623Y40086D01*
G01X48578Y40041D01*
G01X48532Y39950D01*
G01X48532Y39859D01*
G01X48578Y39768D01*
G01X48623Y39722D01*
G01X48760Y39677D01*
G01X49169Y39677D01*
G01X48851Y39677D02*
G01X48532Y39177D01*
G01X47960Y40132D02*
G01X48051Y40086D01*
G01X48142Y39995D01*
G01X48187Y39904D01*
G01X48232Y39768D01*
G01X48232Y39541D01*
G01X48187Y39404D01*
G01X48142Y39313D01*
G01X48051Y39222D01*
G01X47960Y39177D01*
G01X47778Y39177D01*
G01X47687Y39222D01*
G01X47596Y39313D01*
G01X47551Y39404D01*
G01X47505Y39541D01*
G01X47505Y39768D01*
G01X47551Y39904D01*
G01X47596Y39995D01*
G01X47687Y40086D01*
G01X47778Y40132D01*
G01X47960Y40132D01*
G01X46751Y40132D02*
G01X46751Y39404D01*
G01X46796Y39268D01*
G01X46842Y39222D01*
G01X46932Y39177D01*
G01X47023Y39177D01*
G01X47114Y39222D01*
G01X47160Y39268D01*
G01X47205Y39404D01*
G01X47205Y39495D01*
G01X46451Y40132D02*
G01X46451Y39177D01*
G01X46451Y40132D02*
G01X45860Y40132D01*
G01X46451Y39677D02*
G01X46087Y39677D01*
G01X46451Y39177D02*
G01X45860Y39177D01*
G01X44878Y39904D02*
G01X44923Y39995D01*
G01X45014Y40086D01*
G01X45105Y40132D01*
G01X45287Y40132D01*
G01X45378Y40086D01*
G01X45469Y39995D01*
G01X45514Y39904D01*
G01X45560Y39768D01*
G01X45560Y39541D01*
G01X45514Y39404D01*
G01X45469Y39313D01*
G01X45378Y39222D01*
G01X45287Y39177D01*
G01X45105Y39177D01*
G01X45014Y39222D01*
G01X44923Y39313D01*
G01X44878Y39404D01*
G01X44260Y40132D02*
G01X44260Y39177D01*
G01X44578Y40132D02*
G01X43942Y40132D01*
G01X34016Y35514D02*
G01X34016Y34560D01*
G01X34016Y35514D02*
G01X33607Y35514D01*
G01X33471Y35469D01*
G01X33425Y35423D01*
G01X33380Y35332D01*
G01X33380Y35196D01*
G01X33425Y35105D01*
G01X33471Y35060D01*
G01X33607Y35014D01*
G01X34016Y35014D01*
G01X33080Y35196D02*
G01X33080Y34560D01*
G01X33080Y34923D02*
G01X33034Y35060D01*
G01X32943Y35150D01*
G01X32852Y35196D01*
G01X32716Y35196D01*
G01X32189Y35196D02*
G01X32280Y35150D01*
G01X32371Y35060D01*
G01X32416Y34923D01*
G01X32416Y34832D01*
G01X32371Y34696D01*
G01X32280Y34605D01*
G01X32189Y34560D01*
G01X32052Y34560D01*
G01X31961Y34605D01*
G01X31871Y34696D01*
G01X31825Y34832D01*
G01X31825Y34923D01*
G01X31871Y35060D01*
G01X31961Y35150D01*
G01X32052Y35196D01*
G01X32189Y35196D01*
G01X31343Y35514D02*
G01X31298Y35469D01*
G01X31252Y35514D01*
G01X31298Y35560D01*
G01X31343Y35514D01*
G01X31298Y35196D02*
G01X31298Y34423D01*
G01X31343Y34287D01*
G01X31434Y34241D01*
G01X31525Y34241D01*
G01X30952Y34923D02*
G01X30407Y34923D01*
G01X30407Y35014D01*
G01X30452Y35105D01*
G01X30498Y35150D01*
G01X30589Y35196D01*
G01X30725Y35196D01*
G01X30816Y35150D01*
G01X30907Y35060D01*
G01X30952Y34923D01*
G01X30952Y34832D01*
G01X30907Y34696D01*
G01X30816Y34605D01*
G01X30725Y34560D01*
G01X30589Y34560D01*
G01X30498Y34605D01*
G01X30407Y34696D01*
G01X29561Y35060D02*
G01X29652Y35150D01*
G01X29743Y35196D01*
G01X29880Y35196D01*
G01X29971Y35150D01*
G01X30061Y35060D01*
G01X30107Y34923D01*
G01X30107Y34832D01*
G01X30061Y34696D01*
G01X29971Y34605D01*
G01X29880Y34560D01*
G01X29743Y34560D01*
G01X29652Y34605D01*
G01X29561Y34696D01*
G01X29125Y35514D02*
G01X29125Y34741D01*
G01X29080Y34605D01*
G01X28989Y34560D01*
G01X28898Y34560D01*
G01X29261Y35196D02*
G01X28943Y35196D01*
G01X27352Y35514D02*
G01X27352Y34560D01*
G01X27352Y35060D02*
G01X27443Y35150D01*
G01X27534Y35196D01*
G01X27671Y35196D01*
G01X27761Y35150D01*
G01X27852Y35060D01*
G01X27898Y34923D01*
G01X27898Y34832D01*
G01X27852Y34696D01*
G01X27761Y34605D01*
G01X27671Y34560D01*
G01X27534Y34560D01*
G01X27443Y34605D01*
G01X27352Y34696D01*
G01X27052Y34923D02*
G01X26507Y34923D01*
G01X26507Y35014D01*
G01X26552Y35105D01*
G01X26598Y35150D01*
G01X26689Y35196D01*
G01X26825Y35196D01*
G01X26916Y35150D01*
G01X27007Y35060D01*
G01X27052Y34923D01*
G01X27052Y34832D01*
G01X27007Y34696D01*
G01X26916Y34605D01*
G01X26825Y34560D01*
G01X26689Y34560D01*
G01X26598Y34605D01*
G01X26507Y34696D01*
G01X25707Y35060D02*
G01X25752Y35150D01*
G01X25889Y35196D01*
G01X26025Y35196D01*
G01X26162Y35150D01*
G01X26207Y35060D01*
G01X26162Y34969D01*
G01X26071Y34923D01*
G01X25843Y34878D01*
G01X25752Y34832D01*
G01X25707Y34741D01*
G01X25707Y34696D01*
G01X25752Y34605D01*
G01X25889Y34560D01*
G01X26025Y34560D01*
G01X26162Y34605D01*
G01X26207Y34696D01*
G01X25407Y35514D02*
G01X25362Y35469D01*
G01X25316Y35514D01*
G01X25362Y35560D01*
G01X25407Y35514D01*
G01X25362Y35196D02*
G01X25362Y34560D01*
G01X24471Y35196D02*
G01X24471Y34469D01*
G01X24516Y34332D01*
G01X24562Y34287D01*
G01X24652Y34241D01*
G01X24789Y34241D01*
G01X24880Y34287D01*
G01X24471Y35060D02*
G01X24562Y35150D01*
G01X24652Y35196D01*
G01X24789Y35196D01*
G01X24880Y35150D01*
G01X24971Y35060D01*
G01X25016Y34923D01*
G01X25016Y34832D01*
G01X24971Y34696D01*
G01X24880Y34605D01*
G01X24789Y34560D01*
G01X24652Y34560D01*
G01X24562Y34605D01*
G01X24471Y34696D01*
G01X24171Y35196D02*
G01X24171Y34560D01*
G01X24171Y35014D02*
G01X24034Y35150D01*
G01X23943Y35196D01*
G01X23807Y35196D01*
G01X23716Y35150D01*
G01X23671Y35014D01*
G01X23671Y34560D01*
G01X23371Y34923D02*
G01X22825Y34923D01*
G01X22825Y35014D01*
G01X22871Y35105D01*
G01X22916Y35150D01*
G01X23007Y35196D01*
G01X23143Y35196D01*
G01X23234Y35150D01*
G01X23325Y35060D01*
G01X23371Y34923D01*
G01X23371Y34832D01*
G01X23325Y34696D01*
G01X23234Y34605D01*
G01X23143Y34560D01*
G01X23007Y34560D01*
G01X22916Y34605D01*
G01X22825Y34696D01*
G01X21980Y35514D02*
G01X21980Y34560D01*
G01X21980Y35060D02*
G01X22071Y35150D01*
G01X22162Y35196D01*
G01X22298Y35196D01*
G01X22389Y35150D01*
G01X22480Y35060D01*
G01X22525Y34923D01*
G01X22525Y34832D01*
G01X22480Y34696D01*
G01X22389Y34605D01*
G01X22298Y34560D01*
G01X22162Y34560D01*
G01X22071Y34605D01*
G01X21980Y34696D01*
G01X20980Y35514D02*
G01X20980Y34560D01*
G01X20980Y35060D02*
G01X20889Y35150D01*
G01X20798Y35196D01*
G01X20662Y35196D01*
G01X20571Y35150D01*
G01X20480Y35060D01*
G01X20434Y34923D01*
G01X20434Y34832D01*
G01X20480Y34696D01*
G01X20571Y34605D01*
G01X20662Y34560D01*
G01X20798Y34560D01*
G01X20889Y34605D01*
G01X20980Y34696D01*
G01X20089Y35196D02*
G01X19816Y34560D01*
G01X19543Y35196D02*
G01X19816Y34560D01*
G01X19907Y34378D01*
G01X19998Y34287D01*
G01X20089Y34241D01*
G01X20134Y34241D01*
G01X18543Y35514D02*
G01X18543Y34560D01*
G01X18543Y35514D02*
G01X18134Y35514D01*
G01X17998Y35469D01*
G01X17952Y35423D01*
G01X17907Y35332D01*
G01X17907Y35241D01*
G01X17952Y35150D01*
G01X17998Y35105D01*
G01X18134Y35060D01*
G01X18543Y35060D02*
G01X18134Y35060D01*
G01X17998Y35014D01*
G01X17952Y34969D01*
G01X17907Y34878D01*
G01X17907Y34741D01*
G01X17952Y34650D01*
G01X17998Y34605D01*
G01X18134Y34560D01*
G01X18543Y34560D01*
G01X17607Y35514D02*
G01X17607Y34560D01*
G01X17607Y35514D02*
G01X17016Y35514D01*
G01X17607Y35060D02*
G01X17243Y35060D01*
G01X17607Y34560D02*
G01X17016Y34560D01*
G01X16716Y35514D02*
G01X16716Y34560D01*
G01X16716Y35514D02*
G01X16125Y35514D01*
G01X16716Y35060D02*
G01X16352Y35060D01*
G01X16716Y34560D02*
G01X16125Y34560D01*
G01X15125Y35514D02*
G01X15125Y34560D01*
G01X15125Y35514D02*
G01X14762Y34560D01*
G01X14398Y35514D02*
G01X14762Y34560D01*
G01X14398Y35514D02*
G01X14398Y34560D01*
G01X14098Y35514D02*
G01X14098Y34560D01*
G01X14098Y35514D02*
G01X13689Y35514D01*
G01X13552Y35469D01*
G01X13507Y35423D01*
G01X13462Y35332D01*
G01X13462Y35241D01*
G01X13507Y35150D01*
G01X13552Y35105D01*
G01X13689Y35060D01*
G01X14098Y35060D02*
G01X13689Y35060D01*
G01X13552Y35014D01*
G01X13507Y34969D01*
G01X13462Y34878D01*
G01X13462Y34741D01*
G01X13507Y34650D01*
G01X13552Y34605D01*
G01X13689Y34560D01*
G01X14098Y34560D01*
G54D10*
G75*
G01X53533Y66548D02*
G03X53533Y66548I-3000J0D01*
G01*
G75*
G01X54041Y22606D02*
G03X54041Y22606I-3000J0D01*
G01*
G75*
G01X84013Y45720D02*
G03X84013Y45720I-3000J0D01*
G01*
M00*
M02*
