G04 ---------------------------- Layer name :TOP SILK LAYER*
G04 EasyEDA v5.5.11, Sun, 03 Jun 2018 10:16:40 GMT*
G04 422a67246ae34fc7a473e8fc002879eb*
G04 Gerber Generator version 0.2*
G04 Scale: 100 percent, Rotated: No, Reflected: No *
G04 Dimensions in millimeters *
G04 leading zeros omitted , absolute positions ,3 integer and 3 decimal *
%FSLAX33Y33*%
%MOMM*%
G90*
G71D02*

%ADD10C,0.254000*%
%ADD20C,0.203200*%
%ADD21C,0.202999*%
%ADD22C,0.199898*%
%ADD23C,0.177800*%

%LPD*%

%LPD*%
G36*
G01X61017Y40824D02*
G01X60954Y40823D01*
G01X60889Y40824D01*
G01X60823Y40827D01*
G01X60756Y40834D01*
G01X60690Y40841D01*
G01X60627Y40851D01*
G01X60566Y40864D01*
G01X60507Y40878D01*
G01X60450Y40895D01*
G01X60396Y40914D01*
G01X60344Y40935D01*
G01X60294Y40959D01*
G01X60246Y40984D01*
G01X60201Y41012D01*
G01X60157Y41042D01*
G01X60117Y41074D01*
G01X60078Y41108D01*
G01X60042Y41145D01*
G01X60008Y41184D01*
G01X59976Y41225D01*
G01X59946Y41268D01*
G01X59918Y41314D01*
G01X59893Y41362D01*
G01X59870Y41412D01*
G01X59849Y41464D01*
G01X59830Y41519D01*
G01X59814Y41576D01*
G01X59800Y41635D01*
G01X59788Y41697D01*
G01X59778Y41761D01*
G01X59770Y41826D01*
G01X59765Y41895D01*
G01X59762Y41965D01*
G01X59761Y42038D01*
G01X59762Y42113D01*
G01X59766Y42190D01*
G01X59771Y42265D01*
G01X59779Y42337D01*
G01X59789Y42406D01*
G01X59801Y42473D01*
G01X59814Y42537D01*
G01X59831Y42598D01*
G01X59850Y42657D01*
G01X59870Y42713D01*
G01X59893Y42767D01*
G01X59919Y42818D01*
G01X59946Y42868D01*
G01X59977Y42914D01*
G01X60009Y42958D01*
G01X60044Y43000D01*
G01X60081Y43040D01*
G01X60120Y43077D01*
G01X60162Y43112D01*
G01X60207Y43145D01*
G01X60254Y43176D01*
G01X60304Y43205D01*
G01X60357Y43232D01*
G01X60411Y43256D01*
G01X60469Y43279D01*
G01X60529Y43300D01*
G01X60585Y43316D01*
G01X60646Y43328D01*
G01X60710Y43338D01*
G01X60779Y43346D01*
G01X60850Y43350D01*
G01X60923Y43352D01*
G01X60997Y43351D01*
G01X61071Y43348D01*
G01X61145Y43342D01*
G01X61218Y43334D01*
G01X61289Y43323D01*
G01X61357Y43310D01*
G01X61421Y43295D01*
G01X61481Y43278D01*
G01X61536Y43258D01*
G01X61584Y43235D01*
G01X61634Y43209D01*
G01X61680Y43181D01*
G01X61725Y43150D01*
G01X61767Y43117D01*
G01X61807Y43082D01*
G01X61844Y43045D01*
G01X61879Y43006D01*
G01X61913Y42965D01*
G01X61943Y42921D01*
G01X61971Y42875D01*
G01X61997Y42827D01*
G01X62021Y42777D01*
G01X62042Y42724D01*
G01X62061Y42669D01*
G01X62078Y42613D01*
G01X62092Y42553D01*
G01X62104Y42492D01*
G01X62114Y42428D01*
G01X62122Y42361D01*
G01X62127Y42293D01*
G01X62130Y42221D01*
G01X62131Y42148D01*
G01X62130Y42072D01*
G01X62126Y41994D01*
G01X62121Y41927D01*
G01X62114Y41862D01*
G01X62105Y41798D01*
G01X62094Y41736D01*
G01X62081Y41677D01*
G01X62065Y41619D01*
G01X62048Y41563D01*
G01X62028Y41509D01*
G01X62007Y41456D01*
G01X61984Y41406D01*
G01X61959Y41358D01*
G01X61932Y41312D01*
G01X61903Y41267D01*
G01X61872Y41225D01*
G01X61839Y41185D01*
G01X61804Y41146D01*
G01X61768Y41110D01*
G01X61730Y41076D01*
G01X61690Y41044D01*
G01X61648Y41014D01*
G01X61605Y40986D01*
G01X61559Y40961D01*
G01X61513Y40937D01*
G01X61464Y40916D01*
G01X61414Y40897D01*
G01X61362Y40879D01*
G01X61308Y40865D01*
G01X61253Y40852D01*
G01X61197Y40842D01*
G01X61138Y40834D01*
G01X61078Y40828D01*
G01X61017Y40824D01*
G37*

%LPC*%
G36*
G01X60866Y41361D02*
G01X60916Y41358D01*
G01X60970Y41359D01*
G01X61027Y41365D01*
G01X61087Y41376D01*
G01X61127Y41387D01*
G01X61164Y41403D01*
G01X61199Y41423D01*
G01X61231Y41447D01*
G01X61261Y41476D01*
G01X61288Y41510D01*
G01X61312Y41548D01*
G01X61333Y41590D01*
G01X61352Y41637D01*
G01X61368Y41689D01*
G01X61382Y41745D01*
G01X61393Y41806D01*
G01X61402Y41871D01*
G01X61408Y41942D01*
G01X61412Y42016D01*
G01X61412Y42095D01*
G01X61410Y42191D01*
G01X61403Y42281D01*
G01X61393Y42364D01*
G01X61380Y42440D01*
G01X61362Y42510D01*
G01X61341Y42573D01*
G01X61316Y42629D01*
G01X61288Y42678D01*
G01X61257Y42720D01*
G01X61222Y42754D01*
G01X61184Y42780D01*
G01X61142Y42798D01*
G01X61099Y42810D01*
G01X61048Y42818D01*
G01X60994Y42822D01*
G01X60937Y42824D01*
G01X60880Y42822D01*
G01X60825Y42816D01*
G01X60776Y42808D01*
G01X60732Y42795D01*
G01X60694Y42778D01*
G01X60658Y42750D01*
G01X60625Y42715D01*
G01X60595Y42672D01*
G01X60568Y42621D01*
G01X60543Y42562D01*
G01X60523Y42498D01*
G01X60505Y42427D01*
G01X60491Y42351D01*
G01X60481Y42269D01*
G01X60474Y42183D01*
G01X60472Y42092D01*
G01X60474Y42010D01*
G01X60478Y41932D01*
G01X60486Y41859D01*
G01X60497Y41791D01*
G01X60511Y41728D01*
G01X60528Y41670D01*
G01X60548Y41617D01*
G01X60570Y41569D01*
G01X60597Y41526D01*
G01X60626Y41488D01*
G01X60658Y41454D01*
G01X60693Y41426D01*
G01X60732Y41403D01*
G01X60773Y41384D01*
G01X60818Y41371D01*
G01X60866Y41361D01*
G37*

%LPD*%
G36*
G01X53784Y40825D02*
G01X53709Y40825D01*
G01X53634Y40827D01*
G01X53558Y40832D01*
G01X53483Y40839D01*
G01X53409Y40848D01*
G01X53337Y40859D01*
G01X53269Y40873D01*
G01X53204Y40889D01*
G01X53144Y40907D01*
G01X53090Y40927D01*
G01X53042Y40948D01*
G01X52998Y40971D01*
G01X52956Y40994D01*
G01X52918Y41017D01*
G01X52883Y41042D01*
G01X52851Y41067D01*
G01X52821Y41094D01*
G01X52794Y41123D01*
G01X52770Y41154D01*
G01X52748Y41189D01*
G01X52728Y41226D01*
G01X52711Y41268D01*
G01X52695Y41314D01*
G01X52681Y41364D01*
G01X52668Y41419D01*
G01X52658Y41480D01*
G01X52649Y41547D01*
G01X52640Y41621D01*
G01X52634Y41701D01*
G01X52628Y41789D01*
G01X52623Y41884D01*
G01X52619Y41987D01*
G01X52615Y42098D01*
G01X52612Y42219D01*
G01X52609Y42350D01*
G01X52590Y43319D01*
G01X53338Y43319D01*
G01X53338Y42230D01*
G01X53338Y42089D01*
G01X53339Y41967D01*
G01X53341Y41861D01*
G01X53343Y41770D01*
G01X53346Y41693D01*
G01X53350Y41628D01*
G01X53355Y41575D01*
G01X53362Y41531D01*
G01X53370Y41495D01*
G01X53381Y41467D01*
G01X53393Y41445D01*
G01X53407Y41426D01*
G01X53423Y41411D01*
G01X53443Y41397D01*
G01X53464Y41383D01*
G01X53533Y41348D01*
G01X53601Y41324D01*
G01X53669Y41312D01*
G01X53737Y41312D01*
G01X53804Y41324D01*
G01X53869Y41347D01*
G01X53932Y41381D01*
G01X53994Y41427D01*
G01X54018Y41449D01*
G01X54039Y41469D01*
G01X54057Y41489D01*
G01X54074Y41512D01*
G01X54087Y41537D01*
G01X54098Y41567D01*
G01X54108Y41603D01*
G01X54115Y41647D01*
G01X54121Y41699D01*
G01X54125Y41762D01*
G01X54128Y41836D01*
G01X54130Y41924D01*
G01X54132Y42026D01*
G01X54132Y42144D01*
G01X54133Y42279D01*
G01X54133Y43319D01*
G01X54814Y43319D01*
G01X54814Y42448D01*
G01X54814Y42359D01*
G01X54813Y42270D01*
G01X54811Y42182D01*
G01X54809Y42096D01*
G01X54807Y42013D01*
G01X54804Y41932D01*
G01X54801Y41855D01*
G01X54797Y41781D01*
G01X54793Y41713D01*
G01X54789Y41649D01*
G01X54784Y41591D01*
G01X54779Y41539D01*
G01X54774Y41493D01*
G01X54769Y41455D01*
G01X54763Y41425D01*
G01X54758Y41403D01*
G01X54742Y41361D01*
G01X54722Y41320D01*
G01X54696Y41279D01*
G01X54667Y41237D01*
G01X54634Y41197D01*
G01X54598Y41158D01*
G01X54558Y41119D01*
G01X54516Y41081D01*
G01X54471Y41046D01*
G01X54424Y41012D01*
G01X54374Y40981D01*
G01X54323Y40951D01*
G01X54271Y40925D01*
G01X54218Y40902D01*
G01X54164Y40881D01*
G01X54111Y40865D01*
G01X54054Y40851D01*
G01X53992Y40841D01*
G01X53926Y40833D01*
G01X53856Y40827D01*
G01X53784Y40825D01*
G37*

%LPC*%

%LPD*%
G36*
G01X59640Y43319D02*
G01X59640Y40860D01*
G01X59241Y40875D01*
G01X58842Y40889D01*
G01X58136Y42211D01*
G01X58104Y40865D01*
G01X57483Y40865D01*
G01X57483Y43319D01*
G01X57866Y43319D01*
G01X58249Y43319D01*
G01X58590Y42677D01*
G01X58636Y42590D01*
G01X58682Y42506D01*
G01X58725Y42426D01*
G01X58767Y42350D01*
G01X58807Y42280D01*
G01X58843Y42217D01*
G01X58876Y42160D01*
G01X58905Y42111D01*
G01X58930Y42072D01*
G01X58950Y42041D01*
G01X58964Y42021D01*
G01X58973Y42012D01*
G01X58979Y42015D01*
G01X58984Y42029D01*
G01X58989Y42055D01*
G01X58995Y42091D01*
G01X58999Y42137D01*
G01X59003Y42190D01*
G01X59007Y42252D01*
G01X59010Y42322D01*
G01X59012Y42397D01*
G01X59014Y42478D01*
G01X59015Y42564D01*
G01X59016Y42654D01*
G01X59016Y43319D01*
G01X59640Y43319D01*
G37*

%LPC*%

%LPD*%
G36*
G01X57085Y40865D02*
G01X55155Y40865D01*
G01X55155Y41356D01*
G01X55779Y41356D01*
G01X55779Y42828D01*
G01X55155Y42828D01*
G01X55155Y43319D01*
G01X57085Y43319D01*
G01X57085Y42828D01*
G01X56461Y42828D01*
G01X56461Y41356D01*
G01X57085Y41356D01*
G01X57085Y40865D01*
G37*

%LPC*%

%LPD*%
G36*
G01X50805Y40865D02*
G01X50215Y40865D01*
G01X50215Y43329D01*
G01X50939Y43312D01*
G01X51057Y43309D01*
G01X51162Y43306D01*
G01X51255Y43303D01*
G01X51338Y43299D01*
G01X51413Y43295D01*
G01X51478Y43290D01*
G01X51537Y43284D01*
G01X51589Y43277D01*
G01X51637Y43269D01*
G01X51681Y43260D01*
G01X51722Y43249D01*
G01X51761Y43236D01*
G01X51799Y43221D01*
G01X51837Y43204D01*
G01X51877Y43186D01*
G01X51919Y43165D01*
G01X51970Y43137D01*
G01X52019Y43109D01*
G01X52064Y43079D01*
G01X52107Y43047D01*
G01X52147Y43014D01*
G01X52185Y42979D01*
G01X52220Y42943D01*
G01X52253Y42905D01*
G01X52283Y42864D01*
G01X52311Y42822D01*
G01X52337Y42778D01*
G01X52360Y42731D01*
G01X52381Y42683D01*
G01X52400Y42632D01*
G01X52416Y42579D01*
G01X52431Y42523D01*
G01X52443Y42464D01*
G01X52454Y42403D01*
G01X52463Y42339D01*
G01X52470Y42273D01*
G01X52475Y42201D01*
G01X52477Y42132D01*
G01X52478Y42064D01*
G01X52476Y41999D01*
G01X52471Y41935D01*
G01X52464Y41873D01*
G01X52455Y41814D01*
G01X52443Y41756D01*
G01X52429Y41700D01*
G01X52411Y41646D01*
G01X52392Y41593D01*
G01X52370Y41542D01*
G01X52346Y41493D01*
G01X52319Y41446D01*
G01X52290Y41401D01*
G01X52258Y41357D01*
G01X52224Y41315D01*
G01X52187Y41275D01*
G01X52148Y41235D01*
G01X52106Y41198D01*
G01X52067Y41167D01*
G01X52029Y41137D01*
G01X51991Y41110D01*
G01X51952Y41084D01*
G01X51913Y41060D01*
G01X51872Y41037D01*
G01X51831Y41016D01*
G01X51788Y40997D01*
G01X51744Y40979D01*
G01X51699Y40963D01*
G01X51652Y40948D01*
G01X51604Y40935D01*
G01X51552Y40923D01*
G01X51500Y40912D01*
G01X51444Y40902D01*
G01X51386Y40894D01*
G01X51325Y40887D01*
G01X51261Y40881D01*
G01X51194Y40876D01*
G01X51123Y40872D01*
G01X51049Y40869D01*
G01X50972Y40867D01*
G01X50890Y40866D01*
G01X50805Y40865D01*
G37*

%LPC*%
G36*
G01X50897Y42842D02*
G01X50897Y41356D01*
G01X51040Y41356D01*
G01X51112Y41361D01*
G01X51200Y41377D01*
G01X51294Y41400D01*
G01X51383Y41428D01*
G01X51432Y41448D01*
G01X51478Y41472D01*
G01X51520Y41499D01*
G01X51558Y41529D01*
G01X51593Y41563D01*
G01X51623Y41601D01*
G01X51651Y41642D01*
G01X51674Y41688D01*
G01X51694Y41737D01*
G01X51711Y41791D01*
G01X51724Y41848D01*
G01X51733Y41910D01*
G01X51739Y41976D01*
G01X51742Y42047D01*
G01X51742Y42121D01*
G01X51738Y42201D01*
G01X51731Y42296D01*
G01X51721Y42374D01*
G01X51709Y42440D01*
G01X51694Y42495D01*
G01X51673Y42541D01*
G01X51647Y42582D01*
G01X51615Y42620D01*
G01X51576Y42657D01*
G01X51539Y42685D01*
G01X51497Y42711D01*
G01X51452Y42734D01*
G01X51402Y42755D01*
G01X51349Y42773D01*
G01X51291Y42788D01*
G01X51230Y42801D01*
G01X51166Y42810D01*
G01X50897Y42842D01*
G37*

%LPD*%
G36*
G01X48569Y40865D02*
G01X47888Y40865D01*
G01X47888Y43329D01*
G01X48612Y43311D01*
G01X48728Y43307D01*
G01X48837Y43303D01*
G01X48937Y43298D01*
G01X49030Y43292D01*
G01X49115Y43285D01*
G01X49193Y43277D01*
G01X49265Y43267D01*
G01X49331Y43256D01*
G01X49392Y43244D01*
G01X49447Y43230D01*
G01X49496Y43215D01*
G01X49542Y43197D01*
G01X49583Y43177D01*
G01X49621Y43156D01*
G01X49655Y43132D01*
G01X49686Y43106D01*
G01X49715Y43078D01*
G01X49741Y43047D01*
G01X49766Y43013D01*
G01X49789Y42977D01*
G01X49812Y42932D01*
G01X49831Y42881D01*
G01X49847Y42825D01*
G01X49859Y42767D01*
G01X49867Y42706D01*
G01X49871Y42644D01*
G01X49872Y42583D01*
G01X49868Y42523D01*
G01X49860Y42466D01*
G01X49849Y42412D01*
G01X49833Y42364D01*
G01X49812Y42322D01*
G01X49777Y42272D01*
G01X49727Y42216D01*
G01X49669Y42160D01*
G01X49609Y42112D01*
G01X49468Y42009D01*
G01X49785Y41462D01*
G01X49828Y41388D01*
G01X49869Y41316D01*
G01X49908Y41248D01*
G01X49945Y41184D01*
G01X49978Y41124D01*
G01X50009Y41069D01*
G01X50035Y41020D01*
G01X50058Y40978D01*
G01X50077Y40943D01*
G01X50090Y40917D01*
G01X50099Y40899D01*
G01X50102Y40890D01*
G01X50094Y40885D01*
G01X50071Y40880D01*
G01X50035Y40876D01*
G01X49988Y40872D01*
G01X49931Y40869D01*
G01X49865Y40867D01*
G01X49793Y40866D01*
G01X49715Y40865D01*
G01X49329Y40865D01*
G01X49076Y41319D01*
G01X49030Y41402D01*
G01X48987Y41475D01*
G01X48949Y41539D01*
G01X48913Y41595D01*
G01X48881Y41642D01*
G01X48850Y41681D01*
G01X48822Y41714D01*
G01X48795Y41740D01*
G01X48770Y41760D01*
G01X48746Y41774D01*
G01X48721Y41784D01*
G01X48696Y41789D01*
G01X48655Y41793D01*
G01X48624Y41789D01*
G01X48601Y41773D01*
G01X48586Y41740D01*
G01X48576Y41684D01*
G01X48571Y41602D01*
G01X48569Y41487D01*
G01X48569Y41335D01*
G01X48569Y40865D01*
G37*

%LPC*%
G36*
G01X48580Y42578D02*
G01X48597Y42313D01*
G01X48794Y42321D01*
G01X48885Y42332D01*
G01X48967Y42356D01*
G01X49037Y42391D01*
G01X49093Y42437D01*
G01X49161Y42517D01*
G01X49187Y42574D01*
G01X49173Y42629D01*
G01X49121Y42699D01*
G01X49073Y42736D01*
G01X48998Y42769D01*
G01X48905Y42796D01*
G01X48805Y42814D01*
G01X48562Y42842D01*
G01X48580Y42578D01*
G37*

%LPD*%
G36*
G01X45901Y40865D02*
G01X45560Y40865D01*
G01X45427Y40868D01*
G01X45319Y40876D01*
G01X45246Y40888D01*
G01X45219Y40903D01*
G01X45220Y40909D01*
G01X45224Y40922D01*
G01X45231Y40943D01*
G01X45239Y40970D01*
G01X45251Y41003D01*
G01X45264Y41042D01*
G01X45279Y41088D01*
G01X45296Y41137D01*
G01X45315Y41192D01*
G01X45335Y41252D01*
G01X45357Y41315D01*
G01X45380Y41382D01*
G01X45404Y41452D01*
G01X45429Y41525D01*
G01X45456Y41602D01*
G01X45483Y41679D01*
G01X45511Y41760D01*
G01X45539Y41841D01*
G01X45568Y41923D01*
G01X45597Y42007D01*
G01X45656Y42174D01*
G01X45685Y42257D01*
G01X45714Y42340D01*
G01X45743Y42422D01*
G01X45771Y42501D01*
G01X45799Y42580D01*
G01X45826Y42655D01*
G01X45852Y42729D01*
G01X45876Y42799D01*
G01X45900Y42867D01*
G01X45923Y42930D01*
G01X45945Y42989D01*
G01X45964Y43044D01*
G01X45982Y43094D01*
G01X45998Y43139D01*
G01X46013Y43178D01*
G01X46025Y43212D01*
G01X46035Y43239D01*
G01X46044Y43260D01*
G01X46056Y43276D01*
G01X46079Y43289D01*
G01X46114Y43299D01*
G01X46162Y43306D01*
G01X46224Y43311D01*
G01X46301Y43313D01*
G01X46394Y43312D01*
G01X46504Y43309D01*
G01X46940Y43295D01*
G01X47326Y42215D01*
G01X47358Y42126D01*
G01X47389Y42039D01*
G01X47420Y41952D01*
G01X47450Y41868D01*
G01X47479Y41785D01*
G01X47507Y41705D01*
G01X47535Y41627D01*
G01X47560Y41552D01*
G01X47585Y41480D01*
G01X47609Y41413D01*
G01X47632Y41349D01*
G01X47652Y41289D01*
G01X47671Y41233D01*
G01X47688Y41183D01*
G01X47716Y41098D01*
G01X47728Y41064D01*
G01X47737Y41036D01*
G01X47743Y41014D01*
G01X47747Y41000D01*
G01X47783Y40865D01*
G01X47037Y40865D01*
G01X46973Y41086D01*
G01X46909Y41307D01*
G01X46038Y41307D01*
G01X45969Y41086D01*
G01X45901Y40865D01*
G37*

%LPC*%
G36*
G01X46380Y41800D02*
G01X46468Y41798D01*
G01X46528Y41798D01*
G01X46577Y41800D01*
G01X46617Y41805D01*
G01X46647Y41814D01*
G01X46668Y41829D01*
G01X46681Y41851D01*
G01X46685Y41881D01*
G01X46682Y41920D01*
G01X46672Y41970D01*
G01X46655Y42032D01*
G01X46632Y42109D01*
G01X46602Y42200D01*
G01X46564Y42310D01*
G01X46526Y42401D01*
G01X46494Y42462D01*
G01X46472Y42485D01*
G01X46461Y42474D01*
G01X46444Y42442D01*
G01X46423Y42395D01*
G01X46399Y42334D01*
G01X46372Y42264D01*
G01X46345Y42189D01*
G01X46318Y42112D01*
G01X46294Y42037D01*
G01X46273Y41967D01*
G01X46256Y41906D01*
G01X46245Y41858D01*
G01X46241Y41826D01*
G01X46259Y41815D01*
G01X46308Y41806D01*
G01X46380Y41800D01*
G37*

%LPD*%
G36*
G01X49491Y43918D02*
G01X49422Y43917D01*
G01X49354Y43918D01*
G01X49287Y43919D01*
G01X49221Y43920D01*
G01X49155Y43922D01*
G01X49089Y43925D01*
G01X49024Y43928D01*
G01X48960Y43932D01*
G01X48896Y43937D01*
G01X48833Y43943D01*
G01X48770Y43949D01*
G01X48708Y43956D01*
G01X48585Y43971D01*
G01X48524Y43980D01*
G01X48464Y43989D01*
G01X48405Y43999D01*
G01X48345Y44011D01*
G01X48287Y44022D01*
G01X48229Y44034D01*
G01X48171Y44047D01*
G01X48114Y44060D01*
G01X48057Y44075D01*
G01X48001Y44090D01*
G01X47945Y44105D01*
G01X47890Y44121D01*
G01X47835Y44139D01*
G01X47780Y44156D01*
G01X47727Y44175D01*
G01X47673Y44194D01*
G01X47619Y44214D01*
G01X47567Y44234D01*
G01X47514Y44255D01*
G01X47462Y44277D01*
G01X47410Y44300D01*
G01X47359Y44324D01*
G01X47308Y44347D01*
G01X47258Y44372D01*
G01X47207Y44398D01*
G01X47157Y44424D01*
G01X47108Y44451D01*
G01X47059Y44479D01*
G01X47010Y44507D01*
G01X46961Y44537D01*
G01X46913Y44567D01*
G01X46865Y44597D01*
G01X46817Y44629D01*
G01X46770Y44661D01*
G01X46722Y44694D01*
G01X46676Y44727D01*
G01X46629Y44762D01*
G01X46583Y44797D01*
G01X46536Y44833D01*
G01X46491Y44870D01*
G01X46445Y44907D01*
G01X46400Y44945D01*
G01X46355Y44984D01*
G01X46304Y45029D01*
G01X46255Y45074D01*
G01X46207Y45118D01*
G01X46161Y45163D01*
G01X46116Y45208D01*
G01X46072Y45253D01*
G01X46028Y45298D01*
G01X45987Y45343D01*
G01X45947Y45388D01*
G01X45907Y45434D01*
G01X45869Y45480D01*
G01X45832Y45526D01*
G01X45796Y45572D01*
G01X45762Y45619D01*
G01X45728Y45666D01*
G01X45695Y45713D01*
G01X45664Y45761D01*
G01X45634Y45809D01*
G01X45604Y45857D01*
G01X45576Y45906D01*
G01X45549Y45955D01*
G01X45523Y46004D01*
G01X45498Y46055D01*
G01X45474Y46106D01*
G01X45450Y46156D01*
G01X45428Y46208D01*
G01X45407Y46261D01*
G01X45387Y46313D01*
G01X45368Y46367D01*
G01X45350Y46421D01*
G01X45332Y46475D01*
G01X45316Y46531D01*
G01X45300Y46587D01*
G01X45286Y46643D01*
G01X45272Y46700D01*
G01X45259Y46759D01*
G01X45247Y46818D01*
G01X45236Y46877D01*
G01X45225Y46938D01*
G01X45216Y46999D01*
G01X45208Y47054D01*
G01X45202Y47109D01*
G01X45197Y47164D01*
G01X45193Y47219D01*
G01X45190Y47274D01*
G01X45188Y47329D01*
G01X45188Y47384D01*
G01X45188Y47439D01*
G01X45190Y47493D01*
G01X45193Y47548D01*
G01X45196Y47603D01*
G01X45201Y47657D01*
G01X45207Y47711D01*
G01X45215Y47766D01*
G01X45223Y47820D01*
G01X45232Y47874D01*
G01X45242Y47928D01*
G01X45254Y47982D01*
G01X45266Y48035D01*
G01X45280Y48088D01*
G01X45294Y48142D01*
G01X45309Y48194D01*
G01X45326Y48247D01*
G01X45343Y48300D01*
G01X45362Y48352D01*
G01X45381Y48404D01*
G01X45401Y48456D01*
G01X45423Y48507D01*
G01X45445Y48559D01*
G01X45469Y48610D01*
G01X45493Y48660D01*
G01X45518Y48711D01*
G01X45544Y48761D01*
G01X45572Y48811D01*
G01X45600Y48860D01*
G01X45629Y48909D01*
G01X45658Y48957D01*
G01X45689Y49006D01*
G01X45721Y49054D01*
G01X45753Y49101D01*
G01X45787Y49149D01*
G01X45821Y49195D01*
G01X45856Y49241D01*
G01X45892Y49287D01*
G01X45929Y49332D01*
G01X45966Y49377D01*
G01X46004Y49422D01*
G01X46044Y49465D01*
G01X46084Y49509D01*
G01X46125Y49552D01*
G01X46167Y49595D01*
G01X46209Y49636D01*
G01X46252Y49677D01*
G01X46297Y49718D01*
G01X46341Y49759D01*
G01X46387Y49798D01*
G01X46433Y49837D01*
G01X46480Y49876D01*
G01X46528Y49914D01*
G01X46576Y49951D01*
G01X46626Y49987D01*
G01X46676Y50023D01*
G01X46726Y50059D01*
G01X46778Y50093D01*
G01X46830Y50127D01*
G01X46883Y50161D01*
G01X46936Y50193D01*
G01X46990Y50225D01*
G01X47045Y50256D01*
G01X47100Y50287D01*
G01X47156Y50317D01*
G01X47213Y50346D01*
G01X47270Y50374D01*
G01X47328Y50402D01*
G01X47387Y50428D01*
G01X47446Y50454D01*
G01X47506Y50479D01*
G01X47566Y50503D01*
G01X47627Y50527D01*
G01X47689Y50550D01*
G01X47743Y50569D01*
G01X47795Y50587D01*
G01X47845Y50603D01*
G01X47895Y50619D01*
G01X47946Y50633D01*
G01X47998Y50648D01*
G01X48052Y50661D01*
G01X48108Y50675D01*
G01X48169Y50689D01*
G01X48234Y50702D01*
G01X48304Y50717D01*
G01X48381Y50731D01*
G01X48465Y50747D01*
G01X48557Y50763D01*
G01X48657Y50781D01*
G01X48768Y50800D01*
G01X48800Y50804D01*
G01X48847Y50807D01*
G01X48909Y50811D01*
G01X48981Y50814D01*
G01X49062Y50817D01*
G01X49150Y50820D01*
G01X49241Y50822D01*
G01X49335Y50823D01*
G01X49399Y50823D01*
G01X49463Y50822D01*
G01X49527Y50821D01*
G01X49591Y50819D01*
G01X49656Y50816D01*
G01X49720Y50812D01*
G01X49784Y50808D01*
G01X49848Y50803D01*
G01X49912Y50796D01*
G01X49976Y50789D01*
G01X50040Y50782D01*
G01X50104Y50774D01*
G01X50167Y50765D01*
G01X50231Y50755D01*
G01X50294Y50745D01*
G01X50357Y50733D01*
G01X50420Y50721D01*
G01X50482Y50709D01*
G01X50544Y50695D01*
G01X50606Y50681D01*
G01X50668Y50666D01*
G01X50730Y50651D01*
G01X50791Y50634D01*
G01X50852Y50618D01*
G01X50913Y50600D01*
G01X50973Y50582D01*
G01X51033Y50563D01*
G01X51092Y50543D01*
G01X51151Y50523D01*
G01X51210Y50502D01*
G01X51268Y50480D01*
G01X51326Y50458D01*
G01X51383Y50434D01*
G01X51440Y50411D01*
G01X51496Y50386D01*
G01X51552Y50361D01*
G01X51607Y50336D01*
G01X51662Y50309D01*
G01X51716Y50282D01*
G01X51769Y50255D01*
G01X51811Y50232D01*
G01X51855Y50207D01*
G01X51900Y50180D01*
G01X51948Y50151D01*
G01X51996Y50120D01*
G01X52045Y50087D01*
G01X52096Y50053D01*
G01X52148Y50017D01*
G01X52201Y49979D01*
G01X52254Y49940D01*
G01X52308Y49899D01*
G01X52362Y49858D01*
G01X52417Y49816D01*
G01X52472Y49772D01*
G01X52528Y49727D01*
G01X52638Y49636D01*
G01X52693Y49589D01*
G01X52748Y49542D01*
G01X52803Y49494D01*
G01X52856Y49446D01*
G01X52910Y49398D01*
G01X52962Y49350D01*
G01X53013Y49301D01*
G01X53063Y49254D01*
G01X53112Y49205D01*
G01X53160Y49158D01*
G01X53206Y49111D01*
G01X53251Y49064D01*
G01X53294Y49018D01*
G01X53336Y48973D01*
G01X53375Y48928D01*
G01X53690Y48566D01*
G01X53939Y48862D01*
G01X53984Y48914D01*
G01X54028Y48966D01*
G01X54074Y49016D01*
G01X54119Y49067D01*
G01X54165Y49116D01*
G01X54212Y49165D01*
G01X54258Y49214D01*
G01X54306Y49261D01*
G01X54353Y49309D01*
G01X54402Y49355D01*
G01X54450Y49401D01*
G01X54499Y49447D01*
G01X54549Y49491D01*
G01X54598Y49536D01*
G01X54649Y49579D01*
G01X54699Y49622D01*
G01X54750Y49664D01*
G01X54852Y49746D01*
G01X54956Y49826D01*
G01X55008Y49864D01*
G01X55061Y49902D01*
G01X55114Y49939D01*
G01X55167Y49976D01*
G01X55220Y50012D01*
G01X55274Y50047D01*
G01X55328Y50081D01*
G01X55382Y50114D01*
G01X55436Y50147D01*
G01X55490Y50179D01*
G01X55545Y50210D01*
G01X55600Y50241D01*
G01X55655Y50270D01*
G01X55710Y50299D01*
G01X55765Y50327D01*
G01X55821Y50354D01*
G01X55876Y50380D01*
G01X55932Y50406D01*
G01X55988Y50431D01*
G01X56045Y50455D01*
G01X56101Y50478D01*
G01X56159Y50500D01*
G01X56217Y50522D01*
G01X56276Y50543D01*
G01X56335Y50563D01*
G01X56395Y50583D01*
G01X56454Y50601D01*
G01X56515Y50619D01*
G01X56575Y50636D01*
G01X56636Y50653D01*
G01X56697Y50668D01*
G01X56758Y50684D01*
G01X56882Y50711D01*
G01X56945Y50724D01*
G01X57007Y50735D01*
G01X57070Y50747D01*
G01X57133Y50757D01*
G01X57197Y50766D01*
G01X57260Y50775D01*
G01X57324Y50783D01*
G01X57388Y50791D01*
G01X57452Y50797D01*
G01X57516Y50803D01*
G01X57580Y50808D01*
G01X57644Y50813D01*
G01X57708Y50816D01*
G01X57772Y50819D01*
G01X57837Y50821D01*
G01X57901Y50822D01*
G01X57965Y50823D01*
G01X58030Y50823D01*
G01X58094Y50822D01*
G01X58158Y50820D01*
G01X58223Y50818D01*
G01X58287Y50815D01*
G01X58351Y50811D01*
G01X58414Y50806D01*
G01X58478Y50801D01*
G01X58542Y50795D01*
G01X58669Y50781D01*
G01X58732Y50772D01*
G01X58794Y50763D01*
G01X58857Y50753D01*
G01X58919Y50743D01*
G01X58982Y50731D01*
G01X59043Y50720D01*
G01X59105Y50707D01*
G01X59166Y50693D01*
G01X59227Y50679D01*
G01X59288Y50664D01*
G01X59348Y50649D01*
G01X59408Y50632D01*
G01X59466Y50615D01*
G01X59525Y50597D01*
G01X59584Y50579D01*
G01X59642Y50560D01*
G01X59700Y50539D01*
G01X59757Y50519D01*
G01X59813Y50497D01*
G01X59869Y50475D01*
G01X59925Y50452D01*
G01X59980Y50429D01*
G01X60034Y50404D01*
G01X60088Y50379D01*
G01X60142Y50353D01*
G01X60194Y50327D01*
G01X60246Y50300D01*
G01X60298Y50272D01*
G01X60348Y50243D01*
G01X60405Y50210D01*
G01X60461Y50176D01*
G01X60517Y50141D01*
G01X60571Y50106D01*
G01X60625Y50070D01*
G01X60678Y50033D01*
G01X60730Y49996D01*
G01X60781Y49958D01*
G01X60831Y49920D01*
G01X60881Y49881D01*
G01X60930Y49842D01*
G01X60977Y49802D01*
G01X61024Y49761D01*
G01X61070Y49721D01*
G01X61115Y49679D01*
G01X61160Y49637D01*
G01X61203Y49594D01*
G01X61246Y49551D01*
G01X61287Y49508D01*
G01X61328Y49464D01*
G01X61367Y49419D01*
G01X61407Y49375D01*
G01X61445Y49329D01*
G01X61482Y49284D01*
G01X61518Y49237D01*
G01X61553Y49191D01*
G01X61588Y49144D01*
G01X61621Y49097D01*
G01X61654Y49049D01*
G01X61685Y49001D01*
G01X61716Y48953D01*
G01X61746Y48904D01*
G01X61775Y48855D01*
G01X61803Y48806D01*
G01X61830Y48756D01*
G01X61856Y48706D01*
G01X61881Y48655D01*
G01X61905Y48604D01*
G01X61928Y48554D01*
G01X61951Y48502D01*
G01X61971Y48451D01*
G01X61992Y48399D01*
G01X62011Y48347D01*
G01X62029Y48295D01*
G01X62047Y48243D01*
G01X62063Y48190D01*
G01X62079Y48138D01*
G01X62093Y48084D01*
G01X62106Y48031D01*
G01X62119Y47978D01*
G01X62130Y47924D01*
G01X62140Y47870D01*
G01X62150Y47817D01*
G01X62158Y47763D01*
G01X62165Y47709D01*
G01X62172Y47654D01*
G01X62177Y47600D01*
G01X62181Y47546D01*
G01X62184Y47491D01*
G01X62186Y47437D01*
G01X62187Y47382D01*
G01X62187Y47327D01*
G01X62186Y47273D01*
G01X62184Y47218D01*
G01X62181Y47163D01*
G01X62177Y47108D01*
G01X62172Y47054D01*
G01X62166Y46999D01*
G01X62158Y46944D01*
G01X62150Y46889D01*
G01X62141Y46835D01*
G01X62130Y46780D01*
G01X62118Y46725D01*
G01X62106Y46670D01*
G01X62092Y46616D01*
G01X62077Y46561D01*
G01X62061Y46507D01*
G01X62044Y46453D01*
G01X62025Y46399D01*
G01X62006Y46344D01*
G01X61985Y46290D01*
G01X61964Y46237D01*
G01X61941Y46183D01*
G01X61917Y46129D01*
G01X61895Y46081D01*
G01X61871Y46033D01*
G01X61846Y45986D01*
G01X61820Y45938D01*
G01X61793Y45891D01*
G01X61765Y45843D01*
G01X61736Y45797D01*
G01X61706Y45750D01*
G01X61675Y45704D01*
G01X61643Y45658D01*
G01X61610Y45612D01*
G01X61576Y45567D01*
G01X61541Y45522D01*
G01X61505Y45477D01*
G01X61468Y45433D01*
G01X61430Y45389D01*
G01X61392Y45346D01*
G01X61353Y45303D01*
G01X61313Y45260D01*
G01X61272Y45218D01*
G01X61230Y45176D01*
G01X61188Y45135D01*
G01X61144Y45094D01*
G01X61100Y45054D01*
G01X61056Y45014D01*
G01X61010Y44975D01*
G01X60964Y44936D01*
G01X60917Y44898D01*
G01X60870Y44860D01*
G01X60822Y44823D01*
G01X60773Y44786D01*
G01X60724Y44751D01*
G01X60673Y44715D01*
G01X60623Y44681D01*
G01X60572Y44646D01*
G01X60520Y44613D01*
G01X60468Y44580D01*
G01X60415Y44548D01*
G01X60362Y44516D01*
G01X60308Y44485D01*
G01X60254Y44455D01*
G01X60200Y44426D01*
G01X60145Y44397D01*
G01X60089Y44369D01*
G01X60033Y44342D01*
G01X59977Y44315D01*
G01X59920Y44289D01*
G01X59863Y44265D01*
G01X59806Y44240D01*
G01X59748Y44217D01*
G01X59691Y44194D01*
G01X59632Y44173D01*
G01X59574Y44152D01*
G01X59515Y44132D01*
G01X59456Y44113D01*
G01X59396Y44094D01*
G01X59337Y44077D01*
G01X59278Y44061D01*
G01X59218Y44045D01*
G01X59158Y44031D01*
G01X59112Y44021D01*
G01X59064Y44011D01*
G01X59013Y44001D01*
G01X58961Y43993D01*
G01X58906Y43984D01*
G01X58849Y43977D01*
G01X58791Y43969D01*
G01X58731Y43962D01*
G01X58670Y43956D01*
G01X58608Y43950D01*
G01X58544Y43944D01*
G01X58479Y43939D01*
G01X58414Y43935D01*
G01X58348Y43931D01*
G01X58281Y43928D01*
G01X58213Y43925D01*
G01X58146Y43922D01*
G01X58078Y43920D01*
G01X58010Y43919D01*
G01X57942Y43918D01*
G01X57806Y43918D01*
G01X57740Y43919D01*
G01X57673Y43920D01*
G01X57608Y43922D01*
G01X57543Y43924D01*
G01X57479Y43927D01*
G01X57416Y43931D01*
G01X57355Y43935D01*
G01X57295Y43939D01*
G01X57237Y43945D01*
G01X57180Y43950D01*
G01X57125Y43957D01*
G01X57072Y43963D01*
G01X57021Y43971D01*
G01X56973Y43979D01*
G01X56916Y43989D01*
G01X56859Y44000D01*
G01X56803Y44012D01*
G01X56747Y44025D01*
G01X56691Y44038D01*
G01X56635Y44052D01*
G01X56580Y44067D01*
G01X56524Y44083D01*
G01X56469Y44099D01*
G01X56414Y44116D01*
G01X56360Y44134D01*
G01X56305Y44152D01*
G01X56251Y44171D01*
G01X56196Y44191D01*
G01X56143Y44212D01*
G01X56089Y44233D01*
G01X56036Y44255D01*
G01X55983Y44278D01*
G01X55930Y44301D01*
G01X55877Y44326D01*
G01X55825Y44350D01*
G01X55772Y44376D01*
G01X55720Y44403D01*
G01X55669Y44430D01*
G01X55617Y44458D01*
G01X55566Y44486D01*
G01X55515Y44516D01*
G01X55464Y44546D01*
G01X55414Y44576D01*
G01X55364Y44607D01*
G01X55314Y44639D01*
G01X55264Y44672D01*
G01X55215Y44706D01*
G01X55166Y44740D01*
G01X55117Y44775D01*
G01X55068Y44810D01*
G01X54972Y44883D01*
G01X54924Y44921D01*
G01X54877Y44960D01*
G01X54829Y44999D01*
G01X54782Y45038D01*
G01X54736Y45079D01*
G01X54689Y45120D01*
G01X54598Y45204D01*
G01X54552Y45247D01*
G01X54507Y45291D01*
G01X54462Y45335D01*
G01X54417Y45381D01*
G01X54329Y45473D01*
G01X54285Y45520D01*
G01X54242Y45568D01*
G01X54199Y45617D01*
G01X54156Y45666D01*
G01X54114Y45716D01*
G01X54072Y45767D01*
G01X54030Y45818D01*
G01X53989Y45870D01*
G01X53933Y45939D01*
G01X53880Y46004D01*
G01X53831Y46063D01*
G01X53786Y46114D01*
G01X53748Y46156D01*
G01X53717Y46188D01*
G01X53695Y46208D01*
G01X53683Y46215D01*
G01X53671Y46208D01*
G01X53650Y46188D01*
G01X53621Y46157D01*
G01X53585Y46117D01*
G01X53543Y46067D01*
G01X53496Y46012D01*
G01X53447Y45950D01*
G01X53395Y45883D01*
G01X53372Y45855D01*
G01X53346Y45823D01*
G01X53316Y45789D01*
G01X53284Y45753D01*
G01X53249Y45714D01*
G01X53211Y45674D01*
G01X53171Y45632D01*
G01X53129Y45588D01*
G01X53085Y45544D01*
G01X53039Y45498D01*
G01X52992Y45452D01*
G01X52944Y45405D01*
G01X52895Y45357D01*
G01X52845Y45310D01*
G01X52795Y45263D01*
G01X52744Y45216D01*
G01X52693Y45169D01*
G01X52643Y45124D01*
G01X52593Y45079D01*
G01X52543Y45036D01*
G01X52490Y44990D01*
G01X52438Y44945D01*
G01X52385Y44902D01*
G01X52334Y44860D01*
G01X52283Y44819D01*
G01X52232Y44779D01*
G01X52182Y44740D01*
G01X52131Y44702D01*
G01X52082Y44666D01*
G01X52032Y44630D01*
G01X51983Y44596D01*
G01X51933Y44562D01*
G01X51884Y44530D01*
G01X51835Y44499D01*
G01X51786Y44468D01*
G01X51737Y44439D01*
G01X51688Y44410D01*
G01X51639Y44383D01*
G01X51590Y44357D01*
G01X51541Y44331D01*
G01X51491Y44306D01*
G01X51442Y44282D01*
G01X51392Y44260D01*
G01X51343Y44238D01*
G01X51292Y44216D01*
G01X51241Y44196D01*
G01X51191Y44177D01*
G01X51139Y44158D01*
G01X51088Y44140D01*
G01X51035Y44123D01*
G01X50983Y44107D01*
G01X50930Y44091D01*
G01X50876Y44077D01*
G01X50821Y44063D01*
G01X50766Y44050D01*
G01X50711Y44037D01*
G01X50654Y44025D01*
G01X50597Y44014D01*
G01X50539Y44003D01*
G01X50480Y43994D01*
G01X50421Y43985D01*
G01X50361Y43976D01*
G01X50299Y43968D01*
G01X50237Y43961D01*
G01X50174Y43954D01*
G01X50109Y43948D01*
G01X50044Y43943D01*
G01X49978Y43937D01*
G01X49910Y43933D01*
G01X49841Y43929D01*
G01X49771Y43926D01*
G01X49700Y43923D01*
G01X49630Y43921D01*
G01X49560Y43919D01*
G01X49491Y43918D01*
G37*

%LPC*%
G36*
G01X57883Y45141D02*
G01X57951Y45141D01*
G01X58019Y45141D01*
G01X58086Y45142D01*
G01X58152Y45143D01*
G01X58217Y45146D01*
G01X58281Y45150D01*
G01X58343Y45155D01*
G01X58404Y45160D01*
G01X58463Y45166D01*
G01X58520Y45174D01*
G01X58574Y45183D01*
G01X58638Y45194D01*
G01X58701Y45206D01*
G01X58764Y45220D01*
G01X58826Y45235D01*
G01X58887Y45252D01*
G01X58948Y45269D01*
G01X59008Y45287D01*
G01X59068Y45307D01*
G01X59127Y45327D01*
G01X59185Y45349D01*
G01X59242Y45372D01*
G01X59298Y45396D01*
G01X59354Y45421D01*
G01X59409Y45447D01*
G01X59463Y45474D01*
G01X59516Y45502D01*
G01X59569Y45531D01*
G01X59620Y45561D01*
G01X59671Y45592D01*
G01X59721Y45623D01*
G01X59770Y45657D01*
G01X59818Y45690D01*
G01X59864Y45725D01*
G01X59910Y45760D01*
G01X59956Y45796D01*
G01X59999Y45833D01*
G01X60043Y45871D01*
G01X60084Y45910D01*
G01X60125Y45950D01*
G01X60165Y45990D01*
G01X60204Y46031D01*
G01X60241Y46073D01*
G01X60277Y46116D01*
G01X60313Y46159D01*
G01X60347Y46203D01*
G01X60380Y46248D01*
G01X60411Y46293D01*
G01X60442Y46339D01*
G01X60471Y46386D01*
G01X60499Y46433D01*
G01X60526Y46481D01*
G01X60551Y46530D01*
G01X60575Y46579D01*
G01X60598Y46628D01*
G01X60619Y46679D01*
G01X60639Y46729D01*
G01X60658Y46781D01*
G01X60675Y46833D01*
G01X60691Y46885D01*
G01X60706Y46938D01*
G01X60718Y46991D01*
G01X60729Y47044D01*
G01X60740Y47098D01*
G01X60747Y47152D01*
G01X60754Y47205D01*
G01X60758Y47259D01*
G01X60761Y47313D01*
G01X60762Y47366D01*
G01X60761Y47420D01*
G01X60759Y47474D01*
G01X60755Y47527D01*
G01X60749Y47580D01*
G01X60742Y47633D01*
G01X60733Y47686D01*
G01X60723Y47738D01*
G01X60711Y47791D01*
G01X60697Y47842D01*
G01X60682Y47894D01*
G01X60666Y47946D01*
G01X60648Y47996D01*
G01X60628Y48047D01*
G01X60607Y48097D01*
G01X60585Y48147D01*
G01X60561Y48197D01*
G01X60536Y48245D01*
G01X60509Y48294D01*
G01X60481Y48342D01*
G01X60452Y48389D01*
G01X60422Y48436D01*
G01X60390Y48483D01*
G01X60357Y48528D01*
G01X60322Y48573D01*
G01X60286Y48617D01*
G01X60250Y48661D01*
G01X60212Y48704D01*
G01X60172Y48746D01*
G01X60132Y48788D01*
G01X60090Y48828D01*
G01X60048Y48868D01*
G01X60003Y48907D01*
G01X59959Y48946D01*
G01X59913Y48983D01*
G01X59865Y49019D01*
G01X59818Y49055D01*
G01X59768Y49090D01*
G01X59718Y49124D01*
G01X59667Y49156D01*
G01X59615Y49188D01*
G01X59561Y49219D01*
G01X59508Y49248D01*
G01X59453Y49277D01*
G01X59397Y49304D01*
G01X59340Y49330D01*
G01X59283Y49356D01*
G01X59224Y49380D01*
G01X59165Y49403D01*
G01X59105Y49424D01*
G01X59044Y49445D01*
G01X58982Y49463D01*
G01X58920Y49481D01*
G01X58857Y49498D01*
G01X58793Y49513D01*
G01X58739Y49524D01*
G01X58679Y49535D01*
G01X58615Y49546D01*
G01X58547Y49555D01*
G01X58476Y49564D01*
G01X58404Y49572D01*
G01X58332Y49579D01*
G01X58259Y49585D01*
G01X58188Y49590D01*
G01X58120Y49594D01*
G01X58055Y49596D01*
G01X57994Y49596D01*
G01X57932Y49596D01*
G01X57870Y49594D01*
G01X57810Y49591D01*
G01X57749Y49588D01*
G01X57690Y49584D01*
G01X57630Y49579D01*
G01X57571Y49573D01*
G01X57513Y49567D01*
G01X57454Y49559D01*
G01X57397Y49550D01*
G01X57339Y49541D01*
G01X57283Y49530D01*
G01X57227Y49519D01*
G01X57170Y49507D01*
G01X57115Y49493D01*
G01X57060Y49479D01*
G01X57005Y49464D01*
G01X56950Y49448D01*
G01X56896Y49430D01*
G01X56842Y49413D01*
G01X56789Y49394D01*
G01X56735Y49374D01*
G01X56683Y49353D01*
G01X56630Y49331D01*
G01X56577Y49308D01*
G01X56526Y49284D01*
G01X56474Y49259D01*
G01X56423Y49234D01*
G01X56371Y49207D01*
G01X56320Y49179D01*
G01X56269Y49150D01*
G01X56219Y49120D01*
G01X56169Y49089D01*
G01X56118Y49058D01*
G01X56068Y49025D01*
G01X56019Y48991D01*
G01X55969Y48955D01*
G01X55920Y48919D01*
G01X55870Y48882D01*
G01X55821Y48844D01*
G01X55772Y48805D01*
G01X55723Y48764D01*
G01X55674Y48723D01*
G01X55626Y48681D01*
G01X55577Y48637D01*
G01X55528Y48592D01*
G01X55480Y48547D01*
G01X55432Y48500D01*
G01X55384Y48452D01*
G01X55335Y48403D01*
G01X55287Y48352D01*
G01X55239Y48301D01*
G01X55191Y48249D01*
G01X55143Y48195D01*
G01X55095Y48141D01*
G01X55047Y48085D01*
G01X54976Y48003D01*
G01X54912Y47928D01*
G01X54854Y47860D01*
G01X54802Y47798D01*
G01X54755Y47741D01*
G01X54715Y47690D01*
G01X54680Y47643D01*
G01X54651Y47600D01*
G01X54627Y47559D01*
G01X54608Y47522D01*
G01X54596Y47486D01*
G01X54588Y47452D01*
G01X54586Y47419D01*
G01X54589Y47386D01*
G01X54596Y47353D01*
G01X54609Y47319D01*
G01X54626Y47283D01*
G01X54649Y47245D01*
G01X54675Y47204D01*
G01X54707Y47160D01*
G01X54743Y47112D01*
G01X54783Y47060D01*
G01X54827Y47003D01*
G01X54876Y46940D01*
G01X54932Y46868D01*
G01X54986Y46798D01*
G01X55041Y46730D01*
G01X55095Y46663D01*
G01X55147Y46599D01*
G01X55200Y46536D01*
G01X55252Y46475D01*
G01X55303Y46416D01*
G01X55354Y46359D01*
G01X55405Y46302D01*
G01X55455Y46248D01*
G01X55505Y46195D01*
G01X55554Y46144D01*
G01X55603Y46094D01*
G01X55651Y46047D01*
G01X55700Y46000D01*
G01X55748Y45955D01*
G01X55796Y45912D01*
G01X55843Y45869D01*
G01X55891Y45829D01*
G01X55938Y45790D01*
G01X55986Y45752D01*
G01X56032Y45715D01*
G01X56080Y45680D01*
G01X56126Y45646D01*
G01X56174Y45613D01*
G01X56220Y45582D01*
G01X56268Y45552D01*
G01X56315Y45523D01*
G01X56362Y45496D01*
G01X56409Y45470D01*
G01X56457Y45444D01*
G01X56504Y45420D01*
G01X56552Y45397D01*
G01X56600Y45375D01*
G01X56648Y45354D01*
G01X56697Y45334D01*
G01X56746Y45315D01*
G01X56795Y45297D01*
G01X56844Y45281D01*
G01X56890Y45266D01*
G01X56938Y45253D01*
G01X56989Y45240D01*
G01X57043Y45228D01*
G01X57100Y45217D01*
G01X57158Y45206D01*
G01X57218Y45196D01*
G01X57280Y45188D01*
G01X57344Y45179D01*
G01X57408Y45171D01*
G01X57474Y45165D01*
G01X57541Y45159D01*
G01X57609Y45154D01*
G01X57677Y45150D01*
G01X57745Y45146D01*
G01X57814Y45143D01*
G01X57883Y45141D01*
G37*
G36*
G01X49404Y45137D02*
G01X49475Y45136D01*
G01X49547Y45137D01*
G01X49618Y45138D01*
G01X49687Y45141D01*
G01X49756Y45144D01*
G01X49823Y45149D01*
G01X49888Y45155D01*
G01X49953Y45161D01*
G01X50016Y45169D01*
G01X50078Y45177D01*
G01X50140Y45187D01*
G01X50200Y45198D01*
G01X50259Y45210D01*
G01X50318Y45224D01*
G01X50375Y45238D01*
G01X50433Y45254D01*
G01X50489Y45271D01*
G01X50544Y45289D01*
G01X50600Y45309D01*
G01X50654Y45329D01*
G01X50708Y45351D01*
G01X50762Y45375D01*
G01X50815Y45399D01*
G01X50868Y45425D01*
G01X50921Y45453D01*
G01X50973Y45482D01*
G01X51026Y45512D01*
G01X51077Y45544D01*
G01X51130Y45577D01*
G01X51182Y45611D01*
G01X51234Y45647D01*
G01X51286Y45685D01*
G01X51338Y45725D01*
G01X51391Y45765D01*
G01X51444Y45807D01*
G01X51497Y45851D01*
G01X51550Y45897D01*
G01X51584Y45926D01*
G01X51620Y45960D01*
G01X51659Y45996D01*
G01X51699Y46036D01*
G01X51741Y46079D01*
G01X51786Y46123D01*
G01X51831Y46171D01*
G01X51877Y46220D01*
G01X51925Y46272D01*
G01X51974Y46325D01*
G01X52023Y46378D01*
G01X52073Y46434D01*
G01X52122Y46490D01*
G01X52221Y46602D01*
G01X52270Y46659D01*
G01X52318Y46716D01*
G01X52365Y46772D01*
G01X52411Y46827D01*
G01X52455Y46881D01*
G01X52498Y46935D01*
G01X52539Y46986D01*
G01X52579Y47036D01*
G01X52616Y47083D01*
G01X52650Y47129D01*
G01X52682Y47172D01*
G01X52711Y47213D01*
G01X52737Y47250D01*
G01X52759Y47284D01*
G01X52778Y47315D01*
G01X52793Y47341D01*
G01X52804Y47364D01*
G01X52806Y47378D01*
G01X52802Y47398D01*
G01X52792Y47425D01*
G01X52777Y47456D01*
G01X52757Y47493D01*
G01X52733Y47534D01*
G01X52704Y47579D01*
G01X52671Y47628D01*
G01X52635Y47680D01*
G01X52595Y47735D01*
G01X52552Y47793D01*
G01X52506Y47853D01*
G01X52459Y47914D01*
G01X52408Y47977D01*
G01X52356Y48041D01*
G01X52303Y48105D01*
G01X52248Y48169D01*
G01X52192Y48233D01*
G01X52137Y48296D01*
G01X52080Y48358D01*
G01X52024Y48417D01*
G01X51968Y48476D01*
G01X51914Y48532D01*
G01X51860Y48585D01*
G01X51818Y48625D01*
G01X51775Y48664D01*
G01X51732Y48702D01*
G01X51687Y48741D01*
G01X51642Y48778D01*
G01X51596Y48815D01*
G01X51549Y48852D01*
G01X51501Y48888D01*
G01X51452Y48923D01*
G01X51403Y48958D01*
G01X51353Y48992D01*
G01X51303Y49025D01*
G01X51252Y49058D01*
G01X51201Y49090D01*
G01X51149Y49121D01*
G01X51097Y49151D01*
G01X51044Y49180D01*
G01X50992Y49208D01*
G01X50939Y49236D01*
G01X50886Y49262D01*
G01X50833Y49288D01*
G01X50780Y49313D01*
G01X50727Y49336D01*
G01X50674Y49358D01*
G01X50621Y49380D01*
G01X50568Y49399D01*
G01X50516Y49418D01*
G01X50464Y49436D01*
G01X50411Y49452D01*
G01X50357Y49468D01*
G01X50299Y49482D01*
G01X50238Y49496D01*
G01X50176Y49509D01*
G01X50111Y49521D01*
G01X50045Y49532D01*
G01X49978Y49542D01*
G01X49908Y49551D01*
G01X49838Y49559D01*
G01X49768Y49567D01*
G01X49696Y49574D01*
G01X49624Y49579D01*
G01X49552Y49583D01*
G01X49480Y49587D01*
G01X49408Y49589D01*
G01X49336Y49591D01*
G01X49266Y49591D01*
G01X49196Y49590D01*
G01X49127Y49589D01*
G01X49060Y49586D01*
G01X48994Y49582D01*
G01X48930Y49578D01*
G01X48868Y49572D01*
G01X48808Y49565D01*
G01X48751Y49556D01*
G01X48696Y49547D01*
G01X48645Y49537D01*
G01X48583Y49522D01*
G01X48521Y49507D01*
G01X48461Y49490D01*
G01X48402Y49473D01*
G01X48343Y49455D01*
G01X48285Y49436D01*
G01X48229Y49415D01*
G01X48173Y49394D01*
G01X48117Y49372D01*
G01X48063Y49349D01*
G01X48010Y49325D01*
G01X47958Y49300D01*
G01X47906Y49274D01*
G01X47856Y49248D01*
G01X47806Y49221D01*
G01X47757Y49193D01*
G01X47709Y49164D01*
G01X47663Y49135D01*
G01X47617Y49104D01*
G01X47572Y49073D01*
G01X47528Y49041D01*
G01X47485Y49009D01*
G01X47443Y48976D01*
G01X47402Y48942D01*
G01X47362Y48908D01*
G01X47323Y48873D01*
G01X47285Y48837D01*
G01X47248Y48801D01*
G01X47211Y48763D01*
G01X47176Y48726D01*
G01X47142Y48688D01*
G01X47109Y48650D01*
G01X47077Y48611D01*
G01X47046Y48571D01*
G01X47016Y48531D01*
G01X46987Y48490D01*
G01X46960Y48449D01*
G01X46933Y48408D01*
G01X46907Y48366D01*
G01X46882Y48324D01*
G01X46858Y48281D01*
G01X46836Y48238D01*
G01X46815Y48195D01*
G01X46794Y48151D01*
G01X46775Y48107D01*
G01X46757Y48063D01*
G01X46740Y48018D01*
G01X46724Y47973D01*
G01X46709Y47928D01*
G01X46695Y47883D01*
G01X46683Y47837D01*
G01X46671Y47792D01*
G01X46661Y47746D01*
G01X46652Y47700D01*
G01X46644Y47653D01*
G01X46637Y47607D01*
G01X46631Y47560D01*
G01X46627Y47514D01*
G01X46623Y47467D01*
G01X46621Y47420D01*
G01X46620Y47374D01*
G01X46620Y47326D01*
G01X46622Y47280D01*
G01X46624Y47233D01*
G01X46628Y47186D01*
G01X46633Y47139D01*
G01X46639Y47092D01*
G01X46647Y47045D01*
G01X46655Y46999D01*
G01X46665Y46952D01*
G01X46677Y46906D01*
G01X46689Y46859D01*
G01X46702Y46813D01*
G01X46717Y46767D01*
G01X46733Y46721D01*
G01X46751Y46676D01*
G01X46770Y46630D01*
G01X46790Y46585D01*
G01X46811Y46540D01*
G01X46834Y46495D01*
G01X46857Y46451D01*
G01X46882Y46406D01*
G01X46909Y46363D01*
G01X46937Y46319D01*
G01X46966Y46276D01*
G01X46997Y46233D01*
G01X47028Y46190D01*
G01X47061Y46149D01*
G01X47096Y46107D01*
G01X47132Y46065D01*
G01X47169Y46025D01*
G01X47207Y45985D01*
G01X47247Y45945D01*
G01X47288Y45905D01*
G01X47331Y45866D01*
G01X47375Y45828D01*
G01X47421Y45790D01*
G01X47468Y45753D01*
G01X47514Y45717D01*
G01X47563Y45682D01*
G01X47611Y45648D01*
G01X47660Y45615D01*
G01X47710Y45584D01*
G01X47761Y45553D01*
G01X47812Y45524D01*
G01X47864Y45495D01*
G01X47917Y45469D01*
G01X47970Y45442D01*
G01X48025Y45417D01*
G01X48080Y45393D01*
G01X48136Y45370D01*
G01X48192Y45348D01*
G01X48249Y45327D01*
G01X48307Y45308D01*
G01X48365Y45289D01*
G01X48425Y45271D01*
G01X48485Y45255D01*
G01X48546Y45239D01*
G01X48607Y45225D01*
G01X48669Y45212D01*
G01X48732Y45200D01*
G01X48796Y45189D01*
G01X48860Y45178D01*
G01X48925Y45170D01*
G01X48992Y45162D01*
G01X49058Y45155D01*
G01X49126Y45149D01*
G01X49194Y45144D01*
G01X49263Y45141D01*
G01X49333Y45138D01*
G01X49404Y45137D01*
G37*

%LPD*%
G36*
G01X58221Y46461D02*
G01X57426Y46461D01*
G01X57426Y47099D01*
G01X56688Y47099D01*
G01X56688Y47836D01*
G01X57426Y47836D01*
G01X57426Y48474D01*
G01X58221Y48474D01*
G01X58221Y47840D01*
G01X58604Y47826D01*
G01X58987Y47811D01*
G01X58987Y47124D01*
G01X58604Y47109D01*
G01X58221Y47095D01*
G01X58221Y46461D01*
G37*

%LPC*%

%LPD*%
G36*
G01X50698Y47124D02*
G01X48171Y47098D01*
G01X48171Y47837D01*
G01X50698Y47811D01*
G01X50698Y47124D01*
G37*

%LPC*%

%LPD*%
G36*
G01X61352Y50249D02*
G01X61334Y50241D01*
G01X61316Y50251D01*
G01X61301Y50277D01*
G01X61291Y50316D01*
G01X61287Y50364D01*
G01X61282Y50411D01*
G01X61270Y50451D01*
G01X61252Y50477D01*
G01X61230Y50487D01*
G01X61208Y50491D01*
G01X61190Y50501D01*
G01X61178Y50517D01*
G01X61173Y50536D01*
G01X61191Y50555D01*
G01X61239Y50570D01*
G01X61310Y50581D01*
G01X61396Y50585D01*
G01X61510Y50580D01*
G01X61584Y50563D01*
G01X61631Y50530D01*
G01X61660Y50475D01*
G01X61700Y50366D01*
G01X61747Y50475D01*
G01X61774Y50528D01*
G01X61802Y50562D01*
G01X61830Y50579D01*
G01X61856Y50579D01*
G01X61878Y50563D01*
G01X61896Y50530D01*
G01X61907Y50482D01*
G01X61911Y50419D01*
G01X61906Y50333D01*
G01X61887Y50282D01*
G01X61843Y50259D01*
G01X61769Y50253D01*
G01X61714Y50258D01*
G01X61669Y50270D01*
G01X61638Y50287D01*
G01X61627Y50309D01*
G01X61622Y50324D01*
G01X61610Y50326D01*
G01X61592Y50314D01*
G01X61571Y50290D01*
G01X61544Y50261D01*
G01X61527Y50261D01*
G01X61518Y50292D01*
G01X61515Y50356D01*
G01X61510Y50414D01*
G01X61496Y50454D01*
G01X61474Y50473D01*
G01X61443Y50473D01*
G01X61416Y50457D01*
G01X61394Y50427D01*
G01X61380Y50389D01*
G01X61377Y50346D01*
G01X61375Y50306D01*
G01X61366Y50272D01*
G01X61352Y50249D01*
G37*

%LPC*%

%LPD*%
G36*
G01X29729Y53324D02*
G01X28647Y53324D01*
G01X28647Y53874D01*
G01X29716Y53874D01*
G01X29830Y53875D01*
G01X29935Y53876D01*
G01X30031Y53878D01*
G01X30119Y53881D01*
G01X30197Y53883D01*
G01X30267Y53887D01*
G01X30329Y53891D01*
G01X30382Y53895D01*
G01X30427Y53900D01*
G01X30464Y53906D01*
G01X30494Y53913D01*
G01X30516Y53921D01*
G01X30530Y53929D01*
G01X30537Y53937D01*
G01X30537Y53947D01*
G01X30530Y53958D01*
G01X30517Y53969D01*
G01X30496Y53981D01*
G01X30470Y53994D01*
G01X30454Y53998D01*
G01X30425Y54002D01*
G01X30385Y54005D01*
G01X30334Y54009D01*
G01X30274Y54012D01*
G01X30205Y54015D01*
G01X30128Y54018D01*
G01X30044Y54020D01*
G01X29955Y54022D01*
G01X29861Y54023D01*
G01X29764Y54024D01*
G01X29663Y54024D01*
G01X29545Y54024D01*
G01X29437Y54025D01*
G01X29340Y54026D01*
G01X29253Y54029D01*
G01X29174Y54032D01*
G01X29104Y54037D01*
G01X29043Y54043D01*
G01X28988Y54051D01*
G01X28940Y54061D01*
G01X28899Y54073D01*
G01X28863Y54087D01*
G01X28832Y54104D01*
G01X28805Y54123D01*
G01X28782Y54146D01*
G01X28762Y54171D01*
G01X28745Y54200D01*
G01X28729Y54233D01*
G01X28716Y54269D01*
G01X28703Y54308D01*
G01X28689Y54352D01*
G01X28675Y54411D01*
G01X28665Y54470D01*
G01X28660Y54529D01*
G01X28658Y54589D01*
G01X28660Y54648D01*
G01X28666Y54707D01*
G01X28677Y54763D01*
G01X28690Y54819D01*
G01X28707Y54873D01*
G01X28728Y54924D01*
G01X28751Y54972D01*
G01X28778Y55017D01*
G01X28808Y55059D01*
G01X28841Y55097D01*
G01X28877Y55130D01*
G01X28915Y55158D01*
G01X28932Y55166D01*
G01X28953Y55173D01*
G01X28981Y55180D01*
G01X29015Y55187D01*
G01X29056Y55193D01*
G01X29103Y55198D01*
G01X29158Y55202D01*
G01X29220Y55206D01*
G01X29290Y55210D01*
G01X29367Y55214D01*
G01X29453Y55216D01*
G01X29547Y55218D01*
G01X29649Y55220D01*
G01X29761Y55221D01*
G01X29882Y55222D01*
G01X30011Y55222D01*
G01X31010Y55224D01*
G01X31010Y54674D01*
G01X29955Y54674D01*
G01X29852Y54674D01*
G01X29755Y54672D01*
G01X29664Y54671D01*
G01X29579Y54669D01*
G01X29502Y54667D01*
G01X29431Y54664D01*
G01X29367Y54661D01*
G01X29310Y54658D01*
G01X29260Y54654D01*
G01X29218Y54650D01*
G01X29183Y54646D01*
G01X29156Y54640D01*
G01X29136Y54635D01*
G01X29124Y54630D01*
G01X29120Y54624D01*
G01X29126Y54617D01*
G01X29142Y54610D01*
G01X29169Y54603D01*
G01X29206Y54597D01*
G01X29254Y54592D01*
G01X29311Y54587D01*
G01X29377Y54584D01*
G01X29452Y54580D01*
G01X29537Y54577D01*
G01X29630Y54575D01*
G01X29731Y54574D01*
G01X29839Y54574D01*
G01X29946Y54573D01*
G01X30046Y54572D01*
G01X30139Y54571D01*
G01X30227Y54568D01*
G01X30308Y54564D01*
G01X30384Y54560D01*
G01X30455Y54554D01*
G01X30520Y54547D01*
G01X30580Y54538D01*
G01X30634Y54528D01*
G01X30685Y54516D01*
G01X30730Y54503D01*
G01X30772Y54488D01*
G01X30809Y54470D01*
G01X30842Y54452D01*
G01X30872Y54430D01*
G01X30898Y54407D01*
G01X30921Y54381D01*
G01X30940Y54353D01*
G01X30957Y54322D01*
G01X30971Y54289D01*
G01X30983Y54253D01*
G01X30992Y54214D01*
G01X30999Y54173D01*
G01X31004Y54128D01*
G01X31008Y54080D01*
G01X31009Y54029D01*
G01X31010Y53974D01*
G01X31010Y53921D01*
G01X31008Y53871D01*
G01X31005Y53824D01*
G01X31001Y53779D01*
G01X30996Y53738D01*
G01X30988Y53699D01*
G01X30979Y53662D01*
G01X30968Y53628D01*
G01X30954Y53596D01*
G01X30938Y53566D01*
G01X30919Y53539D01*
G01X30898Y53513D01*
G01X30873Y53490D01*
G01X30845Y53469D01*
G01X30814Y53449D01*
G01X30780Y53431D01*
G01X30742Y53415D01*
G01X30700Y53401D01*
G01X30654Y53388D01*
G01X30604Y53377D01*
G01X30550Y53367D01*
G01X30491Y53358D01*
G01X30428Y53351D01*
G01X30359Y53344D01*
G01X30285Y53339D01*
G01X30207Y53334D01*
G01X30123Y53331D01*
G01X30033Y53328D01*
G01X29937Y53326D01*
G01X29836Y53325D01*
G01X29729Y53324D01*
G37*

%LPC*%

%LPD*%
G36*
G01X26499Y53324D02*
G01X26197Y53324D01*
G01X26327Y53587D01*
G01X26342Y53617D01*
G01X26360Y53653D01*
G01X26381Y53696D01*
G01X26404Y53743D01*
G01X26429Y53795D01*
G01X26457Y53851D01*
G01X26486Y53911D01*
G01X26517Y53974D01*
G01X26549Y54040D01*
G01X26582Y54108D01*
G01X26616Y54178D01*
G01X26650Y54249D01*
G01X26755Y54466D01*
G01X26790Y54537D01*
G01X27122Y55225D01*
G01X27375Y55212D01*
G01X27628Y55199D01*
G01X28072Y54299D01*
G01X28117Y54207D01*
G01X28161Y54118D01*
G01X28204Y54030D01*
G01X28245Y53947D01*
G01X28283Y53867D01*
G01X28320Y53791D01*
G01X28355Y53719D01*
G01X28386Y53652D01*
G01X28415Y53591D01*
G01X28441Y53537D01*
G01X28463Y53488D01*
G01X28482Y53447D01*
G01X28497Y53414D01*
G01X28508Y53388D01*
G01X28515Y53370D01*
G01X28518Y53362D01*
G01X28496Y53347D01*
G01X28438Y53335D01*
G01X28350Y53327D01*
G01X28244Y53324D01*
G01X28161Y53325D01*
G01X28096Y53328D01*
G01X28044Y53334D01*
G01X28004Y53345D01*
G01X27972Y53360D01*
G01X27946Y53383D01*
G01X27922Y53412D01*
G01X27899Y53449D01*
G01X27875Y53489D01*
G01X27850Y53520D01*
G01X27819Y53542D01*
G01X27774Y53557D01*
G01X27713Y53567D01*
G01X27628Y53572D01*
G01X27513Y53574D01*
G01X27364Y53574D01*
G01X27214Y53574D01*
G01X27099Y53572D01*
G01X27015Y53567D01*
G01X26956Y53557D01*
G01X26915Y53542D01*
G01X26887Y53520D01*
G01X26868Y53490D01*
G01X26851Y53449D01*
G01X26834Y53411D01*
G01X26816Y53381D01*
G01X26794Y53359D01*
G01X26763Y53343D01*
G01X26722Y53333D01*
G01X26666Y53327D01*
G01X26593Y53325D01*
G01X26499Y53324D01*
G37*

%LPC*%
G36*
G01X27230Y54134D02*
G01X27266Y54127D01*
G01X27321Y54128D01*
G01X27394Y54134D01*
G01X27568Y54149D01*
G01X27469Y54339D01*
G01X27370Y54530D01*
G01X27277Y54345D01*
G01X27240Y54272D01*
G01X27217Y54217D01*
G01X27206Y54176D01*
G01X27210Y54149D01*
G01X27230Y54134D01*
G37*

%LPD*%
G36*
G01X24930Y53324D02*
G01X23750Y53324D01*
G01X23750Y55229D01*
G01X24785Y55214D01*
G01X25819Y55199D01*
G01X25945Y55036D01*
G01X25973Y54999D01*
G01X25997Y54965D01*
G01X26016Y54932D01*
G01X26032Y54899D01*
G01X26044Y54861D01*
G01X26053Y54817D01*
G01X26060Y54764D01*
G01X26065Y54701D01*
G01X26068Y54624D01*
G01X26069Y54530D01*
G01X26070Y54418D01*
G01X26070Y54284D01*
G01X26070Y54208D01*
G01X26070Y54135D01*
G01X26069Y54066D01*
G01X26068Y54001D01*
G01X26065Y53940D01*
G01X26062Y53883D01*
G01X26059Y53830D01*
G01X26053Y53780D01*
G01X26047Y53733D01*
G01X26039Y53690D01*
G01X26028Y53650D01*
G01X26017Y53613D01*
G01X26003Y53579D01*
G01X25987Y53548D01*
G01X25968Y53519D01*
G01X25947Y53493D01*
G01X25923Y53469D01*
G01X25896Y53448D01*
G01X25866Y53429D01*
G01X25832Y53412D01*
G01X25796Y53396D01*
G01X25756Y53383D01*
G01X25711Y53372D01*
G01X25664Y53362D01*
G01X25611Y53354D01*
G01X25555Y53347D01*
G01X25494Y53341D01*
G01X25428Y53336D01*
G01X25358Y53332D01*
G01X25283Y53329D01*
G01X25203Y53327D01*
G01X25117Y53326D01*
G01X25026Y53325D01*
G01X24930Y53324D01*
G37*

%LPC*%
G36*
G01X24222Y54674D02*
G01X24222Y53874D01*
G01X24963Y53874D01*
G01X25059Y53876D01*
G01X25146Y53878D01*
G01X25223Y53881D01*
G01X25292Y53884D01*
G01X25353Y53889D01*
G01X25405Y53894D01*
G01X25449Y53900D01*
G01X25485Y53907D01*
G01X25513Y53916D01*
G01X25533Y53924D01*
G01X25546Y53934D01*
G01X25561Y53962D01*
G01X25574Y54006D01*
G01X25583Y54062D01*
G01X25591Y54128D01*
G01X25595Y54200D01*
G01X25596Y54274D01*
G01X25595Y54349D01*
G01X25591Y54421D01*
G01X25583Y54486D01*
G01X25574Y54542D01*
G01X25561Y54586D01*
G01X25546Y54614D01*
G01X25533Y54624D01*
G01X25513Y54633D01*
G01X25485Y54641D01*
G01X25449Y54648D01*
G01X25405Y54654D01*
G01X25353Y54660D01*
G01X25292Y54664D01*
G01X25223Y54668D01*
G01X25146Y54670D01*
G01X25059Y54672D01*
G01X24963Y54674D01*
G01X24222Y54674D01*
G37*

%LPD*%
G36*
G01X30312Y55524D02*
G01X30014Y55524D01*
G01X30158Y55817D01*
G01X30174Y55850D01*
G01X30193Y55889D01*
G01X30215Y55933D01*
G01X30239Y55982D01*
G01X30265Y56035D01*
G01X30293Y56093D01*
G01X30323Y56153D01*
G01X30354Y56217D01*
G01X30386Y56282D01*
G01X30419Y56350D01*
G01X30453Y56419D01*
G01X30487Y56489D01*
G01X30522Y56559D01*
G01X30556Y56630D01*
G01X30590Y56699D01*
G01X30624Y56768D01*
G01X30946Y57427D01*
G01X31197Y57413D01*
G01X31447Y57399D01*
G01X31879Y56524D01*
G01X31922Y56435D01*
G01X31965Y56347D01*
G01X32007Y56262D01*
G01X32047Y56179D01*
G01X32086Y56100D01*
G01X32122Y56025D01*
G01X32157Y55954D01*
G01X32189Y55888D01*
G01X32218Y55827D01*
G01X32245Y55771D01*
G01X32268Y55723D01*
G01X32288Y55680D01*
G01X32305Y55645D01*
G01X32317Y55617D01*
G01X32326Y55598D01*
G01X32330Y55587D01*
G01X32325Y55557D01*
G01X32283Y55538D01*
G01X32200Y55527D01*
G01X32068Y55524D01*
G01X31983Y55525D01*
G01X31915Y55528D01*
G01X31861Y55534D01*
G01X31820Y55545D01*
G01X31788Y55560D01*
G01X31761Y55582D01*
G01X31738Y55612D01*
G01X31715Y55649D01*
G01X31691Y55689D01*
G01X31666Y55719D01*
G01X31634Y55742D01*
G01X31590Y55757D01*
G01X31528Y55766D01*
G01X31442Y55772D01*
G01X31326Y55774D01*
G01X31176Y55774D01*
G01X31024Y55774D01*
G01X30909Y55772D01*
G01X30824Y55767D01*
G01X30763Y55758D01*
G01X30723Y55742D01*
G01X30695Y55720D01*
G01X30676Y55690D01*
G01X30659Y55649D01*
G01X30642Y55611D01*
G01X30624Y55581D01*
G01X30602Y55559D01*
G01X30572Y55543D01*
G01X30531Y55533D01*
G01X30476Y55527D01*
G01X30404Y55525D01*
G01X30312Y55524D01*
G37*

%LPC*%
G36*
G01X31088Y56329D02*
G01X31143Y56328D01*
G01X31218Y56334D01*
G01X31391Y56349D01*
G01X31292Y56540D01*
G01X31193Y56731D01*
G01X31096Y56550D01*
G01X31060Y56477D01*
G01X31035Y56422D01*
G01X31025Y56381D01*
G01X31030Y56353D01*
G01X31050Y56336D01*
G01X31088Y56329D01*
G37*

%LPD*%
G36*
G01X27316Y55524D02*
G01X24953Y55524D01*
G01X24953Y57424D01*
G01X27316Y57424D01*
G01X27316Y56874D01*
G01X26222Y56874D01*
G01X26090Y56874D01*
G01X25974Y56873D01*
G01X25871Y56872D01*
G01X25782Y56870D01*
G01X25705Y56868D01*
G01X25640Y56865D01*
G01X25585Y56861D01*
G01X25541Y56856D01*
G01X25505Y56851D01*
G01X25477Y56844D01*
G01X25456Y56837D01*
G01X25441Y56828D01*
G01X25432Y56818D01*
G01X25427Y56807D01*
G01X25425Y56795D01*
G01X25427Y56782D01*
G01X25432Y56772D01*
G01X25441Y56762D01*
G01X25455Y56753D01*
G01X25476Y56746D01*
G01X25503Y56740D01*
G01X25539Y56735D01*
G01X25583Y56732D01*
G01X25637Y56729D01*
G01X25702Y56727D01*
G01X25779Y56726D01*
G01X25868Y56726D01*
G01X25972Y56727D01*
G01X26089Y56728D01*
G01X26221Y56730D01*
G01X26371Y56732D01*
G01X27316Y56749D01*
G01X27316Y56224D01*
G01X26226Y56224D01*
G01X26097Y56223D01*
G01X25982Y56223D01*
G01X25881Y56221D01*
G01X25792Y56220D01*
G01X25715Y56217D01*
G01X25649Y56214D01*
G01X25594Y56211D01*
G01X25548Y56207D01*
G01X25511Y56201D01*
G01X25481Y56195D01*
G01X25459Y56188D01*
G01X25443Y56180D01*
G01X25433Y56171D01*
G01X25427Y56160D01*
G01X25425Y56149D01*
G01X25427Y56138D01*
G01X25433Y56127D01*
G01X25443Y56118D01*
G01X25459Y56110D01*
G01X25481Y56103D01*
G01X25511Y56097D01*
G01X25548Y56092D01*
G01X25594Y56087D01*
G01X25649Y56084D01*
G01X25715Y56081D01*
G01X25792Y56079D01*
G01X25881Y56077D01*
G01X25982Y56076D01*
G01X26097Y56075D01*
G01X26226Y56074D01*
G01X27316Y56074D01*
G01X27316Y55524D01*
G37*

%LPC*%

%LPD*%
G36*
G01X22805Y55524D02*
G01X22332Y55524D01*
G01X22332Y56474D01*
G01X22333Y56571D01*
G01X22333Y56665D01*
G01X22333Y56756D01*
G01X22334Y56843D01*
G01X22335Y56926D01*
G01X22336Y57004D01*
G01X22337Y57077D01*
G01X22339Y57145D01*
G01X22340Y57206D01*
G01X22342Y57261D01*
G01X22344Y57309D01*
G01X22346Y57349D01*
G01X22348Y57381D01*
G01X22350Y57405D01*
G01X22352Y57419D01*
G01X22355Y57424D01*
G01X22363Y57421D01*
G01X22380Y57412D01*
G01X22408Y57398D01*
G01X22443Y57379D01*
G01X22487Y57355D01*
G01X22537Y57327D01*
G01X22593Y57295D01*
G01X22655Y57260D01*
G01X22722Y57222D01*
G01X22793Y57181D01*
G01X22867Y57138D01*
G01X22944Y57093D01*
G01X23512Y56762D01*
G01X24082Y57093D01*
G01X24159Y57138D01*
G01X24234Y57181D01*
G01X24306Y57222D01*
G01X24373Y57260D01*
G01X24435Y57295D01*
G01X24492Y57327D01*
G01X24542Y57355D01*
G01X24585Y57379D01*
G01X24621Y57398D01*
G01X24648Y57412D01*
G01X24666Y57421D01*
G01X24674Y57424D01*
G01X24676Y57419D01*
G01X24678Y57405D01*
G01X24680Y57381D01*
G01X24682Y57349D01*
G01X24684Y57309D01*
G01X24686Y57261D01*
G01X24687Y57206D01*
G01X24689Y57145D01*
G01X24690Y57077D01*
G01X24691Y57004D01*
G01X24692Y56926D01*
G01X24693Y56843D01*
G01X24694Y56756D01*
G01X24695Y56665D01*
G01X24695Y55524D01*
G01X24222Y55524D01*
G01X24222Y56475D01*
G01X23870Y56269D01*
G01X23517Y56062D01*
G01X23161Y56268D01*
G01X22805Y56473D01*
G01X22805Y55524D01*
G37*

%LPC*%

%LPD*%
G36*
G01X28802Y55524D02*
G01X28619Y55524D01*
G01X28539Y55525D01*
G01X28463Y55525D01*
G01X28391Y55527D01*
G01X28323Y55528D01*
G01X28259Y55531D01*
G01X28198Y55535D01*
G01X28141Y55539D01*
G01X28087Y55544D01*
G01X28036Y55551D01*
G01X27989Y55559D01*
G01X27945Y55569D01*
G01X27903Y55579D01*
G01X27865Y55592D01*
G01X27829Y55607D01*
G01X27797Y55623D01*
G01X27766Y55642D01*
G01X27739Y55663D01*
G01X27713Y55685D01*
G01X27691Y55711D01*
G01X27670Y55739D01*
G01X27651Y55770D01*
G01X27635Y55803D01*
G01X27620Y55840D01*
G01X27608Y55879D01*
G01X27597Y55922D01*
G01X27587Y55967D01*
G01X27579Y56017D01*
G01X27573Y56069D01*
G01X27568Y56126D01*
G01X27564Y56186D01*
G01X27561Y56250D01*
G01X27560Y56318D01*
G01X27559Y56391D01*
G01X27559Y56467D01*
G01X27560Y56548D01*
G01X27561Y56633D01*
G01X27563Y56723D01*
G01X27566Y56817D01*
G01X27569Y56917D01*
G01X27572Y56961D01*
G01X27579Y57003D01*
G01X27591Y57044D01*
G01X27606Y57084D01*
G01X27627Y57126D01*
G01X27652Y57167D01*
G01X27683Y57210D01*
G01X27720Y57254D01*
G01X27865Y57424D01*
G01X29893Y57424D01*
G01X29893Y56874D01*
G01X28909Y56874D01*
G01X28805Y56873D01*
G01X28709Y56872D01*
G01X28620Y56871D01*
G01X28539Y56869D01*
G01X28466Y56867D01*
G01X28399Y56863D01*
G01X28340Y56860D01*
G01X28288Y56856D01*
G01X28242Y56852D01*
G01X28203Y56847D01*
G01X28170Y56842D01*
G01X28143Y56836D01*
G01X28122Y56829D01*
G01X28107Y56822D01*
G01X28097Y56814D01*
G01X28081Y56784D01*
G01X28068Y56739D01*
G01X28057Y56682D01*
G01X28051Y56615D01*
G01X28047Y56542D01*
G01X28046Y56467D01*
G01X28049Y56392D01*
G01X28054Y56320D01*
G01X28062Y56254D01*
G01X28074Y56199D01*
G01X28088Y56156D01*
G01X28106Y56129D01*
G01X28122Y56119D01*
G01X28149Y56111D01*
G01X28185Y56103D01*
G01X28230Y56096D01*
G01X28283Y56091D01*
G01X28342Y56087D01*
G01X28407Y56084D01*
G01X28476Y56082D01*
G01X28550Y56080D01*
G01X28625Y56080D01*
G01X28703Y56081D01*
G01X28781Y56082D01*
G01X28858Y56084D01*
G01X28935Y56088D01*
G01X29009Y56092D01*
G01X29080Y56096D01*
G01X29147Y56103D01*
G01X29208Y56109D01*
G01X29263Y56116D01*
G01X29311Y56124D01*
G01X29350Y56132D01*
G01X29381Y56142D01*
G01X29401Y56151D01*
G01X29410Y56161D01*
G01X29408Y56178D01*
G01X29390Y56191D01*
G01X29355Y56203D01*
G01X29300Y56211D01*
G01X29224Y56217D01*
G01X29124Y56221D01*
G01X28998Y56223D01*
G01X28844Y56224D01*
G01X28261Y56224D01*
G01X28261Y56774D01*
G01X29893Y56774D01*
G01X29893Y56372D01*
G01X29893Y56301D01*
G01X29892Y56234D01*
G01X29890Y56171D01*
G01X29887Y56112D01*
G01X29883Y56056D01*
G01X29877Y56004D01*
G01X29870Y55956D01*
G01X29861Y55910D01*
G01X29850Y55869D01*
G01X29837Y55830D01*
G01X29822Y55794D01*
G01X29805Y55761D01*
G01X29785Y55731D01*
G01X29762Y55704D01*
G01X29737Y55678D01*
G01X29708Y55656D01*
G01X29676Y55636D01*
G01X29641Y55617D01*
G01X29602Y55601D01*
G01X29560Y55587D01*
G01X29514Y55575D01*
G01X29464Y55564D01*
G01X29409Y55555D01*
G01X29350Y55547D01*
G01X29287Y55541D01*
G01X29219Y55536D01*
G01X29145Y55532D01*
G01X29068Y55529D01*
G01X28984Y55526D01*
G01X28896Y55525D01*
G01X28802Y55524D01*
G37*

%LPC*%

%LPD*%
G36*
G01X28252Y57665D02*
G01X27714Y57665D01*
G01X27621Y57665D01*
G01X27528Y57665D01*
G01X27340Y57666D01*
G01X27245Y57667D01*
G01X27151Y57667D01*
G01X27056Y57668D01*
G01X26961Y57668D01*
G01X26866Y57669D01*
G01X26772Y57670D01*
G01X26678Y57670D01*
G01X26584Y57671D01*
G01X26491Y57672D01*
G01X26399Y57673D01*
G01X26307Y57674D01*
G01X26216Y57675D01*
G01X26126Y57676D01*
G01X26038Y57677D01*
G01X25950Y57678D01*
G01X25864Y57680D01*
G01X25779Y57681D01*
G01X25696Y57682D01*
G01X25614Y57684D01*
G01X25535Y57685D01*
G01X25456Y57687D01*
G01X25380Y57688D01*
G01X25306Y57690D01*
G01X25234Y57692D01*
G01X25164Y57693D01*
G01X25097Y57695D01*
G01X25032Y57697D01*
G01X24970Y57698D01*
G01X24910Y57700D01*
G01X24853Y57702D01*
G01X24799Y57704D01*
G01X24748Y57706D01*
G01X24699Y57708D01*
G01X24655Y57710D01*
G01X24613Y57712D01*
G01X24575Y57714D01*
G01X24568Y57714D01*
G01X24588Y57729D01*
G01X24609Y57795D01*
G01X24595Y57863D01*
G01X24559Y57900D01*
G01X24506Y57902D01*
G01X24446Y57866D01*
G01X24408Y57833D01*
G01X24394Y57824D01*
G01X24403Y57842D01*
G01X24433Y57889D01*
G01X24464Y57925D01*
G01X24496Y57946D01*
G01X24529Y57952D01*
G01X24562Y57942D01*
G01X24572Y57939D01*
G01X24589Y57936D01*
G01X24614Y57933D01*
G01X24646Y57930D01*
G01X24685Y57928D01*
G01X24729Y57925D01*
G01X24781Y57922D01*
G01X24838Y57920D01*
G01X24900Y57917D01*
G01X24967Y57915D01*
G01X25039Y57913D01*
G01X25116Y57910D01*
G01X25196Y57908D01*
G01X25280Y57907D01*
G01X25367Y57905D01*
G01X25458Y57904D01*
G01X25551Y57902D01*
G01X25647Y57901D01*
G01X25745Y57900D01*
G01X25845Y57900D01*
G01X27058Y57894D01*
G01X27058Y58109D01*
G01X27055Y58225D01*
G01X27041Y58290D01*
G01X27008Y58318D01*
G01X26950Y58324D01*
G01X26894Y58330D01*
G01X26862Y58354D01*
G01X26847Y58407D01*
G01X26843Y58499D01*
G01X26840Y58567D01*
G01X26830Y58623D01*
G01X26815Y58660D01*
G01X26798Y58674D01*
G01X26767Y58682D01*
G01X26714Y58703D01*
G01X26648Y58735D01*
G01X26576Y58774D01*
G01X26398Y58874D01*
G01X26297Y58764D01*
G01X26197Y58655D01*
G01X25984Y58900D01*
G01X25770Y59144D01*
G01X25951Y59368D01*
G01X25852Y59646D01*
G01X25822Y59728D01*
G01X25796Y59793D01*
G01X25772Y59841D01*
G01X25750Y59876D01*
G01X25726Y59900D01*
G01X25699Y59915D01*
G01X25669Y59922D01*
G01X25632Y59924D01*
G01X25574Y59929D01*
G01X25537Y59946D01*
G01X25517Y59978D01*
G01X25511Y60027D01*
G01X25511Y60045D01*
G01X25509Y60060D01*
G01X25504Y60074D01*
G01X25494Y60085D01*
G01X25479Y60095D01*
G01X25457Y60103D01*
G01X25427Y60109D01*
G01X25387Y60114D01*
G01X25337Y60118D01*
G01X25274Y60120D01*
G01X25198Y60121D01*
G01X25107Y60121D01*
G01X25000Y60120D01*
G01X24876Y60119D01*
G01X24732Y60117D01*
G01X24569Y60114D01*
G01X24473Y60113D01*
G01X24381Y60112D01*
G01X24293Y60112D01*
G01X24208Y60112D01*
G01X24128Y60112D01*
G01X24054Y60113D01*
G01X23985Y60114D01*
G01X23922Y60115D01*
G01X23865Y60117D01*
G01X23816Y60119D01*
G01X23773Y60122D01*
G01X23739Y60125D01*
G01X23713Y60128D01*
G01X23695Y60131D01*
G01X23687Y60135D01*
G01X23689Y60139D01*
G01X23731Y60185D01*
G01X23748Y60245D01*
G01X23740Y60304D01*
G01X23705Y60350D01*
G01X23651Y60358D01*
G01X23599Y60321D01*
G01X23565Y60256D01*
G01X23563Y60183D01*
G01X23573Y60144D01*
G01X23574Y60129D01*
G01X23564Y60139D01*
G01X23542Y60172D01*
G01X23526Y60200D01*
G01X23514Y60225D01*
G01X23506Y60249D01*
G01X23503Y60270D01*
G01X23505Y60288D01*
G01X23513Y60305D01*
G01X23528Y60319D01*
G01X23549Y60332D01*
G01X23578Y60343D01*
G01X23615Y60352D01*
G01X23660Y60360D01*
G01X23715Y60367D01*
G01X23779Y60371D01*
G01X23853Y60375D01*
G01X23938Y60378D01*
G01X24034Y60379D01*
G01X24141Y60380D01*
G01X24261Y60380D01*
G01X24394Y60379D01*
G01X24539Y60378D01*
G01X25511Y60368D01*
G01X25511Y60496D01*
G01X25516Y60562D01*
G01X25535Y60601D01*
G01X25574Y60620D01*
G01X25642Y60624D01*
G01X25700Y60630D01*
G01X25745Y60646D01*
G01X25777Y60673D01*
G01X25796Y60712D01*
G01X25810Y60760D01*
G01X25832Y60829D01*
G01X25859Y60907D01*
G01X25887Y60987D01*
G01X25923Y61095D01*
G01X25932Y61165D01*
G01X25913Y61222D01*
G01X25862Y61290D01*
G01X25813Y61355D01*
G01X25794Y61400D01*
G01X25805Y61441D01*
G01X25845Y61492D01*
G01X25857Y61507D01*
G01X25865Y61520D01*
G01X25870Y61532D01*
G01X25869Y61541D01*
G01X25862Y61549D01*
G01X25848Y61556D01*
G01X25825Y61562D01*
G01X25794Y61566D01*
G01X25753Y61570D01*
G01X25701Y61572D01*
G01X25638Y61573D01*
G01X25472Y61573D01*
G01X25368Y61572D01*
G01X25248Y61571D01*
G01X25112Y61569D01*
G01X24991Y61568D01*
G01X24880Y61567D01*
G01X24780Y61567D01*
G01X24689Y61568D01*
G01X24607Y61569D01*
G01X24535Y61572D01*
G01X24471Y61575D01*
G01X24416Y61580D01*
G01X24368Y61586D01*
G01X24360Y61588D01*
G01X24401Y61609D01*
G01X24428Y61668D01*
G01X24423Y61746D01*
G01X24409Y61776D01*
G01X24391Y61801D01*
G01X24371Y61818D01*
G01X24358Y61822D01*
G01X24372Y61825D01*
G01X24438Y61831D01*
G01X24524Y61833D01*
G01X24635Y61832D01*
G01X24773Y61829D01*
G01X25254Y61816D01*
G01X25254Y62481D01*
G01X24386Y62470D01*
G01X24247Y62468D01*
G01X24124Y62467D01*
G01X24016Y62466D01*
G01X23920Y62466D01*
G01X23837Y62467D01*
G01X23765Y62469D01*
G01X23704Y62471D01*
G01X23652Y62474D01*
G01X23609Y62479D01*
G01X23608Y62479D01*
G01X23646Y62486D01*
G01X23688Y62529D01*
G01X23695Y62556D01*
G01X23692Y62588D01*
G01X23679Y62621D01*
G01X23659Y62652D01*
G01X23598Y62689D01*
G01X23541Y62677D01*
G01X23504Y62628D01*
G01X23506Y62554D01*
G01X23541Y62500D01*
G01X23575Y62485D01*
G01X23608Y62479D01*
G01X23592Y62476D01*
G01X23575Y62485D01*
G01X23574Y62485D01*
G01X23545Y62491D01*
G01X23523Y62499D01*
G01X23505Y62508D01*
G01X23492Y62519D01*
G01X23481Y62531D01*
G01X23473Y62544D01*
G01X23460Y62570D01*
G01X23452Y62594D01*
G01X23448Y62616D01*
G01X23449Y62635D01*
G01X23454Y62652D01*
G01X23467Y62668D01*
G01X23484Y62682D01*
G01X23509Y62694D01*
G01X23541Y62704D01*
G01X23580Y62713D01*
G01X23628Y62720D01*
G01X23684Y62726D01*
G01X23749Y62731D01*
G01X23824Y62734D01*
G01X23908Y62736D01*
G01X24003Y62738D01*
G01X24109Y62739D01*
G01X24226Y62738D01*
G01X24354Y62736D01*
G01X24495Y62734D01*
G01X25425Y62720D01*
G01X25425Y61816D01*
G01X25832Y61830D01*
G01X25945Y61833D01*
G01X26039Y61833D01*
G01X26114Y61831D01*
G01X26175Y61825D01*
G01X26223Y61815D01*
G01X26261Y61801D01*
G01X26292Y61782D01*
G01X26318Y61759D01*
G01X26355Y61733D01*
G01X26401Y61719D01*
G01X26454Y61717D01*
G01X26511Y61726D01*
G01X26570Y61744D01*
G01X26628Y61771D01*
G01X26684Y61804D01*
G01X26735Y61843D01*
G01X26779Y61887D01*
G01X26813Y61934D01*
G01X26835Y61984D01*
G01X26843Y62034D01*
G01X26847Y62105D01*
G01X26864Y62148D01*
G01X26896Y62169D01*
G01X26950Y62174D01*
G01X26985Y62175D01*
G01X27012Y62181D01*
G01X27031Y62198D01*
G01X27044Y62230D01*
G01X27052Y62281D01*
G01X27056Y62357D01*
G01X27058Y62462D01*
G01X27058Y62602D01*
G01X27058Y63030D01*
G01X25982Y63020D01*
G01X25872Y63020D01*
G01X25766Y63019D01*
G01X25663Y63019D01*
G01X25468Y63019D01*
G01X25379Y63019D01*
G01X25294Y63020D01*
G01X25217Y63021D01*
G01X25146Y63022D01*
G01X25083Y63023D01*
G01X25027Y63025D01*
G01X24979Y63026D01*
G01X24941Y63028D01*
G01X24913Y63030D01*
G01X24895Y63032D01*
G01X24887Y63034D01*
G01X24887Y63043D01*
G01X24902Y63049D01*
G01X24928Y63053D01*
G01X24964Y63053D01*
G01X25008Y63057D01*
G01X25038Y63073D01*
G01X25054Y63103D01*
G01X25058Y63149D01*
G01X25058Y63163D01*
G01X25059Y63175D01*
G01X25062Y63187D01*
G01X25068Y63197D01*
G01X25077Y63206D01*
G01X25091Y63213D01*
G01X25109Y63220D01*
G01X25133Y63226D01*
G01X25163Y63230D01*
G01X25201Y63234D01*
G01X25247Y63237D01*
G01X25301Y63239D01*
G01X25365Y63240D01*
G01X25439Y63241D01*
G01X25621Y63241D01*
G01X25731Y63240D01*
G01X25854Y63238D01*
G01X25991Y63237D01*
G01X26143Y63235D01*
G01X27230Y63221D01*
G01X27230Y62916D01*
G01X28207Y62929D01*
G01X29185Y62941D01*
G01X29185Y62707D01*
G01X27230Y62732D01*
G01X27230Y62362D01*
G01X27232Y62292D01*
G01X27237Y62243D01*
G01X27246Y62210D01*
G01X27262Y62189D01*
G01X27285Y62179D01*
G01X27316Y62175D01*
G01X27359Y62174D01*
G01X27426Y62170D01*
G01X27466Y62150D01*
G01X27483Y62106D01*
G01X27487Y62031D01*
G01X27489Y61988D01*
G01X27495Y61952D01*
G01X27507Y61921D01*
G01X27525Y61894D01*
G01X27554Y61868D01*
G01X27593Y61841D01*
G01X27644Y61812D01*
G01X27709Y61780D01*
G01X27932Y61673D01*
G01X28115Y61873D01*
G01X28325Y61624D01*
G01X28535Y61376D01*
G01X28444Y61263D01*
G01X28394Y61195D01*
G01X28376Y61141D01*
G01X28390Y61076D01*
G01X28434Y60974D01*
G01X28466Y60899D01*
G01X28492Y60825D01*
G01X28509Y60759D01*
G01X28517Y60712D01*
G01X28525Y60670D01*
G01X28551Y60643D01*
G01X28597Y60628D01*
G01X28669Y60624D01*
G01X28748Y60620D01*
G01X28794Y60602D01*
G01X28814Y60564D01*
G01X28819Y60496D01*
G01X28819Y60368D01*
G01X29773Y60378D01*
G01X29920Y60379D01*
G01X30051Y60380D01*
G01X30168Y60381D01*
G01X30271Y60381D01*
G01X30362Y60380D01*
G01X30441Y60378D01*
G01X30509Y60376D01*
G01X30567Y60373D01*
G01X30615Y60369D01*
G01X30622Y60368D01*
G01X30607Y60364D01*
G01X30583Y60330D01*
G01X30573Y60272D01*
G01X30578Y60187D01*
G01X30573Y60171D01*
G01X30555Y60157D01*
G01X30523Y60146D01*
G01X30474Y60138D01*
G01X30408Y60131D01*
G01X30323Y60127D01*
G01X30216Y60125D01*
G01X30088Y60124D01*
G01X29593Y60124D01*
G01X29593Y59164D01*
G01X30183Y59182D01*
G01X30774Y59199D01*
G01X30774Y59074D01*
G01X30770Y59014D01*
G01X30754Y58976D01*
G01X30724Y58957D01*
G01X30677Y58953D01*
G01X30659Y58953D01*
G01X30631Y58954D01*
G01X30594Y58955D01*
G01X30549Y58956D01*
G01X30497Y58957D01*
G01X30438Y58958D01*
G01X30375Y58959D01*
G01X30306Y58960D01*
G01X30234Y58962D01*
G01X30158Y58963D01*
G01X30080Y58964D01*
G01X30000Y58965D01*
G01X29421Y58974D01*
G01X29421Y60124D01*
G01X29120Y60124D01*
G01X29029Y60123D01*
G01X28958Y60121D01*
G01X28905Y60116D01*
G01X28868Y60108D01*
G01X28843Y60095D01*
G01X28828Y60078D01*
G01X28821Y60054D01*
G01X28819Y60024D01*
G01X28813Y59976D01*
G01X28792Y59945D01*
G01X28753Y59929D01*
G01X28691Y59924D01*
G01X28623Y59917D01*
G01X28575Y59890D01*
G01X28536Y59833D01*
G01X28498Y59737D01*
G01X28470Y59658D01*
G01X28441Y59582D01*
G01X28415Y59518D01*
G01X28395Y59474D01*
G01X28382Y59433D01*
G01X28389Y59387D01*
G01X28413Y59334D01*
G01X28458Y59272D01*
G01X28561Y59144D01*
G01X28347Y58900D01*
G01X28134Y58655D01*
G01X28033Y58764D01*
G01X27933Y58874D01*
G01X27710Y58764D01*
G01X27642Y58729D01*
G01X27589Y58700D01*
G01X27550Y58672D01*
G01X27522Y58646D01*
G01X27504Y58616D01*
G01X27493Y58582D01*
G01X27488Y58540D01*
G01X27487Y58489D01*
G01X27484Y58400D01*
G01X27467Y58350D01*
G01X27427Y58329D01*
G01X27356Y58324D01*
G01X27282Y58320D01*
G01X27244Y58296D01*
G01X27233Y58232D01*
G01X27238Y58112D01*
G01X27251Y57899D01*
G01X28032Y57886D01*
G01X28098Y57885D01*
G01X28165Y57884D01*
G01X28233Y57884D01*
G01X28301Y57883D01*
G01X28370Y57884D01*
G01X28439Y57884D01*
G01X28508Y57885D01*
G01X28577Y57885D01*
G01X28645Y57887D01*
G01X28712Y57888D01*
G01X28777Y57889D01*
G01X28841Y57891D01*
G01X28902Y57893D01*
G01X28961Y57895D01*
G01X29017Y57898D01*
G01X29071Y57900D01*
G01X29121Y57903D01*
G01X29167Y57906D01*
G01X29210Y57909D01*
G01X29248Y57913D01*
G01X29336Y57920D01*
G01X29420Y57925D01*
G01X29499Y57928D01*
G01X29570Y57929D01*
G01X29630Y57927D01*
G01X29679Y57924D01*
G01X29714Y57919D01*
G01X29734Y57912D01*
G01X29754Y57893D01*
G01X29759Y57881D01*
G01X29748Y57876D01*
G01X29641Y57883D01*
G01X29588Y57872D01*
G01X29558Y57844D01*
G01X29549Y57798D01*
G01X29555Y57757D01*
G01X29571Y57725D01*
G01X29595Y57702D01*
G01X29625Y57689D01*
G01X29657Y57687D01*
G01X29690Y57697D01*
G01X29722Y57717D01*
G01X29749Y57750D01*
G01X29772Y57782D01*
G01X29790Y57799D01*
G01X29803Y57801D01*
G01X29807Y57787D01*
G01X29804Y57762D01*
G01X29795Y57738D01*
G01X29783Y57716D01*
G01X29767Y57701D01*
G01X29761Y57699D01*
G01X29752Y57696D01*
G01X29737Y57694D01*
G01X29720Y57692D01*
G01X29698Y57690D01*
G01X29672Y57688D01*
G01X29642Y57686D01*
G01X29609Y57684D01*
G01X29572Y57683D01*
G01X29532Y57681D01*
G01X29488Y57680D01*
G01X29441Y57678D01*
G01X29391Y57677D01*
G01X29339Y57676D01*
G01X29283Y57674D01*
G01X29224Y57673D01*
G01X29162Y57672D01*
G01X29098Y57671D01*
G01X29032Y57670D01*
G01X28963Y57669D01*
G01X28891Y57669D01*
G01X28818Y57668D01*
G01X28743Y57667D01*
G01X28665Y57667D01*
G01X28586Y57666D01*
G01X28505Y57666D01*
G01X28423Y57666D01*
G01X28338Y57665D01*
G01X28252Y57665D01*
G37*

%LPC*%
G36*
G01X30610Y58978D02*
G01X30674Y58974D01*
G01X30729Y59008D01*
G01X30752Y59074D01*
G01X30747Y59117D01*
G01X30731Y59148D01*
G01X30705Y59168D01*
G01X30669Y59174D01*
G01X30607Y59161D01*
G01X30564Y59127D01*
G01X30546Y59079D01*
G01X30559Y59024D01*
G01X30610Y58978D01*
G37*
G36*
G01X29039Y62730D02*
G01X29077Y62724D01*
G01X29115Y62730D01*
G01X29141Y62749D01*
G01X29158Y62780D01*
G01X29163Y62824D01*
G01X29158Y62868D01*
G01X29141Y62899D01*
G01X29115Y62918D01*
G01X29077Y62924D01*
G01X29039Y62918D01*
G01X29012Y62899D01*
G01X28997Y62868D01*
G01X28991Y62824D01*
G01X28997Y62780D01*
G01X29012Y62749D01*
G01X29039Y62730D01*
G37*
G36*
G01X27111Y59228D02*
G01X27160Y59226D01*
G01X27208Y59227D01*
G01X27257Y59231D01*
G01X27306Y59238D01*
G01X27353Y59248D01*
G01X27401Y59261D01*
G01X27448Y59278D01*
G01X27494Y59297D01*
G01X27540Y59320D01*
G01X27584Y59346D01*
G01X27628Y59375D01*
G01X27670Y59407D01*
G01X27711Y59442D01*
G01X27751Y59480D01*
G01X27789Y59522D01*
G01X27825Y59566D01*
G01X27860Y59614D01*
G01X27893Y59665D01*
G01X27923Y59718D01*
G01X27950Y59774D01*
G01X27973Y59830D01*
G01X27993Y59888D01*
G01X28010Y59947D01*
G01X28023Y60006D01*
G01X28033Y60066D01*
G01X28041Y60127D01*
G01X28045Y60188D01*
G01X28046Y60250D01*
G01X28044Y60311D01*
G01X28039Y60372D01*
G01X28032Y60433D01*
G01X28021Y60493D01*
G01X28008Y60552D01*
G01X27992Y60611D01*
G01X27974Y60667D01*
G01X27953Y60723D01*
G01X27929Y60778D01*
G01X27903Y60831D01*
G01X27875Y60882D01*
G01X27844Y60931D01*
G01X27811Y60977D01*
G01X27775Y61022D01*
G01X27738Y61064D01*
G01X27698Y61103D01*
G01X27656Y61139D01*
G01X27612Y61172D01*
G01X27566Y61202D01*
G01X27518Y61228D01*
G01X27469Y61251D01*
G01X27417Y61270D01*
G01X27364Y61285D01*
G01X27312Y61297D01*
G01X27261Y61305D01*
G01X27210Y61310D01*
G01X27160Y61311D01*
G01X27110Y61309D01*
G01X27061Y61304D01*
G01X27013Y61296D01*
G01X26966Y61285D01*
G01X26919Y61271D01*
G01X26874Y61255D01*
G01X26830Y61236D01*
G01X26787Y61214D01*
G01X26745Y61190D01*
G01X26704Y61163D01*
G01X26665Y61134D01*
G01X26627Y61103D01*
G01X26591Y61070D01*
G01X26556Y61035D01*
G01X26523Y60998D01*
G01X26491Y60959D01*
G01X26461Y60918D01*
G01X26433Y60876D01*
G01X26406Y60832D01*
G01X26382Y60787D01*
G01X26360Y60740D01*
G01X26340Y60692D01*
G01X26322Y60644D01*
G01X26305Y60593D01*
G01X26292Y60542D01*
G01X26280Y60490D01*
G01X26271Y60437D01*
G01X26265Y60384D01*
G01X26261Y60330D01*
G01X26259Y60275D01*
G01X26260Y60220D01*
G01X26264Y60165D01*
G01X26270Y60110D01*
G01X26280Y60054D01*
G01X26292Y59998D01*
G01X26307Y59942D01*
G01X26326Y59887D01*
G01X26347Y59831D01*
G01X26372Y59776D01*
G01X26400Y59721D01*
G01X26430Y59668D01*
G01X26463Y59618D01*
G01X26497Y59572D01*
G01X26533Y59528D01*
G01X26571Y59487D01*
G01X26611Y59449D01*
G01X26651Y59414D01*
G01X26693Y59382D01*
G01X26737Y59353D01*
G01X26781Y59327D01*
G01X26826Y59303D01*
G01X26872Y59283D01*
G01X26919Y59266D01*
G01X26966Y59252D01*
G01X27014Y59241D01*
G01X27063Y59233D01*
G01X27111Y59228D01*
G37*

%LPD*%
G36*
G01X24538Y57692D02*
G01X24479Y57690D01*
G01X24434Y57726D01*
G01X24424Y57727D01*
G01X24412Y57730D01*
G01X24405Y57732D01*
G01X24402Y57734D01*
G01X24398Y57760D01*
G01X24401Y57768D01*
G01X24411Y57758D01*
G01X24430Y57729D01*
G01X24434Y57726D01*
G01X24439Y57725D01*
G01X24459Y57723D01*
G01X24482Y57720D01*
G01X24509Y57718D01*
G01X24540Y57716D01*
G01X24568Y57714D01*
G01X24538Y57692D01*
G37*

%LPC*%

%LPD*%
G36*
G01X27201Y59737D02*
G01X27157Y59599D01*
G01X27124Y59737D01*
G01X27105Y59792D01*
G01X27080Y59833D01*
G01X27050Y59860D01*
G01X27018Y59872D01*
G01X26986Y59870D01*
G01X26957Y59852D01*
G01X26933Y59819D01*
G01X26915Y59769D01*
G01X26886Y59706D01*
G01X26847Y59699D01*
G01X26814Y59740D01*
G01X26800Y59824D01*
G01X26797Y59863D01*
G01X26787Y59900D01*
G01X26774Y59930D01*
G01X26757Y59949D01*
G01X26742Y59970D01*
G01X26730Y60008D01*
G01X26721Y60058D01*
G01X26717Y60119D01*
G01X26715Y60188D01*
G01X26716Y60263D01*
G01X26721Y60340D01*
G01X26728Y60417D01*
G01X26739Y60492D01*
G01X26752Y60562D01*
G01X26768Y60624D01*
G01X26786Y60676D01*
G01X26828Y60771D01*
G01X26856Y60808D01*
G01X26883Y60794D01*
G01X26920Y60733D01*
G01X26951Y60685D01*
G01X26982Y60652D01*
G01X27011Y60633D01*
G01X27039Y60630D01*
G01X27065Y60641D01*
G01X27088Y60666D01*
G01X27107Y60707D01*
G01X27124Y60761D01*
G01X27157Y60899D01*
G01X27201Y60761D01*
G01X27225Y60708D01*
G01X27255Y60664D01*
G01X27287Y60635D01*
G01X27319Y60624D01*
G01X27351Y60634D01*
G01X27380Y60662D01*
G01X27405Y60706D01*
G01X27422Y60761D01*
G01X27452Y60899D01*
G01X27534Y60702D01*
G01X27554Y60647D01*
G01X27572Y60585D01*
G01X27587Y60517D01*
G01X27599Y60445D01*
G01X27607Y60372D01*
G01X27613Y60298D01*
G01X27616Y60225D01*
G01X27615Y60155D01*
G01X27611Y60090D01*
G01X27604Y60030D01*
G01X27593Y59979D01*
G01X27578Y59936D01*
G01X27560Y59892D01*
G01X27538Y59838D01*
G01X27516Y59779D01*
G01X27497Y59724D01*
G01X27454Y59599D01*
G01X27423Y59737D01*
G01X27405Y59793D01*
G01X27381Y59836D01*
G01X27351Y59864D01*
G01X27319Y59874D01*
G01X27287Y59863D01*
G01X27255Y59834D01*
G01X27225Y59790D01*
G01X27201Y59737D01*
G37*

%LPC*%
G36*
G01X27379Y60393D02*
G01X27402Y60382D01*
G01X27434Y60383D01*
G01X27462Y60394D01*
G01X27484Y60410D01*
G01X27498Y60429D01*
G01X27501Y60450D01*
G01X27472Y60499D01*
G01X27424Y60514D01*
G01X27379Y60498D01*
G01X27359Y60449D01*
G01X27364Y60415D01*
G01X27379Y60393D01*
G37*

%LPD*%
G36*
G01X30714Y60099D02*
G01X30653Y60074D01*
G01X30642Y60080D01*
G01X30644Y60094D01*
G01X30659Y60116D01*
G01X30687Y60142D01*
G01X30733Y60211D01*
G01X30740Y60287D01*
G01X30709Y60349D01*
G01X30687Y60358D01*
G01X30656Y60364D01*
G01X30622Y60368D01*
G01X30646Y60374D01*
G01X30687Y60358D01*
G01X30688Y60358D01*
G01X30714Y60351D01*
G01X30735Y60342D01*
G01X30750Y60333D01*
G01X30761Y60322D01*
G01X30770Y60310D01*
G01X30783Y60238D01*
G01X30761Y60161D01*
G01X30714Y60099D01*
G37*

%LPC*%

%LPD*%
G36*
G01X24360Y61588D02*
G01X24354Y61585D01*
G01X24342Y61591D01*
G01X24327Y61593D01*
G01X24294Y61603D01*
G01X24267Y61613D01*
G01X24247Y61624D01*
G01X24233Y61638D01*
G01X24223Y61653D01*
G01X24220Y61671D01*
G01X24221Y61690D01*
G01X24226Y61711D01*
G01X24235Y61734D01*
G01X24248Y61760D01*
G01X24265Y61783D01*
G01X24289Y61802D01*
G01X24323Y61815D01*
G01X24343Y61820D01*
G01X24351Y61824D01*
G01X24358Y61822D01*
G01X24343Y61820D01*
G01X24307Y61800D01*
G01X24280Y61741D01*
G01X24277Y61671D01*
G01X24303Y61611D01*
G01X24342Y61591D01*
G01X24360Y61588D01*
G37*

%LPC*%

%LPD*%
G36*
G01X24850Y63145D02*
G01X24826Y63139D01*
G01X24839Y63175D01*
G01X24892Y63246D01*
G01X24935Y63292D01*
G01X24968Y63318D01*
G01X24989Y63323D01*
G01X24996Y63307D01*
G01X24989Y63293D01*
G01X24971Y63268D01*
G01X24943Y63235D01*
G01X24910Y63199D01*
G01X24850Y63145D01*
G37*

%LPC*%

%LPD*%
G36*
G01X48768Y31750D02*
G01X48768Y31750D01*
G01X48768Y31750D01*
G01X48753Y31726D01*
G01X48737Y31698D01*
G01X48720Y31666D01*
G01X48703Y31630D01*
G01X48684Y31591D01*
G01X48665Y31549D01*
G01X48645Y31503D01*
G01X48625Y31455D01*
G01X48603Y31403D01*
G01X48582Y31348D01*
G01X48559Y31291D01*
G01X48536Y31232D01*
G01X48513Y31170D01*
G01X48490Y31105D01*
G01X48466Y31039D01*
G01X48441Y30971D01*
G01X48417Y30901D01*
G01X48392Y30830D01*
G01X48367Y30757D01*
G01X48342Y30682D01*
G01X48317Y30607D01*
G01X48291Y30531D01*
G01X48266Y30453D01*
G01X48241Y30375D01*
G01X48216Y30297D01*
G01X48191Y30218D01*
G01X48167Y30139D01*
G01X48143Y30060D01*
G01X48118Y29980D01*
G01X48095Y29901D01*
G01X48071Y29823D01*
G01X48049Y29744D01*
G01X48026Y29667D01*
G01X48004Y29590D01*
G01X47983Y29514D01*
G01X47963Y29439D01*
G01X47943Y29366D01*
G01X47923Y29294D01*
G01X47905Y29223D01*
G01X47887Y29154D01*
G01X47871Y29087D01*
G01X47855Y29022D01*
G01X47840Y28959D01*
G01X47826Y28898D01*
G01X47813Y28840D01*
G01X47801Y28785D01*
G01X47791Y28732D01*
G01X47781Y28682D01*
G01X47773Y28635D01*
G01X47766Y28591D01*
G01X47761Y28551D01*
G01X47756Y28514D01*
G01X47756Y28514D01*
G01X47750Y28422D01*
G01X47750Y28337D01*
G01X47756Y28262D01*
G01X47768Y28198D01*
G01X47785Y28145D01*
G01X47807Y28105D01*
G01X47834Y28081D01*
G01X47865Y28072D01*
G01X47865Y28072D01*
G01X47879Y28075D01*
G01X47904Y28082D01*
G01X47942Y28095D01*
G01X47989Y28111D01*
G01X48046Y28131D01*
G01X48111Y28155D01*
G01X48184Y28183D01*
G01X48264Y28213D01*
G01X48349Y28245D01*
G01X48439Y28280D01*
G01X48533Y28317D01*
G01X48630Y28355D01*
G01X49343Y28638D01*
G01X49714Y28460D01*
G01X49714Y28460D01*
G01X49788Y28424D01*
G01X49856Y28389D01*
G01X49916Y28356D01*
G01X49968Y28326D01*
G01X50009Y28301D01*
G01X50038Y28280D01*
G01X50055Y28264D01*
G01X50057Y28255D01*
G01X50057Y28255D01*
G01X50043Y28251D01*
G01X50016Y28248D01*
G01X49977Y28247D01*
G01X49927Y28247D01*
G01X49869Y28249D01*
G01X49803Y28253D01*
G01X49731Y28258D01*
G01X49656Y28265D01*
G01X49284Y28301D01*
G01X48596Y27979D01*
G01X48596Y27979D01*
G01X48479Y27925D01*
G01X48368Y27873D01*
G01X48263Y27824D01*
G01X48163Y27778D01*
G01X48068Y27735D01*
G01X47979Y27694D01*
G01X47894Y27656D01*
G01X47815Y27621D01*
G01X47741Y27588D01*
G01X47672Y27557D01*
G01X47607Y27529D01*
G01X47548Y27504D01*
G01X47493Y27481D01*
G01X47442Y27461D01*
G01X47397Y27443D01*
G01X47356Y27427D01*
G01X47319Y27414D01*
G01X47287Y27403D01*
G01X47259Y27394D01*
G01X47235Y27388D01*
G01X47216Y27384D01*
G01X47200Y27382D01*
G01X47189Y27382D01*
G01X47181Y27384D01*
G01X47181Y27384D01*
G01X47167Y27417D01*
G01X47155Y27490D01*
G01X47147Y27592D01*
G01X47145Y27712D01*
G01X47145Y27712D01*
G01X47145Y27745D01*
G01X47146Y27778D01*
G01X47147Y27813D01*
G01X47149Y27849D01*
G01X47152Y27886D01*
G01X47155Y27924D01*
G01X47159Y27963D01*
G01X47163Y28003D01*
G01X47168Y28045D01*
G01X47174Y28087D01*
G01X47180Y28130D01*
G01X47186Y28175D01*
G01X47194Y28221D01*
G01X47201Y28268D01*
G01X47210Y28316D01*
G01X47219Y28365D01*
G01X47229Y28416D01*
G01X47239Y28468D01*
G01X47250Y28521D01*
G01X47262Y28575D01*
G01X47274Y28630D01*
G01X47287Y28687D01*
G01X47300Y28745D01*
G01X47314Y28805D01*
G01X47329Y28865D01*
G01X47344Y28927D01*
G01X47360Y28991D01*
G01X47377Y29056D01*
G01X47394Y29122D01*
G01X47412Y29189D01*
G01X47431Y29258D01*
G01X47450Y29328D01*
G01X47470Y29400D01*
G01X47491Y29473D01*
G01X47512Y29548D01*
G01X47534Y29624D01*
G01X47557Y29701D01*
G01X47580Y29780D01*
G01X47604Y29861D01*
G01X47629Y29943D01*
G01X47654Y30027D01*
G01X47680Y30112D01*
G01X47707Y30199D01*
G01X47734Y30287D01*
G01X47762Y30377D01*
G01X47791Y30468D01*
G01X47821Y30561D01*
G01X47851Y30656D01*
G01X47851Y30656D01*
G01X47878Y30739D01*
G01X47904Y30821D01*
G01X47928Y30900D01*
G01X47952Y30976D01*
G01X47974Y31049D01*
G01X47995Y31118D01*
G01X48015Y31183D01*
G01X48033Y31243D01*
G01X48049Y31299D01*
G01X48063Y31349D01*
G01X48075Y31393D01*
G01X48085Y31430D01*
G01X48093Y31461D01*
G01X48098Y31485D01*
G01X48101Y31501D01*
G01X48101Y31509D01*
G01X48101Y31509D01*
G01X48098Y31513D01*
G01X48094Y31515D01*
G01X48088Y31512D01*
G01X48081Y31506D01*
G01X48072Y31496D01*
G01X48063Y31483D01*
G01X48052Y31467D01*
G01X48039Y31448D01*
G01X48026Y31425D01*
G01X48011Y31400D01*
G01X47996Y31372D01*
G01X47979Y31340D01*
G01X47961Y31306D01*
G01X47943Y31270D01*
G01X47923Y31231D01*
G01X47903Y31189D01*
G01X47882Y31145D01*
G01X47859Y31099D01*
G01X47837Y31050D01*
G01X47813Y31000D01*
G01X47789Y30947D01*
G01X47764Y30893D01*
G01X47738Y30836D01*
G01X47712Y30778D01*
G01X47685Y30719D01*
G01X47658Y30657D01*
G01X47630Y30594D01*
G01X47602Y30530D01*
G01X47574Y30465D01*
G01X47545Y30398D01*
G01X47516Y30330D01*
G01X47487Y30262D01*
G01X47457Y30192D01*
G01X47427Y30121D01*
G01X47397Y30050D01*
G01X47367Y29978D01*
G01X47337Y29905D01*
G01X47307Y29832D01*
G01X47277Y29759D01*
G01X47247Y29685D01*
G01X47217Y29611D01*
G01X47187Y29537D01*
G01X47157Y29463D01*
G01X47128Y29389D01*
G01X47099Y29315D01*
G01X47070Y29241D01*
G01X47041Y29168D01*
G01X47013Y29095D01*
G01X46985Y29023D01*
G01X46958Y28951D01*
G01X46931Y28880D01*
G01X46905Y28809D01*
G01X46879Y28740D01*
G01X46854Y28671D01*
G01X46829Y28604D01*
G01X46805Y28537D01*
G01X46805Y28537D01*
G01X46778Y28460D01*
G01X46754Y28392D01*
G01X46733Y28330D01*
G01X46715Y28275D01*
G01X46699Y28224D01*
G01X46686Y28177D01*
G01X46676Y28132D01*
G01X46667Y28088D01*
G01X46660Y28044D01*
G01X46655Y27999D01*
G01X46651Y27950D01*
G01X46649Y27898D01*
G01X46647Y27841D01*
G01X46646Y27777D01*
G01X46646Y27706D01*
G01X46646Y27626D01*
G01X46646Y27626D01*
G01X46646Y27538D01*
G01X46648Y27454D01*
G01X46651Y27373D01*
G01X46655Y27294D01*
G01X46661Y27220D01*
G01X46667Y27149D01*
G01X46675Y27082D01*
G01X46683Y27018D01*
G01X46693Y26959D01*
G01X46704Y26904D01*
G01X46715Y26854D01*
G01X46728Y26808D01*
G01X46742Y26767D01*
G01X46756Y26731D01*
G01X46772Y26700D01*
G01X46788Y26675D01*
G01X46788Y26675D01*
G01X46794Y26667D01*
G01X46801Y26661D01*
G01X46809Y26656D01*
G01X46819Y26653D01*
G01X46831Y26651D01*
G01X46845Y26652D01*
G01X46863Y26655D01*
G01X46884Y26660D01*
G01X46909Y26667D01*
G01X46938Y26677D01*
G01X46972Y26690D01*
G01X47011Y26706D01*
G01X47056Y26726D01*
G01X47108Y26749D01*
G01X47165Y26775D01*
G01X47230Y26806D01*
G01X47303Y26840D01*
G01X47383Y26879D01*
G01X47471Y26922D01*
G01X47569Y26969D01*
G01X47675Y27022D01*
G01X47792Y27079D01*
G01X47918Y27141D01*
G01X48055Y27209D01*
G01X49273Y27812D01*
G01X49669Y27808D01*
G01X50065Y27805D01*
G01X49626Y27663D01*
G01X49626Y27663D01*
G01X49579Y27648D01*
G01X49535Y27633D01*
G01X49493Y27619D01*
G01X49453Y27605D01*
G01X49414Y27591D01*
G01X49376Y27576D01*
G01X49340Y27562D01*
G01X49304Y27546D01*
G01X49269Y27530D01*
G01X49233Y27513D01*
G01X49198Y27495D01*
G01X49163Y27475D01*
G01X49126Y27454D01*
G01X49089Y27432D01*
G01X49051Y27407D01*
G01X49012Y27381D01*
G01X48971Y27352D01*
G01X48928Y27321D01*
G01X48883Y27287D01*
G01X48835Y27251D01*
G01X48785Y27211D01*
G01X48731Y27169D01*
G01X48675Y27123D01*
G01X48615Y27074D01*
G01X48551Y27022D01*
G01X48484Y26965D01*
G01X48412Y26904D01*
G01X48335Y26840D01*
G01X48254Y26771D01*
G01X48168Y26697D01*
G01X48077Y26619D01*
G01X47979Y26535D01*
G01X47979Y26535D01*
G01X47875Y26446D01*
G01X47778Y26362D01*
G01X47688Y26284D01*
G01X47605Y26211D01*
G01X47528Y26144D01*
G01X47458Y26081D01*
G01X47395Y26023D01*
G01X47337Y25970D01*
G01X47285Y25921D01*
G01X47238Y25875D01*
G01X47196Y25834D01*
G01X47160Y25795D01*
G01X47128Y25760D01*
G01X47100Y25727D01*
G01X47077Y25697D01*
G01X47058Y25669D01*
G01X47042Y25643D01*
G01X47030Y25619D01*
G01X47021Y25596D01*
G01X47015Y25574D01*
G01X47011Y25553D01*
G01X47010Y25533D01*
G01X47011Y25513D01*
G01X47014Y25494D01*
G01X47014Y25494D01*
G01X47031Y25409D01*
G01X47048Y25327D01*
G01X47065Y25246D01*
G01X47081Y25166D01*
G01X47098Y25088D01*
G01X47114Y25012D01*
G01X47131Y24937D01*
G01X47147Y24863D01*
G01X47163Y24791D01*
G01X47180Y24720D01*
G01X47196Y24650D01*
G01X47212Y24581D01*
G01X47229Y24514D01*
G01X47245Y24448D01*
G01X47261Y24383D01*
G01X47278Y24319D01*
G01X47295Y24255D01*
G01X47311Y24193D01*
G01X47328Y24132D01*
G01X47345Y24072D01*
G01X47362Y24012D01*
G01X47380Y23954D01*
G01X47397Y23896D01*
G01X47415Y23838D01*
G01X47432Y23782D01*
G01X47451Y23726D01*
G01X47469Y23671D01*
G01X47487Y23616D01*
G01X47506Y23562D01*
G01X47525Y23508D01*
G01X47545Y23454D01*
G01X47564Y23401D01*
G01X47584Y23348D01*
G01X47605Y23296D01*
G01X47625Y23244D01*
G01X47646Y23192D01*
G01X47668Y23140D01*
G01X47689Y23088D01*
G01X47712Y23036D01*
G01X47734Y22985D01*
G01X47757Y22933D01*
G01X47781Y22881D01*
G01X47805Y22830D01*
G01X47829Y22778D01*
G01X47854Y22726D01*
G01X47880Y22673D01*
G01X47906Y22621D01*
G01X47932Y22568D01*
G01X47959Y22515D01*
G01X47987Y22461D01*
G01X48015Y22407D01*
G01X48044Y22352D01*
G01X48073Y22297D01*
G01X48104Y22242D01*
G01X48134Y22186D01*
G01X48166Y22129D01*
G01X48166Y22129D01*
G01X48204Y22060D01*
G01X48240Y21994D01*
G01X48275Y21933D01*
G01X48308Y21874D01*
G01X48339Y21820D01*
G01X48369Y21769D01*
G01X48396Y21722D01*
G01X48422Y21678D01*
G01X48446Y21639D01*
G01X48468Y21603D01*
G01X48489Y21570D01*
G01X48508Y21542D01*
G01X48525Y21517D01*
G01X48540Y21496D01*
G01X48553Y21478D01*
G01X48565Y21465D01*
G01X48575Y21455D01*
G01X48583Y21449D01*
G01X48589Y21447D01*
G01X48594Y21449D01*
G01X48597Y21455D01*
G01X48598Y21464D01*
G01X48597Y21478D01*
G01X48594Y21495D01*
G01X48590Y21516D01*
G01X48584Y21542D01*
G01X48576Y21571D01*
G01X48566Y21604D01*
G01X48555Y21641D01*
G01X48542Y21682D01*
G01X48527Y21728D01*
G01X48510Y21777D01*
G01X48492Y21830D01*
G01X48472Y21888D01*
G01X48450Y21949D01*
G01X48426Y22015D01*
G01X48400Y22084D01*
G01X48373Y22158D01*
G01X48344Y22236D01*
G01X48313Y22318D01*
G01X48280Y22404D01*
G01X48246Y22495D01*
G01X48210Y22590D01*
G01X48172Y22688D01*
G01X48172Y22688D01*
G01X48153Y22738D01*
G01X48134Y22788D01*
G01X48116Y22838D01*
G01X48098Y22889D01*
G01X48080Y22940D01*
G01X48063Y22992D01*
G01X48045Y23045D01*
G01X48028Y23098D01*
G01X48011Y23152D01*
G01X47994Y23206D01*
G01X47978Y23260D01*
G01X47962Y23316D01*
G01X47946Y23372D01*
G01X47930Y23428D01*
G01X47914Y23485D01*
G01X47899Y23543D01*
G01X47884Y23601D01*
G01X47869Y23660D01*
G01X47854Y23719D01*
G01X47839Y23779D01*
G01X47825Y23840D01*
G01X47811Y23901D01*
G01X47797Y23963D01*
G01X47783Y24026D01*
G01X47770Y24089D01*
G01X47756Y24153D01*
G01X47743Y24218D01*
G01X47730Y24283D01*
G01X47717Y24349D01*
G01X47705Y24416D01*
G01X47692Y24483D01*
G01X47680Y24551D01*
G01X47668Y24620D01*
G01X47656Y24689D01*
G01X47645Y24759D01*
G01X47633Y24830D01*
G01X47622Y24902D01*
G01X47611Y24974D01*
G01X47600Y25048D01*
G01X47589Y25121D01*
G01X47589Y25121D01*
G01X47583Y25167D01*
G01X47577Y25209D01*
G01X47572Y25247D01*
G01X47568Y25282D01*
G01X47566Y25315D01*
G01X47566Y25347D01*
G01X47568Y25377D01*
G01X47573Y25406D01*
G01X47581Y25435D01*
G01X47592Y25465D01*
G01X47607Y25495D01*
G01X47626Y25526D01*
G01X47649Y25560D01*
G01X47677Y25595D01*
G01X47710Y25634D01*
G01X47748Y25676D01*
G01X47792Y25722D01*
G01X47842Y25772D01*
G01X47898Y25828D01*
G01X47961Y25889D01*
G01X48031Y25955D01*
G01X48109Y26029D01*
G01X48194Y26109D01*
G01X48287Y26197D01*
G01X48287Y26197D01*
G01X48390Y26295D01*
G01X48486Y26386D01*
G01X48575Y26470D01*
G01X48657Y26547D01*
G01X48732Y26618D01*
G01X48802Y26683D01*
G01X48866Y26742D01*
G01X48925Y26796D01*
G01X48979Y26845D01*
G01X49028Y26889D01*
G01X49074Y26929D01*
G01X49116Y26965D01*
G01X49155Y26997D01*
G01X49191Y27025D01*
G01X49225Y27051D01*
G01X49257Y27073D01*
G01X49287Y27093D01*
G01X49316Y27110D01*
G01X49344Y27126D01*
G01X49372Y27140D01*
G01X49399Y27152D01*
G01X49428Y27164D01*
G01X49456Y27175D01*
G01X49487Y27185D01*
G01X49518Y27195D01*
G01X49552Y27205D01*
G01X49588Y27216D01*
G01X49627Y27228D01*
G01X49627Y27228D01*
G01X49715Y27254D01*
G01X49792Y27276D01*
G01X49857Y27293D01*
G01X49911Y27306D01*
G01X49954Y27315D01*
G01X49986Y27318D01*
G01X50006Y27317D01*
G01X50016Y27311D01*
G01X50015Y27300D01*
G01X50003Y27284D01*
G01X49980Y27262D01*
G01X49946Y27235D01*
G01X49902Y27202D01*
G01X49847Y27163D01*
G01X49781Y27119D01*
G01X49705Y27069D01*
G01X49309Y26809D01*
G01X49087Y26371D01*
G01X49087Y26371D01*
G01X49053Y26304D01*
G01X49019Y26236D01*
G01X48984Y26166D01*
G01X48950Y26096D01*
G01X48915Y26024D01*
G01X48880Y25952D01*
G01X48845Y25880D01*
G01X48811Y25807D01*
G01X48777Y25735D01*
G01X48743Y25662D01*
G01X48709Y25590D01*
G01X48676Y25519D01*
G01X48644Y25448D01*
G01X48612Y25379D01*
G01X48582Y25311D01*
G01X48552Y25244D01*
G01X48523Y25179D01*
G01X48495Y25115D01*
G01X48468Y25054D01*
G01X48443Y24995D01*
G01X48419Y24938D01*
G01X48397Y24884D01*
G01X48376Y24834D01*
G01X48356Y24786D01*
G01X48339Y24741D01*
G01X48323Y24700D01*
G01X48309Y24663D01*
G01X48297Y24629D01*
G01X48287Y24600D01*
G01X48280Y24575D01*
G01X48274Y24554D01*
G01X48272Y24538D01*
G01X48272Y24538D01*
G01X48270Y24515D01*
G01X48269Y24486D01*
G01X48270Y24451D01*
G01X48272Y24410D01*
G01X48276Y24365D01*
G01X48281Y24315D01*
G01X48287Y24261D01*
G01X48294Y24203D01*
G01X48302Y24141D01*
G01X48311Y24076D01*
G01X48321Y24008D01*
G01X48332Y23937D01*
G01X48343Y23863D01*
G01X48356Y23788D01*
G01X48369Y23711D01*
G01X48382Y23632D01*
G01X48397Y23553D01*
G01X48411Y23472D01*
G01X48426Y23391D01*
G01X48442Y23310D01*
G01X48458Y23230D01*
G01X48474Y23149D01*
G01X48490Y23070D01*
G01X48507Y22992D01*
G01X48523Y22915D01*
G01X48540Y22840D01*
G01X48557Y22767D01*
G01X48573Y22696D01*
G01X48589Y22629D01*
G01X48605Y22564D01*
G01X48621Y22503D01*
G01X48637Y22445D01*
G01X48652Y22392D01*
G01X48666Y22343D01*
G01X48681Y22298D01*
G01X48694Y22259D01*
G01X48694Y22259D01*
G01X48713Y22206D01*
G01X48734Y22151D01*
G01X48756Y22094D01*
G01X48779Y22035D01*
G01X48803Y21974D01*
G01X48829Y21912D01*
G01X48855Y21849D01*
G01X48882Y21784D01*
G01X48910Y21718D01*
G01X48938Y21652D01*
G01X48967Y21585D01*
G01X48997Y21518D01*
G01X49027Y21450D01*
G01X49057Y21382D01*
G01X49088Y21314D01*
G01X49118Y21247D01*
G01X49149Y21180D01*
G01X49180Y21113D01*
G01X49211Y21048D01*
G01X49242Y20983D01*
G01X49272Y20919D01*
G01X49302Y20857D01*
G01X49332Y20796D01*
G01X49361Y20736D01*
G01X49390Y20679D01*
G01X49417Y20623D01*
G01X49445Y20570D01*
G01X49471Y20519D01*
G01X49496Y20470D01*
G01X49521Y20424D01*
G01X49544Y20381D01*
G01X49566Y20341D01*
G01X49587Y20304D01*
G01X49607Y20270D01*
G01X49625Y20240D01*
G01X49642Y20214D01*
G01X49657Y20192D01*
G01X49670Y20173D01*
G01X49682Y20159D01*
G01X49692Y20150D01*
G01X49699Y20145D01*
G01X49705Y20144D01*
G01X49709Y20149D01*
G01X49711Y20158D01*
G01X49711Y20158D01*
G01X49709Y20165D01*
G01X49706Y20178D01*
G01X49700Y20198D01*
G01X49692Y20225D01*
G01X49682Y20257D01*
G01X49670Y20296D01*
G01X49656Y20340D01*
G01X49640Y20390D01*
G01X49622Y20445D01*
G01X49603Y20504D01*
G01X49583Y20568D01*
G01X49561Y20636D01*
G01X49537Y20708D01*
G01X49512Y20783D01*
G01X49487Y20862D01*
G01X49460Y20944D01*
G01X49432Y21028D01*
G01X49403Y21114D01*
G01X49374Y21203D01*
G01X49344Y21293D01*
G01X48976Y22398D01*
G01X48899Y23142D01*
G01X48899Y23142D01*
G01X48891Y23220D01*
G01X48883Y23298D01*
G01X48875Y23378D01*
G01X48868Y23458D01*
G01X48860Y23537D01*
G01X48852Y23616D01*
G01X48845Y23693D01*
G01X48838Y23767D01*
G01X48831Y23840D01*
G01X48825Y23909D01*
G01X48819Y23974D01*
G01X48814Y24035D01*
G01X48809Y24092D01*
G01X48805Y24142D01*
G01X48801Y24187D01*
G01X48799Y24226D01*
G01X48774Y24565D01*
G01X49080Y25230D01*
G01X49080Y25230D01*
G01X49134Y25347D01*
G01X49184Y25456D01*
G01X49231Y25558D01*
G01X49275Y25653D01*
G01X49317Y25743D01*
G01X49356Y25825D01*
G01X49392Y25903D01*
G01X49427Y25974D01*
G01X49460Y26041D01*
G01X49491Y26102D01*
G01X49520Y26159D01*
G01X49548Y26212D01*
G01X49575Y26260D01*
G01X49602Y26305D01*
G01X49627Y26346D01*
G01X49652Y26384D01*
G01X49676Y26420D01*
G01X49701Y26452D01*
G01X49725Y26483D01*
G01X49750Y26511D01*
G01X49775Y26538D01*
G01X49801Y26563D01*
G01X49827Y26587D01*
G01X49855Y26610D01*
G01X49884Y26633D01*
G01X49914Y26656D01*
G01X49946Y26678D01*
G01X49980Y26701D01*
G01X50016Y26725D01*
G01X50054Y26749D01*
G01X50095Y26775D01*
G01X50138Y26802D01*
G01X50138Y26802D01*
G01X50198Y26839D01*
G01X50250Y26868D01*
G01X50296Y26890D01*
G01X50334Y26904D01*
G01X50365Y26910D01*
G01X50389Y26907D01*
G01X50405Y26896D01*
G01X50415Y26876D01*
G01X50418Y26848D01*
G01X50415Y26809D01*
G01X50404Y26762D01*
G01X50387Y26705D01*
G01X50363Y26637D01*
G01X50332Y26560D01*
G01X50295Y26472D01*
G01X50252Y26374D01*
G01X50252Y26374D01*
G01X50227Y26316D01*
G01X50203Y26258D01*
G01X50181Y26199D01*
G01X50160Y26141D01*
G01X50142Y26083D01*
G01X50124Y26024D01*
G01X50108Y25966D01*
G01X50094Y25907D01*
G01X50082Y25848D01*
G01X50071Y25789D01*
G01X50061Y25730D01*
G01X50054Y25671D01*
G01X50047Y25611D01*
G01X50043Y25552D01*
G01X50040Y25492D01*
G01X50038Y25432D01*
G01X50038Y25372D01*
G01X50040Y25312D01*
G01X50043Y25251D01*
G01X50048Y25190D01*
G01X50055Y25129D01*
G01X50063Y25068D01*
G01X50072Y25006D01*
G01X50084Y24945D01*
G01X50096Y24883D01*
G01X50111Y24821D01*
G01X50127Y24758D01*
G01X50144Y24695D01*
G01X50144Y24695D01*
G01X50167Y24618D01*
G01X50193Y24540D01*
G01X50220Y24462D01*
G01X50249Y24385D01*
G01X50279Y24308D01*
G01X50311Y24232D01*
G01X50343Y24157D01*
G01X50377Y24084D01*
G01X50411Y24012D01*
G01X50446Y23942D01*
G01X50482Y23874D01*
G01X50518Y23808D01*
G01X50554Y23745D01*
G01X50590Y23685D01*
G01X50626Y23629D01*
G01X50662Y23575D01*
G01X50697Y23525D01*
G01X50731Y23480D01*
G01X50765Y23438D01*
G01X50798Y23401D01*
G01X50830Y23369D01*
G01X50860Y23341D01*
G01X50889Y23319D01*
G01X50916Y23302D01*
G01X50942Y23292D01*
G01X50966Y23287D01*
G01X50987Y23288D01*
G01X51007Y23296D01*
G01X51007Y23296D01*
G01X51040Y23312D01*
G01X51071Y23317D01*
G01X51104Y23311D01*
G01X51138Y23295D01*
G01X51138Y23295D01*
G01X51157Y23287D01*
G01X51177Y23286D01*
G01X51200Y23291D01*
G01X51224Y23301D01*
G01X51250Y23317D01*
G01X51277Y23338D01*
G01X51306Y23363D01*
G01X51336Y23394D01*
G01X51367Y23429D01*
G01X51399Y23468D01*
G01X51431Y23511D01*
G01X51465Y23558D01*
G01X51499Y23608D01*
G01X51533Y23662D01*
G01X51567Y23719D01*
G01X51602Y23779D01*
G01X51636Y23841D01*
G01X51670Y23905D01*
G01X51704Y23972D01*
G01X51737Y24041D01*
G01X51770Y24111D01*
G01X51802Y24183D01*
G01X51833Y24256D01*
G01X51862Y24330D01*
G01X51891Y24404D01*
G01X51918Y24480D01*
G01X51944Y24555D01*
G01X51968Y24630D01*
G01X51968Y24630D01*
G01X51988Y24700D01*
G01X52006Y24763D01*
G01X52021Y24823D01*
G01X52034Y24880D01*
G01X52044Y24936D01*
G01X52053Y24994D01*
G01X52059Y25055D01*
G01X52064Y25121D01*
G01X52068Y25193D01*
G01X52070Y25274D01*
G01X52071Y25365D01*
G01X52072Y25468D01*
G01X52075Y25970D01*
G01X51879Y26386D01*
G01X51879Y26386D01*
G01X51841Y26469D01*
G01X51807Y26545D01*
G01X51779Y26613D01*
G01X51755Y26674D01*
G01X51736Y26729D01*
G01X51722Y26776D01*
G01X51714Y26816D01*
G01X51711Y26849D01*
G01X51713Y26875D01*
G01X51720Y26895D01*
G01X51733Y26908D01*
G01X51751Y26915D01*
G01X51774Y26916D01*
G01X51803Y26910D01*
G01X51838Y26898D01*
G01X51879Y26879D01*
G01X51925Y26855D01*
G01X51977Y26825D01*
G01X52034Y26790D01*
G01X52098Y26748D01*
G01X52098Y26748D01*
G01X52147Y26715D01*
G01X52192Y26684D01*
G01X52233Y26654D01*
G01X52272Y26624D01*
G01X52308Y26594D01*
G01X52342Y26563D01*
G01X52374Y26530D01*
G01X52405Y26495D01*
G01X52436Y26457D01*
G01X52466Y26415D01*
G01X52497Y26370D01*
G01X52528Y26319D01*
G01X52560Y26263D01*
G01X52594Y26201D01*
G01X52629Y26132D01*
G01X52667Y26056D01*
G01X52708Y25972D01*
G01X52753Y25880D01*
G01X52801Y25778D01*
G01X52853Y25666D01*
G01X52853Y25666D01*
G01X52912Y25537D01*
G01X52967Y25419D01*
G01X53017Y25310D01*
G01X53063Y25210D01*
G01X53105Y25118D01*
G01X53142Y25034D01*
G01X53176Y24958D01*
G01X53206Y24887D01*
G01X53232Y24823D01*
G01X53256Y24765D01*
G01X53276Y24711D01*
G01X53293Y24662D01*
G01X53307Y24616D01*
G01X53319Y24574D01*
G01X53329Y24534D01*
G01X53336Y24497D01*
G01X53342Y24461D01*
G01X53346Y24426D01*
G01X53348Y24392D01*
G01X53348Y24357D01*
G01X53348Y24322D01*
G01X53346Y24286D01*
G01X53344Y24248D01*
G01X53340Y24208D01*
G01X53340Y24208D01*
G01X53333Y24114D01*
G01X53325Y24023D01*
G01X53318Y23934D01*
G01X53310Y23849D01*
G01X53303Y23767D01*
G01X53296Y23687D01*
G01X53289Y23609D01*
G01X53282Y23534D01*
G01X53275Y23461D01*
G01X53268Y23391D01*
G01X53261Y23322D01*
G01X53254Y23256D01*
G01X53247Y23191D01*
G01X53239Y23128D01*
G01X53232Y23067D01*
G01X53225Y23008D01*
G01X53217Y22949D01*
G01X53210Y22893D01*
G01X53202Y22837D01*
G01X53194Y22783D01*
G01X53185Y22730D01*
G01X53177Y22677D01*
G01X53168Y22626D01*
G01X53159Y22575D01*
G01X53150Y22525D01*
G01X53140Y22475D01*
G01X53130Y22426D01*
G01X53120Y22377D01*
G01X53109Y22329D01*
G01X53098Y22280D01*
G01X53086Y22232D01*
G01X53074Y22183D01*
G01X53061Y22134D01*
G01X53048Y22085D01*
G01X53035Y22036D01*
G01X53021Y21986D01*
G01X53006Y21935D01*
G01X52991Y21884D01*
G01X52975Y21832D01*
G01X52959Y21779D01*
G01X52941Y21724D01*
G01X52924Y21669D01*
G01X52905Y21613D01*
G01X52886Y21555D01*
G01X52866Y21496D01*
G01X52846Y21435D01*
G01X52824Y21372D01*
G01X52802Y21308D01*
G01X52779Y21242D01*
G01X52756Y21174D01*
G01X52731Y21104D01*
G01X52706Y21031D01*
G01X52706Y21031D01*
G01X52677Y20950D01*
G01X52650Y20873D01*
G01X52625Y20800D01*
G01X52601Y20730D01*
G01X52578Y20664D01*
G01X52557Y20602D01*
G01X52538Y20544D01*
G01X52519Y20489D01*
G01X52503Y20439D01*
G01X52488Y20391D01*
G01X52474Y20348D01*
G01X52462Y20309D01*
G01X52452Y20273D01*
G01X52443Y20241D01*
G01X52435Y20212D01*
G01X52429Y20188D01*
G01X52425Y20167D01*
G01X52422Y20150D01*
G01X52421Y20136D01*
G01X52421Y20127D01*
G01X52423Y20121D01*
G01X52426Y20119D01*
G01X52431Y20121D01*
G01X52438Y20126D01*
G01X52446Y20135D01*
G01X52456Y20148D01*
G01X52467Y20165D01*
G01X52480Y20185D01*
G01X52495Y20209D01*
G01X52511Y20237D01*
G01X52529Y20269D01*
G01X52548Y20304D01*
G01X52569Y20343D01*
G01X52592Y20386D01*
G01X52616Y20433D01*
G01X52642Y20483D01*
G01X52670Y20537D01*
G01X52699Y20595D01*
G01X52730Y20657D01*
G01X52763Y20722D01*
G01X52797Y20791D01*
G01X52833Y20864D01*
G01X52871Y20941D01*
G01X52910Y21021D01*
G01X52910Y21021D01*
G01X52948Y21098D01*
G01X52984Y21172D01*
G01X53018Y21244D01*
G01X53051Y21313D01*
G01X53083Y21380D01*
G01X53113Y21445D01*
G01X53143Y21508D01*
G01X53171Y21569D01*
G01X53198Y21628D01*
G01X53223Y21686D01*
G01X53248Y21743D01*
G01X53272Y21799D01*
G01X53295Y21853D01*
G01X53316Y21907D01*
G01X53337Y21960D01*
G01X53358Y22012D01*
G01X53377Y22064D01*
G01X53396Y22115D01*
G01X53414Y22167D01*
G01X53431Y22218D01*
G01X53448Y22270D01*
G01X53465Y22322D01*
G01X53481Y22374D01*
G01X53496Y22427D01*
G01X53512Y22481D01*
G01X53527Y22535D01*
G01X53541Y22591D01*
G01X53556Y22648D01*
G01X53570Y22706D01*
G01X53584Y22766D01*
G01X53599Y22828D01*
G01X53613Y22891D01*
G01X53627Y22956D01*
G01X53641Y23023D01*
G01X53656Y23093D01*
G01X53671Y23165D01*
G01X53686Y23240D01*
G01X53701Y23317D01*
G01X53716Y23397D01*
G01X53732Y23480D01*
G01X53732Y23480D01*
G01X53746Y23553D01*
G01X53760Y23622D01*
G01X53772Y23688D01*
G01X53784Y23751D01*
G01X53796Y23810D01*
G01X53806Y23867D01*
G01X53816Y23922D01*
G01X53825Y23974D01*
G01X53833Y24024D01*
G01X53840Y24072D01*
G01X53846Y24118D01*
G01X53851Y24163D01*
G01X53855Y24206D01*
G01X53858Y24248D01*
G01X53860Y24289D01*
G01X53861Y24330D01*
G01X53860Y24369D01*
G01X53859Y24408D01*
G01X53856Y24447D01*
G01X53852Y24486D01*
G01X53846Y24525D01*
G01X53840Y24564D01*
G01X53831Y24604D01*
G01X53822Y24645D01*
G01X53811Y24686D01*
G01X53798Y24729D01*
G01X53784Y24773D01*
G01X53769Y24818D01*
G01X53752Y24865D01*
G01X53733Y24914D01*
G01X53712Y24965D01*
G01X53690Y25018D01*
G01X53666Y25074D01*
G01X53640Y25132D01*
G01X53613Y25194D01*
G01X53583Y25258D01*
G01X53552Y25325D01*
G01X53519Y25396D01*
G01X53483Y25471D01*
G01X53446Y25549D01*
G01X53407Y25631D01*
G01X53366Y25717D01*
G01X53322Y25808D01*
G01X53277Y25903D01*
G01X52828Y26842D01*
G01X52436Y27074D01*
G01X52436Y27074D01*
G01X52357Y27121D01*
G01X52289Y27163D01*
G01X52232Y27199D01*
G01X52185Y27231D01*
G01X52149Y27257D01*
G01X52124Y27279D01*
G01X52110Y27295D01*
G01X52106Y27307D01*
G01X52114Y27314D01*
G01X52132Y27316D01*
G01X52162Y27314D01*
G01X52202Y27307D01*
G01X52253Y27296D01*
G01X52316Y27280D01*
G01X52389Y27260D01*
G01X52473Y27237D01*
G01X52473Y27237D01*
G01X52515Y27225D01*
G01X52554Y27213D01*
G01X52590Y27203D01*
G01X52625Y27192D01*
G01X52657Y27181D01*
G01X52689Y27169D01*
G01X52719Y27157D01*
G01X52749Y27144D01*
G01X52779Y27129D01*
G01X52809Y27113D01*
G01X52840Y27095D01*
G01X52871Y27075D01*
G01X52904Y27053D01*
G01X52939Y27028D01*
G01X52975Y27000D01*
G01X53014Y26969D01*
G01X53056Y26934D01*
G01X53101Y26895D01*
G01X53149Y26853D01*
G01X53202Y26806D01*
G01X53259Y26754D01*
G01X53320Y26698D01*
G01X53386Y26636D01*
G01X53458Y26569D01*
G01X53536Y26496D01*
G01X53619Y26417D01*
G01X53709Y26332D01*
G01X53806Y26241D01*
G01X53806Y26241D01*
G01X53905Y26148D01*
G01X53995Y26063D01*
G01X54077Y25985D01*
G01X54151Y25914D01*
G01X54218Y25849D01*
G01X54278Y25790D01*
G01X54331Y25736D01*
G01X54378Y25687D01*
G01X54419Y25642D01*
G01X54455Y25600D01*
G01X54485Y25562D01*
G01X54510Y25526D01*
G01X54530Y25493D01*
G01X54547Y25460D01*
G01X54559Y25429D01*
G01X54568Y25399D01*
G01X54573Y25368D01*
G01X54576Y25336D01*
G01X54576Y25304D01*
G01X54574Y25270D01*
G01X54570Y25234D01*
G01X54565Y25195D01*
G01X54559Y25152D01*
G01X54552Y25107D01*
G01X54552Y25107D01*
G01X54539Y25028D01*
G01X54527Y24952D01*
G01X54515Y24876D01*
G01X54502Y24803D01*
G01X54490Y24731D01*
G01X54478Y24660D01*
G01X54466Y24591D01*
G01X54454Y24523D01*
G01X54441Y24457D01*
G01X54429Y24391D01*
G01X54417Y24327D01*
G01X54404Y24263D01*
G01X54392Y24201D01*
G01X54379Y24140D01*
G01X54366Y24079D01*
G01X54353Y24019D01*
G01X54340Y23960D01*
G01X54326Y23902D01*
G01X54313Y23844D01*
G01X54299Y23786D01*
G01X54285Y23730D01*
G01X54271Y23673D01*
G01X54256Y23617D01*
G01X54241Y23561D01*
G01X54226Y23506D01*
G01X54211Y23450D01*
G01X54195Y23395D01*
G01X54179Y23340D01*
G01X54162Y23285D01*
G01X54145Y23229D01*
G01X54128Y23174D01*
G01X54110Y23118D01*
G01X54092Y23062D01*
G01X54073Y23005D01*
G01X54054Y22948D01*
G01X54035Y22891D01*
G01X54015Y22833D01*
G01X53994Y22775D01*
G01X53973Y22716D01*
G01X53951Y22656D01*
G01X53929Y22595D01*
G01X53906Y22534D01*
G01X53883Y22471D01*
G01X53859Y22408D01*
G01X53859Y22408D01*
G01X53805Y22266D01*
G01X53756Y22138D01*
G01X53713Y22025D01*
G01X53675Y21925D01*
G01X53642Y21837D01*
G01X53613Y21761D01*
G01X53589Y21695D01*
G01X53569Y21639D01*
G01X53552Y21593D01*
G01X53539Y21554D01*
G01X53529Y21523D01*
G01X53522Y21499D01*
G01X53518Y21481D01*
G01X53516Y21468D01*
G01X53516Y21459D01*
G01X53518Y21453D01*
G01X53522Y21450D01*
G01X53527Y21449D01*
G01X53533Y21449D01*
G01X53539Y21449D01*
G01X53539Y21449D01*
G01X53548Y21452D01*
G01X53559Y21461D01*
G01X53572Y21475D01*
G01X53589Y21494D01*
G01X53607Y21518D01*
G01X53627Y21547D01*
G01X53650Y21581D01*
G01X53674Y21619D01*
G01X53700Y21660D01*
G01X53728Y21706D01*
G01X53757Y21755D01*
G01X53787Y21807D01*
G01X53819Y21862D01*
G01X53852Y21919D01*
G01X53885Y21979D01*
G01X53920Y22042D01*
G01X53955Y22106D01*
G01X53990Y22172D01*
G01X54026Y22240D01*
G01X54063Y22308D01*
G01X54099Y22378D01*
G01X54135Y22448D01*
G01X54171Y22519D01*
G01X54207Y22590D01*
G01X54243Y22660D01*
G01X54278Y22731D01*
G01X54312Y22801D01*
G01X54345Y22870D01*
G01X54378Y22938D01*
G01X54409Y23005D01*
G01X54439Y23070D01*
G01X54468Y23133D01*
G01X54495Y23195D01*
G01X54521Y23254D01*
G01X54544Y23310D01*
G01X54566Y23364D01*
G01X54566Y23364D01*
G01X54579Y23397D01*
G01X54593Y23435D01*
G01X54608Y23478D01*
G01X54624Y23524D01*
G01X54640Y23575D01*
G01X54657Y23630D01*
G01X54675Y23688D01*
G01X54693Y23749D01*
G01X54712Y23813D01*
G01X54731Y23879D01*
G01X54751Y23948D01*
G01X54771Y24019D01*
G01X54791Y24092D01*
G01X54811Y24166D01*
G01X54831Y24241D01*
G01X54851Y24317D01*
G01X54871Y24393D01*
G01X54891Y24470D01*
G01X54911Y24547D01*
G01X54930Y24623D01*
G01X54949Y24700D01*
G01X54967Y24775D01*
G01X54985Y24849D01*
G01X55002Y24921D01*
G01X55019Y24992D01*
G01X55034Y25061D01*
G01X55049Y25128D01*
G01X55063Y25192D01*
G01X55076Y25253D01*
G01X55088Y25312D01*
G01X55098Y25366D01*
G01X55108Y25418D01*
G01X55155Y25684D01*
G01X55029Y25795D01*
G01X55029Y25795D01*
G01X55002Y25818D01*
G01X54972Y25844D01*
G01X54937Y25874D01*
G01X54899Y25907D01*
G01X54858Y25943D01*
G01X54813Y25981D01*
G01X54765Y26022D01*
G01X54715Y26065D01*
G01X54662Y26111D01*
G01X54607Y26158D01*
G01X54550Y26207D01*
G01X54492Y26257D01*
G01X54432Y26308D01*
G01X54370Y26361D01*
G01X54308Y26414D01*
G01X54244Y26468D01*
G01X54181Y26522D01*
G01X54117Y26577D01*
G01X54052Y26632D01*
G01X53989Y26686D01*
G01X53925Y26740D01*
G01X53862Y26794D01*
G01X53800Y26846D01*
G01X53739Y26898D01*
G01X53680Y26948D01*
G01X53622Y26997D01*
G01X53566Y27045D01*
G01X53512Y27090D01*
G01X53461Y27134D01*
G01X53412Y27175D01*
G01X53365Y27214D01*
G01X53322Y27251D01*
G01X53283Y27284D01*
G01X53246Y27314D01*
G01X53214Y27342D01*
G01X53185Y27365D01*
G01X53161Y27385D01*
G01X53141Y27402D01*
G01X53126Y27414D01*
G01X53116Y27422D01*
G01X53116Y27422D01*
G01X53086Y27441D01*
G01X53042Y27464D01*
G01X52987Y27490D01*
G01X52923Y27517D01*
G01X52851Y27545D01*
G01X52775Y27574D01*
G01X52695Y27601D01*
G01X52614Y27627D01*
G01X52614Y27627D01*
G01X52523Y27655D01*
G01X52443Y27680D01*
G01X52375Y27703D01*
G01X52318Y27723D01*
G01X52273Y27740D01*
G01X52240Y27755D01*
G01X52218Y27768D01*
G01X52207Y27779D01*
G01X52208Y27788D01*
G01X52219Y27795D01*
G01X52242Y27801D01*
G01X52276Y27805D01*
G01X52320Y27808D01*
G01X52376Y27810D01*
G01X52442Y27811D01*
G01X52519Y27812D01*
G01X52885Y27812D01*
G01X54088Y27208D01*
G01X54088Y27208D01*
G01X54200Y27151D01*
G01X54306Y27098D01*
G01X54406Y27049D01*
G01X54499Y27002D01*
G01X54587Y26959D01*
G01X54669Y26919D01*
G01X54745Y26882D01*
G01X54815Y26848D01*
G01X54881Y26817D01*
G01X54941Y26789D01*
G01X54996Y26763D01*
G01X55046Y26740D01*
G01X55092Y26720D01*
G01X55133Y26703D01*
G01X55170Y26687D01*
G01X55202Y26674D01*
G01X55231Y26664D01*
G01X55256Y26655D01*
G01X55277Y26649D01*
G01X55295Y26645D01*
G01X55309Y26643D01*
G01X55321Y26643D01*
G01X55329Y26644D01*
G01X55335Y26648D01*
G01X55335Y26648D01*
G01X55354Y26671D01*
G01X55372Y26701D01*
G01X55389Y26738D01*
G01X55405Y26780D01*
G01X55420Y26828D01*
G01X55434Y26880D01*
G01X55447Y26938D01*
G01X55458Y26999D01*
G01X55468Y27063D01*
G01X55477Y27131D01*
G01X55485Y27201D01*
G01X55491Y27273D01*
G01X55495Y27347D01*
G01X55499Y27422D01*
G01X55500Y27497D01*
G01X55501Y27573D01*
G01X55499Y27648D01*
G01X55497Y27723D01*
G01X55492Y27796D01*
G01X55486Y27868D01*
G01X55478Y27938D01*
G01X55468Y28004D01*
G01X55457Y28068D01*
G01X55444Y28128D01*
G01X55444Y28128D01*
G01X55434Y28166D01*
G01X55423Y28208D01*
G01X55411Y28252D01*
G01X55397Y28300D01*
G01X55381Y28350D01*
G01X55364Y28403D01*
G01X55346Y28458D01*
G01X55327Y28516D01*
G01X55306Y28577D01*
G01X55285Y28639D01*
G01X55262Y28703D01*
G01X55239Y28770D01*
G01X55214Y28838D01*
G01X55189Y28907D01*
G01X55162Y28978D01*
G01X55135Y29051D01*
G01X55108Y29125D01*
G01X55079Y29199D01*
G01X55050Y29275D01*
G01X55021Y29351D01*
G01X54991Y29429D01*
G01X54961Y29506D01*
G01X54930Y29584D01*
G01X54899Y29663D01*
G01X54867Y29741D01*
G01X54836Y29819D01*
G01X54804Y29898D01*
G01X54772Y29976D01*
G01X54740Y30053D01*
G01X54708Y30130D01*
G01X54676Y30207D01*
G01X54645Y30282D01*
G01X54613Y30357D01*
G01X54582Y30430D01*
G01X54551Y30503D01*
G01X54521Y30573D01*
G01X54490Y30643D01*
G01X54461Y30711D01*
G01X54431Y30777D01*
G01X54403Y30841D01*
G01X54375Y30903D01*
G01X54348Y30963D01*
G01X54321Y31021D01*
G01X54295Y31076D01*
G01X54270Y31128D01*
G01X54246Y31178D01*
G01X54223Y31225D01*
G01X54201Y31269D01*
G01X54180Y31310D01*
G01X54161Y31348D01*
G01X54142Y31383D01*
G01X54125Y31413D01*
G01X54109Y31441D01*
G01X54094Y31464D01*
G01X54081Y31484D01*
G01X54069Y31499D01*
G01X54059Y31510D01*
G01X54050Y31517D01*
G01X54043Y31520D01*
G01X54038Y31517D01*
G01X54038Y31517D01*
G01X54037Y31510D01*
G01X54041Y31493D01*
G01X54047Y31466D01*
G01X54056Y31430D01*
G01X54068Y31385D01*
G01X54083Y31332D01*
G01X54100Y31272D01*
G01X54120Y31204D01*
G01X54141Y31130D01*
G01X54165Y31050D01*
G01X54191Y30965D01*
G01X54218Y30875D01*
G01X54247Y30780D01*
G01X54277Y30682D01*
G01X54309Y30580D01*
G01X54342Y30476D01*
G01X54342Y30476D01*
G01X54375Y30371D01*
G01X54406Y30268D01*
G01X54437Y30169D01*
G01X54467Y30073D01*
G01X54495Y29980D01*
G01X54523Y29889D01*
G01X54550Y29802D01*
G01X54575Y29717D01*
G01X54600Y29634D01*
G01X54623Y29554D01*
G01X54646Y29477D01*
G01X54668Y29402D01*
G01X54689Y29330D01*
G01X54709Y29259D01*
G01X54728Y29191D01*
G01X54746Y29125D01*
G01X54763Y29061D01*
G01X54779Y28999D01*
G01X54795Y28939D01*
G01X54810Y28881D01*
G01X54824Y28824D01*
G01X54837Y28770D01*
G01X54850Y28716D01*
G01X54862Y28665D01*
G01X54873Y28615D01*
G01X54883Y28566D01*
G01X54893Y28519D01*
G01X54902Y28472D01*
G01X54910Y28428D01*
G01X54918Y28384D01*
G01X54925Y28341D01*
G01X54932Y28299D01*
G01X54938Y28258D01*
G01X54943Y28218D01*
G01X54948Y28179D01*
G01X54952Y28141D01*
G01X54956Y28103D01*
G01X54960Y28065D01*
G01X54963Y28029D01*
G01X54965Y27992D01*
G01X54967Y27956D01*
G01X54968Y27920D01*
G01X54970Y27885D01*
G01X54970Y27849D01*
G01X54977Y27421D01*
G01X54865Y27426D01*
G01X54865Y27426D01*
G01X54844Y27430D01*
G01X54811Y27439D01*
G01X54768Y27453D01*
G01X54715Y27472D01*
G01X54653Y27495D01*
G01X54584Y27522D01*
G01X54509Y27553D01*
G01X54427Y27587D01*
G01X54341Y27623D01*
G01X54252Y27662D01*
G01X54159Y27703D01*
G01X54065Y27746D01*
G01X54065Y27746D01*
G01X53949Y27799D01*
G01X53840Y27849D01*
G01X53739Y27895D01*
G01X53646Y27937D01*
G01X53559Y27976D01*
G01X53479Y28012D01*
G01X53405Y28044D01*
G01X53336Y28074D01*
G01X53273Y28101D01*
G01X53214Y28125D01*
G01X53160Y28147D01*
G01X53110Y28166D01*
G01X53063Y28183D01*
G01X53019Y28197D01*
G01X52977Y28210D01*
G01X52938Y28221D01*
G01X52901Y28230D01*
G01X52865Y28237D01*
G01X52829Y28244D01*
G01X52795Y28248D01*
G01X52760Y28252D01*
G01X52725Y28254D01*
G01X52688Y28256D01*
G01X52651Y28257D01*
G01X52612Y28257D01*
G01X52571Y28257D01*
G01X52527Y28256D01*
G01X52480Y28256D01*
G01X52480Y28256D01*
G01X52402Y28255D01*
G01X52327Y28254D01*
G01X52260Y28255D01*
G01X52200Y28256D01*
G01X52149Y28258D01*
G01X52110Y28260D01*
G01X52084Y28263D01*
G01X52073Y28266D01*
G01X52073Y28266D01*
G01X52080Y28278D01*
G01X52110Y28300D01*
G01X52161Y28329D01*
G01X52227Y28363D01*
G01X52304Y28401D01*
G01X52388Y28440D01*
G01X52475Y28479D01*
G01X52559Y28515D01*
G01X52638Y28546D01*
G01X52706Y28571D01*
G01X52759Y28587D01*
G01X52792Y28593D01*
G01X52792Y28593D01*
G01X52818Y28590D01*
G01X52859Y28580D01*
G01X52914Y28564D01*
G01X52980Y28543D01*
G01X53055Y28518D01*
G01X53137Y28489D01*
G01X53223Y28457D01*
G01X53313Y28423D01*
G01X53313Y28423D01*
G01X53413Y28384D01*
G01X53509Y28347D01*
G01X53602Y28312D01*
G01X53690Y28279D01*
G01X53773Y28248D01*
G01X53852Y28219D01*
G01X53925Y28192D01*
G01X53993Y28168D01*
G01X54055Y28146D01*
G01X54112Y28127D01*
G01X54162Y28111D01*
G01X54205Y28097D01*
G01X54242Y28086D01*
G01X54272Y28079D01*
G01X54295Y28074D01*
G01X54310Y28072D01*
G01X54310Y28072D01*
G01X54324Y28075D01*
G01X54337Y28084D01*
G01X54349Y28098D01*
G01X54358Y28117D01*
G01X54366Y28141D01*
G01X54372Y28171D01*
G01X54377Y28205D01*
G01X54379Y28243D01*
G01X54381Y28286D01*
G01X54380Y28334D01*
G01X54378Y28385D01*
G01X54375Y28440D01*
G01X54369Y28498D01*
G01X54363Y28560D01*
G01X54354Y28625D01*
G01X54345Y28693D01*
G01X54333Y28764D01*
G01X54320Y28838D01*
G01X54306Y28914D01*
G01X54290Y28992D01*
G01X54273Y29073D01*
G01X54254Y29155D01*
G01X54234Y29239D01*
G01X54212Y29325D01*
G01X54212Y29325D01*
G01X54196Y29387D01*
G01X54179Y29452D01*
G01X54161Y29518D01*
G01X54141Y29586D01*
G01X54121Y29656D01*
G01X54101Y29726D01*
G01X54079Y29798D01*
G01X54057Y29872D01*
G01X54034Y29946D01*
G01X54011Y30020D01*
G01X53987Y30096D01*
G01X53963Y30171D01*
G01X53939Y30247D01*
G01X53914Y30323D01*
G01X53889Y30399D01*
G01X53863Y30475D01*
G01X53838Y30550D01*
G01X53813Y30625D01*
G01X53787Y30699D01*
G01X53762Y30772D01*
G01X53736Y30844D01*
G01X53711Y30915D01*
G01X53686Y30984D01*
G01X53661Y31052D01*
G01X53637Y31118D01*
G01X53613Y31182D01*
G01X53590Y31244D01*
G01X53567Y31304D01*
G01X53544Y31362D01*
G01X53522Y31417D01*
G01X53501Y31469D01*
G01X53481Y31519D01*
G01X53461Y31565D01*
G01X53443Y31609D01*
G01X53425Y31649D01*
G01X53408Y31685D01*
G01X53392Y31718D01*
G01X53378Y31747D01*
G01X53364Y31772D01*
G01X53352Y31792D01*
G01X53341Y31809D01*
G01X53331Y31821D01*
G01X53323Y31828D01*
G01X53316Y31830D01*
G01X53316Y31830D01*
G01X53308Y31830D01*
G01X53301Y31830D01*
G01X53296Y31827D01*
G01X53292Y31822D01*
G01X53290Y31812D01*
G01X53291Y31796D01*
G01X53294Y31773D01*
G01X53299Y31741D01*
G01X53307Y31700D01*
G01X53319Y31648D01*
G01X53334Y31584D01*
G01X53352Y31506D01*
G01X53375Y31414D01*
G01X53401Y31305D01*
G01X53432Y31179D01*
G01X53468Y31034D01*
G01X53468Y31034D01*
G01X53492Y30936D01*
G01X53516Y30839D01*
G01X53539Y30743D01*
G01X53561Y30648D01*
G01X53582Y30556D01*
G01X53603Y30465D01*
G01X53623Y30375D01*
G01X53643Y30287D01*
G01X53662Y30202D01*
G01X53680Y30118D01*
G01X53697Y30035D01*
G01X53714Y29955D01*
G01X53730Y29877D01*
G01X53745Y29801D01*
G01X53760Y29727D01*
G01X53774Y29655D01*
G01X53787Y29586D01*
G01X53799Y29519D01*
G01X53810Y29454D01*
G01X53821Y29392D01*
G01X53831Y29332D01*
G01X53839Y29274D01*
G01X53848Y29220D01*
G01X53855Y29168D01*
G01X53861Y29118D01*
G01X53867Y29072D01*
G01X53872Y29028D01*
G01X53876Y28987D01*
G01X53879Y28949D01*
G01X53881Y28914D01*
G01X53882Y28882D01*
G01X53882Y28853D01*
G01X53881Y28828D01*
G01X53880Y28805D01*
G01X53877Y28786D01*
G01X53874Y28770D01*
G01X53869Y28758D01*
G01X53864Y28749D01*
G01X53858Y28744D01*
G01X53850Y28742D01*
G01X53850Y28742D01*
G01X53839Y28743D01*
G01X53821Y28748D01*
G01X53795Y28755D01*
G01X53764Y28765D01*
G01X53726Y28777D01*
G01X53681Y28792D01*
G01X53631Y28809D01*
G01X53575Y28828D01*
G01X53514Y28850D01*
G01X53448Y28874D01*
G01X53377Y28900D01*
G01X53301Y28928D01*
G01X53221Y28958D01*
G01X53137Y28989D01*
G01X53049Y29022D01*
G01X52957Y29057D01*
G01X52687Y29161D01*
G01X52250Y28895D01*
G01X52250Y28895D01*
G01X52131Y28824D01*
G01X52034Y28765D01*
G01X51955Y28718D01*
G01X51893Y28684D01*
G01X51845Y28661D01*
G01X51810Y28650D01*
G01X51786Y28649D01*
G01X51771Y28659D01*
G01X51762Y28679D01*
G01X51759Y28709D01*
G01X51758Y28748D01*
G01X51758Y28795D01*
G01X51758Y28795D01*
G01X51756Y28867D01*
G01X51750Y28931D01*
G01X51739Y28989D01*
G01X51722Y29043D01*
G01X51698Y29096D01*
G01X51667Y29148D01*
G01X51628Y29203D01*
G01X51579Y29263D01*
G01X51579Y29263D01*
G01X51529Y29317D01*
G01X51489Y29351D01*
G01X51461Y29364D01*
G01X51443Y29356D01*
G01X51435Y29327D01*
G01X51439Y29278D01*
G01X51453Y29208D01*
G01X51478Y29117D01*
G01X51478Y29117D01*
G01X51506Y29017D01*
G01X51522Y28935D01*
G01X51528Y28873D01*
G01X51522Y28830D01*
G01X51506Y28808D01*
G01X51479Y28806D01*
G01X51442Y28824D01*
G01X51394Y28864D01*
G01X51293Y28960D01*
G01X51182Y28871D01*
G01X51072Y28782D01*
G01X50968Y28880D01*
G01X50865Y28979D01*
G01X50760Y28879D01*
G01X50760Y28879D01*
G01X50720Y28844D01*
G01X50685Y28822D01*
G01X50656Y28813D01*
G01X50634Y28817D01*
G01X50617Y28831D01*
G01X50606Y28857D01*
G01X50602Y28893D01*
G01X50604Y28940D01*
G01X50613Y28996D01*
G01X50628Y29061D01*
G01X50650Y29135D01*
G01X50679Y29216D01*
G01X50679Y29216D01*
G01X50706Y29292D01*
G01X50722Y29349D01*
G01X50726Y29386D01*
G01X50718Y29403D01*
G01X50699Y29400D01*
G01X50667Y29379D01*
G01X50624Y29338D01*
G01X50569Y29277D01*
G01X50569Y29277D01*
G01X50519Y29217D01*
G01X50478Y29161D01*
G01X50445Y29107D01*
G01X50420Y29053D01*
G01X50402Y28996D01*
G01X50390Y28936D01*
G01X50384Y28870D01*
G01X50382Y28795D01*
G01X50382Y28795D01*
G01X50382Y28748D01*
G01X50381Y28709D01*
G01X50377Y28679D01*
G01X50368Y28659D01*
G01X50353Y28649D01*
G01X50329Y28649D01*
G01X50295Y28661D01*
G01X50248Y28683D01*
G01X50186Y28717D01*
G01X50109Y28762D01*
G01X50013Y28820D01*
G01X49898Y28891D01*
G01X49898Y28891D01*
G01X49811Y28943D01*
G01X49730Y28992D01*
G01X49654Y29036D01*
G01X49587Y29075D01*
G01X49530Y29107D01*
G01X49485Y29131D01*
G01X49454Y29146D01*
G01X49439Y29151D01*
G01X49439Y29151D01*
G01X49422Y29147D01*
G01X49386Y29135D01*
G01X49333Y29116D01*
G01X49265Y29091D01*
G01X49185Y29061D01*
G01X49095Y29026D01*
G01X48997Y28988D01*
G01X48893Y28947D01*
G01X48893Y28947D01*
G01X48789Y28906D01*
G01X48689Y28867D01*
G01X48596Y28832D01*
G01X48512Y28802D01*
G01X48439Y28777D01*
G01X48381Y28758D01*
G01X48338Y28746D01*
G01X48315Y28742D01*
G01X48315Y28742D01*
G01X48304Y28743D01*
G01X48295Y28747D01*
G01X48287Y28754D01*
G01X48279Y28763D01*
G01X48273Y28774D01*
G01X48267Y28789D01*
G01X48262Y28806D01*
G01X48259Y28825D01*
G01X48256Y28848D01*
G01X48254Y28873D01*
G01X48253Y28901D01*
G01X48253Y28932D01*
G01X48255Y28966D01*
G01X48257Y29002D01*
G01X48260Y29041D01*
G01X48264Y29084D01*
G01X48269Y29129D01*
G01X48275Y29177D01*
G01X48282Y29228D01*
G01X48291Y29282D01*
G01X48300Y29339D01*
G01X48310Y29399D01*
G01X48321Y29462D01*
G01X48333Y29529D01*
G01X48346Y29598D01*
G01X48361Y29670D01*
G01X48376Y29746D01*
G01X48392Y29825D01*
G01X48409Y29907D01*
G01X48428Y29992D01*
G01X48447Y30080D01*
G01X48468Y30172D01*
G01X48489Y30267D01*
G01X48512Y30365D01*
G01X48535Y30467D01*
G01X48560Y30572D01*
G01X48586Y30680D01*
G01X48613Y30792D01*
G01X48640Y30907D01*
G01X48669Y31025D01*
G01X48669Y31025D01*
G01X48703Y31163D01*
G01X48733Y31286D01*
G01X48758Y31395D01*
G01X48780Y31489D01*
G01X48798Y31570D01*
G01X48812Y31639D01*
G01X48823Y31695D01*
G01X48830Y31740D01*
G01X48834Y31774D01*
G01X48834Y31797D01*
G01X48831Y31811D01*
G01X48824Y31815D01*
G01X48815Y31810D01*
G01X48802Y31797D01*
G01X48786Y31777D01*
G01X48768Y31750D01*
G37*

%LPD*%
G54D10*
G01X32258Y54102D02*
G01X32258Y36322D01*
G01X32258Y36322D02*
G01X75438Y36322D01*
G01X75438Y36322D02*
G01X75438Y54102D01*
G01X75438Y54102D02*
G01X32258Y54102D01*
G01X36068Y49022D02*
G01X28448Y49022D01*
G01X28448Y41402D01*
G01X36068Y41402D01*
G01X36068Y49022D01*
G54D20*
G01X98044Y36830D02*
G01X98044Y34290D01*
G01X87884Y34290D01*
G01X87884Y36830D01*
G01X89789Y36830D01*
G54D21*
G01X98044Y36830D02*
G01X89789Y36830D01*
G54D20*
G01X24384Y38100D02*
G01X24384Y35560D01*
G01X14224Y35560D01*
G01X14224Y38100D01*
G01X16129Y38100D01*
G54D21*
G01X24384Y38100D02*
G01X16129Y38100D01*
G54D20*
G01X4445Y29972D02*
G01X2540Y29972D01*
G01X2540Y27432D01*
G01X10160Y27432D01*
G01X10160Y29972D01*
G54D21*
G01X10160Y29972D02*
G01X4445Y29972D01*
G54D20*
G01X4445Y24892D02*
G01X2540Y24892D01*
G01X2540Y22352D01*
G01X10160Y22352D01*
G01X10160Y24892D01*
G54D21*
G01X10160Y24892D02*
G01X4445Y24892D01*
G54D20*
G01X4445Y19812D02*
G01X2540Y19812D01*
G01X2540Y17272D01*
G01X10160Y17272D01*
G01X10160Y19812D01*
G54D21*
G01X10160Y19812D02*
G01X4445Y19812D01*
G54D20*
G01X14859Y64770D02*
G01X12954Y64770D01*
G01X12954Y62230D01*
G01X20574Y62230D01*
G01X20574Y64770D01*
G54D21*
G01X20574Y64770D02*
G01X14859Y64770D01*
G54D20*
G01X14859Y59690D02*
G01X12954Y59690D01*
G01X12954Y57150D01*
G01X20574Y57150D01*
G01X20574Y59690D01*
G54D21*
G01X20574Y59690D02*
G01X14859Y59690D01*
G54D20*
G01X14859Y54610D02*
G01X12954Y54610D01*
G01X12954Y52070D01*
G01X20574Y52070D01*
G01X20574Y54610D01*
G54D21*
G01X20574Y54610D02*
G01X14859Y54610D01*
G54D20*
G01X93091Y30226D02*
G01X91186Y30226D01*
G01X91186Y27686D01*
G01X98806Y27686D01*
G01X98806Y30226D01*
G54D21*
G01X98806Y30226D02*
G01X93091Y30226D01*
G54D20*
G01X93091Y25146D02*
G01X91186Y25146D01*
G01X91186Y22606D01*
G01X98806Y22606D01*
G01X98806Y25146D01*
G54D21*
G01X98806Y25146D02*
G01X93091Y25146D01*
G54D20*
G01X93091Y20066D02*
G01X91186Y20066D01*
G01X91186Y17526D01*
G01X98806Y17526D01*
G01X98806Y20066D01*
G54D21*
G01X98806Y20066D02*
G01X93091Y20066D01*
G54D20*
G01X81153Y66802D02*
G01X79248Y66802D01*
G01X79248Y64262D01*
G01X86868Y64262D01*
G01X86868Y66802D01*
G54D21*
G01X86868Y66802D02*
G01X81153Y66802D01*
G54D20*
G01X81153Y61722D02*
G01X79248Y61722D01*
G01X79248Y59182D01*
G01X86868Y59182D01*
G01X86868Y61722D01*
G54D21*
G01X86868Y61722D02*
G01X81153Y61722D01*
G54D20*
G01X81153Y56642D02*
G01X79248Y56642D01*
G01X79248Y54102D01*
G01X86868Y54102D01*
G01X86868Y56642D01*
G54D21*
G01X86868Y56642D02*
G01X81153Y56642D01*
G54D10*
G01X86868Y39878D02*
G01X94488Y39878D01*
G01X94488Y39878D01*
G01X86868Y39878D02*
G01X86868Y50038D01*
G01X94488Y39878D02*
G01X94488Y50038D01*
G01X86868Y50038D02*
G01X94488Y50038D01*
G54D22*
G01X22146Y43921D02*
G01X23464Y43921D01*
G01X23464Y45991D01*
G01X22146Y45991D01*
G01X21013Y43921D02*
G01X19692Y43921D01*
G01X19692Y45991D01*
G01X21013Y45991D01*
G01X16558Y43921D02*
G01X17876Y43921D01*
G01X17876Y45991D01*
G01X16558Y45991D01*
G01X15425Y43921D02*
G01X14104Y43921D01*
G01X14104Y45991D01*
G01X15425Y45991D01*
G01X11478Y44175D02*
G01X12796Y44175D01*
G01X12796Y46245D01*
G01X11478Y46245D01*
G01X10345Y44175D02*
G01X9024Y44175D01*
G01X9024Y46245D01*
G01X10345Y46245D01*
G54D23*
G01X76200Y40860D02*
G01X77289Y40444D01*
G01X76200Y40860D02*
G01X77289Y41275D01*
G01X76926Y40599D02*
G01X76926Y41120D01*
G01X76200Y41617D02*
G01X77289Y41617D01*
G01X76200Y41617D02*
G01X76200Y42085D01*
G01X76250Y42242D01*
G01X76301Y42293D01*
G01X76405Y42346D01*
G01X76509Y42346D01*
G01X76614Y42293D01*
G01X76667Y42242D01*
G01X76718Y42085D01*
G01X76718Y41617D01*
G01X76718Y41981D02*
G01X77289Y42346D01*
G01X76200Y42689D02*
G01X77289Y42689D01*
G01X76200Y42689D02*
G01X76200Y43053D01*
G01X76250Y43207D01*
G01X76354Y43312D01*
G01X76459Y43365D01*
G01X76614Y43416D01*
G01X76873Y43416D01*
G01X77030Y43365D01*
G01X77134Y43312D01*
G01X77238Y43207D01*
G01X77289Y43053D01*
G01X77289Y42689D01*
G01X76200Y43759D02*
G01X76977Y43759D01*
G01X77134Y43809D01*
G01X77238Y43914D01*
G01X77289Y44071D01*
G01X77289Y44175D01*
G01X77238Y44330D01*
G01X77134Y44434D01*
G01X76977Y44485D01*
G01X76200Y44485D01*
G01X76200Y44828D02*
G01X77289Y44828D01*
G01X76200Y45171D02*
G01X77289Y45171D01*
G01X76200Y45171D02*
G01X77289Y45900D01*
G01X76200Y45900D02*
G01X77289Y45900D01*
G01X76200Y46553D02*
G01X76250Y46451D01*
G01X76354Y46347D01*
G01X76459Y46294D01*
G01X76614Y46243D01*
G01X76873Y46243D01*
G01X77030Y46294D01*
G01X77134Y46347D01*
G01X77238Y46451D01*
G01X77289Y46553D01*
G01X77289Y46761D01*
G01X77238Y46865D01*
G01X77134Y46969D01*
G01X77030Y47023D01*
G01X76873Y47073D01*
G01X76614Y47073D01*
G01X76459Y47023D01*
G01X76354Y46969D01*
G01X76250Y46865D01*
G01X76200Y46761D01*
G01X76200Y46553D01*
G01X76200Y47416D02*
G01X77289Y47416D01*
G01X76200Y47416D02*
G01X77289Y48143D01*
G01X76200Y48143D02*
G01X77289Y48143D01*
G01X76200Y48902D02*
G01X77289Y48486D01*
G01X76200Y48902D02*
G01X77289Y49319D01*
G01X76926Y48643D02*
G01X76926Y49161D01*
G01X76200Y49662D02*
G01X77289Y49662D01*
G01X76200Y49662D02*
G01X77289Y50388D01*
G01X76200Y50388D02*
G01X77289Y50388D01*
G01X76200Y51043D02*
G01X76250Y50939D01*
G01X76354Y50835D01*
G01X76459Y50782D01*
G01X76614Y50731D01*
G01X76873Y50731D01*
G01X77030Y50782D01*
G01X77134Y50835D01*
G01X77238Y50939D01*
G01X77289Y51043D01*
G01X77289Y51252D01*
G01X77238Y51353D01*
G01X77134Y51457D01*
G01X77030Y51511D01*
G01X76873Y51562D01*
G01X76614Y51562D01*
G01X76459Y51511D01*
G01X76354Y51457D01*
G01X76250Y51353D01*
G01X76200Y51252D01*
G01X76200Y51043D01*
G54D20*
G01X72458Y59529D02*
G01X71488Y59529D01*
G01X72458Y59529D02*
G01X72458Y59207D01*
G01X72412Y59067D01*
G01X72321Y58976D01*
G01X72227Y58930D01*
G01X72090Y58882D01*
G01X71859Y58882D01*
G01X71719Y58930D01*
G01X71628Y58976D01*
G01X71536Y59067D01*
G01X71488Y59207D01*
G01X71488Y59529D01*
G01X72273Y58577D02*
G01X72321Y58486D01*
G01X72458Y58348D01*
G01X71488Y58348D01*
G01X72644Y57210D02*
G01X71165Y58044D01*
G01X72458Y56583D02*
G01X71488Y56583D01*
G01X72458Y56906D02*
G01X72458Y56261D01*
G01X72458Y55956D02*
G01X71488Y55308D01*
G01X72458Y55308D02*
G01X71488Y55956D01*
G01X69410Y34104D02*
G01X69504Y34150D01*
G01X69596Y34244D01*
G01X69641Y34335D01*
G01X69641Y34521D01*
G01X69596Y34612D01*
G01X69504Y34706D01*
G01X69410Y34752D01*
G01X69273Y34798D01*
G01X69042Y34798D01*
G01X68902Y34752D01*
G01X68811Y34706D01*
G01X68719Y34612D01*
G01X68671Y34521D01*
G01X68671Y34335D01*
G01X68719Y34244D01*
G01X68811Y34150D01*
G01X68902Y34104D01*
G01X69042Y34104D01*
G01X69042Y34335D02*
G01X69042Y34104D01*
G01X69641Y33799D02*
G01X68671Y33799D01*
G01X69641Y33799D02*
G01X68671Y33154D01*
G01X69641Y33154D02*
G01X68671Y33154D01*
G01X69641Y32849D02*
G01X68671Y32849D01*
G01X69641Y32849D02*
G01X69641Y32524D01*
G01X69596Y32387D01*
G01X69504Y32296D01*
G01X69410Y32247D01*
G01X69273Y32202D01*
G01X69042Y32202D01*
G01X68902Y32247D01*
G01X68811Y32296D01*
G01X68719Y32387D01*
G01X68671Y32524D01*
G01X68671Y32849D01*
G01X64170Y34381D02*
G01X63337Y34381D01*
G01X63754Y34798D02*
G01X63754Y33967D01*
G01X64307Y33108D02*
G01X64307Y33568D01*
G01X63893Y33616D01*
G01X63939Y33568D01*
G01X63985Y33431D01*
G01X63985Y33291D01*
G01X63939Y33154D01*
G01X63845Y33060D01*
G01X63708Y33014D01*
G01X63614Y33014D01*
G01X63477Y33060D01*
G01X63385Y33154D01*
G01X63337Y33291D01*
G01X63337Y33431D01*
G01X63385Y33568D01*
G01X63431Y33616D01*
G01X63522Y33662D01*
G01X64307Y32710D02*
G01X63337Y32341D01*
G01X64307Y31970D02*
G01X63337Y32341D01*
G01X36530Y57658D02*
G01X35560Y57658D01*
G01X36530Y57658D02*
G01X36530Y57335D01*
G01X36484Y57195D01*
G01X36393Y57104D01*
G01X36299Y57058D01*
G01X36162Y57010D01*
G01X35930Y57010D01*
G01X35791Y57058D01*
G01X35699Y57104D01*
G01X35608Y57195D01*
G01X35560Y57335D01*
G01X35560Y57658D01*
G01X36344Y56705D02*
G01X36393Y56614D01*
G01X36530Y56476D01*
G01X35560Y56476D01*
G01X36299Y56123D02*
G01X36344Y56123D01*
G01X36438Y56078D01*
G01X36484Y56032D01*
G01X36530Y55940D01*
G01X36530Y55755D01*
G01X36484Y55664D01*
G01X36438Y55615D01*
G01X36344Y55570D01*
G01X36253Y55570D01*
G01X36162Y55615D01*
G01X36022Y55709D01*
G01X35560Y56172D01*
G01X35560Y55524D01*
G01X72181Y34798D02*
G01X71211Y34429D01*
G01X72181Y34058D02*
G01X71211Y34429D01*
G01X72181Y33754D02*
G01X71211Y33754D01*
G01X72181Y33449D02*
G01X71211Y33449D01*
G01X72181Y33449D02*
G01X71211Y32804D01*
G01X72181Y32804D02*
G01X71211Y32804D01*
G01X36367Y34798D02*
G01X35397Y34798D01*
G01X36367Y34798D02*
G01X36367Y34475D01*
G01X36322Y34335D01*
G01X36230Y34244D01*
G01X36136Y34198D01*
G01X35999Y34150D01*
G01X35768Y34150D01*
G01X35628Y34198D01*
G01X35537Y34244D01*
G01X35445Y34335D01*
G01X35397Y34475D01*
G01X35397Y34798D01*
G01X36182Y33845D02*
G01X36230Y33754D01*
G01X36367Y33616D01*
G01X35397Y33616D01*
G01X36367Y33218D02*
G01X36367Y32710D01*
G01X35999Y32986D01*
G01X35999Y32849D01*
G01X35953Y32755D01*
G01X35905Y32710D01*
G01X35768Y32664D01*
G01X35674Y32664D01*
G01X35537Y32710D01*
G01X35445Y32804D01*
G01X35397Y32941D01*
G01X35397Y33080D01*
G01X35445Y33218D01*
G01X35491Y33263D01*
G01X35582Y33312D01*
G01X64330Y57210D02*
G01X64424Y57256D01*
G01X64516Y57350D01*
G01X64561Y57442D01*
G01X64561Y57627D01*
G01X64516Y57718D01*
G01X64424Y57812D01*
G01X64330Y57858D01*
G01X64193Y57904D01*
G01X63962Y57904D01*
G01X63822Y57858D01*
G01X63731Y57812D01*
G01X63639Y57718D01*
G01X63591Y57627D01*
G01X63591Y57442D01*
G01X63639Y57350D01*
G01X63731Y57256D01*
G01X63822Y57210D01*
G01X63962Y57210D01*
G01X63962Y57442D02*
G01X63962Y57210D01*
G01X64561Y56906D02*
G01X63591Y56906D01*
G01X64561Y56906D02*
G01X63591Y56261D01*
G01X64561Y56261D02*
G01X63591Y56261D01*
G01X64561Y55956D02*
G01X63591Y55956D01*
G01X64561Y55956D02*
G01X64561Y55631D01*
G01X64516Y55493D01*
G01X64424Y55402D01*
G01X64330Y55354D01*
G01X64193Y55308D01*
G01X63962Y55308D01*
G01X63822Y55354D01*
G01X63731Y55402D01*
G01X63639Y55493D01*
G01X63591Y55631D01*
G01X63591Y55956D01*
G01X69410Y59944D02*
G01X68440Y59944D01*
G01X69410Y59944D02*
G01X69410Y59621D01*
G01X69364Y59481D01*
G01X69273Y59390D01*
G01X69179Y59344D01*
G01X69042Y59296D01*
G01X68811Y59296D01*
G01X68671Y59344D01*
G01X68580Y59390D01*
G01X68488Y59481D01*
G01X68440Y59621D01*
G01X68440Y59944D01*
G01X69410Y58714D02*
G01X69364Y58854D01*
G01X69225Y58945D01*
G01X68996Y58991D01*
G01X68856Y58991D01*
G01X68625Y58945D01*
G01X68488Y58854D01*
G01X68440Y58714D01*
G01X68440Y58623D01*
G01X68488Y58483D01*
G01X68625Y58392D01*
G01X68856Y58346D01*
G01X68996Y58346D01*
G01X69225Y58392D01*
G01X69364Y58483D01*
G01X69410Y58623D01*
G01X69410Y58714D01*
G01X69596Y57210D02*
G01X68117Y58041D01*
G01X69410Y56906D02*
G01X68440Y56906D01*
G01X69410Y56906D02*
G01X69410Y56489D01*
G01X69364Y56349D01*
G01X69319Y56304D01*
G01X69225Y56258D01*
G01X69133Y56258D01*
G01X69042Y56304D01*
G01X68996Y56349D01*
G01X68948Y56489D01*
G01X68948Y56906D01*
G01X68948Y56581D02*
G01X68440Y56258D01*
G01X69410Y55953D02*
G01X68440Y55308D01*
G01X69410Y55308D02*
G01X68440Y55953D01*
G01X67056Y59667D02*
G01X66085Y59667D01*
G01X67056Y59667D02*
G01X67056Y59250D01*
G01X67010Y59113D01*
G01X66964Y59067D01*
G01X66870Y59019D01*
G01X66779Y59019D01*
G01X66687Y59067D01*
G01X66641Y59113D01*
G01X66593Y59250D01*
G01X66593Y59667D01*
G01X66593Y59344D02*
G01X66085Y59019D01*
G01X67056Y58714D02*
G01X66085Y58714D01*
G01X67056Y58714D02*
G01X67056Y58115D01*
G01X66593Y58714D02*
G01X66593Y58346D01*
G01X66085Y58714D02*
G01X66085Y58115D01*
G01X66918Y57165D02*
G01X67010Y57256D01*
G01X67056Y57393D01*
G01X67056Y57579D01*
G01X67010Y57718D01*
G01X66918Y57810D01*
G01X66824Y57810D01*
G01X66733Y57764D01*
G01X66687Y57718D01*
G01X66641Y57624D01*
G01X66548Y57348D01*
G01X66502Y57256D01*
G01X66456Y57210D01*
G01X66362Y57165D01*
G01X66225Y57165D01*
G01X66133Y57256D01*
G01X66085Y57393D01*
G01X66085Y57579D01*
G01X66133Y57718D01*
G01X66225Y57810D01*
G01X67056Y56860D02*
G01X66085Y56860D01*
G01X67056Y56860D02*
G01X67056Y56258D01*
G01X66593Y56860D02*
G01X66593Y56489D01*
G01X66085Y56860D02*
G01X66085Y56258D01*
G01X67056Y55631D02*
G01X66085Y55631D01*
G01X67056Y55953D02*
G01X67056Y55308D01*
G01X62021Y56906D02*
G01X61051Y56906D01*
G01X62021Y56906D02*
G01X62021Y56583D01*
G01X61976Y56443D01*
G01X61884Y56352D01*
G01X61790Y56306D01*
G01X61653Y56258D01*
G01X61422Y56258D01*
G01X61282Y56306D01*
G01X61191Y56352D01*
G01X61099Y56443D01*
G01X61051Y56583D01*
G01X61051Y56906D01*
G01X61790Y55907D02*
G01X61836Y55907D01*
G01X61930Y55862D01*
G01X61976Y55816D01*
G01X62021Y55725D01*
G01X62021Y55539D01*
G01X61976Y55445D01*
G01X61930Y55399D01*
G01X61836Y55354D01*
G01X61744Y55354D01*
G01X61653Y55399D01*
G01X61513Y55493D01*
G01X61051Y55953D01*
G01X61051Y55308D01*
G01X59481Y56906D02*
G01X58511Y56906D01*
G01X59481Y56906D02*
G01X59481Y56583D01*
G01X59436Y56443D01*
G01X59344Y56352D01*
G01X59250Y56306D01*
G01X59113Y56258D01*
G01X58882Y56258D01*
G01X58742Y56306D01*
G01X58651Y56352D01*
G01X58559Y56443D01*
G01X58511Y56583D01*
G01X58511Y56906D01*
G01X59481Y55862D02*
G01X59481Y55354D01*
G01X59113Y55631D01*
G01X59113Y55493D01*
G01X59067Y55399D01*
G01X59019Y55354D01*
G01X58882Y55308D01*
G01X58788Y55308D01*
G01X58651Y55354D01*
G01X58559Y55445D01*
G01X58511Y55585D01*
G01X58511Y55725D01*
G01X58559Y55862D01*
G01X58605Y55907D01*
G01X58696Y55953D01*
G01X56941Y56951D02*
G01X55971Y56951D01*
G01X56941Y56951D02*
G01X56941Y56629D01*
G01X56896Y56489D01*
G01X56804Y56398D01*
G01X56710Y56352D01*
G01X56573Y56304D01*
G01X56342Y56304D01*
G01X56202Y56352D01*
G01X56111Y56398D01*
G01X56019Y56489D01*
G01X55971Y56629D01*
G01X55971Y56951D01*
G01X56941Y55539D02*
G01X56296Y55999D01*
G01X56296Y55308D01*
G01X56941Y55539D02*
G01X55971Y55539D01*
G01X54655Y56906D02*
G01X53685Y56906D01*
G01X54655Y56906D02*
G01X54655Y56583D01*
G01X54610Y56443D01*
G01X54518Y56352D01*
G01X54424Y56306D01*
G01X54287Y56258D01*
G01X54056Y56258D01*
G01X53916Y56306D01*
G01X53825Y56352D01*
G01X53733Y56443D01*
G01X53685Y56583D01*
G01X53685Y56906D01*
G01X54655Y55399D02*
G01X54655Y55862D01*
G01X54241Y55907D01*
G01X54287Y55862D01*
G01X54333Y55725D01*
G01X54333Y55585D01*
G01X54287Y55445D01*
G01X54193Y55354D01*
G01X54056Y55308D01*
G01X53962Y55308D01*
G01X53825Y55354D01*
G01X53733Y55445D01*
G01X53685Y55585D01*
G01X53685Y55725D01*
G01X53733Y55862D01*
G01X53779Y55907D01*
G01X53870Y55953D01*
G01X52115Y56860D02*
G01X51145Y56860D01*
G01X52115Y56860D02*
G01X52115Y56537D01*
G01X52070Y56398D01*
G01X51978Y56306D01*
G01X51884Y56261D01*
G01X51747Y56212D01*
G01X51516Y56212D01*
G01X51376Y56261D01*
G01X51285Y56306D01*
G01X51193Y56398D01*
G01X51145Y56537D01*
G01X51145Y56860D01*
G01X51978Y55354D02*
G01X52070Y55399D01*
G01X52115Y55539D01*
G01X52115Y55631D01*
G01X52070Y55770D01*
G01X51930Y55862D01*
G01X51701Y55907D01*
G01X51470Y55907D01*
G01X51285Y55862D01*
G01X51193Y55770D01*
G01X51145Y55631D01*
G01X51145Y55585D01*
G01X51193Y55448D01*
G01X51285Y55354D01*
G01X51422Y55308D01*
G01X51470Y55308D01*
G01X51607Y55354D01*
G01X51701Y55448D01*
G01X51747Y55585D01*
G01X51747Y55631D01*
G01X51701Y55770D01*
G01X51607Y55862D01*
G01X51470Y55907D01*
G01X49321Y56906D02*
G01X48351Y56906D01*
G01X49321Y56906D02*
G01X49321Y56583D01*
G01X49276Y56443D01*
G01X49184Y56352D01*
G01X49090Y56306D01*
G01X48953Y56258D01*
G01X48722Y56258D01*
G01X48582Y56306D01*
G01X48491Y56352D01*
G01X48399Y56443D01*
G01X48351Y56583D01*
G01X48351Y56906D01*
G01X49321Y55308D02*
G01X48351Y55770D01*
G01X49321Y55953D02*
G01X49321Y55308D01*
G01X47035Y56906D02*
G01X46065Y56906D01*
G01X47035Y56906D02*
G01X47035Y56583D01*
G01X46990Y56443D01*
G01X46898Y56352D01*
G01X46804Y56306D01*
G01X46667Y56258D01*
G01X46436Y56258D01*
G01X46296Y56306D01*
G01X46205Y56352D01*
G01X46113Y56443D01*
G01X46065Y56583D01*
G01X46065Y56906D01*
G01X47035Y55725D02*
G01X46990Y55862D01*
G01X46898Y55907D01*
G01X46804Y55907D01*
G01X46713Y55862D01*
G01X46667Y55770D01*
G01X46621Y55585D01*
G01X46573Y55445D01*
G01X46482Y55354D01*
G01X46390Y55308D01*
G01X46250Y55308D01*
G01X46159Y55354D01*
G01X46113Y55399D01*
G01X46065Y55539D01*
G01X46065Y55725D01*
G01X46113Y55862D01*
G01X46159Y55907D01*
G01X46250Y55953D01*
G01X46390Y55953D01*
G01X46482Y55907D01*
G01X46573Y55816D01*
G01X46621Y55676D01*
G01X46667Y55493D01*
G01X46713Y55399D01*
G01X46804Y55354D01*
G01X46898Y55354D01*
G01X46990Y55399D01*
G01X47035Y55539D01*
G01X47035Y55725D01*
G01X44495Y56860D02*
G01X43525Y56860D01*
G01X44495Y56860D02*
G01X44495Y56537D01*
G01X44450Y56398D01*
G01X44358Y56306D01*
G01X44264Y56261D01*
G01X44127Y56212D01*
G01X43896Y56212D01*
G01X43756Y56261D01*
G01X43665Y56306D01*
G01X43573Y56398D01*
G01X43525Y56537D01*
G01X43525Y56860D01*
G01X44173Y55308D02*
G01X44033Y55354D01*
G01X43942Y55448D01*
G01X43896Y55585D01*
G01X43896Y55631D01*
G01X43942Y55770D01*
G01X44033Y55862D01*
G01X44173Y55907D01*
G01X44218Y55907D01*
G01X44358Y55862D01*
G01X44450Y55770D01*
G01X44495Y55631D01*
G01X44495Y55585D01*
G01X44450Y55448D01*
G01X44358Y55354D01*
G01X44173Y55308D01*
G01X43942Y55308D01*
G01X43710Y55354D01*
G01X43573Y55448D01*
G01X43525Y55585D01*
G01X43525Y55679D01*
G01X43573Y55816D01*
G01X43665Y55862D01*
G01X41701Y57442D02*
G01X40731Y57442D01*
G01X41701Y57442D02*
G01X41701Y57119D01*
G01X41656Y56979D01*
G01X41564Y56888D01*
G01X41470Y56842D01*
G01X41333Y56794D01*
G01X41102Y56794D01*
G01X40962Y56842D01*
G01X40871Y56888D01*
G01X40779Y56979D01*
G01X40731Y57119D01*
G01X40731Y57442D01*
G01X41516Y56489D02*
G01X41564Y56398D01*
G01X41701Y56261D01*
G01X40731Y56261D01*
G01X41701Y55676D02*
G01X41656Y55816D01*
G01X41516Y55907D01*
G01X41287Y55956D01*
G01X41148Y55956D01*
G01X40916Y55907D01*
G01X40779Y55816D01*
G01X40731Y55676D01*
G01X40731Y55585D01*
G01X40779Y55448D01*
G01X40916Y55354D01*
G01X41148Y55308D01*
G01X41287Y55308D01*
G01X41516Y55354D01*
G01X41656Y55448D01*
G01X41701Y55585D01*
G01X41701Y55676D01*
G01X39070Y57658D02*
G01X38100Y57658D01*
G01X39070Y57658D02*
G01X39070Y57335D01*
G01X39024Y57195D01*
G01X38933Y57104D01*
G01X38839Y57058D01*
G01X38702Y57010D01*
G01X38470Y57010D01*
G01X38331Y57058D01*
G01X38239Y57104D01*
G01X38148Y57195D01*
G01X38100Y57335D01*
G01X38100Y57658D01*
G01X38884Y56705D02*
G01X38933Y56614D01*
G01X39070Y56476D01*
G01X38100Y56476D01*
G01X38884Y56172D02*
G01X38933Y56078D01*
G01X39070Y55940D01*
G01X38100Y55940D01*
G01X38907Y34706D02*
G01X38907Y34198D01*
G01X38539Y34475D01*
G01X38539Y34335D01*
G01X38493Y34244D01*
G01X38445Y34198D01*
G01X38308Y34150D01*
G01X38214Y34150D01*
G01X38077Y34198D01*
G01X37985Y34290D01*
G01X37937Y34429D01*
G01X37937Y34566D01*
G01X37985Y34706D01*
G01X38031Y34752D01*
G01X38122Y34798D01*
G01X38907Y33845D02*
G01X37937Y33477D01*
G01X38907Y33108D02*
G01X37937Y33477D01*
G01X38907Y32710D02*
G01X38907Y32202D01*
G01X38539Y32478D01*
G01X38539Y32341D01*
G01X38493Y32247D01*
G01X38445Y32202D01*
G01X38308Y32156D01*
G01X38214Y32156D01*
G01X38077Y32202D01*
G01X37985Y32296D01*
G01X37937Y32433D01*
G01X37937Y32572D01*
G01X37985Y32710D01*
G01X38031Y32755D01*
G01X38122Y32804D01*
G01X41701Y34429D02*
G01X40731Y34798D01*
G01X41701Y34429D02*
G01X40731Y34058D01*
G01X41056Y34658D02*
G01X41056Y34198D01*
G01X41701Y33754D02*
G01X40731Y33754D01*
G01X41701Y33754D02*
G01X41701Y33337D01*
G01X41656Y33200D01*
G01X41610Y33154D01*
G01X41516Y33108D01*
G01X41424Y33108D01*
G01X41333Y33154D01*
G01X41287Y33200D01*
G01X41239Y33337D01*
G01X41239Y33754D01*
G01X41239Y33431D02*
G01X40731Y33108D01*
G01X41701Y32804D02*
G01X40731Y32804D01*
G01X41701Y32804D02*
G01X41701Y32202D01*
G01X41239Y32804D02*
G01X41239Y32433D01*
G01X40731Y32804D02*
G01X40731Y32202D01*
G01X41701Y31897D02*
G01X40731Y31897D01*
G01X41701Y31897D02*
G01X41701Y31297D01*
G01X41239Y31897D02*
G01X41239Y31529D01*
G01X43987Y34429D02*
G01X43017Y34798D01*
G01X43987Y34429D02*
G01X43017Y34058D01*
G01X43342Y34658D02*
G01X43342Y34198D01*
G01X43987Y33477D02*
G01X43942Y33616D01*
G01X43802Y33708D01*
G01X43573Y33754D01*
G01X43434Y33754D01*
G01X43202Y33708D01*
G01X43065Y33616D01*
G01X43017Y33477D01*
G01X43017Y33385D01*
G01X43065Y33246D01*
G01X43202Y33154D01*
G01X43434Y33108D01*
G01X43573Y33108D01*
G01X43802Y33154D01*
G01X43942Y33246D01*
G01X43987Y33385D01*
G01X43987Y33477D01*
G01X46781Y34429D02*
G01X45811Y34798D01*
G01X46781Y34429D02*
G01X45811Y34058D01*
G01X46136Y34658D02*
G01X46136Y34198D01*
G01X46596Y33754D02*
G01X46644Y33662D01*
G01X46781Y33522D01*
G01X45811Y33522D01*
G01X49067Y34429D02*
G01X48097Y34798D01*
G01X49067Y34429D02*
G01X48097Y34058D01*
G01X48422Y34658D02*
G01X48422Y34198D01*
G01X48836Y33708D02*
G01X48882Y33708D01*
G01X48976Y33662D01*
G01X49022Y33616D01*
G01X49067Y33522D01*
G01X49067Y33337D01*
G01X49022Y33246D01*
G01X48976Y33200D01*
G01X48882Y33154D01*
G01X48790Y33154D01*
G01X48699Y33200D01*
G01X48559Y33291D01*
G01X48097Y33754D01*
G01X48097Y33108D01*
G01X51861Y34429D02*
G01X50891Y34798D01*
G01X51861Y34429D02*
G01X50891Y34058D01*
G01X51216Y34658D02*
G01X51216Y34198D01*
G01X51861Y33662D02*
G01X51861Y33154D01*
G01X51493Y33431D01*
G01X51493Y33291D01*
G01X51447Y33200D01*
G01X51399Y33154D01*
G01X51262Y33108D01*
G01X51168Y33108D01*
G01X51031Y33154D01*
G01X50939Y33246D01*
G01X50891Y33385D01*
G01X50891Y33522D01*
G01X50939Y33662D01*
G01X50985Y33708D01*
G01X51076Y33754D01*
G01X54401Y34429D02*
G01X53431Y34798D01*
G01X54401Y34429D02*
G01X53431Y34058D01*
G01X53756Y34658D02*
G01X53756Y34198D01*
G01X54401Y33291D02*
G01X53756Y33754D01*
G01X53756Y33060D01*
G01X54401Y33291D02*
G01X53431Y33291D01*
G01X56941Y34429D02*
G01X55971Y34798D01*
G01X56941Y34429D02*
G01X55971Y34058D01*
G01X56296Y34658D02*
G01X56296Y34198D01*
G01X56941Y33200D02*
G01X56941Y33662D01*
G01X56527Y33708D01*
G01X56573Y33662D01*
G01X56619Y33522D01*
G01X56619Y33385D01*
G01X56573Y33246D01*
G01X56479Y33154D01*
G01X56342Y33108D01*
G01X56248Y33108D01*
G01X56111Y33154D01*
G01X56019Y33246D01*
G01X55971Y33385D01*
G01X55971Y33522D01*
G01X56019Y33662D01*
G01X56065Y33708D01*
G01X56156Y33754D01*
G01X59227Y34429D02*
G01X58257Y34798D01*
G01X59227Y34429D02*
G01X58257Y34058D01*
G01X58582Y34658D02*
G01X58582Y34198D01*
G01X59090Y33200D02*
G01X59182Y33246D01*
G01X59227Y33385D01*
G01X59227Y33477D01*
G01X59182Y33616D01*
G01X59042Y33708D01*
G01X58813Y33754D01*
G01X58582Y33754D01*
G01X58397Y33708D01*
G01X58305Y33616D01*
G01X58257Y33477D01*
G01X58257Y33431D01*
G01X58305Y33291D01*
G01X58397Y33200D01*
G01X58534Y33154D01*
G01X58582Y33154D01*
G01X58719Y33200D01*
G01X58813Y33291D01*
G01X58859Y33431D01*
G01X58859Y33477D01*
G01X58813Y33616D01*
G01X58719Y33708D01*
G01X58582Y33754D01*
G01X62021Y34429D02*
G01X61051Y34798D01*
G01X62021Y34429D02*
G01X61051Y34058D01*
G01X61376Y34658D02*
G01X61376Y34198D01*
G01X62021Y33108D02*
G01X61051Y33568D01*
G01X62021Y33754D02*
G01X62021Y33108D01*
G01X67101Y34798D02*
G01X66131Y34798D01*
G01X67101Y34798D02*
G01X67101Y34381D01*
G01X67056Y34244D01*
G01X67010Y34198D01*
G01X66916Y34150D01*
G01X66824Y34150D01*
G01X66733Y34198D01*
G01X66687Y34244D01*
G01X66639Y34381D01*
G01X66639Y34798D01*
G01X66639Y34475D02*
G01X66131Y34150D01*
G01X67101Y33845D02*
G01X66131Y33845D01*
G01X67101Y33845D02*
G01X67101Y33246D01*
G01X66639Y33845D02*
G01X66639Y33477D01*
G01X66131Y33845D02*
G01X66131Y33246D01*
G01X66964Y32296D02*
G01X67056Y32387D01*
G01X67101Y32524D01*
G01X67101Y32710D01*
G01X67056Y32849D01*
G01X66964Y32941D01*
G01X66870Y32941D01*
G01X66779Y32895D01*
G01X66733Y32849D01*
G01X66687Y32755D01*
G01X66593Y32478D01*
G01X66548Y32387D01*
G01X66502Y32341D01*
G01X66408Y32296D01*
G01X66271Y32296D01*
G01X66179Y32387D01*
G01X66131Y32524D01*
G01X66131Y32710D01*
G01X66179Y32849D01*
G01X66271Y32941D01*
G01X67101Y31991D02*
G01X66131Y31991D01*
G01X67101Y31991D02*
G01X67101Y31389D01*
G01X66639Y31991D02*
G01X66639Y31620D01*
G01X66131Y31991D02*
G01X66131Y31389D01*
G01X67101Y30761D02*
G01X66131Y30761D01*
G01X67101Y31084D02*
G01X67101Y30439D01*
G54D23*
G01X91498Y38862D02*
G01X91394Y38811D01*
G01X91290Y38707D01*
G01X91236Y38602D01*
G01X91186Y38447D01*
G01X91186Y38188D01*
G01X91236Y38031D01*
G01X91290Y37927D01*
G01X91394Y37823D01*
G01X91498Y37772D01*
G01X91706Y37772D01*
G01X91808Y37823D01*
G01X91912Y37927D01*
G01X91965Y38031D01*
G01X92016Y38188D01*
G01X92016Y38447D01*
G01X91965Y38602D01*
G01X91912Y38707D01*
G01X91808Y38811D01*
G01X91706Y38862D01*
G01X91498Y38862D01*
G01X92359Y38862D02*
G01X92359Y37772D01*
G01X92359Y37772D02*
G01X92984Y37772D01*
G01X93327Y38862D02*
G01X93327Y37772D01*
G01X93327Y38862D02*
G01X94002Y38862D01*
G01X93327Y38343D02*
G01X93741Y38343D01*
G01X93327Y37772D02*
G01X94002Y37772D01*
G01X94345Y38862D02*
G01X94345Y37772D01*
G01X94345Y38862D02*
G01X94708Y38862D01*
G01X94863Y38811D01*
G01X94968Y38707D01*
G01X95021Y38602D01*
G01X95072Y38447D01*
G01X95072Y38188D01*
G01X95021Y38031D01*
G01X94968Y37927D01*
G01X94863Y37823D01*
G01X94708Y37772D01*
G01X94345Y37772D01*
G01X11176Y40132D02*
G01X11176Y39042D01*
G01X11176Y40132D02*
G01X11643Y40132D01*
G01X11798Y40081D01*
G01X11851Y40030D01*
G01X11902Y39926D01*
G01X11902Y39822D01*
G01X11851Y39717D01*
G01X11798Y39664D01*
G01X11643Y39613D01*
G01X11176Y39613D02*
G01X11643Y39613D01*
G01X11798Y39560D01*
G01X11851Y39509D01*
G01X11902Y39405D01*
G01X11902Y39250D01*
G01X11851Y39146D01*
G01X11798Y39093D01*
G01X11643Y39042D01*
G01X11176Y39042D01*
G01X12245Y40132D02*
G01X12245Y39042D01*
G01X12245Y39042D02*
G01X12870Y39042D01*
G01X13213Y40132D02*
G01X13213Y39354D01*
G01X13263Y39197D01*
G01X13368Y39093D01*
G01X13525Y39042D01*
G01X13627Y39042D01*
G01X13784Y39093D01*
G01X13888Y39197D01*
G01X13939Y39354D01*
G01X13939Y40132D01*
G01X14282Y40132D02*
G01X14282Y39042D01*
G01X14282Y40132D02*
G01X14958Y40132D01*
G01X14282Y39613D02*
G01X14698Y39613D01*
G01X14282Y39042D02*
G01X14958Y39042D01*
G01X15664Y40132D02*
G01X15664Y39042D01*
G01X15300Y40132D02*
G01X16027Y40132D01*
G01X16682Y40132D02*
G01X16578Y40081D01*
G01X16474Y39977D01*
G01X16423Y39872D01*
G01X16370Y39717D01*
G01X16370Y39458D01*
G01X16423Y39301D01*
G01X16474Y39197D01*
G01X16578Y39093D01*
G01X16682Y39042D01*
G01X16891Y39042D01*
G01X16995Y39093D01*
G01X17099Y39197D01*
G01X17150Y39301D01*
G01X17203Y39458D01*
G01X17203Y39717D01*
G01X17150Y39872D01*
G01X17099Y39977D01*
G01X16995Y40081D01*
G01X16891Y40132D01*
G01X16682Y40132D01*
G01X17856Y40132D02*
G01X17754Y40081D01*
G01X17650Y39977D01*
G01X17597Y39872D01*
G01X17546Y39717D01*
G01X17546Y39458D01*
G01X17597Y39301D01*
G01X17650Y39197D01*
G01X17754Y39093D01*
G01X17856Y39042D01*
G01X18064Y39042D01*
G01X18168Y39093D01*
G01X18272Y39197D01*
G01X18326Y39301D01*
G01X18376Y39458D01*
G01X18376Y39717D01*
G01X18326Y39872D01*
G01X18272Y39977D01*
G01X18168Y40081D01*
G01X18064Y40132D01*
G01X17856Y40132D01*
G01X19083Y40132D02*
G01X19083Y39042D01*
G01X18719Y40132D02*
G01X19446Y40132D01*
G01X19789Y40132D02*
G01X19789Y39042D01*
G01X20518Y40132D02*
G01X20518Y39042D01*
G01X19789Y39613D02*
G01X20518Y39613D01*
G01X20861Y38679D02*
G01X21795Y38679D01*
G01X22138Y40132D02*
G01X22138Y39042D01*
G01X22865Y40132D02*
G01X22865Y39042D01*
G01X22138Y39613D02*
G01X22865Y39613D01*
G01X23987Y39872D02*
G01X23936Y39977D01*
G01X23832Y40081D01*
G01X23728Y40132D01*
G01X23520Y40132D01*
G01X23416Y40081D01*
G01X23312Y39977D01*
G01X23261Y39872D01*
G01X23207Y39717D01*
G01X23207Y39458D01*
G01X23261Y39301D01*
G01X23312Y39197D01*
G01X23416Y39093D01*
G01X23520Y39042D01*
G01X23728Y39042D01*
G01X23832Y39093D01*
G01X23936Y39197D01*
G01X23987Y39301D01*
G01X24330Y39509D02*
G01X25265Y39509D01*
G01X25920Y40132D02*
G01X25765Y40081D01*
G01X25661Y39926D01*
G01X25608Y39664D01*
G01X25608Y39509D01*
G01X25661Y39250D01*
G01X25765Y39093D01*
G01X25920Y39042D01*
G01X26024Y39042D01*
G01X26179Y39093D01*
G01X26283Y39250D01*
G01X26337Y39509D01*
G01X26337Y39664D01*
G01X26283Y39926D01*
G01X26179Y40081D01*
G01X26024Y40132D01*
G01X25920Y40132D01*
G01X27302Y39977D02*
G01X27251Y40081D01*
G01X27094Y40132D01*
G01X26990Y40132D01*
G01X26835Y40081D01*
G01X26730Y39926D01*
G01X26680Y39664D01*
G01X26680Y39405D01*
G01X26730Y39197D01*
G01X26835Y39093D01*
G01X26990Y39042D01*
G01X27043Y39042D01*
G01X27198Y39093D01*
G01X27302Y39197D01*
G01X27355Y39354D01*
G01X27355Y39405D01*
G01X27302Y39560D01*
G01X27198Y39664D01*
G01X27043Y39717D01*
G01X26990Y39717D01*
G01X26835Y39664D01*
G01X26730Y39560D01*
G01X26680Y39405D01*
G01X4790Y31849D02*
G01X4686Y31953D01*
G01X4531Y32004D01*
G01X4323Y32004D01*
G01X4168Y31953D01*
G01X4064Y31849D01*
G01X4064Y31744D01*
G01X4114Y31640D01*
G01X4168Y31589D01*
G01X4272Y31536D01*
G01X4584Y31432D01*
G01X4686Y31381D01*
G01X4739Y31330D01*
G01X4790Y31226D01*
G01X4790Y31069D01*
G01X4686Y30965D01*
G01X4531Y30914D01*
G01X4323Y30914D01*
G01X4168Y30965D01*
G01X4064Y31069D01*
G01X5133Y32004D02*
G01X5133Y30914D01*
G01X5133Y32004D02*
G01X5808Y32004D01*
G01X5133Y31485D02*
G01X5549Y31485D01*
G01X5133Y30914D02*
G01X5808Y30914D01*
G01X6151Y32004D02*
G01X6151Y30914D01*
G01X6151Y32004D02*
G01X6619Y32004D01*
G01X6776Y31953D01*
G01X6827Y31902D01*
G01X6880Y31798D01*
G01X6880Y31694D01*
G01X6827Y31589D01*
G01X6776Y31536D01*
G01X6619Y31485D01*
G01X6151Y31485D01*
G01X6515Y31485D02*
G01X6880Y30914D01*
G01X7223Y32004D02*
G01X7637Y30914D01*
G01X8054Y32004D02*
G01X7637Y30914D01*
G01X8709Y32004D02*
G01X8605Y31953D01*
G01X8501Y31849D01*
G01X8448Y31744D01*
G01X8397Y31589D01*
G01X8397Y31330D01*
G01X8448Y31173D01*
G01X8501Y31069D01*
G01X8605Y30965D01*
G01X8709Y30914D01*
G01X8915Y30914D01*
G01X9019Y30965D01*
G01X9123Y31069D01*
G01X9177Y31173D01*
G01X9227Y31330D01*
G01X9227Y31589D01*
G01X9177Y31744D01*
G01X9123Y31849D01*
G01X9019Y31953D01*
G01X8915Y32004D01*
G01X8709Y32004D01*
G01X9570Y31798D02*
G01X9674Y31849D01*
G01X9829Y32004D01*
G01X9829Y30914D01*
G01X4536Y26769D02*
G01X4432Y26873D01*
G01X4277Y26924D01*
G01X4069Y26924D01*
G01X3914Y26873D01*
G01X3810Y26769D01*
G01X3810Y26664D01*
G01X3860Y26560D01*
G01X3914Y26509D01*
G01X4018Y26456D01*
G01X4330Y26352D01*
G01X4432Y26301D01*
G01X4485Y26250D01*
G01X4536Y26146D01*
G01X4536Y25989D01*
G01X4432Y25885D01*
G01X4277Y25834D01*
G01X4069Y25834D01*
G01X3914Y25885D01*
G01X3810Y25989D01*
G01X4879Y26924D02*
G01X4879Y25834D01*
G01X4879Y26924D02*
G01X5554Y26924D01*
G01X4879Y26405D02*
G01X5295Y26405D01*
G01X4879Y25834D02*
G01X5554Y25834D01*
G01X5897Y26924D02*
G01X5897Y25834D01*
G01X5897Y26924D02*
G01X6365Y26924D01*
G01X6522Y26873D01*
G01X6573Y26822D01*
G01X6626Y26718D01*
G01X6626Y26614D01*
G01X6573Y26509D01*
G01X6522Y26456D01*
G01X6365Y26405D01*
G01X5897Y26405D01*
G01X6261Y26405D02*
G01X6626Y25834D01*
G01X6969Y26924D02*
G01X7383Y25834D01*
G01X7800Y26924D02*
G01X7383Y25834D01*
G01X8455Y26924D02*
G01X8351Y26873D01*
G01X8247Y26769D01*
G01X8194Y26664D01*
G01X8143Y26509D01*
G01X8143Y26250D01*
G01X8194Y26093D01*
G01X8247Y25989D01*
G01X8351Y25885D01*
G01X8455Y25834D01*
G01X8661Y25834D01*
G01X8765Y25885D01*
G01X8869Y25989D01*
G01X8923Y26093D01*
G01X8973Y26250D01*
G01X8973Y26509D01*
G01X8923Y26664D01*
G01X8869Y26769D01*
G01X8765Y26873D01*
G01X8661Y26924D01*
G01X8455Y26924D01*
G01X9370Y26664D02*
G01X9370Y26718D01*
G01X9420Y26822D01*
G01X9474Y26873D01*
G01X9575Y26924D01*
G01X9784Y26924D01*
G01X9888Y26873D01*
G01X9941Y26822D01*
G01X9992Y26718D01*
G01X9992Y26614D01*
G01X9941Y26509D01*
G01X9837Y26352D01*
G01X9316Y25834D01*
G01X10045Y25834D01*
G01X4282Y21689D02*
G01X4178Y21793D01*
G01X4023Y21844D01*
G01X3815Y21844D01*
G01X3660Y21793D01*
G01X3556Y21689D01*
G01X3556Y21584D01*
G01X3606Y21480D01*
G01X3660Y21429D01*
G01X3764Y21376D01*
G01X4076Y21272D01*
G01X4178Y21221D01*
G01X4231Y21170D01*
G01X4282Y21066D01*
G01X4282Y20909D01*
G01X4178Y20805D01*
G01X4023Y20754D01*
G01X3815Y20754D01*
G01X3660Y20805D01*
G01X3556Y20909D01*
G01X4625Y21844D02*
G01X4625Y20754D01*
G01X4625Y21844D02*
G01X5300Y21844D01*
G01X4625Y21325D02*
G01X5041Y21325D01*
G01X4625Y20754D02*
G01X5300Y20754D01*
G01X5643Y21844D02*
G01X5643Y20754D01*
G01X5643Y21844D02*
G01X6111Y21844D01*
G01X6268Y21793D01*
G01X6319Y21742D01*
G01X6372Y21638D01*
G01X6372Y21534D01*
G01X6319Y21429D01*
G01X6268Y21376D01*
G01X6111Y21325D01*
G01X5643Y21325D01*
G01X6007Y21325D02*
G01X6372Y20754D01*
G01X6715Y21844D02*
G01X7129Y20754D01*
G01X7546Y21844D02*
G01X7129Y20754D01*
G01X8201Y21844D02*
G01X8097Y21793D01*
G01X7993Y21689D01*
G01X7940Y21584D01*
G01X7889Y21429D01*
G01X7889Y21170D01*
G01X7940Y21013D01*
G01X7993Y20909D01*
G01X8097Y20805D01*
G01X8201Y20754D01*
G01X8407Y20754D01*
G01X8511Y20805D01*
G01X8615Y20909D01*
G01X8669Y21013D01*
G01X8719Y21170D01*
G01X8719Y21429D01*
G01X8669Y21584D01*
G01X8615Y21689D01*
G01X8511Y21793D01*
G01X8407Y21844D01*
G01X8201Y21844D01*
G01X9166Y21844D02*
G01X9738Y21844D01*
G01X9425Y21429D01*
G01X9583Y21429D01*
G01X9687Y21376D01*
G01X9738Y21325D01*
G01X9791Y21170D01*
G01X9791Y21066D01*
G01X9738Y20909D01*
G01X9634Y20805D01*
G01X9479Y20754D01*
G01X9321Y20754D01*
G01X9166Y20805D01*
G01X9116Y20858D01*
G01X9062Y20962D01*
G01X14696Y66393D02*
G01X14592Y66497D01*
G01X14437Y66548D01*
G01X14229Y66548D01*
G01X14074Y66497D01*
G01X13970Y66393D01*
G01X13970Y66288D01*
G01X14020Y66184D01*
G01X14074Y66133D01*
G01X14178Y66080D01*
G01X14490Y65976D01*
G01X14592Y65925D01*
G01X14645Y65874D01*
G01X14696Y65770D01*
G01X14696Y65613D01*
G01X14592Y65509D01*
G01X14437Y65458D01*
G01X14229Y65458D01*
G01X14074Y65509D01*
G01X13970Y65613D01*
G01X15039Y66548D02*
G01X15039Y65458D01*
G01X15039Y66548D02*
G01X15714Y66548D01*
G01X15039Y66029D02*
G01X15455Y66029D01*
G01X15039Y65458D02*
G01X15714Y65458D01*
G01X16057Y66548D02*
G01X16057Y65458D01*
G01X16057Y66548D02*
G01X16525Y66548D01*
G01X16682Y66497D01*
G01X16733Y66446D01*
G01X16786Y66342D01*
G01X16786Y66238D01*
G01X16733Y66133D01*
G01X16682Y66080D01*
G01X16525Y66029D01*
G01X16057Y66029D01*
G01X16421Y66029D02*
G01X16786Y65458D01*
G01X17129Y66548D02*
G01X17543Y65458D01*
G01X17960Y66548D02*
G01X17543Y65458D01*
G01X18615Y66548D02*
G01X18511Y66497D01*
G01X18407Y66393D01*
G01X18354Y66288D01*
G01X18303Y66133D01*
G01X18303Y65874D01*
G01X18354Y65717D01*
G01X18407Y65613D01*
G01X18511Y65509D01*
G01X18615Y65458D01*
G01X18821Y65458D01*
G01X18925Y65509D01*
G01X19029Y65613D01*
G01X19083Y65717D01*
G01X19133Y65874D01*
G01X19133Y66133D01*
G01X19083Y66288D01*
G01X19029Y66393D01*
G01X18925Y66497D01*
G01X18821Y66548D01*
G01X18615Y66548D01*
G01X19997Y66548D02*
G01X19476Y65821D01*
G01X20256Y65821D01*
G01X19997Y66548D02*
G01X19997Y65458D01*
G01X14696Y61313D02*
G01X14592Y61417D01*
G01X14437Y61468D01*
G01X14229Y61468D01*
G01X14074Y61417D01*
G01X13970Y61313D01*
G01X13970Y61208D01*
G01X14020Y61104D01*
G01X14074Y61053D01*
G01X14178Y61000D01*
G01X14490Y60896D01*
G01X14592Y60845D01*
G01X14645Y60794D01*
G01X14696Y60690D01*
G01X14696Y60533D01*
G01X14592Y60429D01*
G01X14437Y60378D01*
G01X14229Y60378D01*
G01X14074Y60429D01*
G01X13970Y60533D01*
G01X15039Y61468D02*
G01X15039Y60378D01*
G01X15039Y61468D02*
G01X15714Y61468D01*
G01X15039Y60949D02*
G01X15455Y60949D01*
G01X15039Y60378D02*
G01X15714Y60378D01*
G01X16057Y61468D02*
G01X16057Y60378D01*
G01X16057Y61468D02*
G01X16525Y61468D01*
G01X16682Y61417D01*
G01X16733Y61366D01*
G01X16786Y61262D01*
G01X16786Y61158D01*
G01X16733Y61053D01*
G01X16682Y61000D01*
G01X16525Y60949D01*
G01X16057Y60949D01*
G01X16421Y60949D02*
G01X16786Y60378D01*
G01X17129Y61468D02*
G01X17543Y60378D01*
G01X17960Y61468D02*
G01X17543Y60378D01*
G01X18615Y61468D02*
G01X18511Y61417D01*
G01X18407Y61313D01*
G01X18354Y61208D01*
G01X18303Y61053D01*
G01X18303Y60794D01*
G01X18354Y60637D01*
G01X18407Y60533D01*
G01X18511Y60429D01*
G01X18615Y60378D01*
G01X18821Y60378D01*
G01X18925Y60429D01*
G01X19029Y60533D01*
G01X19083Y60637D01*
G01X19133Y60794D01*
G01X19133Y61053D01*
G01X19083Y61208D01*
G01X19029Y61313D01*
G01X18925Y61417D01*
G01X18821Y61468D01*
G01X18615Y61468D01*
G01X20101Y61468D02*
G01X19580Y61468D01*
G01X19530Y61000D01*
G01X19580Y61053D01*
G01X19735Y61104D01*
G01X19893Y61104D01*
G01X20048Y61053D01*
G01X20152Y60949D01*
G01X20205Y60794D01*
G01X20205Y60690D01*
G01X20152Y60533D01*
G01X20048Y60429D01*
G01X19893Y60378D01*
G01X19735Y60378D01*
G01X19580Y60429D01*
G01X19530Y60482D01*
G01X19476Y60586D01*
G01X14442Y56233D02*
G01X14338Y56337D01*
G01X14183Y56388D01*
G01X13975Y56388D01*
G01X13820Y56337D01*
G01X13716Y56233D01*
G01X13716Y56128D01*
G01X13766Y56024D01*
G01X13820Y55973D01*
G01X13924Y55920D01*
G01X14236Y55816D01*
G01X14338Y55765D01*
G01X14391Y55714D01*
G01X14442Y55610D01*
G01X14442Y55453D01*
G01X14338Y55349D01*
G01X14183Y55298D01*
G01X13975Y55298D01*
G01X13820Y55349D01*
G01X13716Y55453D01*
G01X14785Y56388D02*
G01X14785Y55298D01*
G01X14785Y56388D02*
G01X15460Y56388D01*
G01X14785Y55869D02*
G01X15201Y55869D01*
G01X14785Y55298D02*
G01X15460Y55298D01*
G01X15803Y56388D02*
G01X15803Y55298D01*
G01X15803Y56388D02*
G01X16271Y56388D01*
G01X16428Y56337D01*
G01X16479Y56286D01*
G01X16532Y56182D01*
G01X16532Y56078D01*
G01X16479Y55973D01*
G01X16428Y55920D01*
G01X16271Y55869D01*
G01X15803Y55869D01*
G01X16167Y55869D02*
G01X16532Y55298D01*
G01X16875Y56388D02*
G01X17289Y55298D01*
G01X17706Y56388D02*
G01X17289Y55298D01*
G01X18361Y56388D02*
G01X18257Y56337D01*
G01X18153Y56233D01*
G01X18100Y56128D01*
G01X18049Y55973D01*
G01X18049Y55714D01*
G01X18100Y55557D01*
G01X18153Y55453D01*
G01X18257Y55349D01*
G01X18361Y55298D01*
G01X18567Y55298D01*
G01X18671Y55349D01*
G01X18775Y55453D01*
G01X18829Y55557D01*
G01X18879Y55714D01*
G01X18879Y55973D01*
G01X18829Y56128D01*
G01X18775Y56233D01*
G01X18671Y56337D01*
G01X18567Y56388D01*
G01X18361Y56388D01*
G01X19847Y56233D02*
G01X19794Y56337D01*
G01X19639Y56388D01*
G01X19535Y56388D01*
G01X19380Y56337D01*
G01X19276Y56182D01*
G01X19222Y55920D01*
G01X19222Y55661D01*
G01X19276Y55453D01*
G01X19380Y55349D01*
G01X19535Y55298D01*
G01X19585Y55298D01*
G01X19743Y55349D01*
G01X19847Y55453D01*
G01X19898Y55610D01*
G01X19898Y55661D01*
G01X19847Y55816D01*
G01X19743Y55920D01*
G01X19585Y55973D01*
G01X19535Y55973D01*
G01X19380Y55920D01*
G01X19276Y55816D01*
G01X19222Y55661D01*
G01X92674Y32103D02*
G01X92570Y32207D01*
G01X92415Y32258D01*
G01X92207Y32258D01*
G01X92052Y32207D01*
G01X91948Y32103D01*
G01X91948Y31998D01*
G01X91998Y31894D01*
G01X92052Y31843D01*
G01X92156Y31790D01*
G01X92468Y31686D01*
G01X92570Y31635D01*
G01X92623Y31584D01*
G01X92674Y31480D01*
G01X92674Y31323D01*
G01X92570Y31219D01*
G01X92415Y31168D01*
G01X92207Y31168D01*
G01X92052Y31219D01*
G01X91948Y31323D01*
G01X93017Y32258D02*
G01X93017Y31168D01*
G01X93017Y32258D02*
G01X93692Y32258D01*
G01X93017Y31739D02*
G01X93433Y31739D01*
G01X93017Y31168D02*
G01X93692Y31168D01*
G01X94035Y32258D02*
G01X94035Y31168D01*
G01X94035Y32258D02*
G01X94503Y32258D01*
G01X94660Y32207D01*
G01X94711Y32156D01*
G01X94764Y32052D01*
G01X94764Y31948D01*
G01X94711Y31843D01*
G01X94660Y31790D01*
G01X94503Y31739D01*
G01X94035Y31739D01*
G01X94399Y31739D02*
G01X94764Y31168D01*
G01X95107Y32258D02*
G01X95521Y31168D01*
G01X95938Y32258D02*
G01X95521Y31168D01*
G01X96593Y32258D02*
G01X96489Y32207D01*
G01X96385Y32103D01*
G01X96332Y31998D01*
G01X96281Y31843D01*
G01X96281Y31584D01*
G01X96332Y31427D01*
G01X96385Y31323D01*
G01X96489Y31219D01*
G01X96593Y31168D01*
G01X96799Y31168D01*
G01X96903Y31219D01*
G01X97007Y31323D01*
G01X97061Y31427D01*
G01X97111Y31584D01*
G01X97111Y31843D01*
G01X97061Y31998D01*
G01X97007Y32103D01*
G01X96903Y32207D01*
G01X96799Y32258D01*
G01X96593Y32258D01*
G01X98183Y32258D02*
G01X97663Y31168D01*
G01X97454Y32258D02*
G01X98183Y32258D01*
G01X92674Y26769D02*
G01X92570Y26873D01*
G01X92415Y26924D01*
G01X92207Y26924D01*
G01X92052Y26873D01*
G01X91948Y26769D01*
G01X91948Y26664D01*
G01X91998Y26560D01*
G01X92052Y26509D01*
G01X92156Y26456D01*
G01X92468Y26352D01*
G01X92570Y26301D01*
G01X92623Y26250D01*
G01X92674Y26146D01*
G01X92674Y25989D01*
G01X92570Y25885D01*
G01X92415Y25834D01*
G01X92207Y25834D01*
G01X92052Y25885D01*
G01X91948Y25989D01*
G01X93017Y26924D02*
G01X93017Y25834D01*
G01X93017Y26924D02*
G01X93692Y26924D01*
G01X93017Y26405D02*
G01X93433Y26405D01*
G01X93017Y25834D02*
G01X93692Y25834D01*
G01X94035Y26924D02*
G01X94035Y25834D01*
G01X94035Y26924D02*
G01X94503Y26924D01*
G01X94660Y26873D01*
G01X94711Y26822D01*
G01X94764Y26718D01*
G01X94764Y26614D01*
G01X94711Y26509D01*
G01X94660Y26456D01*
G01X94503Y26405D01*
G01X94035Y26405D01*
G01X94399Y26405D02*
G01X94764Y25834D01*
G01X95107Y26924D02*
G01X95521Y25834D01*
G01X95938Y26924D02*
G01X95521Y25834D01*
G01X96593Y26924D02*
G01X96489Y26873D01*
G01X96385Y26769D01*
G01X96332Y26664D01*
G01X96281Y26509D01*
G01X96281Y26250D01*
G01X96332Y26093D01*
G01X96385Y25989D01*
G01X96489Y25885D01*
G01X96593Y25834D01*
G01X96799Y25834D01*
G01X96903Y25885D01*
G01X97007Y25989D01*
G01X97061Y26093D01*
G01X97111Y26250D01*
G01X97111Y26509D01*
G01X97061Y26664D01*
G01X97007Y26769D01*
G01X96903Y26873D01*
G01X96799Y26924D01*
G01X96593Y26924D01*
G01X97713Y26924D02*
G01X97558Y26873D01*
G01X97508Y26769D01*
G01X97508Y26664D01*
G01X97558Y26560D01*
G01X97663Y26509D01*
G01X97871Y26456D01*
G01X98026Y26405D01*
G01X98130Y26301D01*
G01X98183Y26197D01*
G01X98183Y26042D01*
G01X98130Y25938D01*
G01X98079Y25885D01*
G01X97922Y25834D01*
G01X97713Y25834D01*
G01X97558Y25885D01*
G01X97508Y25938D01*
G01X97454Y26042D01*
G01X97454Y26197D01*
G01X97508Y26301D01*
G01X97612Y26405D01*
G01X97767Y26456D01*
G01X97975Y26509D01*
G01X98079Y26560D01*
G01X98130Y26664D01*
G01X98130Y26769D01*
G01X98079Y26873D01*
G01X97922Y26924D01*
G01X97713Y26924D01*
G01X92674Y21943D02*
G01X92570Y22047D01*
G01X92415Y22098D01*
G01X92207Y22098D01*
G01X92052Y22047D01*
G01X91948Y21943D01*
G01X91948Y21838D01*
G01X91998Y21734D01*
G01X92052Y21683D01*
G01X92156Y21630D01*
G01X92468Y21526D01*
G01X92570Y21475D01*
G01X92623Y21424D01*
G01X92674Y21320D01*
G01X92674Y21163D01*
G01X92570Y21059D01*
G01X92415Y21008D01*
G01X92207Y21008D01*
G01X92052Y21059D01*
G01X91948Y21163D01*
G01X93017Y22098D02*
G01X93017Y21008D01*
G01X93017Y22098D02*
G01X93692Y22098D01*
G01X93017Y21579D02*
G01X93433Y21579D01*
G01X93017Y21008D02*
G01X93692Y21008D01*
G01X94035Y22098D02*
G01X94035Y21008D01*
G01X94035Y22098D02*
G01X94503Y22098D01*
G01X94660Y22047D01*
G01X94711Y21996D01*
G01X94764Y21892D01*
G01X94764Y21788D01*
G01X94711Y21683D01*
G01X94660Y21630D01*
G01X94503Y21579D01*
G01X94035Y21579D01*
G01X94399Y21579D02*
G01X94764Y21008D01*
G01X95107Y22098D02*
G01X95521Y21008D01*
G01X95938Y22098D02*
G01X95521Y21008D01*
G01X96593Y22098D02*
G01X96489Y22047D01*
G01X96385Y21943D01*
G01X96332Y21838D01*
G01X96281Y21683D01*
G01X96281Y21424D01*
G01X96332Y21267D01*
G01X96385Y21163D01*
G01X96489Y21059D01*
G01X96593Y21008D01*
G01X96799Y21008D01*
G01X96903Y21059D01*
G01X97007Y21163D01*
G01X97061Y21267D01*
G01X97111Y21424D01*
G01X97111Y21683D01*
G01X97061Y21838D01*
G01X97007Y21943D01*
G01X96903Y22047D01*
G01X96799Y22098D01*
G01X96593Y22098D01*
G01X98130Y21734D02*
G01X98079Y21579D01*
G01X97975Y21475D01*
G01X97817Y21424D01*
G01X97767Y21424D01*
G01X97612Y21475D01*
G01X97508Y21579D01*
G01X97454Y21734D01*
G01X97454Y21788D01*
G01X97508Y21943D01*
G01X97612Y22047D01*
G01X97767Y22098D01*
G01X97817Y22098D01*
G01X97975Y22047D01*
G01X98079Y21943D01*
G01X98130Y21734D01*
G01X98130Y21475D01*
G01X98079Y21216D01*
G01X97975Y21059D01*
G01X97817Y21008D01*
G01X97713Y21008D01*
G01X97558Y21059D01*
G01X97508Y21163D01*
G01X80990Y68679D02*
G01X80886Y68783D01*
G01X80731Y68834D01*
G01X80523Y68834D01*
G01X80368Y68783D01*
G01X80264Y68679D01*
G01X80264Y68574D01*
G01X80314Y68470D01*
G01X80368Y68419D01*
G01X80472Y68366D01*
G01X80784Y68262D01*
G01X80886Y68211D01*
G01X80939Y68160D01*
G01X80990Y68056D01*
G01X80990Y67899D01*
G01X80886Y67795D01*
G01X80731Y67744D01*
G01X80523Y67744D01*
G01X80368Y67795D01*
G01X80264Y67899D01*
G01X81333Y68834D02*
G01X81333Y67744D01*
G01X81333Y68834D02*
G01X82008Y68834D01*
G01X81333Y68315D02*
G01X81749Y68315D01*
G01X81333Y67744D02*
G01X82008Y67744D01*
G01X82351Y68834D02*
G01X82351Y67744D01*
G01X82351Y68834D02*
G01X82819Y68834D01*
G01X82976Y68783D01*
G01X83027Y68732D01*
G01X83080Y68628D01*
G01X83080Y68524D01*
G01X83027Y68419D01*
G01X82976Y68366D01*
G01X82819Y68315D01*
G01X82351Y68315D01*
G01X82715Y68315D02*
G01X83080Y67744D01*
G01X83423Y68834D02*
G01X83837Y67744D01*
G01X84254Y68834D02*
G01X83837Y67744D01*
G01X84909Y68834D02*
G01X84805Y68783D01*
G01X84701Y68679D01*
G01X84648Y68574D01*
G01X84597Y68419D01*
G01X84597Y68160D01*
G01X84648Y68003D01*
G01X84701Y67899D01*
G01X84805Y67795D01*
G01X84909Y67744D01*
G01X85115Y67744D01*
G01X85219Y67795D01*
G01X85323Y67899D01*
G01X85377Y68003D01*
G01X85427Y68160D01*
G01X85427Y68419D01*
G01X85377Y68574D01*
G01X85323Y68679D01*
G01X85219Y68783D01*
G01X85115Y68834D01*
G01X84909Y68834D01*
G01X85770Y68628D02*
G01X85874Y68679D01*
G01X86029Y68834D01*
G01X86029Y67744D01*
G01X86685Y68834D02*
G01X86530Y68783D01*
G01X86426Y68628D01*
G01X86372Y68366D01*
G01X86372Y68211D01*
G01X86426Y67952D01*
G01X86530Y67795D01*
G01X86685Y67744D01*
G01X86789Y67744D01*
G01X86944Y67795D01*
G01X87048Y67952D01*
G01X87101Y68211D01*
G01X87101Y68366D01*
G01X87048Y68628D01*
G01X86944Y68783D01*
G01X86789Y68834D01*
G01X86685Y68834D01*
G01X80736Y63345D02*
G01X80632Y63449D01*
G01X80477Y63500D01*
G01X80269Y63500D01*
G01X80114Y63449D01*
G01X80010Y63345D01*
G01X80010Y63240D01*
G01X80060Y63136D01*
G01X80114Y63085D01*
G01X80218Y63032D01*
G01X80530Y62928D01*
G01X80632Y62877D01*
G01X80685Y62826D01*
G01X80736Y62722D01*
G01X80736Y62565D01*
G01X80632Y62461D01*
G01X80477Y62410D01*
G01X80269Y62410D01*
G01X80114Y62461D01*
G01X80010Y62565D01*
G01X81079Y63500D02*
G01X81079Y62410D01*
G01X81079Y63500D02*
G01X81754Y63500D01*
G01X81079Y62981D02*
G01X81495Y62981D01*
G01X81079Y62410D02*
G01X81754Y62410D01*
G01X82097Y63500D02*
G01X82097Y62410D01*
G01X82097Y63500D02*
G01X82565Y63500D01*
G01X82722Y63449D01*
G01X82773Y63398D01*
G01X82826Y63294D01*
G01X82826Y63190D01*
G01X82773Y63085D01*
G01X82722Y63032D01*
G01X82565Y62981D01*
G01X82097Y62981D01*
G01X82461Y62981D02*
G01X82826Y62410D01*
G01X83169Y63500D02*
G01X83583Y62410D01*
G01X84000Y63500D02*
G01X83583Y62410D01*
G01X84655Y63500D02*
G01X84551Y63449D01*
G01X84447Y63345D01*
G01X84394Y63240D01*
G01X84343Y63085D01*
G01X84343Y62826D01*
G01X84394Y62669D01*
G01X84447Y62565D01*
G01X84551Y62461D01*
G01X84655Y62410D01*
G01X84861Y62410D01*
G01X84965Y62461D01*
G01X85069Y62565D01*
G01X85123Y62669D01*
G01X85173Y62826D01*
G01X85173Y63085D01*
G01X85123Y63240D01*
G01X85069Y63345D01*
G01X84965Y63449D01*
G01X84861Y63500D01*
G01X84655Y63500D01*
G01X85516Y63294D02*
G01X85620Y63345D01*
G01X85775Y63500D01*
G01X85775Y62410D01*
G01X86118Y63294D02*
G01X86222Y63345D01*
G01X86380Y63500D01*
G01X86380Y62410D01*
G01X80736Y58265D02*
G01X80632Y58369D01*
G01X80477Y58420D01*
G01X80269Y58420D01*
G01X80114Y58369D01*
G01X80010Y58265D01*
G01X80010Y58160D01*
G01X80060Y58056D01*
G01X80114Y58005D01*
G01X80218Y57952D01*
G01X80530Y57848D01*
G01X80632Y57797D01*
G01X80685Y57746D01*
G01X80736Y57642D01*
G01X80736Y57485D01*
G01X80632Y57381D01*
G01X80477Y57330D01*
G01X80269Y57330D01*
G01X80114Y57381D01*
G01X80010Y57485D01*
G01X81079Y58420D02*
G01X81079Y57330D01*
G01X81079Y58420D02*
G01X81754Y58420D01*
G01X81079Y57901D02*
G01X81495Y57901D01*
G01X81079Y57330D02*
G01X81754Y57330D01*
G01X82097Y58420D02*
G01X82097Y57330D01*
G01X82097Y58420D02*
G01X82565Y58420D01*
G01X82722Y58369D01*
G01X82773Y58318D01*
G01X82826Y58214D01*
G01X82826Y58110D01*
G01X82773Y58005D01*
G01X82722Y57952D01*
G01X82565Y57901D01*
G01X82097Y57901D01*
G01X82461Y57901D02*
G01X82826Y57330D01*
G01X83169Y58420D02*
G01X83583Y57330D01*
G01X84000Y58420D02*
G01X83583Y57330D01*
G01X84655Y58420D02*
G01X84551Y58369D01*
G01X84447Y58265D01*
G01X84394Y58160D01*
G01X84343Y58005D01*
G01X84343Y57746D01*
G01X84394Y57589D01*
G01X84447Y57485D01*
G01X84551Y57381D01*
G01X84655Y57330D01*
G01X84861Y57330D01*
G01X84965Y57381D01*
G01X85069Y57485D01*
G01X85123Y57589D01*
G01X85173Y57746D01*
G01X85173Y58005D01*
G01X85123Y58160D01*
G01X85069Y58265D01*
G01X84965Y58369D01*
G01X84861Y58420D01*
G01X84655Y58420D01*
G01X85516Y58214D02*
G01X85620Y58265D01*
G01X85775Y58420D01*
G01X85775Y57330D01*
G01X86172Y58160D02*
G01X86172Y58214D01*
G01X86222Y58318D01*
G01X86276Y58369D01*
G01X86380Y58420D01*
G01X86588Y58420D01*
G01X86690Y58369D01*
G01X86743Y58318D01*
G01X86794Y58214D01*
G01X86794Y58110D01*
G01X86743Y58005D01*
G01X86639Y57848D01*
G01X86118Y57330D01*
G01X86847Y57330D01*
G01X84582Y39006D02*
G01X85671Y39006D01*
G01X84582Y39006D02*
G01X84582Y39474D01*
G01X84632Y39629D01*
G01X84683Y39682D01*
G01X84787Y39733D01*
G01X84945Y39733D01*
G01X85049Y39682D01*
G01X85100Y39629D01*
G01X85153Y39474D01*
G01X85153Y39006D01*
G01X84582Y40388D02*
G01X84632Y40284D01*
G01X84736Y40180D01*
G01X84841Y40129D01*
G01X84996Y40076D01*
G01X85255Y40076D01*
G01X85412Y40129D01*
G01X85516Y40180D01*
G01X85620Y40284D01*
G01X85671Y40388D01*
G01X85671Y40596D01*
G01X85620Y40700D01*
G01X85516Y40805D01*
G01X85412Y40855D01*
G01X85255Y40909D01*
G01X84996Y40909D01*
G01X84841Y40855D01*
G01X84736Y40805D01*
G01X84632Y40700D01*
G01X84582Y40596D01*
G01X84582Y40388D01*
G01X84582Y41252D02*
G01X85671Y41511D01*
G01X84582Y41770D02*
G01X85671Y41511D01*
G01X84582Y41770D02*
G01X85671Y42029D01*
G01X84582Y42291D02*
G01X85671Y42029D01*
G01X84582Y42633D02*
G01X85671Y42633D01*
G01X84582Y42633D02*
G01X84582Y43309D01*
G01X85100Y42633D02*
G01X85100Y43047D01*
G01X85671Y42633D02*
G01X85671Y43309D01*
G01X84582Y43652D02*
G01X85671Y43652D01*
G01X84582Y43652D02*
G01X84582Y44119D01*
G01X84632Y44274D01*
G01X84683Y44328D01*
G01X84787Y44378D01*
G01X84891Y44378D01*
G01X84996Y44328D01*
G01X85049Y44274D01*
G01X85100Y44119D01*
G01X85100Y43652D01*
G01X85100Y44015D02*
G01X85671Y44378D01*
G01X84736Y45448D02*
G01X84632Y45344D01*
G01X84582Y45189D01*
G01X84582Y44980D01*
G01X84632Y44825D01*
G01X84736Y44721D01*
G01X84841Y44721D01*
G01X84945Y44772D01*
G01X84996Y44825D01*
G01X85049Y44930D01*
G01X85153Y45242D01*
G01X85204Y45344D01*
G01X85255Y45397D01*
G01X85359Y45448D01*
G01X85516Y45448D01*
G01X85620Y45344D01*
G01X85671Y45189D01*
G01X85671Y44980D01*
G01X85620Y44825D01*
G01X85516Y44721D01*
G01X84582Y45791D02*
G01X85359Y45791D01*
G01X85516Y45844D01*
G01X85620Y45948D01*
G01X85671Y46103D01*
G01X85671Y46207D01*
G01X85620Y46362D01*
G01X85516Y46466D01*
G01X85359Y46520D01*
G01X84582Y46520D01*
G01X84582Y46863D02*
G01X85671Y46863D01*
G01X84582Y46863D02*
G01X84582Y47330D01*
G01X84632Y47485D01*
G01X84683Y47538D01*
G01X84787Y47589D01*
G01X84945Y47589D01*
G01X85049Y47538D01*
G01X85100Y47485D01*
G01X85153Y47330D01*
G01X85153Y46863D01*
G01X84582Y47932D02*
G01X85671Y47932D01*
G01X84582Y47932D02*
G01X84582Y48399D01*
G01X84632Y48557D01*
G01X84683Y48608D01*
G01X84787Y48658D01*
G01X84945Y48658D01*
G01X85049Y48608D01*
G01X85100Y48557D01*
G01X85153Y48399D01*
G01X85153Y47932D01*
G01X84582Y49001D02*
G01X85671Y49001D01*
G01X85671Y49001D02*
G01X85671Y49626D01*
G01X84582Y49969D02*
G01X85100Y50386D01*
G01X85671Y50386D01*
G01X84582Y50800D02*
G01X85100Y50386D01*
G01X20828Y47752D02*
G01X20828Y46662D01*
G01X20828Y47752D02*
G01X21295Y47752D01*
G01X21450Y47701D01*
G01X21503Y47650D01*
G01X21554Y47546D01*
G01X21554Y47442D01*
G01X21503Y47337D01*
G01X21450Y47284D01*
G01X21295Y47233D01*
G01X20828Y47233D01*
G01X21191Y47233D02*
G01X21554Y46662D01*
G01X21897Y47546D02*
G01X22001Y47597D01*
G01X22158Y47752D01*
G01X22158Y46662D01*
G01X14986Y48006D02*
G01X14986Y46916D01*
G01X14986Y48006D02*
G01X15453Y48006D01*
G01X15608Y47955D01*
G01X15661Y47904D01*
G01X15712Y47800D01*
G01X15712Y47696D01*
G01X15661Y47591D01*
G01X15608Y47538D01*
G01X15453Y47487D01*
G01X14986Y47487D01*
G01X15349Y47487D02*
G01X15712Y46916D01*
G01X16108Y47746D02*
G01X16108Y47800D01*
G01X16159Y47904D01*
G01X16212Y47955D01*
G01X16316Y48006D01*
G01X16522Y48006D01*
G01X16626Y47955D01*
G01X16680Y47904D01*
G01X16730Y47800D01*
G01X16730Y47696D01*
G01X16680Y47591D01*
G01X16576Y47434D01*
G01X16055Y46916D01*
G01X16784Y46916D01*
G01X10160Y48260D02*
G01X10160Y47170D01*
G01X10160Y48260D02*
G01X10627Y48260D01*
G01X10782Y48209D01*
G01X10835Y48158D01*
G01X10886Y48054D01*
G01X10886Y47950D01*
G01X10835Y47845D01*
G01X10782Y47792D01*
G01X10627Y47741D01*
G01X10160Y47741D01*
G01X10523Y47741D02*
G01X10886Y47170D01*
G01X11333Y48260D02*
G01X11904Y48260D01*
G01X11595Y47845D01*
G01X11750Y47845D01*
G01X11854Y47792D01*
G01X11904Y47741D01*
G01X11958Y47586D01*
G01X11958Y47482D01*
G01X11904Y47325D01*
G01X11800Y47221D01*
G01X11645Y47170D01*
G01X11490Y47170D01*
G01X11333Y47221D01*
G01X11282Y47274D01*
G01X11229Y47378D01*
G54D20*
G01X88112Y46131D02*
G01X88021Y46088D01*
G01X87929Y45996D01*
G01X87883Y45905D01*
G01X87883Y45722D01*
G01X87929Y45633D01*
G01X88021Y45542D01*
G01X88112Y45496D01*
G01X88247Y45450D01*
G01X88475Y45450D01*
G01X88612Y45496D01*
G01X88701Y45542D01*
G01X88793Y45633D01*
G01X88839Y45722D01*
G01X88839Y45905D01*
G01X88793Y45996D01*
G01X88701Y46088D01*
G01X88612Y46131D01*
G01X88475Y46131D01*
G01X88475Y45905D02*
G01X88475Y46131D01*
G01X87883Y46433D02*
G01X88839Y46433D01*
G01X87883Y46433D02*
G01X88839Y47068D01*
G01X87883Y47068D02*
G01X88839Y47068D01*
G01X87883Y47368D02*
G01X88839Y47368D01*
G01X87883Y47368D02*
G01X87883Y47685D01*
G01X87929Y47823D01*
G01X88021Y47914D01*
G01X88112Y47960D01*
G01X88247Y48005D01*
G01X88475Y48005D01*
G01X88612Y47960D01*
G01X88701Y47914D01*
G01X88793Y47823D01*
G01X88839Y47685D01*
G01X88839Y47368D01*
G01X87767Y40807D02*
G01X88585Y40807D01*
G01X88176Y40398D02*
G01X88176Y41216D01*
G01X87629Y42062D02*
G01X87629Y41607D01*
G01X88038Y41562D01*
G01X87993Y41607D01*
G01X87950Y41744D01*
G01X87950Y41879D01*
G01X87993Y42016D01*
G01X88084Y42108D01*
G01X88221Y42153D01*
G01X88313Y42153D01*
G01X88447Y42108D01*
G01X88539Y42016D01*
G01X88585Y41879D01*
G01X88585Y41744D01*
G01X88539Y41607D01*
G01X88493Y41562D01*
G01X88402Y41516D01*
G01X87629Y42453D02*
G01X88585Y42816D01*
G01X87629Y43180D02*
G01X88585Y42816D01*

%LPD*%
G36*
G01X38678Y59930D02*
G01X38557Y59928D01*
G01X38436Y59930D01*
G01X38315Y59934D01*
G01X38194Y59940D01*
G01X38073Y59950D01*
G01X37951Y59962D01*
G01X37829Y59977D01*
G01X37706Y59994D01*
G01X37584Y60015D01*
G01X37461Y60037D01*
G01X37338Y60063D01*
G01X37411Y60406D01*
G01X37541Y60377D01*
G01X37668Y60351D01*
G01X37795Y60328D01*
G01X37920Y60308D01*
G01X38044Y60291D01*
G01X38166Y60278D01*
G01X38286Y60267D01*
G01X38406Y60259D01*
G01X38524Y60255D01*
G01X38641Y60253D01*
G01X38742Y60255D01*
G01X38845Y60258D01*
G01X38952Y60265D01*
G01X39061Y60274D01*
G01X39173Y60286D01*
G01X39287Y60301D01*
G01X39405Y60317D01*
G01X39524Y60337D01*
G01X39590Y60655D01*
G01X37465Y60655D01*
G01X37660Y61579D01*
G01X37790Y61605D01*
G01X37919Y61629D01*
G01X38047Y61649D01*
G01X38174Y61667D01*
G01X38300Y61682D01*
G01X38425Y61695D01*
G01X38549Y61704D01*
G01X38672Y61711D01*
G01X38794Y61715D01*
G01X38915Y61716D01*
G01X39035Y61715D01*
G01X39156Y61711D01*
G01X39277Y61704D01*
G01X39398Y61695D01*
G01X39520Y61682D01*
G01X39642Y61667D01*
G01X39764Y61649D01*
G01X39886Y61629D01*
G01X40009Y61605D01*
G01X40132Y61579D01*
G01X40058Y61236D01*
G01X39929Y61265D01*
G01X39801Y61290D01*
G01X39675Y61313D01*
G01X39551Y61332D01*
G01X39427Y61349D01*
G01X39305Y61362D01*
G01X39185Y61373D01*
G01X39065Y61380D01*
G01X38947Y61385D01*
G01X38831Y61386D01*
G01X38730Y61385D01*
G01X38626Y61381D01*
G01X38520Y61375D01*
G01X38411Y61366D01*
G01X38299Y61356D01*
G01X38184Y61342D01*
G01X38067Y61326D01*
G01X37947Y61307D01*
G01X37881Y60998D01*
G01X40007Y60998D01*
G01X39809Y60063D01*
G01X39679Y60037D01*
G01X39551Y60015D01*
G01X39423Y59994D01*
G01X39296Y59977D01*
G01X39171Y59962D01*
G01X39046Y59950D01*
G01X38922Y59940D01*
G01X38800Y59934D01*
G01X38678Y59930D01*
G37*

%LPC*%

%LPD*%
G36*
G01X63027Y59931D02*
G01X62684Y59931D01*
G01X62997Y61394D01*
G01X62876Y61388D01*
G01X62751Y61378D01*
G01X62621Y61364D01*
G01X62486Y61348D01*
G01X62346Y61327D01*
G01X62202Y61303D01*
G01X62053Y61275D01*
G01X61899Y61244D01*
G01X61973Y61587D01*
G01X62103Y61612D01*
G01X62232Y61635D01*
G01X62360Y61655D01*
G01X62487Y61673D01*
G01X62613Y61688D01*
G01X62738Y61700D01*
G01X62862Y61709D01*
G01X62985Y61716D01*
G01X63107Y61720D01*
G01X63228Y61722D01*
G01X63348Y61720D01*
G01X63469Y61716D01*
G01X63590Y61709D01*
G01X63711Y61700D01*
G01X63833Y61688D01*
G01X63955Y61673D01*
G01X64077Y61655D01*
G01X64199Y61635D01*
G01X64321Y61612D01*
G01X64444Y61587D01*
G01X64371Y61244D01*
G01X64236Y61273D01*
G01X64104Y61300D01*
G01X63972Y61323D01*
G01X63842Y61343D01*
G01X63714Y61360D01*
G01X63588Y61374D01*
G01X63463Y61384D01*
G01X63339Y61391D01*
G01X63027Y59931D01*
G37*

%LPC*%

%LPD*%
G36*
G01X60143Y59932D02*
G01X60022Y59931D01*
G01X59902Y59932D01*
G01X59781Y59936D01*
G01X59660Y59943D01*
G01X59538Y59953D01*
G01X59417Y59965D01*
G01X59294Y59980D01*
G01X59172Y59998D01*
G01X59049Y60019D01*
G01X58926Y60042D01*
G01X58803Y60068D01*
G01X59126Y61579D01*
G01X59256Y61605D01*
G01X59385Y61629D01*
G01X59513Y61649D01*
G01X59640Y61667D01*
G01X59766Y61682D01*
G01X59891Y61695D01*
G01X60015Y61704D01*
G01X60138Y61711D01*
G01X60259Y61715D01*
G01X60380Y61716D01*
G01X60501Y61715D01*
G01X60622Y61711D01*
G01X60743Y61704D01*
G01X60864Y61695D01*
G01X60985Y61682D01*
G01X61107Y61667D01*
G01X61229Y61649D01*
G01X61352Y61629D01*
G01X61474Y61605D01*
G01X61597Y61579D01*
G01X61274Y60068D01*
G01X61145Y60042D01*
G01X61016Y60019D01*
G01X60889Y59998D01*
G01X60762Y59980D01*
G01X60636Y59965D01*
G01X60511Y59953D01*
G01X60388Y59943D01*
G01X60265Y59936D01*
G01X60143Y59932D01*
G37*

%LPC*%
G36*
G01X59997Y60263D02*
G01X60106Y60261D01*
G01X60207Y60262D01*
G01X60311Y60266D01*
G01X60417Y60272D01*
G01X60527Y60281D01*
G01X60638Y60292D01*
G01X60753Y60305D01*
G01X60870Y60321D01*
G01X60990Y60340D01*
G01X61193Y61302D01*
G01X61077Y61322D01*
G01X60963Y61339D01*
G01X60849Y61354D01*
G01X60736Y61365D01*
G01X60625Y61375D01*
G01X60514Y61381D01*
G01X60405Y61385D01*
G01X60297Y61386D01*
G01X60195Y61385D01*
G01X60092Y61381D01*
G01X59985Y61375D01*
G01X59876Y61366D01*
G01X59764Y61356D01*
G01X59650Y61342D01*
G01X59533Y61326D01*
G01X59413Y61307D01*
G01X59204Y60345D01*
G01X59321Y60325D01*
G01X59437Y60308D01*
G01X59551Y60294D01*
G01X59665Y60282D01*
G01X59777Y60273D01*
G01X59888Y60266D01*
G01X59997Y60263D01*
G37*

%LPD*%
G36*
G01X56861Y59932D02*
G01X56713Y59931D01*
G01X56577Y59931D01*
G01X56444Y59934D01*
G01X56313Y59937D01*
G01X56183Y59942D01*
G01X56056Y59949D01*
G01X55930Y59957D01*
G01X55807Y59966D01*
G01X55685Y59977D01*
G01X55566Y59989D01*
G01X55448Y60003D01*
G01X55333Y60018D01*
G01X55219Y60035D01*
G01X55283Y60347D01*
G01X55476Y60340D01*
G01X55689Y61338D01*
G01X55488Y61338D01*
G01X55552Y61638D01*
G01X55669Y61650D01*
G01X55788Y61662D01*
G01X55908Y61672D01*
G01X56031Y61681D01*
G01X56156Y61689D01*
G01X56282Y61697D01*
G01X56410Y61703D01*
G01X56541Y61708D01*
G01X56673Y61711D01*
G01X56807Y61714D01*
G01X56943Y61716D01*
G01X57081Y61716D01*
G01X57231Y61716D01*
G01X57375Y61714D01*
G01X57514Y61711D01*
G01X57648Y61706D01*
G01X57777Y61701D01*
G01X57900Y61694D01*
G01X58018Y61685D01*
G01X58131Y61676D01*
G01X58239Y61665D01*
G01X58341Y61653D01*
G01X58181Y60886D01*
G01X57795Y60822D01*
G01X58148Y60754D01*
G01X57990Y60012D01*
G01X57884Y59997D01*
G01X57772Y59983D01*
G01X57655Y59970D01*
G01X57535Y59960D01*
G01X57409Y59951D01*
G01X57279Y59944D01*
G01X57144Y59938D01*
G01X57005Y59934D01*
G01X56861Y59932D01*
G37*

%LPC*%
G36*
G01X56034Y61356D02*
G01X55958Y61005D01*
G01X56870Y61005D01*
G01X56979Y61007D01*
G01X57093Y61013D01*
G01X57212Y61024D01*
G01X57336Y61038D01*
G01X57466Y61056D01*
G01X57601Y61078D01*
G01X57741Y61104D01*
G01X57886Y61135D01*
G01X57932Y61341D01*
G01X57799Y61354D01*
G01X57667Y61365D01*
G01X57536Y61375D01*
G01X57406Y61383D01*
G01X57277Y61389D01*
G01X57149Y61393D01*
G01X57021Y61395D01*
G01X56896Y61396D01*
G01X56743Y61395D01*
G01X56593Y61392D01*
G01X56448Y61386D01*
G01X56306Y61378D01*
G01X56169Y61368D01*
G01X56034Y61356D01*
G37*
G36*
G01X56524Y60268D02*
G01X56680Y60266D01*
G01X56810Y60267D01*
G01X56940Y60269D01*
G01X57069Y60273D01*
G01X57198Y60279D01*
G01X57327Y60286D01*
G01X57456Y60295D01*
G01X57585Y60305D01*
G01X57713Y60317D01*
G01X57754Y60507D01*
G01X57614Y60544D01*
G01X57479Y60575D01*
G01X57351Y60602D01*
G01X57229Y60624D01*
G01X57113Y60640D01*
G01X57003Y60653D01*
G01X56899Y60660D01*
G01X56802Y60662D01*
G01X55887Y60662D01*
G01X55811Y60312D01*
G01X55945Y60298D01*
G01X56084Y60286D01*
G01X56226Y60278D01*
G01X56373Y60271D01*
G01X56524Y60268D01*
G37*

%LPD*%
G36*
G01X52153Y59931D02*
G01X51810Y59931D01*
G01X52090Y61249D01*
G01X51856Y61211D01*
G01X51922Y61523D01*
G01X52161Y61579D01*
G01X52278Y61605D01*
G01X52397Y61629D01*
G01X52517Y61649D01*
G01X52639Y61667D01*
G01X52764Y61682D01*
G01X52890Y61695D01*
G01X53019Y61704D01*
G01X53150Y61711D01*
G01X53282Y61715D01*
G01X53416Y61716D01*
G01X53536Y61715D01*
G01X53657Y61711D01*
G01X53778Y61704D01*
G01X53899Y61695D01*
G01X54020Y61682D01*
G01X54142Y61667D01*
G01X54264Y61649D01*
G01X54385Y61629D01*
G01X54507Y61605D01*
G01X54630Y61579D01*
G01X54559Y61236D01*
G01X54554Y61236D01*
G01X54470Y60840D01*
G01X54074Y60766D01*
G01X54184Y60741D01*
G01X54279Y60708D01*
G01X54360Y60669D01*
G01X54424Y60624D01*
G01X54277Y59931D01*
G01X53934Y59931D01*
G01X54051Y60467D01*
G01X53951Y60509D01*
G01X53846Y60546D01*
G01X53737Y60577D01*
G01X53623Y60604D01*
G01X53505Y60625D01*
G01X53381Y60640D01*
G01X53252Y60650D01*
G01X53119Y60655D01*
G01X52311Y60665D01*
G01X52153Y59931D01*
G37*

%LPC*%
G36*
G01X52384Y61008D02*
G01X53357Y61005D01*
G01X53463Y61007D01*
G01X53581Y61012D01*
G01X53712Y61022D01*
G01X53854Y61035D01*
G01X54009Y61051D01*
G01X54175Y61071D01*
G01X54226Y61302D01*
G01X54110Y61322D01*
G01X53995Y61339D01*
G01X53881Y61354D01*
G01X53769Y61365D01*
G01X53658Y61375D01*
G01X53548Y61381D01*
G01X53439Y61385D01*
G01X53332Y61386D01*
G01X53231Y61385D01*
G01X53127Y61381D01*
G01X53020Y61375D01*
G01X52912Y61366D01*
G01X52799Y61356D01*
G01X52685Y61342D01*
G01X52568Y61326D01*
G01X52448Y61307D01*
G01X52384Y61008D01*
G37*

%LPD*%
G36*
G01X49912Y59932D02*
G01X49763Y59931D01*
G01X49608Y59932D01*
G01X49459Y59934D01*
G01X49315Y59938D01*
G01X49176Y59944D01*
G01X49043Y59951D01*
G01X48915Y59960D01*
G01X48793Y59970D01*
G01X48676Y59983D01*
G01X48564Y59997D01*
G01X48458Y60012D01*
G01X48508Y60253D01*
G01X48506Y60253D01*
G01X48757Y61450D01*
G01X48762Y61450D01*
G01X48808Y61655D01*
G01X48918Y61667D01*
G01X49034Y61677D01*
G01X49155Y61686D01*
G01X49281Y61695D01*
G01X49412Y61701D01*
G01X49548Y61707D01*
G01X49689Y61711D01*
G01X49835Y61714D01*
G01X49987Y61716D01*
G01X50144Y61716D01*
G01X50294Y61716D01*
G01X50438Y61714D01*
G01X50578Y61711D01*
G01X50712Y61706D01*
G01X50840Y61701D01*
G01X50964Y61694D01*
G01X51081Y61685D01*
G01X51194Y61676D01*
G01X51302Y61665D01*
G01X51404Y61653D01*
G01X51330Y61307D01*
G01X51195Y61324D01*
G01X51059Y61339D01*
G01X50923Y61353D01*
G01X50787Y61364D01*
G01X50650Y61374D01*
G01X50512Y61382D01*
G01X50374Y61388D01*
G01X50236Y61393D01*
G01X50098Y61395D01*
G01X49959Y61396D01*
G01X49802Y61395D01*
G01X49650Y61391D01*
G01X49502Y61385D01*
G01X49357Y61376D01*
G01X49217Y61365D01*
G01X49080Y61351D01*
G01X49006Y61005D01*
G01X50703Y61005D01*
G01X50634Y60662D01*
G01X48938Y60662D01*
G01X48859Y60312D01*
G01X48993Y60298D01*
G01X49132Y60286D01*
G01X49274Y60278D01*
G01X49421Y60271D01*
G01X49572Y60268D01*
G01X49728Y60266D01*
G01X49867Y60267D01*
G01X50006Y60270D01*
G01X50145Y60274D01*
G01X50283Y60281D01*
G01X50423Y60289D01*
G01X50561Y60299D01*
G01X50699Y60311D01*
G01X50838Y60325D01*
G01X50976Y60340D01*
G01X51114Y60358D01*
G01X51041Y60012D01*
G01X50934Y59997D01*
G01X50821Y59983D01*
G01X50705Y59970D01*
G01X50584Y59960D01*
G01X50459Y59951D01*
G01X50329Y59944D01*
G01X50194Y59938D01*
G01X50055Y59934D01*
G01X49912Y59932D01*
G37*

%LPC*%

%LPD*%
G36*
G01X46134Y59931D02*
G01X44886Y59931D01*
G01X44681Y59949D01*
G01X44747Y60253D01*
G01X44958Y60264D01*
G01X45201Y61404D01*
G01X44975Y61412D01*
G01X45039Y61709D01*
G01X45267Y61716D01*
G01X46494Y61716D01*
G01X46615Y61715D01*
G01X46736Y61711D01*
G01X46856Y61704D01*
G01X46977Y61695D01*
G01X47099Y61682D01*
G01X47220Y61667D01*
G01X47342Y61649D01*
G01X47464Y61629D01*
G01X47586Y61605D01*
G01X47708Y61579D01*
G01X47386Y60068D01*
G01X47256Y60042D01*
G01X47128Y60019D01*
G01X47000Y59998D01*
G01X46873Y59980D01*
G01X46748Y59965D01*
G01X46623Y59953D01*
G01X46499Y59943D01*
G01X46376Y59936D01*
G01X46254Y59932D01*
G01X46134Y59931D01*
G37*

%LPC*%
G36*
G01X45300Y60264D02*
G01X46217Y60261D01*
G01X46318Y60262D01*
G01X46422Y60266D01*
G01X46529Y60272D01*
G01X46638Y60281D01*
G01X46750Y60292D01*
G01X46864Y60305D01*
G01X46981Y60321D01*
G01X47101Y60340D01*
G01X47304Y61302D01*
G01X47189Y61322D01*
G01X47074Y61339D01*
G01X46961Y61354D01*
G01X46849Y61365D01*
G01X46738Y61375D01*
G01X46627Y61381D01*
G01X46518Y61385D01*
G01X46410Y61386D01*
G01X46405Y61387D01*
G01X46365Y61388D01*
G01X46288Y61390D01*
G01X46177Y61393D01*
G01X46029Y61397D01*
G01X45847Y61401D01*
G01X45544Y61407D01*
G01X45300Y60264D01*
G37*

%LPD*%
G36*
G01X44023Y59931D02*
G01X43680Y59931D01*
G01X44061Y61716D01*
G01X44404Y61716D01*
G01X44023Y59931D01*
G37*

%LPC*%

%LPD*%
G36*
G01X40789Y59931D02*
G01X40446Y59931D01*
G01X40733Y61264D01*
G01X40479Y61234D01*
G01X40543Y61523D01*
G01X40794Y61579D01*
G01X40918Y61605D01*
G01X41042Y61629D01*
G01X41167Y61649D01*
G01X41292Y61667D01*
G01X41417Y61682D01*
G01X41543Y61695D01*
G01X41670Y61704D01*
G01X41797Y61711D01*
G01X41924Y61715D01*
G01X42052Y61716D01*
G01X42172Y61715D01*
G01X42293Y61711D01*
G01X42414Y61704D01*
G01X42535Y61695D01*
G01X42656Y61682D01*
G01X42778Y61667D01*
G01X42900Y61649D01*
G01X43022Y61629D01*
G01X43143Y61605D01*
G01X43266Y61579D01*
G01X43192Y61236D01*
G01X43190Y61236D01*
G01X43086Y60744D01*
G01X42963Y60730D01*
G01X42841Y60719D01*
G01X42720Y60708D01*
G01X42599Y60698D01*
G01X42480Y60690D01*
G01X42362Y60683D01*
G01X42244Y60677D01*
G01X42127Y60671D01*
G01X42011Y60667D01*
G01X41896Y60664D01*
G01X41781Y60663D01*
G01X41668Y60662D01*
G01X40947Y60662D01*
G01X40789Y59931D01*
G37*

%LPC*%
G36*
G01X41081Y61307D02*
G01X41015Y61005D01*
G01X41737Y61005D01*
G01X41890Y61006D01*
G01X42037Y61007D01*
G01X42179Y61009D01*
G01X42315Y61013D01*
G01X42445Y61017D01*
G01X42570Y61022D01*
G01X42690Y61029D01*
G01X42804Y61036D01*
G01X42859Y61302D01*
G01X42744Y61322D01*
G01X42629Y61339D01*
G01X42516Y61354D01*
G01X42404Y61365D01*
G01X42294Y61375D01*
G01X42184Y61381D01*
G01X42075Y61385D01*
G01X41968Y61386D01*
G01X41867Y61385D01*
G01X41763Y61381D01*
G01X41657Y61375D01*
G01X41547Y61366D01*
G01X41435Y61356D01*
G01X41320Y61342D01*
G01X41202Y61326D01*
G01X41081Y61307D01*
G37*

%LPD*%
G54D10*
G75*
G01X94488Y40853D02*
G2X94488Y44155I1407J1651D01*
G01*
G75*
G01X94488Y45933D02*
G2X94488Y49235I1335J1651D01*
G01*
M00*
M02*
