<?xml version="1.0" encoding="utf-8"?>
<!-- Generator: Adobe Illustrator 16.0.0, SVG Export Plug-In . SVG Version: 6.00 Build 0)  -->
<!DOCTYPE svg PUBLIC "-//W3C//DTD SVG 1.1//EN" "http://www.w3.org/Graphics/SVG/1.1/DTD/svg11.dtd">
<svg version="1.1" id="Layer_2" xmlns="http://www.w3.org/2000/svg" xmlns:xlink="http://www.w3.org/1999/xlink" x="0px" y="0px"
	 width="543.678px" height="121.192px" viewBox="0 0 543.678 121.192" enable-background="new 0 0 543.678 121.192"
	 xml:space="preserve">
<path fill="none" stroke="#000000" stroke-width="0.25" stroke-miterlimit="10" d="M533.238,79.326l-6.041-53.027
	c-0.52-4.55-4.629-7.818-9.178-7.3c-4.551,0.518-7.818,4.627-7.301,9.178c0.518,4.55,4.627,7.818,9.178,7.3l0.477,4.192
	l-25.348,2.888l-1.416-12.431c-0.518-4.551-4.627-7.819-9.178-7.301c-4.549,0.519-7.818,4.628-7.299,9.178
	c0.518,4.55,4.627,7.819,9.176,7.301l0.479,4.192l-25.348,2.888l-1.416-12.432c-0.52-4.55-4.629-7.818-9.178-7.3
	c-4.551,0.519-7.818,4.627-7.301,9.178c0.518,4.55,4.627,7.818,9.178,7.3l0.477,4.192l-25.348,2.889l-1.416-12.432
	c-0.518-4.55-4.627-7.819-9.178-7.301c-4.549,0.519-7.818,4.628-7.299,9.179c0.518,4.55,4.627,7.818,9.176,7.3l0.479,4.192
	l-25.348,2.888l-1.416-12.431c-0.52-4.551-4.629-7.819-9.178-7.301c-4.551,0.519-7.818,4.628-7.301,9.178s4.627,7.818,9.178,7.3
	l0.477,4.192L343.688,59.8c0-3.1-0.361-5.862-6.342-5.862c-5.08,0-125.018,0-130.097,0c-5.98,0-6.343,2.763-6.343,5.862
	l-42.338-4.824l0.478-4.192c4.55,0.519,8.659-2.75,9.177-7.3c0.519-4.55-2.75-8.659-7.3-9.178c-4.55-0.519-8.66,2.75-9.178,7.301
	l-1.416,12.431l-25.348-2.888l0.478-4.192c4.55,0.519,8.659-2.75,9.177-7.3c0.519-4.551-2.75-8.66-7.3-9.179
	c-4.55-0.519-8.66,2.751-9.178,7.301l-1.416,12.432l-25.348-2.889l0.478-4.192c4.55,0.519,8.659-2.75,9.177-7.3
	c0.519-4.551-2.75-8.659-7.3-9.178c-4.55-0.519-8.66,2.75-9.178,7.3l-1.416,12.432l-25.348-2.888l0.478-4.192
	c4.55,0.519,8.659-2.751,9.177-7.301c0.519-4.55-2.75-8.659-7.3-9.178c-4.55-0.519-8.66,2.75-9.178,7.301l-1.416,12.431
	l-25.348-2.888l0.478-4.192c4.55,0.519,8.659-2.75,9.177-7.3c0.519-4.551-2.75-8.66-7.3-9.178c-4.55-0.519-8.66,2.75-9.178,7.3
	l-6.042,53.027c-0.519,4.551,2.75,8.66,7.3,9.178c4.55,0.52,8.659-2.75,9.178-7.301s-2.75-8.66-7.3-9.178l0.478-4.191l25.348,2.887
	l-1.417,12.432c-0.519,4.551,2.75,8.66,7.3,9.18c4.55,0.518,8.659-2.752,9.178-7.303s-2.75-8.66-7.3-9.178l0.478-4.191l25.348,2.889
	l-1.417,12.43c-0.519,4.551,2.75,8.66,7.3,9.18c4.55,0.518,8.659-2.75,9.178-7.301s-2.75-8.66-7.3-9.18l0.478-4.191l25.348,2.889
	l-1.417,12.432c-0.519,4.551,2.75,8.66,7.3,9.178c4.55,0.52,8.659-2.75,9.178-7.301s-2.75-8.66-7.3-9.178l0.478-4.191l25.348,2.887
	l-1.417,12.432c-0.519,4.551,2.75,8.66,7.3,9.178c4.55,0.52,8.659-2.75,9.178-7.301s-2.75-8.66-7.3-9.178l0.478-4.191l51.682,5.915
	c0,0,2.305,5.254,3.684,8.366s5.608,3.996,10.587,3.996c4.061,0,97.909,0,101.969,0c4.98,0,9.209-0.884,10.588-3.996
	s3.684-8.366,3.684-8.366l51.682-5.915l0.479,4.191c-4.551,0.518-7.818,4.627-7.301,9.178c0.52,4.551,4.629,7.82,9.178,7.301
	c4.551-0.518,7.82-4.627,7.301-9.178l-1.416-12.432l25.348-2.887l0.477,4.191c-4.549,0.518-7.818,4.627-7.299,9.178
	c0.518,4.551,4.627,7.82,9.178,7.301c4.551-0.518,7.818-4.627,7.301-9.178l-1.418-12.432l25.348-2.889l0.479,4.191
	c-4.551,0.52-7.818,4.629-7.301,9.18c0.52,4.551,4.629,7.818,9.178,7.301c4.551-0.52,7.82-4.629,7.301-9.18l-1.416-12.43
	l25.348-2.889l0.477,4.191c-4.549,0.518-7.818,4.627-7.299,9.178c0.518,4.551,4.627,7.82,9.178,7.303
	c4.551-0.52,7.818-4.629,7.301-9.18l-1.418-12.432l25.348-2.887l0.479,4.191c-4.551,0.518-7.818,4.627-7.301,9.178
	c0.52,4.551,4.629,7.82,9.178,7.301C530.488,87.986,533.758,83.877,533.238,79.326z"/>
</svg>
