G04 ---------------------------- Layer name :BOTTOM LAYER*
G04 EasyEDA v5.5.11, Sun, 03 Jun 2018 10:16:40 GMT*
G04 422a67246ae34fc7a473e8fc002879eb*
G04 Gerber Generator version 0.2*
G04 Scale: 100 percent, Rotated: No, Reflected: No *
G04 Dimensions in millimeters *
G04 leading zeros omitted , absolute positions ,3 integer and 3 decimal *
%FSLAX33Y33*%
%MOMM*%
G90*
G71D02*

%ADD11C,0.202997*%
%ADD12C,0.610006*%
%ADD14R,1.778000X1.778000*%
%ADD15C,1.778000*%
%ADD16R,1.574800X1.574800*%
%ADD17C,1.574800*%
%ADD18C,2.999994*%
%ADD19C,1.299997*%

%LPD*%
G36*
G01X3810Y0D02*
G01X2390Y2364D01*
G01X1270Y9906D01*
G01X0Y27178D01*
G01X1270Y37084D01*
G01X3556Y47752D01*
G01X7112Y57912D01*
G01X11684Y67310D01*
G01X17018Y75946D01*
G01X25146Y68072D01*
G01X32004Y62230D01*
G01X33274Y61468D01*
G01X34798Y61468D01*
G01X43434Y67310D01*
G01X50800Y71882D01*
G01X55372Y69342D01*
G01X67056Y61722D01*
G01X68072Y61468D01*
G01X68580Y61468D01*
G01X69850Y62484D01*
G01X81280Y72390D01*
G01X83058Y74168D01*
G01X84582Y75946D01*
G01X86868Y72898D01*
G01X93980Y59944D01*
G01X99568Y43688D01*
G01X100838Y35306D01*
G01X101600Y27178D01*
G01X100838Y9906D01*
G01X97790Y0D01*
G01X93218Y10668D01*
G01X90170Y16510D01*
G01X86868Y22352D01*
G01X82222Y29029D01*
G01X80772Y30988D01*
G01X80010Y31750D01*
G01X79286Y31965D01*
G01X73152Y32766D01*
G01X70866Y30988D01*
G01X67818Y28702D01*
G01X51054Y17780D01*
G01X45720Y21082D01*
G01X28956Y32258D01*
G01X22860Y31496D01*
G01X22606Y31242D01*
G01X19558Y28448D01*
G01X16764Y24892D01*
G01X13716Y20320D01*
G01X11938Y17018D01*
G01X9906Y13970D01*
G01X7366Y8128D01*
G01X5080Y1778D01*
G01X3810Y0D01*
G37*

%LPC*%
G36*
G01X84538Y69112D02*
G01X84713Y69116D01*
G01X84886Y69138D01*
G01X85057Y69177D01*
G01X85222Y69233D01*
G01X85382Y69305D01*
G01X85533Y69392D01*
G01X85675Y69494D01*
G01X85806Y69610D01*
G01X85925Y69738D01*
G01X86031Y69877D01*
G01X86122Y70027D01*
G01X86198Y70184D01*
G01X86258Y70349D01*
G01X86301Y70518D01*
G01X86327Y70691D01*
G01X86335Y70866D01*
G01X86327Y71040D01*
G01X86301Y71213D01*
G01X86258Y71382D01*
G01X86198Y71547D01*
G01X86122Y71704D01*
G01X86031Y71854D01*
G01X85925Y71993D01*
G01X85806Y72121D01*
G01X85675Y72237D01*
G01X85533Y72339D01*
G01X85382Y72426D01*
G01X85222Y72498D01*
G01X85057Y72554D01*
G01X84886Y72593D01*
G01X84713Y72615D01*
G01X84538Y72619D01*
G01X84363Y72606D01*
G01X84191Y72576D01*
G01X84023Y72528D01*
G01X83860Y72464D01*
G01X83704Y72384D01*
G01X83558Y72290D01*
G01X83421Y72181D01*
G01X83296Y72059D01*
G01X83183Y71925D01*
G01X83085Y71780D01*
G01X83001Y71627D01*
G01X82933Y71465D01*
G01X82882Y71298D01*
G01X82847Y71127D01*
G01X82830Y70953D01*
G01X82830Y70778D01*
G01X82847Y70604D01*
G01X82882Y70433D01*
G01X82933Y70266D01*
G01X83001Y70104D01*
G01X83085Y69951D01*
G01X83183Y69806D01*
G01X83296Y69672D01*
G01X83421Y69550D01*
G01X83558Y69441D01*
G01X83705Y69347D01*
G01X83860Y69267D01*
G01X84023Y69203D01*
G01X84191Y69155D01*
G01X84363Y69125D01*
G01X84538Y69112D01*
G37*
G36*
G01X4782Y9422D02*
G01X4957Y9426D01*
G01X5130Y9448D01*
G01X5301Y9487D01*
G01X5466Y9543D01*
G01X5626Y9615D01*
G01X5777Y9702D01*
G01X5919Y9804D01*
G01X6050Y9920D01*
G01X6169Y10048D01*
G01X6275Y10187D01*
G01X6366Y10337D01*
G01X6442Y10494D01*
G01X6502Y10659D01*
G01X6545Y10828D01*
G01X6571Y11001D01*
G01X6579Y11176D01*
G01X6571Y11350D01*
G01X6545Y11523D01*
G01X6502Y11692D01*
G01X6442Y11857D01*
G01X6366Y12014D01*
G01X6275Y12164D01*
G01X6169Y12303D01*
G01X6050Y12431D01*
G01X5919Y12547D01*
G01X5777Y12649D01*
G01X5626Y12736D01*
G01X5466Y12808D01*
G01X5301Y12864D01*
G01X5130Y12903D01*
G01X4957Y12925D01*
G01X4782Y12929D01*
G01X4607Y12916D01*
G01X4435Y12886D01*
G01X4267Y12838D01*
G01X4104Y12774D01*
G01X3948Y12694D01*
G01X3802Y12600D01*
G01X3665Y12491D01*
G01X3540Y12369D01*
G01X3427Y12235D01*
G01X3329Y12090D01*
G01X3245Y11937D01*
G01X3177Y11775D01*
G01X3126Y11608D01*
G01X3091Y11437D01*
G01X3074Y11263D01*
G01X3074Y11088D01*
G01X3091Y10914D01*
G01X3126Y10743D01*
G01X3177Y10576D01*
G01X3245Y10414D01*
G01X3329Y10261D01*
G01X3427Y10116D01*
G01X3540Y9982D01*
G01X3665Y9860D01*
G01X3802Y9751D01*
G01X3949Y9657D01*
G01X4104Y9577D01*
G01X4267Y9513D01*
G01X4435Y9465D01*
G01X4607Y9435D01*
G01X4782Y9422D01*
G37*
G36*
G01X96476Y11454D02*
G01X96651Y11458D01*
G01X96824Y11480D01*
G01X96995Y11519D01*
G01X97160Y11575D01*
G01X97320Y11647D01*
G01X97471Y11734D01*
G01X97613Y11836D01*
G01X97744Y11952D01*
G01X97863Y12080D01*
G01X97969Y12219D01*
G01X98060Y12369D01*
G01X98136Y12526D01*
G01X98196Y12691D01*
G01X98239Y12860D01*
G01X98265Y13033D01*
G01X98273Y13208D01*
G01X98265Y13382D01*
G01X98239Y13555D01*
G01X98196Y13724D01*
G01X98136Y13889D01*
G01X98060Y14046D01*
G01X97969Y14196D01*
G01X97863Y14335D01*
G01X97744Y14463D01*
G01X97613Y14579D01*
G01X97471Y14681D01*
G01X97320Y14768D01*
G01X97160Y14840D01*
G01X96995Y14896D01*
G01X96824Y14935D01*
G01X96651Y14957D01*
G01X96476Y14961D01*
G01X96301Y14948D01*
G01X96129Y14918D01*
G01X95961Y14870D01*
G01X95798Y14806D01*
G01X95642Y14726D01*
G01X95496Y14632D01*
G01X95359Y14523D01*
G01X95234Y14401D01*
G01X95121Y14267D01*
G01X95023Y14122D01*
G01X94939Y13969D01*
G01X94871Y13807D01*
G01X94820Y13640D01*
G01X94785Y13469D01*
G01X94768Y13295D01*
G01X94768Y13120D01*
G01X94785Y12946D01*
G01X94820Y12775D01*
G01X94871Y12608D01*
G01X94939Y12446D01*
G01X95023Y12293D01*
G01X95121Y12148D01*
G01X95234Y12014D01*
G01X95359Y11892D01*
G01X95496Y11783D01*
G01X95643Y11689D01*
G01X95798Y11609D01*
G01X95961Y11545D01*
G01X96129Y11497D01*
G01X96301Y11467D01*
G01X96476Y11454D01*
G37*
G36*
G01X3022Y17500D02*
G01X4597Y17500D01*
G01X4607Y17500D01*
G01X4618Y17501D01*
G01X4628Y17502D01*
G01X4639Y17504D01*
G01X4649Y17506D01*
G01X4659Y17508D01*
G01X4669Y17511D01*
G01X4679Y17514D01*
G01X4689Y17517D01*
G01X4699Y17521D01*
G01X4708Y17526D01*
G01X4718Y17531D01*
G01X4727Y17536D01*
G01X4736Y17541D01*
G01X4744Y17547D01*
G01X4753Y17554D01*
G01X4761Y17560D01*
G01X4769Y17567D01*
G01X4777Y17574D01*
G01X4784Y17582D01*
G01X4791Y17590D01*
G01X4797Y17598D01*
G01X4804Y17607D01*
G01X4810Y17615D01*
G01X4815Y17624D01*
G01X4820Y17633D01*
G01X4825Y17643D01*
G01X4830Y17652D01*
G01X4834Y17662D01*
G01X4837Y17672D01*
G01X4840Y17682D01*
G01X4843Y17692D01*
G01X4845Y17702D01*
G01X4847Y17712D01*
G01X4849Y17723D01*
G01X4850Y17733D01*
G01X4851Y17744D01*
G01X4851Y17754D01*
G01X4851Y19329D01*
G01X4851Y19339D01*
G01X4850Y19350D01*
G01X4849Y19360D01*
G01X4847Y19371D01*
G01X4845Y19381D01*
G01X4843Y19391D01*
G01X4840Y19401D01*
G01X4837Y19411D01*
G01X4834Y19421D01*
G01X4830Y19431D01*
G01X4825Y19440D01*
G01X4820Y19450D01*
G01X4815Y19459D01*
G01X4810Y19468D01*
G01X4804Y19476D01*
G01X4797Y19485D01*
G01X4791Y19493D01*
G01X4784Y19501D01*
G01X4777Y19509D01*
G01X4769Y19516D01*
G01X4761Y19523D01*
G01X4753Y19529D01*
G01X4744Y19536D01*
G01X4736Y19542D01*
G01X4727Y19547D01*
G01X4718Y19552D01*
G01X4708Y19557D01*
G01X4699Y19562D01*
G01X4689Y19566D01*
G01X4679Y19569D01*
G01X4669Y19572D01*
G01X4659Y19575D01*
G01X4649Y19577D01*
G01X4639Y19579D01*
G01X4628Y19581D01*
G01X4618Y19582D01*
G01X4607Y19583D01*
G01X4597Y19583D01*
G01X4165Y19583D01*
G01X4165Y22580D01*
G01X4597Y22580D01*
G01X4607Y22580D01*
G01X4618Y22581D01*
G01X4628Y22582D01*
G01X4639Y22584D01*
G01X4649Y22586D01*
G01X4659Y22588D01*
G01X4669Y22591D01*
G01X4679Y22594D01*
G01X4689Y22597D01*
G01X4699Y22601D01*
G01X4708Y22606D01*
G01X4718Y22611D01*
G01X4727Y22616D01*
G01X4736Y22621D01*
G01X4744Y22627D01*
G01X4753Y22634D01*
G01X4761Y22640D01*
G01X4769Y22647D01*
G01X4777Y22654D01*
G01X4784Y22662D01*
G01X4791Y22670D01*
G01X4797Y22678D01*
G01X4804Y22687D01*
G01X4810Y22695D01*
G01X4815Y22704D01*
G01X4820Y22713D01*
G01X4825Y22723D01*
G01X4830Y22732D01*
G01X4834Y22742D01*
G01X4837Y22752D01*
G01X4840Y22762D01*
G01X4843Y22772D01*
G01X4845Y22782D01*
G01X4847Y22792D01*
G01X4849Y22803D01*
G01X4850Y22813D01*
G01X4851Y22824D01*
G01X4851Y22834D01*
G01X4851Y24409D01*
G01X4851Y24419D01*
G01X4850Y24430D01*
G01X4849Y24440D01*
G01X4847Y24451D01*
G01X4845Y24461D01*
G01X4843Y24471D01*
G01X4840Y24481D01*
G01X4837Y24491D01*
G01X4834Y24501D01*
G01X4830Y24511D01*
G01X4825Y24520D01*
G01X4820Y24530D01*
G01X4815Y24539D01*
G01X4810Y24548D01*
G01X4804Y24556D01*
G01X4797Y24565D01*
G01X4791Y24573D01*
G01X4784Y24581D01*
G01X4777Y24589D01*
G01X4769Y24596D01*
G01X4761Y24603D01*
G01X4753Y24609D01*
G01X4744Y24616D01*
G01X4736Y24622D01*
G01X4727Y24627D01*
G01X4718Y24632D01*
G01X4708Y24637D01*
G01X4699Y24642D01*
G01X4689Y24646D01*
G01X4679Y24649D01*
G01X4669Y24652D01*
G01X4659Y24655D01*
G01X4649Y24657D01*
G01X4639Y24659D01*
G01X4628Y24661D01*
G01X4618Y24662D01*
G01X4607Y24663D01*
G01X4597Y24663D01*
G01X4165Y24663D01*
G01X4165Y27660D01*
G01X4597Y27660D01*
G01X4607Y27660D01*
G01X4618Y27661D01*
G01X4628Y27662D01*
G01X4639Y27664D01*
G01X4649Y27666D01*
G01X4659Y27668D01*
G01X4669Y27671D01*
G01X4679Y27674D01*
G01X4689Y27677D01*
G01X4699Y27681D01*
G01X4708Y27686D01*
G01X4718Y27691D01*
G01X4727Y27696D01*
G01X4736Y27701D01*
G01X4744Y27707D01*
G01X4753Y27714D01*
G01X4761Y27720D01*
G01X4769Y27727D01*
G01X4777Y27734D01*
G01X4784Y27742D01*
G01X4791Y27750D01*
G01X4797Y27758D01*
G01X4804Y27767D01*
G01X4810Y27775D01*
G01X4815Y27784D01*
G01X4820Y27793D01*
G01X4825Y27803D01*
G01X4830Y27812D01*
G01X4834Y27822D01*
G01X4837Y27832D01*
G01X4840Y27842D01*
G01X4843Y27852D01*
G01X4845Y27862D01*
G01X4847Y27872D01*
G01X4849Y27883D01*
G01X4850Y27893D01*
G01X4851Y27904D01*
G01X4851Y27914D01*
G01X4851Y29489D01*
G01X4851Y29499D01*
G01X4850Y29510D01*
G01X4849Y29520D01*
G01X4847Y29531D01*
G01X4845Y29541D01*
G01X4843Y29551D01*
G01X4840Y29561D01*
G01X4837Y29571D01*
G01X4834Y29581D01*
G01X4830Y29591D01*
G01X4825Y29600D01*
G01X4820Y29610D01*
G01X4815Y29619D01*
G01X4810Y29628D01*
G01X4804Y29636D01*
G01X4797Y29645D01*
G01X4791Y29653D01*
G01X4784Y29661D01*
G01X4777Y29669D01*
G01X4769Y29676D01*
G01X4761Y29683D01*
G01X4753Y29689D01*
G01X4744Y29696D01*
G01X4736Y29702D01*
G01X4727Y29707D01*
G01X4718Y29712D01*
G01X4708Y29717D01*
G01X4699Y29722D01*
G01X4689Y29726D01*
G01X4679Y29729D01*
G01X4669Y29732D01*
G01X4659Y29735D01*
G01X4649Y29737D01*
G01X4639Y29739D01*
G01X4628Y29741D01*
G01X4618Y29742D01*
G01X4607Y29743D01*
G01X4597Y29743D01*
G01X3022Y29743D01*
G01X3012Y29743D01*
G01X3001Y29742D01*
G01X2991Y29741D01*
G01X2980Y29739D01*
G01X2970Y29737D01*
G01X2960Y29735D01*
G01X2950Y29732D01*
G01X2940Y29729D01*
G01X2930Y29726D01*
G01X2920Y29722D01*
G01X2911Y29717D01*
G01X2901Y29712D01*
G01X2892Y29707D01*
G01X2883Y29702D01*
G01X2875Y29696D01*
G01X2866Y29689D01*
G01X2858Y29683D01*
G01X2850Y29676D01*
G01X2842Y29669D01*
G01X2835Y29661D01*
G01X2828Y29653D01*
G01X2822Y29645D01*
G01X2815Y29636D01*
G01X2809Y29628D01*
G01X2804Y29619D01*
G01X2799Y29610D01*
G01X2794Y29600D01*
G01X2789Y29591D01*
G01X2785Y29581D01*
G01X2782Y29571D01*
G01X2779Y29561D01*
G01X2776Y29551D01*
G01X2774Y29541D01*
G01X2772Y29531D01*
G01X2770Y29520D01*
G01X2769Y29510D01*
G01X2768Y29499D01*
G01X2768Y29489D01*
G01X2768Y27914D01*
G01X2768Y27904D01*
G01X2769Y27893D01*
G01X2770Y27883D01*
G01X2772Y27872D01*
G01X2774Y27862D01*
G01X2776Y27852D01*
G01X2779Y27842D01*
G01X2782Y27832D01*
G01X2785Y27822D01*
G01X2789Y27812D01*
G01X2794Y27803D01*
G01X2799Y27793D01*
G01X2804Y27784D01*
G01X2809Y27775D01*
G01X2815Y27767D01*
G01X2822Y27758D01*
G01X2828Y27750D01*
G01X2835Y27742D01*
G01X2842Y27734D01*
G01X2850Y27727D01*
G01X2858Y27720D01*
G01X2866Y27714D01*
G01X2875Y27707D01*
G01X2883Y27701D01*
G01X2892Y27696D01*
G01X2901Y27691D01*
G01X2911Y27686D01*
G01X2920Y27681D01*
G01X2930Y27677D01*
G01X2940Y27674D01*
G01X2950Y27671D01*
G01X2960Y27668D01*
G01X2970Y27666D01*
G01X2980Y27664D01*
G01X2991Y27662D01*
G01X3001Y27661D01*
G01X3012Y27660D01*
G01X3022Y27660D01*
G01X3454Y27660D01*
G01X3454Y24663D01*
G01X3022Y24663D01*
G01X3012Y24663D01*
G01X3001Y24662D01*
G01X2991Y24661D01*
G01X2980Y24659D01*
G01X2970Y24657D01*
G01X2960Y24655D01*
G01X2950Y24652D01*
G01X2940Y24649D01*
G01X2930Y24646D01*
G01X2920Y24642D01*
G01X2911Y24637D01*
G01X2901Y24632D01*
G01X2892Y24627D01*
G01X2883Y24622D01*
G01X2875Y24616D01*
G01X2866Y24609D01*
G01X2858Y24603D01*
G01X2850Y24596D01*
G01X2842Y24589D01*
G01X2835Y24581D01*
G01X2828Y24573D01*
G01X2822Y24565D01*
G01X2815Y24556D01*
G01X2809Y24548D01*
G01X2804Y24539D01*
G01X2799Y24530D01*
G01X2794Y24520D01*
G01X2789Y24511D01*
G01X2785Y24501D01*
G01X2782Y24491D01*
G01X2779Y24481D01*
G01X2776Y24471D01*
G01X2774Y24461D01*
G01X2772Y24451D01*
G01X2770Y24440D01*
G01X2769Y24430D01*
G01X2768Y24419D01*
G01X2768Y24409D01*
G01X2768Y22834D01*
G01X2768Y22824D01*
G01X2769Y22813D01*
G01X2770Y22803D01*
G01X2772Y22792D01*
G01X2774Y22782D01*
G01X2776Y22772D01*
G01X2779Y22762D01*
G01X2782Y22752D01*
G01X2785Y22742D01*
G01X2789Y22732D01*
G01X2794Y22723D01*
G01X2799Y22713D01*
G01X2804Y22704D01*
G01X2809Y22695D01*
G01X2815Y22687D01*
G01X2822Y22678D01*
G01X2828Y22670D01*
G01X2835Y22662D01*
G01X2842Y22654D01*
G01X2850Y22647D01*
G01X2858Y22640D01*
G01X2866Y22634D01*
G01X2875Y22627D01*
G01X2883Y22621D01*
G01X2892Y22616D01*
G01X2901Y22611D01*
G01X2911Y22606D01*
G01X2920Y22601D01*
G01X2930Y22597D01*
G01X2940Y22594D01*
G01X2950Y22591D01*
G01X2960Y22588D01*
G01X2970Y22586D01*
G01X2980Y22584D01*
G01X2991Y22582D01*
G01X3001Y22581D01*
G01X3012Y22580D01*
G01X3022Y22580D01*
G01X3454Y22580D01*
G01X3454Y19583D01*
G01X3022Y19583D01*
G01X3012Y19583D01*
G01X3001Y19582D01*
G01X2991Y19581D01*
G01X2980Y19579D01*
G01X2970Y19577D01*
G01X2960Y19575D01*
G01X2950Y19572D01*
G01X2940Y19569D01*
G01X2930Y19566D01*
G01X2920Y19562D01*
G01X2911Y19557D01*
G01X2901Y19552D01*
G01X2892Y19547D01*
G01X2883Y19542D01*
G01X2875Y19536D01*
G01X2866Y19529D01*
G01X2858Y19523D01*
G01X2850Y19516D01*
G01X2842Y19509D01*
G01X2835Y19501D01*
G01X2828Y19493D01*
G01X2822Y19485D01*
G01X2815Y19476D01*
G01X2809Y19468D01*
G01X2804Y19459D01*
G01X2799Y19450D01*
G01X2794Y19440D01*
G01X2789Y19431D01*
G01X2785Y19421D01*
G01X2782Y19411D01*
G01X2779Y19401D01*
G01X2776Y19391D01*
G01X2774Y19381D01*
G01X2772Y19371D01*
G01X2770Y19360D01*
G01X2769Y19350D01*
G01X2768Y19339D01*
G01X2768Y19329D01*
G01X2768Y17754D01*
G01X2768Y17744D01*
G01X2769Y17733D01*
G01X2770Y17723D01*
G01X2772Y17712D01*
G01X2774Y17702D01*
G01X2776Y17692D01*
G01X2779Y17682D01*
G01X2782Y17672D01*
G01X2785Y17662D01*
G01X2789Y17652D01*
G01X2794Y17643D01*
G01X2799Y17633D01*
G01X2804Y17624D01*
G01X2809Y17615D01*
G01X2815Y17607D01*
G01X2822Y17598D01*
G01X2828Y17590D01*
G01X2835Y17582D01*
G01X2842Y17574D01*
G01X2850Y17567D01*
G01X2858Y17560D01*
G01X2866Y17554D01*
G01X2875Y17547D01*
G01X2883Y17541D01*
G01X2892Y17536D01*
G01X2901Y17531D01*
G01X2911Y17526D01*
G01X2920Y17521D01*
G01X2930Y17517D01*
G01X2940Y17514D01*
G01X2950Y17511D01*
G01X2960Y17508D01*
G01X2970Y17506D01*
G01X2980Y17504D01*
G01X2991Y17502D01*
G01X3001Y17501D01*
G01X3012Y17500D01*
G01X3022Y17500D01*
G37*
G36*
G01X8864Y17500D02*
G01X8967Y17503D01*
G01X9070Y17516D01*
G01X9172Y17539D01*
G01X9270Y17572D01*
G01X9365Y17615D01*
G01X9454Y17667D01*
G01X9539Y17727D01*
G01X9617Y17796D01*
G01X9687Y17872D01*
G01X9750Y17955D01*
G01X9804Y18043D01*
G01X9849Y18137D01*
G01X9885Y18235D01*
G01X9910Y18335D01*
G01X9926Y18438D01*
G01X9931Y18542D01*
G01X9926Y18645D01*
G01X9910Y18748D01*
G01X9885Y18848D01*
G01X9849Y18946D01*
G01X9804Y19040D01*
G01X9750Y19128D01*
G01X9687Y19211D01*
G01X9617Y19287D01*
G01X9539Y19356D01*
G01X9511Y19376D01*
G01X25791Y35656D01*
G01X31950Y35656D01*
G01X31963Y35656D01*
G01X31976Y35657D01*
G01X31988Y35658D01*
G01X32001Y35660D01*
G01X32013Y35662D01*
G01X32026Y35664D01*
G01X32038Y35667D01*
G01X32050Y35671D01*
G01X32062Y35674D01*
G01X32074Y35679D01*
G01X32086Y35683D01*
G01X32098Y35688D01*
G01X32109Y35694D01*
G01X32121Y35700D01*
G01X32132Y35706D01*
G01X32142Y35713D01*
G01X32153Y35720D01*
G01X32163Y35727D01*
G01X32173Y35735D01*
G01X32183Y35743D01*
G01X32192Y35751D01*
G01X32202Y35760D01*
G01X48252Y51813D01*
G01X48297Y51790D01*
G01X48403Y51748D01*
G01X48513Y51717D01*
G01X48625Y51697D01*
G01X48739Y51689D01*
G01X48853Y51692D01*
G01X48966Y51706D01*
G01X49077Y51731D01*
G01X49185Y51768D01*
G01X49289Y51814D01*
G01X49388Y51871D01*
G01X49480Y51938D01*
G01X49566Y52013D01*
G01X49643Y52097D01*
G01X49712Y52188D01*
G01X49771Y52285D01*
G01X49821Y52388D01*
G01X49860Y52495D01*
G01X49888Y52605D01*
G01X49905Y52718D01*
G01X49911Y52832D01*
G01X49905Y52945D01*
G01X49888Y53058D01*
G01X49860Y53168D01*
G01X49821Y53275D01*
G01X49771Y53378D01*
G01X49712Y53475D01*
G01X49643Y53566D01*
G01X49566Y53650D01*
G01X49480Y53725D01*
G01X49441Y53754D01*
G01X50633Y53754D01*
G01X50551Y53688D01*
G01X50470Y53609D01*
G01X50396Y53522D01*
G01X50332Y53428D01*
G01X50278Y53327D01*
G01X50233Y53222D01*
G01X50200Y53114D01*
G01X50177Y53002D01*
G01X50166Y52888D01*
G01X50166Y52775D01*
G01X50177Y52661D01*
G01X50200Y52549D01*
G01X50233Y52441D01*
G01X50278Y52336D01*
G01X50332Y52235D01*
G01X50396Y52141D01*
G01X50470Y52054D01*
G01X50551Y51975D01*
G01X50640Y51903D01*
G01X50736Y51842D01*
G01X50837Y51790D01*
G01X50943Y51748D01*
G01X50957Y51744D01*
G01X50647Y51744D01*
G01X50634Y51744D01*
G01X50622Y51743D01*
G01X50609Y51742D01*
G01X50597Y51741D01*
G01X50584Y51739D01*
G01X50572Y51736D01*
G01X50559Y51733D01*
G01X50547Y51730D01*
G01X50535Y51726D01*
G01X50523Y51722D01*
G01X50511Y51717D01*
G01X50499Y51712D01*
G01X50488Y51707D01*
G01X50477Y51701D01*
G01X50466Y51695D01*
G01X50455Y51688D01*
G01X50444Y51681D01*
G01X50434Y51673D01*
G01X50424Y51666D01*
G01X50414Y51657D01*
G01X50405Y51649D01*
G01X50396Y51640D01*
G01X37134Y38379D01*
G01X37126Y38370D01*
G01X37117Y38360D01*
G01X37109Y38351D01*
G01X37101Y38340D01*
G01X37094Y38330D01*
G01X37087Y38320D01*
G01X37080Y38309D01*
G01X37074Y38298D01*
G01X37068Y38287D01*
G01X37062Y38275D01*
G01X37057Y38263D01*
G01X37053Y38252D01*
G01X37048Y38240D01*
G01X37045Y38228D01*
G01X37041Y38215D01*
G01X37038Y38203D01*
G01X37037Y38195D01*
G01X37012Y38235D01*
G01X36943Y38326D01*
G01X36866Y38410D01*
G01X36780Y38485D01*
G01X36688Y38552D01*
G01X36589Y38609D01*
G01X36485Y38655D01*
G01X36377Y38692D01*
G01X36266Y38717D01*
G01X36153Y38731D01*
G01X36039Y38734D01*
G01X35925Y38726D01*
G01X35813Y38706D01*
G01X35703Y38675D01*
G01X35597Y38633D01*
G01X35496Y38581D01*
G01X35400Y38520D01*
G01X35311Y38448D01*
G01X35230Y38369D01*
G01X35156Y38282D01*
G01X35092Y38188D01*
G01X35038Y38087D01*
G01X34993Y37982D01*
G01X34960Y37874D01*
G01X34937Y37762D01*
G01X34926Y37648D01*
G01X34926Y37535D01*
G01X34937Y37421D01*
G01X34960Y37309D01*
G01X34993Y37201D01*
G01X35038Y37096D01*
G01X35092Y36995D01*
G01X35156Y36901D01*
G01X35230Y36814D01*
G01X35311Y36735D01*
G01X35400Y36663D01*
G01X35496Y36602D01*
G01X35597Y36550D01*
G01X35703Y36508D01*
G01X35813Y36477D01*
G01X35925Y36457D01*
G01X36039Y36449D01*
G01X36153Y36452D01*
G01X36266Y36466D01*
G01X36377Y36491D01*
G01X36485Y36528D01*
G01X36589Y36574D01*
G01X36688Y36631D01*
G01X36780Y36698D01*
G01X36866Y36773D01*
G01X36943Y36857D01*
G01X37012Y36948D01*
G01X37030Y36978D01*
G01X37030Y36266D01*
G01X36979Y36215D01*
G01X36968Y36216D01*
G01X36912Y36217D01*
G01X36857Y36213D01*
G01X36802Y36204D01*
G01X36748Y36188D01*
G01X36696Y36168D01*
G01X36647Y36143D01*
G01X36600Y36112D01*
G01X36556Y36078D01*
G01X36516Y36039D01*
G01X36480Y35996D01*
G01X36449Y35950D01*
G01X36422Y35901D01*
G01X36401Y35850D01*
G01X36384Y35797D01*
G01X36373Y35742D01*
G01X36368Y35686D01*
G01X36368Y35631D01*
G01X36373Y35575D01*
G01X36384Y35521D01*
G01X36401Y35467D01*
G01X36422Y35416D01*
G01X36449Y35367D01*
G01X36480Y35321D01*
G01X36516Y35278D01*
G01X36556Y35239D01*
G01X36600Y35205D01*
G01X36647Y35174D01*
G01X36696Y35149D01*
G01X36748Y35129D01*
G01X36802Y35114D01*
G01X36857Y35104D01*
G01X36912Y35100D01*
G01X36968Y35101D01*
G01X37023Y35108D01*
G01X37077Y35120D01*
G01X37130Y35138D01*
G01X37181Y35161D01*
G01X37229Y35189D01*
G01X37275Y35222D01*
G01X37316Y35258D01*
G01X37354Y35299D01*
G01X37388Y35344D01*
G01X37417Y35391D01*
G01X37441Y35441D01*
G01X37460Y35494D01*
G01X37474Y35548D01*
G01X37482Y35603D01*
G01X37485Y35659D01*
G01X37482Y35712D01*
G01X37637Y35867D01*
G01X37646Y35876D01*
G01X37654Y35886D01*
G01X37663Y35895D01*
G01X37670Y35905D01*
G01X37678Y35916D01*
G01X37685Y35926D01*
G01X37691Y35937D01*
G01X37698Y35948D01*
G01X37704Y35959D01*
G01X37709Y35971D01*
G01X37714Y35982D01*
G01X37719Y35994D01*
G01X37723Y36006D01*
G01X37727Y36018D01*
G01X37730Y36030D01*
G01X37733Y36043D01*
G01X37736Y36055D01*
G01X37738Y36068D01*
G01X37739Y36080D01*
G01X37740Y36093D01*
G01X37741Y36106D01*
G01X37741Y36118D01*
G01X37741Y36848D01*
G01X37770Y36814D01*
G01X37851Y36735D01*
G01X37940Y36663D01*
G01X38036Y36602D01*
G01X38137Y36550D01*
G01X38243Y36508D01*
G01X38353Y36477D01*
G01X38465Y36457D01*
G01X38579Y36449D01*
G01X38693Y36452D01*
G01X38806Y36466D01*
G01X38917Y36491D01*
G01X39025Y36528D01*
G01X39129Y36574D01*
G01X39228Y36631D01*
G01X39320Y36698D01*
G01X39406Y36773D01*
G01X39483Y36857D01*
G01X39552Y36948D01*
G01X39611Y37045D01*
G01X39661Y37148D01*
G01X39700Y37255D01*
G01X39728Y37365D01*
G01X39745Y37478D01*
G01X39751Y37592D01*
G01X39745Y37705D01*
G01X39728Y37818D01*
G01X39700Y37928D01*
G01X39661Y38035D01*
G01X39611Y38138D01*
G01X39552Y38235D01*
G01X39483Y38326D01*
G01X39406Y38410D01*
G01X39320Y38485D01*
G01X39228Y38552D01*
G01X39129Y38609D01*
G01X39025Y38655D01*
G01X38917Y38692D01*
G01X38806Y38717D01*
G01X38693Y38731D01*
G01X38579Y38734D01*
G01X38488Y38727D01*
G01X50794Y51033D01*
G01X57040Y51033D01*
G01X57053Y51034D01*
G01X57066Y51034D01*
G01X57078Y51035D01*
G01X57091Y51037D01*
G01X57100Y51038D01*
G01X57103Y51025D01*
G01X57120Y50972D01*
G01X57141Y50920D01*
G01X57168Y50871D01*
G01X57199Y50825D01*
G01X57235Y50783D01*
G01X57275Y50744D01*
G01X57289Y50732D01*
G01X57289Y38292D01*
G01X57263Y38326D01*
G01X57186Y38410D01*
G01X57100Y38485D01*
G01X57008Y38552D01*
G01X56909Y38609D01*
G01X56805Y38655D01*
G01X56697Y38692D01*
G01X56586Y38717D01*
G01X56473Y38731D01*
G01X56359Y38734D01*
G01X56245Y38726D01*
G01X56133Y38706D01*
G01X56023Y38675D01*
G01X55917Y38633D01*
G01X55816Y38581D01*
G01X55720Y38520D01*
G01X55631Y38448D01*
G01X55550Y38369D01*
G01X55476Y38282D01*
G01X55412Y38188D01*
G01X55358Y38087D01*
G01X55313Y37982D01*
G01X55280Y37874D01*
G01X55257Y37762D01*
G01X55246Y37648D01*
G01X55246Y37535D01*
G01X55257Y37421D01*
G01X55280Y37309D01*
G01X55313Y37201D01*
G01X55358Y37096D01*
G01X55412Y36995D01*
G01X55476Y36901D01*
G01X55550Y36814D01*
G01X55631Y36735D01*
G01X55720Y36663D01*
G01X55816Y36602D01*
G01X55917Y36550D01*
G01X56023Y36508D01*
G01X56133Y36477D01*
G01X56245Y36457D01*
G01X56359Y36449D01*
G01X56473Y36452D01*
G01X56586Y36466D01*
G01X56697Y36491D01*
G01X56805Y36528D01*
G01X56909Y36574D01*
G01X57008Y36631D01*
G01X57100Y36698D01*
G01X57186Y36773D01*
G01X57263Y36857D01*
G01X57289Y36891D01*
G01X57289Y31871D01*
G01X48860Y23444D01*
G01X48854Y23447D01*
G01X48768Y23476D01*
G01X48681Y23496D01*
G01X48591Y23507D01*
G01X48501Y23509D01*
G01X48411Y23503D01*
G01X48322Y23487D01*
G01X48236Y23462D01*
G01X48152Y23430D01*
G01X48072Y23388D01*
G01X47996Y23340D01*
G01X47925Y23283D01*
G01X47861Y23220D01*
G01X47803Y23151D01*
G01X47752Y23077D01*
G01X47709Y22998D01*
G01X47674Y22915D01*
G01X47648Y22829D01*
G01X47630Y22740D01*
G01X47621Y22651D01*
G01X47621Y22560D01*
G01X47630Y22471D01*
G01X47648Y22382D01*
G01X47674Y22296D01*
G01X47709Y22213D01*
G01X47752Y22134D01*
G01X47803Y22060D01*
G01X47861Y21991D01*
G01X47925Y21928D01*
G01X47996Y21871D01*
G01X48072Y21823D01*
G01X48152Y21781D01*
G01X48236Y21749D01*
G01X48322Y21724D01*
G01X48411Y21708D01*
G01X48501Y21702D01*
G01X48591Y21704D01*
G01X48681Y21715D01*
G01X48768Y21735D01*
G01X48854Y21764D01*
G01X48936Y21801D01*
G01X49014Y21846D01*
G01X49087Y21899D01*
G01X49155Y21958D01*
G01X49216Y22024D01*
G01X49271Y22096D01*
G01X49318Y22173D01*
G01X49344Y22228D01*
G01X49350Y22213D01*
G01X49393Y22134D01*
G01X49444Y22060D01*
G01X49502Y21991D01*
G01X49566Y21928D01*
G01X49637Y21871D01*
G01X49713Y21823D01*
G01X49793Y21781D01*
G01X49877Y21749D01*
G01X49963Y21724D01*
G01X50052Y21708D01*
G01X50142Y21702D01*
G01X50232Y21704D01*
G01X50321Y21715D01*
G01X50409Y21735D01*
G01X50495Y21764D01*
G01X50577Y21801D01*
G01X50655Y21846D01*
G01X50728Y21899D01*
G01X50796Y21958D01*
G01X50857Y22024D01*
G01X50911Y22096D01*
G01X50958Y22173D01*
G01X50990Y22239D01*
G01X51001Y22213D01*
G01X51044Y22134D01*
G01X51095Y22060D01*
G01X51153Y21991D01*
G01X51217Y21928D01*
G01X51288Y21871D01*
G01X51364Y21823D01*
G01X51444Y21781D01*
G01X51528Y21749D01*
G01X51614Y21724D01*
G01X51703Y21708D01*
G01X51793Y21702D01*
G01X51883Y21704D01*
G01X51972Y21715D01*
G01X52060Y21735D01*
G01X52146Y21764D01*
G01X52228Y21801D01*
G01X52306Y21846D01*
G01X52379Y21899D01*
G01X52447Y21958D01*
G01X52508Y22024D01*
G01X52562Y22096D01*
G01X52609Y22173D01*
G01X52649Y22254D01*
G01X52669Y22310D01*
G01X52673Y22296D01*
G01X52708Y22213D01*
G01X52751Y22134D01*
G01X52802Y22060D01*
G01X52860Y21991D01*
G01X52924Y21928D01*
G01X52995Y21871D01*
G01X53070Y21823D01*
G01X53151Y21781D01*
G01X53234Y21749D01*
G01X53321Y21724D01*
G01X53410Y21708D01*
G01X53500Y21702D01*
G01X53590Y21704D01*
G01X53679Y21715D01*
G01X53767Y21735D01*
G01X53853Y21764D01*
G01X53935Y21801D01*
G01X54013Y21846D01*
G01X54086Y21899D01*
G01X54154Y21958D01*
G01X54215Y22024D01*
G01X54269Y22096D01*
G01X54316Y22173D01*
G01X54355Y22254D01*
G01X54386Y22339D01*
G01X54408Y22426D01*
G01X54422Y22515D01*
G01X54426Y22606D01*
G01X54422Y22696D01*
G01X54408Y22785D01*
G01X54386Y22872D01*
G01X54361Y22941D01*
G01X59997Y28577D01*
G01X64780Y28577D01*
G01X64792Y28577D01*
G01X64805Y28578D01*
G01X64818Y28579D01*
G01X64830Y28581D01*
G01X64843Y28583D01*
G01X64855Y28585D01*
G01X64868Y28588D01*
G01X64880Y28592D01*
G01X64892Y28595D01*
G01X64904Y28600D01*
G01X64916Y28604D01*
G01X64927Y28609D01*
G01X64939Y28615D01*
G01X64950Y28621D01*
G01X64961Y28627D01*
G01X64972Y28634D01*
G01X64982Y28641D01*
G01X64993Y28648D01*
G01X65003Y28656D01*
G01X65012Y28664D01*
G01X65022Y28672D01*
G01X65031Y28681D01*
G01X76918Y40571D01*
G01X78701Y40571D01*
G01X78714Y40571D01*
G01X78727Y40572D01*
G01X78739Y40573D01*
G01X78752Y40575D01*
G01X78765Y40577D01*
G01X78777Y40579D01*
G01X78789Y40582D01*
G01X78802Y40585D01*
G01X78814Y40589D01*
G01X78826Y40593D01*
G01X78837Y40598D01*
G01X78849Y40603D01*
G01X78861Y40609D01*
G01X78872Y40615D01*
G01X78883Y40621D01*
G01X78894Y40627D01*
G01X78904Y40634D01*
G01X78914Y40642D01*
G01X78924Y40650D01*
G01X78934Y40658D01*
G01X78944Y40666D01*
G01X78953Y40675D01*
G01X83159Y44881D01*
G01X83206Y44863D01*
G01X83293Y44838D01*
G01X83382Y44822D01*
G01X83472Y44816D01*
G01X83562Y44818D01*
G01X83651Y44829D01*
G01X83739Y44849D01*
G01X83825Y44878D01*
G01X83907Y44915D01*
G01X83985Y44960D01*
G01X84058Y45013D01*
G01X84126Y45072D01*
G01X84187Y45138D01*
G01X84241Y45210D01*
G01X84288Y45287D01*
G01X84327Y45368D01*
G01X84358Y45453D01*
G01X84380Y45540D01*
G01X84394Y45629D01*
G01X84398Y45720D01*
G01X84394Y45810D01*
G01X84380Y45899D01*
G01X84358Y45986D01*
G01X84327Y46071D01*
G01X84288Y46152D01*
G01X84241Y46229D01*
G01X84187Y46301D01*
G01X84126Y46367D01*
G01X84058Y46426D01*
G01X83985Y46479D01*
G01X83907Y46524D01*
G01X83825Y46561D01*
G01X83739Y46590D01*
G01X83651Y46610D01*
G01X83562Y46621D01*
G01X83472Y46623D01*
G01X83382Y46617D01*
G01X83293Y46601D01*
G01X83206Y46576D01*
G01X83123Y46544D01*
G01X83042Y46502D01*
G01X82967Y46454D01*
G01X82896Y46397D01*
G01X82832Y46334D01*
G01X82774Y46265D01*
G01X82723Y46191D01*
G01X82680Y46112D01*
G01X82645Y46029D01*
G01X82641Y46015D01*
G01X82621Y46071D01*
G01X82581Y46152D01*
G01X82534Y46229D01*
G01X82480Y46301D01*
G01X82419Y46367D01*
G01X82351Y46426D01*
G01X82278Y46479D01*
G01X82200Y46524D01*
G01X82118Y46561D01*
G01X82032Y46590D01*
G01X81944Y46610D01*
G01X81855Y46621D01*
G01X81765Y46623D01*
G01X81675Y46617D01*
G01X81586Y46601D01*
G01X81500Y46576D01*
G01X81416Y46544D01*
G01X81335Y46502D01*
G01X81260Y46454D01*
G01X81189Y46397D01*
G01X81125Y46334D01*
G01X81067Y46265D01*
G01X81016Y46191D01*
G01X80973Y46112D01*
G01X80962Y46086D01*
G01X80930Y46152D01*
G01X80883Y46229D01*
G01X80873Y46243D01*
G01X80873Y54330D01*
G01X81305Y54330D01*
G01X81315Y54330D01*
G01X81326Y54331D01*
G01X81336Y54332D01*
G01X81347Y54334D01*
G01X81357Y54336D01*
G01X81367Y54338D01*
G01X81377Y54341D01*
G01X81387Y54344D01*
G01X81397Y54347D01*
G01X81407Y54351D01*
G01X81416Y54356D01*
G01X81426Y54361D01*
G01X81435Y54366D01*
G01X81444Y54371D01*
G01X81452Y54377D01*
G01X81461Y54384D01*
G01X81469Y54390D01*
G01X81477Y54397D01*
G01X81485Y54404D01*
G01X81492Y54412D01*
G01X81499Y54420D01*
G01X81505Y54428D01*
G01X81512Y54437D01*
G01X81518Y54445D01*
G01X81523Y54454D01*
G01X81528Y54463D01*
G01X81533Y54473D01*
G01X81538Y54482D01*
G01X81542Y54492D01*
G01X81545Y54502D01*
G01X81548Y54512D01*
G01X81551Y54522D01*
G01X81553Y54532D01*
G01X81555Y54542D01*
G01X81557Y54553D01*
G01X81558Y54563D01*
G01X81559Y54574D01*
G01X81559Y54584D01*
G01X81559Y56159D01*
G01X81559Y56169D01*
G01X81558Y56180D01*
G01X81557Y56190D01*
G01X81555Y56201D01*
G01X81553Y56211D01*
G01X81551Y56221D01*
G01X81548Y56231D01*
G01X81545Y56241D01*
G01X81542Y56251D01*
G01X81538Y56261D01*
G01X81533Y56270D01*
G01X81528Y56280D01*
G01X81523Y56289D01*
G01X81518Y56298D01*
G01X81512Y56306D01*
G01X81505Y56315D01*
G01X81499Y56323D01*
G01X81492Y56331D01*
G01X81485Y56339D01*
G01X81477Y56346D01*
G01X81469Y56353D01*
G01X81461Y56359D01*
G01X81452Y56366D01*
G01X81444Y56372D01*
G01X81435Y56377D01*
G01X81426Y56382D01*
G01X81416Y56387D01*
G01X81407Y56392D01*
G01X81397Y56396D01*
G01X81387Y56399D01*
G01X81377Y56402D01*
G01X81367Y56405D01*
G01X81357Y56407D01*
G01X81347Y56409D01*
G01X81336Y56411D01*
G01X81326Y56412D01*
G01X81315Y56413D01*
G01X81305Y56413D01*
G01X80873Y56413D01*
G01X80873Y59410D01*
G01X81305Y59410D01*
G01X81315Y59410D01*
G01X81326Y59411D01*
G01X81336Y59412D01*
G01X81347Y59414D01*
G01X81357Y59416D01*
G01X81367Y59418D01*
G01X81377Y59421D01*
G01X81387Y59424D01*
G01X81397Y59427D01*
G01X81407Y59431D01*
G01X81416Y59436D01*
G01X81426Y59441D01*
G01X81435Y59446D01*
G01X81444Y59451D01*
G01X81452Y59457D01*
G01X81461Y59464D01*
G01X81469Y59470D01*
G01X81477Y59477D01*
G01X81485Y59484D01*
G01X81492Y59492D01*
G01X81499Y59500D01*
G01X81505Y59508D01*
G01X81512Y59517D01*
G01X81518Y59525D01*
G01X81523Y59534D01*
G01X81528Y59543D01*
G01X81533Y59553D01*
G01X81538Y59562D01*
G01X81542Y59572D01*
G01X81545Y59582D01*
G01X81548Y59592D01*
G01X81551Y59602D01*
G01X81553Y59612D01*
G01X81555Y59622D01*
G01X81557Y59633D01*
G01X81558Y59643D01*
G01X81559Y59654D01*
G01X81559Y59664D01*
G01X81559Y61239D01*
G01X81559Y61249D01*
G01X81558Y61260D01*
G01X81557Y61270D01*
G01X81555Y61281D01*
G01X81553Y61291D01*
G01X81551Y61301D01*
G01X81548Y61311D01*
G01X81545Y61321D01*
G01X81542Y61331D01*
G01X81538Y61341D01*
G01X81533Y61350D01*
G01X81528Y61360D01*
G01X81523Y61369D01*
G01X81518Y61378D01*
G01X81512Y61386D01*
G01X81505Y61395D01*
G01X81499Y61403D01*
G01X81492Y61411D01*
G01X81485Y61419D01*
G01X81477Y61426D01*
G01X81469Y61433D01*
G01X81461Y61439D01*
G01X81452Y61446D01*
G01X81444Y61452D01*
G01X81435Y61457D01*
G01X81426Y61462D01*
G01X81416Y61467D01*
G01X81407Y61472D01*
G01X81397Y61476D01*
G01X81387Y61479D01*
G01X81377Y61482D01*
G01X81367Y61485D01*
G01X81357Y61487D01*
G01X81347Y61489D01*
G01X81336Y61491D01*
G01X81326Y61492D01*
G01X81315Y61493D01*
G01X81305Y61493D01*
G01X80873Y61493D01*
G01X80873Y64490D01*
G01X81305Y64490D01*
G01X81315Y64490D01*
G01X81326Y64491D01*
G01X81336Y64492D01*
G01X81347Y64494D01*
G01X81357Y64496D01*
G01X81367Y64498D01*
G01X81377Y64501D01*
G01X81387Y64504D01*
G01X81397Y64507D01*
G01X81407Y64511D01*
G01X81416Y64516D01*
G01X81426Y64521D01*
G01X81435Y64526D01*
G01X81444Y64531D01*
G01X81452Y64537D01*
G01X81461Y64544D01*
G01X81469Y64550D01*
G01X81477Y64557D01*
G01X81485Y64564D01*
G01X81492Y64572D01*
G01X81499Y64580D01*
G01X81505Y64588D01*
G01X81512Y64597D01*
G01X81518Y64605D01*
G01X81523Y64614D01*
G01X81528Y64623D01*
G01X81533Y64633D01*
G01X81538Y64642D01*
G01X81542Y64652D01*
G01X81545Y64662D01*
G01X81548Y64672D01*
G01X81551Y64682D01*
G01X81553Y64692D01*
G01X81555Y64702D01*
G01X81557Y64713D01*
G01X81558Y64723D01*
G01X81559Y64734D01*
G01X81559Y64744D01*
G01X81559Y66319D01*
G01X81559Y66329D01*
G01X81558Y66340D01*
G01X81557Y66350D01*
G01X81555Y66361D01*
G01X81553Y66371D01*
G01X81551Y66381D01*
G01X81548Y66391D01*
G01X81545Y66401D01*
G01X81542Y66411D01*
G01X81538Y66421D01*
G01X81533Y66430D01*
G01X81528Y66440D01*
G01X81523Y66449D01*
G01X81518Y66458D01*
G01X81512Y66466D01*
G01X81505Y66475D01*
G01X81499Y66483D01*
G01X81492Y66491D01*
G01X81485Y66499D01*
G01X81477Y66506D01*
G01X81469Y66513D01*
G01X81461Y66519D01*
G01X81452Y66526D01*
G01X81444Y66532D01*
G01X81435Y66537D01*
G01X81426Y66542D01*
G01X81416Y66547D01*
G01X81407Y66552D01*
G01X81397Y66556D01*
G01X81387Y66559D01*
G01X81377Y66562D01*
G01X81367Y66565D01*
G01X81357Y66567D01*
G01X81347Y66569D01*
G01X81336Y66571D01*
G01X81326Y66572D01*
G01X81315Y66573D01*
G01X81305Y66573D01*
G01X79730Y66573D01*
G01X79720Y66573D01*
G01X79709Y66572D01*
G01X79699Y66571D01*
G01X79688Y66569D01*
G01X79678Y66567D01*
G01X79668Y66565D01*
G01X79658Y66562D01*
G01X79648Y66559D01*
G01X79638Y66556D01*
G01X79628Y66552D01*
G01X79619Y66547D01*
G01X79609Y66542D01*
G01X79600Y66537D01*
G01X79591Y66532D01*
G01X79583Y66526D01*
G01X79574Y66519D01*
G01X79566Y66513D01*
G01X79558Y66506D01*
G01X79550Y66499D01*
G01X79543Y66491D01*
G01X79536Y66483D01*
G01X79530Y66475D01*
G01X79523Y66466D01*
G01X79517Y66458D01*
G01X79512Y66449D01*
G01X79507Y66440D01*
G01X79502Y66430D01*
G01X79497Y66421D01*
G01X79493Y66411D01*
G01X79490Y66401D01*
G01X79487Y66391D01*
G01X79484Y66381D01*
G01X79482Y66371D01*
G01X79480Y66361D01*
G01X79478Y66350D01*
G01X79477Y66340D01*
G01X79476Y66329D01*
G01X79476Y66319D01*
G01X79476Y64744D01*
G01X79476Y64734D01*
G01X79477Y64723D01*
G01X79478Y64713D01*
G01X79480Y64702D01*
G01X79482Y64692D01*
G01X79484Y64682D01*
G01X79487Y64672D01*
G01X79490Y64662D01*
G01X79493Y64652D01*
G01X79497Y64642D01*
G01X79502Y64633D01*
G01X79507Y64623D01*
G01X79512Y64614D01*
G01X79517Y64605D01*
G01X79523Y64597D01*
G01X79530Y64588D01*
G01X79536Y64580D01*
G01X79543Y64572D01*
G01X79550Y64564D01*
G01X79558Y64557D01*
G01X79566Y64550D01*
G01X79574Y64544D01*
G01X79583Y64537D01*
G01X79591Y64531D01*
G01X79600Y64526D01*
G01X79609Y64521D01*
G01X79619Y64516D01*
G01X79628Y64511D01*
G01X79638Y64507D01*
G01X79648Y64504D01*
G01X79658Y64501D01*
G01X79668Y64498D01*
G01X79678Y64496D01*
G01X79688Y64494D01*
G01X79699Y64492D01*
G01X79709Y64491D01*
G01X79720Y64490D01*
G01X79730Y64490D01*
G01X80162Y64490D01*
G01X80162Y61493D01*
G01X79730Y61493D01*
G01X79720Y61493D01*
G01X79709Y61492D01*
G01X79699Y61491D01*
G01X79688Y61489D01*
G01X79678Y61487D01*
G01X79668Y61485D01*
G01X79658Y61482D01*
G01X79648Y61479D01*
G01X79638Y61476D01*
G01X79628Y61472D01*
G01X79619Y61467D01*
G01X79609Y61462D01*
G01X79600Y61457D01*
G01X79591Y61452D01*
G01X79583Y61446D01*
G01X79574Y61439D01*
G01X79566Y61433D01*
G01X79558Y61426D01*
G01X79550Y61419D01*
G01X79543Y61411D01*
G01X79536Y61403D01*
G01X79530Y61395D01*
G01X79523Y61386D01*
G01X79517Y61378D01*
G01X79512Y61369D01*
G01X79507Y61360D01*
G01X79502Y61350D01*
G01X79497Y61341D01*
G01X79493Y61331D01*
G01X79490Y61321D01*
G01X79487Y61311D01*
G01X79484Y61301D01*
G01X79482Y61291D01*
G01X79480Y61281D01*
G01X79478Y61270D01*
G01X79477Y61260D01*
G01X79476Y61249D01*
G01X79476Y61239D01*
G01X79476Y59664D01*
G01X79476Y59654D01*
G01X79477Y59643D01*
G01X79478Y59633D01*
G01X79480Y59622D01*
G01X79482Y59612D01*
G01X79484Y59602D01*
G01X79487Y59592D01*
G01X79490Y59582D01*
G01X79493Y59572D01*
G01X79497Y59562D01*
G01X79502Y59553D01*
G01X79507Y59543D01*
G01X79512Y59534D01*
G01X79517Y59525D01*
G01X79523Y59517D01*
G01X79530Y59508D01*
G01X79536Y59500D01*
G01X79543Y59492D01*
G01X79550Y59484D01*
G01X79558Y59477D01*
G01X79566Y59470D01*
G01X79574Y59464D01*
G01X79583Y59457D01*
G01X79591Y59451D01*
G01X79600Y59446D01*
G01X79609Y59441D01*
G01X79619Y59436D01*
G01X79628Y59431D01*
G01X79638Y59427D01*
G01X79648Y59424D01*
G01X79658Y59421D01*
G01X79668Y59418D01*
G01X79678Y59416D01*
G01X79688Y59414D01*
G01X79699Y59412D01*
G01X79709Y59411D01*
G01X79720Y59410D01*
G01X79730Y59410D01*
G01X80162Y59410D01*
G01X80162Y56413D01*
G01X79730Y56413D01*
G01X79720Y56413D01*
G01X79709Y56412D01*
G01X79699Y56411D01*
G01X79688Y56409D01*
G01X79678Y56407D01*
G01X79668Y56405D01*
G01X79658Y56402D01*
G01X79648Y56399D01*
G01X79638Y56396D01*
G01X79628Y56392D01*
G01X79619Y56387D01*
G01X79609Y56382D01*
G01X79600Y56377D01*
G01X79591Y56372D01*
G01X79583Y56366D01*
G01X79574Y56359D01*
G01X79566Y56353D01*
G01X79558Y56346D01*
G01X79550Y56339D01*
G01X79543Y56331D01*
G01X79536Y56323D01*
G01X79530Y56315D01*
G01X79523Y56306D01*
G01X79517Y56298D01*
G01X79512Y56289D01*
G01X79507Y56280D01*
G01X79502Y56270D01*
G01X79497Y56261D01*
G01X79493Y56251D01*
G01X79490Y56241D01*
G01X79487Y56231D01*
G01X79484Y56221D01*
G01X79482Y56211D01*
G01X79480Y56201D01*
G01X79478Y56190D01*
G01X79477Y56180D01*
G01X79476Y56169D01*
G01X79476Y56159D01*
G01X79476Y54584D01*
G01X79476Y54574D01*
G01X79477Y54563D01*
G01X79478Y54553D01*
G01X79480Y54542D01*
G01X79482Y54532D01*
G01X79484Y54522D01*
G01X79487Y54512D01*
G01X79490Y54502D01*
G01X79493Y54492D01*
G01X79497Y54482D01*
G01X79502Y54473D01*
G01X79507Y54463D01*
G01X79512Y54454D01*
G01X79517Y54445D01*
G01X79523Y54437D01*
G01X79530Y54428D01*
G01X79536Y54420D01*
G01X79543Y54412D01*
G01X79550Y54404D01*
G01X79558Y54397D01*
G01X79566Y54390D01*
G01X79574Y54384D01*
G01X79583Y54377D01*
G01X79591Y54371D01*
G01X79600Y54366D01*
G01X79609Y54361D01*
G01X79619Y54356D01*
G01X79628Y54351D01*
G01X79638Y54347D01*
G01X79648Y54344D01*
G01X79658Y54341D01*
G01X79668Y54338D01*
G01X79678Y54336D01*
G01X79688Y54334D01*
G01X79699Y54332D01*
G01X79709Y54331D01*
G01X79720Y54330D01*
G01X79730Y54330D01*
G01X80162Y54330D01*
G01X80162Y46622D01*
G01X80114Y46623D01*
G01X80024Y46617D01*
G01X79935Y46601D01*
G01X79849Y46576D01*
G01X79765Y46544D01*
G01X79684Y46502D01*
G01X79609Y46454D01*
G01X79538Y46397D01*
G01X79474Y46334D01*
G01X79416Y46265D01*
G01X79365Y46191D01*
G01X79322Y46112D01*
G01X79316Y46097D01*
G01X79290Y46152D01*
G01X79243Y46229D01*
G01X79188Y46301D01*
G01X79127Y46367D01*
G01X79059Y46426D01*
G01X78986Y46479D01*
G01X78908Y46524D01*
G01X78851Y46550D01*
G01X78851Y52590D01*
G01X78851Y52603D01*
G01X78850Y52616D01*
G01X78849Y52628D01*
G01X78848Y52641D01*
G01X78846Y52653D01*
G01X78843Y52666D01*
G01X78840Y52678D01*
G01X78837Y52690D01*
G01X78833Y52702D01*
G01X78829Y52714D01*
G01X78824Y52726D01*
G01X78819Y52738D01*
G01X78814Y52749D01*
G01X78808Y52761D01*
G01X78801Y52772D01*
G01X78795Y52782D01*
G01X78788Y52793D01*
G01X78780Y52803D01*
G01X78772Y52813D01*
G01X78764Y52823D01*
G01X78756Y52832D01*
G01X78747Y52842D01*
G01X75024Y56565D01*
G01X75026Y56619D01*
G01X75023Y56674D01*
G01X75015Y56729D01*
G01X75001Y56783D01*
G01X74982Y56836D01*
G01X74958Y56886D01*
G01X74929Y56934D01*
G01X74895Y56978D01*
G01X74858Y57019D01*
G01X74816Y57056D01*
G01X74770Y57088D01*
G01X74722Y57116D01*
G01X74671Y57139D01*
G01X74619Y57157D01*
G01X74564Y57169D01*
G01X74509Y57176D01*
G01X74453Y57177D01*
G01X74398Y57173D01*
G01X74343Y57164D01*
G01X74289Y57149D01*
G01X74237Y57128D01*
G01X74188Y57103D01*
G01X74141Y57073D01*
G01X74097Y57038D01*
G01X74057Y56999D01*
G01X74022Y56956D01*
G01X73990Y56910D01*
G01X73964Y56861D01*
G01X73942Y56810D01*
G01X73926Y56757D01*
G01X73914Y56702D01*
G01X73909Y56647D01*
G01X73909Y56591D01*
G01X73914Y56535D01*
G01X73926Y56481D01*
G01X73942Y56427D01*
G01X73964Y56376D01*
G01X73990Y56327D01*
G01X74022Y56281D01*
G01X74057Y56238D01*
G01X74097Y56200D01*
G01X74141Y56165D01*
G01X74188Y56135D01*
G01X74237Y56109D01*
G01X74289Y56089D01*
G01X74343Y56074D01*
G01X74398Y56064D01*
G01X74453Y56060D01*
G01X74509Y56061D01*
G01X74520Y56063D01*
G01X78140Y52443D01*
G01X78140Y46550D01*
G01X78124Y46544D01*
G01X78044Y46502D01*
G01X77968Y46454D01*
G01X77897Y46397D01*
G01X77833Y46334D01*
G01X77825Y46325D01*
G01X77825Y49270D01*
G01X77825Y49283D01*
G01X77824Y49296D01*
G01X77823Y49308D01*
G01X77821Y49321D01*
G01X77819Y49334D01*
G01X77817Y49346D01*
G01X77814Y49358D01*
G01X77811Y49371D01*
G01X77807Y49383D01*
G01X77803Y49395D01*
G01X77798Y49406D01*
G01X77793Y49418D01*
G01X77787Y49430D01*
G01X77782Y49441D01*
G01X77775Y49452D01*
G01X77769Y49463D01*
G01X77762Y49473D01*
G01X77754Y49483D01*
G01X77746Y49493D01*
G01X77738Y49503D01*
G01X77730Y49513D01*
G01X77721Y49522D01*
G01X72692Y54553D01*
G01X72683Y54562D01*
G01X72673Y54571D01*
G01X72663Y54579D01*
G01X72653Y54587D01*
G01X72643Y54594D01*
G01X72633Y54601D01*
G01X72622Y54608D01*
G01X72611Y54614D01*
G01X72599Y54620D01*
G01X72588Y54626D01*
G01X72576Y54631D01*
G01X72565Y54635D01*
G01X72553Y54639D01*
G01X72540Y54643D01*
G01X72528Y54647D01*
G01X72516Y54650D01*
G01X72503Y54652D01*
G01X72491Y54654D01*
G01X72478Y54656D01*
G01X72466Y54657D01*
G01X72453Y54657D01*
G01X72440Y54658D01*
G01X70078Y54658D01*
G01X56931Y67805D01*
G01X56922Y67814D01*
G01X56912Y67822D01*
G01X56903Y67830D01*
G01X56893Y67838D01*
G01X56882Y67845D01*
G01X56872Y67852D01*
G01X56861Y67859D01*
G01X56850Y67865D01*
G01X56839Y67871D01*
G01X56827Y67877D01*
G01X56816Y67882D01*
G01X56804Y67886D01*
G01X56792Y67891D01*
G01X56780Y67894D01*
G01X56768Y67898D01*
G01X56755Y67901D01*
G01X56743Y67903D01*
G01X56730Y67905D01*
G01X56718Y67907D01*
G01X56705Y67908D01*
G01X56692Y67909D01*
G01X56680Y67909D01*
G01X52313Y67909D01*
G01X52301Y67909D01*
G01X52288Y67908D01*
G01X52275Y67907D01*
G01X52263Y67905D01*
G01X52250Y67903D01*
G01X52238Y67901D01*
G01X52225Y67898D01*
G01X52213Y67894D01*
G01X52201Y67891D01*
G01X52189Y67886D01*
G01X52177Y67882D01*
G01X52166Y67877D01*
G01X52154Y67871D01*
G01X52143Y67865D01*
G01X52132Y67859D01*
G01X52121Y67852D01*
G01X52111Y67845D01*
G01X52100Y67838D01*
G01X52090Y67830D01*
G01X52081Y67822D01*
G01X52071Y67814D01*
G01X52062Y67805D01*
G01X51644Y67386D01*
G01X51638Y67389D01*
G01X51552Y67418D01*
G01X51464Y67438D01*
G01X51375Y67449D01*
G01X51285Y67451D01*
G01X51195Y67445D01*
G01X51106Y67429D01*
G01X51020Y67404D01*
G01X50936Y67372D01*
G01X50855Y67330D01*
G01X50780Y67282D01*
G01X50709Y67225D01*
G01X50645Y67162D01*
G01X50587Y67093D01*
G01X50536Y67019D01*
G01X50493Y66940D01*
G01X50482Y66914D01*
G01X50450Y66980D01*
G01X50403Y67057D01*
G01X50349Y67129D01*
G01X50288Y67195D01*
G01X50220Y67254D01*
G01X50147Y67307D01*
G01X50069Y67352D01*
G01X49987Y67389D01*
G01X49901Y67418D01*
G01X49813Y67438D01*
G01X49724Y67449D01*
G01X49634Y67451D01*
G01X49544Y67445D01*
G01X49455Y67429D01*
G01X49369Y67404D01*
G01X49285Y67372D01*
G01X49204Y67330D01*
G01X49129Y67282D01*
G01X49058Y67225D01*
G01X48994Y67162D01*
G01X48936Y67093D01*
G01X48885Y67019D01*
G01X48842Y66940D01*
G01X48836Y66925D01*
G01X48810Y66980D01*
G01X48763Y67057D01*
G01X48708Y67129D01*
G01X48647Y67195D01*
G01X48579Y67254D01*
G01X48506Y67307D01*
G01X48428Y67352D01*
G01X48346Y67389D01*
G01X48260Y67418D01*
G01X48173Y67438D01*
G01X48083Y67449D01*
G01X47993Y67451D01*
G01X47903Y67445D01*
G01X47814Y67429D01*
G01X47728Y67404D01*
G01X47644Y67372D01*
G01X47564Y67330D01*
G01X47488Y67282D01*
G01X47417Y67225D01*
G01X47353Y67162D01*
G01X47295Y67093D01*
G01X47244Y67019D01*
G01X47201Y66940D01*
G01X47166Y66857D01*
G01X47140Y66771D01*
G01X47122Y66682D01*
G01X47113Y66593D01*
G01X47113Y66502D01*
G01X47122Y66413D01*
G01X47140Y66324D01*
G01X47166Y66238D01*
G01X47201Y66155D01*
G01X47244Y66076D01*
G01X47295Y66002D01*
G01X47353Y65933D01*
G01X47417Y65870D01*
G01X47488Y65813D01*
G01X47564Y65765D01*
G01X47644Y65723D01*
G01X47728Y65691D01*
G01X47814Y65666D01*
G01X47903Y65650D01*
G01X47993Y65644D01*
G01X48083Y65646D01*
G01X48173Y65657D01*
G01X48260Y65677D01*
G01X48346Y65706D01*
G01X48428Y65743D01*
G01X48506Y65788D01*
G01X48579Y65841D01*
G01X48647Y65900D01*
G01X48708Y65966D01*
G01X48763Y66038D01*
G01X48810Y66115D01*
G01X48836Y66170D01*
G01X48842Y66155D01*
G01X48885Y66076D01*
G01X48936Y66002D01*
G01X48994Y65933D01*
G01X49058Y65870D01*
G01X49129Y65813D01*
G01X49205Y65765D01*
G01X49285Y65723D01*
G01X49301Y65717D01*
G01X49301Y65044D01*
G01X43588Y65044D01*
G01X43576Y65043D01*
G01X43563Y65043D01*
G01X43550Y65042D01*
G01X43538Y65040D01*
G01X43525Y65038D01*
G01X43513Y65036D01*
G01X43501Y65033D01*
G01X43488Y65029D01*
G01X43476Y65026D01*
G01X43464Y65021D01*
G01X43452Y65017D01*
G01X43441Y65012D01*
G01X43429Y65006D01*
G01X43418Y65000D01*
G01X43407Y64994D01*
G01X43396Y64987D01*
G01X43386Y64980D01*
G01X43375Y64973D01*
G01X43365Y64965D01*
G01X43356Y64957D01*
G01X43346Y64948D01*
G01X43337Y64940D01*
G01X38714Y60317D01*
G01X38703Y60318D01*
G01X38647Y60319D01*
G01X38591Y60315D01*
G01X38536Y60306D01*
G01X38483Y60291D01*
G01X38431Y60270D01*
G01X38381Y60245D01*
G01X38335Y60214D01*
G01X38291Y60180D01*
G01X38251Y60141D01*
G01X38215Y60098D01*
G01X38184Y60052D01*
G01X38157Y60003D01*
G01X38136Y59952D01*
G01X38119Y59899D01*
G01X38108Y59844D01*
G01X38103Y59788D01*
G01X38103Y59733D01*
G01X38108Y59677D01*
G01X38119Y59623D01*
G01X38136Y59569D01*
G01X38156Y59522D01*
G01X23784Y59522D01*
G01X20246Y63060D01*
G01X20263Y63095D01*
G01X20299Y63193D01*
G01X20324Y63293D01*
G01X20340Y63396D01*
G01X20345Y63500D01*
G01X20340Y63603D01*
G01X20324Y63706D01*
G01X20299Y63806D01*
G01X20263Y63904D01*
G01X20218Y63998D01*
G01X20164Y64086D01*
G01X20101Y64169D01*
G01X20031Y64245D01*
G01X19953Y64314D01*
G01X19868Y64374D01*
G01X19779Y64426D01*
G01X19684Y64469D01*
G01X19586Y64502D01*
G01X19484Y64525D01*
G01X19381Y64538D01*
G01X19278Y64541D01*
G01X19174Y64533D01*
G01X19072Y64515D01*
G01X18972Y64487D01*
G01X18875Y64449D01*
G01X18783Y64401D01*
G01X18696Y64345D01*
G01X18614Y64280D01*
G01X18540Y64208D01*
G01X18473Y64128D01*
G01X18415Y64043D01*
G01X18365Y63951D01*
G01X18325Y63856D01*
G01X18294Y63756D01*
G01X18274Y63655D01*
G01X18263Y63551D01*
G01X18263Y63448D01*
G01X18274Y63344D01*
G01X18294Y63243D01*
G01X18325Y63143D01*
G01X18365Y63048D01*
G01X18415Y62956D01*
G01X18473Y62871D01*
G01X18540Y62791D01*
G01X18614Y62719D01*
G01X18696Y62654D01*
G01X18783Y62598D01*
G01X18875Y62550D01*
G01X18972Y62512D01*
G01X19072Y62484D01*
G01X19174Y62466D01*
G01X19278Y62458D01*
G01X19381Y62461D01*
G01X19484Y62474D01*
G01X19586Y62497D01*
G01X19684Y62530D01*
G01X19743Y62557D01*
G01X23385Y58915D01*
G01X23395Y58906D01*
G01X23404Y58898D01*
G01X23414Y58889D01*
G01X23424Y58882D01*
G01X23434Y58874D01*
G01X23445Y58867D01*
G01X23455Y58861D01*
G01X23466Y58854D01*
G01X23478Y58848D01*
G01X23489Y58843D01*
G01X23501Y58838D01*
G01X23513Y58833D01*
G01X23524Y58829D01*
G01X23537Y58825D01*
G01X23549Y58822D01*
G01X23561Y58819D01*
G01X23574Y58816D01*
G01X23586Y58814D01*
G01X23599Y58813D01*
G01X23611Y58812D01*
G01X23624Y58811D01*
G01X23637Y58811D01*
G01X39745Y58811D01*
G01X45209Y53348D01*
G01X45198Y53327D01*
G01X45153Y53222D01*
G01X45120Y53114D01*
G01X45097Y53002D01*
G01X45086Y52888D01*
G01X45086Y52775D01*
G01X45097Y52661D01*
G01X45120Y52549D01*
G01X45153Y52441D01*
G01X45198Y52336D01*
G01X45252Y52235D01*
G01X45316Y52141D01*
G01X45390Y52054D01*
G01X45471Y51975D01*
G01X45560Y51903D01*
G01X45656Y51842D01*
G01X45757Y51790D01*
G01X45863Y51748D01*
G01X45973Y51717D01*
G01X46085Y51697D01*
G01X46199Y51689D01*
G01X46313Y51692D01*
G01X46426Y51706D01*
G01X46511Y51725D01*
G01X36641Y41855D01*
G01X36633Y41875D01*
G01X36609Y41925D01*
G01X36580Y41973D01*
G01X36547Y42017D01*
G01X36509Y42058D01*
G01X36474Y42089D01*
G01X36474Y50195D01*
G01X38092Y51813D01*
G01X38137Y51790D01*
G01X38243Y51748D01*
G01X38353Y51717D01*
G01X38465Y51697D01*
G01X38579Y51689D01*
G01X38693Y51692D01*
G01X38806Y51706D01*
G01X38917Y51731D01*
G01X39025Y51768D01*
G01X39129Y51814D01*
G01X39228Y51871D01*
G01X39320Y51938D01*
G01X39406Y52013D01*
G01X39483Y52097D01*
G01X39552Y52188D01*
G01X39611Y52285D01*
G01X39661Y52388D01*
G01X39700Y52495D01*
G01X39728Y52605D01*
G01X39745Y52718D01*
G01X39751Y52832D01*
G01X39745Y52945D01*
G01X39728Y53058D01*
G01X39700Y53168D01*
G01X39661Y53275D01*
G01X39611Y53378D01*
G01X39552Y53475D01*
G01X39483Y53566D01*
G01X39406Y53650D01*
G01X39394Y53660D01*
G01X39817Y53660D01*
G01X40129Y53348D01*
G01X40118Y53327D01*
G01X40073Y53222D01*
G01X40040Y53114D01*
G01X40017Y53002D01*
G01X40006Y52888D01*
G01X40006Y52775D01*
G01X40017Y52661D01*
G01X40040Y52549D01*
G01X40073Y52441D01*
G01X40118Y52336D01*
G01X40172Y52235D01*
G01X40236Y52141D01*
G01X40310Y52054D01*
G01X40391Y51975D01*
G01X40480Y51903D01*
G01X40576Y51842D01*
G01X40677Y51790D01*
G01X40783Y51748D01*
G01X40893Y51717D01*
G01X41005Y51697D01*
G01X41119Y51689D01*
G01X41233Y51692D01*
G01X41346Y51706D01*
G01X41457Y51731D01*
G01X41565Y51768D01*
G01X41669Y51814D01*
G01X41768Y51871D01*
G01X41860Y51938D01*
G01X41946Y52013D01*
G01X42023Y52097D01*
G01X42092Y52188D01*
G01X42151Y52285D01*
G01X42201Y52388D01*
G01X42240Y52495D01*
G01X42268Y52605D01*
G01X42285Y52718D01*
G01X42291Y52832D01*
G01X42285Y52945D01*
G01X42268Y53058D01*
G01X42240Y53168D01*
G01X42201Y53275D01*
G01X42151Y53378D01*
G01X42092Y53475D01*
G01X42023Y53566D01*
G01X41946Y53650D01*
G01X41860Y53725D01*
G01X41768Y53792D01*
G01X41669Y53849D01*
G01X41565Y53895D01*
G01X41457Y53932D01*
G01X41346Y53957D01*
G01X41233Y53971D01*
G01X41119Y53974D01*
G01X41005Y53966D01*
G01X40893Y53946D01*
G01X40783Y53915D01*
G01X40677Y53873D01*
G01X40632Y53850D01*
G01X40215Y54267D01*
G01X40206Y54275D01*
G01X40197Y54284D01*
G01X40187Y54292D01*
G01X40177Y54300D01*
G01X40167Y54307D01*
G01X40156Y54314D01*
G01X40145Y54321D01*
G01X40134Y54327D01*
G01X40123Y54333D01*
G01X40112Y54339D01*
G01X40100Y54344D01*
G01X40088Y54348D01*
G01X40076Y54352D01*
G01X40064Y54356D01*
G01X40052Y54360D01*
G01X40039Y54363D01*
G01X40027Y54365D01*
G01X40014Y54367D01*
G01X40002Y54369D01*
G01X39989Y54370D01*
G01X39977Y54370D01*
G01X39964Y54371D01*
G01X19979Y54371D01*
G01X19966Y54370D01*
G01X19954Y54370D01*
G01X19941Y54369D01*
G01X19929Y54367D01*
G01X19916Y54365D01*
G01X19904Y54363D01*
G01X19891Y54360D01*
G01X19879Y54356D01*
G01X19867Y54352D01*
G01X19855Y54348D01*
G01X19843Y54344D01*
G01X19831Y54339D01*
G01X19820Y54333D01*
G01X19809Y54327D01*
G01X19798Y54321D01*
G01X19787Y54314D01*
G01X19776Y54307D01*
G01X19766Y54300D01*
G01X19756Y54292D01*
G01X19746Y54284D01*
G01X19744Y54282D01*
G01X19684Y54309D01*
G01X19586Y54342D01*
G01X19484Y54365D01*
G01X19381Y54378D01*
G01X19278Y54381D01*
G01X19174Y54373D01*
G01X19072Y54355D01*
G01X18972Y54327D01*
G01X18875Y54289D01*
G01X18783Y54241D01*
G01X18696Y54185D01*
G01X18614Y54120D01*
G01X18540Y54048D01*
G01X18473Y53968D01*
G01X18415Y53883D01*
G01X18365Y53791D01*
G01X18325Y53696D01*
G01X18294Y53596D01*
G01X18274Y53495D01*
G01X18263Y53391D01*
G01X18263Y53288D01*
G01X18274Y53184D01*
G01X18294Y53083D01*
G01X18325Y52983D01*
G01X18365Y52888D01*
G01X18415Y52796D01*
G01X18473Y52711D01*
G01X18540Y52631D01*
G01X18614Y52559D01*
G01X18696Y52494D01*
G01X18783Y52438D01*
G01X18875Y52390D01*
G01X18972Y52352D01*
G01X19072Y52324D01*
G01X19174Y52306D01*
G01X19278Y52298D01*
G01X19381Y52301D01*
G01X19484Y52314D01*
G01X19586Y52337D01*
G01X19684Y52370D01*
G01X19779Y52413D01*
G01X19868Y52465D01*
G01X19953Y52525D01*
G01X20031Y52594D01*
G01X20101Y52670D01*
G01X20164Y52753D01*
G01X20218Y52841D01*
G01X20263Y52935D01*
G01X20299Y53033D01*
G01X20324Y53133D01*
G01X20340Y53236D01*
G01X20345Y53340D01*
G01X20340Y53443D01*
G01X20324Y53546D01*
G01X20299Y53646D01*
G01X20294Y53660D01*
G01X35282Y53660D01*
G01X35230Y53609D01*
G01X35156Y53522D01*
G01X35092Y53428D01*
G01X35038Y53327D01*
G01X34993Y53222D01*
G01X34960Y53114D01*
G01X34937Y53002D01*
G01X34926Y52888D01*
G01X34926Y52775D01*
G01X34937Y52661D01*
G01X34960Y52549D01*
G01X34993Y52441D01*
G01X35038Y52336D01*
G01X35049Y52315D01*
G01X28971Y46238D01*
G01X28962Y46228D01*
G01X28954Y46219D01*
G01X28945Y46209D01*
G01X28938Y46199D01*
G01X28930Y46189D01*
G01X28923Y46178D01*
G01X28916Y46168D01*
G01X28910Y46157D01*
G01X28904Y46145D01*
G01X28899Y46134D01*
G01X28894Y46122D01*
G01X28889Y46110D01*
G01X28885Y46098D01*
G01X28881Y46086D01*
G01X28878Y46074D01*
G01X28875Y46062D01*
G01X28872Y46049D01*
G01X28870Y46037D01*
G01X28869Y46024D01*
G01X28868Y46012D01*
G01X28867Y45999D01*
G01X28867Y45986D01*
G01X28867Y41771D01*
G01X28852Y41760D01*
G01X28812Y41721D01*
G01X28777Y41678D01*
G01X28745Y41632D01*
G01X28719Y41583D01*
G01X28697Y41532D01*
G01X28680Y41478D01*
G01X28669Y41424D01*
G01X28664Y41368D01*
G01X28664Y41313D01*
G01X28669Y41257D01*
G01X28680Y41203D01*
G01X28697Y41149D01*
G01X28719Y41098D01*
G01X28745Y41049D01*
G01X28777Y41003D01*
G01X28812Y40960D01*
G01X28852Y40921D01*
G01X28896Y40887D01*
G01X28943Y40856D01*
G01X28992Y40831D01*
G01X29027Y40817D01*
G01X21225Y33015D01*
G01X21226Y33025D01*
G01X21229Y33080D01*
G01X21226Y33136D01*
G01X21218Y33191D01*
G01X21204Y33245D01*
G01X21185Y33298D01*
G01X21161Y33348D01*
G01X21132Y33395D01*
G01X21098Y33440D01*
G01X21060Y33481D01*
G01X21019Y33518D01*
G01X20973Y33550D01*
G01X20925Y33578D01*
G01X20874Y33601D01*
G01X20821Y33619D01*
G01X20767Y33631D01*
G01X20712Y33638D01*
G01X20656Y33639D01*
G01X20601Y33635D01*
G01X20546Y33625D01*
G01X20492Y33610D01*
G01X20440Y33590D01*
G01X20391Y33565D01*
G01X20344Y33534D01*
G01X20305Y33504D01*
G01X18020Y35789D01*
G01X18111Y35791D01*
G01X18214Y35804D01*
G01X18316Y35827D01*
G01X18414Y35860D01*
G01X18509Y35903D01*
G01X18598Y35955D01*
G01X18683Y36015D01*
G01X18761Y36084D01*
G01X18831Y36160D01*
G01X18894Y36243D01*
G01X18948Y36331D01*
G01X18993Y36425D01*
G01X19029Y36523D01*
G01X19054Y36623D01*
G01X19070Y36726D01*
G01X19075Y36830D01*
G01X19070Y36933D01*
G01X19054Y37036D01*
G01X19029Y37136D01*
G01X18993Y37234D01*
G01X18948Y37328D01*
G01X18894Y37416D01*
G01X18831Y37499D01*
G01X18761Y37575D01*
G01X18683Y37644D01*
G01X18598Y37704D01*
G01X18509Y37756D01*
G01X18414Y37799D01*
G01X18316Y37832D01*
G01X18214Y37855D01*
G01X18111Y37868D01*
G01X18008Y37871D01*
G01X17904Y37863D01*
G01X17802Y37845D01*
G01X17702Y37817D01*
G01X17605Y37779D01*
G01X17513Y37731D01*
G01X17426Y37675D01*
G01X17344Y37610D01*
G01X17270Y37538D01*
G01X17203Y37458D01*
G01X17145Y37373D01*
G01X17095Y37281D01*
G01X17055Y37186D01*
G01X17024Y37086D01*
G01X17004Y36985D01*
G01X16993Y36881D01*
G01X16993Y36815D01*
G01X16984Y36824D01*
G01X16984Y41932D01*
G01X16984Y41945D01*
G01X16983Y41958D01*
G01X16982Y41970D01*
G01X16981Y41983D01*
G01X16979Y41995D01*
G01X16976Y42008D01*
G01X16973Y42020D01*
G01X16970Y42033D01*
G01X16966Y42045D01*
G01X16962Y42057D01*
G01X16957Y42068D01*
G01X16952Y42080D01*
G01X16947Y42091D01*
G01X16941Y42103D01*
G01X16935Y42114D01*
G01X16928Y42125D01*
G01X16921Y42135D01*
G01X16913Y42145D01*
G01X16906Y42155D01*
G01X16898Y42165D01*
G01X16889Y42175D01*
G01X16880Y42184D01*
G01X13906Y45158D01*
G01X13909Y45212D01*
G01X13906Y45267D01*
G01X13898Y45322D01*
G01X13884Y45376D01*
G01X13865Y45429D01*
G01X13841Y45479D01*
G01X13812Y45526D01*
G01X13778Y45571D01*
G01X13740Y45612D01*
G01X13698Y45649D01*
G01X13653Y45681D01*
G01X13605Y45709D01*
G01X13554Y45732D01*
G01X13501Y45750D01*
G01X13447Y45762D01*
G01X13392Y45769D01*
G01X13336Y45770D01*
G01X13280Y45766D01*
G01X13225Y45756D01*
G01X13172Y45741D01*
G01X13120Y45721D01*
G01X13070Y45696D01*
G01X13023Y45665D01*
G01X12980Y45631D01*
G01X12940Y45592D01*
G01X12904Y45549D01*
G01X12873Y45503D01*
G01X12846Y45454D01*
G01X12824Y45403D01*
G01X12808Y45349D01*
G01X12797Y45295D01*
G01X12791Y45239D01*
G01X12791Y45184D01*
G01X12797Y45128D01*
G01X12808Y45074D01*
G01X12824Y45020D01*
G01X12846Y44969D01*
G01X12873Y44920D01*
G01X12904Y44874D01*
G01X12940Y44831D01*
G01X12980Y44792D01*
G01X13023Y44758D01*
G01X13070Y44727D01*
G01X13120Y44702D01*
G01X13172Y44682D01*
G01X13225Y44667D01*
G01X13280Y44657D01*
G01X13336Y44653D01*
G01X13392Y44654D01*
G01X13403Y44655D01*
G01X16273Y41785D01*
G01X16273Y37871D01*
G01X14706Y37871D01*
G01X14696Y37871D01*
G01X14685Y37870D01*
G01X14675Y37869D01*
G01X14664Y37867D01*
G01X14654Y37865D01*
G01X14644Y37863D01*
G01X14634Y37860D01*
G01X14624Y37857D01*
G01X14614Y37854D01*
G01X14604Y37850D01*
G01X14595Y37845D01*
G01X14585Y37840D01*
G01X14576Y37835D01*
G01X14567Y37830D01*
G01X14559Y37824D01*
G01X14550Y37817D01*
G01X14542Y37811D01*
G01X14534Y37804D01*
G01X14526Y37797D01*
G01X14519Y37789D01*
G01X14512Y37781D01*
G01X14506Y37773D01*
G01X14499Y37764D01*
G01X14493Y37756D01*
G01X14488Y37747D01*
G01X14483Y37738D01*
G01X14478Y37728D01*
G01X14473Y37719D01*
G01X14469Y37709D01*
G01X14466Y37699D01*
G01X14463Y37689D01*
G01X14460Y37679D01*
G01X14458Y37669D01*
G01X14456Y37659D01*
G01X14454Y37648D01*
G01X14453Y37638D01*
G01X14452Y37627D01*
G01X14452Y37617D01*
G01X14452Y36042D01*
G01X14452Y36032D01*
G01X14453Y36021D01*
G01X14454Y36011D01*
G01X14456Y36000D01*
G01X14458Y35990D01*
G01X14460Y35980D01*
G01X14463Y35970D01*
G01X14466Y35960D01*
G01X14469Y35950D01*
G01X14473Y35940D01*
G01X14478Y35931D01*
G01X14483Y35921D01*
G01X14488Y35912D01*
G01X14493Y35903D01*
G01X14499Y35895D01*
G01X14506Y35886D01*
G01X14512Y35878D01*
G01X14519Y35870D01*
G01X14526Y35862D01*
G01X14534Y35855D01*
G01X14542Y35848D01*
G01X14550Y35842D01*
G01X14559Y35835D01*
G01X14567Y35829D01*
G01X14576Y35824D01*
G01X14585Y35819D01*
G01X14595Y35814D01*
G01X14604Y35809D01*
G01X14614Y35805D01*
G01X14624Y35802D01*
G01X14634Y35799D01*
G01X14644Y35796D01*
G01X14654Y35794D01*
G01X14664Y35792D01*
G01X14675Y35790D01*
G01X14685Y35789D01*
G01X14696Y35788D01*
G01X14706Y35788D01*
G01X16281Y35788D01*
G01X16291Y35788D01*
G01X16302Y35789D01*
G01X16312Y35790D01*
G01X16323Y35792D01*
G01X16333Y35794D01*
G01X16343Y35796D01*
G01X16353Y35799D01*
G01X16363Y35802D01*
G01X16373Y35805D01*
G01X16383Y35809D01*
G01X16392Y35814D01*
G01X16402Y35819D01*
G01X16411Y35824D01*
G01X16420Y35829D01*
G01X16428Y35835D01*
G01X16437Y35842D01*
G01X16445Y35848D01*
G01X16453Y35855D01*
G01X16461Y35862D01*
G01X16468Y35870D01*
G01X16475Y35878D01*
G01X16481Y35886D01*
G01X16488Y35895D01*
G01X16494Y35903D01*
G01X16499Y35912D01*
G01X16504Y35921D01*
G01X16509Y35931D01*
G01X16514Y35940D01*
G01X16518Y35950D01*
G01X16521Y35960D01*
G01X16524Y35970D01*
G01X16527Y35980D01*
G01X16529Y35990D01*
G01X16531Y36000D01*
G01X16533Y36011D01*
G01X16534Y36021D01*
G01X16535Y36032D01*
G01X16535Y36042D01*
G01X16535Y36268D01*
G01X19974Y32829D01*
G01X19983Y32820D01*
G01X19993Y32812D01*
G01X20002Y32804D01*
G01X20012Y32796D01*
G01X20023Y32788D01*
G01X20033Y32781D01*
G01X20044Y32775D01*
G01X20055Y32768D01*
G01X20066Y32763D01*
G01X20078Y32757D01*
G01X20089Y32752D01*
G01X20101Y32747D01*
G01X20113Y32743D01*
G01X20125Y32739D01*
G01X20138Y32736D01*
G01X20150Y32733D01*
G01X20162Y32731D01*
G01X20175Y32729D01*
G01X20188Y32727D01*
G01X20200Y32726D01*
G01X20213Y32725D01*
G01X20226Y32725D01*
G01X20239Y32725D01*
G01X20260Y32700D01*
G01X20300Y32661D01*
G01X20344Y32627D01*
G01X20391Y32596D01*
G01X20440Y32571D01*
G01X20492Y32551D01*
G01X20546Y32535D01*
G01X20601Y32526D01*
G01X20656Y32522D01*
G01X20712Y32523D01*
G01X20735Y32526D01*
G01X12186Y23977D01*
G01X9867Y23977D01*
G01X9849Y24026D01*
G01X9804Y24120D01*
G01X9750Y24208D01*
G01X9687Y24291D01*
G01X9617Y24367D01*
G01X9539Y24436D01*
G01X9454Y24496D01*
G01X9365Y24548D01*
G01X9270Y24591D01*
G01X9172Y24624D01*
G01X9070Y24647D01*
G01X8967Y24660D01*
G01X8864Y24663D01*
G01X8760Y24655D01*
G01X8658Y24637D01*
G01X8558Y24609D01*
G01X8461Y24571D01*
G01X8369Y24523D01*
G01X8282Y24467D01*
G01X8200Y24402D01*
G01X8126Y24330D01*
G01X8059Y24250D01*
G01X8001Y24165D01*
G01X7951Y24073D01*
G01X7911Y23978D01*
G01X7880Y23878D01*
G01X7860Y23777D01*
G01X7849Y23673D01*
G01X7849Y23570D01*
G01X7860Y23466D01*
G01X7880Y23365D01*
G01X7911Y23265D01*
G01X7951Y23170D01*
G01X8001Y23078D01*
G01X8059Y22993D01*
G01X8126Y22913D01*
G01X8200Y22841D01*
G01X8282Y22776D01*
G01X8369Y22720D01*
G01X8461Y22672D01*
G01X8558Y22634D01*
G01X8658Y22606D01*
G01X8760Y22588D01*
G01X8864Y22580D01*
G01X8967Y22583D01*
G01X9070Y22596D01*
G01X9172Y22619D01*
G01X9270Y22652D01*
G01X9365Y22695D01*
G01X9454Y22747D01*
G01X9539Y22807D01*
G01X9617Y22876D01*
G01X9687Y22952D01*
G01X9750Y23035D01*
G01X9804Y23123D01*
G01X9849Y23217D01*
G01X9867Y23266D01*
G01X12334Y23266D01*
G01X12346Y23266D01*
G01X12359Y23267D01*
G01X12372Y23268D01*
G01X12384Y23270D01*
G01X12397Y23272D01*
G01X12402Y23273D01*
G01X8692Y19563D01*
G01X8658Y19557D01*
G01X8558Y19529D01*
G01X8461Y19491D01*
G01X8369Y19443D01*
G01X8282Y19387D01*
G01X8200Y19322D01*
G01X8126Y19250D01*
G01X8059Y19170D01*
G01X8001Y19085D01*
G01X7951Y18993D01*
G01X7911Y18898D01*
G01X7880Y18798D01*
G01X7860Y18697D01*
G01X7849Y18593D01*
G01X7849Y18490D01*
G01X7860Y18386D01*
G01X7880Y18285D01*
G01X7911Y18185D01*
G01X7951Y18090D01*
G01X8001Y17998D01*
G01X8059Y17913D01*
G01X8126Y17833D01*
G01X8200Y17761D01*
G01X8282Y17696D01*
G01X8369Y17640D01*
G01X8461Y17592D01*
G01X8558Y17554D01*
G01X8658Y17526D01*
G01X8760Y17508D01*
G01X8864Y17500D01*
G37*
G36*
G01X6743Y17578D02*
G01X6825Y17615D01*
G01X6914Y17667D01*
G01X6999Y17727D01*
G01X7077Y17796D01*
G01X7147Y17872D01*
G01X7210Y17955D01*
G01X7264Y18043D01*
G01X7309Y18137D01*
G01X7313Y18148D01*
G01X6743Y18148D01*
G01X6743Y17578D01*
G37*
G36*
G01X5956Y17579D02*
G01X5956Y18148D01*
G01X5387Y18148D01*
G01X5411Y18090D01*
G01X5461Y17998D01*
G01X5519Y17913D01*
G01X5586Y17833D01*
G01X5660Y17761D01*
G01X5742Y17696D01*
G01X5829Y17640D01*
G01X5921Y17592D01*
G01X5956Y17579D01*
G37*
G36*
G01X91668Y17754D02*
G01X93243Y17754D01*
G01X93253Y17754D01*
G01X93264Y17755D01*
G01X93274Y17756D01*
G01X93285Y17758D01*
G01X93295Y17760D01*
G01X93305Y17762D01*
G01X93315Y17765D01*
G01X93325Y17768D01*
G01X93335Y17771D01*
G01X93345Y17775D01*
G01X93354Y17780D01*
G01X93364Y17785D01*
G01X93373Y17790D01*
G01X93382Y17795D01*
G01X93390Y17801D01*
G01X93399Y17808D01*
G01X93407Y17814D01*
G01X93415Y17821D01*
G01X93423Y17828D01*
G01X93430Y17836D01*
G01X93437Y17844D01*
G01X93443Y17852D01*
G01X93450Y17861D01*
G01X93456Y17869D01*
G01X93461Y17878D01*
G01X93466Y17887D01*
G01X93471Y17897D01*
G01X93476Y17906D01*
G01X93480Y17916D01*
G01X93483Y17926D01*
G01X93486Y17936D01*
G01X93489Y17946D01*
G01X93491Y17956D01*
G01X93493Y17966D01*
G01X93495Y17977D01*
G01X93496Y17987D01*
G01X93497Y17998D01*
G01X93497Y18008D01*
G01X93497Y19583D01*
G01X93497Y19593D01*
G01X93496Y19604D01*
G01X93495Y19614D01*
G01X93493Y19625D01*
G01X93491Y19635D01*
G01X93489Y19645D01*
G01X93486Y19655D01*
G01X93483Y19665D01*
G01X93480Y19675D01*
G01X93476Y19685D01*
G01X93471Y19694D01*
G01X93466Y19704D01*
G01X93461Y19713D01*
G01X93456Y19722D01*
G01X93450Y19730D01*
G01X93443Y19739D01*
G01X93437Y19747D01*
G01X93430Y19755D01*
G01X93423Y19763D01*
G01X93415Y19770D01*
G01X93407Y19777D01*
G01X93399Y19783D01*
G01X93390Y19790D01*
G01X93382Y19796D01*
G01X93373Y19801D01*
G01X93364Y19806D01*
G01X93354Y19811D01*
G01X93345Y19816D01*
G01X93335Y19820D01*
G01X93325Y19823D01*
G01X93315Y19826D01*
G01X93305Y19829D01*
G01X93295Y19831D01*
G01X93285Y19833D01*
G01X93274Y19835D01*
G01X93264Y19836D01*
G01X93253Y19837D01*
G01X93243Y19837D01*
G01X92811Y19837D01*
G01X92811Y22834D01*
G01X93243Y22834D01*
G01X93253Y22834D01*
G01X93264Y22835D01*
G01X93274Y22836D01*
G01X93285Y22838D01*
G01X93295Y22840D01*
G01X93305Y22842D01*
G01X93315Y22845D01*
G01X93325Y22848D01*
G01X93335Y22851D01*
G01X93345Y22855D01*
G01X93354Y22860D01*
G01X93364Y22865D01*
G01X93373Y22870D01*
G01X93382Y22875D01*
G01X93390Y22881D01*
G01X93399Y22888D01*
G01X93407Y22894D01*
G01X93415Y22901D01*
G01X93423Y22908D01*
G01X93430Y22916D01*
G01X93437Y22924D01*
G01X93443Y22932D01*
G01X93450Y22941D01*
G01X93456Y22949D01*
G01X93461Y22958D01*
G01X93466Y22967D01*
G01X93471Y22977D01*
G01X93476Y22986D01*
G01X93480Y22996D01*
G01X93483Y23006D01*
G01X93486Y23016D01*
G01X93489Y23026D01*
G01X93491Y23036D01*
G01X93493Y23046D01*
G01X93495Y23057D01*
G01X93496Y23067D01*
G01X93497Y23078D01*
G01X93497Y23088D01*
G01X93497Y24663D01*
G01X93497Y24673D01*
G01X93496Y24684D01*
G01X93495Y24694D01*
G01X93493Y24705D01*
G01X93491Y24715D01*
G01X93489Y24725D01*
G01X93486Y24735D01*
G01X93483Y24745D01*
G01X93480Y24755D01*
G01X93476Y24765D01*
G01X93471Y24774D01*
G01X93466Y24784D01*
G01X93461Y24793D01*
G01X93456Y24802D01*
G01X93450Y24810D01*
G01X93443Y24819D01*
G01X93437Y24827D01*
G01X93430Y24835D01*
G01X93423Y24843D01*
G01X93415Y24850D01*
G01X93407Y24857D01*
G01X93399Y24863D01*
G01X93390Y24870D01*
G01X93382Y24876D01*
G01X93373Y24881D01*
G01X93364Y24886D01*
G01X93354Y24891D01*
G01X93345Y24896D01*
G01X93335Y24900D01*
G01X93325Y24903D01*
G01X93315Y24906D01*
G01X93305Y24909D01*
G01X93295Y24911D01*
G01X93285Y24913D01*
G01X93274Y24915D01*
G01X93264Y24916D01*
G01X93253Y24917D01*
G01X93243Y24917D01*
G01X92811Y24917D01*
G01X92811Y27914D01*
G01X93243Y27914D01*
G01X93253Y27914D01*
G01X93264Y27915D01*
G01X93274Y27916D01*
G01X93285Y27918D01*
G01X93295Y27920D01*
G01X93305Y27922D01*
G01X93315Y27925D01*
G01X93325Y27928D01*
G01X93335Y27931D01*
G01X93345Y27935D01*
G01X93354Y27940D01*
G01X93364Y27945D01*
G01X93373Y27950D01*
G01X93382Y27955D01*
G01X93390Y27961D01*
G01X93399Y27968D01*
G01X93407Y27974D01*
G01X93415Y27981D01*
G01X93423Y27988D01*
G01X93430Y27996D01*
G01X93437Y28004D01*
G01X93443Y28012D01*
G01X93450Y28021D01*
G01X93456Y28029D01*
G01X93461Y28038D01*
G01X93466Y28047D01*
G01X93471Y28057D01*
G01X93476Y28066D01*
G01X93480Y28076D01*
G01X93483Y28086D01*
G01X93486Y28096D01*
G01X93489Y28106D01*
G01X93491Y28116D01*
G01X93493Y28126D01*
G01X93495Y28137D01*
G01X93496Y28147D01*
G01X93497Y28158D01*
G01X93497Y28168D01*
G01X93497Y29743D01*
G01X93497Y29753D01*
G01X93496Y29764D01*
G01X93495Y29774D01*
G01X93493Y29785D01*
G01X93491Y29795D01*
G01X93489Y29805D01*
G01X93486Y29815D01*
G01X93483Y29825D01*
G01X93480Y29835D01*
G01X93476Y29845D01*
G01X93471Y29854D01*
G01X93466Y29864D01*
G01X93461Y29873D01*
G01X93456Y29882D01*
G01X93450Y29890D01*
G01X93443Y29899D01*
G01X93437Y29907D01*
G01X93430Y29915D01*
G01X93423Y29923D01*
G01X93415Y29930D01*
G01X93407Y29937D01*
G01X93399Y29943D01*
G01X93390Y29950D01*
G01X93382Y29956D01*
G01X93373Y29961D01*
G01X93364Y29966D01*
G01X93354Y29971D01*
G01X93345Y29976D01*
G01X93335Y29980D01*
G01X93325Y29983D01*
G01X93315Y29986D01*
G01X93305Y29989D01*
G01X93295Y29991D01*
G01X93285Y29993D01*
G01X93274Y29995D01*
G01X93264Y29996D01*
G01X93253Y29997D01*
G01X93243Y29997D01*
G01X92811Y29997D01*
G01X92811Y30025D01*
G01X92811Y30032D01*
G01X92811Y30038D01*
G01X92811Y30040D01*
G01X92811Y30043D01*
G01X92810Y30049D01*
G01X92810Y30056D01*
G01X92809Y30058D01*
G01X92809Y30060D01*
G01X92809Y30066D01*
G01X92808Y30073D01*
G01X92807Y30076D01*
G01X92807Y30078D01*
G01X92806Y30084D01*
G01X92805Y30091D01*
G01X92804Y30093D01*
G01X92804Y30095D01*
G01X92803Y30101D01*
G01X92801Y30108D01*
G01X92801Y30110D01*
G01X92800Y30113D01*
G01X92798Y30118D01*
G01X92796Y30125D01*
G01X92796Y30128D01*
G01X92795Y30130D01*
G01X92793Y30135D01*
G01X92791Y30142D01*
G01X92790Y30145D01*
G01X92790Y30146D01*
G01X92787Y30152D01*
G01X92785Y30159D01*
G01X92784Y30161D01*
G01X92783Y30163D01*
G01X92780Y30169D01*
G01X92778Y30175D01*
G01X92777Y30177D01*
G01X92776Y30179D01*
G01X92773Y30185D01*
G01X92770Y30191D01*
G01X92769Y30193D01*
G01X92768Y30195D01*
G01X92764Y30201D01*
G01X92761Y30206D01*
G01X92760Y30208D01*
G01X92759Y30210D01*
G01X92755Y30216D01*
G01X92752Y30221D01*
G01X92751Y30223D01*
G01X92749Y30225D01*
G01X92745Y30231D01*
G01X92742Y30236D01*
G01X92740Y30237D01*
G01X92739Y30239D01*
G01X92734Y30245D01*
G01X92731Y30250D01*
G01X92729Y30252D01*
G01X92728Y30253D01*
G01X92723Y30258D01*
G01X92719Y30263D01*
G01X92718Y30265D01*
G01X92716Y30267D01*
G01X92712Y30271D01*
G01X92707Y30276D01*
G01X92049Y30934D01*
G01X92049Y34582D01*
G01X92074Y34590D01*
G01X92169Y34633D01*
G01X92258Y34685D01*
G01X92343Y34745D01*
G01X92421Y34814D01*
G01X92491Y34890D01*
G01X92554Y34973D01*
G01X92608Y35061D01*
G01X92653Y35155D01*
G01X92689Y35253D01*
G01X92714Y35353D01*
G01X92730Y35456D01*
G01X92735Y35560D01*
G01X92730Y35663D01*
G01X92714Y35766D01*
G01X92689Y35866D01*
G01X92653Y35964D01*
G01X92608Y36058D01*
G01X92554Y36146D01*
G01X92491Y36229D01*
G01X92421Y36305D01*
G01X92343Y36374D01*
G01X92258Y36434D01*
G01X92169Y36486D01*
G01X92074Y36529D01*
G01X91976Y36562D01*
G01X91874Y36585D01*
G01X91771Y36598D01*
G01X91668Y36601D01*
G01X91564Y36593D01*
G01X91462Y36575D01*
G01X91362Y36547D01*
G01X91265Y36509D01*
G01X91253Y36503D01*
G01X89131Y38625D01*
G01X89131Y41595D01*
G01X89181Y41503D01*
G01X89279Y41358D01*
G01X89392Y41224D01*
G01X89517Y41102D01*
G01X89654Y40993D01*
G01X89801Y40899D01*
G01X89927Y40833D01*
G01X89927Y41667D01*
G01X89131Y41667D01*
G01X89131Y43168D01*
G01X89927Y43168D01*
G01X89927Y44002D01*
G01X89800Y43936D01*
G01X89654Y43842D01*
G01X89517Y43733D01*
G01X89392Y43611D01*
G01X89279Y43477D01*
G01X89181Y43332D01*
G01X89131Y43240D01*
G01X89131Y45364D01*
G01X89717Y45951D01*
G01X89801Y45897D01*
G01X89956Y45817D01*
G01X90119Y45754D01*
G01X90287Y45706D01*
G01X90459Y45676D01*
G01X90634Y45663D01*
G01X90809Y45667D01*
G01X90982Y45689D01*
G01X91153Y45728D01*
G01X91318Y45783D01*
G01X91478Y45855D01*
G01X91629Y45943D01*
G01X91771Y46045D01*
G01X91902Y46161D01*
G01X92021Y46289D01*
G01X92127Y46428D01*
G01X92218Y46577D01*
G01X92294Y46735D01*
G01X92354Y46899D01*
G01X92397Y47069D01*
G01X92423Y47242D01*
G01X92431Y47416D01*
G01X92423Y47591D01*
G01X92397Y47764D01*
G01X92354Y47933D01*
G01X92294Y48098D01*
G01X92218Y48255D01*
G01X92127Y48404D01*
G01X92021Y48544D01*
G01X91902Y48672D01*
G01X91771Y48788D01*
G01X91629Y48890D01*
G01X91478Y48977D01*
G01X91318Y49049D01*
G01X91153Y49105D01*
G01X90982Y49144D01*
G01X90809Y49165D01*
G01X90634Y49170D01*
G01X90459Y49157D01*
G01X90287Y49126D01*
G01X90119Y49079D01*
G01X89956Y49015D01*
G01X89800Y48935D01*
G01X89654Y48840D01*
G01X89517Y48731D01*
G01X89392Y48609D01*
G01X89279Y48475D01*
G01X89181Y48331D01*
G01X89097Y48177D01*
G01X89029Y48016D01*
G01X88978Y47849D01*
G01X88943Y47678D01*
G01X88926Y47504D01*
G01X88926Y47329D01*
G01X88943Y47155D01*
G01X88978Y46983D01*
G01X89029Y46816D01*
G01X89097Y46655D01*
G01X89181Y46502D01*
G01X89214Y46453D01*
G01X88524Y45762D01*
G01X88515Y45753D01*
G01X88506Y45744D01*
G01X88498Y45734D01*
G01X88490Y45724D01*
G01X88483Y45714D01*
G01X88476Y45703D01*
G01X88469Y45692D01*
G01X88463Y45681D01*
G01X88457Y45670D01*
G01X88452Y45659D01*
G01X88447Y45647D01*
G01X88442Y45635D01*
G01X88438Y45623D01*
G01X88434Y45611D01*
G01X88431Y45599D01*
G01X88428Y45587D01*
G01X88425Y45574D01*
G01X88423Y45562D01*
G01X88422Y45549D01*
G01X88420Y45537D01*
G01X88420Y45524D01*
G01X88420Y45511D01*
G01X88420Y38478D01*
G01X88420Y38465D01*
G01X88420Y38453D01*
G01X88422Y38440D01*
G01X88423Y38427D01*
G01X88425Y38415D01*
G01X88428Y38402D01*
G01X88431Y38390D01*
G01X88434Y38378D01*
G01X88438Y38366D01*
G01X88442Y38354D01*
G01X88447Y38342D01*
G01X88452Y38330D01*
G01X88457Y38319D01*
G01X88463Y38308D01*
G01X88469Y38297D01*
G01X88476Y38286D01*
G01X88483Y38275D01*
G01X88490Y38265D01*
G01X88498Y38255D01*
G01X88506Y38245D01*
G01X88515Y38236D01*
G01X88524Y38227D01*
G01X90750Y36000D01*
G01X90715Y35916D01*
G01X90684Y35816D01*
G01X90664Y35715D01*
G01X90653Y35611D01*
G01X90653Y35508D01*
G01X90664Y35404D01*
G01X90684Y35303D01*
G01X90715Y35203D01*
G01X90755Y35108D01*
G01X90805Y35016D01*
G01X90863Y34931D01*
G01X90930Y34851D01*
G01X91004Y34779D01*
G01X91086Y34714D01*
G01X91173Y34658D01*
G01X91265Y34610D01*
G01X91338Y34582D01*
G01X91338Y30787D01*
G01X91338Y30774D01*
G01X91339Y30761D01*
G01X91340Y30749D01*
G01X91342Y30736D01*
G01X91344Y30724D01*
G01X91346Y30711D01*
G01X91349Y30699D01*
G01X91352Y30687D01*
G01X91356Y30675D01*
G01X91360Y30663D01*
G01X91365Y30651D01*
G01X91370Y30639D01*
G01X91376Y30628D01*
G01X91381Y30616D01*
G01X91388Y30605D01*
G01X91394Y30595D01*
G01X91401Y30584D01*
G01X91409Y30574D01*
G01X91417Y30564D01*
G01X91425Y30554D01*
G01X91433Y30545D01*
G01X91442Y30535D01*
G01X91981Y29997D01*
G01X91668Y29997D01*
G01X91658Y29997D01*
G01X91647Y29996D01*
G01X91637Y29995D01*
G01X91626Y29993D01*
G01X91616Y29991D01*
G01X91606Y29989D01*
G01X91596Y29986D01*
G01X91586Y29983D01*
G01X91576Y29980D01*
G01X91566Y29976D01*
G01X91557Y29971D01*
G01X91547Y29966D01*
G01X91538Y29961D01*
G01X91529Y29956D01*
G01X91521Y29950D01*
G01X91512Y29943D01*
G01X91504Y29937D01*
G01X91496Y29930D01*
G01X91488Y29923D01*
G01X91481Y29915D01*
G01X91474Y29907D01*
G01X91468Y29899D01*
G01X91461Y29890D01*
G01X91455Y29882D01*
G01X91450Y29873D01*
G01X91445Y29864D01*
G01X91440Y29854D01*
G01X91435Y29845D01*
G01X91431Y29835D01*
G01X91428Y29825D01*
G01X91425Y29815D01*
G01X91422Y29805D01*
G01X91420Y29795D01*
G01X91418Y29785D01*
G01X91416Y29774D01*
G01X91415Y29764D01*
G01X91414Y29753D01*
G01X91414Y29743D01*
G01X91414Y28168D01*
G01X91414Y28158D01*
G01X91415Y28147D01*
G01X91416Y28137D01*
G01X91418Y28126D01*
G01X91420Y28116D01*
G01X91422Y28106D01*
G01X91425Y28096D01*
G01X91428Y28086D01*
G01X91431Y28076D01*
G01X91435Y28066D01*
G01X91440Y28057D01*
G01X91445Y28047D01*
G01X91450Y28038D01*
G01X91455Y28029D01*
G01X91461Y28021D01*
G01X91468Y28012D01*
G01X91474Y28004D01*
G01X91481Y27996D01*
G01X91488Y27988D01*
G01X91496Y27981D01*
G01X91504Y27974D01*
G01X91512Y27968D01*
G01X91521Y27961D01*
G01X91529Y27955D01*
G01X91538Y27950D01*
G01X91547Y27945D01*
G01X91557Y27940D01*
G01X91566Y27935D01*
G01X91576Y27931D01*
G01X91586Y27928D01*
G01X91596Y27925D01*
G01X91606Y27922D01*
G01X91616Y27920D01*
G01X91626Y27918D01*
G01X91637Y27916D01*
G01X91647Y27915D01*
G01X91658Y27914D01*
G01X91668Y27914D01*
G01X92100Y27914D01*
G01X92100Y24917D01*
G01X91668Y24917D01*
G01X91658Y24917D01*
G01X91647Y24916D01*
G01X91637Y24915D01*
G01X91626Y24913D01*
G01X91616Y24911D01*
G01X91606Y24909D01*
G01X91596Y24906D01*
G01X91586Y24903D01*
G01X91576Y24900D01*
G01X91566Y24896D01*
G01X91557Y24891D01*
G01X91547Y24886D01*
G01X91538Y24881D01*
G01X91529Y24876D01*
G01X91521Y24870D01*
G01X91512Y24863D01*
G01X91504Y24857D01*
G01X91496Y24850D01*
G01X91488Y24843D01*
G01X91481Y24835D01*
G01X91474Y24827D01*
G01X91468Y24819D01*
G01X91461Y24810D01*
G01X91455Y24802D01*
G01X91450Y24793D01*
G01X91445Y24784D01*
G01X91440Y24774D01*
G01X91435Y24765D01*
G01X91431Y24755D01*
G01X91428Y24745D01*
G01X91425Y24735D01*
G01X91422Y24725D01*
G01X91420Y24715D01*
G01X91418Y24705D01*
G01X91416Y24694D01*
G01X91415Y24684D01*
G01X91414Y24673D01*
G01X91414Y24663D01*
G01X91414Y23088D01*
G01X91414Y23078D01*
G01X91415Y23067D01*
G01X91416Y23057D01*
G01X91418Y23046D01*
G01X91420Y23036D01*
G01X91422Y23026D01*
G01X91425Y23016D01*
G01X91428Y23006D01*
G01X91431Y22996D01*
G01X91435Y22986D01*
G01X91440Y22977D01*
G01X91445Y22967D01*
G01X91450Y22958D01*
G01X91455Y22949D01*
G01X91461Y22941D01*
G01X91468Y22932D01*
G01X91474Y22924D01*
G01X91481Y22916D01*
G01X91488Y22908D01*
G01X91496Y22901D01*
G01X91504Y22894D01*
G01X91512Y22888D01*
G01X91521Y22881D01*
G01X91529Y22875D01*
G01X91538Y22870D01*
G01X91547Y22865D01*
G01X91557Y22860D01*
G01X91566Y22855D01*
G01X91576Y22851D01*
G01X91586Y22848D01*
G01X91596Y22845D01*
G01X91606Y22842D01*
G01X91616Y22840D01*
G01X91626Y22838D01*
G01X91637Y22836D01*
G01X91647Y22835D01*
G01X91658Y22834D01*
G01X91668Y22834D01*
G01X92100Y22834D01*
G01X92100Y19837D01*
G01X91668Y19837D01*
G01X91658Y19837D01*
G01X91647Y19836D01*
G01X91637Y19835D01*
G01X91626Y19833D01*
G01X91616Y19831D01*
G01X91606Y19829D01*
G01X91596Y19826D01*
G01X91586Y19823D01*
G01X91576Y19820D01*
G01X91566Y19816D01*
G01X91557Y19811D01*
G01X91547Y19806D01*
G01X91538Y19801D01*
G01X91529Y19796D01*
G01X91521Y19790D01*
G01X91512Y19783D01*
G01X91504Y19777D01*
G01X91496Y19770D01*
G01X91488Y19763D01*
G01X91481Y19755D01*
G01X91474Y19747D01*
G01X91468Y19739D01*
G01X91461Y19730D01*
G01X91455Y19722D01*
G01X91450Y19713D01*
G01X91445Y19704D01*
G01X91440Y19694D01*
G01X91435Y19685D01*
G01X91431Y19675D01*
G01X91428Y19665D01*
G01X91425Y19655D01*
G01X91422Y19645D01*
G01X91420Y19635D01*
G01X91418Y19625D01*
G01X91416Y19614D01*
G01X91415Y19604D01*
G01X91414Y19593D01*
G01X91414Y19583D01*
G01X91414Y18008D01*
G01X91414Y17998D01*
G01X91415Y17987D01*
G01X91416Y17977D01*
G01X91418Y17966D01*
G01X91420Y17956D01*
G01X91422Y17946D01*
G01X91425Y17936D01*
G01X91428Y17926D01*
G01X91431Y17916D01*
G01X91435Y17906D01*
G01X91440Y17897D01*
G01X91445Y17887D01*
G01X91450Y17878D01*
G01X91455Y17869D01*
G01X91461Y17861D01*
G01X91468Y17852D01*
G01X91474Y17844D01*
G01X91481Y17836D01*
G01X91488Y17828D01*
G01X91496Y17821D01*
G01X91504Y17814D01*
G01X91512Y17808D01*
G01X91521Y17801D01*
G01X91529Y17795D01*
G01X91538Y17790D01*
G01X91547Y17785D01*
G01X91557Y17780D01*
G01X91566Y17775D01*
G01X91576Y17771D01*
G01X91586Y17768D01*
G01X91596Y17765D01*
G01X91606Y17762D01*
G01X91616Y17760D01*
G01X91626Y17758D01*
G01X91637Y17756D01*
G01X91647Y17755D01*
G01X91658Y17754D01*
G01X91668Y17754D01*
G37*
G36*
G01X97510Y17754D02*
G01X97613Y17757D01*
G01X97716Y17770D01*
G01X97818Y17793D01*
G01X97916Y17826D01*
G01X98011Y17869D01*
G01X98100Y17921D01*
G01X98185Y17981D01*
G01X98263Y18050D01*
G01X98333Y18126D01*
G01X98396Y18209D01*
G01X98450Y18297D01*
G01X98495Y18391D01*
G01X98531Y18489D01*
G01X98556Y18589D01*
G01X98572Y18692D01*
G01X98577Y18796D01*
G01X98572Y18899D01*
G01X98556Y19002D01*
G01X98531Y19102D01*
G01X98495Y19200D01*
G01X98450Y19294D01*
G01X98396Y19382D01*
G01X98333Y19465D01*
G01X98263Y19541D01*
G01X98185Y19610D01*
G01X98100Y19670D01*
G01X98011Y19722D01*
G01X97916Y19765D01*
G01X97818Y19798D01*
G01X97716Y19821D01*
G01X97613Y19834D01*
G01X97510Y19837D01*
G01X97406Y19829D01*
G01X97304Y19811D01*
G01X97204Y19783D01*
G01X97107Y19745D01*
G01X97015Y19697D01*
G01X96928Y19641D01*
G01X96846Y19576D01*
G01X96772Y19504D01*
G01X96705Y19424D01*
G01X96647Y19339D01*
G01X96597Y19247D01*
G01X96557Y19152D01*
G01X96526Y19052D01*
G01X96506Y18951D01*
G01X96495Y18847D01*
G01X96495Y18744D01*
G01X96506Y18640D01*
G01X96526Y18539D01*
G01X96557Y18439D01*
G01X96597Y18344D01*
G01X96647Y18252D01*
G01X96705Y18167D01*
G01X96772Y18087D01*
G01X96846Y18015D01*
G01X96928Y17950D01*
G01X97015Y17894D01*
G01X97107Y17846D01*
G01X97204Y17808D01*
G01X97304Y17780D01*
G01X97406Y17762D01*
G01X97510Y17754D01*
G37*
G36*
G01X17228Y67588D02*
G01X17403Y67592D01*
G01X17576Y67614D01*
G01X17747Y67653D01*
G01X17912Y67709D01*
G01X18072Y67781D01*
G01X18223Y67868D01*
G01X18365Y67970D01*
G01X18496Y68086D01*
G01X18615Y68214D01*
G01X18721Y68353D01*
G01X18812Y68503D01*
G01X18888Y68660D01*
G01X18948Y68825D01*
G01X18991Y68994D01*
G01X19017Y69167D01*
G01X19025Y69342D01*
G01X19017Y69516D01*
G01X18991Y69689D01*
G01X18948Y69858D01*
G01X18888Y70023D01*
G01X18812Y70180D01*
G01X18721Y70330D01*
G01X18615Y70469D01*
G01X18496Y70597D01*
G01X18365Y70713D01*
G01X18223Y70815D01*
G01X18072Y70902D01*
G01X17912Y70974D01*
G01X17747Y71030D01*
G01X17576Y71069D01*
G01X17403Y71091D01*
G01X17228Y71095D01*
G01X17053Y71082D01*
G01X16881Y71052D01*
G01X16713Y71004D01*
G01X16550Y70940D01*
G01X16394Y70860D01*
G01X16248Y70766D01*
G01X16111Y70657D01*
G01X15986Y70535D01*
G01X15873Y70401D01*
G01X15775Y70256D01*
G01X15691Y70103D01*
G01X15623Y69941D01*
G01X15572Y69774D01*
G01X15537Y69603D01*
G01X15520Y69429D01*
G01X15520Y69254D01*
G01X15537Y69080D01*
G01X15572Y68909D01*
G01X15623Y68742D01*
G01X15691Y68580D01*
G01X15775Y68427D01*
G01X15873Y68282D01*
G01X15986Y68148D01*
G01X16111Y68026D01*
G01X16248Y67917D01*
G01X16395Y67823D01*
G01X16550Y67743D01*
G01X16713Y67679D01*
G01X16881Y67631D01*
G01X17053Y67601D01*
G01X17228Y67588D01*
G37*
G36*
G01X95389Y17832D02*
G01X95471Y17869D01*
G01X95560Y17921D01*
G01X95645Y17981D01*
G01X95723Y18050D01*
G01X95793Y18126D01*
G01X95856Y18209D01*
G01X95910Y18297D01*
G01X95955Y18391D01*
G01X95959Y18402D01*
G01X95389Y18402D01*
G01X95389Y17832D01*
G37*
G36*
G01X94602Y17833D02*
G01X94602Y18402D01*
G01X94033Y18402D01*
G01X94057Y18344D01*
G01X94107Y18252D01*
G01X94165Y18167D01*
G01X94232Y18087D01*
G01X94306Y18015D01*
G01X94388Y17950D01*
G01X94475Y17894D01*
G01X94567Y17846D01*
G01X94602Y17833D01*
G37*
G36*
G01X6743Y18935D02*
G01X7313Y18935D01*
G01X7309Y18946D01*
G01X7264Y19040D01*
G01X7210Y19128D01*
G01X7147Y19211D01*
G01X7077Y19287D01*
G01X6999Y19356D01*
G01X6914Y19416D01*
G01X6825Y19468D01*
G01X6743Y19505D01*
G01X6743Y18935D01*
G37*
G36*
G01X5387Y18935D02*
G01X5956Y18935D01*
G01X5956Y19504D01*
G01X5921Y19491D01*
G01X5829Y19443D01*
G01X5742Y19387D01*
G01X5660Y19322D01*
G01X5586Y19250D01*
G01X5519Y19170D01*
G01X5461Y19085D01*
G01X5411Y18993D01*
G01X5387Y18935D01*
G37*
G36*
G01X95389Y19189D02*
G01X95959Y19189D01*
G01X95955Y19200D01*
G01X95910Y19294D01*
G01X95856Y19382D01*
G01X95793Y19465D01*
G01X95723Y19541D01*
G01X95645Y19610D01*
G01X95560Y19670D01*
G01X95471Y19722D01*
G01X95389Y19759D01*
G01X95389Y19189D01*
G37*
G36*
G01X94033Y19189D02*
G01X94602Y19189D01*
G01X94602Y19758D01*
G01X94567Y19745D01*
G01X94475Y19697D01*
G01X94388Y19641D01*
G01X94306Y19576D01*
G01X94232Y19504D01*
G01X94165Y19424D01*
G01X94107Y19339D01*
G01X94057Y19247D01*
G01X94033Y19189D01*
G37*
G36*
G01X82095Y65925D02*
G01X82664Y65925D01*
G01X82664Y66494D01*
G01X82629Y66481D01*
G01X82537Y66433D01*
G01X82450Y66377D01*
G01X82368Y66312D01*
G01X82294Y66240D01*
G01X82227Y66160D01*
G01X82169Y66075D01*
G01X82119Y65983D01*
G01X82095Y65925D01*
G37*
G36*
G01X83451Y65925D02*
G01X84021Y65925D01*
G01X84017Y65936D01*
G01X83972Y66030D01*
G01X83918Y66118D01*
G01X83855Y66201D01*
G01X83785Y66277D01*
G01X83707Y66346D01*
G01X83622Y66406D01*
G01X83533Y66458D01*
G01X83451Y66495D01*
G01X83451Y65925D01*
G37*
G36*
G01X82664Y64569D02*
G01X82664Y65138D01*
G01X82095Y65138D01*
G01X82119Y65080D01*
G01X82169Y64988D01*
G01X82227Y64903D01*
G01X82294Y64823D01*
G01X82368Y64751D01*
G01X82450Y64686D01*
G01X82537Y64630D01*
G01X82629Y64582D01*
G01X82664Y64569D01*
G37*
G36*
G01X83451Y64568D02*
G01X83533Y64605D01*
G01X83622Y64657D01*
G01X83707Y64717D01*
G01X83785Y64786D01*
G01X83855Y64862D01*
G01X83918Y64945D01*
G01X83972Y65033D01*
G01X84017Y65127D01*
G01X84021Y65138D01*
G01X83451Y65138D01*
G01X83451Y64568D01*
G37*
G36*
G01X85572Y64490D02*
G01X85675Y64493D01*
G01X85778Y64506D01*
G01X85880Y64529D01*
G01X85978Y64562D01*
G01X86073Y64605D01*
G01X86162Y64657D01*
G01X86247Y64717D01*
G01X86325Y64786D01*
G01X86395Y64862D01*
G01X86458Y64945D01*
G01X86512Y65033D01*
G01X86557Y65127D01*
G01X86593Y65225D01*
G01X86618Y65325D01*
G01X86634Y65428D01*
G01X86639Y65532D01*
G01X86634Y65635D01*
G01X86618Y65738D01*
G01X86593Y65838D01*
G01X86557Y65936D01*
G01X86512Y66030D01*
G01X86458Y66118D01*
G01X86395Y66201D01*
G01X86325Y66277D01*
G01X86247Y66346D01*
G01X86162Y66406D01*
G01X86073Y66458D01*
G01X85978Y66501D01*
G01X85880Y66534D01*
G01X85778Y66557D01*
G01X85675Y66570D01*
G01X85572Y66573D01*
G01X85468Y66565D01*
G01X85366Y66547D01*
G01X85266Y66519D01*
G01X85169Y66481D01*
G01X85077Y66433D01*
G01X84990Y66377D01*
G01X84908Y66312D01*
G01X84834Y66240D01*
G01X84767Y66160D01*
G01X84709Y66075D01*
G01X84659Y65983D01*
G01X84619Y65888D01*
G01X84588Y65788D01*
G01X84568Y65687D01*
G01X84557Y65583D01*
G01X84557Y65480D01*
G01X84568Y65376D01*
G01X84588Y65275D01*
G01X84619Y65175D01*
G01X84659Y65080D01*
G01X84709Y64988D01*
G01X84767Y64903D01*
G01X84834Y64823D01*
G01X84908Y64751D01*
G01X84990Y64686D01*
G01X85077Y64630D01*
G01X85169Y64582D01*
G01X85266Y64544D01*
G01X85366Y64516D01*
G01X85468Y64498D01*
G01X85572Y64490D01*
G37*
G36*
G01X15801Y63893D02*
G01X16370Y63893D01*
G01X16370Y64462D01*
G01X16335Y64449D01*
G01X16243Y64401D01*
G01X16156Y64345D01*
G01X16074Y64280D01*
G01X16000Y64208D01*
G01X15933Y64128D01*
G01X15875Y64043D01*
G01X15825Y63951D01*
G01X15801Y63893D01*
G37*
G36*
G01X17157Y63893D02*
G01X17727Y63893D01*
G01X17723Y63904D01*
G01X17678Y63998D01*
G01X17624Y64086D01*
G01X17561Y64169D01*
G01X17491Y64245D01*
G01X17413Y64314D01*
G01X17328Y64374D01*
G01X17239Y64426D01*
G01X17157Y64463D01*
G01X17157Y63893D01*
G37*
G36*
G01X16370Y62537D02*
G01X16370Y63106D01*
G01X15801Y63106D01*
G01X15825Y63048D01*
G01X15875Y62956D01*
G01X15933Y62871D01*
G01X16000Y62791D01*
G01X16074Y62719D01*
G01X16156Y62654D01*
G01X16243Y62598D01*
G01X16335Y62550D01*
G01X16370Y62537D01*
G37*
G36*
G01X6743Y22658D02*
G01X6825Y22695D01*
G01X6914Y22747D01*
G01X6999Y22807D01*
G01X7077Y22876D01*
G01X7147Y22952D01*
G01X7210Y23035D01*
G01X7264Y23123D01*
G01X7309Y23217D01*
G01X7313Y23228D01*
G01X6743Y23228D01*
G01X6743Y22658D01*
G37*
G36*
G01X5956Y22659D02*
G01X5956Y23228D01*
G01X5387Y23228D01*
G01X5411Y23170D01*
G01X5461Y23078D01*
G01X5519Y22993D01*
G01X5586Y22913D01*
G01X5660Y22841D01*
G01X5742Y22776D01*
G01X5829Y22720D01*
G01X5921Y22672D01*
G01X5956Y22659D01*
G37*
G36*
G01X17157Y62536D02*
G01X17239Y62573D01*
G01X17328Y62625D01*
G01X17413Y62685D01*
G01X17491Y62754D01*
G01X17561Y62830D01*
G01X17624Y62913D01*
G01X17678Y63001D01*
G01X17723Y63095D01*
G01X17727Y63106D01*
G01X17157Y63106D01*
G01X17157Y62536D01*
G37*
G36*
G01X97510Y22834D02*
G01X97613Y22837D01*
G01X97716Y22850D01*
G01X97818Y22873D01*
G01X97916Y22906D01*
G01X98011Y22949D01*
G01X98100Y23001D01*
G01X98185Y23061D01*
G01X98263Y23130D01*
G01X98333Y23206D01*
G01X98396Y23289D01*
G01X98450Y23377D01*
G01X98495Y23471D01*
G01X98531Y23569D01*
G01X98556Y23669D01*
G01X98572Y23772D01*
G01X98577Y23876D01*
G01X98572Y23979D01*
G01X98556Y24082D01*
G01X98531Y24182D01*
G01X98495Y24280D01*
G01X98450Y24374D01*
G01X98396Y24462D01*
G01X98333Y24545D01*
G01X98263Y24621D01*
G01X98185Y24690D01*
G01X98100Y24750D01*
G01X98011Y24802D01*
G01X97916Y24845D01*
G01X97818Y24878D01*
G01X97716Y24901D01*
G01X97613Y24914D01*
G01X97510Y24917D01*
G01X97406Y24909D01*
G01X97304Y24891D01*
G01X97204Y24863D01*
G01X97107Y24825D01*
G01X97015Y24777D01*
G01X96928Y24721D01*
G01X96846Y24656D01*
G01X96772Y24584D01*
G01X96705Y24504D01*
G01X96647Y24419D01*
G01X96597Y24327D01*
G01X96557Y24232D01*
G01X96526Y24132D01*
G01X96506Y24031D01*
G01X96495Y23927D01*
G01X96495Y23824D01*
G01X96506Y23720D01*
G01X96526Y23619D01*
G01X96557Y23519D01*
G01X96597Y23424D01*
G01X96647Y23332D01*
G01X96705Y23247D01*
G01X96772Y23167D01*
G01X96846Y23095D01*
G01X96928Y23030D01*
G01X97015Y22974D01*
G01X97107Y22926D01*
G01X97204Y22888D01*
G01X97304Y22860D01*
G01X97406Y22842D01*
G01X97510Y22834D01*
G37*
G36*
G01X82095Y60845D02*
G01X82664Y60845D01*
G01X82664Y61414D01*
G01X82629Y61401D01*
G01X82537Y61353D01*
G01X82450Y61297D01*
G01X82368Y61232D01*
G01X82294Y61160D01*
G01X82227Y61080D01*
G01X82169Y60995D01*
G01X82119Y60903D01*
G01X82095Y60845D01*
G37*
G36*
G01X95389Y22912D02*
G01X95471Y22949D01*
G01X95560Y23001D01*
G01X95645Y23061D01*
G01X95723Y23130D01*
G01X95793Y23206D01*
G01X95856Y23289D01*
G01X95910Y23377D01*
G01X95955Y23471D01*
G01X95959Y23482D01*
G01X95389Y23482D01*
G01X95389Y22912D01*
G37*
G36*
G01X94602Y22913D02*
G01X94602Y23482D01*
G01X94033Y23482D01*
G01X94057Y23424D01*
G01X94107Y23332D01*
G01X94165Y23247D01*
G01X94232Y23167D01*
G01X94306Y23095D01*
G01X94388Y23030D01*
G01X94475Y22974D01*
G01X94567Y22926D01*
G01X94602Y22913D01*
G37*
G36*
G01X83451Y60845D02*
G01X84021Y60845D01*
G01X84017Y60856D01*
G01X83972Y60950D01*
G01X83918Y61038D01*
G01X83855Y61121D01*
G01X83785Y61197D01*
G01X83707Y61266D01*
G01X83622Y61326D01*
G01X83533Y61378D01*
G01X83451Y61415D01*
G01X83451Y60845D01*
G37*
G36*
G01X82664Y59489D02*
G01X82664Y60058D01*
G01X82095Y60058D01*
G01X82119Y60000D01*
G01X82169Y59908D01*
G01X82227Y59823D01*
G01X82294Y59743D01*
G01X82368Y59671D01*
G01X82450Y59606D01*
G01X82537Y59550D01*
G01X82629Y59502D01*
G01X82664Y59489D01*
G37*
G36*
G01X83451Y59488D02*
G01X83533Y59525D01*
G01X83622Y59577D01*
G01X83707Y59637D01*
G01X83785Y59706D01*
G01X83855Y59782D01*
G01X83918Y59865D01*
G01X83972Y59953D01*
G01X84017Y60047D01*
G01X84021Y60058D01*
G01X83451Y60058D01*
G01X83451Y59488D01*
G37*
G36*
G01X85572Y59410D02*
G01X85675Y59413D01*
G01X85778Y59426D01*
G01X85880Y59449D01*
G01X85978Y59482D01*
G01X86073Y59525D01*
G01X86162Y59577D01*
G01X86247Y59637D01*
G01X86325Y59706D01*
G01X86395Y59782D01*
G01X86458Y59865D01*
G01X86512Y59953D01*
G01X86557Y60047D01*
G01X86593Y60145D01*
G01X86618Y60245D01*
G01X86634Y60348D01*
G01X86639Y60452D01*
G01X86634Y60555D01*
G01X86618Y60658D01*
G01X86593Y60758D01*
G01X86557Y60856D01*
G01X86512Y60950D01*
G01X86458Y61038D01*
G01X86395Y61121D01*
G01X86325Y61197D01*
G01X86247Y61266D01*
G01X86162Y61326D01*
G01X86073Y61378D01*
G01X85978Y61421D01*
G01X85880Y61454D01*
G01X85778Y61477D01*
G01X85675Y61490D01*
G01X85572Y61493D01*
G01X85468Y61485D01*
G01X85366Y61467D01*
G01X85266Y61439D01*
G01X85169Y61401D01*
G01X85077Y61353D01*
G01X84990Y61297D01*
G01X84908Y61232D01*
G01X84834Y61160D01*
G01X84767Y61080D01*
G01X84709Y60995D01*
G01X84659Y60903D01*
G01X84619Y60808D01*
G01X84588Y60708D01*
G01X84568Y60607D01*
G01X84557Y60503D01*
G01X84557Y60400D01*
G01X84568Y60296D01*
G01X84588Y60195D01*
G01X84619Y60095D01*
G01X84659Y60000D01*
G01X84709Y59908D01*
G01X84767Y59823D01*
G01X84834Y59743D01*
G01X84908Y59671D01*
G01X84990Y59606D01*
G01X85077Y59550D01*
G01X85169Y59502D01*
G01X85266Y59464D01*
G01X85366Y59436D01*
G01X85468Y59418D01*
G01X85572Y59410D01*
G37*
G36*
G01X15801Y58813D02*
G01X16370Y58813D01*
G01X16370Y59382D01*
G01X16335Y59369D01*
G01X16243Y59321D01*
G01X16156Y59265D01*
G01X16074Y59200D01*
G01X16000Y59128D01*
G01X15933Y59048D01*
G01X15875Y58963D01*
G01X15825Y58871D01*
G01X15801Y58813D01*
G37*
G36*
G01X17157Y58813D02*
G01X17727Y58813D01*
G01X17723Y58824D01*
G01X17678Y58918D01*
G01X17624Y59006D01*
G01X17561Y59089D01*
G01X17491Y59165D01*
G01X17413Y59234D01*
G01X17328Y59294D01*
G01X17239Y59346D01*
G01X17157Y59383D01*
G01X17157Y58813D01*
G37*
G36*
G01X16370Y57457D02*
G01X16370Y58026D01*
G01X15801Y58026D01*
G01X15825Y57968D01*
G01X15875Y57876D01*
G01X15933Y57791D01*
G01X16000Y57711D01*
G01X16074Y57639D01*
G01X16156Y57574D01*
G01X16243Y57518D01*
G01X16335Y57470D01*
G01X16370Y57457D01*
G37*
G36*
G01X17157Y57456D02*
G01X17239Y57493D01*
G01X17328Y57545D01*
G01X17413Y57605D01*
G01X17491Y57674D01*
G01X17561Y57750D01*
G01X17624Y57833D01*
G01X17678Y57921D01*
G01X17723Y58015D01*
G01X17727Y58026D01*
G01X17157Y58026D01*
G01X17157Y57456D01*
G37*
G36*
G01X6743Y24015D02*
G01X7313Y24015D01*
G01X7309Y24026D01*
G01X7264Y24120D01*
G01X7210Y24208D01*
G01X7147Y24291D01*
G01X7077Y24367D01*
G01X6999Y24436D01*
G01X6914Y24496D01*
G01X6825Y24548D01*
G01X6743Y24585D01*
G01X6743Y24015D01*
G37*
G36*
G01X5387Y24015D02*
G01X5956Y24015D01*
G01X5956Y24584D01*
G01X5921Y24571D01*
G01X5829Y24523D01*
G01X5742Y24467D01*
G01X5660Y24402D01*
G01X5586Y24330D01*
G01X5519Y24250D01*
G01X5461Y24165D01*
G01X5411Y24073D01*
G01X5387Y24015D01*
G37*
G36*
G01X95389Y24269D02*
G01X95959Y24269D01*
G01X95955Y24280D01*
G01X95910Y24374D01*
G01X95856Y24462D01*
G01X95793Y24545D01*
G01X95723Y24621D01*
G01X95645Y24690D01*
G01X95560Y24750D01*
G01X95471Y24802D01*
G01X95389Y24839D01*
G01X95389Y24269D01*
G37*
G36*
G01X94033Y24269D02*
G01X94602Y24269D01*
G01X94602Y24838D01*
G01X94567Y24825D01*
G01X94475Y24777D01*
G01X94388Y24721D01*
G01X94306Y24656D01*
G01X94232Y24584D01*
G01X94165Y24504D01*
G01X94107Y24419D01*
G01X94057Y24327D01*
G01X94033Y24269D01*
G37*
G36*
G01X82095Y55765D02*
G01X82664Y55765D01*
G01X82664Y56334D01*
G01X82629Y56321D01*
G01X82537Y56273D01*
G01X82450Y56217D01*
G01X82368Y56152D01*
G01X82294Y56080D01*
G01X82227Y56000D01*
G01X82169Y55915D01*
G01X82119Y55823D01*
G01X82095Y55765D01*
G37*
G36*
G01X83451Y55765D02*
G01X84021Y55765D01*
G01X84017Y55776D01*
G01X83972Y55870D01*
G01X83918Y55958D01*
G01X83855Y56041D01*
G01X83785Y56117D01*
G01X83707Y56186D01*
G01X83622Y56246D01*
G01X83533Y56298D01*
G01X83451Y56335D01*
G01X83451Y55765D01*
G37*
G36*
G01X82664Y54409D02*
G01X82664Y54978D01*
G01X82095Y54978D01*
G01X82119Y54920D01*
G01X82169Y54828D01*
G01X82227Y54743D01*
G01X82294Y54663D01*
G01X82368Y54591D01*
G01X82450Y54526D01*
G01X82537Y54470D01*
G01X82629Y54422D01*
G01X82664Y54409D01*
G37*
G36*
G01X8864Y27660D02*
G01X8967Y27663D01*
G01X9070Y27676D01*
G01X9172Y27699D01*
G01X9270Y27732D01*
G01X9365Y27775D01*
G01X9454Y27827D01*
G01X9539Y27887D01*
G01X9617Y27956D01*
G01X9687Y28032D01*
G01X9750Y28115D01*
G01X9804Y28203D01*
G01X9849Y28297D01*
G01X9885Y28395D01*
G01X9910Y28495D01*
G01X9926Y28598D01*
G01X9931Y28702D01*
G01X9926Y28805D01*
G01X9910Y28908D01*
G01X9885Y29008D01*
G01X9849Y29106D01*
G01X9804Y29200D01*
G01X9750Y29288D01*
G01X9687Y29371D01*
G01X9617Y29447D01*
G01X9539Y29516D01*
G01X9454Y29576D01*
G01X9365Y29628D01*
G01X9270Y29671D01*
G01X9172Y29704D01*
G01X9070Y29727D01*
G01X8967Y29740D01*
G01X8864Y29743D01*
G01X8760Y29735D01*
G01X8658Y29717D01*
G01X8558Y29689D01*
G01X8461Y29651D01*
G01X8369Y29603D01*
G01X8282Y29547D01*
G01X8200Y29482D01*
G01X8126Y29410D01*
G01X8059Y29330D01*
G01X8001Y29245D01*
G01X7951Y29153D01*
G01X7911Y29058D01*
G01X7880Y28958D01*
G01X7860Y28857D01*
G01X7849Y28753D01*
G01X7849Y28650D01*
G01X7860Y28546D01*
G01X7880Y28445D01*
G01X7911Y28345D01*
G01X7951Y28250D01*
G01X8001Y28158D01*
G01X8059Y28073D01*
G01X8126Y27993D01*
G01X8200Y27921D01*
G01X8282Y27856D01*
G01X8369Y27800D01*
G01X8461Y27752D01*
G01X8558Y27714D01*
G01X8658Y27686D01*
G01X8760Y27668D01*
G01X8864Y27660D01*
G37*
G36*
G01X6743Y27738D02*
G01X6825Y27775D01*
G01X6914Y27827D01*
G01X6999Y27887D01*
G01X7077Y27956D01*
G01X7147Y28032D01*
G01X7210Y28115D01*
G01X7264Y28203D01*
G01X7309Y28297D01*
G01X7313Y28308D01*
G01X6743Y28308D01*
G01X6743Y27738D01*
G37*
G36*
G01X5956Y27739D02*
G01X5956Y28308D01*
G01X5387Y28308D01*
G01X5411Y28250D01*
G01X5461Y28158D01*
G01X5519Y28073D01*
G01X5586Y27993D01*
G01X5660Y27921D01*
G01X5742Y27856D01*
G01X5829Y27800D01*
G01X5921Y27752D01*
G01X5956Y27739D01*
G37*
G36*
G01X83451Y54408D02*
G01X83533Y54445D01*
G01X83622Y54497D01*
G01X83707Y54557D01*
G01X83785Y54626D01*
G01X83855Y54702D01*
G01X83918Y54785D01*
G01X83972Y54873D01*
G01X84017Y54967D01*
G01X84021Y54978D01*
G01X83451Y54978D01*
G01X83451Y54408D01*
G37*
G36*
G01X97510Y27914D02*
G01X97613Y27917D01*
G01X97716Y27930D01*
G01X97818Y27953D01*
G01X97916Y27986D01*
G01X98011Y28029D01*
G01X98100Y28081D01*
G01X98185Y28141D01*
G01X98263Y28210D01*
G01X98333Y28286D01*
G01X98396Y28369D01*
G01X98450Y28457D01*
G01X98495Y28551D01*
G01X98531Y28649D01*
G01X98556Y28749D01*
G01X98572Y28852D01*
G01X98577Y28956D01*
G01X98572Y29059D01*
G01X98556Y29162D01*
G01X98531Y29262D01*
G01X98495Y29360D01*
G01X98450Y29454D01*
G01X98396Y29542D01*
G01X98333Y29625D01*
G01X98263Y29701D01*
G01X98185Y29770D01*
G01X98100Y29830D01*
G01X98011Y29882D01*
G01X97916Y29925D01*
G01X97818Y29958D01*
G01X97716Y29981D01*
G01X97613Y29994D01*
G01X97510Y29997D01*
G01X97406Y29989D01*
G01X97304Y29971D01*
G01X97204Y29943D01*
G01X97107Y29905D01*
G01X97015Y29857D01*
G01X96928Y29801D01*
G01X96846Y29736D01*
G01X96772Y29664D01*
G01X96705Y29584D01*
G01X96647Y29499D01*
G01X96597Y29407D01*
G01X96557Y29312D01*
G01X96526Y29212D01*
G01X96506Y29111D01*
G01X96495Y29007D01*
G01X96495Y28904D01*
G01X96506Y28800D01*
G01X96526Y28699D01*
G01X96557Y28599D01*
G01X96597Y28504D01*
G01X96647Y28412D01*
G01X96705Y28327D01*
G01X96772Y28247D01*
G01X96846Y28175D01*
G01X96928Y28110D01*
G01X97015Y28054D01*
G01X97107Y28006D01*
G01X97204Y27968D01*
G01X97304Y27940D01*
G01X97406Y27922D01*
G01X97510Y27914D01*
G37*
G36*
G01X95389Y27992D02*
G01X95471Y28029D01*
G01X95560Y28081D01*
G01X95645Y28141D01*
G01X95723Y28210D01*
G01X95793Y28286D01*
G01X95856Y28369D01*
G01X95910Y28457D01*
G01X95955Y28551D01*
G01X95959Y28562D01*
G01X95389Y28562D01*
G01X95389Y27992D01*
G37*
G36*
G01X94602Y27993D02*
G01X94602Y28562D01*
G01X94033Y28562D01*
G01X94057Y28504D01*
G01X94107Y28412D01*
G01X94165Y28327D01*
G01X94232Y28247D01*
G01X94306Y28175D01*
G01X94388Y28110D01*
G01X94475Y28054D01*
G01X94567Y28006D01*
G01X94602Y27993D01*
G37*
G36*
G01X6743Y29095D02*
G01X7313Y29095D01*
G01X7309Y29106D01*
G01X7264Y29200D01*
G01X7210Y29288D01*
G01X7147Y29371D01*
G01X7077Y29447D01*
G01X6999Y29516D01*
G01X6914Y29576D01*
G01X6825Y29628D01*
G01X6743Y29665D01*
G01X6743Y29095D01*
G37*
G36*
G01X5387Y29095D02*
G01X5956Y29095D01*
G01X5956Y29664D01*
G01X5921Y29651D01*
G01X5829Y29603D01*
G01X5742Y29547D01*
G01X5660Y29482D01*
G01X5586Y29410D01*
G01X5519Y29330D01*
G01X5461Y29245D01*
G01X5411Y29153D01*
G01X5387Y29095D01*
G37*
G36*
G01X95389Y29349D02*
G01X95959Y29349D01*
G01X95955Y29360D01*
G01X95910Y29454D01*
G01X95856Y29542D01*
G01X95793Y29625D01*
G01X95723Y29701D01*
G01X95645Y29770D01*
G01X95560Y29830D01*
G01X95471Y29882D01*
G01X95389Y29919D01*
G01X95389Y29349D01*
G37*
G36*
G01X94033Y29349D02*
G01X94602Y29349D01*
G01X94602Y29918D01*
G01X94567Y29905D01*
G01X94475Y29857D01*
G01X94388Y29801D01*
G01X94306Y29736D01*
G01X94232Y29664D01*
G01X94165Y29584D01*
G01X94107Y29499D01*
G01X94057Y29407D01*
G01X94033Y29349D01*
G37*
G36*
G01X85572Y54330D02*
G01X85675Y54333D01*
G01X85778Y54346D01*
G01X85880Y54369D01*
G01X85978Y54402D01*
G01X86073Y54445D01*
G01X86162Y54497D01*
G01X86247Y54557D01*
G01X86325Y54626D01*
G01X86395Y54702D01*
G01X86458Y54785D01*
G01X86512Y54873D01*
G01X86557Y54967D01*
G01X86593Y55065D01*
G01X86618Y55165D01*
G01X86634Y55268D01*
G01X86639Y55372D01*
G01X86634Y55475D01*
G01X86618Y55578D01*
G01X86593Y55678D01*
G01X86557Y55776D01*
G01X86512Y55870D01*
G01X86458Y55958D01*
G01X86395Y56041D01*
G01X86325Y56117D01*
G01X86247Y56186D01*
G01X86162Y56246D01*
G01X86073Y56298D01*
G01X85978Y56341D01*
G01X85880Y56374D01*
G01X85778Y56397D01*
G01X85675Y56410D01*
G01X85572Y56413D01*
G01X85468Y56405D01*
G01X85366Y56387D01*
G01X85266Y56359D01*
G01X85169Y56321D01*
G01X85077Y56273D01*
G01X84990Y56217D01*
G01X84908Y56152D01*
G01X84834Y56080D01*
G01X84767Y56000D01*
G01X84709Y55915D01*
G01X84659Y55823D01*
G01X84619Y55728D01*
G01X84588Y55628D01*
G01X84568Y55527D01*
G01X84557Y55423D01*
G01X84557Y55320D01*
G01X84568Y55216D01*
G01X84588Y55115D01*
G01X84619Y55015D01*
G01X84659Y54920D01*
G01X84709Y54828D01*
G01X84767Y54743D01*
G01X84834Y54663D01*
G01X84908Y54591D01*
G01X84990Y54526D01*
G01X85077Y54470D01*
G01X85169Y54422D01*
G01X85266Y54384D01*
G01X85366Y54356D01*
G01X85468Y54338D01*
G01X85572Y54330D01*
G37*
G36*
G01X15801Y53733D02*
G01X16370Y53733D01*
G01X16370Y54302D01*
G01X16335Y54289D01*
G01X16243Y54241D01*
G01X16156Y54185D01*
G01X16074Y54120D01*
G01X16000Y54048D01*
G01X15933Y53968D01*
G01X15875Y53883D01*
G01X15825Y53791D01*
G01X15801Y53733D01*
G37*
G36*
G01X17157Y53733D02*
G01X17727Y53733D01*
G01X17723Y53744D01*
G01X17678Y53838D01*
G01X17624Y53926D01*
G01X17561Y54009D01*
G01X17491Y54085D01*
G01X17413Y54154D01*
G01X17328Y54214D01*
G01X17239Y54266D01*
G01X17157Y54303D01*
G01X17157Y53733D01*
G37*
G36*
G01X16370Y52377D02*
G01X16370Y52946D01*
G01X15801Y52946D01*
G01X15825Y52888D01*
G01X15875Y52796D01*
G01X15933Y52711D01*
G01X16000Y52631D01*
G01X16074Y52559D01*
G01X16156Y52494D01*
G01X16243Y52438D01*
G01X16335Y52390D01*
G01X16370Y52377D01*
G37*
G36*
G01X17157Y52376D02*
G01X17239Y52413D01*
G01X17328Y52465D01*
G01X17413Y52525D01*
G01X17491Y52594D01*
G01X17561Y52670D01*
G01X17624Y52753D01*
G01X17678Y52841D01*
G01X17723Y52935D01*
G01X17727Y52946D01*
G01X17157Y52946D01*
G01X17157Y52376D01*
G37*
G36*
G01X88366Y34518D02*
G01X89941Y34518D01*
G01X89951Y34518D01*
G01X89962Y34519D01*
G01X89972Y34520D01*
G01X89983Y34522D01*
G01X89993Y34524D01*
G01X90003Y34526D01*
G01X90013Y34529D01*
G01X90023Y34532D01*
G01X90033Y34535D01*
G01X90043Y34539D01*
G01X90052Y34544D01*
G01X90062Y34549D01*
G01X90071Y34554D01*
G01X90080Y34559D01*
G01X90088Y34565D01*
G01X90097Y34572D01*
G01X90105Y34578D01*
G01X90113Y34585D01*
G01X90121Y34592D01*
G01X90128Y34600D01*
G01X90135Y34608D01*
G01X90141Y34616D01*
G01X90148Y34625D01*
G01X90154Y34633D01*
G01X90159Y34642D01*
G01X90164Y34651D01*
G01X90169Y34661D01*
G01X90174Y34670D01*
G01X90178Y34680D01*
G01X90181Y34690D01*
G01X90184Y34700D01*
G01X90187Y34710D01*
G01X90189Y34720D01*
G01X90191Y34730D01*
G01X90193Y34741D01*
G01X90194Y34751D01*
G01X90195Y34762D01*
G01X90195Y34772D01*
G01X90195Y36347D01*
G01X90195Y36357D01*
G01X90194Y36368D01*
G01X90193Y36378D01*
G01X90191Y36389D01*
G01X90189Y36399D01*
G01X90187Y36409D01*
G01X90184Y36419D01*
G01X90181Y36429D01*
G01X90178Y36439D01*
G01X90174Y36449D01*
G01X90169Y36458D01*
G01X90164Y36468D01*
G01X90159Y36477D01*
G01X90154Y36486D01*
G01X90148Y36494D01*
G01X90141Y36503D01*
G01X90135Y36511D01*
G01X90128Y36519D01*
G01X90121Y36527D01*
G01X90113Y36534D01*
G01X90105Y36541D01*
G01X90097Y36547D01*
G01X90088Y36554D01*
G01X90080Y36560D01*
G01X90071Y36565D01*
G01X90062Y36570D01*
G01X90052Y36575D01*
G01X90043Y36580D01*
G01X90033Y36584D01*
G01X90023Y36587D01*
G01X90013Y36590D01*
G01X90003Y36593D01*
G01X89993Y36595D01*
G01X89983Y36597D01*
G01X89972Y36599D01*
G01X89962Y36600D01*
G01X89951Y36601D01*
G01X89941Y36601D01*
G01X88366Y36601D01*
G01X88356Y36601D01*
G01X88345Y36600D01*
G01X88335Y36599D01*
G01X88324Y36597D01*
G01X88314Y36595D01*
G01X88304Y36593D01*
G01X88294Y36590D01*
G01X88284Y36587D01*
G01X88274Y36584D01*
G01X88264Y36580D01*
G01X88255Y36575D01*
G01X88245Y36570D01*
G01X88236Y36565D01*
G01X88227Y36560D01*
G01X88219Y36554D01*
G01X88210Y36547D01*
G01X88202Y36541D01*
G01X88194Y36534D01*
G01X88186Y36527D01*
G01X88179Y36519D01*
G01X88172Y36511D01*
G01X88166Y36503D01*
G01X88159Y36494D01*
G01X88153Y36486D01*
G01X88148Y36477D01*
G01X88143Y36468D01*
G01X88138Y36458D01*
G01X88133Y36449D01*
G01X88129Y36439D01*
G01X88126Y36429D01*
G01X88123Y36419D01*
G01X88120Y36409D01*
G01X88118Y36399D01*
G01X88116Y36389D01*
G01X88114Y36378D01*
G01X88113Y36368D01*
G01X88112Y36357D01*
G01X88112Y36347D01*
G01X88112Y34772D01*
G01X88112Y34762D01*
G01X88113Y34751D01*
G01X88114Y34741D01*
G01X88116Y34730D01*
G01X88118Y34720D01*
G01X88120Y34710D01*
G01X88123Y34700D01*
G01X88126Y34690D01*
G01X88129Y34680D01*
G01X88133Y34670D01*
G01X88138Y34661D01*
G01X88143Y34651D01*
G01X88148Y34642D01*
G01X88153Y34633D01*
G01X88159Y34625D01*
G01X88166Y34616D01*
G01X88172Y34608D01*
G01X88179Y34600D01*
G01X88186Y34592D01*
G01X88194Y34585D01*
G01X88202Y34578D01*
G01X88210Y34572D01*
G01X88219Y34565D01*
G01X88227Y34559D01*
G01X88236Y34554D01*
G01X88245Y34549D01*
G01X88255Y34544D01*
G01X88264Y34539D01*
G01X88274Y34535D01*
G01X88284Y34532D01*
G01X88294Y34529D01*
G01X88304Y34526D01*
G01X88314Y34524D01*
G01X88324Y34522D01*
G01X88335Y34520D01*
G01X88345Y34519D01*
G01X88356Y34518D01*
G01X88366Y34518D01*
G37*
G36*
G01X96748Y34518D02*
G01X96851Y34521D01*
G01X96954Y34534D01*
G01X97056Y34557D01*
G01X97154Y34590D01*
G01X97249Y34633D01*
G01X97338Y34685D01*
G01X97423Y34745D01*
G01X97501Y34814D01*
G01X97571Y34890D01*
G01X97634Y34973D01*
G01X97688Y35061D01*
G01X97733Y35155D01*
G01X97769Y35253D01*
G01X97794Y35353D01*
G01X97810Y35456D01*
G01X97815Y35560D01*
G01X97810Y35663D01*
G01X97794Y35766D01*
G01X97769Y35866D01*
G01X97733Y35964D01*
G01X97688Y36058D01*
G01X97634Y36146D01*
G01X97571Y36229D01*
G01X97501Y36305D01*
G01X97423Y36374D01*
G01X97338Y36434D01*
G01X97249Y36486D01*
G01X97154Y36529D01*
G01X97056Y36562D01*
G01X96954Y36585D01*
G01X96851Y36598D01*
G01X96748Y36601D01*
G01X96644Y36593D01*
G01X96542Y36575D01*
G01X96442Y36547D01*
G01X96345Y36509D01*
G01X96253Y36461D01*
G01X96166Y36405D01*
G01X96084Y36340D01*
G01X96010Y36268D01*
G01X95943Y36188D01*
G01X95885Y36103D01*
G01X95835Y36011D01*
G01X95795Y35916D01*
G01X95764Y35816D01*
G01X95744Y35715D01*
G01X95733Y35611D01*
G01X95733Y35508D01*
G01X95744Y35404D01*
G01X95764Y35303D01*
G01X95795Y35203D01*
G01X95835Y35108D01*
G01X95885Y35016D01*
G01X95943Y34931D01*
G01X96010Y34851D01*
G01X96084Y34779D01*
G01X96166Y34714D01*
G01X96253Y34658D01*
G01X96345Y34610D01*
G01X96442Y34572D01*
G01X96542Y34544D01*
G01X96644Y34526D01*
G01X96748Y34518D01*
G37*
G36*
G01X94208Y34518D02*
G01X94311Y34521D01*
G01X94414Y34534D01*
G01X94516Y34557D01*
G01X94614Y34590D01*
G01X94709Y34633D01*
G01X94798Y34685D01*
G01X94883Y34745D01*
G01X94961Y34814D01*
G01X95031Y34890D01*
G01X95094Y34973D01*
G01X95148Y35061D01*
G01X95193Y35155D01*
G01X95229Y35253D01*
G01X95254Y35353D01*
G01X95270Y35456D01*
G01X95275Y35560D01*
G01X95270Y35663D01*
G01X95254Y35766D01*
G01X95229Y35866D01*
G01X95193Y35964D01*
G01X95148Y36058D01*
G01X95094Y36146D01*
G01X95031Y36229D01*
G01X94961Y36305D01*
G01X94883Y36374D01*
G01X94798Y36434D01*
G01X94709Y36486D01*
G01X94614Y36529D01*
G01X94516Y36562D01*
G01X94414Y36585D01*
G01X94311Y36598D01*
G01X94208Y36601D01*
G01X94104Y36593D01*
G01X94002Y36575D01*
G01X93902Y36547D01*
G01X93805Y36509D01*
G01X93713Y36461D01*
G01X93626Y36405D01*
G01X93544Y36340D01*
G01X93470Y36268D01*
G01X93403Y36188D01*
G01X93345Y36103D01*
G01X93295Y36011D01*
G01X93255Y35916D01*
G01X93224Y35816D01*
G01X93204Y35715D01*
G01X93193Y35611D01*
G01X93193Y35508D01*
G01X93204Y35404D01*
G01X93224Y35303D01*
G01X93255Y35203D01*
G01X93295Y35108D01*
G01X93345Y35016D01*
G01X93403Y34931D01*
G01X93470Y34851D01*
G01X93544Y34779D01*
G01X93626Y34714D01*
G01X93713Y34658D01*
G01X93805Y34610D01*
G01X93902Y34572D01*
G01X94002Y34544D01*
G01X94104Y34526D01*
G01X94208Y34518D01*
G37*
G36*
G01X43659Y51689D02*
G01X43773Y51692D01*
G01X43886Y51706D01*
G01X43997Y51731D01*
G01X44105Y51768D01*
G01X44209Y51814D01*
G01X44308Y51871D01*
G01X44400Y51938D01*
G01X44486Y52013D01*
G01X44563Y52097D01*
G01X44632Y52188D01*
G01X44691Y52285D01*
G01X44741Y52388D01*
G01X44780Y52495D01*
G01X44808Y52605D01*
G01X44825Y52718D01*
G01X44831Y52832D01*
G01X44825Y52945D01*
G01X44808Y53058D01*
G01X44780Y53168D01*
G01X44741Y53275D01*
G01X44691Y53378D01*
G01X44632Y53475D01*
G01X44563Y53566D01*
G01X44486Y53650D01*
G01X44400Y53725D01*
G01X44308Y53792D01*
G01X44209Y53849D01*
G01X44105Y53895D01*
G01X43997Y53932D01*
G01X43886Y53957D01*
G01X43773Y53971D01*
G01X43659Y53974D01*
G01X43545Y53966D01*
G01X43433Y53946D01*
G01X43323Y53915D01*
G01X43217Y53873D01*
G01X43172Y53850D01*
G01X38351Y58671D01*
G01X38342Y58680D01*
G01X38332Y58688D01*
G01X38323Y58696D01*
G01X38313Y58704D01*
G01X38302Y58712D01*
G01X38292Y58719D01*
G01X38281Y58725D01*
G01X38270Y58732D01*
G01X38259Y58737D01*
G01X38247Y58743D01*
G01X38236Y58748D01*
G01X38224Y58753D01*
G01X38212Y58757D01*
G01X38200Y58761D01*
G01X38187Y58764D01*
G01X38175Y58767D01*
G01X38163Y58769D01*
G01X38150Y58771D01*
G01X38137Y58773D01*
G01X38125Y58774D01*
G01X38112Y58775D01*
G01X38100Y58775D01*
G01X20281Y58775D01*
G01X20263Y58824D01*
G01X20218Y58918D01*
G01X20164Y59006D01*
G01X20101Y59089D01*
G01X20031Y59165D01*
G01X19953Y59234D01*
G01X19868Y59294D01*
G01X19779Y59346D01*
G01X19684Y59389D01*
G01X19586Y59422D01*
G01X19484Y59445D01*
G01X19381Y59458D01*
G01X19278Y59461D01*
G01X19174Y59453D01*
G01X19072Y59435D01*
G01X18972Y59407D01*
G01X18875Y59369D01*
G01X18783Y59321D01*
G01X18696Y59265D01*
G01X18614Y59200D01*
G01X18540Y59128D01*
G01X18473Y59048D01*
G01X18415Y58963D01*
G01X18365Y58871D01*
G01X18325Y58776D01*
G01X18294Y58676D01*
G01X18274Y58575D01*
G01X18263Y58471D01*
G01X18263Y58368D01*
G01X18274Y58264D01*
G01X18294Y58163D01*
G01X18325Y58063D01*
G01X18365Y57968D01*
G01X18415Y57876D01*
G01X18473Y57791D01*
G01X18540Y57711D01*
G01X18614Y57639D01*
G01X18696Y57574D01*
G01X18783Y57518D01*
G01X18875Y57470D01*
G01X18972Y57432D01*
G01X19072Y57404D01*
G01X19174Y57386D01*
G01X19278Y57378D01*
G01X19381Y57381D01*
G01X19484Y57394D01*
G01X19586Y57417D01*
G01X19684Y57450D01*
G01X19779Y57493D01*
G01X19868Y57545D01*
G01X19953Y57605D01*
G01X20031Y57674D01*
G01X20101Y57750D01*
G01X20164Y57833D01*
G01X20218Y57921D01*
G01X20263Y58015D01*
G01X20281Y58064D01*
G01X37952Y58064D01*
G01X42669Y53348D01*
G01X42658Y53327D01*
G01X42613Y53222D01*
G01X42580Y53114D01*
G01X42557Y53002D01*
G01X42546Y52888D01*
G01X42546Y52775D01*
G01X42557Y52661D01*
G01X42580Y52549D01*
G01X42613Y52441D01*
G01X42658Y52336D01*
G01X42712Y52235D01*
G01X42776Y52141D01*
G01X42850Y52054D01*
G01X42931Y51975D01*
G01X43020Y51903D01*
G01X43116Y51842D01*
G01X43217Y51790D01*
G01X43323Y51748D01*
G01X43433Y51717D01*
G01X43545Y51697D01*
G01X43659Y51689D01*
G37*
G36*
G01X91428Y43168D02*
G01X92261Y43168D01*
G01X92218Y43256D01*
G01X92127Y43406D01*
G01X92021Y43545D01*
G01X91902Y43673D01*
G01X91771Y43789D01*
G01X91629Y43891D01*
G01X91478Y43978D01*
G01X91428Y44001D01*
G01X91428Y43168D01*
G37*
G36*
G01X20548Y35788D02*
G01X20651Y35791D01*
G01X20754Y35804D01*
G01X20856Y35827D01*
G01X20954Y35860D01*
G01X21049Y35903D01*
G01X21138Y35955D01*
G01X21223Y36015D01*
G01X21301Y36084D01*
G01X21371Y36160D01*
G01X21434Y36243D01*
G01X21488Y36331D01*
G01X21533Y36425D01*
G01X21569Y36523D01*
G01X21594Y36623D01*
G01X21610Y36726D01*
G01X21615Y36830D01*
G01X21610Y36933D01*
G01X21594Y37036D01*
G01X21569Y37136D01*
G01X21533Y37234D01*
G01X21488Y37328D01*
G01X21434Y37416D01*
G01X21371Y37499D01*
G01X21301Y37575D01*
G01X21223Y37644D01*
G01X21138Y37704D01*
G01X21049Y37756D01*
G01X20954Y37799D01*
G01X20929Y37807D01*
G01X20929Y45920D01*
G01X20929Y45933D01*
G01X20928Y45946D01*
G01X20927Y45958D01*
G01X20925Y45971D01*
G01X20923Y45983D01*
G01X20921Y45996D01*
G01X20918Y46008D01*
G01X20915Y46020D01*
G01X20911Y46032D01*
G01X20907Y46044D01*
G01X20902Y46056D01*
G01X20897Y46068D01*
G01X20891Y46079D01*
G01X20886Y46091D01*
G01X20879Y46102D01*
G01X20873Y46112D01*
G01X20866Y46123D01*
G01X20858Y46133D01*
G01X20850Y46143D01*
G01X20842Y46153D01*
G01X20834Y46162D01*
G01X20825Y46172D01*
G01X14698Y52298D01*
G01X15011Y52298D01*
G01X15021Y52298D01*
G01X15032Y52299D01*
G01X15042Y52300D01*
G01X15053Y52302D01*
G01X15063Y52304D01*
G01X15073Y52306D01*
G01X15083Y52309D01*
G01X15093Y52312D01*
G01X15103Y52315D01*
G01X15113Y52319D01*
G01X15122Y52324D01*
G01X15132Y52329D01*
G01X15141Y52334D01*
G01X15150Y52339D01*
G01X15158Y52345D01*
G01X15167Y52352D01*
G01X15175Y52358D01*
G01X15183Y52365D01*
G01X15191Y52372D01*
G01X15198Y52380D01*
G01X15205Y52388D01*
G01X15211Y52396D01*
G01X15218Y52405D01*
G01X15224Y52413D01*
G01X15229Y52422D01*
G01X15234Y52431D01*
G01X15239Y52441D01*
G01X15244Y52450D01*
G01X15248Y52460D01*
G01X15251Y52470D01*
G01X15254Y52480D01*
G01X15257Y52490D01*
G01X15259Y52500D01*
G01X15261Y52510D01*
G01X15263Y52521D01*
G01X15264Y52531D01*
G01X15265Y52542D01*
G01X15265Y52552D01*
G01X15265Y54127D01*
G01X15265Y54137D01*
G01X15264Y54148D01*
G01X15263Y54158D01*
G01X15261Y54169D01*
G01X15259Y54179D01*
G01X15257Y54189D01*
G01X15254Y54199D01*
G01X15251Y54209D01*
G01X15248Y54219D01*
G01X15244Y54229D01*
G01X15239Y54238D01*
G01X15234Y54248D01*
G01X15229Y54257D01*
G01X15224Y54266D01*
G01X15218Y54274D01*
G01X15211Y54283D01*
G01X15205Y54291D01*
G01X15198Y54299D01*
G01X15191Y54307D01*
G01X15183Y54314D01*
G01X15175Y54321D01*
G01X15167Y54327D01*
G01X15158Y54334D01*
G01X15150Y54340D01*
G01X15141Y54345D01*
G01X15132Y54350D01*
G01X15122Y54355D01*
G01X15113Y54360D01*
G01X15103Y54364D01*
G01X15093Y54367D01*
G01X15083Y54370D01*
G01X15073Y54373D01*
G01X15063Y54375D01*
G01X15053Y54377D01*
G01X15042Y54379D01*
G01X15032Y54380D01*
G01X15021Y54381D01*
G01X15011Y54381D01*
G01X14579Y54381D01*
G01X14579Y57378D01*
G01X15011Y57378D01*
G01X15021Y57378D01*
G01X15032Y57379D01*
G01X15042Y57380D01*
G01X15053Y57382D01*
G01X15063Y57384D01*
G01X15073Y57386D01*
G01X15083Y57389D01*
G01X15093Y57392D01*
G01X15103Y57395D01*
G01X15113Y57399D01*
G01X15122Y57404D01*
G01X15132Y57409D01*
G01X15141Y57414D01*
G01X15150Y57419D01*
G01X15158Y57425D01*
G01X15167Y57432D01*
G01X15175Y57438D01*
G01X15183Y57445D01*
G01X15191Y57452D01*
G01X15198Y57460D01*
G01X15205Y57468D01*
G01X15211Y57476D01*
G01X15218Y57485D01*
G01X15224Y57493D01*
G01X15229Y57502D01*
G01X15234Y57511D01*
G01X15239Y57521D01*
G01X15244Y57530D01*
G01X15248Y57540D01*
G01X15251Y57550D01*
G01X15254Y57560D01*
G01X15257Y57570D01*
G01X15259Y57580D01*
G01X15261Y57590D01*
G01X15263Y57601D01*
G01X15264Y57611D01*
G01X15265Y57622D01*
G01X15265Y57632D01*
G01X15265Y59207D01*
G01X15265Y59217D01*
G01X15264Y59228D01*
G01X15263Y59238D01*
G01X15261Y59249D01*
G01X15259Y59259D01*
G01X15257Y59269D01*
G01X15254Y59279D01*
G01X15251Y59289D01*
G01X15248Y59299D01*
G01X15244Y59309D01*
G01X15239Y59318D01*
G01X15234Y59328D01*
G01X15229Y59337D01*
G01X15224Y59346D01*
G01X15218Y59354D01*
G01X15211Y59363D01*
G01X15205Y59371D01*
G01X15198Y59379D01*
G01X15191Y59387D01*
G01X15183Y59394D01*
G01X15175Y59401D01*
G01X15167Y59407D01*
G01X15158Y59414D01*
G01X15150Y59420D01*
G01X15141Y59425D01*
G01X15132Y59430D01*
G01X15122Y59435D01*
G01X15113Y59440D01*
G01X15103Y59444D01*
G01X15093Y59447D01*
G01X15083Y59450D01*
G01X15073Y59453D01*
G01X15063Y59455D01*
G01X15053Y59457D01*
G01X15042Y59459D01*
G01X15032Y59460D01*
G01X15021Y59461D01*
G01X15011Y59461D01*
G01X14579Y59461D01*
G01X14579Y62458D01*
G01X15011Y62458D01*
G01X15021Y62458D01*
G01X15032Y62459D01*
G01X15042Y62460D01*
G01X15053Y62462D01*
G01X15063Y62464D01*
G01X15073Y62466D01*
G01X15083Y62469D01*
G01X15093Y62472D01*
G01X15103Y62475D01*
G01X15113Y62479D01*
G01X15122Y62484D01*
G01X15132Y62489D01*
G01X15141Y62494D01*
G01X15150Y62499D01*
G01X15158Y62505D01*
G01X15167Y62512D01*
G01X15175Y62518D01*
G01X15183Y62525D01*
G01X15191Y62532D01*
G01X15198Y62540D01*
G01X15205Y62548D01*
G01X15211Y62556D01*
G01X15218Y62565D01*
G01X15224Y62573D01*
G01X15229Y62582D01*
G01X15234Y62591D01*
G01X15239Y62601D01*
G01X15244Y62610D01*
G01X15248Y62620D01*
G01X15251Y62630D01*
G01X15254Y62640D01*
G01X15257Y62650D01*
G01X15259Y62660D01*
G01X15261Y62670D01*
G01X15263Y62681D01*
G01X15264Y62691D01*
G01X15265Y62702D01*
G01X15265Y62712D01*
G01X15265Y64287D01*
G01X15265Y64297D01*
G01X15264Y64308D01*
G01X15263Y64318D01*
G01X15261Y64329D01*
G01X15259Y64339D01*
G01X15257Y64349D01*
G01X15254Y64359D01*
G01X15251Y64369D01*
G01X15248Y64379D01*
G01X15244Y64389D01*
G01X15239Y64398D01*
G01X15234Y64408D01*
G01X15229Y64417D01*
G01X15224Y64426D01*
G01X15218Y64434D01*
G01X15211Y64443D01*
G01X15205Y64451D01*
G01X15198Y64459D01*
G01X15191Y64467D01*
G01X15183Y64474D01*
G01X15175Y64481D01*
G01X15167Y64487D01*
G01X15158Y64494D01*
G01X15150Y64500D01*
G01X15141Y64505D01*
G01X15132Y64510D01*
G01X15122Y64515D01*
G01X15113Y64520D01*
G01X15103Y64524D01*
G01X15093Y64527D01*
G01X15083Y64530D01*
G01X15073Y64533D01*
G01X15063Y64535D01*
G01X15053Y64537D01*
G01X15042Y64539D01*
G01X15032Y64540D01*
G01X15021Y64541D01*
G01X15011Y64541D01*
G01X13436Y64541D01*
G01X13426Y64541D01*
G01X13415Y64540D01*
G01X13405Y64539D01*
G01X13394Y64537D01*
G01X13384Y64535D01*
G01X13374Y64533D01*
G01X13364Y64530D01*
G01X13354Y64527D01*
G01X13344Y64524D01*
G01X13334Y64520D01*
G01X13325Y64515D01*
G01X13315Y64510D01*
G01X13306Y64505D01*
G01X13297Y64500D01*
G01X13289Y64494D01*
G01X13280Y64487D01*
G01X13272Y64481D01*
G01X13264Y64474D01*
G01X13256Y64467D01*
G01X13249Y64459D01*
G01X13242Y64451D01*
G01X13236Y64443D01*
G01X13229Y64434D01*
G01X13223Y64426D01*
G01X13218Y64417D01*
G01X13213Y64408D01*
G01X13208Y64398D01*
G01X13203Y64389D01*
G01X13199Y64379D01*
G01X13196Y64369D01*
G01X13193Y64359D01*
G01X13190Y64349D01*
G01X13188Y64339D01*
G01X13186Y64329D01*
G01X13184Y64318D01*
G01X13183Y64308D01*
G01X13182Y64297D01*
G01X13182Y64287D01*
G01X13182Y62712D01*
G01X13182Y62702D01*
G01X13183Y62691D01*
G01X13184Y62681D01*
G01X13186Y62670D01*
G01X13188Y62660D01*
G01X13190Y62650D01*
G01X13193Y62640D01*
G01X13196Y62630D01*
G01X13199Y62620D01*
G01X13203Y62610D01*
G01X13208Y62601D01*
G01X13213Y62591D01*
G01X13218Y62582D01*
G01X13223Y62573D01*
G01X13229Y62565D01*
G01X13236Y62556D01*
G01X13242Y62548D01*
G01X13249Y62540D01*
G01X13256Y62532D01*
G01X13264Y62525D01*
G01X13272Y62518D01*
G01X13280Y62512D01*
G01X13289Y62505D01*
G01X13297Y62499D01*
G01X13306Y62494D01*
G01X13315Y62489D01*
G01X13325Y62484D01*
G01X13334Y62479D01*
G01X13344Y62475D01*
G01X13354Y62472D01*
G01X13364Y62469D01*
G01X13374Y62466D01*
G01X13384Y62464D01*
G01X13394Y62462D01*
G01X13405Y62460D01*
G01X13415Y62459D01*
G01X13426Y62458D01*
G01X13436Y62458D01*
G01X13868Y62458D01*
G01X13868Y59461D01*
G01X13436Y59461D01*
G01X13426Y59461D01*
G01X13415Y59460D01*
G01X13405Y59459D01*
G01X13394Y59457D01*
G01X13384Y59455D01*
G01X13374Y59453D01*
G01X13364Y59450D01*
G01X13354Y59447D01*
G01X13344Y59444D01*
G01X13334Y59440D01*
G01X13325Y59435D01*
G01X13315Y59430D01*
G01X13306Y59425D01*
G01X13297Y59420D01*
G01X13289Y59414D01*
G01X13280Y59407D01*
G01X13272Y59401D01*
G01X13264Y59394D01*
G01X13256Y59387D01*
G01X13249Y59379D01*
G01X13242Y59371D01*
G01X13236Y59363D01*
G01X13229Y59354D01*
G01X13223Y59346D01*
G01X13218Y59337D01*
G01X13213Y59328D01*
G01X13208Y59318D01*
G01X13203Y59309D01*
G01X13199Y59299D01*
G01X13196Y59289D01*
G01X13193Y59279D01*
G01X13190Y59269D01*
G01X13188Y59259D01*
G01X13186Y59249D01*
G01X13184Y59238D01*
G01X13183Y59228D01*
G01X13182Y59217D01*
G01X13182Y59207D01*
G01X13182Y57632D01*
G01X13182Y57622D01*
G01X13183Y57611D01*
G01X13184Y57601D01*
G01X13186Y57590D01*
G01X13188Y57580D01*
G01X13190Y57570D01*
G01X13193Y57560D01*
G01X13196Y57550D01*
G01X13199Y57540D01*
G01X13203Y57530D01*
G01X13208Y57521D01*
G01X13213Y57511D01*
G01X13218Y57502D01*
G01X13223Y57493D01*
G01X13229Y57485D01*
G01X13236Y57476D01*
G01X13242Y57468D01*
G01X13249Y57460D01*
G01X13256Y57452D01*
G01X13264Y57445D01*
G01X13272Y57438D01*
G01X13280Y57432D01*
G01X13289Y57425D01*
G01X13297Y57419D01*
G01X13306Y57414D01*
G01X13315Y57409D01*
G01X13325Y57404D01*
G01X13334Y57399D01*
G01X13344Y57395D01*
G01X13354Y57392D01*
G01X13364Y57389D01*
G01X13374Y57386D01*
G01X13384Y57384D01*
G01X13394Y57382D01*
G01X13405Y57380D01*
G01X13415Y57379D01*
G01X13426Y57378D01*
G01X13436Y57378D01*
G01X13868Y57378D01*
G01X13868Y54381D01*
G01X13436Y54381D01*
G01X13426Y54381D01*
G01X13415Y54380D01*
G01X13405Y54379D01*
G01X13394Y54377D01*
G01X13384Y54375D01*
G01X13374Y54373D01*
G01X13364Y54370D01*
G01X13354Y54367D01*
G01X13344Y54364D01*
G01X13334Y54360D01*
G01X13325Y54355D01*
G01X13315Y54350D01*
G01X13306Y54345D01*
G01X13297Y54340D01*
G01X13289Y54334D01*
G01X13280Y54327D01*
G01X13272Y54321D01*
G01X13264Y54314D01*
G01X13256Y54307D01*
G01X13249Y54299D01*
G01X13242Y54291D01*
G01X13236Y54283D01*
G01X13229Y54274D01*
G01X13223Y54266D01*
G01X13218Y54257D01*
G01X13213Y54248D01*
G01X13208Y54238D01*
G01X13203Y54229D01*
G01X13199Y54219D01*
G01X13196Y54209D01*
G01X13193Y54199D01*
G01X13190Y54189D01*
G01X13188Y54179D01*
G01X13186Y54169D01*
G01X13184Y54158D01*
G01X13183Y54148D01*
G01X13182Y54137D01*
G01X13182Y54127D01*
G01X13182Y52552D01*
G01X13182Y52542D01*
G01X13183Y52531D01*
G01X13184Y52521D01*
G01X13186Y52510D01*
G01X13188Y52500D01*
G01X13190Y52490D01*
G01X13193Y52480D01*
G01X13196Y52470D01*
G01X13199Y52460D01*
G01X13203Y52450D01*
G01X13208Y52441D01*
G01X13213Y52431D01*
G01X13218Y52422D01*
G01X13223Y52413D01*
G01X13229Y52405D01*
G01X13236Y52396D01*
G01X13242Y52388D01*
G01X13249Y52380D01*
G01X13256Y52372D01*
G01X13264Y52365D01*
G01X13272Y52358D01*
G01X13280Y52352D01*
G01X13289Y52345D01*
G01X13297Y52339D01*
G01X13306Y52334D01*
G01X13315Y52329D01*
G01X13325Y52324D01*
G01X13334Y52319D01*
G01X13344Y52315D01*
G01X13354Y52312D01*
G01X13364Y52309D01*
G01X13374Y52306D01*
G01X13384Y52304D01*
G01X13394Y52302D01*
G01X13405Y52300D01*
G01X13415Y52299D01*
G01X13426Y52298D01*
G01X13436Y52298D01*
G01X13868Y52298D01*
G01X13868Y52270D01*
G01X13868Y52263D01*
G01X13868Y52257D01*
G01X13868Y52255D01*
G01X13868Y52252D01*
G01X13869Y52246D01*
G01X13869Y52239D01*
G01X13870Y52237D01*
G01X13870Y52235D01*
G01X13870Y52229D01*
G01X13871Y52222D01*
G01X13872Y52219D01*
G01X13872Y52217D01*
G01X13873Y52211D01*
G01X13874Y52204D01*
G01X13875Y52202D01*
G01X13875Y52200D01*
G01X13876Y52194D01*
G01X13878Y52187D01*
G01X13878Y52185D01*
G01X13879Y52182D01*
G01X13880Y52178D01*
G01X13883Y52170D01*
G01X13883Y52167D01*
G01X13884Y52165D01*
G01X13886Y52160D01*
G01X13888Y52153D01*
G01X13889Y52150D01*
G01X13889Y52149D01*
G01X13892Y52143D01*
G01X13894Y52136D01*
G01X13895Y52134D01*
G01X13896Y52132D01*
G01X13899Y52126D01*
G01X13901Y52120D01*
G01X13902Y52118D01*
G01X13903Y52116D01*
G01X13906Y52110D01*
G01X13909Y52104D01*
G01X13910Y52102D01*
G01X13911Y52100D01*
G01X13915Y52094D01*
G01X13918Y52089D01*
G01X13919Y52087D01*
G01X13920Y52085D01*
G01X13924Y52079D01*
G01X13927Y52074D01*
G01X13928Y52072D01*
G01X13930Y52070D01*
G01X13934Y52064D01*
G01X13937Y52059D01*
G01X13939Y52058D01*
G01X13940Y52056D01*
G01X13944Y52050D01*
G01X13948Y52045D01*
G01X13950Y52043D01*
G01X13951Y52042D01*
G01X13956Y52037D01*
G01X13960Y52032D01*
G01X13961Y52030D01*
G01X13963Y52028D01*
G01X13967Y52024D01*
G01X13972Y52019D01*
G01X20218Y45773D01*
G01X20218Y37807D01*
G01X20145Y37779D01*
G01X20053Y37731D01*
G01X19966Y37675D01*
G01X19884Y37610D01*
G01X19810Y37538D01*
G01X19743Y37458D01*
G01X19685Y37373D01*
G01X19635Y37281D01*
G01X19595Y37186D01*
G01X19564Y37086D01*
G01X19544Y36985D01*
G01X19533Y36881D01*
G01X19533Y36778D01*
G01X19544Y36674D01*
G01X19564Y36573D01*
G01X19595Y36473D01*
G01X19635Y36378D01*
G01X19685Y36286D01*
G01X19743Y36201D01*
G01X19810Y36121D01*
G01X19884Y36049D01*
G01X19966Y35984D01*
G01X20053Y35928D01*
G01X20145Y35880D01*
G01X20242Y35842D01*
G01X20342Y35814D01*
G01X20444Y35796D01*
G01X20548Y35788D01*
G37*
G36*
G01X23507Y35866D02*
G01X23589Y35903D01*
G01X23678Y35955D01*
G01X23763Y36015D01*
G01X23841Y36084D01*
G01X23911Y36160D01*
G01X23974Y36243D01*
G01X24028Y36331D01*
G01X24073Y36425D01*
G01X24077Y36436D01*
G01X23507Y36436D01*
G01X23507Y35866D01*
G37*
G36*
G01X22720Y35867D02*
G01X22720Y36436D01*
G01X22151Y36436D01*
G01X22175Y36378D01*
G01X22225Y36286D01*
G01X22283Y36201D01*
G01X22350Y36121D01*
G01X22424Y36049D01*
G01X22506Y35984D01*
G01X22593Y35928D01*
G01X22685Y35880D01*
G01X22720Y35867D01*
G37*
G36*
G01X91428Y40834D02*
G01X91478Y40857D01*
G01X91629Y40944D01*
G01X91771Y41046D01*
G01X91902Y41162D01*
G01X92021Y41290D01*
G01X92127Y41429D01*
G01X92218Y41579D01*
G01X92261Y41667D01*
G01X91428Y41667D01*
G01X91428Y40834D01*
G37*
G36*
G01X22151Y37223D02*
G01X22720Y37223D01*
G01X22720Y37792D01*
G01X22685Y37779D01*
G01X22593Y37731D01*
G01X22506Y37675D01*
G01X22424Y37610D01*
G01X22350Y37538D01*
G01X22283Y37458D01*
G01X22225Y37373D01*
G01X22175Y37281D01*
G01X22151Y37223D01*
G37*
G36*
G01X23507Y37223D02*
G01X24077Y37223D01*
G01X24073Y37234D01*
G01X24028Y37328D01*
G01X23974Y37416D01*
G01X23911Y37499D01*
G01X23841Y37575D01*
G01X23763Y37644D01*
G01X23678Y37704D01*
G01X23589Y37756D01*
G01X23507Y37793D01*
G01X23507Y37223D01*
G37*
G36*
G01X53819Y36449D02*
G01X53933Y36452D01*
G01X54046Y36466D01*
G01X54157Y36491D01*
G01X54265Y36528D01*
G01X54369Y36574D01*
G01X54468Y36631D01*
G01X54560Y36698D01*
G01X54646Y36773D01*
G01X54723Y36857D01*
G01X54792Y36948D01*
G01X54851Y37045D01*
G01X54901Y37148D01*
G01X54940Y37255D01*
G01X54968Y37365D01*
G01X54985Y37478D01*
G01X54991Y37592D01*
G01X54985Y37705D01*
G01X54968Y37818D01*
G01X54940Y37928D01*
G01X54901Y38035D01*
G01X54851Y38138D01*
G01X54792Y38235D01*
G01X54723Y38326D01*
G01X54646Y38410D01*
G01X54560Y38485D01*
G01X54468Y38552D01*
G01X54369Y38609D01*
G01X54265Y38655D01*
G01X54157Y38692D01*
G01X54046Y38717D01*
G01X53933Y38731D01*
G01X53819Y38734D01*
G01X53705Y38726D01*
G01X53593Y38706D01*
G01X53483Y38675D01*
G01X53377Y38633D01*
G01X53276Y38581D01*
G01X53180Y38520D01*
G01X53091Y38448D01*
G01X53010Y38369D01*
G01X52936Y38282D01*
G01X52872Y38188D01*
G01X52818Y38087D01*
G01X52773Y37982D01*
G01X52740Y37874D01*
G01X52717Y37762D01*
G01X52706Y37648D01*
G01X52706Y37535D01*
G01X52717Y37421D01*
G01X52740Y37309D01*
G01X52773Y37201D01*
G01X52818Y37096D01*
G01X52872Y36995D01*
G01X52936Y36901D01*
G01X53010Y36814D01*
G01X53091Y36735D01*
G01X53180Y36663D01*
G01X53276Y36602D01*
G01X53377Y36550D01*
G01X53483Y36508D01*
G01X53593Y36477D01*
G01X53705Y36457D01*
G01X53819Y36449D01*
G37*
G36*
G01X41119Y36449D02*
G01X41233Y36452D01*
G01X41346Y36466D01*
G01X41457Y36491D01*
G01X41565Y36528D01*
G01X41669Y36574D01*
G01X41768Y36631D01*
G01X41860Y36698D01*
G01X41946Y36773D01*
G01X42023Y36857D01*
G01X42092Y36948D01*
G01X42151Y37045D01*
G01X42201Y37148D01*
G01X42240Y37255D01*
G01X42268Y37365D01*
G01X42285Y37478D01*
G01X42291Y37592D01*
G01X42285Y37705D01*
G01X42268Y37818D01*
G01X42240Y37928D01*
G01X42201Y38035D01*
G01X42151Y38138D01*
G01X42092Y38235D01*
G01X42023Y38326D01*
G01X41946Y38410D01*
G01X41860Y38485D01*
G01X41768Y38552D01*
G01X41669Y38609D01*
G01X41565Y38655D01*
G01X41457Y38692D01*
G01X41346Y38717D01*
G01X41233Y38731D01*
G01X41119Y38734D01*
G01X41005Y38726D01*
G01X40893Y38706D01*
G01X40783Y38675D01*
G01X40677Y38633D01*
G01X40576Y38581D01*
G01X40480Y38520D01*
G01X40391Y38448D01*
G01X40310Y38369D01*
G01X40236Y38282D01*
G01X40172Y38188D01*
G01X40118Y38087D01*
G01X40073Y37982D01*
G01X40040Y37874D01*
G01X40017Y37762D01*
G01X40006Y37648D01*
G01X40006Y37535D01*
G01X40017Y37421D01*
G01X40040Y37309D01*
G01X40073Y37201D01*
G01X40118Y37096D01*
G01X40172Y36995D01*
G01X40236Y36901D01*
G01X40310Y36814D01*
G01X40391Y36735D01*
G01X40480Y36663D01*
G01X40576Y36602D01*
G01X40677Y36550D01*
G01X40783Y36508D01*
G01X40893Y36477D01*
G01X41005Y36457D01*
G01X41119Y36449D01*
G37*
G36*
G01X43659Y36449D02*
G01X43773Y36452D01*
G01X43886Y36466D01*
G01X43997Y36491D01*
G01X44105Y36528D01*
G01X44209Y36574D01*
G01X44308Y36631D01*
G01X44400Y36698D01*
G01X44486Y36773D01*
G01X44563Y36857D01*
G01X44632Y36948D01*
G01X44691Y37045D01*
G01X44741Y37148D01*
G01X44780Y37255D01*
G01X44808Y37365D01*
G01X44825Y37478D01*
G01X44831Y37592D01*
G01X44825Y37705D01*
G01X44808Y37818D01*
G01X44780Y37928D01*
G01X44741Y38035D01*
G01X44691Y38138D01*
G01X44632Y38235D01*
G01X44563Y38326D01*
G01X44486Y38410D01*
G01X44400Y38485D01*
G01X44308Y38552D01*
G01X44209Y38609D01*
G01X44105Y38655D01*
G01X43997Y38692D01*
G01X43886Y38717D01*
G01X43773Y38731D01*
G01X43659Y38734D01*
G01X43545Y38726D01*
G01X43433Y38706D01*
G01X43323Y38675D01*
G01X43217Y38633D01*
G01X43116Y38581D01*
G01X43020Y38520D01*
G01X42931Y38448D01*
G01X42850Y38369D01*
G01X42776Y38282D01*
G01X42712Y38188D01*
G01X42658Y38087D01*
G01X42613Y37982D01*
G01X42580Y37874D01*
G01X42557Y37762D01*
G01X42546Y37648D01*
G01X42546Y37535D01*
G01X42557Y37421D01*
G01X42580Y37309D01*
G01X42613Y37201D01*
G01X42658Y37096D01*
G01X42712Y36995D01*
G01X42776Y36901D01*
G01X42850Y36814D01*
G01X42931Y36735D01*
G01X43020Y36663D01*
G01X43116Y36602D01*
G01X43217Y36550D01*
G01X43323Y36508D01*
G01X43433Y36477D01*
G01X43545Y36457D01*
G01X43659Y36449D01*
G37*
G36*
G01X46199Y36449D02*
G01X46313Y36452D01*
G01X46426Y36466D01*
G01X46537Y36491D01*
G01X46645Y36528D01*
G01X46749Y36574D01*
G01X46848Y36631D01*
G01X46940Y36698D01*
G01X47026Y36773D01*
G01X47103Y36857D01*
G01X47172Y36948D01*
G01X47231Y37045D01*
G01X47281Y37148D01*
G01X47320Y37255D01*
G01X47348Y37365D01*
G01X47365Y37478D01*
G01X47371Y37592D01*
G01X47365Y37705D01*
G01X47348Y37818D01*
G01X47320Y37928D01*
G01X47281Y38035D01*
G01X47231Y38138D01*
G01X47172Y38235D01*
G01X47103Y38326D01*
G01X47026Y38410D01*
G01X46940Y38485D01*
G01X46848Y38552D01*
G01X46749Y38609D01*
G01X46645Y38655D01*
G01X46537Y38692D01*
G01X46426Y38717D01*
G01X46313Y38731D01*
G01X46199Y38734D01*
G01X46085Y38726D01*
G01X45973Y38706D01*
G01X45863Y38675D01*
G01X45757Y38633D01*
G01X45656Y38581D01*
G01X45560Y38520D01*
G01X45471Y38448D01*
G01X45390Y38369D01*
G01X45316Y38282D01*
G01X45252Y38188D01*
G01X45198Y38087D01*
G01X45153Y37982D01*
G01X45120Y37874D01*
G01X45097Y37762D01*
G01X45086Y37648D01*
G01X45086Y37535D01*
G01X45097Y37421D01*
G01X45120Y37309D01*
G01X45153Y37201D01*
G01X45198Y37096D01*
G01X45252Y36995D01*
G01X45316Y36901D01*
G01X45390Y36814D01*
G01X45471Y36735D01*
G01X45560Y36663D01*
G01X45656Y36602D01*
G01X45757Y36550D01*
G01X45863Y36508D01*
G01X45973Y36477D01*
G01X46085Y36457D01*
G01X46199Y36449D01*
G37*
G36*
G01X48739Y36449D02*
G01X48853Y36452D01*
G01X48966Y36466D01*
G01X49077Y36491D01*
G01X49185Y36528D01*
G01X49289Y36574D01*
G01X49388Y36631D01*
G01X49480Y36698D01*
G01X49566Y36773D01*
G01X49643Y36857D01*
G01X49712Y36948D01*
G01X49771Y37045D01*
G01X49821Y37148D01*
G01X49860Y37255D01*
G01X49888Y37365D01*
G01X49905Y37478D01*
G01X49911Y37592D01*
G01X49905Y37705D01*
G01X49888Y37818D01*
G01X49860Y37928D01*
G01X49821Y38035D01*
G01X49771Y38138D01*
G01X49712Y38235D01*
G01X49643Y38326D01*
G01X49566Y38410D01*
G01X49480Y38485D01*
G01X49388Y38552D01*
G01X49289Y38609D01*
G01X49185Y38655D01*
G01X49077Y38692D01*
G01X48966Y38717D01*
G01X48853Y38731D01*
G01X48739Y38734D01*
G01X48625Y38726D01*
G01X48513Y38706D01*
G01X48403Y38675D01*
G01X48297Y38633D01*
G01X48196Y38581D01*
G01X48100Y38520D01*
G01X48011Y38448D01*
G01X47930Y38369D01*
G01X47856Y38282D01*
G01X47792Y38188D01*
G01X47738Y38087D01*
G01X47693Y37982D01*
G01X47660Y37874D01*
G01X47637Y37762D01*
G01X47626Y37648D01*
G01X47626Y37535D01*
G01X47637Y37421D01*
G01X47660Y37309D01*
G01X47693Y37201D01*
G01X47738Y37096D01*
G01X47792Y36995D01*
G01X47856Y36901D01*
G01X47930Y36814D01*
G01X48011Y36735D01*
G01X48100Y36663D01*
G01X48196Y36602D01*
G01X48297Y36550D01*
G01X48403Y36508D01*
G01X48513Y36477D01*
G01X48625Y36457D01*
G01X48739Y36449D01*
G37*
G36*
G01X51279Y36449D02*
G01X51393Y36452D01*
G01X51506Y36466D01*
G01X51617Y36491D01*
G01X51725Y36528D01*
G01X51829Y36574D01*
G01X51928Y36631D01*
G01X52020Y36698D01*
G01X52106Y36773D01*
G01X52183Y36857D01*
G01X52252Y36948D01*
G01X52311Y37045D01*
G01X52361Y37148D01*
G01X52400Y37255D01*
G01X52428Y37365D01*
G01X52445Y37478D01*
G01X52451Y37592D01*
G01X52445Y37705D01*
G01X52428Y37818D01*
G01X52400Y37928D01*
G01X52361Y38035D01*
G01X52311Y38138D01*
G01X52252Y38235D01*
G01X52183Y38326D01*
G01X52106Y38410D01*
G01X52020Y38485D01*
G01X51928Y38552D01*
G01X51829Y38609D01*
G01X51725Y38655D01*
G01X51617Y38692D01*
G01X51506Y38717D01*
G01X51393Y38731D01*
G01X51279Y38734D01*
G01X51165Y38726D01*
G01X51053Y38706D01*
G01X50943Y38675D01*
G01X50837Y38633D01*
G01X50736Y38581D01*
G01X50640Y38520D01*
G01X50551Y38448D01*
G01X50470Y38369D01*
G01X50396Y38282D01*
G01X50332Y38188D01*
G01X50278Y38087D01*
G01X50233Y37982D01*
G01X50200Y37874D01*
G01X50177Y37762D01*
G01X50166Y37648D01*
G01X50166Y37535D01*
G01X50177Y37421D01*
G01X50200Y37309D01*
G01X50233Y37201D01*
G01X50278Y37096D01*
G01X50332Y36995D01*
G01X50396Y36901D01*
G01X50470Y36814D01*
G01X50551Y36735D01*
G01X50640Y36663D01*
G01X50736Y36602D01*
G01X50837Y36550D01*
G01X50943Y36508D01*
G01X51053Y36477D01*
G01X51165Y36457D01*
G01X51279Y36449D01*
G37*

%LPD*%
G36*
G01X53134Y23421D02*
G01X59408Y29695D01*
G01X63268Y29695D01*
G01X63281Y29695D01*
G01X63294Y29696D01*
G01X63306Y29697D01*
G01X63319Y29698D01*
G01X63332Y29700D01*
G01X63344Y29703D01*
G01X63356Y29706D01*
G01X63369Y29709D01*
G01X63381Y29713D01*
G01X63393Y29717D01*
G01X63404Y29722D01*
G01X63416Y29727D01*
G01X63428Y29732D01*
G01X63439Y29738D01*
G01X63450Y29745D01*
G01X63461Y29751D01*
G01X63471Y29758D01*
G01X63481Y29766D01*
G01X63491Y29773D01*
G01X63501Y29782D01*
G01X63511Y29790D01*
G01X63520Y29799D01*
G01X70609Y36891D01*
G01X70618Y36900D01*
G01X70626Y36909D01*
G01X70634Y36919D01*
G01X70642Y36929D01*
G01X70650Y36939D01*
G01X70657Y36950D01*
G01X70663Y36961D01*
G01X70669Y36971D01*
G01X70716Y36901D01*
G01X70790Y36814D01*
G01X70871Y36735D01*
G01X70960Y36663D01*
G01X71056Y36602D01*
G01X71157Y36550D01*
G01X71183Y36540D01*
G01X71183Y37147D01*
G01X70713Y37147D01*
G01X70713Y38036D01*
G01X71183Y38036D01*
G01X71183Y38526D01*
G01X71210Y38532D01*
G01X71263Y38549D01*
G01X71314Y38572D01*
G01X71362Y38600D01*
G01X71407Y38633D01*
G01X71449Y38670D01*
G01X71487Y38710D01*
G01X71520Y38755D01*
G01X71549Y38802D01*
G01X71574Y38853D01*
G01X71593Y38905D01*
G01X71606Y38959D01*
G01X71615Y39014D01*
G01X71618Y39070D01*
G01X71615Y39125D01*
G01X71606Y39181D01*
G01X71593Y39235D01*
G01X71574Y39287D01*
G01X71549Y39337D01*
G01X71520Y39385D01*
G01X71487Y39429D01*
G01X71449Y39470D01*
G01X71407Y39507D01*
G01X71362Y39539D01*
G01X71314Y39567D01*
G01X71263Y39590D01*
G01X71210Y39608D01*
G01X71156Y39620D01*
G01X71100Y39627D01*
G01X71045Y39629D01*
G01X70989Y39624D01*
G01X70934Y39615D01*
G01X70881Y39600D01*
G01X70829Y39579D01*
G01X70779Y39554D01*
G01X70732Y39524D01*
G01X70689Y39489D01*
G01X70649Y39450D01*
G01X70613Y39407D01*
G01X70582Y39361D01*
G01X70555Y39312D01*
G01X70533Y39261D01*
G01X70517Y39208D01*
G01X70506Y39153D01*
G01X70500Y39098D01*
G01X70500Y39042D01*
G01X70503Y39017D01*
G01X70106Y38620D01*
G01X70097Y38611D01*
G01X70089Y38602D01*
G01X70081Y38592D01*
G01X70073Y38582D01*
G01X70065Y38571D01*
G01X70058Y38561D01*
G01X70052Y38550D01*
G01X70045Y38539D01*
G01X70040Y38528D01*
G01X70034Y38516D01*
G01X70029Y38505D01*
G01X70024Y38493D01*
G01X70020Y38481D01*
G01X70016Y38469D01*
G01X70013Y38457D01*
G01X70010Y38444D01*
G01X70008Y38432D01*
G01X70006Y38419D01*
G01X70004Y38407D01*
G01X70003Y38394D01*
G01X70002Y38381D01*
G01X70002Y38369D01*
G01X70002Y38275D01*
G01X69963Y38326D01*
G01X69886Y38410D01*
G01X69800Y38485D01*
G01X69708Y38552D01*
G01X69609Y38609D01*
G01X69505Y38655D01*
G01X69397Y38692D01*
G01X69286Y38717D01*
G01X69173Y38731D01*
G01X69059Y38734D01*
G01X68945Y38726D01*
G01X68833Y38706D01*
G01X68723Y38675D01*
G01X68617Y38633D01*
G01X68572Y38610D01*
G01X64363Y42819D01*
G01X64363Y51747D01*
G01X64425Y51768D01*
G01X64529Y51814D01*
G01X64628Y51871D01*
G01X64720Y51938D01*
G01X64806Y52013D01*
G01X64883Y52097D01*
G01X64952Y52188D01*
G01X64977Y52229D01*
G01X64978Y52228D01*
G01X64985Y52217D01*
G01X64993Y52207D01*
G01X65001Y52197D01*
G01X65009Y52187D01*
G01X65017Y52178D01*
G01X65026Y52169D01*
G01X76268Y40926D01*
G01X72490Y37147D01*
G01X72072Y37147D01*
G01X72072Y36729D01*
G01X64632Y29288D01*
G01X59850Y29288D01*
G01X59837Y29288D01*
G01X59824Y29287D01*
G01X59812Y29286D01*
G01X59799Y29285D01*
G01X59786Y29282D01*
G01X59774Y29280D01*
G01X59762Y29277D01*
G01X59749Y29274D01*
G01X59737Y29270D01*
G01X59725Y29266D01*
G01X59713Y29261D01*
G01X59702Y29256D01*
G01X59690Y29251D01*
G01X59679Y29245D01*
G01X59668Y29238D01*
G01X59657Y29232D01*
G01X59647Y29225D01*
G01X59636Y29217D01*
G01X59626Y29209D01*
G01X59617Y29201D01*
G01X59607Y29193D01*
G01X59598Y29184D01*
G01X53858Y23444D01*
G01X53853Y23447D01*
G01X53767Y23476D01*
G01X53679Y23496D01*
G01X53590Y23507D01*
G01X53500Y23509D01*
G01X53410Y23503D01*
G01X53321Y23487D01*
G01X53234Y23462D01*
G01X53151Y23430D01*
G01X53134Y23421D01*
G37*

%LPC*%
G36*
G01X72072Y38036D02*
G01X72680Y38036D01*
G01X72631Y38138D01*
G01X72572Y38235D01*
G01X72503Y38326D01*
G01X72426Y38410D01*
G01X72340Y38485D01*
G01X72248Y38552D01*
G01X72149Y38609D01*
G01X72072Y38643D01*
G01X72072Y38036D01*
G37*

%LPD*%
G54D11*
G01X78496Y45720D02*
G01X78496Y52590D01*
G01X74467Y56619D01*
G01X49657Y64688D02*
G01X43588Y64688D01*
G01X38661Y59761D01*
G01X64008Y52832D02*
G01X52151Y64688D01*
G01X49657Y64688D01*
G01X49657Y64688D02*
G01X49657Y66548D01*
G01X66989Y39690D02*
G01X65377Y38077D01*
G01X65377Y37302D01*
G01X52123Y24048D01*
G01X51607Y24048D01*
G01X50165Y22606D01*
G01X66989Y39690D02*
G01X64008Y42672D01*
G01X64008Y52832D01*
G01X69088Y37592D02*
G01X66989Y39690D01*
G01X3810Y23622D02*
G01X3810Y28702D01*
G01X3810Y18542D02*
G01X3810Y23622D01*
G01X20574Y36830D02*
G01X20574Y45920D01*
G01X14224Y52270D01*
G01X14224Y53340D02*
G01X14224Y52270D01*
G01X14224Y58420D02*
G01X14224Y53340D01*
G01X14224Y58420D02*
G01X14224Y63500D01*
G01X92456Y28956D02*
G01X92456Y30025D01*
G01X92456Y30025D02*
G01X91694Y30787D01*
G01X91694Y35560D01*
G01X92456Y23876D02*
G01X92456Y28956D01*
G01X92456Y18796D02*
G01X92456Y23876D01*
G01X90678Y47416D02*
G01X88775Y45511D01*
G01X88775Y38478D01*
G01X91694Y35560D01*
G01X80518Y60452D02*
G01X80518Y65532D01*
G01X80518Y55372D02*
G01X80518Y60452D01*
G01X80137Y45720D02*
G01X80518Y46101D01*
G01X80518Y55372D01*
G01X36926Y35659D02*
G01X37386Y36118D01*
G01X37386Y38127D01*
G01X50647Y51389D01*
G01X57040Y51389D01*
G01X57401Y51749D01*
G01X57886Y51749D01*
G01X58066Y51569D01*
G01X60205Y51569D01*
G01X61468Y52832D01*
G01X56388Y52832D02*
G01X55110Y54109D01*
G01X48290Y54109D01*
G01X47498Y53317D01*
G01X47498Y52209D01*
G01X36360Y41071D01*
G01X29784Y41071D01*
G01X12334Y23622D01*
G01X8890Y23622D01*
G01X48768Y52832D02*
G01X31950Y36012D01*
G01X25643Y36012D01*
G01X8890Y19258D01*
G01X8890Y18542D01*
G01X19304Y63500D02*
G01X23637Y59166D01*
G01X39893Y59166D01*
G01X46228Y52832D01*
G01X43688Y52832D02*
G01X38100Y58420D01*
G01X19304Y58420D01*
G01X19304Y53340D02*
G01X19979Y54015D01*
G01X39964Y54015D01*
G01X41148Y52832D01*
G01X36118Y41658D02*
G01X36118Y50342D01*
G01X38608Y52832D01*
G01X36068Y52832D02*
G01X29222Y45986D01*
G01X29222Y41341D01*
G01X6350Y23622D02*
G01X6350Y28702D01*
G01X6350Y18542D02*
G01X6350Y23622D01*
G01X16764Y53340D02*
G01X23114Y46990D01*
G01X23114Y36830D01*
G01X16764Y53340D02*
G01X16764Y58420D01*
G01X16764Y58420D02*
G01X16764Y63500D01*
G01X94996Y23876D02*
G01X94996Y28956D01*
G01X94996Y18796D02*
G01X94996Y23876D01*
G01X83058Y55372D02*
G01X88323Y50106D01*
G01X90510Y50106D01*
G01X92496Y48120D01*
G01X92496Y44236D01*
G01X90678Y42418D01*
G01X83058Y60452D02*
G01X83058Y55372D01*
G01X83058Y60452D02*
G01X83058Y65532D01*
G01X90678Y42418D02*
G01X92826Y40269D01*
G01X92826Y31125D01*
G01X94996Y28956D01*
G01X76771Y40927D02*
G01X65278Y52420D01*
G01X65278Y54284D01*
G01X53014Y66548D01*
G01X83494Y45720D02*
G01X78701Y40927D01*
G01X76771Y40927D01*
G01X76771Y40927D02*
G01X64780Y28933D01*
G01X59850Y28933D01*
G01X53522Y22606D01*
G01X13350Y45212D02*
G01X16629Y41932D01*
G01X16629Y36677D01*
G01X20226Y33080D01*
G01X20670Y33080D01*
G01X51816Y22606D02*
G01X59260Y30050D01*
G01X63268Y30050D01*
G01X70358Y37142D01*
G01X70358Y38369D01*
G01X71059Y39070D01*
G01X81788Y45720D02*
G01X80820Y44752D01*
G01X78049Y44752D01*
G01X77470Y45331D01*
G01X77470Y49270D01*
G01X72440Y54302D01*
G01X69931Y54302D01*
G01X56680Y67553D01*
G01X52313Y67553D01*
G01X51308Y66548D01*
G01X57645Y51163D02*
G01X57645Y31724D01*
G01X48524Y22606D01*
G54D14*
G01X71628Y52832D03*
G54D15*
G01X69088Y52832D03*
G01X66548Y52832D03*
G01X64008Y52832D03*
G01X61468Y52832D03*
G01X58928Y52832D03*
G01X56388Y52832D03*
G01X53848Y52832D03*
G01X51308Y52832D03*
G01X48768Y52832D03*
G01X46228Y52832D03*
G01X43688Y52832D03*
G01X41148Y52832D03*
G01X38608Y52832D03*
G01X36068Y52832D03*
G01X71628Y37592D03*
G01X69088Y37592D03*
G01X66548Y37592D03*
G01X64008Y37592D03*
G01X61468Y37592D03*
G01X58928Y37592D03*
G01X56388Y37592D03*
G01X53848Y37592D03*
G01X51308Y37592D03*
G01X48768Y37592D03*
G01X46228Y37592D03*
G01X43688Y37592D03*
G01X41148Y37592D03*
G01X38608Y37592D03*
G01X36068Y37592D03*
G54D16*
G01X89154Y35560D03*
G54D17*
G01X91694Y35560D03*
G01X94234Y35560D03*
G01X96774Y35560D03*
G54D16*
G01X15494Y36830D03*
G54D17*
G01X18034Y36830D03*
G01X20574Y36830D03*
G01X23114Y36830D03*
G01X8890Y28702D03*
G01X6350Y28702D03*
G54D16*
G01X3810Y28702D03*
G54D17*
G01X8890Y23622D03*
G01X6350Y23622D03*
G54D16*
G01X3810Y23622D03*
G54D17*
G01X8890Y18542D03*
G01X6350Y18542D03*
G54D16*
G01X3810Y18542D03*
G54D17*
G01X19304Y63500D03*
G01X16764Y63500D03*
G54D16*
G01X14224Y63500D03*
G54D17*
G01X19304Y58420D03*
G01X16764Y58420D03*
G54D16*
G01X14224Y58420D03*
G54D17*
G01X19304Y53340D03*
G01X16764Y53340D03*
G54D16*
G01X14224Y53340D03*
G54D17*
G01X97536Y28956D03*
G01X94996Y28956D03*
G54D16*
G01X92456Y28956D03*
G54D17*
G01X97536Y23876D03*
G01X94996Y23876D03*
G54D16*
G01X92456Y23876D03*
G54D17*
G01X97536Y18796D03*
G01X94996Y18796D03*
G54D16*
G01X92456Y18796D03*
G54D17*
G01X85598Y65532D03*
G01X83058Y65532D03*
G54D16*
G01X80518Y65532D03*
G54D17*
G01X85598Y60452D03*
G01X83058Y60452D03*
G54D16*
G01X80518Y60452D03*
G54D17*
G01X85598Y55372D03*
G01X83058Y55372D03*
G54D16*
G01X80518Y55372D03*
G54D18*
G01X90678Y42418D03*
G01X90678Y47416D03*
G54D19*
G01X53014Y66548D03*
G01X51308Y66548D03*
G01X49657Y66548D03*
G01X48016Y66548D03*
G01X53522Y22606D03*
G01X51816Y22606D03*
G01X50165Y22606D03*
G01X48524Y22606D03*
G01X83494Y45720D03*
G01X81788Y45720D03*
G01X80137Y45720D03*
G01X78496Y45720D03*
G54D12*
G01X38661Y59761D03*
G01X36926Y35659D03*
G01X36118Y41658D03*
G01X29222Y41341D03*
G01X20670Y33080D03*
G01X13350Y45212D03*
G01X71059Y39070D03*
G01X57645Y51163D03*
G01X74467Y56619D03*
M00*
M02*
