G04 ---------------------------- Layer name :TOP LAYER*
G04 EasyEDA v5.5.11, Sun, 03 Jun 2018 10:16:40 GMT*
G04 422a67246ae34fc7a473e8fc002879eb*
G04 Gerber Generator version 0.2*
G04 Scale: 100 percent, Rotated: No, Reflected: No *
G04 Dimensions in millimeters *
G04 leading zeros omitted , absolute positions ,3 integer and 3 decimal *
%FSLAX33Y33*%
%MOMM*%
G90*
G71D02*

%ADD11C,0.202997*%
%ADD12C,0.610006*%
%ADD13R,1.160018X1.469898*%
%ADD14R,1.778000X1.778000*%
%ADD15C,1.778000*%
%ADD16R,1.574800X1.574800*%
%ADD17C,1.574800*%
%ADD18C,2.999994*%
%ADD19C,1.299997*%

%LPD*%
G36*
G01X3810Y0D02*
G01X2390Y2364D01*
G01X1270Y9906D01*
G01X0Y27178D01*
G01X1270Y37084D01*
G01X3556Y47752D01*
G01X7112Y57912D01*
G01X11684Y67310D01*
G01X17018Y75946D01*
G01X25146Y68072D01*
G01X32004Y62230D01*
G01X33274Y61468D01*
G01X34798Y61468D01*
G01X43434Y67310D01*
G01X50800Y71882D01*
G01X55372Y69342D01*
G01X67056Y61722D01*
G01X68072Y61468D01*
G01X68580Y61468D01*
G01X69850Y62484D01*
G01X81280Y72390D01*
G01X83058Y74168D01*
G01X84582Y75946D01*
G01X86868Y72898D01*
G01X93980Y59944D01*
G01X99568Y43688D01*
G01X100838Y35306D01*
G01X101600Y27178D01*
G01X100838Y9906D01*
G01X97790Y0D01*
G01X93218Y10668D01*
G01X90170Y16510D01*
G01X86868Y22352D01*
G01X82222Y29029D01*
G01X80772Y30988D01*
G01X80010Y31750D01*
G01X79286Y31965D01*
G01X73152Y32766D01*
G01X70866Y30988D01*
G01X67818Y28702D01*
G01X51054Y17780D01*
G01X45720Y21082D01*
G01X28956Y32258D01*
G01X22860Y31496D01*
G01X22606Y31242D01*
G01X19558Y28448D01*
G01X16764Y24892D01*
G01X13716Y20320D01*
G01X11938Y17018D01*
G01X9906Y13970D01*
G01X7366Y8128D01*
G01X5080Y1778D01*
G01X3810Y0D01*
G37*

%LPC*%
G36*
G01X84538Y69112D02*
G01X84713Y69116D01*
G01X84886Y69138D01*
G01X85057Y69177D01*
G01X85222Y69233D01*
G01X85382Y69305D01*
G01X85533Y69392D01*
G01X85675Y69494D01*
G01X85806Y69610D01*
G01X85925Y69738D01*
G01X86031Y69877D01*
G01X86122Y70027D01*
G01X86198Y70184D01*
G01X86258Y70349D01*
G01X86301Y70518D01*
G01X86327Y70691D01*
G01X86335Y70866D01*
G01X86327Y71040D01*
G01X86301Y71213D01*
G01X86258Y71382D01*
G01X86198Y71547D01*
G01X86122Y71704D01*
G01X86031Y71854D01*
G01X85925Y71993D01*
G01X85806Y72121D01*
G01X85675Y72237D01*
G01X85533Y72339D01*
G01X85382Y72426D01*
G01X85222Y72498D01*
G01X85057Y72554D01*
G01X84886Y72593D01*
G01X84713Y72615D01*
G01X84538Y72619D01*
G01X84363Y72606D01*
G01X84191Y72576D01*
G01X84023Y72528D01*
G01X83860Y72464D01*
G01X83704Y72384D01*
G01X83558Y72290D01*
G01X83421Y72181D01*
G01X83296Y72059D01*
G01X83183Y71925D01*
G01X83085Y71780D01*
G01X83001Y71627D01*
G01X82933Y71465D01*
G01X82882Y71298D01*
G01X82847Y71127D01*
G01X82830Y70953D01*
G01X82830Y70778D01*
G01X82847Y70604D01*
G01X82882Y70433D01*
G01X82933Y70266D01*
G01X83001Y70104D01*
G01X83085Y69951D01*
G01X83183Y69806D01*
G01X83296Y69672D01*
G01X83421Y69550D01*
G01X83558Y69441D01*
G01X83705Y69347D01*
G01X83860Y69267D01*
G01X84023Y69203D01*
G01X84191Y69155D01*
G01X84363Y69125D01*
G01X84538Y69112D01*
G37*
G36*
G01X4782Y9422D02*
G01X4957Y9426D01*
G01X5130Y9448D01*
G01X5301Y9487D01*
G01X5466Y9543D01*
G01X5626Y9615D01*
G01X5777Y9702D01*
G01X5919Y9804D01*
G01X6050Y9920D01*
G01X6169Y10048D01*
G01X6275Y10187D01*
G01X6366Y10337D01*
G01X6442Y10494D01*
G01X6502Y10659D01*
G01X6545Y10828D01*
G01X6571Y11001D01*
G01X6579Y11176D01*
G01X6571Y11350D01*
G01X6545Y11523D01*
G01X6502Y11692D01*
G01X6442Y11857D01*
G01X6366Y12014D01*
G01X6275Y12164D01*
G01X6169Y12303D01*
G01X6050Y12431D01*
G01X5919Y12547D01*
G01X5777Y12649D01*
G01X5626Y12736D01*
G01X5466Y12808D01*
G01X5301Y12864D01*
G01X5130Y12903D01*
G01X4957Y12925D01*
G01X4782Y12929D01*
G01X4607Y12916D01*
G01X4435Y12886D01*
G01X4267Y12838D01*
G01X4104Y12774D01*
G01X3948Y12694D01*
G01X3802Y12600D01*
G01X3665Y12491D01*
G01X3540Y12369D01*
G01X3427Y12235D01*
G01X3329Y12090D01*
G01X3245Y11937D01*
G01X3177Y11775D01*
G01X3126Y11608D01*
G01X3091Y11437D01*
G01X3074Y11263D01*
G01X3074Y11088D01*
G01X3091Y10914D01*
G01X3126Y10743D01*
G01X3177Y10576D01*
G01X3245Y10414D01*
G01X3329Y10261D01*
G01X3427Y10116D01*
G01X3540Y9982D01*
G01X3665Y9860D01*
G01X3802Y9751D01*
G01X3949Y9657D01*
G01X4104Y9577D01*
G01X4267Y9513D01*
G01X4435Y9465D01*
G01X4607Y9435D01*
G01X4782Y9422D01*
G37*
G36*
G01X96476Y11454D02*
G01X96651Y11458D01*
G01X96824Y11480D01*
G01X96995Y11519D01*
G01X97160Y11575D01*
G01X97320Y11647D01*
G01X97471Y11734D01*
G01X97613Y11836D01*
G01X97744Y11952D01*
G01X97863Y12080D01*
G01X97969Y12219D01*
G01X98060Y12369D01*
G01X98136Y12526D01*
G01X98196Y12691D01*
G01X98239Y12860D01*
G01X98265Y13033D01*
G01X98273Y13208D01*
G01X98265Y13382D01*
G01X98239Y13555D01*
G01X98196Y13724D01*
G01X98136Y13889D01*
G01X98060Y14046D01*
G01X97969Y14196D01*
G01X97863Y14335D01*
G01X97744Y14463D01*
G01X97613Y14579D01*
G01X97471Y14681D01*
G01X97320Y14768D01*
G01X97160Y14840D01*
G01X96995Y14896D01*
G01X96824Y14935D01*
G01X96651Y14957D01*
G01X96476Y14961D01*
G01X96301Y14948D01*
G01X96129Y14918D01*
G01X95961Y14870D01*
G01X95798Y14806D01*
G01X95642Y14726D01*
G01X95496Y14632D01*
G01X95359Y14523D01*
G01X95234Y14401D01*
G01X95121Y14267D01*
G01X95023Y14122D01*
G01X94939Y13969D01*
G01X94871Y13807D01*
G01X94820Y13640D01*
G01X94785Y13469D01*
G01X94768Y13295D01*
G01X94768Y13120D01*
G01X94785Y12946D01*
G01X94820Y12775D01*
G01X94871Y12608D01*
G01X94939Y12446D01*
G01X95023Y12293D01*
G01X95121Y12148D01*
G01X95234Y12014D01*
G01X95359Y11892D01*
G01X95496Y11783D01*
G01X95643Y11689D01*
G01X95798Y11609D01*
G01X95961Y11545D01*
G01X96129Y11497D01*
G01X96301Y11467D01*
G01X96476Y11454D01*
G37*
G36*
G01X4203Y17500D02*
G01X4597Y17500D01*
G01X4607Y17500D01*
G01X4618Y17501D01*
G01X4628Y17502D01*
G01X4639Y17504D01*
G01X4649Y17506D01*
G01X4659Y17508D01*
G01X4669Y17511D01*
G01X4679Y17514D01*
G01X4689Y17517D01*
G01X4699Y17521D01*
G01X4708Y17526D01*
G01X4718Y17531D01*
G01X4727Y17536D01*
G01X4736Y17541D01*
G01X4744Y17547D01*
G01X4753Y17554D01*
G01X4761Y17560D01*
G01X4769Y17567D01*
G01X4777Y17574D01*
G01X4784Y17582D01*
G01X4791Y17590D01*
G01X4797Y17598D01*
G01X4804Y17607D01*
G01X4810Y17615D01*
G01X4815Y17624D01*
G01X4820Y17633D01*
G01X4825Y17643D01*
G01X4830Y17652D01*
G01X4834Y17662D01*
G01X4837Y17672D01*
G01X4840Y17682D01*
G01X4843Y17692D01*
G01X4845Y17702D01*
G01X4847Y17712D01*
G01X4849Y17723D01*
G01X4850Y17733D01*
G01X4851Y17744D01*
G01X4851Y17754D01*
G01X4851Y18148D01*
G01X4203Y18148D01*
G01X4203Y17500D01*
G37*
G36*
G01X3022Y17500D02*
G01X3416Y17500D01*
G01X3416Y18148D01*
G01X2768Y18148D01*
G01X2768Y17754D01*
G01X2768Y17744D01*
G01X2769Y17733D01*
G01X2770Y17723D01*
G01X2772Y17712D01*
G01X2774Y17702D01*
G01X2776Y17692D01*
G01X2779Y17682D01*
G01X2782Y17672D01*
G01X2785Y17662D01*
G01X2789Y17652D01*
G01X2794Y17643D01*
G01X2799Y17633D01*
G01X2804Y17624D01*
G01X2809Y17615D01*
G01X2815Y17607D01*
G01X2822Y17598D01*
G01X2828Y17590D01*
G01X2835Y17582D01*
G01X2842Y17574D01*
G01X2850Y17567D01*
G01X2858Y17560D01*
G01X2866Y17554D01*
G01X2875Y17547D01*
G01X2883Y17541D01*
G01X2892Y17536D01*
G01X2901Y17531D01*
G01X2911Y17526D01*
G01X2920Y17521D01*
G01X2930Y17517D01*
G01X2940Y17514D01*
G01X2950Y17511D01*
G01X2960Y17508D01*
G01X2970Y17506D01*
G01X2980Y17504D01*
G01X2991Y17502D01*
G01X3001Y17501D01*
G01X3012Y17500D01*
G01X3022Y17500D01*
G37*
G36*
G01X6324Y17500D02*
G01X6427Y17503D01*
G01X6530Y17516D01*
G01X6632Y17539D01*
G01X6730Y17572D01*
G01X6825Y17615D01*
G01X6914Y17667D01*
G01X6999Y17727D01*
G01X7077Y17796D01*
G01X7147Y17872D01*
G01X7210Y17955D01*
G01X7264Y18043D01*
G01X7309Y18137D01*
G01X7345Y18235D01*
G01X7370Y18335D01*
G01X7386Y18438D01*
G01X7391Y18542D01*
G01X7386Y18645D01*
G01X7370Y18748D01*
G01X7345Y18848D01*
G01X7309Y18946D01*
G01X7264Y19040D01*
G01X7210Y19128D01*
G01X7147Y19211D01*
G01X7077Y19287D01*
G01X6999Y19356D01*
G01X6914Y19416D01*
G01X6825Y19468D01*
G01X6730Y19511D01*
G01X6632Y19544D01*
G01X6530Y19567D01*
G01X6427Y19580D01*
G01X6324Y19583D01*
G01X6220Y19575D01*
G01X6118Y19557D01*
G01X6018Y19529D01*
G01X5921Y19491D01*
G01X5829Y19443D01*
G01X5742Y19387D01*
G01X5660Y19322D01*
G01X5586Y19250D01*
G01X5519Y19170D01*
G01X5461Y19085D01*
G01X5411Y18993D01*
G01X5371Y18898D01*
G01X5340Y18798D01*
G01X5320Y18697D01*
G01X5309Y18593D01*
G01X5309Y18490D01*
G01X5320Y18386D01*
G01X5340Y18285D01*
G01X5371Y18185D01*
G01X5411Y18090D01*
G01X5461Y17998D01*
G01X5519Y17913D01*
G01X5586Y17833D01*
G01X5660Y17761D01*
G01X5742Y17696D01*
G01X5829Y17640D01*
G01X5921Y17592D01*
G01X6018Y17554D01*
G01X6118Y17526D01*
G01X6220Y17508D01*
G01X6324Y17500D01*
G37*
G36*
G01X8864Y17500D02*
G01X8967Y17503D01*
G01X9070Y17516D01*
G01X9172Y17539D01*
G01X9270Y17572D01*
G01X9365Y17615D01*
G01X9454Y17667D01*
G01X9539Y17727D01*
G01X9617Y17796D01*
G01X9687Y17872D01*
G01X9750Y17955D01*
G01X9804Y18043D01*
G01X9849Y18137D01*
G01X9885Y18235D01*
G01X9910Y18335D01*
G01X9926Y18438D01*
G01X9931Y18542D01*
G01X9926Y18645D01*
G01X9910Y18748D01*
G01X9885Y18848D01*
G01X9849Y18946D01*
G01X9804Y19040D01*
G01X9750Y19128D01*
G01X9687Y19211D01*
G01X9617Y19287D01*
G01X9539Y19356D01*
G01X9454Y19416D01*
G01X9365Y19468D01*
G01X9270Y19511D01*
G01X9172Y19544D01*
G01X9070Y19567D01*
G01X8967Y19580D01*
G01X8864Y19583D01*
G01X8760Y19575D01*
G01X8658Y19557D01*
G01X8558Y19529D01*
G01X8461Y19491D01*
G01X8369Y19443D01*
G01X8282Y19387D01*
G01X8200Y19322D01*
G01X8126Y19250D01*
G01X8059Y19170D01*
G01X8001Y19085D01*
G01X7951Y18993D01*
G01X7911Y18898D01*
G01X7880Y18798D01*
G01X7860Y18697D01*
G01X7849Y18593D01*
G01X7849Y18490D01*
G01X7860Y18386D01*
G01X7880Y18285D01*
G01X7911Y18185D01*
G01X7951Y18090D01*
G01X8001Y17998D01*
G01X8059Y17913D01*
G01X8126Y17833D01*
G01X8200Y17761D01*
G01X8282Y17696D01*
G01X8369Y17640D01*
G01X8461Y17592D01*
G01X8558Y17554D01*
G01X8658Y17526D01*
G01X8760Y17508D01*
G01X8864Y17500D01*
G37*
G36*
G01X92849Y17754D02*
G01X93243Y17754D01*
G01X93253Y17754D01*
G01X93264Y17755D01*
G01X93274Y17756D01*
G01X93285Y17758D01*
G01X93295Y17760D01*
G01X93305Y17762D01*
G01X93315Y17765D01*
G01X93325Y17768D01*
G01X93335Y17771D01*
G01X93345Y17775D01*
G01X93354Y17780D01*
G01X93364Y17785D01*
G01X93373Y17790D01*
G01X93382Y17795D01*
G01X93390Y17801D01*
G01X93399Y17808D01*
G01X93407Y17814D01*
G01X93415Y17821D01*
G01X93423Y17828D01*
G01X93430Y17836D01*
G01X93437Y17844D01*
G01X93443Y17852D01*
G01X93450Y17861D01*
G01X93456Y17869D01*
G01X93461Y17878D01*
G01X93466Y17887D01*
G01X93471Y17897D01*
G01X93476Y17906D01*
G01X93480Y17916D01*
G01X93483Y17926D01*
G01X93486Y17936D01*
G01X93489Y17946D01*
G01X93491Y17956D01*
G01X93493Y17966D01*
G01X93495Y17977D01*
G01X93496Y17987D01*
G01X93497Y17998D01*
G01X93497Y18008D01*
G01X93497Y18402D01*
G01X92849Y18402D01*
G01X92849Y17754D01*
G37*
G36*
G01X91668Y17754D02*
G01X92062Y17754D01*
G01X92062Y18402D01*
G01X91414Y18402D01*
G01X91414Y18008D01*
G01X91414Y17998D01*
G01X91415Y17987D01*
G01X91416Y17977D01*
G01X91418Y17966D01*
G01X91420Y17956D01*
G01X91422Y17946D01*
G01X91425Y17936D01*
G01X91428Y17926D01*
G01X91431Y17916D01*
G01X91435Y17906D01*
G01X91440Y17897D01*
G01X91445Y17887D01*
G01X91450Y17878D01*
G01X91455Y17869D01*
G01X91461Y17861D01*
G01X91468Y17852D01*
G01X91474Y17844D01*
G01X91481Y17836D01*
G01X91488Y17828D01*
G01X91496Y17821D01*
G01X91504Y17814D01*
G01X91512Y17808D01*
G01X91521Y17801D01*
G01X91529Y17795D01*
G01X91538Y17790D01*
G01X91547Y17785D01*
G01X91557Y17780D01*
G01X91566Y17775D01*
G01X91576Y17771D01*
G01X91586Y17768D01*
G01X91596Y17765D01*
G01X91606Y17762D01*
G01X91616Y17760D01*
G01X91626Y17758D01*
G01X91637Y17756D01*
G01X91647Y17755D01*
G01X91658Y17754D01*
G01X91668Y17754D01*
G37*
G36*
G01X94970Y17754D02*
G01X95073Y17757D01*
G01X95176Y17770D01*
G01X95278Y17793D01*
G01X95376Y17826D01*
G01X95471Y17869D01*
G01X95560Y17921D01*
G01X95645Y17981D01*
G01X95723Y18050D01*
G01X95793Y18126D01*
G01X95856Y18209D01*
G01X95910Y18297D01*
G01X95955Y18391D01*
G01X95991Y18489D01*
G01X96016Y18589D01*
G01X96032Y18692D01*
G01X96037Y18796D01*
G01X96032Y18899D01*
G01X96016Y19002D01*
G01X95991Y19102D01*
G01X95955Y19200D01*
G01X95910Y19294D01*
G01X95856Y19382D01*
G01X95793Y19465D01*
G01X95723Y19541D01*
G01X95645Y19610D01*
G01X95560Y19670D01*
G01X95471Y19722D01*
G01X95376Y19765D01*
G01X95278Y19798D01*
G01X95176Y19821D01*
G01X95073Y19834D01*
G01X94970Y19837D01*
G01X94866Y19829D01*
G01X94764Y19811D01*
G01X94664Y19783D01*
G01X94567Y19745D01*
G01X94475Y19697D01*
G01X94388Y19641D01*
G01X94306Y19576D01*
G01X94232Y19504D01*
G01X94165Y19424D01*
G01X94107Y19339D01*
G01X94057Y19247D01*
G01X94017Y19152D01*
G01X93986Y19052D01*
G01X93966Y18951D01*
G01X93955Y18847D01*
G01X93955Y18744D01*
G01X93966Y18640D01*
G01X93986Y18539D01*
G01X94017Y18439D01*
G01X94057Y18344D01*
G01X94107Y18252D01*
G01X94165Y18167D01*
G01X94232Y18087D01*
G01X94306Y18015D01*
G01X94388Y17950D01*
G01X94475Y17894D01*
G01X94567Y17846D01*
G01X94664Y17808D01*
G01X94764Y17780D01*
G01X94866Y17762D01*
G01X94970Y17754D01*
G37*
G36*
G01X97510Y17754D02*
G01X97613Y17757D01*
G01X97716Y17770D01*
G01X97818Y17793D01*
G01X97916Y17826D01*
G01X98011Y17869D01*
G01X98100Y17921D01*
G01X98185Y17981D01*
G01X98263Y18050D01*
G01X98333Y18126D01*
G01X98396Y18209D01*
G01X98450Y18297D01*
G01X98495Y18391D01*
G01X98531Y18489D01*
G01X98556Y18589D01*
G01X98572Y18692D01*
G01X98577Y18796D01*
G01X98572Y18899D01*
G01X98556Y19002D01*
G01X98531Y19102D01*
G01X98495Y19200D01*
G01X98450Y19294D01*
G01X98396Y19382D01*
G01X98333Y19465D01*
G01X98263Y19541D01*
G01X98185Y19610D01*
G01X98100Y19670D01*
G01X98011Y19722D01*
G01X97916Y19765D01*
G01X97818Y19798D01*
G01X97716Y19821D01*
G01X97613Y19834D01*
G01X97510Y19837D01*
G01X97406Y19829D01*
G01X97304Y19811D01*
G01X97204Y19783D01*
G01X97107Y19745D01*
G01X97095Y19739D01*
G01X94602Y22232D01*
G01X94593Y22241D01*
G01X94583Y22249D01*
G01X94573Y22257D01*
G01X94563Y22265D01*
G01X94553Y22273D01*
G01X94543Y22280D01*
G01X94532Y22286D01*
G01X94521Y22293D01*
G01X94509Y22299D01*
G01X94498Y22304D01*
G01X94486Y22309D01*
G01X94475Y22314D01*
G01X94463Y22318D01*
G01X94450Y22322D01*
G01X94438Y22325D01*
G01X94426Y22328D01*
G01X94413Y22331D01*
G01X94401Y22333D01*
G01X94388Y22334D01*
G01X94376Y22335D01*
G01X94363Y22336D01*
G01X94350Y22336D01*
G01X91569Y22336D01*
G01X80055Y33850D01*
G01X83502Y33850D01*
G01X91188Y26164D01*
G01X91197Y26155D01*
G01X91207Y26147D01*
G01X91216Y26139D01*
G01X91226Y26131D01*
G01X91237Y26123D01*
G01X91247Y26116D01*
G01X91258Y26110D01*
G01X91269Y26103D01*
G01X91280Y26098D01*
G01X91292Y26092D01*
G01X91303Y26087D01*
G01X91315Y26082D01*
G01X91327Y26078D01*
G01X91339Y26074D01*
G01X91352Y26071D01*
G01X91364Y26068D01*
G01X91376Y26066D01*
G01X91389Y26064D01*
G01X91402Y26062D01*
G01X91414Y26061D01*
G01X91427Y26060D01*
G01X91440Y26060D01*
G01X94848Y26060D01*
G01X96592Y24316D01*
G01X96557Y24232D01*
G01X96526Y24132D01*
G01X96506Y24031D01*
G01X96495Y23927D01*
G01X96495Y23824D01*
G01X96506Y23720D01*
G01X96526Y23619D01*
G01X96557Y23519D01*
G01X96597Y23424D01*
G01X96647Y23332D01*
G01X96705Y23247D01*
G01X96772Y23167D01*
G01X96846Y23095D01*
G01X96928Y23030D01*
G01X97015Y22974D01*
G01X97107Y22926D01*
G01X97204Y22888D01*
G01X97304Y22860D01*
G01X97406Y22842D01*
G01X97510Y22834D01*
G01X97613Y22837D01*
G01X97716Y22850D01*
G01X97818Y22873D01*
G01X97916Y22906D01*
G01X98011Y22949D01*
G01X98100Y23001D01*
G01X98185Y23061D01*
G01X98263Y23130D01*
G01X98333Y23206D01*
G01X98396Y23289D01*
G01X98450Y23377D01*
G01X98495Y23471D01*
G01X98531Y23569D01*
G01X98556Y23669D01*
G01X98572Y23772D01*
G01X98577Y23876D01*
G01X98572Y23979D01*
G01X98556Y24082D01*
G01X98531Y24182D01*
G01X98495Y24280D01*
G01X98450Y24374D01*
G01X98396Y24462D01*
G01X98333Y24545D01*
G01X98263Y24621D01*
G01X98185Y24690D01*
G01X98100Y24750D01*
G01X98011Y24802D01*
G01X97916Y24845D01*
G01X97818Y24878D01*
G01X97716Y24901D01*
G01X97613Y24914D01*
G01X97510Y24917D01*
G01X97406Y24909D01*
G01X97304Y24891D01*
G01X97204Y24863D01*
G01X97107Y24825D01*
G01X97095Y24819D01*
G01X95247Y26667D01*
G01X95238Y26676D01*
G01X95228Y26684D01*
G01X95219Y26692D01*
G01X95209Y26700D01*
G01X95198Y26708D01*
G01X95188Y26715D01*
G01X95177Y26721D01*
G01X95166Y26728D01*
G01X95155Y26733D01*
G01X95143Y26739D01*
G01X95132Y26744D01*
G01X95120Y26749D01*
G01X95108Y26753D01*
G01X95096Y26757D01*
G01X95083Y26760D01*
G01X95071Y26763D01*
G01X95059Y26765D01*
G01X95046Y26767D01*
G01X95033Y26769D01*
G01X95021Y26770D01*
G01X95008Y26771D01*
G01X94996Y26771D01*
G01X91587Y26771D01*
G01X84124Y34234D01*
G01X87114Y34234D01*
G01X87127Y34234D01*
G01X87139Y34235D01*
G01X87152Y34236D01*
G01X87164Y34237D01*
G01X87177Y34239D01*
G01X87189Y34242D01*
G01X87202Y34245D01*
G01X87214Y34248D01*
G01X87226Y34252D01*
G01X87238Y34256D01*
G01X87250Y34261D01*
G01X87262Y34266D01*
G01X87273Y34271D01*
G01X87284Y34277D01*
G01X87295Y34283D01*
G01X87306Y34290D01*
G01X87317Y34297D01*
G01X87327Y34305D01*
G01X87337Y34312D01*
G01X87347Y34321D01*
G01X87356Y34329D01*
G01X87365Y34338D01*
G01X88112Y35085D01*
G01X88112Y34772D01*
G01X88112Y34762D01*
G01X88113Y34751D01*
G01X88114Y34741D01*
G01X88116Y34730D01*
G01X88118Y34720D01*
G01X88120Y34710D01*
G01X88123Y34700D01*
G01X88126Y34690D01*
G01X88129Y34680D01*
G01X88133Y34670D01*
G01X88138Y34661D01*
G01X88143Y34651D01*
G01X88148Y34642D01*
G01X88153Y34633D01*
G01X88159Y34625D01*
G01X88166Y34616D01*
G01X88172Y34608D01*
G01X88179Y34600D01*
G01X88186Y34592D01*
G01X88194Y34585D01*
G01X88202Y34578D01*
G01X88210Y34572D01*
G01X88219Y34565D01*
G01X88227Y34559D01*
G01X88236Y34554D01*
G01X88245Y34549D01*
G01X88255Y34544D01*
G01X88264Y34539D01*
G01X88274Y34535D01*
G01X88284Y34532D01*
G01X88294Y34529D01*
G01X88304Y34526D01*
G01X88314Y34524D01*
G01X88324Y34522D01*
G01X88335Y34520D01*
G01X88345Y34519D01*
G01X88356Y34518D01*
G01X88366Y34518D01*
G01X89941Y34518D01*
G01X89951Y34518D01*
G01X89962Y34519D01*
G01X89972Y34520D01*
G01X89983Y34522D01*
G01X89993Y34524D01*
G01X90003Y34526D01*
G01X90013Y34529D01*
G01X90023Y34532D01*
G01X90033Y34535D01*
G01X90043Y34539D01*
G01X90052Y34544D01*
G01X90062Y34549D01*
G01X90071Y34554D01*
G01X90080Y34559D01*
G01X90088Y34565D01*
G01X90097Y34572D01*
G01X90105Y34578D01*
G01X90113Y34585D01*
G01X90121Y34592D01*
G01X90128Y34600D01*
G01X90135Y34608D01*
G01X90141Y34616D01*
G01X90148Y34625D01*
G01X90154Y34633D01*
G01X90159Y34642D01*
G01X90164Y34651D01*
G01X90169Y34661D01*
G01X90174Y34670D01*
G01X90178Y34680D01*
G01X90181Y34690D01*
G01X90184Y34700D01*
G01X90187Y34710D01*
G01X90189Y34720D01*
G01X90191Y34730D01*
G01X90193Y34741D01*
G01X90194Y34751D01*
G01X90195Y34762D01*
G01X90195Y34772D01*
G01X90195Y35008D01*
G01X95236Y29967D01*
G01X95176Y29981D01*
G01X95073Y29994D01*
G01X94970Y29997D01*
G01X94866Y29989D01*
G01X94764Y29971D01*
G01X94664Y29943D01*
G01X94567Y29905D01*
G01X94475Y29857D01*
G01X94388Y29801D01*
G01X94306Y29736D01*
G01X94232Y29664D01*
G01X94165Y29584D01*
G01X94107Y29499D01*
G01X94057Y29407D01*
G01X94017Y29312D01*
G01X93986Y29212D01*
G01X93966Y29111D01*
G01X93955Y29007D01*
G01X93955Y28904D01*
G01X93966Y28800D01*
G01X93986Y28699D01*
G01X94017Y28599D01*
G01X94057Y28504D01*
G01X94107Y28412D01*
G01X94165Y28327D01*
G01X94232Y28247D01*
G01X94306Y28175D01*
G01X94388Y28110D01*
G01X94475Y28054D01*
G01X94567Y28006D01*
G01X94664Y27968D01*
G01X94764Y27940D01*
G01X94866Y27922D01*
G01X94970Y27914D01*
G01X95073Y27917D01*
G01X95176Y27930D01*
G01X95278Y27953D01*
G01X95376Y27986D01*
G01X95471Y28029D01*
G01X95560Y28081D01*
G01X95645Y28141D01*
G01X95723Y28210D01*
G01X95793Y28286D01*
G01X95856Y28369D01*
G01X95910Y28457D01*
G01X95955Y28551D01*
G01X95991Y28649D01*
G01X96016Y28749D01*
G01X96032Y28852D01*
G01X96037Y28956D01*
G01X96032Y29059D01*
G01X96016Y29162D01*
G01X96008Y29196D01*
G01X96499Y28704D01*
G01X96508Y28695D01*
G01X96518Y28687D01*
G01X96528Y28679D01*
G01X96534Y28674D01*
G01X96557Y28599D01*
G01X96597Y28504D01*
G01X96647Y28412D01*
G01X96705Y28327D01*
G01X96772Y28247D01*
G01X96846Y28175D01*
G01X96928Y28110D01*
G01X97015Y28054D01*
G01X97107Y28006D01*
G01X97204Y27968D01*
G01X97304Y27940D01*
G01X97406Y27922D01*
G01X97510Y27914D01*
G01X97613Y27917D01*
G01X97716Y27930D01*
G01X97818Y27953D01*
G01X97916Y27986D01*
G01X98011Y28029D01*
G01X98100Y28081D01*
G01X98185Y28141D01*
G01X98263Y28210D01*
G01X98333Y28286D01*
G01X98396Y28369D01*
G01X98450Y28457D01*
G01X98495Y28551D01*
G01X98531Y28649D01*
G01X98556Y28749D01*
G01X98572Y28852D01*
G01X98577Y28956D01*
G01X98572Y29059D01*
G01X98556Y29162D01*
G01X98531Y29262D01*
G01X98495Y29360D01*
G01X98450Y29454D01*
G01X98396Y29542D01*
G01X98333Y29625D01*
G01X98263Y29701D01*
G01X98185Y29770D01*
G01X98100Y29830D01*
G01X98011Y29882D01*
G01X97916Y29925D01*
G01X97818Y29958D01*
G01X97716Y29981D01*
G01X97613Y29994D01*
G01X97510Y29997D01*
G01X97406Y29989D01*
G01X97304Y29971D01*
G01X97204Y29943D01*
G01X97107Y29905D01*
G01X97015Y29857D01*
G01X96928Y29801D01*
G01X96846Y29736D01*
G01X96772Y29664D01*
G01X96705Y29584D01*
G01X96673Y29536D01*
G01X91300Y34909D01*
G01X91300Y35166D01*
G01X91043Y35166D01*
G01X90583Y35625D01*
G01X90583Y36550D01*
G01X90583Y36563D01*
G01X90583Y36575D01*
G01X90581Y36588D01*
G01X90580Y36601D01*
G01X90578Y36613D01*
G01X90575Y36626D01*
G01X90572Y36638D01*
G01X90569Y36650D01*
G01X90567Y36657D01*
G01X92633Y36657D01*
G01X93290Y36000D01*
G01X93255Y35916D01*
G01X93224Y35816D01*
G01X93204Y35715D01*
G01X93193Y35611D01*
G01X93193Y35508D01*
G01X93204Y35404D01*
G01X93224Y35303D01*
G01X93255Y35203D01*
G01X93295Y35108D01*
G01X93345Y35016D01*
G01X93403Y34931D01*
G01X93470Y34851D01*
G01X93544Y34779D01*
G01X93626Y34714D01*
G01X93713Y34658D01*
G01X93805Y34610D01*
G01X93902Y34572D01*
G01X94002Y34544D01*
G01X94104Y34526D01*
G01X94208Y34518D01*
G01X94311Y34521D01*
G01X94414Y34534D01*
G01X94516Y34557D01*
G01X94614Y34590D01*
G01X94709Y34633D01*
G01X94798Y34685D01*
G01X94883Y34745D01*
G01X94961Y34814D01*
G01X95031Y34890D01*
G01X95094Y34973D01*
G01X95148Y35061D01*
G01X95193Y35155D01*
G01X95229Y35253D01*
G01X95254Y35353D01*
G01X95270Y35456D01*
G01X95275Y35560D01*
G01X95270Y35663D01*
G01X95254Y35766D01*
G01X95229Y35866D01*
G01X95193Y35964D01*
G01X95148Y36058D01*
G01X95094Y36146D01*
G01X95031Y36229D01*
G01X94961Y36305D01*
G01X94883Y36374D01*
G01X94798Y36434D01*
G01X94709Y36486D01*
G01X94614Y36529D01*
G01X94516Y36562D01*
G01X94414Y36585D01*
G01X94311Y36598D01*
G01X94208Y36601D01*
G01X94104Y36593D01*
G01X94002Y36575D01*
G01X93902Y36547D01*
G01X93805Y36509D01*
G01X93793Y36503D01*
G01X93235Y37061D01*
G01X94769Y37061D01*
G01X95830Y36000D01*
G01X95795Y35916D01*
G01X95764Y35816D01*
G01X95744Y35715D01*
G01X95733Y35611D01*
G01X95733Y35508D01*
G01X95744Y35404D01*
G01X95764Y35303D01*
G01X95795Y35203D01*
G01X95835Y35108D01*
G01X95885Y35016D01*
G01X95943Y34931D01*
G01X96010Y34851D01*
G01X96084Y34779D01*
G01X96166Y34714D01*
G01X96253Y34658D01*
G01X96345Y34610D01*
G01X96442Y34572D01*
G01X96542Y34544D01*
G01X96644Y34526D01*
G01X96748Y34518D01*
G01X96851Y34521D01*
G01X96954Y34534D01*
G01X97056Y34557D01*
G01X97154Y34590D01*
G01X97249Y34633D01*
G01X97338Y34685D01*
G01X97423Y34745D01*
G01X97501Y34814D01*
G01X97571Y34890D01*
G01X97634Y34973D01*
G01X97688Y35061D01*
G01X97733Y35155D01*
G01X97769Y35253D01*
G01X97794Y35353D01*
G01X97810Y35456D01*
G01X97815Y35560D01*
G01X97810Y35663D01*
G01X97794Y35766D01*
G01X97769Y35866D01*
G01X97733Y35964D01*
G01X97688Y36058D01*
G01X97634Y36146D01*
G01X97571Y36229D01*
G01X97501Y36305D01*
G01X97423Y36374D01*
G01X97338Y36434D01*
G01X97249Y36486D01*
G01X97154Y36529D01*
G01X97056Y36562D01*
G01X96954Y36585D01*
G01X96851Y36598D01*
G01X96748Y36601D01*
G01X96644Y36593D01*
G01X96542Y36575D01*
G01X96442Y36547D01*
G01X96345Y36509D01*
G01X96333Y36503D01*
G01X95168Y37668D01*
G01X95159Y37676D01*
G01X95150Y37685D01*
G01X95140Y37693D01*
G01X95130Y37701D01*
G01X95120Y37708D01*
G01X95109Y37715D01*
G01X95098Y37722D01*
G01X95087Y37728D01*
G01X95076Y37734D01*
G01X95064Y37740D01*
G01X95053Y37745D01*
G01X95041Y37749D01*
G01X95029Y37754D01*
G01X95017Y37757D01*
G01X95005Y37761D01*
G01X94992Y37764D01*
G01X94980Y37766D01*
G01X94967Y37768D01*
G01X94955Y37770D01*
G01X94942Y37771D01*
G01X94929Y37772D01*
G01X94917Y37772D01*
G01X87952Y37772D01*
G01X87939Y37772D01*
G01X87927Y37771D01*
G01X87914Y37770D01*
G01X87902Y37768D01*
G01X87889Y37766D01*
G01X87877Y37764D01*
G01X87864Y37761D01*
G01X87852Y37757D01*
G01X87840Y37754D01*
G01X87828Y37749D01*
G01X87816Y37745D01*
G01X87805Y37740D01*
G01X87793Y37734D01*
G01X87782Y37728D01*
G01X87771Y37722D01*
G01X87760Y37715D01*
G01X87750Y37708D01*
G01X87739Y37701D01*
G01X87729Y37693D01*
G01X87719Y37685D01*
G01X87710Y37677D01*
G01X87701Y37668D01*
G01X86405Y36375D01*
G01X70914Y36375D01*
G01X71112Y36573D01*
G01X71157Y36550D01*
G01X71263Y36508D01*
G01X71373Y36477D01*
G01X71485Y36457D01*
G01X71599Y36449D01*
G01X71713Y36452D01*
G01X71826Y36466D01*
G01X71937Y36491D01*
G01X72045Y36528D01*
G01X72149Y36574D01*
G01X72248Y36631D01*
G01X72340Y36698D01*
G01X72426Y36773D01*
G01X72503Y36857D01*
G01X72572Y36948D01*
G01X72631Y37045D01*
G01X72681Y37148D01*
G01X72713Y37236D01*
G01X85852Y37236D01*
G01X85864Y37236D01*
G01X85877Y37237D01*
G01X85889Y37238D01*
G01X85902Y37240D01*
G01X85915Y37242D01*
G01X85927Y37244D01*
G01X85939Y37247D01*
G01X85952Y37250D01*
G01X85964Y37254D01*
G01X85976Y37258D01*
G01X85988Y37263D01*
G01X85999Y37268D01*
G01X86011Y37274D01*
G01X86022Y37279D01*
G01X86033Y37286D01*
G01X86044Y37292D01*
G01X86054Y37299D01*
G01X86065Y37307D01*
G01X86075Y37315D01*
G01X86084Y37323D01*
G01X86094Y37331D01*
G01X86103Y37340D01*
G01X89716Y40953D01*
G01X89801Y40899D01*
G01X89956Y40819D01*
G01X90119Y40755D01*
G01X90287Y40707D01*
G01X90459Y40677D01*
G01X90634Y40664D01*
G01X90809Y40668D01*
G01X90982Y40690D01*
G01X91153Y40729D01*
G01X91318Y40785D01*
G01X91478Y40857D01*
G01X91629Y40944D01*
G01X91771Y41046D01*
G01X91902Y41162D01*
G01X92021Y41290D01*
G01X92127Y41429D01*
G01X92218Y41579D01*
G01X92294Y41736D01*
G01X92354Y41901D01*
G01X92397Y42070D01*
G01X92423Y42243D01*
G01X92431Y42418D01*
G01X92423Y42592D01*
G01X92397Y42765D01*
G01X92354Y42934D01*
G01X92294Y43099D01*
G01X92218Y43256D01*
G01X92127Y43406D01*
G01X92021Y43545D01*
G01X91902Y43673D01*
G01X91771Y43789D01*
G01X91629Y43891D01*
G01X91478Y43978D01*
G01X91318Y44050D01*
G01X91153Y44106D01*
G01X90982Y44145D01*
G01X90809Y44167D01*
G01X90634Y44171D01*
G01X90459Y44158D01*
G01X90287Y44128D01*
G01X90119Y44080D01*
G01X89956Y44016D01*
G01X89800Y43936D01*
G01X89654Y43842D01*
G01X89517Y43733D01*
G01X89392Y43611D01*
G01X89279Y43477D01*
G01X89181Y43332D01*
G01X89097Y43179D01*
G01X89029Y43017D01*
G01X88978Y42850D01*
G01X88943Y42679D01*
G01X88926Y42505D01*
G01X88926Y42330D01*
G01X88943Y42156D01*
G01X88978Y41985D01*
G01X89029Y41818D01*
G01X89097Y41656D01*
G01X89181Y41503D01*
G01X89213Y41456D01*
G01X85704Y37947D01*
G01X72713Y37947D01*
G01X72681Y38035D01*
G01X72631Y38138D01*
G01X72572Y38235D01*
G01X72503Y38326D01*
G01X72426Y38410D01*
G01X72340Y38485D01*
G01X72248Y38552D01*
G01X72149Y38609D01*
G01X72045Y38655D01*
G01X71937Y38692D01*
G01X71838Y38714D01*
G01X75138Y38714D01*
G01X75150Y38715D01*
G01X75163Y38715D01*
G01X75176Y38716D01*
G01X75188Y38718D01*
G01X75201Y38720D01*
G01X75213Y38722D01*
G01X75226Y38725D01*
G01X75238Y38729D01*
G01X75250Y38732D01*
G01X75262Y38737D01*
G01X75274Y38741D01*
G01X75285Y38746D01*
G01X75297Y38752D01*
G01X75308Y38758D01*
G01X75319Y38764D01*
G01X75330Y38771D01*
G01X75341Y38778D01*
G01X75351Y38785D01*
G01X75361Y38793D01*
G01X75371Y38801D01*
G01X75380Y38810D01*
G01X75389Y38818D01*
G01X81452Y44881D01*
G01X81500Y44863D01*
G01X81586Y44838D01*
G01X81675Y44822D01*
G01X81765Y44816D01*
G01X81855Y44818D01*
G01X81944Y44829D01*
G01X82032Y44849D01*
G01X82118Y44878D01*
G01X82200Y44915D01*
G01X82278Y44960D01*
G01X82351Y45013D01*
G01X82419Y45072D01*
G01X82480Y45138D01*
G01X82534Y45210D01*
G01X82581Y45287D01*
G01X82621Y45368D01*
G01X82641Y45424D01*
G01X82645Y45410D01*
G01X82680Y45327D01*
G01X82723Y45248D01*
G01X82774Y45174D01*
G01X82832Y45105D01*
G01X82896Y45042D01*
G01X82967Y44985D01*
G01X83042Y44937D01*
G01X83123Y44895D01*
G01X83206Y44863D01*
G01X83293Y44838D01*
G01X83382Y44822D01*
G01X83472Y44816D01*
G01X83562Y44818D01*
G01X83651Y44829D01*
G01X83739Y44849D01*
G01X83825Y44878D01*
G01X83907Y44915D01*
G01X83985Y44960D01*
G01X84058Y45013D01*
G01X84126Y45072D01*
G01X84187Y45138D01*
G01X84241Y45210D01*
G01X84288Y45287D01*
G01X84327Y45368D01*
G01X84358Y45453D01*
G01X84380Y45540D01*
G01X84394Y45629D01*
G01X84398Y45720D01*
G01X84394Y45810D01*
G01X84380Y45899D01*
G01X84358Y45986D01*
G01X84327Y46071D01*
G01X84288Y46152D01*
G01X84241Y46229D01*
G01X84187Y46301D01*
G01X84126Y46367D01*
G01X84058Y46426D01*
G01X83985Y46479D01*
G01X83907Y46524D01*
G01X83825Y46561D01*
G01X83739Y46590D01*
G01X83651Y46610D01*
G01X83562Y46621D01*
G01X83472Y46623D01*
G01X83382Y46617D01*
G01X83293Y46601D01*
G01X83206Y46576D01*
G01X83123Y46544D01*
G01X83042Y46502D01*
G01X82967Y46454D01*
G01X82896Y46397D01*
G01X82832Y46334D01*
G01X82774Y46265D01*
G01X82723Y46191D01*
G01X82680Y46112D01*
G01X82645Y46029D01*
G01X82641Y46015D01*
G01X82621Y46071D01*
G01X82581Y46152D01*
G01X82534Y46229D01*
G01X82480Y46301D01*
G01X82419Y46367D01*
G01X82351Y46426D01*
G01X82278Y46479D01*
G01X82200Y46524D01*
G01X82118Y46561D01*
G01X82032Y46590D01*
G01X81944Y46610D01*
G01X81855Y46621D01*
G01X81765Y46623D01*
G01X81675Y46617D01*
G01X81586Y46601D01*
G01X81500Y46576D01*
G01X81416Y46544D01*
G01X81335Y46502D01*
G01X81260Y46454D01*
G01X81189Y46397D01*
G01X81125Y46334D01*
G01X81067Y46265D01*
G01X81016Y46191D01*
G01X80973Y46112D01*
G01X80962Y46086D01*
G01X80930Y46152D01*
G01X80883Y46229D01*
G01X80829Y46301D01*
G01X80768Y46367D01*
G01X80700Y46426D01*
G01X80627Y46479D01*
G01X80549Y46524D01*
G01X80467Y46561D01*
G01X80461Y46563D01*
G01X80461Y46044D01*
G01X80945Y46044D01*
G01X80938Y46029D01*
G01X80911Y45943D01*
G01X80894Y45854D01*
G01X80885Y45765D01*
G01X80885Y45674D01*
G01X80894Y45585D01*
G01X80911Y45496D01*
G01X80938Y45410D01*
G01X80945Y45395D01*
G01X80461Y45395D01*
G01X80461Y44896D01*
G01X74991Y39425D01*
G01X71490Y39425D01*
G01X71487Y39429D01*
G01X71449Y39470D01*
G01X71407Y39507D01*
G01X71362Y39539D01*
G01X71314Y39567D01*
G01X71263Y39590D01*
G01X71210Y39608D01*
G01X71156Y39620D01*
G01X71100Y39627D01*
G01X71045Y39629D01*
G01X70989Y39624D01*
G01X70934Y39615D01*
G01X70881Y39600D01*
G01X70829Y39579D01*
G01X70779Y39554D01*
G01X70732Y39524D01*
G01X70689Y39489D01*
G01X70649Y39450D01*
G01X70613Y39407D01*
G01X70582Y39361D01*
G01X70555Y39312D01*
G01X70533Y39261D01*
G01X70517Y39208D01*
G01X70506Y39153D01*
G01X70500Y39098D01*
G01X70500Y39042D01*
G01X70506Y38986D01*
G01X70517Y38932D01*
G01X70533Y38879D01*
G01X70555Y38827D01*
G01X70582Y38778D01*
G01X70613Y38732D01*
G01X70649Y38690D01*
G01X70689Y38651D01*
G01X70732Y38616D01*
G01X70779Y38586D01*
G01X70829Y38560D01*
G01X70881Y38540D01*
G01X70934Y38525D01*
G01X70961Y38520D01*
G01X70960Y38520D01*
G01X70871Y38448D01*
G01X70790Y38369D01*
G01X70716Y38282D01*
G01X70652Y38188D01*
G01X70598Y38087D01*
G01X70553Y37982D01*
G01X70520Y37874D01*
G01X70497Y37762D01*
G01X70486Y37648D01*
G01X70486Y37535D01*
G01X70497Y37421D01*
G01X70520Y37309D01*
G01X70553Y37201D01*
G01X70598Y37096D01*
G01X70609Y37075D01*
G01X70292Y36758D01*
G01X69869Y36758D01*
G01X69886Y36773D01*
G01X69963Y36857D01*
G01X70032Y36948D01*
G01X70091Y37045D01*
G01X70140Y37147D01*
G01X69532Y37147D01*
G01X69532Y36758D01*
G01X68767Y36758D01*
G01X68643Y36883D01*
G01X68643Y37147D01*
G01X68379Y37147D01*
G01X68173Y37353D01*
G01X68173Y37985D01*
G01X68173Y37998D01*
G01X68172Y38011D01*
G01X68171Y38023D01*
G01X68169Y38036D01*
G01X68643Y38036D01*
G01X68643Y38643D01*
G01X68617Y38633D01*
G01X68516Y38581D01*
G01X68420Y38520D01*
G01X68331Y38448D01*
G01X68250Y38369D01*
G01X68176Y38282D01*
G01X68112Y38188D01*
G01X68111Y38186D01*
G01X68110Y38188D01*
G01X68102Y38198D01*
G01X68094Y38208D01*
G01X68086Y38218D01*
G01X68078Y38227D01*
G01X68069Y38237D01*
G01X66822Y39484D01*
G01X70065Y39484D01*
G01X70078Y39484D01*
G01X70091Y39485D01*
G01X70103Y39486D01*
G01X70116Y39488D01*
G01X70129Y39490D01*
G01X70141Y39492D01*
G01X70153Y39495D01*
G01X70166Y39498D01*
G01X70178Y39502D01*
G01X70190Y39506D01*
G01X70201Y39511D01*
G01X70213Y39516D01*
G01X70225Y39521D01*
G01X70236Y39527D01*
G01X70247Y39534D01*
G01X70258Y39540D01*
G01X70268Y39547D01*
G01X70278Y39555D01*
G01X70288Y39563D01*
G01X70298Y39571D01*
G01X70308Y39579D01*
G01X70317Y39588D01*
G01X85157Y54428D01*
G01X85169Y54422D01*
G01X85266Y54384D01*
G01X85366Y54356D01*
G01X85468Y54338D01*
G01X85572Y54330D01*
G01X85675Y54333D01*
G01X85778Y54346D01*
G01X85880Y54369D01*
G01X85978Y54402D01*
G01X86073Y54445D01*
G01X86162Y54497D01*
G01X86247Y54557D01*
G01X86325Y54626D01*
G01X86395Y54702D01*
G01X86458Y54785D01*
G01X86512Y54873D01*
G01X86557Y54967D01*
G01X86593Y55065D01*
G01X86618Y55165D01*
G01X86634Y55268D01*
G01X86639Y55372D01*
G01X86634Y55475D01*
G01X86618Y55578D01*
G01X86593Y55678D01*
G01X86557Y55776D01*
G01X86512Y55870D01*
G01X86458Y55958D01*
G01X86395Y56041D01*
G01X86325Y56117D01*
G01X86247Y56186D01*
G01X86162Y56246D01*
G01X86073Y56298D01*
G01X85978Y56341D01*
G01X85880Y56374D01*
G01X85778Y56397D01*
G01X85675Y56410D01*
G01X85572Y56413D01*
G01X85468Y56405D01*
G01X85366Y56387D01*
G01X85266Y56359D01*
G01X85169Y56321D01*
G01X85077Y56273D01*
G01X84990Y56217D01*
G01X84908Y56152D01*
G01X84834Y56080D01*
G01X84767Y56000D01*
G01X84709Y55915D01*
G01X84659Y55823D01*
G01X84619Y55728D01*
G01X84588Y55628D01*
G01X84568Y55527D01*
G01X84557Y55423D01*
G01X84557Y55320D01*
G01X84568Y55216D01*
G01X84588Y55115D01*
G01X84619Y55015D01*
G01X84654Y54931D01*
G01X69918Y40195D01*
G01X51015Y40195D01*
G01X51003Y40195D01*
G01X50990Y40194D01*
G01X50977Y40193D01*
G01X50965Y40191D01*
G01X50952Y40189D01*
G01X50940Y40187D01*
G01X50927Y40184D01*
G01X50915Y40180D01*
G01X50903Y40177D01*
G01X50891Y40172D01*
G01X50879Y40168D01*
G01X50868Y40163D01*
G01X50856Y40157D01*
G01X50845Y40151D01*
G01X50834Y40145D01*
G01X50823Y40138D01*
G01X50813Y40131D01*
G01X50802Y40124D01*
G01X50792Y40116D01*
G01X50783Y40108D01*
G01X50773Y40100D01*
G01X50764Y40091D01*
G01X49284Y38611D01*
G01X49185Y38655D01*
G01X49077Y38692D01*
G01X48966Y38717D01*
G01X48853Y38731D01*
G01X48739Y38734D01*
G01X48625Y38726D01*
G01X48513Y38706D01*
G01X48403Y38675D01*
G01X48297Y38633D01*
G01X48196Y38581D01*
G01X48100Y38520D01*
G01X48011Y38448D01*
G01X47930Y38369D01*
G01X47856Y38282D01*
G01X47792Y38188D01*
G01X47738Y38087D01*
G01X47693Y37982D01*
G01X47660Y37874D01*
G01X47637Y37762D01*
G01X47626Y37648D01*
G01X47626Y37535D01*
G01X47637Y37421D01*
G01X47660Y37309D01*
G01X47693Y37201D01*
G01X47738Y37096D01*
G01X47792Y36995D01*
G01X47856Y36901D01*
G01X47930Y36814D01*
G01X48011Y36735D01*
G01X48100Y36663D01*
G01X48146Y36634D01*
G01X46851Y36634D01*
G01X46940Y36698D01*
G01X47026Y36773D01*
G01X47103Y36857D01*
G01X47172Y36948D01*
G01X47231Y37045D01*
G01X47281Y37148D01*
G01X47320Y37255D01*
G01X47348Y37365D01*
G01X47365Y37478D01*
G01X47371Y37592D01*
G01X47365Y37705D01*
G01X47348Y37818D01*
G01X47320Y37928D01*
G01X47281Y38035D01*
G01X47246Y38107D01*
G01X51833Y42694D01*
G01X65953Y42694D01*
G01X65966Y42695D01*
G01X65979Y42695D01*
G01X65991Y42696D01*
G01X66004Y42698D01*
G01X66016Y42700D01*
G01X66029Y42703D01*
G01X66041Y42706D01*
G01X66053Y42709D01*
G01X66065Y42713D01*
G01X66077Y42717D01*
G01X66089Y42722D01*
G01X66101Y42727D01*
G01X66112Y42732D01*
G01X66124Y42738D01*
G01X66135Y42744D01*
G01X66145Y42751D01*
G01X66156Y42758D01*
G01X66166Y42765D01*
G01X66176Y42773D01*
G01X66186Y42781D01*
G01X66195Y42790D01*
G01X66205Y42799D01*
G01X79476Y56072D01*
G01X79476Y55765D01*
G01X80124Y55765D01*
G01X80124Y56413D01*
G01X79816Y56413D01*
G01X80688Y57284D01*
G01X82786Y57284D01*
G01X82798Y57284D01*
G01X82811Y57285D01*
G01X82824Y57286D01*
G01X82836Y57288D01*
G01X82849Y57290D01*
G01X82861Y57292D01*
G01X82874Y57295D01*
G01X82886Y57299D01*
G01X82898Y57302D01*
G01X82910Y57307D01*
G01X82922Y57311D01*
G01X82933Y57316D01*
G01X82945Y57322D01*
G01X82956Y57328D01*
G01X82967Y57334D01*
G01X82978Y57341D01*
G01X82988Y57348D01*
G01X82999Y57355D01*
G01X83009Y57363D01*
G01X83019Y57371D01*
G01X83028Y57380D01*
G01X83037Y57388D01*
G01X85157Y59508D01*
G01X85169Y59502D01*
G01X85266Y59464D01*
G01X85366Y59436D01*
G01X85468Y59418D01*
G01X85572Y59410D01*
G01X85675Y59413D01*
G01X85778Y59426D01*
G01X85880Y59449D01*
G01X85978Y59482D01*
G01X86073Y59525D01*
G01X86162Y59577D01*
G01X86247Y59637D01*
G01X86325Y59706D01*
G01X86395Y59782D01*
G01X86458Y59865D01*
G01X86512Y59953D01*
G01X86557Y60047D01*
G01X86593Y60145D01*
G01X86618Y60245D01*
G01X86634Y60348D01*
G01X86639Y60452D01*
G01X86634Y60555D01*
G01X86618Y60658D01*
G01X86593Y60758D01*
G01X86557Y60856D01*
G01X86512Y60950D01*
G01X86458Y61038D01*
G01X86395Y61121D01*
G01X86325Y61197D01*
G01X86247Y61266D01*
G01X86162Y61326D01*
G01X86073Y61378D01*
G01X85978Y61421D01*
G01X85880Y61454D01*
G01X85778Y61477D01*
G01X85675Y61490D01*
G01X85572Y61493D01*
G01X85468Y61485D01*
G01X85366Y61467D01*
G01X85266Y61439D01*
G01X85169Y61401D01*
G01X85077Y61353D01*
G01X84990Y61297D01*
G01X84908Y61232D01*
G01X84834Y61160D01*
G01X84767Y61080D01*
G01X84709Y60995D01*
G01X84659Y60903D01*
G01X84619Y60808D01*
G01X84588Y60708D01*
G01X84568Y60607D01*
G01X84557Y60503D01*
G01X84557Y60400D01*
G01X84568Y60296D01*
G01X84588Y60195D01*
G01X84619Y60095D01*
G01X84654Y60011D01*
G01X82638Y57995D01*
G01X80698Y57995D01*
G01X81904Y59202D01*
G01X81913Y59211D01*
G01X81922Y59220D01*
G01X81930Y59230D01*
G01X81937Y59240D01*
G01X81945Y59251D01*
G01X81952Y59261D01*
G01X81959Y59272D01*
G01X81965Y59283D01*
G01X81971Y59294D01*
G01X81976Y59306D01*
G01X81981Y59317D01*
G01X81986Y59329D01*
G01X81990Y59341D01*
G01X81994Y59353D01*
G01X81997Y59365D01*
G01X82000Y59378D01*
G01X82003Y59390D01*
G01X82005Y59403D01*
G01X82006Y59415D01*
G01X82007Y59428D01*
G01X82008Y59441D01*
G01X82008Y59453D01*
G01X82008Y61437D01*
G01X85157Y64588D01*
G01X85169Y64582D01*
G01X85266Y64544D01*
G01X85366Y64516D01*
G01X85468Y64498D01*
G01X85572Y64490D01*
G01X85675Y64493D01*
G01X85778Y64506D01*
G01X85880Y64529D01*
G01X85978Y64562D01*
G01X86073Y64605D01*
G01X86162Y64657D01*
G01X86247Y64717D01*
G01X86325Y64786D01*
G01X86395Y64862D01*
G01X86458Y64945D01*
G01X86512Y65033D01*
G01X86557Y65127D01*
G01X86593Y65225D01*
G01X86618Y65325D01*
G01X86634Y65428D01*
G01X86639Y65532D01*
G01X86634Y65635D01*
G01X86618Y65738D01*
G01X86593Y65838D01*
G01X86557Y65936D01*
G01X86512Y66030D01*
G01X86458Y66118D01*
G01X86395Y66201D01*
G01X86325Y66277D01*
G01X86247Y66346D01*
G01X86162Y66406D01*
G01X86073Y66458D01*
G01X85978Y66501D01*
G01X85880Y66534D01*
G01X85778Y66557D01*
G01X85675Y66570D01*
G01X85572Y66573D01*
G01X85468Y66565D01*
G01X85366Y66547D01*
G01X85266Y66519D01*
G01X85169Y66481D01*
G01X85077Y66433D01*
G01X84990Y66377D01*
G01X84908Y66312D01*
G01X84834Y66240D01*
G01X84767Y66160D01*
G01X84709Y66075D01*
G01X84659Y65983D01*
G01X84619Y65888D01*
G01X84588Y65788D01*
G01X84568Y65687D01*
G01X84557Y65583D01*
G01X84557Y65480D01*
G01X84568Y65376D01*
G01X84588Y65275D01*
G01X84619Y65175D01*
G01X84655Y65091D01*
G01X81401Y61836D01*
G01X81393Y61827D01*
G01X81384Y61817D01*
G01X81376Y61807D01*
G01X81368Y61797D01*
G01X81361Y61787D01*
G01X81354Y61776D01*
G01X81347Y61766D01*
G01X81341Y61755D01*
G01X81335Y61743D01*
G01X81329Y61732D01*
G01X81324Y61720D01*
G01X81320Y61709D01*
G01X81316Y61697D01*
G01X81312Y61684D01*
G01X81308Y61672D01*
G01X81306Y61660D01*
G01X81303Y61647D01*
G01X81301Y61635D01*
G01X81299Y61622D01*
G01X81298Y61610D01*
G01X81298Y61597D01*
G01X81297Y61584D01*
G01X81297Y61493D01*
G01X80911Y61493D01*
G01X80911Y60845D01*
G01X81297Y60845D01*
G01X81297Y60058D01*
G01X80911Y60058D01*
G01X80911Y59410D01*
G01X81107Y59410D01*
G01X70657Y48960D01*
G01X67380Y48960D01*
G01X70485Y52065D01*
G01X70485Y51943D01*
G01X70485Y51932D01*
G01X70485Y51922D01*
G01X70486Y51911D01*
G01X70488Y51901D01*
G01X70490Y51890D01*
G01X70492Y51880D01*
G01X70495Y51870D01*
G01X70498Y51860D01*
G01X70502Y51850D01*
G01X70506Y51840D01*
G01X70510Y51831D01*
G01X70515Y51822D01*
G01X70520Y51812D01*
G01X70526Y51804D01*
G01X70532Y51795D01*
G01X70538Y51786D01*
G01X70545Y51778D01*
G01X70552Y51770D01*
G01X70559Y51763D01*
G01X70566Y51756D01*
G01X70574Y51749D01*
G01X70582Y51742D01*
G01X70591Y51736D01*
G01X70600Y51730D01*
G01X70608Y51724D01*
G01X70618Y51719D01*
G01X70627Y51714D01*
G01X70636Y51710D01*
G01X70646Y51706D01*
G01X70656Y51702D01*
G01X70666Y51699D01*
G01X70676Y51696D01*
G01X70686Y51694D01*
G01X70697Y51692D01*
G01X70707Y51690D01*
G01X70718Y51689D01*
G01X70728Y51689D01*
G01X70739Y51689D01*
G01X72517Y51689D01*
G01X72527Y51689D01*
G01X72537Y51689D01*
G01X72548Y51690D01*
G01X72558Y51692D01*
G01X72569Y51694D01*
G01X72579Y51696D01*
G01X72589Y51699D01*
G01X72599Y51702D01*
G01X72609Y51706D01*
G01X72619Y51710D01*
G01X72628Y51714D01*
G01X72637Y51719D01*
G01X72647Y51724D01*
G01X72655Y51730D01*
G01X72664Y51736D01*
G01X72673Y51742D01*
G01X72681Y51749D01*
G01X72689Y51756D01*
G01X72696Y51763D01*
G01X72703Y51770D01*
G01X72710Y51778D01*
G01X72717Y51786D01*
G01X72723Y51795D01*
G01X72729Y51804D01*
G01X72735Y51812D01*
G01X72740Y51822D01*
G01X72745Y51831D01*
G01X72749Y51840D01*
G01X72753Y51850D01*
G01X72757Y51860D01*
G01X72760Y51870D01*
G01X72763Y51880D01*
G01X72765Y51890D01*
G01X72767Y51901D01*
G01X72769Y51911D01*
G01X72770Y51922D01*
G01X72770Y51932D01*
G01X72771Y51943D01*
G01X72771Y53721D01*
G01X72770Y53731D01*
G01X72770Y53741D01*
G01X72769Y53752D01*
G01X72767Y53762D01*
G01X72765Y53773D01*
G01X72763Y53783D01*
G01X72760Y53793D01*
G01X72757Y53803D01*
G01X72753Y53813D01*
G01X72749Y53823D01*
G01X72745Y53832D01*
G01X72740Y53841D01*
G01X72735Y53851D01*
G01X72729Y53859D01*
G01X72723Y53868D01*
G01X72717Y53877D01*
G01X72710Y53885D01*
G01X72703Y53893D01*
G01X72696Y53900D01*
G01X72689Y53907D01*
G01X72681Y53914D01*
G01X72673Y53921D01*
G01X72664Y53927D01*
G01X72655Y53933D01*
G01X72647Y53939D01*
G01X72637Y53944D01*
G01X72628Y53949D01*
G01X72619Y53953D01*
G01X72609Y53957D01*
G01X72599Y53961D01*
G01X72589Y53964D01*
G01X72579Y53967D01*
G01X72569Y53969D01*
G01X72558Y53971D01*
G01X72548Y53973D01*
G01X72537Y53974D01*
G01X72527Y53974D01*
G01X72517Y53975D01*
G01X70739Y53975D01*
G01X70728Y53974D01*
G01X70718Y53974D01*
G01X70707Y53973D01*
G01X70697Y53971D01*
G01X70686Y53969D01*
G01X70676Y53967D01*
G01X70666Y53964D01*
G01X70656Y53961D01*
G01X70646Y53957D01*
G01X70636Y53953D01*
G01X70627Y53949D01*
G01X70618Y53944D01*
G01X70608Y53939D01*
G01X70600Y53933D01*
G01X70591Y53927D01*
G01X70582Y53921D01*
G01X70574Y53914D01*
G01X70566Y53907D01*
G01X70559Y53900D01*
G01X70552Y53893D01*
G01X70545Y53885D01*
G01X70538Y53877D01*
G01X70532Y53868D01*
G01X70526Y53859D01*
G01X70520Y53851D01*
G01X70515Y53841D01*
G01X70510Y53832D01*
G01X70506Y53823D01*
G01X70502Y53813D01*
G01X70498Y53803D01*
G01X70495Y53793D01*
G01X70492Y53783D01*
G01X70490Y53773D01*
G01X70488Y53762D01*
G01X70486Y53752D01*
G01X70485Y53741D01*
G01X70485Y53731D01*
G01X70485Y53721D01*
G01X70485Y53187D01*
G01X70457Y53187D01*
G01X70452Y53187D01*
G01X70448Y53187D01*
G01X70443Y53187D01*
G01X70439Y53187D01*
G01X70434Y53186D01*
G01X70430Y53186D01*
G01X70425Y53186D01*
G01X70421Y53185D01*
G01X70417Y53185D01*
G01X70412Y53184D01*
G01X70409Y53184D01*
G01X70404Y53183D01*
G01X70399Y53182D01*
G01X70395Y53182D01*
G01X70391Y53181D01*
G01X70386Y53180D01*
G01X70382Y53179D01*
G01X70377Y53178D01*
G01X70373Y53177D01*
G01X70369Y53176D01*
G01X70365Y53175D01*
G01X70360Y53174D01*
G01X70356Y53172D01*
G01X70352Y53171D01*
G01X70348Y53170D01*
G01X70343Y53168D01*
G01X70339Y53167D01*
G01X70335Y53166D01*
G01X70331Y53164D01*
G01X70327Y53162D01*
G01X70323Y53161D01*
G01X70318Y53159D01*
G01X70314Y53157D01*
G01X70310Y53156D01*
G01X70307Y53154D01*
G01X70302Y53152D01*
G01X70298Y53150D01*
G01X70294Y53148D01*
G01X70291Y53146D01*
G01X70287Y53144D01*
G01X70282Y53141D01*
G01X70279Y53139D01*
G01X70275Y53137D01*
G01X70271Y53135D01*
G01X70267Y53132D01*
G01X70264Y53130D01*
G01X70260Y53128D01*
G01X70256Y53125D01*
G01X70253Y53123D01*
G01X70249Y53120D01*
G01X70246Y53118D01*
G01X70242Y53115D01*
G01X70239Y53112D01*
G01X70235Y53109D01*
G01X70232Y53107D01*
G01X70228Y53104D01*
G01X70225Y53101D01*
G01X70221Y53098D01*
G01X70218Y53095D01*
G01X70215Y53092D01*
G01X70212Y53089D01*
G01X70208Y53086D01*
G01X70205Y53083D01*
G01X70202Y53080D01*
G01X70180Y53168D01*
G01X70141Y53275D01*
G01X70091Y53378D01*
G01X70032Y53475D01*
G01X69963Y53566D01*
G01X69886Y53650D01*
G01X69800Y53725D01*
G01X69708Y53792D01*
G01X69609Y53849D01*
G01X69505Y53895D01*
G01X69397Y53932D01*
G01X69286Y53957D01*
G01X69173Y53971D01*
G01X69059Y53974D01*
G01X68945Y53966D01*
G01X68833Y53946D01*
G01X68723Y53915D01*
G01X68617Y53873D01*
G01X68516Y53821D01*
G01X68420Y53760D01*
G01X68331Y53688D01*
G01X68250Y53609D01*
G01X68176Y53522D01*
G01X68112Y53428D01*
G01X68058Y53327D01*
G01X68013Y53222D01*
G01X67980Y53114D01*
G01X67957Y53002D01*
G01X67946Y52888D01*
G01X67946Y52775D01*
G01X67957Y52661D01*
G01X67980Y52549D01*
G01X68013Y52441D01*
G01X68058Y52336D01*
G01X68069Y52315D01*
G01X66685Y50931D01*
G01X59209Y50931D01*
G01X60449Y52171D01*
G01X60458Y52180D01*
G01X60466Y52190D01*
G01X60474Y52199D01*
G01X60482Y52210D01*
G01X60490Y52220D01*
G01X60496Y52230D01*
G01X60556Y52141D01*
G01X60630Y52054D01*
G01X60711Y51975D01*
G01X60800Y51903D01*
G01X60896Y51842D01*
G01X60997Y51790D01*
G01X61103Y51748D01*
G01X61213Y51717D01*
G01X61325Y51697D01*
G01X61439Y51689D01*
G01X61553Y51692D01*
G01X61666Y51706D01*
G01X61777Y51731D01*
G01X61885Y51768D01*
G01X61989Y51814D01*
G01X62088Y51871D01*
G01X62180Y51938D01*
G01X62266Y52013D01*
G01X62343Y52097D01*
G01X62412Y52188D01*
G01X62471Y52285D01*
G01X62521Y52388D01*
G01X62560Y52495D01*
G01X62588Y52605D01*
G01X62605Y52718D01*
G01X62611Y52832D01*
G01X62605Y52945D01*
G01X62588Y53058D01*
G01X62560Y53168D01*
G01X62521Y53275D01*
G01X62471Y53378D01*
G01X62412Y53475D01*
G01X62343Y53566D01*
G01X62266Y53650D01*
G01X62180Y53725D01*
G01X62088Y53792D01*
G01X61989Y53849D01*
G01X61885Y53895D01*
G01X61777Y53932D01*
G01X61666Y53957D01*
G01X61553Y53971D01*
G01X61439Y53974D01*
G01X61325Y53966D01*
G01X61213Y53946D01*
G01X61103Y53915D01*
G01X60997Y53873D01*
G01X60896Y53821D01*
G01X60800Y53760D01*
G01X60711Y53688D01*
G01X60630Y53609D01*
G01X60556Y53522D01*
G01X60553Y53517D01*
G01X60553Y56263D01*
G01X74037Y56263D01*
G01X74057Y56238D01*
G01X74097Y56200D01*
G01X74141Y56165D01*
G01X74188Y56135D01*
G01X74237Y56109D01*
G01X74289Y56089D01*
G01X74343Y56074D01*
G01X74398Y56064D01*
G01X74453Y56060D01*
G01X74509Y56061D01*
G01X74564Y56068D01*
G01X74619Y56081D01*
G01X74671Y56098D01*
G01X74722Y56121D01*
G01X74770Y56149D01*
G01X74816Y56182D01*
G01X74858Y56218D01*
G01X74895Y56259D01*
G01X74929Y56304D01*
G01X74958Y56351D01*
G01X74982Y56401D01*
G01X75001Y56454D01*
G01X75015Y56508D01*
G01X75023Y56563D01*
G01X75026Y56619D01*
G01X75023Y56674D01*
G01X75015Y56729D01*
G01X75001Y56783D01*
G01X74982Y56836D01*
G01X74958Y56886D01*
G01X74929Y56934D01*
G01X74895Y56978D01*
G01X74858Y57019D01*
G01X74816Y57056D01*
G01X74770Y57088D01*
G01X74722Y57116D01*
G01X74671Y57139D01*
G01X74619Y57157D01*
G01X74564Y57169D01*
G01X74509Y57176D01*
G01X74453Y57177D01*
G01X74398Y57173D01*
G01X74343Y57164D01*
G01X74289Y57149D01*
G01X74237Y57128D01*
G01X74188Y57103D01*
G01X74141Y57073D01*
G01X74097Y57038D01*
G01X74057Y56999D01*
G01X74037Y56974D01*
G01X48371Y56974D01*
G01X48371Y65717D01*
G01X48428Y65743D01*
G01X48506Y65788D01*
G01X48579Y65841D01*
G01X48647Y65900D01*
G01X48708Y65966D01*
G01X48763Y66038D01*
G01X48810Y66115D01*
G01X48836Y66170D01*
G01X48842Y66155D01*
G01X48885Y66076D01*
G01X48936Y66002D01*
G01X48994Y65933D01*
G01X49058Y65870D01*
G01X49129Y65813D01*
G01X49205Y65765D01*
G01X49285Y65723D01*
G01X49332Y65705D01*
G01X49332Y66223D01*
G01X48858Y66223D01*
G01X48880Y66281D01*
G01X48902Y66368D01*
G01X48915Y66457D01*
G01X48920Y66548D01*
G01X48915Y66638D01*
G01X48902Y66727D01*
G01X48880Y66814D01*
G01X48858Y66872D01*
G01X49332Y66872D01*
G01X49332Y67124D01*
G01X49981Y67124D01*
G01X49981Y66872D01*
G01X50465Y66872D01*
G01X50458Y66857D01*
G01X50431Y66771D01*
G01X50414Y66682D01*
G01X50405Y66593D01*
G01X50405Y66502D01*
G01X50414Y66413D01*
G01X50431Y66324D01*
G01X50458Y66238D01*
G01X50465Y66223D01*
G01X49981Y66223D01*
G01X49981Y65704D01*
G01X49987Y65706D01*
G01X50069Y65743D01*
G01X50147Y65788D01*
G01X50220Y65841D01*
G01X50288Y65900D01*
G01X50349Y65966D01*
G01X50403Y66038D01*
G01X50450Y66115D01*
G01X50482Y66181D01*
G01X50493Y66155D01*
G01X50536Y66076D01*
G01X50587Y66002D01*
G01X50645Y65933D01*
G01X50709Y65870D01*
G01X50780Y65813D01*
G01X50856Y65765D01*
G01X50936Y65723D01*
G01X51020Y65691D01*
G01X51106Y65666D01*
G01X51195Y65650D01*
G01X51285Y65644D01*
G01X51375Y65646D01*
G01X51464Y65657D01*
G01X51552Y65677D01*
G01X51638Y65706D01*
G01X51720Y65743D01*
G01X51798Y65788D01*
G01X51871Y65841D01*
G01X51939Y65900D01*
G01X52000Y65966D01*
G01X52054Y66038D01*
G01X52101Y66115D01*
G01X52141Y66196D01*
G01X52161Y66252D01*
G01X52165Y66238D01*
G01X52200Y66155D01*
G01X52243Y66076D01*
G01X52294Y66002D01*
G01X52352Y65933D01*
G01X52416Y65870D01*
G01X52487Y65813D01*
G01X52562Y65765D01*
G01X52643Y65723D01*
G01X52726Y65691D01*
G01X52813Y65666D01*
G01X52902Y65650D01*
G01X52992Y65644D01*
G01X53082Y65646D01*
G01X53171Y65657D01*
G01X53259Y65677D01*
G01X53345Y65706D01*
G01X53427Y65743D01*
G01X53505Y65788D01*
G01X53578Y65841D01*
G01X53646Y65900D01*
G01X53707Y65966D01*
G01X53761Y66038D01*
G01X53808Y66115D01*
G01X53847Y66196D01*
G01X53878Y66281D01*
G01X53900Y66368D01*
G01X53914Y66457D01*
G01X53918Y66548D01*
G01X53914Y66638D01*
G01X53900Y66727D01*
G01X53878Y66814D01*
G01X53847Y66899D01*
G01X53808Y66980D01*
G01X53761Y67057D01*
G01X53707Y67129D01*
G01X53646Y67195D01*
G01X53578Y67254D01*
G01X53505Y67307D01*
G01X53427Y67352D01*
G01X53345Y67389D01*
G01X53259Y67418D01*
G01X53171Y67438D01*
G01X53082Y67449D01*
G01X52992Y67451D01*
G01X52902Y67445D01*
G01X52813Y67429D01*
G01X52726Y67404D01*
G01X52643Y67372D01*
G01X52562Y67330D01*
G01X52487Y67282D01*
G01X52416Y67225D01*
G01X52352Y67162D01*
G01X52294Y67093D01*
G01X52243Y67019D01*
G01X52200Y66940D01*
G01X52165Y66857D01*
G01X52161Y66843D01*
G01X52141Y66899D01*
G01X52101Y66980D01*
G01X52054Y67057D01*
G01X52000Y67129D01*
G01X51939Y67195D01*
G01X51871Y67254D01*
G01X51798Y67307D01*
G01X51720Y67352D01*
G01X51638Y67389D01*
G01X51552Y67418D01*
G01X51464Y67438D01*
G01X51375Y67449D01*
G01X51285Y67451D01*
G01X51195Y67445D01*
G01X51106Y67429D01*
G01X51020Y67404D01*
G01X50972Y67386D01*
G01X50627Y67731D01*
G01X50618Y67740D01*
G01X50608Y67748D01*
G01X50598Y67756D01*
G01X50588Y67764D01*
G01X50578Y67772D01*
G01X50568Y67779D01*
G01X50557Y67785D01*
G01X50546Y67792D01*
G01X50534Y67798D01*
G01X50523Y67803D01*
G01X50511Y67808D01*
G01X50500Y67813D01*
G01X50488Y67817D01*
G01X50475Y67821D01*
G01X50463Y67824D01*
G01X50451Y67827D01*
G01X50438Y67830D01*
G01X50426Y67832D01*
G01X50413Y67833D01*
G01X50401Y67834D01*
G01X50388Y67835D01*
G01X50375Y67835D01*
G01X47210Y67835D01*
G01X47198Y67835D01*
G01X47185Y67834D01*
G01X47172Y67833D01*
G01X47160Y67832D01*
G01X47147Y67830D01*
G01X47135Y67827D01*
G01X47123Y67824D01*
G01X47110Y67821D01*
G01X47098Y67817D01*
G01X47086Y67813D01*
G01X47074Y67808D01*
G01X47063Y67803D01*
G01X47051Y67798D01*
G01X47040Y67792D01*
G01X47029Y67785D01*
G01X47018Y67779D01*
G01X47008Y67772D01*
G01X46997Y67764D01*
G01X46987Y67756D01*
G01X46978Y67748D01*
G01X46968Y67740D01*
G01X46959Y67731D01*
G01X38605Y59377D01*
G01X31917Y59377D01*
G01X31904Y59377D01*
G01X31892Y59376D01*
G01X31879Y59375D01*
G01X31867Y59373D01*
G01X31854Y59371D01*
G01X31842Y59369D01*
G01X31829Y59366D01*
G01X31817Y59363D01*
G01X31805Y59359D01*
G01X31793Y59355D01*
G01X31781Y59350D01*
G01X31769Y59345D01*
G01X31758Y59339D01*
G01X31747Y59333D01*
G01X31736Y59327D01*
G01X31725Y59321D01*
G01X31714Y59314D01*
G01X31704Y59306D01*
G01X31694Y59298D01*
G01X31684Y59290D01*
G01X31675Y59282D01*
G01X31666Y59273D01*
G01X17851Y45458D01*
G01X17851Y45692D01*
G01X17850Y45702D01*
G01X17850Y45713D01*
G01X17849Y45723D01*
G01X17847Y45733D01*
G01X17845Y45744D01*
G01X17843Y45754D01*
G01X17840Y45764D01*
G01X17837Y45774D01*
G01X17833Y45784D01*
G01X17829Y45794D01*
G01X17825Y45803D01*
G01X17820Y45812D01*
G01X17815Y45822D01*
G01X17809Y45830D01*
G01X17803Y45839D01*
G01X17797Y45848D01*
G01X17790Y45856D01*
G01X17783Y45864D01*
G01X17776Y45871D01*
G01X17769Y45878D01*
G01X17761Y45885D01*
G01X17753Y45892D01*
G01X17744Y45898D01*
G01X17736Y45904D01*
G01X17727Y45910D01*
G01X17717Y45915D01*
G01X17708Y45920D01*
G01X17699Y45924D01*
G01X17689Y45928D01*
G01X17679Y45932D01*
G01X17669Y45935D01*
G01X17659Y45938D01*
G01X17649Y45940D01*
G01X17638Y45942D01*
G01X17628Y45944D01*
G01X17618Y45945D01*
G01X17607Y45945D01*
G01X17597Y45946D01*
G01X16438Y45946D01*
G01X16428Y45945D01*
G01X16417Y45945D01*
G01X16407Y45944D01*
G01X16397Y45942D01*
G01X16386Y45940D01*
G01X16376Y45938D01*
G01X16366Y45935D01*
G01X16356Y45932D01*
G01X16346Y45928D01*
G01X16336Y45924D01*
G01X16327Y45920D01*
G01X16318Y45915D01*
G01X16308Y45910D01*
G01X16299Y45904D01*
G01X16291Y45898D01*
G01X16282Y45892D01*
G01X16274Y45885D01*
G01X16266Y45878D01*
G01X16259Y45871D01*
G01X16252Y45864D01*
G01X16245Y45856D01*
G01X16238Y45848D01*
G01X16232Y45839D01*
G01X16226Y45830D01*
G01X16220Y45822D01*
G01X16215Y45812D01*
G01X16210Y45803D01*
G01X16206Y45794D01*
G01X16202Y45784D01*
G01X16198Y45774D01*
G01X16195Y45764D01*
G01X16192Y45754D01*
G01X16190Y45744D01*
G01X16188Y45733D01*
G01X16186Y45723D01*
G01X16185Y45713D01*
G01X16185Y45702D01*
G01X16184Y45692D01*
G01X16184Y44495D01*
G01X16177Y44503D01*
G01X16177Y44958D01*
G01X16177Y44962D01*
G01X16177Y44966D01*
G01X16176Y44971D01*
G01X16176Y44975D01*
G01X16176Y44980D01*
G01X16176Y44984D01*
G01X16175Y44989D01*
G01X16175Y44993D01*
G01X16174Y44997D01*
G01X16174Y45002D01*
G01X16173Y45006D01*
G01X16173Y45010D01*
G01X16172Y45015D01*
G01X16171Y45019D01*
G01X16170Y45024D01*
G01X16170Y45028D01*
G01X16169Y45032D01*
G01X16168Y45037D01*
G01X16167Y45041D01*
G01X16166Y45045D01*
G01X16165Y45049D01*
G01X16163Y45054D01*
G01X16162Y45058D01*
G01X16161Y45062D01*
G01X16160Y45066D01*
G01X16158Y45071D01*
G01X16157Y45075D01*
G01X16155Y45079D01*
G01X16154Y45083D01*
G01X16152Y45087D01*
G01X16150Y45091D01*
G01X16149Y45096D01*
G01X16146Y45101D01*
G01X16145Y45104D01*
G01X16143Y45108D01*
G01X16141Y45112D01*
G01X16139Y45116D01*
G01X16138Y45120D01*
G01X16135Y45124D01*
G01X16133Y45128D01*
G01X16131Y45132D01*
G01X16129Y45135D01*
G01X16127Y45139D01*
G01X16125Y45143D01*
G01X16122Y45147D01*
G01X16120Y45150D01*
G01X16117Y45154D01*
G01X16115Y45158D01*
G01X16112Y45161D01*
G01X16110Y45165D01*
G01X16107Y45169D01*
G01X16105Y45172D01*
G01X16102Y45176D01*
G01X16099Y45179D01*
G01X16096Y45183D01*
G01X16093Y45186D01*
G01X16091Y45189D01*
G01X16088Y45193D01*
G01X16085Y45196D01*
G01X16082Y45199D01*
G01X16079Y45203D01*
G01X16076Y45206D01*
G01X16072Y45209D01*
G01X16069Y45212D01*
G01X16066Y45215D01*
G01X16063Y45218D01*
G01X16060Y45221D01*
G01X16056Y45224D01*
G01X16053Y45227D01*
G01X16050Y45230D01*
G01X16046Y45233D01*
G01X16043Y45235D01*
G01X16039Y45238D01*
G01X16036Y45241D01*
G01X16032Y45244D01*
G01X16029Y45246D01*
G01X16025Y45249D01*
G01X16021Y45251D01*
G01X16018Y45254D01*
G01X16014Y45256D01*
G01X16011Y45258D01*
G01X16007Y45261D01*
G01X16002Y45263D01*
G01X15999Y45265D01*
G01X15995Y45267D01*
G01X15991Y45270D01*
G01X15987Y45272D01*
G01X15983Y45274D01*
G01X15980Y45276D01*
G01X15975Y45278D01*
G01X15971Y45280D01*
G01X15967Y45282D01*
G01X15964Y45283D01*
G01X15959Y45285D01*
G01X15955Y45287D01*
G01X15951Y45288D01*
G01X15947Y45290D01*
G01X15943Y45292D01*
G01X15939Y45293D01*
G01X15934Y45294D01*
G01X15930Y45296D01*
G01X15926Y45297D01*
G01X15922Y45298D01*
G01X15917Y45300D01*
G01X15913Y45301D01*
G01X15909Y45302D01*
G01X15905Y45303D01*
G01X15900Y45304D01*
G01X15896Y45305D01*
G01X15892Y45306D01*
G01X15887Y45307D01*
G01X15883Y45308D01*
G01X15879Y45308D01*
G01X15874Y45309D01*
G01X15869Y45310D01*
G01X15865Y45310D01*
G01X15861Y45311D01*
G01X15857Y45311D01*
G01X15852Y45312D01*
G01X15848Y45312D01*
G01X15843Y45312D01*
G01X15839Y45313D01*
G01X15834Y45313D01*
G01X15830Y45313D01*
G01X15825Y45313D01*
G01X15821Y45313D01*
G01X15819Y45313D01*
G01X15819Y45692D01*
G01X15818Y45702D01*
G01X15818Y45713D01*
G01X15817Y45723D01*
G01X15815Y45733D01*
G01X15813Y45744D01*
G01X15811Y45754D01*
G01X15808Y45764D01*
G01X15805Y45774D01*
G01X15801Y45784D01*
G01X15797Y45794D01*
G01X15793Y45803D01*
G01X15788Y45812D01*
G01X15783Y45822D01*
G01X15777Y45830D01*
G01X15771Y45839D01*
G01X15765Y45848D01*
G01X15758Y45856D01*
G01X15751Y45864D01*
G01X15744Y45871D01*
G01X15737Y45878D01*
G01X15729Y45885D01*
G01X15721Y45892D01*
G01X15712Y45898D01*
G01X15704Y45904D01*
G01X15695Y45910D01*
G01X15685Y45915D01*
G01X15676Y45920D01*
G01X15667Y45924D01*
G01X15657Y45928D01*
G01X15647Y45932D01*
G01X15637Y45935D01*
G01X15627Y45938D01*
G01X15617Y45940D01*
G01X15606Y45942D01*
G01X15596Y45944D01*
G01X15586Y45945D01*
G01X15575Y45945D01*
G01X15565Y45946D01*
G01X14406Y45946D01*
G01X14396Y45945D01*
G01X14385Y45945D01*
G01X14375Y45944D01*
G01X14365Y45942D01*
G01X14354Y45940D01*
G01X14344Y45938D01*
G01X14334Y45935D01*
G01X14324Y45932D01*
G01X14314Y45928D01*
G01X14304Y45924D01*
G01X14295Y45920D01*
G01X14286Y45915D01*
G01X14276Y45910D01*
G01X14267Y45904D01*
G01X14259Y45898D01*
G01X14250Y45892D01*
G01X14242Y45885D01*
G01X14234Y45878D01*
G01X14227Y45871D01*
G01X14220Y45864D01*
G01X14213Y45856D01*
G01X14206Y45848D01*
G01X14200Y45839D01*
G01X14194Y45830D01*
G01X14188Y45822D01*
G01X14183Y45812D01*
G01X14178Y45803D01*
G01X14174Y45794D01*
G01X14170Y45784D01*
G01X14166Y45774D01*
G01X14163Y45764D01*
G01X14160Y45754D01*
G01X14158Y45744D01*
G01X14156Y45733D01*
G01X14154Y45723D01*
G01X14153Y45713D01*
G01X14153Y45702D01*
G01X14152Y45692D01*
G01X14152Y44223D01*
G01X14153Y44213D01*
G01X14153Y44202D01*
G01X14154Y44192D01*
G01X14156Y44182D01*
G01X14158Y44171D01*
G01X14160Y44161D01*
G01X14163Y44151D01*
G01X14166Y44141D01*
G01X14170Y44131D01*
G01X14174Y44121D01*
G01X14178Y44112D01*
G01X14183Y44103D01*
G01X14188Y44093D01*
G01X14194Y44085D01*
G01X14200Y44076D01*
G01X14206Y44067D01*
G01X14213Y44059D01*
G01X14220Y44051D01*
G01X14227Y44044D01*
G01X14234Y44037D01*
G01X14242Y44030D01*
G01X14250Y44023D01*
G01X14259Y44017D01*
G01X14267Y44011D01*
G01X14276Y44005D01*
G01X14286Y44000D01*
G01X14295Y43995D01*
G01X14304Y43991D01*
G01X14314Y43987D01*
G01X14324Y43983D01*
G01X14334Y43980D01*
G01X14344Y43977D01*
G01X14354Y43975D01*
G01X14365Y43973D01*
G01X14375Y43971D01*
G01X14385Y43970D01*
G01X14396Y43970D01*
G01X14406Y43969D01*
G01X15565Y43969D01*
G01X15575Y43970D01*
G01X15586Y43970D01*
G01X15596Y43971D01*
G01X15606Y43973D01*
G01X15617Y43975D01*
G01X15627Y43977D01*
G01X15637Y43980D01*
G01X15647Y43983D01*
G01X15657Y43987D01*
G01X15667Y43991D01*
G01X15676Y43995D01*
G01X15678Y43996D01*
G01X16119Y43555D01*
G01X12273Y43555D01*
G01X11605Y44223D01*
G01X12517Y44223D01*
G01X12527Y44224D01*
G01X12538Y44224D01*
G01X12548Y44225D01*
G01X12558Y44227D01*
G01X12569Y44229D01*
G01X12579Y44231D01*
G01X12589Y44234D01*
G01X12599Y44237D01*
G01X12609Y44241D01*
G01X12619Y44245D01*
G01X12628Y44249D01*
G01X12637Y44254D01*
G01X12647Y44259D01*
G01X12656Y44265D01*
G01X12664Y44271D01*
G01X12673Y44277D01*
G01X12681Y44284D01*
G01X12689Y44291D01*
G01X12696Y44298D01*
G01X12703Y44305D01*
G01X12710Y44313D01*
G01X12717Y44321D01*
G01X12723Y44330D01*
G01X12729Y44339D01*
G01X12735Y44347D01*
G01X12740Y44357D01*
G01X12745Y44366D01*
G01X12749Y44375D01*
G01X12753Y44385D01*
G01X12757Y44395D01*
G01X12760Y44405D01*
G01X12763Y44415D01*
G01X12765Y44425D01*
G01X12767Y44436D01*
G01X12769Y44446D01*
G01X12770Y44456D01*
G01X12770Y44467D01*
G01X12771Y44477D01*
G01X12771Y44856D01*
G01X12919Y44856D01*
G01X12940Y44831D01*
G01X12980Y44792D01*
G01X13023Y44758D01*
G01X13070Y44727D01*
G01X13120Y44702D01*
G01X13172Y44682D01*
G01X13225Y44667D01*
G01X13280Y44657D01*
G01X13336Y44653D01*
G01X13392Y44654D01*
G01X13447Y44661D01*
G01X13501Y44673D01*
G01X13554Y44691D01*
G01X13605Y44714D01*
G01X13653Y44742D01*
G01X13698Y44774D01*
G01X13740Y44811D01*
G01X13778Y44852D01*
G01X13812Y44897D01*
G01X13841Y44944D01*
G01X13865Y44994D01*
G01X13884Y45047D01*
G01X13898Y45101D01*
G01X13906Y45156D01*
G01X13909Y45212D01*
G01X13906Y45267D01*
G01X13898Y45322D01*
G01X13884Y45376D01*
G01X13865Y45429D01*
G01X13841Y45479D01*
G01X13812Y45526D01*
G01X13778Y45571D01*
G01X13740Y45612D01*
G01X13698Y45649D01*
G01X13653Y45681D01*
G01X13605Y45709D01*
G01X13554Y45732D01*
G01X13501Y45750D01*
G01X13447Y45762D01*
G01X13392Y45769D01*
G01X13336Y45770D01*
G01X13280Y45766D01*
G01X13225Y45756D01*
G01X13172Y45741D01*
G01X13120Y45721D01*
G01X13070Y45696D01*
G01X13023Y45665D01*
G01X12980Y45631D01*
G01X12940Y45592D01*
G01X12919Y45567D01*
G01X12771Y45567D01*
G01X12771Y45946D01*
G01X12770Y45956D01*
G01X12770Y45967D01*
G01X12769Y45977D01*
G01X12767Y45987D01*
G01X12765Y45998D01*
G01X12763Y46008D01*
G01X12760Y46018D01*
G01X12757Y46028D01*
G01X12753Y46038D01*
G01X12749Y46048D01*
G01X12745Y46057D01*
G01X12740Y46066D01*
G01X12735Y46076D01*
G01X12729Y46084D01*
G01X12723Y46093D01*
G01X12717Y46102D01*
G01X12710Y46110D01*
G01X12703Y46118D01*
G01X12696Y46125D01*
G01X12689Y46132D01*
G01X12681Y46139D01*
G01X12673Y46146D01*
G01X12664Y46152D01*
G01X12656Y46158D01*
G01X12647Y46164D01*
G01X12637Y46169D01*
G01X12628Y46174D01*
G01X12619Y46178D01*
G01X12609Y46182D01*
G01X12599Y46186D01*
G01X12589Y46189D01*
G01X12579Y46192D01*
G01X12569Y46194D01*
G01X12558Y46196D01*
G01X12548Y46198D01*
G01X12538Y46199D01*
G01X12527Y46199D01*
G01X12517Y46200D01*
G01X11358Y46200D01*
G01X11348Y46199D01*
G01X11337Y46199D01*
G01X11327Y46198D01*
G01X11317Y46196D01*
G01X11306Y46194D01*
G01X11296Y46192D01*
G01X11286Y46189D01*
G01X11276Y46186D01*
G01X11266Y46182D01*
G01X11256Y46178D01*
G01X11247Y46174D01*
G01X11238Y46169D01*
G01X11228Y46164D01*
G01X11219Y46158D01*
G01X11211Y46152D01*
G01X11202Y46146D01*
G01X11194Y46139D01*
G01X11186Y46132D01*
G01X11179Y46125D01*
G01X11172Y46118D01*
G01X11165Y46110D01*
G01X11158Y46102D01*
G01X11152Y46093D01*
G01X11146Y46084D01*
G01X11140Y46076D01*
G01X11135Y46066D01*
G01X11130Y46057D01*
G01X11126Y46048D01*
G01X11122Y46038D01*
G01X11118Y46028D01*
G01X11115Y46018D01*
G01X11112Y46008D01*
G01X11110Y45998D01*
G01X11108Y45987D01*
G01X11106Y45977D01*
G01X11105Y45967D01*
G01X11105Y45956D01*
G01X11104Y45946D01*
G01X11104Y44724D01*
G01X11097Y44731D01*
G01X11097Y45212D01*
G01X11097Y45216D01*
G01X11097Y45220D01*
G01X11096Y45225D01*
G01X11096Y45229D01*
G01X11096Y45234D01*
G01X11096Y45238D01*
G01X11095Y45243D01*
G01X11095Y45247D01*
G01X11094Y45251D01*
G01X11094Y45256D01*
G01X11093Y45260D01*
G01X11093Y45264D01*
G01X11092Y45269D01*
G01X11091Y45273D01*
G01X11090Y45278D01*
G01X11090Y45282D01*
G01X11089Y45286D01*
G01X11088Y45291D01*
G01X11087Y45295D01*
G01X11086Y45299D01*
G01X11085Y45303D01*
G01X11083Y45308D01*
G01X11082Y45313D01*
G01X11081Y45316D01*
G01X11080Y45320D01*
G01X11078Y45325D01*
G01X11077Y45329D01*
G01X11075Y45333D01*
G01X11074Y45337D01*
G01X11072Y45341D01*
G01X11070Y45345D01*
G01X11069Y45350D01*
G01X11067Y45354D01*
G01X11065Y45358D01*
G01X11064Y45361D01*
G01X11061Y45366D01*
G01X11059Y45370D01*
G01X11058Y45374D01*
G01X11056Y45377D01*
G01X11053Y45382D01*
G01X11051Y45386D01*
G01X11049Y45389D01*
G01X11047Y45393D01*
G01X11045Y45397D01*
G01X11042Y45401D01*
G01X11040Y45404D01*
G01X11037Y45408D01*
G01X11035Y45412D01*
G01X11032Y45415D01*
G01X11030Y45419D01*
G01X11027Y45422D01*
G01X11025Y45426D01*
G01X11022Y45430D01*
G01X11019Y45433D01*
G01X11016Y45437D01*
G01X11013Y45440D01*
G01X11011Y45443D01*
G01X11008Y45447D01*
G01X11005Y45450D01*
G01X11002Y45453D01*
G01X10999Y45457D01*
G01X10996Y45460D01*
G01X10992Y45463D01*
G01X10989Y45466D01*
G01X10986Y45469D01*
G01X10983Y45472D01*
G01X10980Y45475D01*
G01X10976Y45478D01*
G01X10973Y45481D01*
G01X10970Y45484D01*
G01X10966Y45487D01*
G01X10963Y45489D01*
G01X10959Y45492D01*
G01X10956Y45495D01*
G01X10952Y45498D01*
G01X10949Y45500D01*
G01X10945Y45503D01*
G01X10941Y45505D01*
G01X10938Y45508D01*
G01X10934Y45510D01*
G01X10931Y45512D01*
G01X10927Y45515D01*
G01X10922Y45517D01*
G01X10919Y45519D01*
G01X10915Y45521D01*
G01X10911Y45524D01*
G01X10907Y45526D01*
G01X10903Y45528D01*
G01X10900Y45530D01*
G01X10895Y45532D01*
G01X10891Y45534D01*
G01X10887Y45536D01*
G01X10884Y45537D01*
G01X10879Y45539D01*
G01X10875Y45541D01*
G01X10871Y45542D01*
G01X10867Y45544D01*
G01X10863Y45546D01*
G01X10859Y45547D01*
G01X10854Y45548D01*
G01X10850Y45550D01*
G01X10846Y45551D01*
G01X10842Y45552D01*
G01X10837Y45554D01*
G01X10833Y45555D01*
G01X10829Y45556D01*
G01X10825Y45557D01*
G01X10820Y45558D01*
G01X10816Y45559D01*
G01X10812Y45560D01*
G01X10807Y45561D01*
G01X10803Y45562D01*
G01X10799Y45562D01*
G01X10794Y45563D01*
G01X10789Y45564D01*
G01X10785Y45564D01*
G01X10781Y45565D01*
G01X10777Y45565D01*
G01X10772Y45566D01*
G01X10768Y45566D01*
G01X10763Y45566D01*
G01X10759Y45567D01*
G01X10754Y45567D01*
G01X10750Y45567D01*
G01X10745Y45567D01*
G01X10741Y45567D01*
G01X10739Y45567D01*
G01X10739Y45946D01*
G01X10738Y45956D01*
G01X10738Y45967D01*
G01X10737Y45977D01*
G01X10735Y45987D01*
G01X10733Y45998D01*
G01X10731Y46008D01*
G01X10728Y46018D01*
G01X10725Y46028D01*
G01X10721Y46038D01*
G01X10717Y46048D01*
G01X10713Y46057D01*
G01X10708Y46066D01*
G01X10703Y46076D01*
G01X10697Y46084D01*
G01X10691Y46093D01*
G01X10685Y46102D01*
G01X10678Y46110D01*
G01X10671Y46118D01*
G01X10664Y46125D01*
G01X10657Y46132D01*
G01X10649Y46139D01*
G01X10641Y46146D01*
G01X10632Y46152D01*
G01X10624Y46158D01*
G01X10615Y46164D01*
G01X10605Y46169D01*
G01X10596Y46174D01*
G01X10587Y46178D01*
G01X10577Y46182D01*
G01X10567Y46186D01*
G01X10557Y46189D01*
G01X10547Y46192D01*
G01X10537Y46194D01*
G01X10526Y46196D01*
G01X10516Y46198D01*
G01X10506Y46199D01*
G01X10495Y46199D01*
G01X10485Y46200D01*
G01X9326Y46200D01*
G01X9316Y46199D01*
G01X9305Y46199D01*
G01X9295Y46198D01*
G01X9285Y46196D01*
G01X9274Y46194D01*
G01X9264Y46192D01*
G01X9254Y46189D01*
G01X9244Y46186D01*
G01X9234Y46182D01*
G01X9224Y46178D01*
G01X9215Y46174D01*
G01X9206Y46169D01*
G01X9196Y46164D01*
G01X9187Y46158D01*
G01X9179Y46152D01*
G01X9170Y46146D01*
G01X9162Y46139D01*
G01X9154Y46132D01*
G01X9147Y46125D01*
G01X9140Y46118D01*
G01X9133Y46110D01*
G01X9126Y46102D01*
G01X9120Y46093D01*
G01X9114Y46084D01*
G01X9108Y46076D01*
G01X9103Y46066D01*
G01X9098Y46057D01*
G01X9094Y46048D01*
G01X9090Y46038D01*
G01X9086Y46028D01*
G01X9083Y46018D01*
G01X9080Y46008D01*
G01X9078Y45998D01*
G01X9076Y45987D01*
G01X9074Y45977D01*
G01X9073Y45967D01*
G01X9073Y45956D01*
G01X9072Y45946D01*
G01X9072Y44477D01*
G01X9073Y44467D01*
G01X9073Y44456D01*
G01X9074Y44446D01*
G01X9076Y44436D01*
G01X9078Y44425D01*
G01X9080Y44415D01*
G01X9083Y44405D01*
G01X9086Y44395D01*
G01X9090Y44385D01*
G01X9094Y44375D01*
G01X9098Y44366D01*
G01X9103Y44357D01*
G01X9108Y44347D01*
G01X9114Y44339D01*
G01X9120Y44330D01*
G01X9126Y44321D01*
G01X9133Y44313D01*
G01X9140Y44305D01*
G01X9147Y44298D01*
G01X9154Y44291D01*
G01X9162Y44284D01*
G01X9170Y44277D01*
G01X9179Y44271D01*
G01X9187Y44265D01*
G01X9196Y44259D01*
G01X9206Y44254D01*
G01X9215Y44249D01*
G01X9224Y44245D01*
G01X9234Y44241D01*
G01X9244Y44237D01*
G01X9254Y44234D01*
G01X9264Y44231D01*
G01X9274Y44229D01*
G01X9285Y44227D01*
G01X9295Y44225D01*
G01X9305Y44224D01*
G01X9316Y44224D01*
G01X9326Y44223D01*
G01X10485Y44223D01*
G01X10495Y44224D01*
G01X10506Y44224D01*
G01X10516Y44225D01*
G01X10526Y44227D01*
G01X10537Y44229D01*
G01X10547Y44231D01*
G01X10557Y44234D01*
G01X10567Y44237D01*
G01X10577Y44241D01*
G01X10580Y44242D01*
G01X11874Y42948D01*
G01X11883Y42940D01*
G01X11893Y42931D01*
G01X11902Y42923D01*
G01X11912Y42915D01*
G01X11923Y42908D01*
G01X11933Y42901D01*
G01X11944Y42894D01*
G01X11955Y42888D01*
G01X11966Y42882D01*
G01X11978Y42876D01*
G01X11989Y42871D01*
G01X12001Y42867D01*
G01X12013Y42863D01*
G01X12025Y42859D01*
G01X12038Y42855D01*
G01X12050Y42852D01*
G01X12062Y42850D01*
G01X12075Y42848D01*
G01X12087Y42846D01*
G01X12100Y42845D01*
G01X12113Y42845D01*
G01X12125Y42844D01*
G01X23546Y42844D01*
G01X18473Y37772D01*
G01X18414Y37799D01*
G01X18316Y37832D01*
G01X18214Y37855D01*
G01X18111Y37868D01*
G01X18008Y37871D01*
G01X17904Y37863D01*
G01X17802Y37845D01*
G01X17702Y37817D01*
G01X17605Y37779D01*
G01X17513Y37731D01*
G01X17426Y37675D01*
G01X17344Y37610D01*
G01X17270Y37538D01*
G01X17203Y37458D01*
G01X17145Y37373D01*
G01X17095Y37281D01*
G01X17055Y37186D01*
G01X17024Y37086D01*
G01X17004Y36985D01*
G01X16993Y36881D01*
G01X16993Y36778D01*
G01X17004Y36674D01*
G01X17016Y36612D01*
G01X16918Y36710D01*
G01X16918Y36830D01*
G01X16918Y36834D01*
G01X16918Y36838D01*
G01X16918Y36843D01*
G01X16918Y36847D01*
G01X16918Y36852D01*
G01X16917Y36856D01*
G01X16917Y36861D01*
G01X16917Y36865D01*
G01X16916Y36869D01*
G01X16916Y36874D01*
G01X16915Y36878D01*
G01X16914Y36882D01*
G01X16914Y36887D01*
G01X16913Y36891D01*
G01X16912Y36896D01*
G01X16911Y36900D01*
G01X16910Y36904D01*
G01X16909Y36909D01*
G01X16908Y36913D01*
G01X16907Y36917D01*
G01X16906Y36921D01*
G01X16905Y36926D01*
G01X16903Y36931D01*
G01X16903Y36934D01*
G01X16901Y36938D01*
G01X16900Y36943D01*
G01X16898Y36947D01*
G01X16897Y36951D01*
G01X16895Y36955D01*
G01X16894Y36959D01*
G01X16892Y36963D01*
G01X16890Y36968D01*
G01X16888Y36973D01*
G01X16887Y36976D01*
G01X16885Y36980D01*
G01X16883Y36984D01*
G01X16881Y36988D01*
G01X16879Y36992D01*
G01X16877Y36996D01*
G01X16875Y37000D01*
G01X16873Y37004D01*
G01X16871Y37007D01*
G01X16868Y37011D01*
G01X16866Y37015D01*
G01X16864Y37019D01*
G01X16861Y37022D01*
G01X16859Y37026D01*
G01X16857Y37030D01*
G01X16854Y37033D01*
G01X16851Y37037D01*
G01X16849Y37041D01*
G01X16846Y37044D01*
G01X16843Y37048D01*
G01X16841Y37051D01*
G01X16838Y37055D01*
G01X16835Y37058D01*
G01X16832Y37061D01*
G01X16829Y37065D01*
G01X16826Y37068D01*
G01X16823Y37071D01*
G01X16820Y37075D01*
G01X16817Y37078D01*
G01X16814Y37081D01*
G01X16811Y37084D01*
G01X16808Y37087D01*
G01X16805Y37090D01*
G01X16801Y37093D01*
G01X16798Y37096D01*
G01X16795Y37099D01*
G01X16791Y37102D01*
G01X16788Y37105D01*
G01X16784Y37107D01*
G01X16781Y37110D01*
G01X16777Y37113D01*
G01X16774Y37116D01*
G01X16770Y37118D01*
G01X16767Y37121D01*
G01X16763Y37123D01*
G01X16759Y37126D01*
G01X16756Y37128D01*
G01X16752Y37130D01*
G01X16748Y37133D01*
G01X16744Y37135D01*
G01X16741Y37137D01*
G01X16737Y37139D01*
G01X16733Y37142D01*
G01X16729Y37144D01*
G01X16725Y37146D01*
G01X16721Y37148D01*
G01X16717Y37150D01*
G01X16713Y37152D01*
G01X16709Y37154D01*
G01X16705Y37155D01*
G01X16701Y37157D01*
G01X16697Y37159D01*
G01X16693Y37160D01*
G01X16688Y37162D01*
G01X16684Y37164D01*
G01X16680Y37165D01*
G01X16676Y37166D01*
G01X16672Y37168D01*
G01X16668Y37169D01*
G01X16664Y37170D01*
G01X16659Y37172D01*
G01X16655Y37173D01*
G01X16651Y37174D01*
G01X16646Y37175D01*
G01X16642Y37176D01*
G01X16637Y37177D01*
G01X16633Y37178D01*
G01X16629Y37179D01*
G01X16625Y37180D01*
G01X16621Y37180D01*
G01X16616Y37181D01*
G01X16611Y37182D01*
G01X16607Y37182D01*
G01X16603Y37183D01*
G01X16598Y37183D01*
G01X16594Y37184D01*
G01X16589Y37184D01*
G01X16585Y37184D01*
G01X16581Y37185D01*
G01X16576Y37185D01*
G01X16572Y37185D01*
G01X16567Y37185D01*
G01X16563Y37185D01*
G01X16535Y37185D01*
G01X16535Y37617D01*
G01X16535Y37627D01*
G01X16534Y37638D01*
G01X16533Y37648D01*
G01X16531Y37659D01*
G01X16529Y37669D01*
G01X16527Y37679D01*
G01X16524Y37689D01*
G01X16521Y37699D01*
G01X16518Y37709D01*
G01X16514Y37719D01*
G01X16509Y37728D01*
G01X16504Y37738D01*
G01X16499Y37747D01*
G01X16494Y37756D01*
G01X16488Y37764D01*
G01X16481Y37773D01*
G01X16475Y37781D01*
G01X16468Y37789D01*
G01X16461Y37797D01*
G01X16453Y37804D01*
G01X16445Y37811D01*
G01X16437Y37817D01*
G01X16428Y37824D01*
G01X16420Y37830D01*
G01X16411Y37835D01*
G01X16402Y37840D01*
G01X16392Y37845D01*
G01X16383Y37850D01*
G01X16373Y37854D01*
G01X16363Y37857D01*
G01X16353Y37860D01*
G01X16343Y37863D01*
G01X16333Y37865D01*
G01X16323Y37867D01*
G01X16312Y37869D01*
G01X16302Y37870D01*
G01X16291Y37871D01*
G01X16281Y37871D01*
G01X14706Y37871D01*
G01X14696Y37871D01*
G01X14685Y37870D01*
G01X14675Y37869D01*
G01X14664Y37867D01*
G01X14654Y37865D01*
G01X14644Y37863D01*
G01X14634Y37860D01*
G01X14624Y37857D01*
G01X14614Y37854D01*
G01X14604Y37850D01*
G01X14595Y37845D01*
G01X14585Y37840D01*
G01X14576Y37835D01*
G01X14567Y37830D01*
G01X14559Y37824D01*
G01X14550Y37817D01*
G01X14542Y37811D01*
G01X14534Y37804D01*
G01X14526Y37797D01*
G01X14519Y37789D01*
G01X14512Y37781D01*
G01X14506Y37773D01*
G01X14499Y37764D01*
G01X14493Y37756D01*
G01X14488Y37747D01*
G01X14483Y37738D01*
G01X14478Y37728D01*
G01X14473Y37719D01*
G01X14469Y37709D01*
G01X14466Y37699D01*
G01X14463Y37689D01*
G01X14460Y37679D01*
G01X14458Y37669D01*
G01X14456Y37659D01*
G01X14454Y37648D01*
G01X14453Y37638D01*
G01X14452Y37627D01*
G01X14452Y37617D01*
G01X14452Y36042D01*
G01X14452Y36032D01*
G01X14453Y36021D01*
G01X14454Y36011D01*
G01X14456Y36000D01*
G01X14458Y35990D01*
G01X14460Y35980D01*
G01X14463Y35970D01*
G01X14466Y35960D01*
G01X14469Y35950D01*
G01X14473Y35940D01*
G01X14478Y35931D01*
G01X14483Y35921D01*
G01X14488Y35912D01*
G01X14493Y35903D01*
G01X14499Y35895D01*
G01X14506Y35886D01*
G01X14512Y35878D01*
G01X14519Y35870D01*
G01X14526Y35862D01*
G01X14534Y35855D01*
G01X14542Y35848D01*
G01X14550Y35842D01*
G01X14559Y35835D01*
G01X14567Y35829D01*
G01X14576Y35824D01*
G01X14585Y35819D01*
G01X14595Y35814D01*
G01X14604Y35809D01*
G01X14614Y35805D01*
G01X14624Y35802D01*
G01X14634Y35799D01*
G01X14644Y35796D01*
G01X14654Y35794D01*
G01X14664Y35792D01*
G01X14675Y35790D01*
G01X14685Y35789D01*
G01X14696Y35788D01*
G01X14706Y35788D01*
G01X16281Y35788D01*
G01X16291Y35788D01*
G01X16302Y35789D01*
G01X16312Y35790D01*
G01X16323Y35792D01*
G01X16333Y35794D01*
G01X16343Y35796D01*
G01X16353Y35799D01*
G01X16363Y35802D01*
G01X16373Y35805D01*
G01X16383Y35809D01*
G01X16392Y35814D01*
G01X16402Y35819D01*
G01X16411Y35824D01*
G01X16420Y35829D01*
G01X16428Y35835D01*
G01X16437Y35842D01*
G01X16445Y35848D01*
G01X16453Y35855D01*
G01X16461Y35862D01*
G01X16468Y35870D01*
G01X16475Y35878D01*
G01X16481Y35886D01*
G01X16488Y35895D01*
G01X16494Y35903D01*
G01X16499Y35912D01*
G01X16504Y35921D01*
G01X16509Y35931D01*
G01X16514Y35940D01*
G01X16518Y35950D01*
G01X16521Y35960D01*
G01X16524Y35970D01*
G01X16527Y35980D01*
G01X16529Y35990D01*
G01X16531Y36000D01*
G01X16533Y36011D01*
G01X16534Y36021D01*
G01X16535Y36032D01*
G01X16535Y36042D01*
G01X16535Y36088D01*
G01X17119Y35504D01*
G01X17128Y35495D01*
G01X17138Y35486D01*
G01X17147Y35478D01*
G01X17158Y35470D01*
G01X17168Y35463D01*
G01X17178Y35456D01*
G01X17189Y35449D01*
G01X17200Y35443D01*
G01X17211Y35437D01*
G01X17223Y35432D01*
G01X17235Y35427D01*
G01X17246Y35422D01*
G01X17258Y35418D01*
G01X17270Y35414D01*
G01X17283Y35411D01*
G01X17295Y35408D01*
G01X17307Y35405D01*
G01X17320Y35403D01*
G01X17333Y35402D01*
G01X17345Y35400D01*
G01X17358Y35400D01*
G01X17371Y35400D01*
G01X18483Y35400D01*
G01X18496Y35400D01*
G01X18508Y35400D01*
G01X18521Y35402D01*
G01X18534Y35403D01*
G01X18546Y35405D01*
G01X18559Y35408D01*
G01X18571Y35411D01*
G01X18583Y35414D01*
G01X18595Y35418D01*
G01X18607Y35422D01*
G01X18619Y35427D01*
G01X18631Y35432D01*
G01X18642Y35437D01*
G01X18653Y35443D01*
G01X18664Y35449D01*
G01X18675Y35456D01*
G01X18686Y35463D01*
G01X18696Y35470D01*
G01X18706Y35478D01*
G01X18716Y35486D01*
G01X18725Y35495D01*
G01X18734Y35504D01*
G01X19555Y36324D01*
G01X19564Y36333D01*
G01X19572Y36343D01*
G01X19580Y36352D01*
G01X19588Y36362D01*
G01X19596Y36373D01*
G01X19603Y36383D01*
G01X19609Y36394D01*
G01X19616Y36405D01*
G01X19620Y36414D01*
G01X19635Y36378D01*
G01X19685Y36286D01*
G01X19743Y36201D01*
G01X19810Y36121D01*
G01X19884Y36049D01*
G01X19966Y35984D01*
G01X20053Y35928D01*
G01X20145Y35880D01*
G01X20180Y35867D01*
G01X20180Y36436D01*
G01X19630Y36436D01*
G01X19632Y36439D01*
G01X19637Y36451D01*
G01X19641Y36463D01*
G01X19645Y36475D01*
G01X19648Y36488D01*
G01X19651Y36500D01*
G01X19653Y36512D01*
G01X19655Y36525D01*
G01X19657Y36538D01*
G01X19658Y36550D01*
G01X19659Y36563D01*
G01X19659Y36576D01*
G01X19659Y36990D01*
G01X19893Y37223D01*
G01X20180Y37223D01*
G01X20180Y37510D01*
G01X24627Y41955D01*
G01X27737Y41955D01*
G01X23553Y37772D01*
G01X23494Y37799D01*
G01X23396Y37832D01*
G01X23294Y37855D01*
G01X23191Y37868D01*
G01X23088Y37871D01*
G01X22984Y37863D01*
G01X22882Y37845D01*
G01X22782Y37817D01*
G01X22685Y37779D01*
G01X22593Y37731D01*
G01X22506Y37675D01*
G01X22424Y37610D01*
G01X22350Y37538D01*
G01X22283Y37458D01*
G01X22225Y37373D01*
G01X22175Y37281D01*
G01X22135Y37186D01*
G01X22104Y37086D01*
G01X22084Y36985D01*
G01X22073Y36881D01*
G01X22073Y36778D01*
G01X22084Y36674D01*
G01X22104Y36573D01*
G01X22135Y36473D01*
G01X22151Y36436D01*
G01X16154Y30439D01*
G01X7731Y30439D01*
G01X7719Y30439D01*
G01X7706Y30438D01*
G01X7693Y30437D01*
G01X7681Y30435D01*
G01X7668Y30433D01*
G01X7656Y30431D01*
G01X7643Y30428D01*
G01X7631Y30424D01*
G01X7619Y30421D01*
G01X7607Y30416D01*
G01X7595Y30412D01*
G01X7584Y30407D01*
G01X7572Y30401D01*
G01X7561Y30395D01*
G01X7550Y30389D01*
G01X7539Y30382D01*
G01X7529Y30375D01*
G01X7518Y30368D01*
G01X7508Y30360D01*
G01X7498Y30352D01*
G01X7489Y30343D01*
G01X7480Y30335D01*
G01X6789Y29644D01*
G01X6730Y29671D01*
G01X6632Y29704D01*
G01X6530Y29727D01*
G01X6427Y29740D01*
G01X6324Y29743D01*
G01X6220Y29735D01*
G01X6118Y29717D01*
G01X6018Y29689D01*
G01X5921Y29651D01*
G01X5829Y29603D01*
G01X5742Y29547D01*
G01X5660Y29482D01*
G01X5586Y29410D01*
G01X5519Y29330D01*
G01X5461Y29245D01*
G01X5411Y29153D01*
G01X5371Y29058D01*
G01X5340Y28958D01*
G01X5320Y28857D01*
G01X5309Y28753D01*
G01X5309Y28650D01*
G01X5320Y28546D01*
G01X5340Y28445D01*
G01X5371Y28345D01*
G01X5411Y28250D01*
G01X5461Y28158D01*
G01X5519Y28073D01*
G01X5586Y27993D01*
G01X5660Y27921D01*
G01X5742Y27856D01*
G01X5829Y27800D01*
G01X5921Y27752D01*
G01X6018Y27714D01*
G01X6118Y27686D01*
G01X6220Y27668D01*
G01X6324Y27660D01*
G01X6427Y27663D01*
G01X6530Y27676D01*
G01X6632Y27699D01*
G01X6730Y27732D01*
G01X6825Y27775D01*
G01X6914Y27827D01*
G01X6999Y27887D01*
G01X7077Y27956D01*
G01X7147Y28032D01*
G01X7210Y28115D01*
G01X7264Y28203D01*
G01X7309Y28297D01*
G01X7345Y28395D01*
G01X7370Y28495D01*
G01X7386Y28598D01*
G01X7391Y28702D01*
G01X7386Y28805D01*
G01X7370Y28908D01*
G01X7345Y29008D01*
G01X7309Y29106D01*
G01X7292Y29141D01*
G01X7879Y29728D01*
G01X8720Y29728D01*
G01X8658Y29717D01*
G01X8558Y29689D01*
G01X8461Y29651D01*
G01X8369Y29603D01*
G01X8282Y29547D01*
G01X8200Y29482D01*
G01X8126Y29410D01*
G01X8059Y29330D01*
G01X8001Y29245D01*
G01X7951Y29153D01*
G01X7911Y29058D01*
G01X7880Y28958D01*
G01X7860Y28857D01*
G01X7849Y28753D01*
G01X7849Y28650D01*
G01X7860Y28546D01*
G01X7880Y28445D01*
G01X7911Y28345D01*
G01X7951Y28250D01*
G01X8001Y28158D01*
G01X8059Y28073D01*
G01X8126Y27993D01*
G01X8200Y27921D01*
G01X8282Y27856D01*
G01X8369Y27800D01*
G01X8461Y27752D01*
G01X8558Y27714D01*
G01X8658Y27686D01*
G01X8760Y27668D01*
G01X8864Y27660D01*
G01X8967Y27663D01*
G01X9070Y27676D01*
G01X9172Y27699D01*
G01X9270Y27732D01*
G01X9365Y27775D01*
G01X9454Y27827D01*
G01X9539Y27887D01*
G01X9617Y27956D01*
G01X9687Y28032D01*
G01X9750Y28115D01*
G01X9804Y28203D01*
G01X9849Y28297D01*
G01X9867Y28346D01*
G01X15463Y28346D01*
G01X15476Y28346D01*
G01X15488Y28347D01*
G01X15501Y28348D01*
G01X15514Y28350D01*
G01X15526Y28352D01*
G01X15539Y28354D01*
G01X15551Y28357D01*
G01X15563Y28360D01*
G01X15575Y28364D01*
G01X15587Y28368D01*
G01X15599Y28373D01*
G01X15611Y28378D01*
G01X15622Y28384D01*
G01X15633Y28389D01*
G01X15644Y28396D01*
G01X15655Y28402D01*
G01X15666Y28409D01*
G01X15676Y28417D01*
G01X15686Y28425D01*
G01X15696Y28433D01*
G01X15705Y28441D01*
G01X15714Y28450D01*
G01X20147Y32883D01*
G01X20166Y32838D01*
G01X20193Y32789D01*
G01X20224Y32743D01*
G01X20260Y32700D01*
G01X20300Y32661D01*
G01X20344Y32627D01*
G01X20391Y32596D01*
G01X20440Y32571D01*
G01X20492Y32551D01*
G01X20546Y32535D01*
G01X20601Y32526D01*
G01X20656Y32522D01*
G01X20712Y32523D01*
G01X20767Y32530D01*
G01X20821Y32542D01*
G01X20874Y32560D01*
G01X20925Y32583D01*
G01X20973Y32611D01*
G01X21019Y32643D01*
G01X21060Y32680D01*
G01X21098Y32721D01*
G01X21101Y32725D01*
G01X42900Y32725D01*
G01X52205Y23420D01*
G01X52146Y23447D01*
G01X52060Y23476D01*
G01X51972Y23496D01*
G01X51883Y23507D01*
G01X51793Y23509D01*
G01X51703Y23503D01*
G01X51614Y23487D01*
G01X51528Y23462D01*
G01X51444Y23430D01*
G01X51363Y23388D01*
G01X51288Y23340D01*
G01X51217Y23283D01*
G01X51153Y23220D01*
G01X51095Y23151D01*
G01X51044Y23077D01*
G01X51001Y22998D01*
G01X50990Y22972D01*
G01X50958Y23038D01*
G01X50911Y23115D01*
G01X50857Y23187D01*
G01X50796Y23253D01*
G01X50728Y23312D01*
G01X50655Y23365D01*
G01X50577Y23410D01*
G01X50495Y23447D01*
G01X50489Y23449D01*
G01X50489Y22930D01*
G01X50973Y22930D01*
G01X50966Y22915D01*
G01X50939Y22829D01*
G01X50922Y22740D01*
G01X50913Y22651D01*
G01X50913Y22560D01*
G01X50922Y22471D01*
G01X50939Y22382D01*
G01X50966Y22296D01*
G01X50973Y22281D01*
G01X50489Y22281D01*
G01X50489Y21762D01*
G01X50495Y21764D01*
G01X50577Y21801D01*
G01X50655Y21846D01*
G01X50728Y21899D01*
G01X50796Y21958D01*
G01X50857Y22024D01*
G01X50911Y22096D01*
G01X50958Y22173D01*
G01X50990Y22239D01*
G01X51001Y22213D01*
G01X51044Y22134D01*
G01X51095Y22060D01*
G01X51153Y21991D01*
G01X51217Y21928D01*
G01X51288Y21871D01*
G01X51364Y21823D01*
G01X51444Y21781D01*
G01X51528Y21749D01*
G01X51614Y21724D01*
G01X51703Y21708D01*
G01X51793Y21702D01*
G01X51883Y21704D01*
G01X51972Y21715D01*
G01X52060Y21735D01*
G01X52146Y21764D01*
G01X52228Y21801D01*
G01X52306Y21846D01*
G01X52379Y21899D01*
G01X52447Y21958D01*
G01X52508Y22024D01*
G01X52562Y22096D01*
G01X52609Y22173D01*
G01X52649Y22254D01*
G01X52669Y22310D01*
G01X52673Y22296D01*
G01X52708Y22213D01*
G01X52751Y22134D01*
G01X52802Y22060D01*
G01X52860Y21991D01*
G01X52924Y21928D01*
G01X52995Y21871D01*
G01X53070Y21823D01*
G01X53151Y21781D01*
G01X53234Y21749D01*
G01X53321Y21724D01*
G01X53410Y21708D01*
G01X53500Y21702D01*
G01X53590Y21704D01*
G01X53679Y21715D01*
G01X53767Y21735D01*
G01X53853Y21764D01*
G01X53935Y21801D01*
G01X54013Y21846D01*
G01X54086Y21899D01*
G01X54154Y21958D01*
G01X54215Y22024D01*
G01X54269Y22096D01*
G01X54316Y22173D01*
G01X54355Y22254D01*
G01X54386Y22339D01*
G01X54408Y22426D01*
G01X54422Y22515D01*
G01X54426Y22606D01*
G01X54422Y22696D01*
G01X54408Y22785D01*
G01X54386Y22872D01*
G01X54355Y22957D01*
G01X54316Y23038D01*
G01X54269Y23115D01*
G01X54215Y23187D01*
G01X54154Y23253D01*
G01X54086Y23312D01*
G01X54013Y23365D01*
G01X53935Y23410D01*
G01X53853Y23447D01*
G01X53767Y23476D01*
G01X53679Y23496D01*
G01X53590Y23507D01*
G01X53500Y23509D01*
G01X53410Y23503D01*
G01X53321Y23487D01*
G01X53234Y23462D01*
G01X53187Y23444D01*
G01X43299Y33332D01*
G01X43290Y33341D01*
G01X43280Y33349D01*
G01X43270Y33357D01*
G01X43260Y33365D01*
G01X43250Y33372D01*
G01X43240Y33380D01*
G01X43229Y33386D01*
G01X43218Y33392D01*
G01X43207Y33398D01*
G01X43195Y33404D01*
G01X43183Y33409D01*
G01X43172Y33414D01*
G01X43160Y33418D01*
G01X43148Y33422D01*
G01X43135Y33425D01*
G01X43123Y33428D01*
G01X43111Y33430D01*
G01X43098Y33432D01*
G01X43085Y33434D01*
G01X43073Y33435D01*
G01X43060Y33436D01*
G01X43047Y33436D01*
G01X21101Y33436D01*
G01X21098Y33440D01*
G01X21060Y33481D01*
G01X21019Y33518D01*
G01X20973Y33550D01*
G01X20925Y33578D01*
G01X20874Y33601D01*
G01X20867Y33603D01*
G01X22567Y35303D01*
G01X36495Y35303D01*
G01X36516Y35278D01*
G01X36556Y35239D01*
G01X36600Y35205D01*
G01X36647Y35174D01*
G01X36696Y35149D01*
G01X36748Y35129D01*
G01X36802Y35114D01*
G01X36857Y35104D01*
G01X36912Y35100D01*
G01X36968Y35101D01*
G01X37023Y35108D01*
G01X37077Y35120D01*
G01X37130Y35138D01*
G01X37181Y35161D01*
G01X37229Y35189D01*
G01X37275Y35222D01*
G01X37316Y35258D01*
G01X37354Y35299D01*
G01X37388Y35344D01*
G01X37417Y35391D01*
G01X37441Y35441D01*
G01X37460Y35494D01*
G01X37474Y35548D01*
G01X37482Y35603D01*
G01X37485Y35659D01*
G01X37484Y35672D01*
G01X39585Y33571D01*
G01X39595Y33562D01*
G01X39604Y33553D01*
G01X39614Y33545D01*
G01X39624Y33538D01*
G01X39634Y33530D01*
G01X39645Y33523D01*
G01X39655Y33516D01*
G01X39666Y33510D01*
G01X39678Y33504D01*
G01X39689Y33499D01*
G01X39701Y33494D01*
G01X39713Y33489D01*
G01X39725Y33485D01*
G01X39737Y33481D01*
G01X39749Y33478D01*
G01X39761Y33475D01*
G01X39774Y33472D01*
G01X39786Y33470D01*
G01X39799Y33469D01*
G01X39812Y33468D01*
G01X39824Y33467D01*
G01X39837Y33467D01*
G01X79433Y33467D01*
G01X91170Y21729D01*
G01X91179Y21720D01*
G01X91189Y21712D01*
G01X91199Y21704D01*
G01X91209Y21696D01*
G01X91219Y21689D01*
G01X91230Y21682D01*
G01X91240Y21675D01*
G01X91251Y21669D01*
G01X91263Y21663D01*
G01X91274Y21657D01*
G01X91286Y21652D01*
G01X91297Y21648D01*
G01X91309Y21643D01*
G01X91322Y21640D01*
G01X91334Y21636D01*
G01X91346Y21633D01*
G01X91359Y21631D01*
G01X91371Y21629D01*
G01X91384Y21627D01*
G01X91396Y21626D01*
G01X91409Y21625D01*
G01X91422Y21625D01*
G01X94203Y21625D01*
G01X96592Y19236D01*
G01X96557Y19152D01*
G01X96526Y19052D01*
G01X96506Y18951D01*
G01X96495Y18847D01*
G01X96495Y18744D01*
G01X96506Y18640D01*
G01X96526Y18539D01*
G01X96557Y18439D01*
G01X96597Y18344D01*
G01X96647Y18252D01*
G01X96705Y18167D01*
G01X96772Y18087D01*
G01X96846Y18015D01*
G01X96928Y17950D01*
G01X97015Y17894D01*
G01X97107Y17846D01*
G01X97204Y17808D01*
G01X97304Y17780D01*
G01X97406Y17762D01*
G01X97510Y17754D01*
G37*
G36*
G01X17228Y67588D02*
G01X17403Y67592D01*
G01X17576Y67614D01*
G01X17747Y67653D01*
G01X17912Y67709D01*
G01X18072Y67781D01*
G01X18223Y67868D01*
G01X18365Y67970D01*
G01X18496Y68086D01*
G01X18615Y68214D01*
G01X18721Y68353D01*
G01X18812Y68503D01*
G01X18888Y68660D01*
G01X18948Y68825D01*
G01X18991Y68994D01*
G01X19017Y69167D01*
G01X19025Y69342D01*
G01X19017Y69516D01*
G01X18991Y69689D01*
G01X18948Y69858D01*
G01X18888Y70023D01*
G01X18812Y70180D01*
G01X18721Y70330D01*
G01X18615Y70469D01*
G01X18496Y70597D01*
G01X18365Y70713D01*
G01X18223Y70815D01*
G01X18072Y70902D01*
G01X17912Y70974D01*
G01X17747Y71030D01*
G01X17576Y71069D01*
G01X17403Y71091D01*
G01X17228Y71095D01*
G01X17053Y71082D01*
G01X16881Y71052D01*
G01X16713Y71004D01*
G01X16550Y70940D01*
G01X16394Y70860D01*
G01X16248Y70766D01*
G01X16111Y70657D01*
G01X15986Y70535D01*
G01X15873Y70401D01*
G01X15775Y70256D01*
G01X15691Y70103D01*
G01X15623Y69941D01*
G01X15572Y69774D01*
G01X15537Y69603D01*
G01X15520Y69429D01*
G01X15520Y69254D01*
G01X15537Y69080D01*
G01X15572Y68909D01*
G01X15623Y68742D01*
G01X15691Y68580D01*
G01X15775Y68427D01*
G01X15873Y68282D01*
G01X15986Y68148D01*
G01X16111Y68026D01*
G01X16248Y67917D01*
G01X16395Y67823D01*
G01X16550Y67743D01*
G01X16713Y67679D01*
G01X16881Y67631D01*
G01X17053Y67601D01*
G01X17228Y67588D01*
G37*
G36*
G01X4203Y18935D02*
G01X4851Y18935D01*
G01X4851Y19329D01*
G01X4851Y19339D01*
G01X4850Y19350D01*
G01X4849Y19360D01*
G01X4847Y19371D01*
G01X4845Y19381D01*
G01X4843Y19391D01*
G01X4840Y19401D01*
G01X4837Y19411D01*
G01X4834Y19421D01*
G01X4830Y19431D01*
G01X4825Y19440D01*
G01X4820Y19450D01*
G01X4815Y19459D01*
G01X4810Y19468D01*
G01X4804Y19476D01*
G01X4797Y19485D01*
G01X4791Y19493D01*
G01X4784Y19501D01*
G01X4777Y19509D01*
G01X4769Y19516D01*
G01X4761Y19523D01*
G01X4753Y19529D01*
G01X4744Y19536D01*
G01X4736Y19542D01*
G01X4727Y19547D01*
G01X4718Y19552D01*
G01X4708Y19557D01*
G01X4699Y19562D01*
G01X4689Y19566D01*
G01X4679Y19569D01*
G01X4669Y19572D01*
G01X4659Y19575D01*
G01X4649Y19577D01*
G01X4639Y19579D01*
G01X4628Y19581D01*
G01X4618Y19582D01*
G01X4607Y19583D01*
G01X4597Y19583D01*
G01X4203Y19583D01*
G01X4203Y18935D01*
G37*
G36*
G01X2768Y18935D02*
G01X3416Y18935D01*
G01X3416Y19583D01*
G01X3022Y19583D01*
G01X3012Y19583D01*
G01X3001Y19582D01*
G01X2991Y19581D01*
G01X2980Y19579D01*
G01X2970Y19577D01*
G01X2960Y19575D01*
G01X2950Y19572D01*
G01X2940Y19569D01*
G01X2930Y19566D01*
G01X2920Y19562D01*
G01X2911Y19557D01*
G01X2901Y19552D01*
G01X2892Y19547D01*
G01X2883Y19542D01*
G01X2875Y19536D01*
G01X2866Y19529D01*
G01X2858Y19523D01*
G01X2850Y19516D01*
G01X2842Y19509D01*
G01X2835Y19501D01*
G01X2828Y19493D01*
G01X2822Y19485D01*
G01X2815Y19476D01*
G01X2809Y19468D01*
G01X2804Y19459D01*
G01X2799Y19450D01*
G01X2794Y19440D01*
G01X2789Y19431D01*
G01X2785Y19421D01*
G01X2782Y19411D01*
G01X2779Y19401D01*
G01X2776Y19391D01*
G01X2774Y19381D01*
G01X2772Y19371D01*
G01X2770Y19360D01*
G01X2769Y19350D01*
G01X2768Y19339D01*
G01X2768Y19329D01*
G01X2768Y18935D01*
G37*
G36*
G01X92849Y19189D02*
G01X93497Y19189D01*
G01X93497Y19583D01*
G01X93497Y19593D01*
G01X93496Y19604D01*
G01X93495Y19614D01*
G01X93493Y19625D01*
G01X93491Y19635D01*
G01X93489Y19645D01*
G01X93486Y19655D01*
G01X93483Y19665D01*
G01X93480Y19675D01*
G01X93476Y19685D01*
G01X93471Y19694D01*
G01X93466Y19704D01*
G01X93461Y19713D01*
G01X93456Y19722D01*
G01X93450Y19730D01*
G01X93443Y19739D01*
G01X93437Y19747D01*
G01X93430Y19755D01*
G01X93423Y19763D01*
G01X93415Y19770D01*
G01X93407Y19777D01*
G01X93399Y19783D01*
G01X93390Y19790D01*
G01X93382Y19796D01*
G01X93373Y19801D01*
G01X93364Y19806D01*
G01X93354Y19811D01*
G01X93345Y19816D01*
G01X93335Y19820D01*
G01X93325Y19823D01*
G01X93315Y19826D01*
G01X93305Y19829D01*
G01X93295Y19831D01*
G01X93285Y19833D01*
G01X93274Y19835D01*
G01X93264Y19836D01*
G01X93253Y19837D01*
G01X93243Y19837D01*
G01X92849Y19837D01*
G01X92849Y19189D01*
G37*
G36*
G01X91414Y19189D02*
G01X92062Y19189D01*
G01X92062Y19837D01*
G01X91668Y19837D01*
G01X91658Y19837D01*
G01X91647Y19836D01*
G01X91637Y19835D01*
G01X91626Y19833D01*
G01X91616Y19831D01*
G01X91606Y19829D01*
G01X91596Y19826D01*
G01X91586Y19823D01*
G01X91576Y19820D01*
G01X91566Y19816D01*
G01X91557Y19811D01*
G01X91547Y19806D01*
G01X91538Y19801D01*
G01X91529Y19796D01*
G01X91521Y19790D01*
G01X91512Y19783D01*
G01X91504Y19777D01*
G01X91496Y19770D01*
G01X91488Y19763D01*
G01X91481Y19755D01*
G01X91474Y19747D01*
G01X91468Y19739D01*
G01X91461Y19730D01*
G01X91455Y19722D01*
G01X91450Y19713D01*
G01X91445Y19704D01*
G01X91440Y19694D01*
G01X91435Y19685D01*
G01X91431Y19675D01*
G01X91428Y19665D01*
G01X91425Y19655D01*
G01X91422Y19645D01*
G01X91420Y19635D01*
G01X91418Y19625D01*
G01X91416Y19614D01*
G01X91415Y19604D01*
G01X91414Y19593D01*
G01X91414Y19583D01*
G01X91414Y19189D01*
G37*
G36*
G01X79476Y65925D02*
G01X80124Y65925D01*
G01X80124Y66573D01*
G01X79730Y66573D01*
G01X79720Y66573D01*
G01X79709Y66572D01*
G01X79699Y66571D01*
G01X79688Y66569D01*
G01X79678Y66567D01*
G01X79668Y66565D01*
G01X79658Y66562D01*
G01X79648Y66559D01*
G01X79638Y66556D01*
G01X79628Y66552D01*
G01X79619Y66547D01*
G01X79609Y66542D01*
G01X79600Y66537D01*
G01X79591Y66532D01*
G01X79583Y66526D01*
G01X79574Y66519D01*
G01X79566Y66513D01*
G01X79558Y66506D01*
G01X79550Y66499D01*
G01X79543Y66491D01*
G01X79536Y66483D01*
G01X79530Y66475D01*
G01X79523Y66466D01*
G01X79517Y66458D01*
G01X79512Y66449D01*
G01X79507Y66440D01*
G01X79502Y66430D01*
G01X79497Y66421D01*
G01X79493Y66411D01*
G01X79490Y66401D01*
G01X79487Y66391D01*
G01X79484Y66381D01*
G01X79482Y66371D01*
G01X79480Y66361D01*
G01X79478Y66350D01*
G01X79477Y66340D01*
G01X79476Y66329D01*
G01X79476Y66319D01*
G01X79476Y65925D01*
G37*
G36*
G01X48501Y21702D02*
G01X48591Y21704D01*
G01X48681Y21715D01*
G01X48768Y21735D01*
G01X48854Y21764D01*
G01X48936Y21801D01*
G01X49014Y21846D01*
G01X49087Y21899D01*
G01X49155Y21958D01*
G01X49216Y22024D01*
G01X49271Y22096D01*
G01X49318Y22173D01*
G01X49344Y22228D01*
G01X49350Y22213D01*
G01X49393Y22134D01*
G01X49444Y22060D01*
G01X49502Y21991D01*
G01X49566Y21928D01*
G01X49637Y21871D01*
G01X49713Y21823D01*
G01X49793Y21781D01*
G01X49840Y21763D01*
G01X49840Y22281D01*
G01X49366Y22281D01*
G01X49388Y22339D01*
G01X49410Y22426D01*
G01X49423Y22515D01*
G01X49428Y22606D01*
G01X49423Y22696D01*
G01X49410Y22785D01*
G01X49388Y22872D01*
G01X49366Y22930D01*
G01X49840Y22930D01*
G01X49840Y23448D01*
G01X49793Y23430D01*
G01X49712Y23388D01*
G01X49637Y23340D01*
G01X49566Y23283D01*
G01X49502Y23220D01*
G01X49444Y23151D01*
G01X49393Y23077D01*
G01X49350Y22998D01*
G01X49344Y22983D01*
G01X49318Y23038D01*
G01X49271Y23115D01*
G01X49216Y23187D01*
G01X49155Y23253D01*
G01X49087Y23312D01*
G01X49014Y23365D01*
G01X48936Y23410D01*
G01X48854Y23447D01*
G01X48768Y23476D01*
G01X48681Y23496D01*
G01X48591Y23507D01*
G01X48501Y23509D01*
G01X48411Y23503D01*
G01X48322Y23487D01*
G01X48236Y23462D01*
G01X48152Y23430D01*
G01X48072Y23388D01*
G01X47996Y23340D01*
G01X47925Y23283D01*
G01X47861Y23220D01*
G01X47803Y23151D01*
G01X47752Y23077D01*
G01X47709Y22998D01*
G01X47674Y22915D01*
G01X47648Y22829D01*
G01X47630Y22740D01*
G01X47621Y22651D01*
G01X47621Y22560D01*
G01X47630Y22471D01*
G01X47648Y22382D01*
G01X47674Y22296D01*
G01X47709Y22213D01*
G01X47752Y22134D01*
G01X47803Y22060D01*
G01X47861Y21991D01*
G01X47925Y21928D01*
G01X47996Y21871D01*
G01X48072Y21823D01*
G01X48152Y21781D01*
G01X48236Y21749D01*
G01X48322Y21724D01*
G01X48411Y21708D01*
G01X48501Y21702D01*
G37*
G36*
G01X80911Y65925D02*
G01X81559Y65925D01*
G01X81559Y66319D01*
G01X81559Y66329D01*
G01X81558Y66340D01*
G01X81557Y66350D01*
G01X81555Y66361D01*
G01X81553Y66371D01*
G01X81551Y66381D01*
G01X81548Y66391D01*
G01X81545Y66401D01*
G01X81542Y66411D01*
G01X81538Y66421D01*
G01X81533Y66430D01*
G01X81528Y66440D01*
G01X81523Y66449D01*
G01X81518Y66458D01*
G01X81512Y66466D01*
G01X81505Y66475D01*
G01X81499Y66483D01*
G01X81492Y66491D01*
G01X81485Y66499D01*
G01X81477Y66506D01*
G01X81469Y66513D01*
G01X81461Y66519D01*
G01X81452Y66526D01*
G01X81444Y66532D01*
G01X81435Y66537D01*
G01X81426Y66542D01*
G01X81416Y66547D01*
G01X81407Y66552D01*
G01X81397Y66556D01*
G01X81387Y66559D01*
G01X81377Y66562D01*
G01X81367Y66565D01*
G01X81357Y66567D01*
G01X81347Y66569D01*
G01X81336Y66571D01*
G01X81326Y66572D01*
G01X81315Y66573D01*
G01X81305Y66573D01*
G01X80911Y66573D01*
G01X80911Y65925D01*
G37*
G36*
G01X83032Y64490D02*
G01X83135Y64493D01*
G01X83238Y64506D01*
G01X83340Y64529D01*
G01X83438Y64562D01*
G01X83533Y64605D01*
G01X83622Y64657D01*
G01X83707Y64717D01*
G01X83785Y64786D01*
G01X83855Y64862D01*
G01X83918Y64945D01*
G01X83972Y65033D01*
G01X84017Y65127D01*
G01X84053Y65225D01*
G01X84078Y65325D01*
G01X84094Y65428D01*
G01X84099Y65532D01*
G01X84094Y65635D01*
G01X84078Y65738D01*
G01X84053Y65838D01*
G01X84017Y65936D01*
G01X83972Y66030D01*
G01X83918Y66118D01*
G01X83855Y66201D01*
G01X83785Y66277D01*
G01X83707Y66346D01*
G01X83622Y66406D01*
G01X83533Y66458D01*
G01X83438Y66501D01*
G01X83340Y66534D01*
G01X83238Y66557D01*
G01X83135Y66570D01*
G01X83032Y66573D01*
G01X82928Y66565D01*
G01X82826Y66547D01*
G01X82726Y66519D01*
G01X82629Y66481D01*
G01X82537Y66433D01*
G01X82450Y66377D01*
G01X82368Y66312D01*
G01X82294Y66240D01*
G01X82227Y66160D01*
G01X82169Y66075D01*
G01X82119Y65983D01*
G01X82079Y65888D01*
G01X82048Y65788D01*
G01X82028Y65687D01*
G01X82017Y65583D01*
G01X82017Y65480D01*
G01X82028Y65376D01*
G01X82048Y65275D01*
G01X82079Y65175D01*
G01X82119Y65080D01*
G01X82169Y64988D01*
G01X82227Y64903D01*
G01X82294Y64823D01*
G01X82368Y64751D01*
G01X82450Y64686D01*
G01X82537Y64630D01*
G01X82629Y64582D01*
G01X82726Y64544D01*
G01X82826Y64516D01*
G01X82928Y64498D01*
G01X83032Y64490D01*
G37*
G36*
G01X79730Y64490D02*
G01X80124Y64490D01*
G01X80124Y65138D01*
G01X79476Y65138D01*
G01X79476Y64744D01*
G01X79476Y64734D01*
G01X79477Y64723D01*
G01X79478Y64713D01*
G01X79480Y64702D01*
G01X79482Y64692D01*
G01X79484Y64682D01*
G01X79487Y64672D01*
G01X79490Y64662D01*
G01X79493Y64652D01*
G01X79497Y64642D01*
G01X79502Y64633D01*
G01X79507Y64623D01*
G01X79512Y64614D01*
G01X79517Y64605D01*
G01X79523Y64597D01*
G01X79530Y64588D01*
G01X79536Y64580D01*
G01X79543Y64572D01*
G01X79550Y64564D01*
G01X79558Y64557D01*
G01X79566Y64550D01*
G01X79574Y64544D01*
G01X79583Y64537D01*
G01X79591Y64531D01*
G01X79600Y64526D01*
G01X79609Y64521D01*
G01X79619Y64516D01*
G01X79628Y64511D01*
G01X79638Y64507D01*
G01X79648Y64504D01*
G01X79658Y64501D01*
G01X79668Y64498D01*
G01X79678Y64496D01*
G01X79688Y64494D01*
G01X79699Y64492D01*
G01X79709Y64491D01*
G01X79720Y64490D01*
G01X79730Y64490D01*
G37*
G36*
G01X80911Y64490D02*
G01X81305Y64490D01*
G01X81315Y64490D01*
G01X81326Y64491D01*
G01X81336Y64492D01*
G01X81347Y64494D01*
G01X81357Y64496D01*
G01X81367Y64498D01*
G01X81377Y64501D01*
G01X81387Y64504D01*
G01X81397Y64507D01*
G01X81407Y64511D01*
G01X81416Y64516D01*
G01X81426Y64521D01*
G01X81435Y64526D01*
G01X81444Y64531D01*
G01X81452Y64537D01*
G01X81461Y64544D01*
G01X81469Y64550D01*
G01X81477Y64557D01*
G01X81485Y64564D01*
G01X81492Y64572D01*
G01X81499Y64580D01*
G01X81505Y64588D01*
G01X81512Y64597D01*
G01X81518Y64605D01*
G01X81523Y64614D01*
G01X81528Y64623D01*
G01X81533Y64633D01*
G01X81538Y64642D01*
G01X81542Y64652D01*
G01X81545Y64662D01*
G01X81548Y64672D01*
G01X81551Y64682D01*
G01X81553Y64692D01*
G01X81555Y64702D01*
G01X81557Y64713D01*
G01X81558Y64723D01*
G01X81559Y64734D01*
G01X81559Y64744D01*
G01X81559Y65138D01*
G01X80911Y65138D01*
G01X80911Y64490D01*
G37*
G36*
G01X13182Y63893D02*
G01X13830Y63893D01*
G01X13830Y64541D01*
G01X13436Y64541D01*
G01X13426Y64541D01*
G01X13415Y64540D01*
G01X13405Y64539D01*
G01X13394Y64537D01*
G01X13384Y64535D01*
G01X13374Y64533D01*
G01X13364Y64530D01*
G01X13354Y64527D01*
G01X13344Y64524D01*
G01X13334Y64520D01*
G01X13325Y64515D01*
G01X13315Y64510D01*
G01X13306Y64505D01*
G01X13297Y64500D01*
G01X13289Y64494D01*
G01X13280Y64487D01*
G01X13272Y64481D01*
G01X13264Y64474D01*
G01X13256Y64467D01*
G01X13249Y64459D01*
G01X13242Y64451D01*
G01X13236Y64443D01*
G01X13229Y64434D01*
G01X13223Y64426D01*
G01X13218Y64417D01*
G01X13213Y64408D01*
G01X13208Y64398D01*
G01X13203Y64389D01*
G01X13199Y64379D01*
G01X13196Y64369D01*
G01X13193Y64359D01*
G01X13190Y64349D01*
G01X13188Y64339D01*
G01X13186Y64329D01*
G01X13184Y64318D01*
G01X13183Y64308D01*
G01X13182Y64297D01*
G01X13182Y64287D01*
G01X13182Y63893D01*
G37*
G36*
G01X4203Y22580D02*
G01X4597Y22580D01*
G01X4607Y22580D01*
G01X4618Y22581D01*
G01X4628Y22582D01*
G01X4639Y22584D01*
G01X4649Y22586D01*
G01X4659Y22588D01*
G01X4669Y22591D01*
G01X4679Y22594D01*
G01X4689Y22597D01*
G01X4699Y22601D01*
G01X4708Y22606D01*
G01X4718Y22611D01*
G01X4727Y22616D01*
G01X4736Y22621D01*
G01X4744Y22627D01*
G01X4753Y22634D01*
G01X4761Y22640D01*
G01X4769Y22647D01*
G01X4777Y22654D01*
G01X4784Y22662D01*
G01X4791Y22670D01*
G01X4797Y22678D01*
G01X4804Y22687D01*
G01X4810Y22695D01*
G01X4815Y22704D01*
G01X4820Y22713D01*
G01X4825Y22723D01*
G01X4830Y22732D01*
G01X4834Y22742D01*
G01X4837Y22752D01*
G01X4840Y22762D01*
G01X4843Y22772D01*
G01X4845Y22782D01*
G01X4847Y22792D01*
G01X4849Y22803D01*
G01X4850Y22813D01*
G01X4851Y22824D01*
G01X4851Y22834D01*
G01X4851Y23228D01*
G01X4203Y23228D01*
G01X4203Y22580D01*
G37*
G36*
G01X3022Y22580D02*
G01X3416Y22580D01*
G01X3416Y23228D01*
G01X2768Y23228D01*
G01X2768Y22834D01*
G01X2768Y22824D01*
G01X2769Y22813D01*
G01X2770Y22803D01*
G01X2772Y22792D01*
G01X2774Y22782D01*
G01X2776Y22772D01*
G01X2779Y22762D01*
G01X2782Y22752D01*
G01X2785Y22742D01*
G01X2789Y22732D01*
G01X2794Y22723D01*
G01X2799Y22713D01*
G01X2804Y22704D01*
G01X2809Y22695D01*
G01X2815Y22687D01*
G01X2822Y22678D01*
G01X2828Y22670D01*
G01X2835Y22662D01*
G01X2842Y22654D01*
G01X2850Y22647D01*
G01X2858Y22640D01*
G01X2866Y22634D01*
G01X2875Y22627D01*
G01X2883Y22621D01*
G01X2892Y22616D01*
G01X2901Y22611D01*
G01X2911Y22606D01*
G01X2920Y22601D01*
G01X2930Y22597D01*
G01X2940Y22594D01*
G01X2950Y22591D01*
G01X2960Y22588D01*
G01X2970Y22586D01*
G01X2980Y22584D01*
G01X2991Y22582D01*
G01X3001Y22581D01*
G01X3012Y22580D01*
G01X3022Y22580D01*
G37*
G36*
G01X6324Y22580D02*
G01X6427Y22583D01*
G01X6530Y22596D01*
G01X6632Y22619D01*
G01X6730Y22652D01*
G01X6825Y22695D01*
G01X6914Y22747D01*
G01X6999Y22807D01*
G01X7077Y22876D01*
G01X7147Y22952D01*
G01X7210Y23035D01*
G01X7264Y23123D01*
G01X7309Y23217D01*
G01X7345Y23315D01*
G01X7370Y23415D01*
G01X7386Y23518D01*
G01X7391Y23622D01*
G01X7386Y23725D01*
G01X7370Y23828D01*
G01X7345Y23928D01*
G01X7309Y24026D01*
G01X7264Y24120D01*
G01X7210Y24208D01*
G01X7147Y24291D01*
G01X7077Y24367D01*
G01X6999Y24436D01*
G01X6914Y24496D01*
G01X6825Y24548D01*
G01X6730Y24591D01*
G01X6632Y24624D01*
G01X6530Y24647D01*
G01X6427Y24660D01*
G01X6324Y24663D01*
G01X6220Y24655D01*
G01X6118Y24637D01*
G01X6018Y24609D01*
G01X5921Y24571D01*
G01X5829Y24523D01*
G01X5742Y24467D01*
G01X5660Y24402D01*
G01X5586Y24330D01*
G01X5519Y24250D01*
G01X5461Y24165D01*
G01X5411Y24073D01*
G01X5371Y23978D01*
G01X5340Y23878D01*
G01X5320Y23777D01*
G01X5309Y23673D01*
G01X5309Y23570D01*
G01X5320Y23466D01*
G01X5340Y23365D01*
G01X5371Y23265D01*
G01X5411Y23170D01*
G01X5461Y23078D01*
G01X5519Y22993D01*
G01X5586Y22913D01*
G01X5660Y22841D01*
G01X5742Y22776D01*
G01X5829Y22720D01*
G01X5921Y22672D01*
G01X6018Y22634D01*
G01X6118Y22606D01*
G01X6220Y22588D01*
G01X6324Y22580D01*
G37*
G36*
G01X8864Y22580D02*
G01X8967Y22583D01*
G01X9070Y22596D01*
G01X9172Y22619D01*
G01X9270Y22652D01*
G01X9365Y22695D01*
G01X9454Y22747D01*
G01X9539Y22807D01*
G01X9617Y22876D01*
G01X9687Y22952D01*
G01X9750Y23035D01*
G01X9804Y23123D01*
G01X9849Y23217D01*
G01X9885Y23315D01*
G01X9910Y23415D01*
G01X9926Y23518D01*
G01X9931Y23622D01*
G01X9926Y23725D01*
G01X9910Y23828D01*
G01X9885Y23928D01*
G01X9849Y24026D01*
G01X9804Y24120D01*
G01X9750Y24208D01*
G01X9687Y24291D01*
G01X9617Y24367D01*
G01X9539Y24436D01*
G01X9454Y24496D01*
G01X9365Y24548D01*
G01X9270Y24591D01*
G01X9172Y24624D01*
G01X9070Y24647D01*
G01X8967Y24660D01*
G01X8864Y24663D01*
G01X8760Y24655D01*
G01X8658Y24637D01*
G01X8558Y24609D01*
G01X8461Y24571D01*
G01X8369Y24523D01*
G01X8282Y24467D01*
G01X8200Y24402D01*
G01X8126Y24330D01*
G01X8059Y24250D01*
G01X8001Y24165D01*
G01X7951Y24073D01*
G01X7911Y23978D01*
G01X7880Y23878D01*
G01X7860Y23777D01*
G01X7849Y23673D01*
G01X7849Y23570D01*
G01X7860Y23466D01*
G01X7880Y23365D01*
G01X7911Y23265D01*
G01X7951Y23170D01*
G01X8001Y23078D01*
G01X8059Y22993D01*
G01X8126Y22913D01*
G01X8200Y22841D01*
G01X8282Y22776D01*
G01X8369Y22720D01*
G01X8461Y22672D01*
G01X8558Y22634D01*
G01X8658Y22606D01*
G01X8760Y22588D01*
G01X8864Y22580D01*
G37*
G36*
G01X92849Y22834D02*
G01X93243Y22834D01*
G01X93253Y22834D01*
G01X93264Y22835D01*
G01X93274Y22836D01*
G01X93285Y22838D01*
G01X93295Y22840D01*
G01X93305Y22842D01*
G01X93315Y22845D01*
G01X93325Y22848D01*
G01X93335Y22851D01*
G01X93345Y22855D01*
G01X93354Y22860D01*
G01X93364Y22865D01*
G01X93373Y22870D01*
G01X93382Y22875D01*
G01X93390Y22881D01*
G01X93399Y22888D01*
G01X93407Y22894D01*
G01X93415Y22901D01*
G01X93423Y22908D01*
G01X93430Y22916D01*
G01X93437Y22924D01*
G01X93443Y22932D01*
G01X93450Y22941D01*
G01X93456Y22949D01*
G01X93461Y22958D01*
G01X93466Y22967D01*
G01X93471Y22977D01*
G01X93476Y22986D01*
G01X93480Y22996D01*
G01X93483Y23006D01*
G01X93486Y23016D01*
G01X93489Y23026D01*
G01X93491Y23036D01*
G01X93493Y23046D01*
G01X93495Y23057D01*
G01X93496Y23067D01*
G01X93497Y23078D01*
G01X93497Y23088D01*
G01X93497Y23482D01*
G01X92849Y23482D01*
G01X92849Y22834D01*
G37*
G36*
G01X91668Y22834D02*
G01X92062Y22834D01*
G01X92062Y23482D01*
G01X91414Y23482D01*
G01X91414Y23088D01*
G01X91414Y23078D01*
G01X91415Y23067D01*
G01X91416Y23057D01*
G01X91418Y23046D01*
G01X91420Y23036D01*
G01X91422Y23026D01*
G01X91425Y23016D01*
G01X91428Y23006D01*
G01X91431Y22996D01*
G01X91435Y22986D01*
G01X91440Y22977D01*
G01X91445Y22967D01*
G01X91450Y22958D01*
G01X91455Y22949D01*
G01X91461Y22941D01*
G01X91468Y22932D01*
G01X91474Y22924D01*
G01X91481Y22916D01*
G01X91488Y22908D01*
G01X91496Y22901D01*
G01X91504Y22894D01*
G01X91512Y22888D01*
G01X91521Y22881D01*
G01X91529Y22875D01*
G01X91538Y22870D01*
G01X91547Y22865D01*
G01X91557Y22860D01*
G01X91566Y22855D01*
G01X91576Y22851D01*
G01X91586Y22848D01*
G01X91596Y22845D01*
G01X91606Y22842D01*
G01X91616Y22840D01*
G01X91626Y22838D01*
G01X91637Y22836D01*
G01X91647Y22835D01*
G01X91658Y22834D01*
G01X91668Y22834D01*
G37*
G36*
G01X94970Y22834D02*
G01X95073Y22837D01*
G01X95176Y22850D01*
G01X95278Y22873D01*
G01X95376Y22906D01*
G01X95471Y22949D01*
G01X95560Y23001D01*
G01X95645Y23061D01*
G01X95723Y23130D01*
G01X95793Y23206D01*
G01X95856Y23289D01*
G01X95910Y23377D01*
G01X95955Y23471D01*
G01X95991Y23569D01*
G01X96016Y23669D01*
G01X96032Y23772D01*
G01X96037Y23876D01*
G01X96032Y23979D01*
G01X96016Y24082D01*
G01X95991Y24182D01*
G01X95955Y24280D01*
G01X95910Y24374D01*
G01X95856Y24462D01*
G01X95793Y24545D01*
G01X95723Y24621D01*
G01X95645Y24690D01*
G01X95560Y24750D01*
G01X95471Y24802D01*
G01X95376Y24845D01*
G01X95278Y24878D01*
G01X95176Y24901D01*
G01X95073Y24914D01*
G01X94970Y24917D01*
G01X94866Y24909D01*
G01X94764Y24891D01*
G01X94664Y24863D01*
G01X94567Y24825D01*
G01X94475Y24777D01*
G01X94388Y24721D01*
G01X94306Y24656D01*
G01X94232Y24584D01*
G01X94165Y24504D01*
G01X94107Y24419D01*
G01X94057Y24327D01*
G01X94017Y24232D01*
G01X93986Y24132D01*
G01X93966Y24031D01*
G01X93955Y23927D01*
G01X93955Y23824D01*
G01X93966Y23720D01*
G01X93986Y23619D01*
G01X94017Y23519D01*
G01X94057Y23424D01*
G01X94107Y23332D01*
G01X94165Y23247D01*
G01X94232Y23167D01*
G01X94306Y23095D01*
G01X94388Y23030D01*
G01X94475Y22974D01*
G01X94567Y22926D01*
G01X94664Y22888D01*
G01X94764Y22860D01*
G01X94866Y22842D01*
G01X94970Y22834D01*
G37*
G36*
G01X14617Y63893D02*
G01X15265Y63893D01*
G01X15265Y64287D01*
G01X15265Y64297D01*
G01X15264Y64308D01*
G01X15263Y64318D01*
G01X15261Y64329D01*
G01X15259Y64339D01*
G01X15257Y64349D01*
G01X15254Y64359D01*
G01X15251Y64369D01*
G01X15248Y64379D01*
G01X15244Y64389D01*
G01X15239Y64398D01*
G01X15234Y64408D01*
G01X15229Y64417D01*
G01X15224Y64426D01*
G01X15218Y64434D01*
G01X15211Y64443D01*
G01X15205Y64451D01*
G01X15198Y64459D01*
G01X15191Y64467D01*
G01X15183Y64474D01*
G01X15175Y64481D01*
G01X15167Y64487D01*
G01X15158Y64494D01*
G01X15150Y64500D01*
G01X15141Y64505D01*
G01X15132Y64510D01*
G01X15122Y64515D01*
G01X15113Y64520D01*
G01X15103Y64524D01*
G01X15093Y64527D01*
G01X15083Y64530D01*
G01X15073Y64533D01*
G01X15063Y64535D01*
G01X15053Y64537D01*
G01X15042Y64539D01*
G01X15032Y64540D01*
G01X15021Y64541D01*
G01X15011Y64541D01*
G01X14617Y64541D01*
G01X14617Y63893D01*
G37*
G36*
G01X19278Y62458D02*
G01X19381Y62461D01*
G01X19484Y62474D01*
G01X19586Y62497D01*
G01X19684Y62530D01*
G01X19779Y62573D01*
G01X19868Y62625D01*
G01X19953Y62685D01*
G01X20031Y62754D01*
G01X20101Y62830D01*
G01X20164Y62913D01*
G01X20218Y63001D01*
G01X20263Y63095D01*
G01X20299Y63193D01*
G01X20324Y63293D01*
G01X20340Y63396D01*
G01X20345Y63500D01*
G01X20340Y63603D01*
G01X20324Y63706D01*
G01X20299Y63806D01*
G01X20263Y63904D01*
G01X20218Y63998D01*
G01X20164Y64086D01*
G01X20101Y64169D01*
G01X20031Y64245D01*
G01X19953Y64314D01*
G01X19868Y64374D01*
G01X19779Y64426D01*
G01X19684Y64469D01*
G01X19586Y64502D01*
G01X19484Y64525D01*
G01X19381Y64538D01*
G01X19278Y64541D01*
G01X19174Y64533D01*
G01X19072Y64515D01*
G01X18972Y64487D01*
G01X18875Y64449D01*
G01X18783Y64401D01*
G01X18696Y64345D01*
G01X18614Y64280D01*
G01X18540Y64208D01*
G01X18473Y64128D01*
G01X18415Y64043D01*
G01X18365Y63951D01*
G01X18325Y63856D01*
G01X18294Y63756D01*
G01X18274Y63655D01*
G01X18263Y63551D01*
G01X18263Y63448D01*
G01X18274Y63344D01*
G01X18294Y63243D01*
G01X18325Y63143D01*
G01X18365Y63048D01*
G01X18415Y62956D01*
G01X18473Y62871D01*
G01X18540Y62791D01*
G01X18614Y62719D01*
G01X18696Y62654D01*
G01X18783Y62598D01*
G01X18875Y62550D01*
G01X18972Y62512D01*
G01X19072Y62484D01*
G01X19174Y62466D01*
G01X19278Y62458D01*
G37*
G36*
G01X16738Y62458D02*
G01X16841Y62461D01*
G01X16944Y62474D01*
G01X17046Y62497D01*
G01X17144Y62530D01*
G01X17239Y62573D01*
G01X17328Y62625D01*
G01X17413Y62685D01*
G01X17491Y62754D01*
G01X17561Y62830D01*
G01X17624Y62913D01*
G01X17678Y63001D01*
G01X17723Y63095D01*
G01X17759Y63193D01*
G01X17784Y63293D01*
G01X17800Y63396D01*
G01X17805Y63500D01*
G01X17800Y63603D01*
G01X17784Y63706D01*
G01X17759Y63806D01*
G01X17723Y63904D01*
G01X17678Y63998D01*
G01X17624Y64086D01*
G01X17561Y64169D01*
G01X17491Y64245D01*
G01X17413Y64314D01*
G01X17328Y64374D01*
G01X17239Y64426D01*
G01X17144Y64469D01*
G01X17046Y64502D01*
G01X16944Y64525D01*
G01X16841Y64538D01*
G01X16738Y64541D01*
G01X16634Y64533D01*
G01X16532Y64515D01*
G01X16432Y64487D01*
G01X16335Y64449D01*
G01X16243Y64401D01*
G01X16156Y64345D01*
G01X16074Y64280D01*
G01X16000Y64208D01*
G01X15933Y64128D01*
G01X15875Y64043D01*
G01X15825Y63951D01*
G01X15785Y63856D01*
G01X15754Y63756D01*
G01X15734Y63655D01*
G01X15723Y63551D01*
G01X15723Y63448D01*
G01X15734Y63344D01*
G01X15754Y63243D01*
G01X15785Y63143D01*
G01X15825Y63048D01*
G01X15875Y62956D01*
G01X15933Y62871D01*
G01X16000Y62791D01*
G01X16074Y62719D01*
G01X16156Y62654D01*
G01X16243Y62598D01*
G01X16335Y62550D01*
G01X16432Y62512D01*
G01X16532Y62484D01*
G01X16634Y62466D01*
G01X16738Y62458D01*
G37*
G36*
G01X13436Y62458D02*
G01X13830Y62458D01*
G01X13830Y63106D01*
G01X13182Y63106D01*
G01X13182Y62712D01*
G01X13182Y62702D01*
G01X13183Y62691D01*
G01X13184Y62681D01*
G01X13186Y62670D01*
G01X13188Y62660D01*
G01X13190Y62650D01*
G01X13193Y62640D01*
G01X13196Y62630D01*
G01X13199Y62620D01*
G01X13203Y62610D01*
G01X13208Y62601D01*
G01X13213Y62591D01*
G01X13218Y62582D01*
G01X13223Y62573D01*
G01X13229Y62565D01*
G01X13236Y62556D01*
G01X13242Y62548D01*
G01X13249Y62540D01*
G01X13256Y62532D01*
G01X13264Y62525D01*
G01X13272Y62518D01*
G01X13280Y62512D01*
G01X13289Y62505D01*
G01X13297Y62499D01*
G01X13306Y62494D01*
G01X13315Y62489D01*
G01X13325Y62484D01*
G01X13334Y62479D01*
G01X13344Y62475D01*
G01X13354Y62472D01*
G01X13364Y62469D01*
G01X13374Y62466D01*
G01X13384Y62464D01*
G01X13394Y62462D01*
G01X13405Y62460D01*
G01X13415Y62459D01*
G01X13426Y62458D01*
G01X13436Y62458D01*
G37*
G36*
G01X14617Y62458D02*
G01X15011Y62458D01*
G01X15021Y62458D01*
G01X15032Y62459D01*
G01X15042Y62460D01*
G01X15053Y62462D01*
G01X15063Y62464D01*
G01X15073Y62466D01*
G01X15083Y62469D01*
G01X15093Y62472D01*
G01X15103Y62475D01*
G01X15113Y62479D01*
G01X15122Y62484D01*
G01X15132Y62489D01*
G01X15141Y62494D01*
G01X15150Y62499D01*
G01X15158Y62505D01*
G01X15167Y62512D01*
G01X15175Y62518D01*
G01X15183Y62525D01*
G01X15191Y62532D01*
G01X15198Y62540D01*
G01X15205Y62548D01*
G01X15211Y62556D01*
G01X15218Y62565D01*
G01X15224Y62573D01*
G01X15229Y62582D01*
G01X15234Y62591D01*
G01X15239Y62601D01*
G01X15244Y62610D01*
G01X15248Y62620D01*
G01X15251Y62630D01*
G01X15254Y62640D01*
G01X15257Y62650D01*
G01X15259Y62660D01*
G01X15261Y62670D01*
G01X15263Y62681D01*
G01X15264Y62691D01*
G01X15265Y62702D01*
G01X15265Y62712D01*
G01X15265Y63106D01*
G01X14617Y63106D01*
G01X14617Y62458D01*
G37*
G36*
G01X79476Y60845D02*
G01X80124Y60845D01*
G01X80124Y61493D01*
G01X79730Y61493D01*
G01X79720Y61493D01*
G01X79709Y61492D01*
G01X79699Y61491D01*
G01X79688Y61489D01*
G01X79678Y61487D01*
G01X79668Y61485D01*
G01X79658Y61482D01*
G01X79648Y61479D01*
G01X79638Y61476D01*
G01X79628Y61472D01*
G01X79619Y61467D01*
G01X79609Y61462D01*
G01X79600Y61457D01*
G01X79591Y61452D01*
G01X79583Y61446D01*
G01X79574Y61439D01*
G01X79566Y61433D01*
G01X79558Y61426D01*
G01X79550Y61419D01*
G01X79543Y61411D01*
G01X79536Y61403D01*
G01X79530Y61395D01*
G01X79523Y61386D01*
G01X79517Y61378D01*
G01X79512Y61369D01*
G01X79507Y61360D01*
G01X79502Y61350D01*
G01X79497Y61341D01*
G01X79493Y61331D01*
G01X79490Y61321D01*
G01X79487Y61311D01*
G01X79484Y61301D01*
G01X79482Y61291D01*
G01X79480Y61281D01*
G01X79478Y61270D01*
G01X79477Y61260D01*
G01X79476Y61249D01*
G01X79476Y61239D01*
G01X79476Y60845D01*
G37*
G36*
G01X83032Y59410D02*
G01X83135Y59413D01*
G01X83238Y59426D01*
G01X83340Y59449D01*
G01X83438Y59482D01*
G01X83533Y59525D01*
G01X83622Y59577D01*
G01X83707Y59637D01*
G01X83785Y59706D01*
G01X83855Y59782D01*
G01X83918Y59865D01*
G01X83972Y59953D01*
G01X84017Y60047D01*
G01X84053Y60145D01*
G01X84078Y60245D01*
G01X84094Y60348D01*
G01X84099Y60452D01*
G01X84094Y60555D01*
G01X84078Y60658D01*
G01X84053Y60758D01*
G01X84017Y60856D01*
G01X83972Y60950D01*
G01X83918Y61038D01*
G01X83855Y61121D01*
G01X83785Y61197D01*
G01X83707Y61266D01*
G01X83622Y61326D01*
G01X83533Y61378D01*
G01X83438Y61421D01*
G01X83340Y61454D01*
G01X83238Y61477D01*
G01X83135Y61490D01*
G01X83032Y61493D01*
G01X82928Y61485D01*
G01X82826Y61467D01*
G01X82726Y61439D01*
G01X82629Y61401D01*
G01X82537Y61353D01*
G01X82450Y61297D01*
G01X82368Y61232D01*
G01X82294Y61160D01*
G01X82227Y61080D01*
G01X82169Y60995D01*
G01X82119Y60903D01*
G01X82079Y60808D01*
G01X82048Y60708D01*
G01X82028Y60607D01*
G01X82017Y60503D01*
G01X82017Y60400D01*
G01X82028Y60296D01*
G01X82048Y60195D01*
G01X82079Y60095D01*
G01X82119Y60000D01*
G01X82169Y59908D01*
G01X82227Y59823D01*
G01X82294Y59743D01*
G01X82368Y59671D01*
G01X82450Y59606D01*
G01X82537Y59550D01*
G01X82629Y59502D01*
G01X82726Y59464D01*
G01X82826Y59436D01*
G01X82928Y59418D01*
G01X83032Y59410D01*
G37*
G36*
G01X4203Y24015D02*
G01X4851Y24015D01*
G01X4851Y24409D01*
G01X4851Y24419D01*
G01X4850Y24430D01*
G01X4849Y24440D01*
G01X4847Y24451D01*
G01X4845Y24461D01*
G01X4843Y24471D01*
G01X4840Y24481D01*
G01X4837Y24491D01*
G01X4834Y24501D01*
G01X4830Y24511D01*
G01X4825Y24520D01*
G01X4820Y24530D01*
G01X4815Y24539D01*
G01X4810Y24548D01*
G01X4804Y24556D01*
G01X4797Y24565D01*
G01X4791Y24573D01*
G01X4784Y24581D01*
G01X4777Y24589D01*
G01X4769Y24596D01*
G01X4761Y24603D01*
G01X4753Y24609D01*
G01X4744Y24616D01*
G01X4736Y24622D01*
G01X4727Y24627D01*
G01X4718Y24632D01*
G01X4708Y24637D01*
G01X4699Y24642D01*
G01X4689Y24646D01*
G01X4679Y24649D01*
G01X4669Y24652D01*
G01X4659Y24655D01*
G01X4649Y24657D01*
G01X4639Y24659D01*
G01X4628Y24661D01*
G01X4618Y24662D01*
G01X4607Y24663D01*
G01X4597Y24663D01*
G01X4203Y24663D01*
G01X4203Y24015D01*
G37*
G36*
G01X2768Y24015D02*
G01X3416Y24015D01*
G01X3416Y24663D01*
G01X3022Y24663D01*
G01X3012Y24663D01*
G01X3001Y24662D01*
G01X2991Y24661D01*
G01X2980Y24659D01*
G01X2970Y24657D01*
G01X2960Y24655D01*
G01X2950Y24652D01*
G01X2940Y24649D01*
G01X2930Y24646D01*
G01X2920Y24642D01*
G01X2911Y24637D01*
G01X2901Y24632D01*
G01X2892Y24627D01*
G01X2883Y24622D01*
G01X2875Y24616D01*
G01X2866Y24609D01*
G01X2858Y24603D01*
G01X2850Y24596D01*
G01X2842Y24589D01*
G01X2835Y24581D01*
G01X2828Y24573D01*
G01X2822Y24565D01*
G01X2815Y24556D01*
G01X2809Y24548D01*
G01X2804Y24539D01*
G01X2799Y24530D01*
G01X2794Y24520D01*
G01X2789Y24511D01*
G01X2785Y24501D01*
G01X2782Y24491D01*
G01X2779Y24481D01*
G01X2776Y24471D01*
G01X2774Y24461D01*
G01X2772Y24451D01*
G01X2770Y24440D01*
G01X2769Y24430D01*
G01X2768Y24419D01*
G01X2768Y24409D01*
G01X2768Y24015D01*
G37*
G36*
G01X92849Y24269D02*
G01X93497Y24269D01*
G01X93497Y24663D01*
G01X93497Y24673D01*
G01X93496Y24684D01*
G01X93495Y24694D01*
G01X93493Y24705D01*
G01X93491Y24715D01*
G01X93489Y24725D01*
G01X93486Y24735D01*
G01X93483Y24745D01*
G01X93480Y24755D01*
G01X93476Y24765D01*
G01X93471Y24774D01*
G01X93466Y24784D01*
G01X93461Y24793D01*
G01X93456Y24802D01*
G01X93450Y24810D01*
G01X93443Y24819D01*
G01X93437Y24827D01*
G01X93430Y24835D01*
G01X93423Y24843D01*
G01X93415Y24850D01*
G01X93407Y24857D01*
G01X93399Y24863D01*
G01X93390Y24870D01*
G01X93382Y24876D01*
G01X93373Y24881D01*
G01X93364Y24886D01*
G01X93354Y24891D01*
G01X93345Y24896D01*
G01X93335Y24900D01*
G01X93325Y24903D01*
G01X93315Y24906D01*
G01X93305Y24909D01*
G01X93295Y24911D01*
G01X93285Y24913D01*
G01X93274Y24915D01*
G01X93264Y24916D01*
G01X93253Y24917D01*
G01X93243Y24917D01*
G01X92849Y24917D01*
G01X92849Y24269D01*
G37*
G36*
G01X91414Y24269D02*
G01X92062Y24269D01*
G01X92062Y24917D01*
G01X91668Y24917D01*
G01X91658Y24917D01*
G01X91647Y24916D01*
G01X91637Y24915D01*
G01X91626Y24913D01*
G01X91616Y24911D01*
G01X91606Y24909D01*
G01X91596Y24906D01*
G01X91586Y24903D01*
G01X91576Y24900D01*
G01X91566Y24896D01*
G01X91557Y24891D01*
G01X91547Y24886D01*
G01X91538Y24881D01*
G01X91529Y24876D01*
G01X91521Y24870D01*
G01X91512Y24863D01*
G01X91504Y24857D01*
G01X91496Y24850D01*
G01X91488Y24843D01*
G01X91481Y24835D01*
G01X91474Y24827D01*
G01X91468Y24819D01*
G01X91461Y24810D01*
G01X91455Y24802D01*
G01X91450Y24793D01*
G01X91445Y24784D01*
G01X91440Y24774D01*
G01X91435Y24765D01*
G01X91431Y24755D01*
G01X91428Y24745D01*
G01X91425Y24735D01*
G01X91422Y24725D01*
G01X91420Y24715D01*
G01X91418Y24705D01*
G01X91416Y24694D01*
G01X91415Y24684D01*
G01X91414Y24673D01*
G01X91414Y24663D01*
G01X91414Y24269D01*
G37*
G36*
G01X79730Y59410D02*
G01X80124Y59410D01*
G01X80124Y60058D01*
G01X79476Y60058D01*
G01X79476Y59664D01*
G01X79476Y59654D01*
G01X79477Y59643D01*
G01X79478Y59633D01*
G01X79480Y59622D01*
G01X79482Y59612D01*
G01X79484Y59602D01*
G01X79487Y59592D01*
G01X79490Y59582D01*
G01X79493Y59572D01*
G01X79497Y59562D01*
G01X79502Y59553D01*
G01X79507Y59543D01*
G01X79512Y59534D01*
G01X79517Y59525D01*
G01X79523Y59517D01*
G01X79530Y59508D01*
G01X79536Y59500D01*
G01X79543Y59492D01*
G01X79550Y59484D01*
G01X79558Y59477D01*
G01X79566Y59470D01*
G01X79574Y59464D01*
G01X79583Y59457D01*
G01X79591Y59451D01*
G01X79600Y59446D01*
G01X79609Y59441D01*
G01X79619Y59436D01*
G01X79628Y59431D01*
G01X79638Y59427D01*
G01X79648Y59424D01*
G01X79658Y59421D01*
G01X79668Y59418D01*
G01X79678Y59416D01*
G01X79688Y59414D01*
G01X79699Y59412D01*
G01X79709Y59411D01*
G01X79720Y59410D01*
G01X79730Y59410D01*
G37*
G36*
G01X4203Y27660D02*
G01X4597Y27660D01*
G01X4607Y27660D01*
G01X4618Y27661D01*
G01X4628Y27662D01*
G01X4639Y27664D01*
G01X4649Y27666D01*
G01X4659Y27668D01*
G01X4669Y27671D01*
G01X4679Y27674D01*
G01X4689Y27677D01*
G01X4699Y27681D01*
G01X4708Y27686D01*
G01X4718Y27691D01*
G01X4727Y27696D01*
G01X4736Y27701D01*
G01X4744Y27707D01*
G01X4753Y27714D01*
G01X4761Y27720D01*
G01X4769Y27727D01*
G01X4777Y27734D01*
G01X4784Y27742D01*
G01X4791Y27750D01*
G01X4797Y27758D01*
G01X4804Y27767D01*
G01X4810Y27775D01*
G01X4815Y27784D01*
G01X4820Y27793D01*
G01X4825Y27803D01*
G01X4830Y27812D01*
G01X4834Y27822D01*
G01X4837Y27832D01*
G01X4840Y27842D01*
G01X4843Y27852D01*
G01X4845Y27862D01*
G01X4847Y27872D01*
G01X4849Y27883D01*
G01X4850Y27893D01*
G01X4851Y27904D01*
G01X4851Y27914D01*
G01X4851Y28308D01*
G01X4203Y28308D01*
G01X4203Y27660D01*
G37*
G36*
G01X3022Y27660D02*
G01X3416Y27660D01*
G01X3416Y28308D01*
G01X2768Y28308D01*
G01X2768Y27914D01*
G01X2768Y27904D01*
G01X2769Y27893D01*
G01X2770Y27883D01*
G01X2772Y27872D01*
G01X2774Y27862D01*
G01X2776Y27852D01*
G01X2779Y27842D01*
G01X2782Y27832D01*
G01X2785Y27822D01*
G01X2789Y27812D01*
G01X2794Y27803D01*
G01X2799Y27793D01*
G01X2804Y27784D01*
G01X2809Y27775D01*
G01X2815Y27767D01*
G01X2822Y27758D01*
G01X2828Y27750D01*
G01X2835Y27742D01*
G01X2842Y27734D01*
G01X2850Y27727D01*
G01X2858Y27720D01*
G01X2866Y27714D01*
G01X2875Y27707D01*
G01X2883Y27701D01*
G01X2892Y27696D01*
G01X2901Y27691D01*
G01X2911Y27686D01*
G01X2920Y27681D01*
G01X2930Y27677D01*
G01X2940Y27674D01*
G01X2950Y27671D01*
G01X2960Y27668D01*
G01X2970Y27666D01*
G01X2980Y27664D01*
G01X2991Y27662D01*
G01X3001Y27661D01*
G01X3012Y27660D01*
G01X3022Y27660D01*
G37*
G36*
G01X13182Y58813D02*
G01X13830Y58813D01*
G01X13830Y59461D01*
G01X13436Y59461D01*
G01X13426Y59461D01*
G01X13415Y59460D01*
G01X13405Y59459D01*
G01X13394Y59457D01*
G01X13384Y59455D01*
G01X13374Y59453D01*
G01X13364Y59450D01*
G01X13354Y59447D01*
G01X13344Y59444D01*
G01X13334Y59440D01*
G01X13325Y59435D01*
G01X13315Y59430D01*
G01X13306Y59425D01*
G01X13297Y59420D01*
G01X13289Y59414D01*
G01X13280Y59407D01*
G01X13272Y59401D01*
G01X13264Y59394D01*
G01X13256Y59387D01*
G01X13249Y59379D01*
G01X13242Y59371D01*
G01X13236Y59363D01*
G01X13229Y59354D01*
G01X13223Y59346D01*
G01X13218Y59337D01*
G01X13213Y59328D01*
G01X13208Y59318D01*
G01X13203Y59309D01*
G01X13199Y59299D01*
G01X13196Y59289D01*
G01X13193Y59279D01*
G01X13190Y59269D01*
G01X13188Y59259D01*
G01X13186Y59249D01*
G01X13184Y59238D01*
G01X13183Y59228D01*
G01X13182Y59217D01*
G01X13182Y59207D01*
G01X13182Y58813D01*
G37*
G36*
G01X14617Y58813D02*
G01X15265Y58813D01*
G01X15265Y59207D01*
G01X15265Y59217D01*
G01X15264Y59228D01*
G01X15263Y59238D01*
G01X15261Y59249D01*
G01X15259Y59259D01*
G01X15257Y59269D01*
G01X15254Y59279D01*
G01X15251Y59289D01*
G01X15248Y59299D01*
G01X15244Y59309D01*
G01X15239Y59318D01*
G01X15234Y59328D01*
G01X15229Y59337D01*
G01X15224Y59346D01*
G01X15218Y59354D01*
G01X15211Y59363D01*
G01X15205Y59371D01*
G01X15198Y59379D01*
G01X15191Y59387D01*
G01X15183Y59394D01*
G01X15175Y59401D01*
G01X15167Y59407D01*
G01X15158Y59414D01*
G01X15150Y59420D01*
G01X15141Y59425D01*
G01X15132Y59430D01*
G01X15122Y59435D01*
G01X15113Y59440D01*
G01X15103Y59444D01*
G01X15093Y59447D01*
G01X15083Y59450D01*
G01X15073Y59453D01*
G01X15063Y59455D01*
G01X15053Y59457D01*
G01X15042Y59459D01*
G01X15032Y59460D01*
G01X15021Y59461D01*
G01X15011Y59461D01*
G01X14617Y59461D01*
G01X14617Y58813D01*
G37*
G36*
G01X92849Y27914D02*
G01X93243Y27914D01*
G01X93253Y27914D01*
G01X93264Y27915D01*
G01X93274Y27916D01*
G01X93285Y27918D01*
G01X93295Y27920D01*
G01X93305Y27922D01*
G01X93315Y27925D01*
G01X93325Y27928D01*
G01X93335Y27931D01*
G01X93345Y27935D01*
G01X93354Y27940D01*
G01X93364Y27945D01*
G01X93373Y27950D01*
G01X93382Y27955D01*
G01X93390Y27961D01*
G01X93399Y27968D01*
G01X93407Y27974D01*
G01X93415Y27981D01*
G01X93423Y27988D01*
G01X93430Y27996D01*
G01X93437Y28004D01*
G01X93443Y28012D01*
G01X93450Y28021D01*
G01X93456Y28029D01*
G01X93461Y28038D01*
G01X93466Y28047D01*
G01X93471Y28057D01*
G01X93476Y28066D01*
G01X93480Y28076D01*
G01X93483Y28086D01*
G01X93486Y28096D01*
G01X93489Y28106D01*
G01X93491Y28116D01*
G01X93493Y28126D01*
G01X93495Y28137D01*
G01X93496Y28147D01*
G01X93497Y28158D01*
G01X93497Y28168D01*
G01X93497Y28562D01*
G01X92849Y28562D01*
G01X92849Y27914D01*
G37*
G36*
G01X91668Y27914D02*
G01X92062Y27914D01*
G01X92062Y28562D01*
G01X91414Y28562D01*
G01X91414Y28168D01*
G01X91414Y28158D01*
G01X91415Y28147D01*
G01X91416Y28137D01*
G01X91418Y28126D01*
G01X91420Y28116D01*
G01X91422Y28106D01*
G01X91425Y28096D01*
G01X91428Y28086D01*
G01X91431Y28076D01*
G01X91435Y28066D01*
G01X91440Y28057D01*
G01X91445Y28047D01*
G01X91450Y28038D01*
G01X91455Y28029D01*
G01X91461Y28021D01*
G01X91468Y28012D01*
G01X91474Y28004D01*
G01X91481Y27996D01*
G01X91488Y27988D01*
G01X91496Y27981D01*
G01X91504Y27974D01*
G01X91512Y27968D01*
G01X91521Y27961D01*
G01X91529Y27955D01*
G01X91538Y27950D01*
G01X91547Y27945D01*
G01X91557Y27940D01*
G01X91566Y27935D01*
G01X91576Y27931D01*
G01X91586Y27928D01*
G01X91596Y27925D01*
G01X91606Y27922D01*
G01X91616Y27920D01*
G01X91626Y27918D01*
G01X91637Y27916D01*
G01X91647Y27915D01*
G01X91658Y27914D01*
G01X91668Y27914D01*
G37*
G36*
G01X19278Y57378D02*
G01X19381Y57381D01*
G01X19484Y57394D01*
G01X19586Y57417D01*
G01X19684Y57450D01*
G01X19779Y57493D01*
G01X19868Y57545D01*
G01X19953Y57605D01*
G01X20031Y57674D01*
G01X20101Y57750D01*
G01X20164Y57833D01*
G01X20218Y57921D01*
G01X20263Y58015D01*
G01X20299Y58113D01*
G01X20324Y58213D01*
G01X20340Y58316D01*
G01X20345Y58420D01*
G01X20340Y58523D01*
G01X20324Y58626D01*
G01X20299Y58726D01*
G01X20263Y58824D01*
G01X20218Y58918D01*
G01X20164Y59006D01*
G01X20101Y59089D01*
G01X20031Y59165D01*
G01X19953Y59234D01*
G01X19868Y59294D01*
G01X19779Y59346D01*
G01X19684Y59389D01*
G01X19586Y59422D01*
G01X19484Y59445D01*
G01X19381Y59458D01*
G01X19278Y59461D01*
G01X19174Y59453D01*
G01X19072Y59435D01*
G01X18972Y59407D01*
G01X18875Y59369D01*
G01X18783Y59321D01*
G01X18696Y59265D01*
G01X18614Y59200D01*
G01X18540Y59128D01*
G01X18473Y59048D01*
G01X18415Y58963D01*
G01X18365Y58871D01*
G01X18325Y58776D01*
G01X18294Y58676D01*
G01X18274Y58575D01*
G01X18263Y58471D01*
G01X18263Y58368D01*
G01X18274Y58264D01*
G01X18294Y58163D01*
G01X18325Y58063D01*
G01X18365Y57968D01*
G01X18415Y57876D01*
G01X18473Y57791D01*
G01X18540Y57711D01*
G01X18614Y57639D01*
G01X18696Y57574D01*
G01X18783Y57518D01*
G01X18875Y57470D01*
G01X18972Y57432D01*
G01X19072Y57404D01*
G01X19174Y57386D01*
G01X19278Y57378D01*
G37*
G36*
G01X16738Y57378D02*
G01X16841Y57381D01*
G01X16944Y57394D01*
G01X17046Y57417D01*
G01X17144Y57450D01*
G01X17239Y57493D01*
G01X17328Y57545D01*
G01X17413Y57605D01*
G01X17491Y57674D01*
G01X17561Y57750D01*
G01X17624Y57833D01*
G01X17678Y57921D01*
G01X17723Y58015D01*
G01X17759Y58113D01*
G01X17784Y58213D01*
G01X17800Y58316D01*
G01X17805Y58420D01*
G01X17800Y58523D01*
G01X17784Y58626D01*
G01X17759Y58726D01*
G01X17723Y58824D01*
G01X17678Y58918D01*
G01X17624Y59006D01*
G01X17561Y59089D01*
G01X17491Y59165D01*
G01X17413Y59234D01*
G01X17328Y59294D01*
G01X17239Y59346D01*
G01X17144Y59389D01*
G01X17046Y59422D01*
G01X16944Y59445D01*
G01X16841Y59458D01*
G01X16738Y59461D01*
G01X16634Y59453D01*
G01X16532Y59435D01*
G01X16432Y59407D01*
G01X16335Y59369D01*
G01X16243Y59321D01*
G01X16156Y59265D01*
G01X16074Y59200D01*
G01X16000Y59128D01*
G01X15933Y59048D01*
G01X15875Y58963D01*
G01X15825Y58871D01*
G01X15785Y58776D01*
G01X15754Y58676D01*
G01X15734Y58575D01*
G01X15723Y58471D01*
G01X15723Y58368D01*
G01X15734Y58264D01*
G01X15754Y58163D01*
G01X15785Y58063D01*
G01X15825Y57968D01*
G01X15875Y57876D01*
G01X15933Y57791D01*
G01X16000Y57711D01*
G01X16074Y57639D01*
G01X16156Y57574D01*
G01X16243Y57518D01*
G01X16335Y57470D01*
G01X16432Y57432D01*
G01X16532Y57404D01*
G01X16634Y57386D01*
G01X16738Y57378D01*
G37*
G36*
G01X13436Y57378D02*
G01X13830Y57378D01*
G01X13830Y58026D01*
G01X13182Y58026D01*
G01X13182Y57632D01*
G01X13182Y57622D01*
G01X13183Y57611D01*
G01X13184Y57601D01*
G01X13186Y57590D01*
G01X13188Y57580D01*
G01X13190Y57570D01*
G01X13193Y57560D01*
G01X13196Y57550D01*
G01X13199Y57540D01*
G01X13203Y57530D01*
G01X13208Y57521D01*
G01X13213Y57511D01*
G01X13218Y57502D01*
G01X13223Y57493D01*
G01X13229Y57485D01*
G01X13236Y57476D01*
G01X13242Y57468D01*
G01X13249Y57460D01*
G01X13256Y57452D01*
G01X13264Y57445D01*
G01X13272Y57438D01*
G01X13280Y57432D01*
G01X13289Y57425D01*
G01X13297Y57419D01*
G01X13306Y57414D01*
G01X13315Y57409D01*
G01X13325Y57404D01*
G01X13334Y57399D01*
G01X13344Y57395D01*
G01X13354Y57392D01*
G01X13364Y57389D01*
G01X13374Y57386D01*
G01X13384Y57384D01*
G01X13394Y57382D01*
G01X13405Y57380D01*
G01X13415Y57379D01*
G01X13426Y57378D01*
G01X13436Y57378D01*
G37*
G36*
G01X4203Y29095D02*
G01X4851Y29095D01*
G01X4851Y29489D01*
G01X4851Y29499D01*
G01X4850Y29510D01*
G01X4849Y29520D01*
G01X4847Y29531D01*
G01X4845Y29541D01*
G01X4843Y29551D01*
G01X4840Y29561D01*
G01X4837Y29571D01*
G01X4834Y29581D01*
G01X4830Y29591D01*
G01X4825Y29600D01*
G01X4820Y29610D01*
G01X4815Y29619D01*
G01X4810Y29628D01*
G01X4804Y29636D01*
G01X4797Y29645D01*
G01X4791Y29653D01*
G01X4784Y29661D01*
G01X4777Y29669D01*
G01X4769Y29676D01*
G01X4761Y29683D01*
G01X4753Y29689D01*
G01X4744Y29696D01*
G01X4736Y29702D01*
G01X4727Y29707D01*
G01X4718Y29712D01*
G01X4708Y29717D01*
G01X4699Y29722D01*
G01X4689Y29726D01*
G01X4679Y29729D01*
G01X4669Y29732D01*
G01X4659Y29735D01*
G01X4649Y29737D01*
G01X4639Y29739D01*
G01X4628Y29741D01*
G01X4618Y29742D01*
G01X4607Y29743D01*
G01X4597Y29743D01*
G01X4203Y29743D01*
G01X4203Y29095D01*
G37*
G36*
G01X2768Y29095D02*
G01X3416Y29095D01*
G01X3416Y29743D01*
G01X3022Y29743D01*
G01X3012Y29743D01*
G01X3001Y29742D01*
G01X2991Y29741D01*
G01X2980Y29739D01*
G01X2970Y29737D01*
G01X2960Y29735D01*
G01X2950Y29732D01*
G01X2940Y29729D01*
G01X2930Y29726D01*
G01X2920Y29722D01*
G01X2911Y29717D01*
G01X2901Y29712D01*
G01X2892Y29707D01*
G01X2883Y29702D01*
G01X2875Y29696D01*
G01X2866Y29689D01*
G01X2858Y29683D01*
G01X2850Y29676D01*
G01X2842Y29669D01*
G01X2835Y29661D01*
G01X2828Y29653D01*
G01X2822Y29645D01*
G01X2815Y29636D01*
G01X2809Y29628D01*
G01X2804Y29619D01*
G01X2799Y29610D01*
G01X2794Y29600D01*
G01X2789Y29591D01*
G01X2785Y29581D01*
G01X2782Y29571D01*
G01X2779Y29561D01*
G01X2776Y29551D01*
G01X2774Y29541D01*
G01X2772Y29531D01*
G01X2770Y29520D01*
G01X2769Y29510D01*
G01X2768Y29499D01*
G01X2768Y29489D01*
G01X2768Y29095D01*
G37*
G36*
G01X92849Y29349D02*
G01X93497Y29349D01*
G01X93497Y29743D01*
G01X93497Y29753D01*
G01X93496Y29764D01*
G01X93495Y29774D01*
G01X93493Y29785D01*
G01X93491Y29795D01*
G01X93489Y29805D01*
G01X93486Y29815D01*
G01X93483Y29825D01*
G01X93480Y29835D01*
G01X93476Y29845D01*
G01X93471Y29854D01*
G01X93466Y29864D01*
G01X93461Y29873D01*
G01X93456Y29882D01*
G01X93450Y29890D01*
G01X93443Y29899D01*
G01X93437Y29907D01*
G01X93430Y29915D01*
G01X93423Y29923D01*
G01X93415Y29930D01*
G01X93407Y29937D01*
G01X93399Y29943D01*
G01X93390Y29950D01*
G01X93382Y29956D01*
G01X93373Y29961D01*
G01X93364Y29966D01*
G01X93354Y29971D01*
G01X93345Y29976D01*
G01X93335Y29980D01*
G01X93325Y29983D01*
G01X93315Y29986D01*
G01X93305Y29989D01*
G01X93295Y29991D01*
G01X93285Y29993D01*
G01X93274Y29995D01*
G01X93264Y29996D01*
G01X93253Y29997D01*
G01X93243Y29997D01*
G01X92849Y29997D01*
G01X92849Y29349D01*
G37*
G36*
G01X91414Y29349D02*
G01X92062Y29349D01*
G01X92062Y29997D01*
G01X91668Y29997D01*
G01X91658Y29997D01*
G01X91647Y29996D01*
G01X91637Y29995D01*
G01X91626Y29993D01*
G01X91616Y29991D01*
G01X91606Y29989D01*
G01X91596Y29986D01*
G01X91586Y29983D01*
G01X91576Y29980D01*
G01X91566Y29976D01*
G01X91557Y29971D01*
G01X91547Y29966D01*
G01X91538Y29961D01*
G01X91529Y29956D01*
G01X91521Y29950D01*
G01X91512Y29943D01*
G01X91504Y29937D01*
G01X91496Y29930D01*
G01X91488Y29923D01*
G01X91481Y29915D01*
G01X91474Y29907D01*
G01X91468Y29899D01*
G01X91461Y29890D01*
G01X91455Y29882D01*
G01X91450Y29873D01*
G01X91445Y29864D01*
G01X91440Y29854D01*
G01X91435Y29845D01*
G01X91431Y29835D01*
G01X91428Y29825D01*
G01X91425Y29815D01*
G01X91422Y29805D01*
G01X91420Y29795D01*
G01X91418Y29785D01*
G01X91416Y29774D01*
G01X91415Y29764D01*
G01X91414Y29753D01*
G01X91414Y29743D01*
G01X91414Y29349D01*
G37*
G36*
G01X14617Y57378D02*
G01X15011Y57378D01*
G01X15021Y57378D01*
G01X15032Y57379D01*
G01X15042Y57380D01*
G01X15053Y57382D01*
G01X15063Y57384D01*
G01X15073Y57386D01*
G01X15083Y57389D01*
G01X15093Y57392D01*
G01X15103Y57395D01*
G01X15113Y57399D01*
G01X15122Y57404D01*
G01X15132Y57409D01*
G01X15141Y57414D01*
G01X15150Y57419D01*
G01X15158Y57425D01*
G01X15167Y57432D01*
G01X15175Y57438D01*
G01X15183Y57445D01*
G01X15191Y57452D01*
G01X15198Y57460D01*
G01X15205Y57468D01*
G01X15211Y57476D01*
G01X15218Y57485D01*
G01X15224Y57493D01*
G01X15229Y57502D01*
G01X15234Y57511D01*
G01X15239Y57521D01*
G01X15244Y57530D01*
G01X15248Y57540D01*
G01X15251Y57550D01*
G01X15254Y57560D01*
G01X15257Y57570D01*
G01X15259Y57580D01*
G01X15261Y57590D01*
G01X15263Y57601D01*
G01X15264Y57611D01*
G01X15265Y57622D01*
G01X15265Y57632D01*
G01X15265Y58026D01*
G01X14617Y58026D01*
G01X14617Y57378D01*
G37*
G36*
G01X80911Y55765D02*
G01X81559Y55765D01*
G01X81559Y56159D01*
G01X81559Y56169D01*
G01X81558Y56180D01*
G01X81557Y56190D01*
G01X81555Y56201D01*
G01X81553Y56211D01*
G01X81551Y56221D01*
G01X81548Y56231D01*
G01X81545Y56241D01*
G01X81542Y56251D01*
G01X81538Y56261D01*
G01X81533Y56270D01*
G01X81528Y56280D01*
G01X81523Y56289D01*
G01X81518Y56298D01*
G01X81512Y56306D01*
G01X81505Y56315D01*
G01X81499Y56323D01*
G01X81492Y56331D01*
G01X81485Y56339D01*
G01X81477Y56346D01*
G01X81469Y56353D01*
G01X81461Y56359D01*
G01X81452Y56366D01*
G01X81444Y56372D01*
G01X81435Y56377D01*
G01X81426Y56382D01*
G01X81416Y56387D01*
G01X81407Y56392D01*
G01X81397Y56396D01*
G01X81387Y56399D01*
G01X81377Y56402D01*
G01X81367Y56405D01*
G01X81357Y56407D01*
G01X81347Y56409D01*
G01X81336Y56411D01*
G01X81326Y56412D01*
G01X81315Y56413D01*
G01X81305Y56413D01*
G01X80911Y56413D01*
G01X80911Y55765D01*
G37*
G36*
G01X83032Y54330D02*
G01X83135Y54333D01*
G01X83238Y54346D01*
G01X83340Y54369D01*
G01X83438Y54402D01*
G01X83533Y54445D01*
G01X83622Y54497D01*
G01X83707Y54557D01*
G01X83785Y54626D01*
G01X83855Y54702D01*
G01X83918Y54785D01*
G01X83972Y54873D01*
G01X84017Y54967D01*
G01X84053Y55065D01*
G01X84078Y55165D01*
G01X84094Y55268D01*
G01X84099Y55372D01*
G01X84094Y55475D01*
G01X84078Y55578D01*
G01X84053Y55678D01*
G01X84017Y55776D01*
G01X83972Y55870D01*
G01X83918Y55958D01*
G01X83855Y56041D01*
G01X83785Y56117D01*
G01X83707Y56186D01*
G01X83622Y56246D01*
G01X83533Y56298D01*
G01X83438Y56341D01*
G01X83340Y56374D01*
G01X83238Y56397D01*
G01X83135Y56410D01*
G01X83032Y56413D01*
G01X82928Y56405D01*
G01X82826Y56387D01*
G01X82726Y56359D01*
G01X82629Y56321D01*
G01X82537Y56273D01*
G01X82450Y56217D01*
G01X82368Y56152D01*
G01X82294Y56080D01*
G01X82227Y56000D01*
G01X82169Y55915D01*
G01X82119Y55823D01*
G01X82079Y55728D01*
G01X82048Y55628D01*
G01X82028Y55527D01*
G01X82017Y55423D01*
G01X82017Y55320D01*
G01X82028Y55216D01*
G01X82048Y55115D01*
G01X82079Y55015D01*
G01X82119Y54920D01*
G01X82169Y54828D01*
G01X82227Y54743D01*
G01X82294Y54663D01*
G01X82368Y54591D01*
G01X82450Y54526D01*
G01X82537Y54470D01*
G01X82629Y54422D01*
G01X82726Y54384D01*
G01X82826Y54356D01*
G01X82928Y54338D01*
G01X83032Y54330D01*
G37*
G36*
G01X79730Y54330D02*
G01X80124Y54330D01*
G01X80124Y54978D01*
G01X79476Y54978D01*
G01X79476Y54584D01*
G01X79476Y54574D01*
G01X79477Y54563D01*
G01X79478Y54553D01*
G01X79480Y54542D01*
G01X79482Y54532D01*
G01X79484Y54522D01*
G01X79487Y54512D01*
G01X79490Y54502D01*
G01X79493Y54492D01*
G01X79497Y54482D01*
G01X79502Y54473D01*
G01X79507Y54463D01*
G01X79512Y54454D01*
G01X79517Y54445D01*
G01X79523Y54437D01*
G01X79530Y54428D01*
G01X79536Y54420D01*
G01X79543Y54412D01*
G01X79550Y54404D01*
G01X79558Y54397D01*
G01X79566Y54390D01*
G01X79574Y54384D01*
G01X79583Y54377D01*
G01X79591Y54371D01*
G01X79600Y54366D01*
G01X79609Y54361D01*
G01X79619Y54356D01*
G01X79628Y54351D01*
G01X79638Y54347D01*
G01X79648Y54344D01*
G01X79658Y54341D01*
G01X79668Y54338D01*
G01X79678Y54336D01*
G01X79688Y54334D01*
G01X79699Y54332D01*
G01X79709Y54331D01*
G01X79720Y54330D01*
G01X79730Y54330D01*
G37*
G36*
G01X80911Y54330D02*
G01X81305Y54330D01*
G01X81315Y54330D01*
G01X81326Y54331D01*
G01X81336Y54332D01*
G01X81347Y54334D01*
G01X81357Y54336D01*
G01X81367Y54338D01*
G01X81377Y54341D01*
G01X81387Y54344D01*
G01X81397Y54347D01*
G01X81407Y54351D01*
G01X81416Y54356D01*
G01X81426Y54361D01*
G01X81435Y54366D01*
G01X81444Y54371D01*
G01X81452Y54377D01*
G01X81461Y54384D01*
G01X81469Y54390D01*
G01X81477Y54397D01*
G01X81485Y54404D01*
G01X81492Y54412D01*
G01X81499Y54420D01*
G01X81505Y54428D01*
G01X81512Y54437D01*
G01X81518Y54445D01*
G01X81523Y54454D01*
G01X81528Y54463D01*
G01X81533Y54473D01*
G01X81538Y54482D01*
G01X81542Y54492D01*
G01X81545Y54502D01*
G01X81548Y54512D01*
G01X81551Y54522D01*
G01X81553Y54532D01*
G01X81555Y54542D01*
G01X81557Y54553D01*
G01X81558Y54563D01*
G01X81559Y54574D01*
G01X81559Y54584D01*
G01X81559Y54978D01*
G01X80911Y54978D01*
G01X80911Y54330D01*
G37*
G36*
G01X13182Y53733D02*
G01X13830Y53733D01*
G01X13830Y54381D01*
G01X13436Y54381D01*
G01X13426Y54381D01*
G01X13415Y54380D01*
G01X13405Y54379D01*
G01X13394Y54377D01*
G01X13384Y54375D01*
G01X13374Y54373D01*
G01X13364Y54370D01*
G01X13354Y54367D01*
G01X13344Y54364D01*
G01X13334Y54360D01*
G01X13325Y54355D01*
G01X13315Y54350D01*
G01X13306Y54345D01*
G01X13297Y54340D01*
G01X13289Y54334D01*
G01X13280Y54327D01*
G01X13272Y54321D01*
G01X13264Y54314D01*
G01X13256Y54307D01*
G01X13249Y54299D01*
G01X13242Y54291D01*
G01X13236Y54283D01*
G01X13229Y54274D01*
G01X13223Y54266D01*
G01X13218Y54257D01*
G01X13213Y54248D01*
G01X13208Y54238D01*
G01X13203Y54229D01*
G01X13199Y54219D01*
G01X13196Y54209D01*
G01X13193Y54199D01*
G01X13190Y54189D01*
G01X13188Y54179D01*
G01X13186Y54169D01*
G01X13184Y54158D01*
G01X13183Y54148D01*
G01X13182Y54137D01*
G01X13182Y54127D01*
G01X13182Y53733D01*
G37*
G36*
G01X14617Y53733D02*
G01X15265Y53733D01*
G01X15265Y54127D01*
G01X15265Y54137D01*
G01X15264Y54148D01*
G01X15263Y54158D01*
G01X15261Y54169D01*
G01X15259Y54179D01*
G01X15257Y54189D01*
G01X15254Y54199D01*
G01X15251Y54209D01*
G01X15248Y54219D01*
G01X15244Y54229D01*
G01X15239Y54238D01*
G01X15234Y54248D01*
G01X15229Y54257D01*
G01X15224Y54266D01*
G01X15218Y54274D01*
G01X15211Y54283D01*
G01X15205Y54291D01*
G01X15198Y54299D01*
G01X15191Y54307D01*
G01X15183Y54314D01*
G01X15175Y54321D01*
G01X15167Y54327D01*
G01X15158Y54334D01*
G01X15150Y54340D01*
G01X15141Y54345D01*
G01X15132Y54350D01*
G01X15122Y54355D01*
G01X15113Y54360D01*
G01X15103Y54364D01*
G01X15093Y54367D01*
G01X15083Y54370D01*
G01X15073Y54373D01*
G01X15063Y54375D01*
G01X15053Y54377D01*
G01X15042Y54379D01*
G01X15032Y54380D01*
G01X15021Y54381D01*
G01X15011Y54381D01*
G01X14617Y54381D01*
G01X14617Y53733D01*
G37*
G36*
G01X62956Y53276D02*
G01X63563Y53276D01*
G01X63563Y53883D01*
G01X63537Y53873D01*
G01X63436Y53821D01*
G01X63340Y53760D01*
G01X63251Y53688D01*
G01X63170Y53609D01*
G01X63096Y53522D01*
G01X63032Y53428D01*
G01X62978Y53327D01*
G01X62956Y53276D01*
G37*
G36*
G01X64452Y53276D02*
G01X65060Y53276D01*
G01X65011Y53378D01*
G01X64952Y53475D01*
G01X64883Y53566D01*
G01X64806Y53650D01*
G01X64720Y53725D01*
G01X64628Y53792D01*
G01X64529Y53849D01*
G01X64452Y53883D01*
G01X64452Y53276D01*
G37*
G36*
G01X92087Y34596D02*
G01X92169Y34633D01*
G01X92258Y34685D01*
G01X92343Y34745D01*
G01X92421Y34814D01*
G01X92491Y34890D01*
G01X92554Y34973D01*
G01X92608Y35061D01*
G01X92653Y35155D01*
G01X92657Y35166D01*
G01X92087Y35166D01*
G01X92087Y34596D01*
G37*
G36*
G01X19278Y52298D02*
G01X19381Y52301D01*
G01X19484Y52314D01*
G01X19586Y52337D01*
G01X19684Y52370D01*
G01X19779Y52413D01*
G01X19868Y52465D01*
G01X19953Y52525D01*
G01X20031Y52594D01*
G01X20101Y52670D01*
G01X20164Y52753D01*
G01X20218Y52841D01*
G01X20263Y52935D01*
G01X20299Y53033D01*
G01X20324Y53133D01*
G01X20340Y53236D01*
G01X20345Y53340D01*
G01X20340Y53443D01*
G01X20324Y53546D01*
G01X20299Y53646D01*
G01X20263Y53744D01*
G01X20218Y53838D01*
G01X20164Y53926D01*
G01X20101Y54009D01*
G01X20031Y54085D01*
G01X19953Y54154D01*
G01X19868Y54214D01*
G01X19779Y54266D01*
G01X19684Y54309D01*
G01X19586Y54342D01*
G01X19484Y54365D01*
G01X19381Y54378D01*
G01X19278Y54381D01*
G01X19174Y54373D01*
G01X19072Y54355D01*
G01X18972Y54327D01*
G01X18875Y54289D01*
G01X18783Y54241D01*
G01X18696Y54185D01*
G01X18614Y54120D01*
G01X18540Y54048D01*
G01X18473Y53968D01*
G01X18415Y53883D01*
G01X18365Y53791D01*
G01X18325Y53696D01*
G01X18294Y53596D01*
G01X18274Y53495D01*
G01X18263Y53391D01*
G01X18263Y53288D01*
G01X18274Y53184D01*
G01X18294Y53083D01*
G01X18325Y52983D01*
G01X18365Y52888D01*
G01X18415Y52796D01*
G01X18473Y52711D01*
G01X18540Y52631D01*
G01X18614Y52559D01*
G01X18696Y52494D01*
G01X18783Y52438D01*
G01X18875Y52390D01*
G01X18972Y52352D01*
G01X19072Y52324D01*
G01X19174Y52306D01*
G01X19278Y52298D01*
G37*
G36*
G01X16738Y52298D02*
G01X16841Y52301D01*
G01X16944Y52314D01*
G01X17046Y52337D01*
G01X17144Y52370D01*
G01X17239Y52413D01*
G01X17328Y52465D01*
G01X17413Y52525D01*
G01X17491Y52594D01*
G01X17561Y52670D01*
G01X17624Y52753D01*
G01X17678Y52841D01*
G01X17723Y52935D01*
G01X17759Y53033D01*
G01X17784Y53133D01*
G01X17800Y53236D01*
G01X17805Y53340D01*
G01X17800Y53443D01*
G01X17784Y53546D01*
G01X17759Y53646D01*
G01X17723Y53744D01*
G01X17678Y53838D01*
G01X17624Y53926D01*
G01X17561Y54009D01*
G01X17491Y54085D01*
G01X17413Y54154D01*
G01X17328Y54214D01*
G01X17239Y54266D01*
G01X17144Y54309D01*
G01X17046Y54342D01*
G01X16944Y54365D01*
G01X16841Y54378D01*
G01X16738Y54381D01*
G01X16634Y54373D01*
G01X16532Y54355D01*
G01X16432Y54327D01*
G01X16335Y54289D01*
G01X16243Y54241D01*
G01X16156Y54185D01*
G01X16074Y54120D01*
G01X16000Y54048D01*
G01X15933Y53968D01*
G01X15875Y53883D01*
G01X15825Y53791D01*
G01X15785Y53696D01*
G01X15754Y53596D01*
G01X15734Y53495D01*
G01X15723Y53391D01*
G01X15723Y53288D01*
G01X15734Y53184D01*
G01X15754Y53083D01*
G01X15785Y52983D01*
G01X15825Y52888D01*
G01X15875Y52796D01*
G01X15933Y52711D01*
G01X16000Y52631D01*
G01X16074Y52559D01*
G01X16156Y52494D01*
G01X16243Y52438D01*
G01X16335Y52390D01*
G01X16432Y52352D01*
G01X16532Y52324D01*
G01X16634Y52306D01*
G01X16738Y52298D01*
G37*
G36*
G01X13436Y52298D02*
G01X13830Y52298D01*
G01X13830Y52946D01*
G01X13182Y52946D01*
G01X13182Y52552D01*
G01X13182Y52542D01*
G01X13183Y52531D01*
G01X13184Y52521D01*
G01X13186Y52510D01*
G01X13188Y52500D01*
G01X13190Y52490D01*
G01X13193Y52480D01*
G01X13196Y52470D01*
G01X13199Y52460D01*
G01X13203Y52450D01*
G01X13208Y52441D01*
G01X13213Y52431D01*
G01X13218Y52422D01*
G01X13223Y52413D01*
G01X13229Y52405D01*
G01X13236Y52396D01*
G01X13242Y52388D01*
G01X13249Y52380D01*
G01X13256Y52372D01*
G01X13264Y52365D01*
G01X13272Y52358D01*
G01X13280Y52352D01*
G01X13289Y52345D01*
G01X13297Y52339D01*
G01X13306Y52334D01*
G01X13315Y52329D01*
G01X13325Y52324D01*
G01X13334Y52319D01*
G01X13344Y52315D01*
G01X13354Y52312D01*
G01X13364Y52309D01*
G01X13374Y52306D01*
G01X13384Y52304D01*
G01X13394Y52302D01*
G01X13405Y52300D01*
G01X13415Y52299D01*
G01X13426Y52298D01*
G01X13436Y52298D01*
G37*
G36*
G01X14617Y52298D02*
G01X15011Y52298D01*
G01X15021Y52298D01*
G01X15032Y52299D01*
G01X15042Y52300D01*
G01X15053Y52302D01*
G01X15063Y52304D01*
G01X15073Y52306D01*
G01X15083Y52309D01*
G01X15093Y52312D01*
G01X15103Y52315D01*
G01X15113Y52319D01*
G01X15122Y52324D01*
G01X15132Y52329D01*
G01X15141Y52334D01*
G01X15150Y52339D01*
G01X15158Y52345D01*
G01X15167Y52352D01*
G01X15175Y52358D01*
G01X15183Y52365D01*
G01X15191Y52372D01*
G01X15198Y52380D01*
G01X15205Y52388D01*
G01X15211Y52396D01*
G01X15218Y52405D01*
G01X15224Y52413D01*
G01X15229Y52422D01*
G01X15234Y52431D01*
G01X15239Y52441D01*
G01X15244Y52450D01*
G01X15248Y52460D01*
G01X15251Y52470D01*
G01X15254Y52480D01*
G01X15257Y52490D01*
G01X15259Y52500D01*
G01X15261Y52510D01*
G01X15263Y52521D01*
G01X15264Y52531D01*
G01X15265Y52542D01*
G01X15265Y52552D01*
G01X15265Y52946D01*
G01X14617Y52946D01*
G01X14617Y52298D01*
G37*
G36*
G01X64452Y51780D02*
G01X64529Y51814D01*
G01X64628Y51871D01*
G01X64720Y51938D01*
G01X64806Y52013D01*
G01X64883Y52097D01*
G01X64952Y52188D01*
G01X65011Y52285D01*
G01X65060Y52387D01*
G01X64452Y52387D01*
G01X64452Y51780D01*
G37*
G36*
G01X20967Y35866D02*
G01X21049Y35903D01*
G01X21138Y35955D01*
G01X21223Y36015D01*
G01X21301Y36084D01*
G01X21371Y36160D01*
G01X21434Y36243D01*
G01X21488Y36331D01*
G01X21533Y36425D01*
G01X21537Y36436D01*
G01X20967Y36436D01*
G01X20967Y35866D01*
G37*
G36*
G01X63563Y51780D02*
G01X63563Y52387D01*
G01X62956Y52387D01*
G01X62978Y52336D01*
G01X63032Y52235D01*
G01X63096Y52141D01*
G01X63170Y52054D01*
G01X63251Y51975D01*
G01X63340Y51903D01*
G01X63436Y51842D01*
G01X63537Y51790D01*
G01X63563Y51780D01*
G37*
G36*
G01X66519Y51689D02*
G01X66633Y51692D01*
G01X66746Y51706D01*
G01X66857Y51731D01*
G01X66965Y51768D01*
G01X67069Y51814D01*
G01X67168Y51871D01*
G01X67260Y51938D01*
G01X67346Y52013D01*
G01X67423Y52097D01*
G01X67492Y52188D01*
G01X67551Y52285D01*
G01X67601Y52388D01*
G01X67640Y52495D01*
G01X67668Y52605D01*
G01X67685Y52718D01*
G01X67691Y52832D01*
G01X67685Y52945D01*
G01X67668Y53058D01*
G01X67640Y53168D01*
G01X67601Y53275D01*
G01X67551Y53378D01*
G01X67492Y53475D01*
G01X67423Y53566D01*
G01X67346Y53650D01*
G01X67260Y53725D01*
G01X67168Y53792D01*
G01X67069Y53849D01*
G01X66965Y53895D01*
G01X66857Y53932D01*
G01X66746Y53957D01*
G01X66633Y53971D01*
G01X66519Y53974D01*
G01X66405Y53966D01*
G01X66293Y53946D01*
G01X66183Y53915D01*
G01X66077Y53873D01*
G01X65976Y53821D01*
G01X65880Y53760D01*
G01X65791Y53688D01*
G01X65710Y53609D01*
G01X65636Y53522D01*
G01X65572Y53428D01*
G01X65518Y53327D01*
G01X65473Y53222D01*
G01X65440Y53114D01*
G01X65417Y53002D01*
G01X65406Y52888D01*
G01X65406Y52775D01*
G01X65417Y52661D01*
G01X65440Y52549D01*
G01X65473Y52441D01*
G01X65518Y52336D01*
G01X65572Y52235D01*
G01X65636Y52141D01*
G01X65710Y52054D01*
G01X65791Y51975D01*
G01X65880Y51903D01*
G01X65976Y51842D01*
G01X66077Y51790D01*
G01X66183Y51748D01*
G01X66293Y51717D01*
G01X66405Y51697D01*
G01X66519Y51689D01*
G37*
G36*
G01X89093Y48166D02*
G01X89927Y48166D01*
G01X89927Y49000D01*
G01X89800Y48935D01*
G01X89654Y48840D01*
G01X89517Y48731D01*
G01X89392Y48609D01*
G01X89279Y48475D01*
G01X89181Y48331D01*
G01X89097Y48177D01*
G01X89093Y48166D01*
G37*
G36*
G01X92087Y35953D02*
G01X92657Y35953D01*
G01X92653Y35964D01*
G01X92608Y36058D01*
G01X92554Y36146D01*
G01X92491Y36229D01*
G01X92421Y36305D01*
G01X92343Y36374D01*
G01X92258Y36434D01*
G01X92169Y36486D01*
G01X92087Y36523D01*
G01X92087Y35953D01*
G37*
G36*
G01X90731Y35953D02*
G01X91300Y35953D01*
G01X91300Y36522D01*
G01X91265Y36509D01*
G01X91173Y36461D01*
G01X91086Y36405D01*
G01X91004Y36340D01*
G01X90930Y36268D01*
G01X90863Y36188D01*
G01X90805Y36103D01*
G01X90755Y36011D01*
G01X90731Y35953D01*
G37*
G36*
G01X91428Y48166D02*
G01X92261Y48166D01*
G01X92218Y48255D01*
G01X92127Y48404D01*
G01X92021Y48544D01*
G01X91902Y48672D01*
G01X91771Y48788D01*
G01X91629Y48890D01*
G01X91478Y48977D01*
G01X91428Y49000D01*
G01X91428Y48166D01*
G37*
G36*
G01X91428Y45833D02*
G01X91478Y45855D01*
G01X91629Y45943D01*
G01X91771Y46045D01*
G01X91902Y46161D01*
G01X92021Y46289D01*
G01X92127Y46428D01*
G01X92218Y46577D01*
G01X92261Y46666D01*
G01X91428Y46666D01*
G01X91428Y45833D01*
G37*
G36*
G01X89927Y45832D02*
G01X89927Y46666D01*
G01X89093Y46666D01*
G01X89097Y46655D01*
G01X89181Y46502D01*
G01X89279Y46357D01*
G01X89392Y46223D01*
G01X89517Y46101D01*
G01X89654Y45992D01*
G01X89801Y45897D01*
G01X89927Y45832D01*
G37*
G36*
G01X78473Y44816D02*
G01X78563Y44818D01*
G01X78653Y44829D01*
G01X78740Y44849D01*
G01X78826Y44878D01*
G01X78908Y44915D01*
G01X78986Y44960D01*
G01X79059Y45013D01*
G01X79127Y45072D01*
G01X79188Y45138D01*
G01X79243Y45210D01*
G01X79290Y45287D01*
G01X79316Y45342D01*
G01X79322Y45327D01*
G01X79365Y45248D01*
G01X79416Y45174D01*
G01X79474Y45105D01*
G01X79538Y45042D01*
G01X79609Y44985D01*
G01X79685Y44937D01*
G01X79765Y44895D01*
G01X79812Y44877D01*
G01X79812Y45395D01*
G01X79338Y45395D01*
G01X79360Y45453D01*
G01X79382Y45540D01*
G01X79395Y45629D01*
G01X79400Y45720D01*
G01X79395Y45810D01*
G01X79382Y45899D01*
G01X79360Y45986D01*
G01X79338Y46044D01*
G01X79812Y46044D01*
G01X79812Y46562D01*
G01X79765Y46544D01*
G01X79684Y46502D01*
G01X79609Y46454D01*
G01X79538Y46397D01*
G01X79474Y46334D01*
G01X79416Y46265D01*
G01X79365Y46191D01*
G01X79322Y46112D01*
G01X79316Y46097D01*
G01X79290Y46152D01*
G01X79243Y46229D01*
G01X79188Y46301D01*
G01X79127Y46367D01*
G01X79059Y46426D01*
G01X78986Y46479D01*
G01X78908Y46524D01*
G01X78826Y46561D01*
G01X78740Y46590D01*
G01X78653Y46610D01*
G01X78563Y46621D01*
G01X78473Y46623D01*
G01X78383Y46617D01*
G01X78294Y46601D01*
G01X78208Y46576D01*
G01X78124Y46544D01*
G01X78044Y46502D01*
G01X77968Y46454D01*
G01X77897Y46397D01*
G01X77833Y46334D01*
G01X77775Y46265D01*
G01X77724Y46191D01*
G01X77681Y46112D01*
G01X77646Y46029D01*
G01X77620Y45943D01*
G01X77602Y45854D01*
G01X77593Y45765D01*
G01X77593Y45674D01*
G01X77602Y45585D01*
G01X77620Y45496D01*
G01X77646Y45410D01*
G01X77681Y45327D01*
G01X77724Y45248D01*
G01X77775Y45174D01*
G01X77833Y45105D01*
G01X77897Y45042D01*
G01X77968Y44985D01*
G01X78044Y44937D01*
G01X78124Y44895D01*
G01X78208Y44863D01*
G01X78294Y44838D01*
G01X78383Y44822D01*
G01X78473Y44816D01*
G37*
G36*
G01X69532Y38036D02*
G01X70140Y38036D01*
G01X70091Y38138D01*
G01X70032Y38235D01*
G01X69963Y38326D01*
G01X69886Y38410D01*
G01X69800Y38485D01*
G01X69708Y38552D01*
G01X69609Y38609D01*
G01X69532Y38643D01*
G01X69532Y38036D01*
G37*
G36*
G01X20967Y37223D02*
G01X21537Y37223D01*
G01X21533Y37234D01*
G01X21488Y37328D01*
G01X21434Y37416D01*
G01X21371Y37499D01*
G01X21301Y37575D01*
G01X21223Y37644D01*
G01X21138Y37704D01*
G01X21049Y37756D01*
G01X20967Y37793D01*
G01X20967Y37223D01*
G37*

%LPD*%
G54D11*
G01X16563Y36830D02*
G01X16563Y36563D01*
G01X17371Y35755D01*
G01X18483Y35755D01*
G01X19304Y36576D01*
G01X19304Y37137D01*
G01X24480Y42311D01*
G01X35397Y42311D01*
G01X35714Y42628D01*
G01X49811Y42628D01*
G01X56174Y48991D01*
G01X66908Y48991D01*
G01X70457Y52539D01*
G01X70457Y52832D01*
G01X71628Y52832D02*
G01X70457Y52832D01*
G01X15494Y36830D02*
G01X16563Y36830D01*
G01X18034Y36830D02*
G01X23942Y42738D01*
G01X35280Y42738D01*
G01X35557Y43012D01*
G01X49588Y43012D01*
G01X57150Y50576D01*
G01X66832Y50576D01*
G01X69088Y52832D01*
G01X69088Y37592D02*
G01X69088Y37929D01*
G01X70970Y39811D01*
G01X74228Y39811D01*
G01X80137Y45720D01*
G01X38661Y59761D02*
G01X16367Y59761D01*
G01X15293Y58686D01*
G01X15293Y58420D01*
G01X14224Y58420D02*
G01X15293Y58420D01*
G01X90678Y47416D02*
G01X81833Y47416D01*
G01X80137Y45720D01*
G01X4879Y28702D02*
G01X4879Y28968D01*
G01X6449Y30538D01*
G01X14282Y30538D01*
G01X20574Y36830D01*
G01X3810Y28702D02*
G01X4879Y28702D01*
G01X8890Y28702D02*
G01X15463Y28702D01*
G01X22420Y35659D01*
G01X36926Y35659D01*
G01X21409Y44958D02*
G01X21409Y44330D01*
G01X21772Y43967D01*
G01X28892Y43967D01*
G01X37338Y52412D01*
G01X37338Y53406D01*
G01X38371Y54439D01*
G01X57320Y54439D01*
G01X58928Y52832D01*
G01X20574Y44958D02*
G01X21409Y44958D01*
G01X15821Y44958D02*
G01X15821Y44356D01*
G01X16593Y43583D01*
G01X31201Y43583D01*
G01X39878Y52260D01*
G01X39878Y53223D01*
G01X40700Y54046D01*
G01X52633Y54046D01*
G01X53848Y52832D01*
G01X14986Y44958D02*
G01X15821Y44958D01*
G01X10741Y45212D02*
G01X10741Y44584D01*
G01X12125Y43200D01*
G01X35199Y43200D01*
G01X35397Y43395D01*
G01X41874Y43395D01*
G01X51308Y52832D01*
G01X9906Y45212D02*
G01X10741Y45212D01*
G01X97536Y28956D02*
G01X96751Y28956D01*
G01X90228Y35478D01*
G01X90228Y36550D01*
G01X90149Y36629D01*
G01X88249Y36629D01*
G01X86723Y35102D01*
G01X41851Y35102D01*
G01X39977Y36977D01*
G01X39977Y38056D01*
G01X36375Y41658D01*
G01X36118Y41658D01*
G01X97536Y23876D02*
G01X94996Y26416D01*
G01X91440Y26416D01*
G01X83649Y34206D01*
G01X40208Y34206D01*
G01X37437Y36977D01*
G01X37437Y38049D01*
G01X34145Y41341D01*
G01X29222Y41341D01*
G01X23114Y36830D02*
G01X28211Y41927D01*
G01X35557Y41927D01*
G01X35874Y42245D01*
G01X38343Y42245D01*
G01X42418Y38171D01*
G01X42418Y37183D01*
G01X43322Y36278D01*
G01X49283Y36278D01*
G01X50038Y37033D01*
G01X50038Y38054D01*
G01X51274Y39291D01*
G01X66512Y39291D01*
G01X67818Y37985D01*
G01X67818Y37205D01*
G01X68620Y36403D01*
G01X70439Y36403D01*
G01X71628Y37592D01*
G01X90678Y42418D02*
G01X85852Y37592D01*
G01X71628Y37592D01*
G01X6350Y28702D02*
G01X7731Y30083D01*
G01X16301Y30083D01*
G01X23047Y36830D01*
G01X23114Y36830D01*
G01X56388Y37592D02*
G01X58488Y35491D01*
G01X86570Y35491D01*
G01X88089Y37012D01*
G01X92781Y37012D01*
G01X94234Y35560D01*
G01X53848Y37592D02*
G01X55140Y38884D01*
G01X56875Y38884D01*
G01X57558Y38201D01*
G01X57558Y37020D01*
G01X58559Y36019D01*
G01X86553Y36019D01*
G01X87952Y37416D01*
G01X94917Y37416D01*
G01X96774Y35560D01*
G01X85598Y55372D02*
G01X70065Y39839D01*
G01X51015Y39839D01*
G01X48768Y37592D01*
G01X85598Y60452D02*
G01X82786Y57640D01*
G01X80540Y57640D01*
G01X65953Y43050D01*
G01X51686Y43050D01*
G01X46228Y37592D01*
G01X85598Y65532D02*
G01X81653Y61584D01*
G01X81653Y59453D01*
G01X70805Y48605D01*
G01X56334Y48605D01*
G01X46489Y38762D01*
G01X44858Y38762D01*
G01X43688Y37592D01*
G01X88084Y35560D02*
G01X87114Y34589D01*
G01X41610Y34589D01*
G01X38608Y37592D01*
G01X89154Y35560D02*
G01X88084Y35560D01*
G01X97536Y18796D02*
G01X94350Y21981D01*
G01X91422Y21981D01*
G01X79580Y33822D01*
G01X39837Y33822D01*
G01X36068Y37592D01*
G01X20670Y33080D02*
G01X43047Y33080D01*
G01X53522Y22606D01*
G01X11938Y45212D02*
G01X13350Y45212D01*
G01X81788Y45720D02*
G01X75138Y39070D01*
G01X71059Y39070D01*
G01X51308Y66548D02*
G01X50375Y67480D01*
G01X47210Y67480D01*
G01X38752Y59021D01*
G01X31917Y59021D01*
G01X17853Y44958D01*
G01X17018Y44958D02*
G01X17853Y44958D01*
G01X60198Y56619D02*
G01X60198Y52423D01*
G01X58938Y51163D01*
G01X57645Y51163D01*
G01X60198Y56619D02*
G01X74467Y56619D01*
G01X48016Y56619D02*
G01X60198Y56619D01*
G01X23441Y44958D02*
G01X35102Y56619D01*
G01X48016Y56619D01*
G01X48016Y66548D02*
G01X48016Y56619D01*
G01X22606Y44958D02*
G01X23441Y44958D01*
G54D13*
G01X20574Y44958D03*
G01X22606Y44958D03*
G01X14986Y44958D03*
G01X17018Y44958D03*
G01X9906Y45212D03*
G01X11938Y45212D03*
G54D14*
G01X71628Y52832D03*
G54D15*
G01X69088Y52832D03*
G01X66548Y52832D03*
G01X64008Y52832D03*
G01X61468Y52832D03*
G01X58928Y52832D03*
G01X56388Y52832D03*
G01X53848Y52832D03*
G01X51308Y52832D03*
G01X48768Y52832D03*
G01X46228Y52832D03*
G01X43688Y52832D03*
G01X41148Y52832D03*
G01X38608Y52832D03*
G01X36068Y52832D03*
G01X71628Y37592D03*
G01X69088Y37592D03*
G01X66548Y37592D03*
G01X64008Y37592D03*
G01X61468Y37592D03*
G01X58928Y37592D03*
G01X56388Y37592D03*
G01X53848Y37592D03*
G01X51308Y37592D03*
G01X48768Y37592D03*
G01X46228Y37592D03*
G01X43688Y37592D03*
G01X41148Y37592D03*
G01X38608Y37592D03*
G01X36068Y37592D03*
G54D16*
G01X89154Y35560D03*
G54D17*
G01X91694Y35560D03*
G01X94234Y35560D03*
G01X96774Y35560D03*
G54D16*
G01X15494Y36830D03*
G54D17*
G01X18034Y36830D03*
G01X20574Y36830D03*
G01X23114Y36830D03*
G01X8890Y28702D03*
G01X6350Y28702D03*
G54D16*
G01X3810Y28702D03*
G54D17*
G01X8890Y23622D03*
G01X6350Y23622D03*
G54D16*
G01X3810Y23622D03*
G54D17*
G01X8890Y18542D03*
G01X6350Y18542D03*
G54D16*
G01X3810Y18542D03*
G54D17*
G01X19304Y63500D03*
G01X16764Y63500D03*
G54D16*
G01X14224Y63500D03*
G54D17*
G01X19304Y58420D03*
G01X16764Y58420D03*
G54D16*
G01X14224Y58420D03*
G54D17*
G01X19304Y53340D03*
G01X16764Y53340D03*
G54D16*
G01X14224Y53340D03*
G54D17*
G01X97536Y28956D03*
G01X94996Y28956D03*
G54D16*
G01X92456Y28956D03*
G54D17*
G01X97536Y23876D03*
G01X94996Y23876D03*
G54D16*
G01X92456Y23876D03*
G54D17*
G01X97536Y18796D03*
G01X94996Y18796D03*
G54D16*
G01X92456Y18796D03*
G54D17*
G01X85598Y65532D03*
G01X83058Y65532D03*
G54D16*
G01X80518Y65532D03*
G54D17*
G01X85598Y60452D03*
G01X83058Y60452D03*
G54D16*
G01X80518Y60452D03*
G54D17*
G01X85598Y55372D03*
G01X83058Y55372D03*
G54D16*
G01X80518Y55372D03*
G54D18*
G01X90678Y42418D03*
G01X90678Y47416D03*
G54D19*
G01X53014Y66548D03*
G01X51308Y66548D03*
G01X49657Y66548D03*
G01X48016Y66548D03*
G01X53522Y22606D03*
G01X51816Y22606D03*
G01X50165Y22606D03*
G01X48524Y22606D03*
G01X83494Y45720D03*
G01X81788Y45720D03*
G01X80137Y45720D03*
G01X78496Y45720D03*
G54D12*
G01X38661Y59761D03*
G01X36926Y35659D03*
G01X36118Y41658D03*
G01X29222Y41341D03*
G01X20670Y33080D03*
G01X13350Y45212D03*
G01X71059Y39070D03*
G01X57645Y51163D03*
G01X74467Y56619D03*
M00*
M02*
