ISO-10303-21;
HEADER;
FILE_DESCRIPTION(('FreeCAD Model'),'2;1');
FILE_NAME('Open CASCADE Shape Model','2026-10-06T08:30:08',('FreeCAD'),(
    'FreeCAD'),'Open CASCADE STEP processor 7.8','FreeCAD','Unknown');
FILE_SCHEMA(('AUTOMOTIVE_DESIGN { 1 0 10303 214 1 1 1 1 }'));
ENDSEC;
DATA;
#1 = APPLICATION_PROTOCOL_DEFINITION('international standard',
  'automotive_design',2000,#2);
#2 = APPLICATION_CONTEXT(
  'core data for automotive mechanical design processes');
#3 = SHAPE_DEFINITION_REPRESENTATION(#4,#10);
#4 = PRODUCT_DEFINITION_SHAPE('','',#5);
#5 = PRODUCT_DEFINITION('design','',#6,#9);
#6 = PRODUCT_DEFINITION_FORMATION('','',#7);
#7 = PRODUCT('Open CASCADE STEP translator 7.8 1',
  'Open CASCADE STEP translator 7.8 1','',(#8));
#8 = PRODUCT_CONTEXT('',#2,'mechanical');
#9 = PRODUCT_DEFINITION_CONTEXT('part definition',#2,'design');
#10 = ADVANCED_BREP_SHAPE_REPRESENTATION('',(#11,#15),#835);
#11 = AXIS2_PLACEMENT_3D('',#12,#13,#14);
#12 = CARTESIAN_POINT('',(0.,0.,0.));
#13 = DIRECTION('',(0.,0.,1.));
#14 = DIRECTION('',(1.,0.,-0.));
#15 = MANIFOLD_SOLID_BREP('',#16);
#16 = CLOSED_SHELL('',(#17,#75,#99,#212,#229,#263,#314,#347,#358,#375,
    #402,#419,#436,#463,#483,#494,#519,#613,#633,#764,#789,#823));
#17 = ADVANCED_FACE('',(#18),#70,.F.);
#18 = FACE_BOUND('',#19,.F.);
#19 = EDGE_LOOP('',(#20,#31,#39,#47,#55,#64));
#20 = ORIENTED_EDGE('',*,*,#21,.F.);
#21 = EDGE_CURVE('',#22,#24,#26,.T.);
#22 = VERTEX_POINT('',#23);
#23 = CARTESIAN_POINT('',(6.928203230276,-8.484601909799E-16,0.5));
#24 = VERTEX_POINT('',#25);
#25 = CARTESIAN_POINT('',(6.349603415351,1.0021642767,0.));
#26 = HYPERBOLA('',#27,6.,6.);
#27 = AXIS2_PLACEMENT_3D('',#28,#29,#30);
#28 = CARTESIAN_POINT('',(5.196152422707,3.,-6.428203230276));
#29 = DIRECTION('',(-0.866025403784,-0.5,0.));
#30 = DIRECTION('',(0.,0.,1.));
#31 = ORIENTED_EDGE('',*,*,#32,.T.);
#32 = EDGE_CURVE('',#22,#33,#35,.T.);
#33 = VERTEX_POINT('',#34);
#34 = CARTESIAN_POINT('',(6.928203230276,0.,8.));
#35 = LINE('',#36,#37);
#36 = CARTESIAN_POINT('',(6.928203230276,0.,0.));
#37 = VECTOR('',#38,1.);
#38 = DIRECTION('',(0.,0.,1.));
#39 = ORIENTED_EDGE('',*,*,#40,.T.);
#40 = EDGE_CURVE('',#33,#41,#43,.T.);
#41 = VERTEX_POINT('',#42);
#42 = CARTESIAN_POINT('',(3.464101615138,6.,8.));
#43 = LINE('',#44,#45);
#44 = CARTESIAN_POINT('',(6.928203230276,0.,8.));
#45 = VECTOR('',#46,1.);
#46 = DIRECTION('',(-0.5,0.866025403784,0.));
#47 = ORIENTED_EDGE('',*,*,#48,.F.);
#48 = EDGE_CURVE('',#49,#41,#51,.T.);
#49 = VERTEX_POINT('',#50);
#50 = CARTESIAN_POINT('',(3.464101615138,6.,0.5));
#51 = LINE('',#52,#53);
#52 = CARTESIAN_POINT('',(3.464101615138,6.,0.));
#53 = VECTOR('',#54,1.);
#54 = DIRECTION('',(0.,0.,1.));
#55 = ORIENTED_EDGE('',*,*,#56,.F.);
#56 = EDGE_CURVE('',#57,#49,#59,.T.);
#57 = VERTEX_POINT('',#58);
#58 = CARTESIAN_POINT('',(4.042701430063,4.9978357233,0.));
#59 = HYPERBOLA('',#60,6.,6.);
#60 = AXIS2_PLACEMENT_3D('',#61,#62,#63);
#61 = CARTESIAN_POINT('',(5.196152422707,3.,-6.428203230276));
#62 = DIRECTION('',(-0.866025403784,-0.5,0.));
#63 = DIRECTION('',(0.,0.,1.));
#64 = ORIENTED_EDGE('',*,*,#65,.F.);
#65 = EDGE_CURVE('',#24,#57,#66,.T.);
#66 = LINE('',#67,#68);
#67 = CARTESIAN_POINT('',(6.928203230276,0.,0.));
#68 = VECTOR('',#69,1.);
#69 = DIRECTION('',(-0.5,0.866025403784,0.));
#70 = PLANE('',#71);
#71 = AXIS2_PLACEMENT_3D('',#72,#73,#74);
#72 = CARTESIAN_POINT('',(6.928203230276,0.,0.));
#73 = DIRECTION('',(-0.866025403784,-0.5,0.));
#74 = DIRECTION('',(-0.5,0.866025403784,0.));
#75 = ADVANCED_FACE('',(#76),#94,.T.);
#76 = FACE_BOUND('',#77,.T.);
#77 = EDGE_LOOP('',(#78,#79,#87));
#78 = ORIENTED_EDGE('',*,*,#21,.F.);
#79 = ORIENTED_EDGE('',*,*,#80,.F.);
#80 = EDGE_CURVE('',#81,#22,#83,.T.);
#81 = VERTEX_POINT('',#82);
#82 = CARTESIAN_POINT('',(6.428203230276,-1.574455702045E-15,0.));
#83 = LINE('',#84,#85);
#84 = CARTESIAN_POINT('',(6.428203230276,-1.574455702045E-15,0.));
#85 = VECTOR('',#86,1.);
#86 = DIRECTION('',(0.707106781187,-1.731912112471E-16,0.707106781187));
#87 = ORIENTED_EDGE('',*,*,#88,.T.);
#88 = EDGE_CURVE('',#81,#24,#89,.T.);
#89 = CIRCLE('',#90,6.428203230276);
#90 = AXIS2_PLACEMENT_3D('',#91,#92,#93);
#91 = CARTESIAN_POINT('',(0.,0.,0.));
#92 = DIRECTION('',(0.,0.,1.));
#93 = DIRECTION('',(1.,0.,0.));
#94 = CONICAL_SURFACE('',#95,6.428203230276,0.785398163397);
#95 = AXIS2_PLACEMENT_3D('',#96,#97,#98);
#96 = CARTESIAN_POINT('',(0.,0.,0.));
#97 = DIRECTION('',(0.,0.,1.));
#98 = DIRECTION('',(1.,0.,0.));
#99 = ADVANCED_FACE('',(#100,#196),#207,.F.);
#100 = FACE_BOUND('',#101,.F.);
#101 = EDGE_LOOP('',(#102,#103,#104,#113,#121,#130,#138,#147,#155,#164,
    #172,#181,#189));
#102 = ORIENTED_EDGE('',*,*,#88,.T.);
#103 = ORIENTED_EDGE('',*,*,#65,.T.);
#104 = ORIENTED_EDGE('',*,*,#105,.T.);
#105 = EDGE_CURVE('',#57,#106,#108,.T.);
#106 = VERTEX_POINT('',#107);
#107 = CARTESIAN_POINT('',(2.306901985288,6.,0.));
#108 = CIRCLE('',#109,6.428203230276);
#109 = AXIS2_PLACEMENT_3D('',#110,#111,#112);
#110 = CARTESIAN_POINT('',(0.,0.,0.));
#111 = DIRECTION('',(0.,0.,1.));
#112 = DIRECTION('',(1.,0.,0.));
#113 = ORIENTED_EDGE('',*,*,#114,.T.);
#114 = EDGE_CURVE('',#106,#115,#117,.T.);
#115 = VERTEX_POINT('',#116);
#116 = CARTESIAN_POINT('',(-2.306901985287,6.,0.));
#117 = LINE('',#118,#119);
#118 = CARTESIAN_POINT('',(3.464101615138,6.,0.));
#119 = VECTOR('',#120,1.);
#120 = DIRECTION('',(-1.,1.281975124256E-16,0.));
#121 = ORIENTED_EDGE('',*,*,#122,.T.);
#122 = EDGE_CURVE('',#115,#123,#125,.T.);
#123 = VERTEX_POINT('',#124);
#124 = CARTESIAN_POINT('',(-4.042701430063,4.9978357233,0.));
#125 = CIRCLE('',#126,6.428203230276);
#126 = AXIS2_PLACEMENT_3D('',#127,#128,#129);
#127 = CARTESIAN_POINT('',(0.,0.,0.));
#128 = DIRECTION('',(0.,0.,1.));
#129 = DIRECTION('',(1.,0.,0.));
#130 = ORIENTED_EDGE('',*,*,#131,.T.);
#131 = EDGE_CURVE('',#123,#132,#134,.T.);
#132 = VERTEX_POINT('',#133);
#133 = CARTESIAN_POINT('',(-6.34960341535,1.0021642767,0.));
#134 = LINE('',#135,#136);
#135 = CARTESIAN_POINT('',(-3.464101615138,6.,0.));
#136 = VECTOR('',#137,1.);
#137 = DIRECTION('',(-0.5,-0.866025403784,0.));
#138 = ORIENTED_EDGE('',*,*,#139,.T.);
#139 = EDGE_CURVE('',#132,#140,#142,.T.);
#140 = VERTEX_POINT('',#141);
#141 = CARTESIAN_POINT('',(-6.34960341535,-1.0021642767,0.));
#142 = CIRCLE('',#143,6.428203230276);
#143 = AXIS2_PLACEMENT_3D('',#144,#145,#146);
#144 = CARTESIAN_POINT('',(0.,0.,0.));
#145 = DIRECTION('',(0.,0.,1.));
#146 = DIRECTION('',(1.,0.,0.));
#147 = ORIENTED_EDGE('',*,*,#148,.T.);
#148 = EDGE_CURVE('',#140,#149,#151,.T.);
#149 = VERTEX_POINT('',#150);
#150 = CARTESIAN_POINT('',(-4.042701430063,-4.9978357233,0.));
#151 = LINE('',#152,#153);
#152 = CARTESIAN_POINT('',(-6.928203230276,8.484601909799E-16,0.));
#153 = VECTOR('',#154,1.);
#154 = DIRECTION('',(0.5,-0.866025403784,0.));
#155 = ORIENTED_EDGE('',*,*,#156,.T.);
#156 = EDGE_CURVE('',#149,#157,#159,.T.);
#157 = VERTEX_POINT('',#158);
#158 = CARTESIAN_POINT('',(-2.306901985287,-6.,0.));
#159 = CIRCLE('',#160,6.428203230276);
#160 = AXIS2_PLACEMENT_3D('',#161,#162,#163);
#161 = CARTESIAN_POINT('',(0.,0.,0.));
#162 = DIRECTION('',(0.,0.,1.));
#163 = DIRECTION('',(1.,0.,0.));
#164 = ORIENTED_EDGE('',*,*,#165,.T.);
#165 = EDGE_CURVE('',#157,#166,#168,.T.);
#166 = VERTEX_POINT('',#167);
#167 = CARTESIAN_POINT('',(2.306901985288,-6.,0.));
#168 = LINE('',#169,#170);
#169 = CARTESIAN_POINT('',(-3.464101615138,-6.,0.));
#170 = VECTOR('',#171,1.);
#171 = DIRECTION('',(1.,-2.563950248511E-16,0.));
#172 = ORIENTED_EDGE('',*,*,#173,.T.);
#173 = EDGE_CURVE('',#166,#174,#176,.T.);
#174 = VERTEX_POINT('',#175);
#175 = CARTESIAN_POINT('',(4.042701430063,-4.9978357233,0.));
#176 = CIRCLE('',#177,6.428203230276);
#177 = AXIS2_PLACEMENT_3D('',#178,#179,#180);
#178 = CARTESIAN_POINT('',(0.,0.,0.));
#179 = DIRECTION('',(0.,0.,1.));
#180 = DIRECTION('',(1.,0.,0.));
#181 = ORIENTED_EDGE('',*,*,#182,.T.);
#182 = EDGE_CURVE('',#174,#183,#185,.T.);
#183 = VERTEX_POINT('',#184);
#184 = CARTESIAN_POINT('',(6.349603415351,-1.0021642767,0.));
#185 = LINE('',#186,#187);
#186 = CARTESIAN_POINT('',(3.464101615138,-6.,0.));
#187 = VECTOR('',#188,1.);
#188 = DIRECTION('',(0.5,0.866025403784,0.));
#189 = ORIENTED_EDGE('',*,*,#190,.T.);
#190 = EDGE_CURVE('',#183,#81,#191,.T.);
#191 = CIRCLE('',#192,6.428203230276);
#192 = AXIS2_PLACEMENT_3D('',#193,#194,#195);
#193 = CARTESIAN_POINT('',(0.,0.,0.));
#194 = DIRECTION('',(0.,0.,1.));
#195 = DIRECTION('',(1.,0.,0.));
#196 = FACE_BOUND('',#197,.F.);
#197 = EDGE_LOOP('',(#198));
#198 = ORIENTED_EDGE('',*,*,#199,.F.);
#199 = EDGE_CURVE('',#200,#200,#202,.T.);
#200 = VERTEX_POINT('',#201);
#201 = CARTESIAN_POINT('',(1.65,-4.041334437186E-16,0.));
#202 = CIRCLE('',#203,1.65);
#203 = AXIS2_PLACEMENT_3D('',#204,#205,#206);
#204 = CARTESIAN_POINT('',(0.,0.,0.));
#205 = DIRECTION('',(0.,0.,1.));
#206 = DIRECTION('',(1.,0.,0.));
#207 = PLANE('',#208);
#208 = AXIS2_PLACEMENT_3D('',#209,#210,#211);
#209 = CARTESIAN_POINT('',(0.,0.,0.));
#210 = DIRECTION('',(0.,0.,1.));
#211 = DIRECTION('',(1.,0.,0.));
#212 = ADVANCED_FACE('',(#213),#224,.T.);
#213 = FACE_BOUND('',#214,.T.);
#214 = EDGE_LOOP('',(#215,#216,#217));
#215 = ORIENTED_EDGE('',*,*,#56,.F.);
#216 = ORIENTED_EDGE('',*,*,#105,.T.);
#217 = ORIENTED_EDGE('',*,*,#218,.F.);
#218 = EDGE_CURVE('',#49,#106,#219,.T.);
#219 = HYPERBOLA('',#220,6.,6.);
#220 = AXIS2_PLACEMENT_3D('',#221,#222,#223);
#221 = CARTESIAN_POINT('',(7.691850745534E-16,6.,-6.428203230276));
#222 = DIRECTION('',(-1.281975124256E-16,-1.,0.));
#223 = DIRECTION('',(0.,0.,1.));
#224 = CONICAL_SURFACE('',#225,6.428203230276,0.785398163397);
#225 = AXIS2_PLACEMENT_3D('',#226,#227,#228);
#226 = CARTESIAN_POINT('',(0.,0.,0.));
#227 = DIRECTION('',(0.,0.,1.));
#228 = DIRECTION('',(1.,0.,0.));
#229 = ADVANCED_FACE('',(#230),#258,.F.);
#230 = FACE_BOUND('',#231,.F.);
#231 = EDGE_LOOP('',(#232,#233,#234,#242,#250,#257));
#232 = ORIENTED_EDGE('',*,*,#218,.F.);
#233 = ORIENTED_EDGE('',*,*,#48,.T.);
#234 = ORIENTED_EDGE('',*,*,#235,.T.);
#235 = EDGE_CURVE('',#41,#236,#238,.T.);
#236 = VERTEX_POINT('',#237);
#237 = CARTESIAN_POINT('',(-3.464101615138,6.,8.));
#238 = LINE('',#239,#240);
#239 = CARTESIAN_POINT('',(3.464101615138,6.,8.));
#240 = VECTOR('',#241,1.);
#241 = DIRECTION('',(-1.,1.281975124256E-16,0.));
#242 = ORIENTED_EDGE('',*,*,#243,.F.);
#243 = EDGE_CURVE('',#244,#236,#246,.T.);
#244 = VERTEX_POINT('',#245);
#245 = CARTESIAN_POINT('',(-3.464101615138,6.,0.5));
#246 = LINE('',#247,#248);
#247 = CARTESIAN_POINT('',(-3.464101615138,6.,0.));
#248 = VECTOR('',#249,1.);
#249 = DIRECTION('',(0.,0.,1.));
#250 = ORIENTED_EDGE('',*,*,#251,.F.);
#251 = EDGE_CURVE('',#115,#244,#252,.T.);
#252 = HYPERBOLA('',#253,6.,6.);
#253 = AXIS2_PLACEMENT_3D('',#254,#255,#256);
#254 = CARTESIAN_POINT('',(7.691850745534E-16,6.,-6.428203230276));
#255 = DIRECTION('',(-1.281975124256E-16,-1.,0.));
#256 = DIRECTION('',(0.,0.,1.));
#257 = ORIENTED_EDGE('',*,*,#114,.F.);
#258 = PLANE('',#259);
#259 = AXIS2_PLACEMENT_3D('',#260,#261,#262);
#260 = CARTESIAN_POINT('',(3.464101615138,6.,0.));
#261 = DIRECTION('',(-1.281975124256E-16,-1.,0.));
#262 = DIRECTION('',(-1.,1.281975124256E-16,0.));
#263 = ADVANCED_FACE('',(#264,#298),#309,.T.);
#264 = FACE_BOUND('',#265,.T.);
#265 = EDGE_LOOP('',(#266,#267,#268,#276,#284,#292));
#266 = ORIENTED_EDGE('',*,*,#40,.T.);
#267 = ORIENTED_EDGE('',*,*,#235,.T.);
#268 = ORIENTED_EDGE('',*,*,#269,.T.);
#269 = EDGE_CURVE('',#236,#270,#272,.T.);
#270 = VERTEX_POINT('',#271);
#271 = CARTESIAN_POINT('',(-6.928203230276,8.484601909799E-16,8.));
#272 = LINE('',#273,#274);
#273 = CARTESIAN_POINT('',(-3.464101615138,6.,8.));
#274 = VECTOR('',#275,1.);
#275 = DIRECTION('',(-0.5,-0.866025403784,0.));
#276 = ORIENTED_EDGE('',*,*,#277,.T.);
#277 = EDGE_CURVE('',#270,#278,#280,.T.);
#278 = VERTEX_POINT('',#279);
#279 = CARTESIAN_POINT('',(-3.464101615138,-6.,8.));
#280 = LINE('',#281,#282);
#281 = CARTESIAN_POINT('',(-6.928203230276,8.484601909799E-16,8.));
#282 = VECTOR('',#283,1.);
#283 = DIRECTION('',(0.5,-0.866025403784,0.));
#284 = ORIENTED_EDGE('',*,*,#285,.T.);
#285 = EDGE_CURVE('',#278,#286,#288,.T.);
#286 = VERTEX_POINT('',#287);
#287 = CARTESIAN_POINT('',(3.464101615138,-6.,8.));
#288 = LINE('',#289,#290);
#289 = CARTESIAN_POINT('',(-3.464101615138,-6.,8.));
#290 = VECTOR('',#291,1.);
#291 = DIRECTION('',(1.,-2.563950248511E-16,0.));
#292 = ORIENTED_EDGE('',*,*,#293,.T.);
#293 = EDGE_CURVE('',#286,#33,#294,.T.);
#294 = LINE('',#295,#296);
#295 = CARTESIAN_POINT('',(3.464101615138,-6.,8.));
#296 = VECTOR('',#297,1.);
#297 = DIRECTION('',(0.5,0.866025403784,0.));
#298 = FACE_BOUND('',#299,.T.);
#299 = EDGE_LOOP('',(#300));
#300 = ORIENTED_EDGE('',*,*,#301,.F.);
#301 = EDGE_CURVE('',#302,#302,#304,.T.);
#302 = VERTEX_POINT('',#303);
#303 = CARTESIAN_POINT('',(5.75,-1.408343819019E-15,8.));
#304 = CIRCLE('',#305,5.75);
#305 = AXIS2_PLACEMENT_3D('',#306,#307,#308);
#306 = CARTESIAN_POINT('',(0.,0.,8.));
#307 = DIRECTION('',(0.,0.,1.));
#308 = DIRECTION('',(1.,0.,0.));
#309 = PLANE('',#310);
#310 = AXIS2_PLACEMENT_3D('',#311,#312,#313);
#311 = CARTESIAN_POINT('',(0.,0.,8.));
#312 = DIRECTION('',(0.,0.,1.));
#313 = DIRECTION('',(1.,0.,0.));
#314 = ADVANCED_FACE('',(#315),#342,.F.);
#315 = FACE_BOUND('',#316,.F.);
#316 = EDGE_LOOP('',(#317,#326,#332,#333,#334,#341));
#317 = ORIENTED_EDGE('',*,*,#318,.F.);
#318 = EDGE_CURVE('',#319,#174,#321,.T.);
#319 = VERTEX_POINT('',#320);
#320 = CARTESIAN_POINT('',(3.464101615138,-6.,0.5));
#321 = HYPERBOLA('',#322,6.,6.);
#322 = AXIS2_PLACEMENT_3D('',#323,#324,#325);
#323 = CARTESIAN_POINT('',(5.196152422707,-3.,-6.428203230276));
#324 = DIRECTION('',(-0.866025403784,0.5,0.));
#325 = DIRECTION('',(0.,0.,1.));
#326 = ORIENTED_EDGE('',*,*,#327,.T.);
#327 = EDGE_CURVE('',#319,#286,#328,.T.);
#328 = LINE('',#329,#330);
#329 = CARTESIAN_POINT('',(3.464101615138,-6.,0.));
#330 = VECTOR('',#331,1.);
#331 = DIRECTION('',(0.,0.,1.));
#332 = ORIENTED_EDGE('',*,*,#293,.T.);
#333 = ORIENTED_EDGE('',*,*,#32,.F.);
#334 = ORIENTED_EDGE('',*,*,#335,.F.);
#335 = EDGE_CURVE('',#183,#22,#336,.T.);
#336 = HYPERBOLA('',#337,6.,6.);
#337 = AXIS2_PLACEMENT_3D('',#338,#339,#340);
#338 = CARTESIAN_POINT('',(5.196152422707,-3.,-6.428203230276));
#339 = DIRECTION('',(-0.866025403784,0.5,0.));
#340 = DIRECTION('',(0.,0.,1.));
#341 = ORIENTED_EDGE('',*,*,#182,.F.);
#342 = PLANE('',#343);
#343 = AXIS2_PLACEMENT_3D('',#344,#345,#346);
#344 = CARTESIAN_POINT('',(3.464101615138,-6.,0.));
#345 = DIRECTION('',(-0.866025403784,0.5,0.));
#346 = DIRECTION('',(0.5,0.866025403784,0.));
#347 = ADVANCED_FACE('',(#348),#353,.T.);
#348 = FACE_BOUND('',#349,.T.);
#349 = EDGE_LOOP('',(#350,#351,#352));
#350 = ORIENTED_EDGE('',*,*,#80,.T.);
#351 = ORIENTED_EDGE('',*,*,#335,.F.);
#352 = ORIENTED_EDGE('',*,*,#190,.T.);
#353 = CONICAL_SURFACE('',#354,6.428203230276,0.785398163397);
#354 = AXIS2_PLACEMENT_3D('',#355,#356,#357);
#355 = CARTESIAN_POINT('',(0.,0.,0.));
#356 = DIRECTION('',(0.,0.,1.));
#357 = DIRECTION('',(1.,0.,0.));
#358 = ADVANCED_FACE('',(#359),#370,.T.);
#359 = FACE_BOUND('',#360,.T.);
#360 = EDGE_LOOP('',(#361,#362,#363));
#361 = ORIENTED_EDGE('',*,*,#173,.T.);
#362 = ORIENTED_EDGE('',*,*,#318,.F.);
#363 = ORIENTED_EDGE('',*,*,#364,.F.);
#364 = EDGE_CURVE('',#166,#319,#365,.T.);
#365 = HYPERBOLA('',#366,6.,6.);
#366 = AXIS2_PLACEMENT_3D('',#367,#368,#369);
#367 = CARTESIAN_POINT('',(-1.538370149107E-15,-6.,-6.428203230276));
#368 = DIRECTION('',(2.563950248511E-16,1.,-0.));
#369 = DIRECTION('',(0.,0.,1.));
#370 = CONICAL_SURFACE('',#371,6.428203230276,0.785398163397);
#371 = AXIS2_PLACEMENT_3D('',#372,#373,#374);
#372 = CARTESIAN_POINT('',(0.,0.,0.));
#373 = DIRECTION('',(0.,0.,1.));
#374 = DIRECTION('',(1.,0.,0.));
#375 = ADVANCED_FACE('',(#376),#397,.F.);
#376 = FACE_BOUND('',#377,.F.);
#377 = EDGE_LOOP('',(#378,#387,#393,#394,#395,#396));
#378 = ORIENTED_EDGE('',*,*,#379,.F.);
#379 = EDGE_CURVE('',#380,#157,#382,.T.);
#380 = VERTEX_POINT('',#381);
#381 = CARTESIAN_POINT('',(-3.464101615138,-6.,0.5));
#382 = HYPERBOLA('',#383,6.,6.);
#383 = AXIS2_PLACEMENT_3D('',#384,#385,#386);
#384 = CARTESIAN_POINT('',(-1.538370149107E-15,-6.,-6.428203230276));
#385 = DIRECTION('',(2.563950248511E-16,1.,-0.));
#386 = DIRECTION('',(0.,0.,1.));
#387 = ORIENTED_EDGE('',*,*,#388,.T.);
#388 = EDGE_CURVE('',#380,#278,#389,.T.);
#389 = LINE('',#390,#391);
#390 = CARTESIAN_POINT('',(-3.464101615138,-6.,0.));
#391 = VECTOR('',#392,1.);
#392 = DIRECTION('',(0.,0.,1.));
#393 = ORIENTED_EDGE('',*,*,#285,.T.);
#394 = ORIENTED_EDGE('',*,*,#327,.F.);
#395 = ORIENTED_EDGE('',*,*,#364,.F.);
#396 = ORIENTED_EDGE('',*,*,#165,.F.);
#397 = PLANE('',#398);
#398 = AXIS2_PLACEMENT_3D('',#399,#400,#401);
#399 = CARTESIAN_POINT('',(-3.464101615138,-6.,0.));
#400 = DIRECTION('',(2.563950248511E-16,1.,0.));
#401 = DIRECTION('',(1.,-2.563950248511E-16,0.));
#402 = ADVANCED_FACE('',(#403),#414,.T.);
#403 = FACE_BOUND('',#404,.T.);
#404 = EDGE_LOOP('',(#405,#406,#407));
#405 = ORIENTED_EDGE('',*,*,#251,.F.);
#406 = ORIENTED_EDGE('',*,*,#122,.T.);
#407 = ORIENTED_EDGE('',*,*,#408,.F.);
#408 = EDGE_CURVE('',#244,#123,#409,.T.);
#409 = HYPERBOLA('',#410,6.,6.);
#410 = AXIS2_PLACEMENT_3D('',#411,#412,#413);
#411 = CARTESIAN_POINT('',(-5.196152422707,3.,-6.428203230276));
#412 = DIRECTION('',(0.866025403784,-0.5,0.));
#413 = DIRECTION('',(0.,0.,1.));
#414 = CONICAL_SURFACE('',#415,6.428203230276,0.785398163397);
#415 = AXIS2_PLACEMENT_3D('',#416,#417,#418);
#416 = CARTESIAN_POINT('',(0.,0.,0.));
#417 = DIRECTION('',(0.,0.,1.));
#418 = DIRECTION('',(1.,0.,0.));
#419 = ADVANCED_FACE('',(#420),#431,.T.);
#420 = FACE_BOUND('',#421,.T.);
#421 = EDGE_LOOP('',(#422,#423,#424));
#422 = ORIENTED_EDGE('',*,*,#156,.T.);
#423 = ORIENTED_EDGE('',*,*,#379,.F.);
#424 = ORIENTED_EDGE('',*,*,#425,.F.);
#425 = EDGE_CURVE('',#149,#380,#426,.T.);
#426 = HYPERBOLA('',#427,6.,6.);
#427 = AXIS2_PLACEMENT_3D('',#428,#429,#430);
#428 = CARTESIAN_POINT('',(-5.196152422707,-3.,-6.428203230276));
#429 = DIRECTION('',(0.866025403784,0.5,-0.));
#430 = DIRECTION('',(0.,0.,1.));
#431 = CONICAL_SURFACE('',#432,6.428203230276,0.785398163397);
#432 = AXIS2_PLACEMENT_3D('',#433,#434,#435);
#433 = CARTESIAN_POINT('',(0.,0.,0.));
#434 = DIRECTION('',(0.,0.,1.));
#435 = DIRECTION('',(1.,0.,0.));
#436 = ADVANCED_FACE('',(#437),#458,.F.);
#437 = FACE_BOUND('',#438,.F.);
#438 = EDGE_LOOP('',(#439,#440,#441,#442,#450,#457));
#439 = ORIENTED_EDGE('',*,*,#408,.F.);
#440 = ORIENTED_EDGE('',*,*,#243,.T.);
#441 = ORIENTED_EDGE('',*,*,#269,.T.);
#442 = ORIENTED_EDGE('',*,*,#443,.F.);
#443 = EDGE_CURVE('',#444,#270,#446,.T.);
#444 = VERTEX_POINT('',#445);
#445 = CARTESIAN_POINT('',(-6.928203230276,8.484601909799E-16,0.5));
#446 = LINE('',#447,#448);
#447 = CARTESIAN_POINT('',(-6.928203230276,8.484601909799E-16,0.));
#448 = VECTOR('',#449,1.);
#449 = DIRECTION('',(0.,0.,1.));
#450 = ORIENTED_EDGE('',*,*,#451,.F.);
#451 = EDGE_CURVE('',#132,#444,#452,.T.);
#452 = HYPERBOLA('',#453,6.,6.);
#453 = AXIS2_PLACEMENT_3D('',#454,#455,#456);
#454 = CARTESIAN_POINT('',(-5.196152422707,3.,-6.428203230276));
#455 = DIRECTION('',(0.866025403784,-0.5,0.));
#456 = DIRECTION('',(0.,0.,1.));
#457 = ORIENTED_EDGE('',*,*,#131,.F.);
#458 = PLANE('',#459);
#459 = AXIS2_PLACEMENT_3D('',#460,#461,#462);
#460 = CARTESIAN_POINT('',(-3.464101615138,6.,0.));
#461 = DIRECTION('',(0.866025403784,-0.5,0.));
#462 = DIRECTION('',(-0.5,-0.866025403784,0.));
#463 = ADVANCED_FACE('',(#464),#478,.F.);
#464 = FACE_BOUND('',#465,.F.);
#465 = EDGE_LOOP('',(#466,#473,#474,#475,#476,#477));
#466 = ORIENTED_EDGE('',*,*,#467,.F.);
#467 = EDGE_CURVE('',#444,#140,#468,.T.);
#468 = HYPERBOLA('',#469,6.,6.);
#469 = AXIS2_PLACEMENT_3D('',#470,#471,#472);
#470 = CARTESIAN_POINT('',(-5.196152422707,-3.,-6.428203230276));
#471 = DIRECTION('',(0.866025403784,0.5,-0.));
#472 = DIRECTION('',(0.,0.,1.));
#473 = ORIENTED_EDGE('',*,*,#443,.T.);
#474 = ORIENTED_EDGE('',*,*,#277,.T.);
#475 = ORIENTED_EDGE('',*,*,#388,.F.);
#476 = ORIENTED_EDGE('',*,*,#425,.F.);
#477 = ORIENTED_EDGE('',*,*,#148,.F.);
#478 = PLANE('',#479);
#479 = AXIS2_PLACEMENT_3D('',#480,#481,#482);
#480 = CARTESIAN_POINT('',(-6.928203230276,8.484601909799E-16,0.));
#481 = DIRECTION('',(0.866025403784,0.5,0.));
#482 = DIRECTION('',(0.5,-0.866025403784,0.));
#483 = ADVANCED_FACE('',(#484),#489,.T.);
#484 = FACE_BOUND('',#485,.T.);
#485 = EDGE_LOOP('',(#486,#487,#488));
#486 = ORIENTED_EDGE('',*,*,#451,.F.);
#487 = ORIENTED_EDGE('',*,*,#139,.T.);
#488 = ORIENTED_EDGE('',*,*,#467,.F.);
#489 = CONICAL_SURFACE('',#490,6.428203230276,0.785398163397);
#490 = AXIS2_PLACEMENT_3D('',#491,#492,#493);
#491 = CARTESIAN_POINT('',(0.,0.,0.));
#492 = DIRECTION('',(0.,0.,1.));
#493 = DIRECTION('',(1.,0.,0.));
#494 = ADVANCED_FACE('',(#495),#514,.F.);
#495 = FACE_BOUND('',#496,.F.);
#496 = EDGE_LOOP('',(#497,#506,#512,#513));
#497 = ORIENTED_EDGE('',*,*,#498,.F.);
#498 = EDGE_CURVE('',#499,#499,#501,.T.);
#499 = VERTEX_POINT('',#500);
#500 = CARTESIAN_POINT('',(1.65,-4.041334437186E-16,7.));
#501 = CIRCLE('',#502,1.65);
#502 = AXIS2_PLACEMENT_3D('',#503,#504,#505);
#503 = CARTESIAN_POINT('',(0.,0.,7.));
#504 = DIRECTION('',(0.,0.,1.));
#505 = DIRECTION('',(1.,0.,0.));
#506 = ORIENTED_EDGE('',*,*,#507,.F.);
#507 = EDGE_CURVE('',#200,#499,#508,.T.);
#508 = LINE('',#509,#510);
#509 = CARTESIAN_POINT('',(1.65,-4.041334437186E-16,0.));
#510 = VECTOR('',#511,1.);
#511 = DIRECTION('',(0.,0.,1.));
#512 = ORIENTED_EDGE('',*,*,#199,.T.);
#513 = ORIENTED_EDGE('',*,*,#507,.T.);
#514 = CYLINDRICAL_SURFACE('',#515,1.65);
#515 = AXIS2_PLACEMENT_3D('',#516,#517,#518);
#516 = CARTESIAN_POINT('',(0.,0.,0.));
#517 = DIRECTION('',(0.,0.,1.));
#518 = DIRECTION('',(1.,0.,0.));
#519 = ADVANCED_FACE('',(#520),#608,.T.);
#520 = FACE_BOUND('',#521,.T.);
#521 = EDGE_LOOP('',(#522,#555,#563,#570,#571,#600,#606,#607));
#522 = ORIENTED_EDGE('',*,*,#523,.F.);
#523 = EDGE_CURVE('',#524,#526,#528,.T.);
#524 = VERTEX_POINT('',#525);
#525 = CARTESIAN_POINT('',(5.75,-5.021051876504E-16,15.65));
#526 = VERTEX_POINT('',#527);
#527 = CARTESIAN_POINT('',(5.75,-1.408343819019E-15,12.35));
#528 = B_SPLINE_CURVE_WITH_KNOTS('',7,(#529,#530,#531,#532,#533,#534,
    #535,#536,#537,#538,#539,#540,#541,#542,#543,#544,#545,#546,#547,
    #548,#549,#550,#551,#552,#553,#554),.UNSPECIFIED.,.F.,.F.,(8,6,6,6,8
    ),(0.,0.228090619735,0.500024528878,0.771982711579,1.),
  .UNSPECIFIED.);
#529 = CARTESIAN_POINT('',(5.75,-4.440892098501E-16,15.65));
#530 = CARTESIAN_POINT('',(5.75,-0.199920564371,15.65));
#531 = CARTESIAN_POINT('',(5.741890170938,-0.395477794674,
    15.621739841774));
#532 = CARTESIAN_POINT('',(5.72631009811,-0.581917950895,15.567438525912
    ));
#533 = CARTESIAN_POINT('',(5.704952564437,-0.755093608929,
    15.490231054695));
#534 = CARTESIAN_POINT('',(5.680261901063,-0.91161017383,15.394181364673
    ));
#535 = CARTESIAN_POINT('',(5.654756758877,-1.049119296318,
    15.284333081597));
#536 = CARTESIAN_POINT('',(5.601331404405,-1.306939329221,
    15.026513048694));
#537 = CARTESIAN_POINT('',(5.573127205414,-1.422544012513,
    14.871591700328));
#538 = CARTESIAN_POINT('',(5.548262425887,-1.514042024876,
    14.706451404172));
#539 = CARTESIAN_POINT('',(5.528509324936,-1.582120880208,
    14.534341966905));
#540 = CARTESIAN_POINT('',(5.514964050192,-1.627338606186,
    14.357814741895));
#541 = CARTESIAN_POINT('',(5.508175741568,-1.65,14.179025750792));
#542 = CARTESIAN_POINT('',(5.508175741568,-1.65,13.820958268885));
#543 = CARTESIAN_POINT('',(5.514965244345,-1.627334602592,
    13.642168971298));
#544 = CARTESIAN_POINT('',(5.52851086028,-1.582115809693,13.465649872715
    ));
#545 = CARTESIAN_POINT('',(5.548262671313,-1.514040349829,
    13.293549896875));
#546 = CARTESIAN_POINT('',(5.573126170402,-1.422547509621,
    13.128414700354));
#547 = CARTESIAN_POINT('',(5.601330345277,-1.306944440364,
    12.973492062448));
#548 = CARTESIAN_POINT('',(5.654747637283,-1.049163315301,
    12.715710937385));
#549 = CARTESIAN_POINT('',(5.680255317897,-0.911652669161,
    12.605840404706));
#550 = CARTESIAN_POINT('',(5.704955498767,-0.755094965777,12.50975369016
    ));
#551 = CARTESIAN_POINT('',(5.726320071146,-0.581860383925,
    12.432526585704));
#552 = CARTESIAN_POINT('',(5.74189760867,-0.395376844938,12.378234321764
    ));
#553 = CARTESIAN_POINT('',(5.75,-0.199829095185,12.35));
#554 = CARTESIAN_POINT('',(5.75,0.,12.35));
#555 = ORIENTED_EDGE('',*,*,#556,.T.);
#556 = EDGE_CURVE('',#524,#557,#559,.T.);
#557 = VERTEX_POINT('',#558);
#558 = CARTESIAN_POINT('',(5.75,0.,17.7));
#559 = LINE('',#560,#561);
#560 = CARTESIAN_POINT('',(5.75,-1.408343819019E-15,8.));
#561 = VECTOR('',#562,1.);
#562 = DIRECTION('',(0.,0.,1.));
#563 = ORIENTED_EDGE('',*,*,#564,.F.);
#564 = EDGE_CURVE('',#557,#557,#565,.T.);
#565 = CIRCLE('',#566,5.75);
#566 = AXIS2_PLACEMENT_3D('',#567,#568,#569);
#567 = CARTESIAN_POINT('',(0.,0.,17.7));
#568 = DIRECTION('',(0.,0.,1.));
#569 = DIRECTION('',(1.,0.,0.));
#570 = ORIENTED_EDGE('',*,*,#556,.F.);
#571 = ORIENTED_EDGE('',*,*,#572,.F.);
#572 = EDGE_CURVE('',#526,#524,#573,.T.);
#573 = B_SPLINE_CURVE_WITH_KNOTS('',7,(#574,#575,#576,#577,#578,#579,
    #580,#581,#582,#583,#584,#585,#586,#587,#588,#589,#590,#591,#592,
    #593,#594,#595,#596,#597,#598,#599),.UNSPECIFIED.,.F.,.F.,(8,6,6,6,8
    ),(0.,0.2280910137,0.500035305269,0.771979596837,1.),.UNSPECIFIED.);
#574 = CARTESIAN_POINT('',(5.75,6.317138353229E-16,12.35));
#575 = CARTESIAN_POINT('',(5.75,0.199920564371,12.35));
#576 = CARTESIAN_POINT('',(5.741890170938,0.395477794674,12.378260158226
    ));
#577 = CARTESIAN_POINT('',(5.72631009811,0.581917950895,12.432561474088)
  );
#578 = CARTESIAN_POINT('',(5.704952564437,0.755093608929,12.509768945304
    ));
#579 = CARTESIAN_POINT('',(5.680261901063,0.91161017383,12.605818635327)
  );
#580 = CARTESIAN_POINT('',(5.654756758877,1.049119296318,12.715666918402
    ));
#581 = CARTESIAN_POINT('',(5.601330345277,1.306944440364,12.973492062448
    ));
#582 = CARTESIAN_POINT('',(5.573126170402,1.422547509621,13.128414700353
    ));
#583 = CARTESIAN_POINT('',(5.548262671313,1.514040349829,13.293549896875
    ));
#584 = CARTESIAN_POINT('',(5.52851086028,1.582115809693,13.465649872714)
  );
#585 = CARTESIAN_POINT('',(5.514965244345,1.627334602592,13.642168971299
    ));
#586 = CARTESIAN_POINT('',(5.508175741568,1.65,13.820958268885));
#587 = CARTESIAN_POINT('',(5.508175741568,1.65,14.179041731115));
#588 = CARTESIAN_POINT('',(5.514965244345,1.627334602592,14.357831028702
    ));
#589 = CARTESIAN_POINT('',(5.52851086028,1.582115809693,14.534350127284)
  );
#590 = CARTESIAN_POINT('',(5.548262671313,1.514040349829,14.706450103126
    ));
#591 = CARTESIAN_POINT('',(5.573126170402,1.422547509621,14.871585299646
    ));
#592 = CARTESIAN_POINT('',(5.601330345277,1.306944440364,15.026507937552
    ));
#593 = CARTESIAN_POINT('',(5.654749214474,1.049155704091,15.284296673824
    ));
#594 = CARTESIAN_POINT('',(5.680257270038,0.911641432139,15.394167250466
    ));
#595 = CARTESIAN_POINT('',(5.704956256705,0.755086803073,15.490248288555
    ));
#596 = CARTESIAN_POINT('',(5.726319063621,0.581862041484,15.567469690921
    ));
#597 = CARTESIAN_POINT('',(5.741896302355,0.395389653334,15.621761232085
    ));
#598 = CARTESIAN_POINT('',(5.75,0.199844909337,15.65));
#599 = CARTESIAN_POINT('',(5.75,2.020667218593E-16,15.65));
#600 = ORIENTED_EDGE('',*,*,#601,.F.);
#601 = EDGE_CURVE('',#302,#526,#602,.T.);
#602 = LINE('',#603,#604);
#603 = CARTESIAN_POINT('',(5.75,-1.408343819019E-15,8.));
#604 = VECTOR('',#605,1.);
#605 = DIRECTION('',(0.,0.,1.));
#606 = ORIENTED_EDGE('',*,*,#301,.T.);
#607 = ORIENTED_EDGE('',*,*,#601,.T.);
#608 = CYLINDRICAL_SURFACE('',#609,5.75);
#609 = AXIS2_PLACEMENT_3D('',#610,#611,#612);
#610 = CARTESIAN_POINT('',(0.,0.,8.));
#611 = DIRECTION('',(0.,0.,1.));
#612 = DIRECTION('',(1.,0.,0.));
#613 = ADVANCED_FACE('',(#614,#625),#628,.T.);
#614 = FACE_BOUND('',#615,.T.);
#615 = EDGE_LOOP('',(#616));
#616 = ORIENTED_EDGE('',*,*,#617,.T.);
#617 = EDGE_CURVE('',#618,#618,#620,.T.);
#618 = VERTEX_POINT('',#619);
#619 = CARTESIAN_POINT('',(3.,-7.347880794884E-16,7.));
#620 = CIRCLE('',#621,3.);
#621 = AXIS2_PLACEMENT_3D('',#622,#623,#624);
#622 = CARTESIAN_POINT('',(0.,0.,7.));
#623 = DIRECTION('',(0.,0.,1.));
#624 = DIRECTION('',(1.,0.,0.));
#625 = FACE_BOUND('',#626,.T.);
#626 = EDGE_LOOP('',(#627));
#627 = ORIENTED_EDGE('',*,*,#498,.F.);
#628 = PLANE('',#629);
#629 = AXIS2_PLACEMENT_3D('',#630,#631,#632);
#630 = CARTESIAN_POINT('',(0.,0.,7.));
#631 = DIRECTION('',(0.,0.,1.));
#632 = DIRECTION('',(1.,0.,0.));
#633 = ADVANCED_FACE('',(#634),#759,.F.);
#634 = FACE_BOUND('',#635,.F.);
#635 = EDGE_LOOP('',(#636,#637,#645,#702,#757,#758));
#636 = ORIENTED_EDGE('',*,*,#523,.F.);
#637 = ORIENTED_EDGE('',*,*,#638,.F.);
#638 = EDGE_CURVE('',#639,#524,#641,.T.);
#639 = VERTEX_POINT('',#640);
#640 = CARTESIAN_POINT('',(3.,-1.653273178849E-16,15.65));
#641 = LINE('',#642,#643);
#642 = CARTESIAN_POINT('',(0.,4.041334437186E-16,15.65));
#643 = VECTOR('',#644,1.);
#644 = DIRECTION('',(1.,0.,0.));
#645 = ORIENTED_EDGE('',*,*,#646,.T.);
#646 = EDGE_CURVE('',#639,#647,#649,.T.);
#647 = VERTEX_POINT('',#648);
#648 = CARTESIAN_POINT('',(3.,-7.347880794884E-16,12.35));
#649 = B_SPLINE_CURVE_WITH_KNOTS('',6,(#650,#651,#652,#653,#654,#655,
    #656,#657,#658,#659,#660,#661,#662,#663,#664,#665,#666,#667,#668,
    #669,#670,#671,#672,#673,#674,#675,#676,#677,#678,#679,#680,#681,
    #682,#683,#684,#685,#686,#687,#688,#689,#690,#691,#692,#693,#694,
    #695,#696,#697,#698,#699,#700,#701),.UNSPECIFIED.,.F.,.F.,(7,5,5,5,5
    ,5,5,5,5,5,7),(0.,0.123529968924,0.210989636409,0.309691916866,
    0.4023295302,0.499970055242,0.598097922184,0.690309523618,
    0.823287937805,0.876430728468,1.),.UNSPECIFIED.);
#650 = CARTESIAN_POINT('',(3.,-2.22044604925E-16,15.65));
#651 = CARTESIAN_POINT('',(3.,-0.124969883364,15.65));
#652 = CARTESIAN_POINT('',(2.993752869131,-0.249176590465,15.63864182108
    ));
#653 = CARTESIAN_POINT('',(2.981402630453,-0.370760201912,
    15.616185690037));
#654 = CARTESIAN_POINT('',(2.963609937219,-0.487908211793,
    15.583429232806));
#655 = CARTESIAN_POINT('',(2.941529020461,-0.598963066045,
    15.541702280302));
#656 = CARTESIAN_POINT('',(2.898917323198,-0.775865725598,
    15.458458207465));
#657 = CARTESIAN_POINT('',(2.879731924309,-0.845796185694,
    15.420272469256));
#658 = CARTESIAN_POINT('',(2.859381548462,-0.912269676686,
    15.378802330703));
#659 = CARTESIAN_POINT('',(2.838209859138,-0.975255981272,
    15.334402107805));
#660 = CARTESIAN_POINT('',(2.8165425244,-1.034747810513,15.287388403833)
  );
#661 = CARTESIAN_POINT('',(2.770012515139,-1.153964715621,
    15.182354406534));
#662 = CARTESIAN_POINT('',(2.745079324373,-1.212782664051,
    15.123655943841));
#663 = CARTESIAN_POINT('',(2.720294074811,-1.267273312003,
    15.062288954729));
#664 = CARTESIAN_POINT('',(2.696038405508,-1.31749248436,14.998534243319
    ));
#665 = CARTESIAN_POINT('',(2.672667067513,-1.363483791935,14.93261503365
    ));
#666 = CARTESIAN_POINT('',(2.629715348543,-1.444495759373,
    14.800957822177));
#667 = CARTESIAN_POINT('',(2.609984856724,-1.48002686774,14.735440763504
    ));
#668 = CARTESIAN_POINT('',(2.591615973941,-1.51184128599,14.668354847211
    ));
#669 = CARTESIAN_POINT('',(2.574883430581,-1.539917690562,
    14.599885109546));
#670 = CARTESIAN_POINT('',(2.560032123796,-1.564231199201,
    14.530196767857));
#671 = CARTESIAN_POINT('',(2.533817606428,-1.606367581526,
    14.384854707375));
#672 = CARTESIAN_POINT('',(2.522685320768,-1.623769514597,
    14.309079826015));
#673 = CARTESIAN_POINT('',(2.514142123452,-1.63686919947,14.23241880312)
  );
#674 = CARTESIAN_POINT('',(2.508377908208,-1.645620087153,
    14.155166023466));
#675 = CARTESIAN_POINT('',(2.505493963274,-1.65,14.077603314221));
#676 = CARTESIAN_POINT('',(2.505493963274,-1.65,13.9220093533));
#677 = CARTESIAN_POINT('',(2.508406761382,-1.645576254631,
    13.844060293047));
#678 = CARTESIAN_POINT('',(2.51422857259,-1.636737963447,13.766425808043
    ));
#679 = CARTESIAN_POINT('',(2.522856084484,-1.623507678398,
    13.689391680519));
#680 = CARTESIAN_POINT('',(2.534095725318,-1.605932752279,13.613256549)
  );
#681 = CARTESIAN_POINT('',(2.560431550167,-1.563577342776,
    13.467924700302));
#682 = CARTESIAN_POINT('',(2.575255241731,-1.539294425974,
    13.398583354403));
#683 = CARTESIAN_POINT('',(2.591938813148,-1.511283762293,
    13.330452490265));
#684 = CARTESIAN_POINT('',(2.610240450734,-1.47956979886,13.263694948759
    ));
#685 = CARTESIAN_POINT('',(2.62988915106,-1.444173418863,13.198493061178
    ));
#686 = CARTESIAN_POINT('',(2.680447962167,-1.348800197568,
    13.043558364927));
#687 = CARTESIAN_POINT('',(2.712506421131,-1.284855401565,
    12.955693453257));
#688 = CARTESIAN_POINT('',(2.74595595599,-1.213230976774,12.871873501699
    ));
#689 = CARTESIAN_POINT('',(2.779917698715,-1.133782973197,
    12.792668874609));
#690 = CARTESIAN_POINT('',(2.813413898055,-1.046349310501,
    12.718861586844));
#691 = CARTESIAN_POINT('',(2.858093645034,-0.91264499979,12.624586929052
    ));
#692 = CARTESIAN_POINT('',(2.870601076665,-0.87317214196,12.598696437027
    ));
#693 = CARTESIAN_POINT('',(2.882782273783,-0.832410682564,
    12.573911950656));
#694 = CARTESIAN_POINT('',(2.894559272962,-0.790372680537,
    12.550315677707));
#695 = CARTESIAN_POINT('',(2.905852500639,-0.747074304166,
    12.527993578004));
#696 = CARTESIAN_POINT('',(2.941526486284,-0.598973586693,
    12.458302670339));
#697 = CARTESIAN_POINT('',(2.963608520608,-0.487918068444,
    12.416573261592));
#698 = CARTESIAN_POINT('',(2.9814029402,-0.370763126115,12.38381372819)
  );
#699 = CARTESIAN_POINT('',(2.993753609081,-0.249171908627,
    12.361356841455));
#700 = CARTESIAN_POINT('',(3.,-0.124962518841,12.35));
#701 = CARTESIAN_POINT('',(3.,-4.440892098501E-16,12.35));
#702 = ORIENTED_EDGE('',*,*,#703,.T.);
#703 = EDGE_CURVE('',#647,#639,#704,.T.);
#704 = B_SPLINE_CURVE_WITH_KNOTS('',6,(#705,#706,#707,#708,#709,#710,
    #711,#712,#713,#714,#715,#716,#717,#718,#719,#720,#721,#722,#723,
    #724,#725,#726,#727,#728,#729,#730,#731,#732,#733,#734,#735,#736,
    #737,#738,#739,#740,#741,#742,#743,#744,#745,#746,#747,#748,#749,
    #750,#751,#752,#753,#754,#755,#756),.UNSPECIFIED.,.F.,.F.,(7,5,5,5,5
    ,5,5,5,5,5,7),(0.,0.123529964846,0.210989629444,0.309691906643,
    0.40232951692,0.499970038739,0.598097902441,0.690309500832,
    0.823287910629,0.876430705455,1.),.UNSPECIFIED.);
#705 = CARTESIAN_POINT('',(3.,-1.010333609297E-16,12.35));
#706 = CARTESIAN_POINT('',(3.,0.124969883364,12.35));
#707 = CARTESIAN_POINT('',(2.993752869131,0.249176590465,12.36135817892)
  );
#708 = CARTESIAN_POINT('',(2.981402630453,0.370760201912,12.383814309963
    ));
#709 = CARTESIAN_POINT('',(2.963609937219,0.487908211793,12.416570767194
    ));
#710 = CARTESIAN_POINT('',(2.941529020461,0.598963066045,12.458297719698
    ));
#711 = CARTESIAN_POINT('',(2.898917323198,0.775865725598,12.541541792535
    ));
#712 = CARTESIAN_POINT('',(2.879731924309,0.845796185694,12.579727530744
    ));
#713 = CARTESIAN_POINT('',(2.859381548462,0.912269676686,12.621197669297
    ));
#714 = CARTESIAN_POINT('',(2.838209859138,0.975255981272,12.665597892195
    ));
#715 = CARTESIAN_POINT('',(2.8165425244,1.034747810513,12.712611596167)
  );
#716 = CARTESIAN_POINT('',(2.770012515139,1.153964715621,12.817645593466
    ));
#717 = CARTESIAN_POINT('',(2.745079324373,1.212782664051,12.876344056159
    ));
#718 = CARTESIAN_POINT('',(2.720294074811,1.267273312003,12.937711045271
    ));
#719 = CARTESIAN_POINT('',(2.696038405508,1.31749248436,13.001465756681)
  );
#720 = CARTESIAN_POINT('',(2.672667067513,1.363483791935,13.06738496635)
  );
#721 = CARTESIAN_POINT('',(2.629715348543,1.444495759373,13.199042177823
    ));
#722 = CARTESIAN_POINT('',(2.609984856724,1.48002686774,13.264559236496)
  );
#723 = CARTESIAN_POINT('',(2.591615973941,1.51184128599,13.331645152789)
  );
#724 = CARTESIAN_POINT('',(2.574883430581,1.539917690562,13.400114890454
    ));
#725 = CARTESIAN_POINT('',(2.560032123796,1.564231199201,13.469803232143
    ));
#726 = CARTESIAN_POINT('',(2.533817606428,1.606367581526,13.615145292625
    ));
#727 = CARTESIAN_POINT('',(2.522685320768,1.623769514597,13.690920173985
    ));
#728 = CARTESIAN_POINT('',(2.514142123452,1.63686919947,13.76758119688)
  );
#729 = CARTESIAN_POINT('',(2.508377908208,1.645620087153,13.844833976534
    ));
#730 = CARTESIAN_POINT('',(2.505493963274,1.65,13.922396685779));
#731 = CARTESIAN_POINT('',(2.505493963274,1.65,14.0779906467));
#732 = CARTESIAN_POINT('',(2.508406761382,1.645576254631,14.155939706953
    ));
#733 = CARTESIAN_POINT('',(2.51422857259,1.636737963447,14.233574191957)
  );
#734 = CARTESIAN_POINT('',(2.522856084484,1.623507678398,14.310608319481
    ));
#735 = CARTESIAN_POINT('',(2.534095725318,1.605932752279,14.386743451));
#736 = CARTESIAN_POINT('',(2.560431550167,1.563577342776,14.532075299698
    ));
#737 = CARTESIAN_POINT('',(2.575255241731,1.539294425974,14.601416645597
    ));
#738 = CARTESIAN_POINT('',(2.591938813148,1.511283762293,14.669547509735
    ));
#739 = CARTESIAN_POINT('',(2.610240450734,1.47956979886,14.736305051241)
  );
#740 = CARTESIAN_POINT('',(2.62988915106,1.444173418863,14.801506938822)
  );
#741 = CARTESIAN_POINT('',(2.680447962167,1.348800197568,14.956441635073
    ));
#742 = CARTESIAN_POINT('',(2.712506421132,1.284855401565,15.044306546743
    ));
#743 = CARTESIAN_POINT('',(2.74595595599,1.213230976774,15.128126498302)
  );
#744 = CARTESIAN_POINT('',(2.779917698715,1.133782973197,15.207331125391
    ));
#745 = CARTESIAN_POINT('',(2.813413898055,1.046349310501,15.281138413156
    ));
#746 = CARTESIAN_POINT('',(2.858093646454,0.912644995539,15.375413073945
    ));
#747 = CARTESIAN_POINT('',(2.870601076439,0.873172143348,15.401303562595
    ));
#748 = CARTESIAN_POINT('',(2.882782272523,0.832410686987,15.426088046777
    ));
#749 = CARTESIAN_POINT('',(2.894559272553,0.790372681369,15.449684321379
    ));
#750 = CARTESIAN_POINT('',(2.90585250183,0.747074299221,15.472006424323)
  );
#751 = CARTESIAN_POINT('',(2.941526486206,0.598973587019,15.541697329507
    ));
#752 = CARTESIAN_POINT('',(2.963608520658,0.487918068361,15.583426738513
    ));
#753 = CARTESIAN_POINT('',(2.981402940245,0.370763125775,15.616186271885
    ));
#754 = CARTESIAN_POINT('',(2.993753609046,0.249171908541,15.638643158483
    ));
#755 = CARTESIAN_POINT('',(3.,0.124962519184,15.65));
#756 = CARTESIAN_POINT('',(3.,2.020667218593E-16,15.65));
#757 = ORIENTED_EDGE('',*,*,#638,.T.);
#758 = ORIENTED_EDGE('',*,*,#572,.F.);
#759 = CYLINDRICAL_SURFACE('',#760,1.65);
#760 = AXIS2_PLACEMENT_3D('',#761,#762,#763);
#761 = CARTESIAN_POINT('',(0.,0.,14.));
#762 = DIRECTION('',(1.,0.,0.));
#763 = DIRECTION('',(0.,0.,1.));
#764 = ADVANCED_FACE('',(#765),#784,.T.);
#765 = FACE_BOUND('',#766,.T.);
#766 = EDGE_LOOP('',(#767,#775,#776,#777));
#767 = ORIENTED_EDGE('',*,*,#768,.F.);
#768 = EDGE_CURVE('',#557,#769,#771,.T.);
#769 = VERTEX_POINT('',#770);
#770 = CARTESIAN_POINT('',(5.45,0.,18.));
#771 = LINE('',#772,#773);
#772 = CARTESIAN_POINT('',(5.75,0.,17.7));
#773 = VECTOR('',#774,1.);
#774 = DIRECTION('',(-0.707106781187,0.,0.707106781187));
#775 = ORIENTED_EDGE('',*,*,#564,.T.);
#776 = ORIENTED_EDGE('',*,*,#768,.T.);
#777 = ORIENTED_EDGE('',*,*,#778,.F.);
#778 = EDGE_CURVE('',#769,#769,#779,.T.);
#779 = CIRCLE('',#780,5.45);
#780 = AXIS2_PLACEMENT_3D('',#781,#782,#783);
#781 = CARTESIAN_POINT('',(0.,0.,18.));
#782 = DIRECTION('',(0.,0.,1.));
#783 = DIRECTION('',(1.,0.,0.));
#784 = CONICAL_SURFACE('',#785,5.75,0.785398163397);
#785 = AXIS2_PLACEMENT_3D('',#786,#787,#788);
#786 = CARTESIAN_POINT('',(0.,0.,17.7));
#787 = DIRECTION('',(-0.,-0.,-1.));
#788 = DIRECTION('',(1.,0.,0.));
#789 = ADVANCED_FACE('',(#790),#818,.F.);
#790 = FACE_BOUND('',#791,.F.);
#791 = EDGE_LOOP('',(#792,#800,#807,#808,#809,#815,#816,#817));
#792 = ORIENTED_EDGE('',*,*,#793,.T.);
#793 = EDGE_CURVE('',#639,#794,#796,.T.);
#794 = VERTEX_POINT('',#795);
#795 = CARTESIAN_POINT('',(3.,-7.347880794884E-16,18.));
#796 = LINE('',#797,#798);
#797 = CARTESIAN_POINT('',(3.,-7.347880794884E-16,7.));
#798 = VECTOR('',#799,1.);
#799 = DIRECTION('',(0.,0.,1.));
#800 = ORIENTED_EDGE('',*,*,#801,.F.);
#801 = EDGE_CURVE('',#794,#794,#802,.T.);
#802 = CIRCLE('',#803,3.);
#803 = AXIS2_PLACEMENT_3D('',#804,#805,#806);
#804 = CARTESIAN_POINT('',(0.,0.,18.));
#805 = DIRECTION('',(0.,0.,1.));
#806 = DIRECTION('',(1.,0.,0.));
#807 = ORIENTED_EDGE('',*,*,#793,.F.);
#808 = ORIENTED_EDGE('',*,*,#703,.F.);
#809 = ORIENTED_EDGE('',*,*,#810,.F.);
#810 = EDGE_CURVE('',#618,#647,#811,.T.);
#811 = LINE('',#812,#813);
#812 = CARTESIAN_POINT('',(3.,-7.347880794884E-16,7.));
#813 = VECTOR('',#814,1.);
#814 = DIRECTION('',(0.,0.,1.));
#815 = ORIENTED_EDGE('',*,*,#617,.T.);
#816 = ORIENTED_EDGE('',*,*,#810,.T.);
#817 = ORIENTED_EDGE('',*,*,#646,.F.);
#818 = CYLINDRICAL_SURFACE('',#819,3.);
#819 = AXIS2_PLACEMENT_3D('',#820,#821,#822);
#820 = CARTESIAN_POINT('',(0.,0.,7.));
#821 = DIRECTION('',(0.,0.,1.));
#822 = DIRECTION('',(1.,0.,0.));
#823 = ADVANCED_FACE('',(#824,#827),#830,.T.);
#824 = FACE_BOUND('',#825,.T.);
#825 = EDGE_LOOP('',(#826));
#826 = ORIENTED_EDGE('',*,*,#778,.T.);
#827 = FACE_BOUND('',#828,.T.);
#828 = EDGE_LOOP('',(#829));
#829 = ORIENTED_EDGE('',*,*,#801,.F.);
#830 = PLANE('',#831);
#831 = AXIS2_PLACEMENT_3D('',#832,#833,#834);
#832 = CARTESIAN_POINT('',(0.,0.,18.));
#833 = DIRECTION('',(0.,0.,1.));
#834 = DIRECTION('',(1.,0.,0.));
#835 = ( GEOMETRIC_REPRESENTATION_CONTEXT(3) 
GLOBAL_UNCERTAINTY_ASSIGNED_CONTEXT((#839)) GLOBAL_UNIT_ASSIGNED_CONTEXT
((#836,#837,#838)) REPRESENTATION_CONTEXT('Context #1',
  '3D Context with UNIT and UNCERTAINTY') );
#836 = ( LENGTH_UNIT() NAMED_UNIT(*) SI_UNIT(.MILLI.,.METRE.) );
#837 = ( NAMED_UNIT(*) PLANE_ANGLE_UNIT() SI_UNIT($,.RADIAN.) );
#838 = ( NAMED_UNIT(*) SI_UNIT($,.STERADIAN.) SOLID_ANGLE_UNIT() );
#839 = UNCERTAINTY_MEASURE_WITH_UNIT(LENGTH_MEASURE(1.E-07),#836,
  'distance_accuracy_value','confusion accuracy');
#840 = PRODUCT_RELATED_PRODUCT_CATEGORY('part',$,(#7));
ENDSEC;
END-ISO-10303-21;
