DBRep_DrawableShape

CASCADE Topology V1, (c) Matra-Datavision
Locations 6
1
              1               0               0               0 
              0               1               0               0 
              0               0               1               0 
1
              1               0               0               0 
              0               1               0               0 
              0               0               1               0 
2  2 -1 0
1
              1               0               0            25.4 
              0               1               0               0 
              0               0               1            25.4 
2  2 1 4 -1 0
2  4 -1 0
Curve2ds 52
1 0 0 1 0 
1 0 0 1 0 
1 2133.5999999999999 0 0 -1 
1 0 0 0 1 
1 0 -609.60000000000002 1 0 
1 0 0 1 0 
1 0 0 0 -1 
1 0 0 0 1 
1 0 0 0 1 
1 0 0 1 0 
1 0 0 1 0 
1 0 1219.2 1 0 
1 2133.5999999999999 0 0 1 
1 0 0 1 0 
1 0 0 1 0 
1 0 1168.4000000000001 1 0 
1 25.399999999999999 1193.8000000000002 1 0 
1 0 0 0 1 
1 0 0 1 0 
1 25.399999999999999 25.399999999999999 0 1 
1 0 0 1 0 
1 0 0 1 0 
1 25.399999999999999 25.399999999999999 1 0 
1 2082.8000000000002 0 0 1 
1 0 0 1 0 
1 2108.2000000000003 25.399999999999999 0 1 
1 2133.5999999999999 0 0 1 
1 0 609.60000000000002 1 0 
1 2133.5999999999999 0 0 -1 
1 1219.2 0 0 1 
1 0 0 0 1 
1 0 609.60000000000002 1 0 
1 0 -609.60000000000002 1 0 
1 0 1219.2 1 0 
1 0 0 0 -1 
1 1219.2 0 0 1 
1 2082.8000000000002 0 0 -1 
1 1168.4000000000001 0 0 1 
1 0 0 0 -1 
1 1168.4000000000001 0 0 1 
1 0 -25.399999999999999 1 0 
1 0 1168.4000000000001 1 0 
1 0 0 0 -1 
1 0 0 0 1 
1 0 0 0 1 
1 0 25.399999999999999 1 0 
1 2082.8000000000002 0 0 -1 
1 0 0 0 1 
1 0 -25.399999999999999 1 0 
1 0 0 1 0 
1 2082.8000000000002 0 0 1 
1 0 25.399999999999999 1 0 
Curves 24
1 0 0 0 0 0 1 
1 0 0 2133.5999999999999 -0 1 0 
1 0 609.60000000000002 0 0 0 1 
1 0 0 0 -0 1 0 
1 0 0 0 1 0 -0 
1 1219.2 0 0 0 0 1 
1 0 0 2133.5999999999999 1 0 -0 
1 1168.4000000000001 0 0 0 0 1 
1 0 0 0 1 0 -0 
1 0 0 0 0 0 1 
1 0 0 2082.8000000000002 1 0 -0 
1 0 609.60000000000002 2133.5999999999999 1 0 -0 
1 1219.2 0 2133.5999999999999 0 1 0 
1 0 609.60000000000002 0 1 0 -0 
1 1219.2 609.60000000000002 0 0 0 1 
1 1219.2 0 0 -0 1 0 
1 1168.4000000000001 0 2082.8000000000002 0 1 0 
1 1168.4000000000001 0 0 -0 1 0 
1 1168.4000000000001 25.399999999999999 0 0 0 1 
1 0 0 0 -0 1 0 
1 0 25.399999999999999 0 1 0 -0 
1 0 0 2082.8000000000002 -0 1 0 
1 0 25.399999999999999 0 0 0 1 
1 0 25.399999999999999 2082.8000000000002 1 0 -0 
Polygon3D 0
PolygonOnTriangulations 72
2 1 4 
p 6.604 1 0 2133.6 
2 1 2 
p 6.604 1 0 2133.6 
2 1 4 
p 6.604 1 0 2133.6 
2 2 3 
p 6.604 1 0 609.6 
2 1 2 
p 6.604 1 0 609.6 
2 4 3 
p 6.604 1 0 2133.6 
2 1 4 
p 6.604 1 0 2133.6 
2 1 4 
p 6.604 1 0 609.6 
2 1 2 
p 6.604 1 0 609.6 
2 1 2 
p 6.604 1 0 1219.2 
2 1 2 
p 6.604 1 0 1219.2 
2 1 4 
p 6.604 1 0 1219.2 
2 2 3 
p 6.604 1 0 2133.6 
2 2 3 
p 6.604 1 0 2133.6 
2 1 2 
p 6.604 1 0 2133.6 
2 4 3 
p 6.604 1 0 1219.2 
2 4 3 
p 6.604 1 0 1219.2 
2 1 4 
p 6.604 1 0 1219.2 
2 1 2 
p 5.461 1 0 2082.8 
2 2 3 
p 5.461 1 0 2082.8 
2 5 6 
p 6.604 1 0 2082.8 
2 1 2 
p 6.604 1 0 2082.8 
2 1 2 
p 5.461 1 0 1168.4 
2 1 4 
p 5.461 1 0 1168.4 
2 7 5 
p 6.604 1 0 1168.4 
2 1 4 
p 6.604 1 0 1168.4 
2 1 2 
p 5.461 1 0 2082.8 
2 1 4 
p 5.461 1 0 2082.8 
2 7 8 
p 6.604 1 0 2082.8 
2 1 2 
p 6.604 1 0 2082.8 
2 4 3 
p 5.461 1 0 1168.4 
2 1 4 
p 5.461 1 0 1168.4 
2 8 6 
p 6.604 1 0 1168.4 
2 1 4 
p 6.604 1 0 1168.4 
2 2 3 
p 6.604 1 0 1219.2 
2 4 3 
p 6.604 1 0 1219.2 
2 4 3 
p 6.604 1 0 609.6 
2 2 3 
p 6.604 1 0 609.6 
2 1 2 
p 6.604 1 0 1219.2 
2 2 3 
p 6.604 1 0 1219.2 
2 2 3 
p 6.604 1 0 2133.6 
2 4 3 
p 6.604 1 0 2133.6 
2 4 3 
p 6.604 1 0 609.6 
2 1 4 
p 6.604 1 0 609.6 
2 2 3 
p 5.461 1 0 25.4 
2 4 3 
p 5.461 1 0 25.4 
2 2 3 
p 6.604 1 0 25.4 
2 4 3 
p 6.604 1 0 25.4 
2 1 4 
p 5.461 1 0 25.4 
2 4 3 
p 5.461 1 0 25.4 
2 1 4 
p 6.604 1 0 25.4 
2 4 3 
p 6.604 1 0 25.4 
2 4 3 
p 5.461 1 0 2082.8 
2 4 3 
p 6.604 1 0 2082.8 
2 2 3 
p 6.604 1 0 2082.8 
2 1 4 
p 5.461 1 0 25.4 
2 1 2 
p 5.461 1 0 25.4 
2 1 2 
p 6.604 1 0 25.4 
2 1 4 
p 6.604 1 0 25.4 
2 2 3 
p 5.461 1 0 1168.4 
2 2 3 
p 6.604 1 0 1168.4 
2 1 2 
p 6.604 1 0 1168.4 
2 2 3 
p 5.461 1 0 25.4 
2 1 2 
p 5.461 1 0 25.4 
2 2 3 
p 6.604 1 0 25.4 
2 1 2 
p 6.604 1 0 25.4 
2 4 3 
p 5.461 1 0 2082.8 
2 4 3 
p 6.604 1 0 2082.8 
2 1 4 
p 6.604 1 0 2082.8 
2 2 3 
p 5.461 1 0 1168.4 
2 2 3 
p 6.604 1 0 1168.4 
2 4 3 
p 6.604 1 0 1168.4 
Surfaces 12
1 0 0 0 1 0 -0 0 0 1 0 -1 0 
1 0 0 0 -0 1 0 0 0 1 1 0 -0 
1 0 0 2133.5999999999999 0 0 1 1 0 -0 -0 1 0 
1 0 609.60000000000002 0 -0 1 0 0 0 1 1 0 -0 
1 0 0 0 0 0 1 1 0 -0 -0 1 0 
1 1219.2 0 0 1 0 -0 0 0 1 0 -1 0 
1 1168.4000000000001 0 0 1 0 -0 0 0 1 0 -1 0 
1 0 0 0 -0 1 0 0 0 1 1 0 -0 
1 0 0 0 0 0 1 1 0 -0 -0 1 0 
1 0 0 0 1 0 -0 0 0 1 0 -1 0 
1 0 0 2082.8000000000002 0 0 1 1 0 -0 -0 1 0 
1 0 25.399999999999999 0 -0 1 0 0 0 1 1 0 -0 
Triangulations 17
4 2 1 0
0 0 0 0 0 2133.6 0 609.6 2133.6 0 609.6 0 0 0 2133.6 0 2133.6 -609.6 0 -609.6 2 4 3 2 1 4 
4 2 1 0
0 0 0 1219.2 0 0 1219.2 0 2133.6 0 0 2133.6 0 0 0 1219.2 2133.6 1219.2 2133.6 0 4 2 1 3 2 4 
8 8 1 1.13686837721616e-13
0 0 0 1219.2 0 0 1219.2 0 2133.6 0 0 2133.6 1193.8 0 25.4 1193.8 0 2108.2 25.4 0 25.4 25.4 0 2108.2 0 0 0 1219.2 2133.6 1219.2 2133.6 0 25.4 1193.8 2108.2 1193.8 25.4 25.4 2108.2 25.4 2 1 7 5 2 7 4 7 1 8 7 4 3 6 8 3 8 4 3 2 5 3 5 6 
4 2 1 0
0 0 2133.6 0 609.6 2133.6 1219.2 609.6 2133.6 1219.2 0 2133.6 0 0 0 609.6 1219.2 609.6 1219.2 0 3 2 1 3 1 4 
4 2 1 0
0 609.6 0 1219.2 609.6 0 1219.2 609.6 2133.6 0 609.6 2133.6 0 0 0 1219.2 2133.6 1219.2 2133.6 0 4 2 1 3 2 4 
4 2 1 0
0 0 0 0 609.6 0 1219.2 609.6 0 1219.2 0 0 0 0 0 609.6 1219.2 609.6 1219.2 0 3 2 1 3 1 4 
4 2 1 0
1219.2 0 0 1219.2 0 2133.6 1219.2 609.6 2133.6 1219.2 609.6 0 0 0 2133.6 0 2133.6 -609.6 0 -609.6 2 4 3 2 1 4 
4 2 1 0
1168.4 0 0 1168.4 0 2082.8 1168.4 25.4 2082.8 1168.4 25.4 0 0 0 2082.8 0 2082.8 -25.4 0 -25.4 2 4 3 2 1 4 
4 2 1 5.6843418860808e-14
0 0 0 1168.4 0 0 1168.4 0 2082.8 0 0 2082.8 0 0 0 1168.4 2082.8 1168.4 2082.8 0 3 2 1 3 1 4 
4 2 1 0
1193.8 0 25.4 1193.8 0 2108.2 1193.8 25.4 2108.2 1193.8 25.4 25.4 0 0 2082.8 0 2082.8 -25.4 0 -25.4 2 1 4 2 4 3 
4 2 1 1.77635683940025e-15
0 0 0 0 25.4 0 1168.4 25.4 0 1168.4 0 0 0 0 0 25.4 1168.4 25.4 1168.4 0 3 2 1 3 1 4 
4 2 1 1.77635683940025e-15
25.4 0 25.4 25.4 25.4 25.4 1193.8 25.4 25.4 1193.8 0 25.4 0 0 0 25.4 1168.4 25.4 1168.4 0 3 2 1 3 1 4 
4 2 1 0
0 0 0 0 0 2082.8 0 25.4 2082.8 0 25.4 0 0 0 2082.8 0 2082.8 -25.4 0 -25.4 2 4 3 2 1 4 
4 2 1 0
25.4 0 25.4 25.4 0 2108.2 25.4 25.4 2108.2 25.4 25.4 25.4 0 0 2082.8 0 2082.8 -25.4 0 -25.4 2 1 4 2 4 3 
4 2 1 1.77635683940025e-15
0 0 2082.8 0 25.4 2082.8 1168.4 25.4 2082.8 1168.4 0 2082.8 0 0 0 25.4 1168.4 25.4 1168.4 0 3 2 1 3 1 4 
4 2 1 1.77635683940025e-15
25.4 0 2108.2 25.4 25.4 2108.2 1193.8 25.4 2108.2 1193.8 0 2108.2 0 0 0 25.4 1168.4 25.4 1168.4 0 3 2 1 3 1 4 
4 2 1 5.6843418860808e-14
0 25.4 0 1168.4 25.4 0 1168.4 25.4 2082.8 0 25.4 2082.8 0 0 0 1168.4 2082.8 1168.4 2082.8 0 3 2 1 3 1 4 

TShapes 67
Ve
1e-07
0 0 2133.6
0 0

0101101
*
Ve
1e-07
0 0 0
0 0

0101101
*
Ed
 1e-07 1 1 0
1  1 0 0 2133.6
2  1 1 0 0 2133.6
2  2 2 0 0 2133.6
6  1 2 0
6  2 1 0
6  3 3 3
0

0101000
-67 0 +66 0 *
Ve
1e-07
0 609.6 2133.6
0 0

0101101
*
Ed
 1e-07 1 1 0
1  2 0 0 609.6
2  3 1 0 0 609.6
2  4 3 0 0 609.6
6  4 1 0
6  5 4 0
0

0101000
-64 0 +67 0 *
Ve
1e-07
0 609.6 0
0 0

0101101
*
Ed
 1e-07 1 1 0
1  3 0 0 2133.6
2  5 1 0 0 2133.6
2  6 4 0 0 2133.6
6  6 1 0
6  7 5 0
0

0101000
-64 0 +62 0 *
Ed
 1e-07 1 1 0
1  4 0 0 609.6
2  7 1 0 0 609.6
2  8 5 0 0 609.6
6  8 1 0
6  9 6 0
0

0101000
-62 0 +66 0 *
Wi

0101000
-65 0 -63 0 +61 0 +60 0 *
Fa
0  1e-07 1 0
2  1
0101000
+59 0 *
Ve
1e-07
1219.2 0 0
0 0

0101101
*
Ed
 1e-07 1 1 0
1  5 0 0 1219.2
2  9 2 0 0 1219.2
2  10 5 0 0 1219.2
6  10 2 0
6  11 3 3
6  12 6 0
0

0101000
-57 0 +66 0 *
Ve
1e-07
1219.2 0 2133.6
0 0

0101101
*
Ed
 1e-07 1 1 0
1  6 0 0 2133.6
2  11 6 0 0 2133.6
2  12 2 0 0 2133.6
6  13 2 0
6  14 3 3
6  15 7 0
0

0101000
-55 0 +57 0 *
Ed
 1e-07 1 1 0
1  7 0 0 1219.2
2  13 2 0 0 1219.2
2  14 3 0 0 1219.2
6  16 2 0
6  17 3 3
6  18 4 0
0

0101000
-55 0 +67 0 *
Wi

0101000
-56 2 -54 2 +65 2 +53 2 *
Ve
1e-07
1168.4 0 2082.8
0 0

0101101
*
Ve
1e-07
1168.4 0 0
0 0

0101101
*
Ed
 1e-07 1 1 0
1  8 0 0 2082.8
2  15 7 0 0 2082.8
2  16 8 0 0 2082.8
6  19 8 0
6  20 9 0
2  17 2 5 0 2082.8
6  21 3 6
6  22 10 6
0

0101000
-51 0 +50 0 *
Ve
1e-07
0 0 0
0 0

0101101
*
Ed
 1e-07 1 1 0
1  9 0 0 1168.4
2  18 8 0 0 1168.4
2  19 9 0 0 1168.4
6  23 9 0
6  24 11 0
2  20 2 5 0 1168.4
6  25 3 6
6  26 12 6
0

0101000
-50 0 +48 0 *
Ve
1e-07
0 0 2082.8
0 0

0101101
*
Ed
 1e-07 1 1 0
1  10 0 0 2082.8
2  21 10 0 0 2082.8
2  22 8 0 0 2082.8
6  27 13 0
6  28 9 0
2  23 2 5 0 2082.8
6  29 3 6
6  30 14 6
0

0101000
-46 0 +48 0 *
Ed
 1e-07 1 1 0
1  11 0 0 1168.4
2  24 8 0 0 1168.4
2  25 11 0 0 1168.4
6  31 9 0
6  32 15 0
2  26 2 5 0 1168.4
6  33 3 6
6  34 16 6
0

0101000
-51 0 +46 0 *
Wi

0101000
+49 4 +47 4 -45 4 -44 4 *
Fa
0  1e-07 2 2
2  3
0101000
+52 0 +43 0 *
Ve
1e-07
1219.2 609.6 2133.6
0 0

0101101
*
Ed
 1e-07 1 1 0
1  12 0 0 1219.2
2  27 4 0 0 1219.2
2  28 3 0 0 1219.2
6  35 4 0
6  36 5 0
0

0101000
-41 0 +64 0 *
Ed
 1e-07 1 1 0
1  13 0 0 609.6
2  29 6 0 0 609.6
2  30 3 0 0 609.6
6  37 4 0
6  38 7 0
0

0101000
-41 0 +55 0 *
Wi

0101000
-63 0 -40 0 +39 0 +53 0 *
Fa
0  1e-07 3 0
2  4
0101000
+38 0 *
Ve
1e-07
1219.2 609.6 0
0 0

0101101
*
Ed
 1e-07 1 1 0
1  14 0 0 1219.2
2  31 4 0 0 1219.2
2  32 5 0 0 1219.2
6  39 5 0
6  40 6 0
0

0101000
-36 0 +62 0 *
Ed
 1e-07 1 1 0
1  15 0 0 2133.6
2  33 6 0 0 2133.6
2  34 4 0 0 2133.6
6  41 5 0
6  42 7 0
0

0101000
-41 0 +36 0 *
Wi

0101000
-35 0 -34 0 +40 0 +61 0 *
Fa
0  1e-07 4 0
2  5
0101000
+33 0 *
Ed
 1e-07 1 1 0
1  16 0 0 609.6
2  35 6 0 0 609.6
2  36 5 0 0 609.6
6  43 6 0
6  44 7 0
0

0101000
-36 0 +57 0 *
Wi

0101000
-60 0 -35 0 +31 0 +56 0 *
Fa
0  1e-07 5 0
2  6
0101000
+30 0 *
Wi

0101000
-54 0 -39 0 +34 0 +31 0 *
Fa
0  1e-07 6 0
2  7
0101000
+28 0 *
Ve
1e-07
1168.4 25.4 2082.8
0 0

0101101
*
Ed
 1e-07 1 1 0
1  17 0 0 25.4
2  37 7 0 0 25.4
2  38 11 0 0 25.4
6  45 8 0
6  46 15 0
6  47 10 6
6  48 16 6
0

0101000
-26 0 +51 0 *
Ve
1e-07
1168.4 25.4 0
0 0

0101101
*
Ed
 1e-07 1 1 0
1  18 0 0 25.4
2  39 7 0 0 25.4
2  40 9 0 0 25.4
6  49 8 0
6  50 11 0
6  51 10 6
6  52 12 6
0

0101000
-24 0 +50 0 *
Ed
 1e-07 1 1 0
1  19 0 0 2082.8
2  41 7 0 0 2082.8
2  42 12 0 0 2082.8
6  53 8 0
6  54 10 6
6  55 17 0
0

0101000
-26 0 +24 0 *
Wi

0101000
-49 4 -25 4 +23 4 +22 4 *
Fa
0  1e-07 7 4
2  10
0101000
+21 0 *
Ve
1e-07
0 25.4 0
0 0

0101101
*
Ed
 1e-07 1 1 0
1  20 0 0 25.4
2  43 10 0 0 25.4
2  44 9 0 0 25.4
6  56 13 0
6  57 11 0
6  58 12 6
6  59 14 6
0

0101000
-19 0 +48 0 *
Ed
 1e-07 1 1 0
1  21 0 0 1168.4
2  45 12 0 0 1168.4
2  46 9 0 0 1168.4
6  60 11 0
6  61 12 6
6  62 17 0
0

0101000
-24 0 +19 0 *
Wi

0101000
-18 4 -17 4 +47 4 +23 4 *
Fa
0  1e-07 9 4
2  12
0101000
+16 0 *
Ve
1e-07
0 25.4 2082.8
0 0

0101101
*
Ed
 1e-07 1 1 0
1  22 0 0 25.4
2  47 10 0 0 25.4
2  48 11 0 0 25.4
6  63 13 0
6  64 15 0
6  65 14 6
6  66 16 6
0

0101000
-14 0 +46 0 *
Ed
 1e-07 1 1 0
1  23 0 0 2082.8
2  49 10 0 0 2082.8
2  50 12 0 0 2082.8
6  67 13 0
6  68 14 6
6  69 17 0
0

0101000
-14 0 +19 0 *
Wi

0101000
-45 4 -13 4 +18 4 +12 4 *
Fa
0  1e-07 10 4
2  14
0101000
+11 0 *
Ed
 1e-07 1 1 0
1  24 0 0 1168.4
2  51 12 0 0 1168.4
2  52 11 0 0 1168.4
6  70 15 0
6  71 16 6
6  72 17 0
0

0101000
-26 0 +14 0 *
Wi

0101000
-13 4 -9 4 +44 4 +25 4 *
Fa
0  1e-07 11 4
2  16
0101000
+8 0 *
Wi

0101000
-17 0 -22 0 +9 0 +12 0 *
Fa
0  1e-07 12 0
2  17
0101000
+6 0 *
Sh

0101100
-58 2 -42 0 +37 2 +32 2 -29 2 +27 2 -20 0 +15 0 +10 0 -7 0 
-5 4 *
So

0100000
+4 0 *
Co

0100000
+3 0 *
Co

1100000
+2 1 *

+1 0 