DBRep_DrawableShape

CASCADE Topology V1, (c) Matra-Datavision
Locations 33
1
              1               0               0               0 
              0               1               0               0 
              0               0               1               0 
1
              1               0               0               0 
              0               1               0               0 
              0               0               1               0 
1
              1               0               0               0 
              0               1               0               0 
              0               0               1               0 
1
              1               0               0               0 
              0               1               0               0 
              0               0               1               0 
1
              1               0               0               0 
              0               1               0               0 
              0               0               1               0 
2  2 1 3 1 4 1 5 1 0
2  2 -1 0
2  3 -1 2 -1 0
2  4 -1 3 -1 2 -1 0
2  5 -1 4 -1 3 -1 2 -1 0
1
              1               0               0            25.4 
              0               1               0               0 
              0               0               1            1651 
2  2 1 3 1 4 1 5 1 11 -1 0
2  11 -1 0
1
              1               0               0            25.4 
              0               1               0               0 
              0               0               1          1168.4 
2  14 1 3 1 4 1 5 1 0
2  2 1 14 -1 0
2  14 -1 0
2  3 -1 14 -1 0
2  4 -1 3 -1 14 -1 0
2  5 -1 4 -1 3 -1 14 -1 0
1
              1               0               0            25.4 
              0               1               0               0 
              0               0               1           203.2 
2  21 1 4 1 5 1 0
2  2 1 3 1 21 -1 0
2  21 -1 0
2  4 -1 21 -1 0
2  5 -1 4 -1 21 -1 0
1
              1               0               0            25.4 
              0               1               0               0 
              0               0               1           685.8 
2  27 1 5 1 0
2  2 1 3 1 4 1 27 -1 0
2  27 -1 0
2  5 -1 27 -1 0
2  3 1 4 1 5 1 0
2  4 1 5 1 0
Curve2ds 136
1 0 0 1 0 
1 0 0 1 0 
1 2133.5999999999999 0 0 -1 
1 0 0 0 1 
1 0 -609.60000000000002 1 0 
1 0 0 1 0 
1 0 0 0 -1 
1 0 0 0 1 
1 0 0 0 1 
1 0 0 1 0 
1 0 0 1 0 
1 0 1219.2 1 0 
1 2133.5999999999999 0 0 1 
1 0 0 1 0 
1 0 0 1 0 
1 0 1168.4000000000001 1 0 
1 1651 1193.8000000000002 1 0 
1 0 0 0 1 
1 0 0 1 0 
1 1651 25.399999999999999 0 1 
1 0 0 1 0 
1 0 0 1 0 
1 1651 25.399999999999999 1 0 
1 457.19999999999999 0 0 1 
1 0 0 1 0 
1 2108.1999999999998 25.399999999999999 0 1 
1 0 0 1 0 
1 0 1168.4000000000001 1 0 
1 1168.4000000000001 1193.8000000000002 1 0 
1 457.19999999999999 0 0 1 
1 0 0 1 0 
1 1625.6000000000001 25.399999999999999 0 1 
1 0 0 0 1 
1 0 0 1 0 
1 1168.4000000000001 25.399999999999999 0 1 
1 0 0 1 0 
1 0 0 1 0 
1 1168.4000000000001 25.399999999999999 1 0 
1 0 0 0 1 
1 0 0 1 0 
1 203.19999999999999 25.399999999999999 0 1 
1 0 0 1 0 
1 0 1168.4000000000001 1 0 
1 203.19999999999999 1193.8000000000002 1 0 
1 0 0 1 0 
1 0 0 1 0 
1 203.19999999999999 25.399999999999999 1 0 
1 457.19999999999999 0 0 1 
1 0 0 1 0 
1 660.39999999999998 25.399999999999999 0 1 
1 0 0 1 0 
1 0 1168.4000000000001 1 0 
1 685.79999999999995 1193.8000000000002 1 0 
1 457.19999999999999 0 0 1 
1 0 0 1 0 
1 1143 25.399999999999999 0 1 
1 0 0 0 1 
1 0 0 1 0 
1 685.79999999999995 25.399999999999999 0 1 
1 0 0 1 0 
1 0 0 1 0 
1 685.79999999999995 25.399999999999999 1 0 
1 2133.5999999999999 0 0 1 
1 0 609.60000000000002 1 0 
1 2133.5999999999999 0 0 -1 
1 1219.2 0 0 1 
1 0 0 0 1 
1 0 609.60000000000002 1 0 
1 0 -609.60000000000002 1 0 
1 0 1219.2 1 0 
1 0 0 0 -1 
1 1219.2 0 0 1 
1 457.19999999999999 0 0 -1 
1 1168.4000000000001 0 0 1 
1 0 0 0 -1 
1 1168.4000000000001 0 0 1 
1 0 -558.79999999999995 1 0 
1 0 1168.4000000000001 1 0 
1 0 0 0 -1 
1 0 0 0 1 
1 0 0 0 1 
1 0 558.79999999999995 1 0 
1 457.19999999999999 0 0 -1 
1 0 0 0 1 
1 0 -558.79999999999995 1 0 
1 0 0 1 0 
1 457.19999999999999 0 0 1 
1 0 558.79999999999995 1 0 
1 457.19999999999999 0 0 -1 
1 1168.4000000000001 0 0 1 
1 0 0 0 -1 
1 1168.4000000000001 0 0 1 
1 0 -558.79999999999995 1 0 
1 0 1168.4000000000001 1 0 
1 457.19999999999999 0 0 -1 
1 0 0 0 1 
1 457.19999999999999 0 0 1 
1 0 558.79999999999995 1 0 
1 0 0 0 -1 
1 0 0 0 1 
1 0 0 0 1 
1 0 558.79999999999995 1 0 
1 0 -558.79999999999995 1 0 
1 0 0 1 0 
1 0 0 0 -1 
1 0 0 0 1 
1 0 0 0 1 
1 0 558.79999999999995 1 0 
1 0 0 0 -1 
1 1168.4000000000001 0 0 1 
1 457.19999999999999 0 0 -1 
1 1168.4000000000001 0 0 1 
1 0 -558.79999999999995 1 0 
1 0 1168.4000000000001 1 0 
1 457.19999999999999 0 0 -1 
1 0 0 0 1 
1 0 -558.79999999999995 1 0 
1 0 0 1 0 
1 457.19999999999999 0 0 1 
1 0 558.79999999999995 1 0 
1 457.19999999999999 0 0 -1 
1 1168.4000000000001 0 0 1 
1 0 0 0 -1 
1 1168.4000000000001 0 0 1 
1 0 -558.79999999999995 1 0 
1 0 1168.4000000000001 1 0 
1 457.19999999999999 0 0 -1 
1 0 0 0 1 
1 457.19999999999999 0 0 1 
1 0 558.79999999999995 1 0 
1 0 0 0 -1 
1 0 0 0 1 
1 0 0 0 1 
1 0 558.79999999999995 1 0 
1 0 -558.79999999999995 1 0 
1 0 0 1 0 
Curves 60
1 0 0 0 0 0 1 
1 0 0 2133.5999999999999 -0 1 0 
1 0 609.60000000000002 0 0 0 1 
1 0 0 0 -0 1 0 
1 0 0 0 1 0 -0 
1 1219.2 0 0 0 0 1 
1 0 0 2133.5999999999999 1 0 -0 
1 1168.4000000000001 0 0 0 0 1 
1 0 0 0 1 0 -0 
1 0 0 0 0 0 1 
1 0 0 457.19999999999999 1 0 -0 
1 1168.4000000000001 0 0 0 0 1 
1 0 0 457.19999999999999 1 0 -0 
1 0 0 0 1 0 -0 
1 0 0 0 0 0 1 
1 0 0 0 1 0 -0 
1 1168.4000000000001 0 0 0 0 1 
1 0 0 0 0 0 1 
1 0 0 457.19999999999999 1 0 -0 
1 1168.4000000000001 0 0 0 0 1 
1 0 0 457.19999999999999 1 0 -0 
1 0 0 0 1 0 -0 
1 0 0 0 0 0 1 
1 0 609.60000000000002 2133.5999999999999 1 0 -0 
1 1219.2 0 2133.5999999999999 0 1 0 
1 0 609.60000000000002 0 1 0 -0 
1 1219.2 609.60000000000002 0 0 0 1 
1 1219.2 0 0 -0 1 0 
1 1168.4000000000001 0 457.19999999999999 0 1 0 
1 1168.4000000000001 0 0 -0 1 0 
1 1168.4000000000001 558.79999999999995 0 0 0 1 
1 0 0 0 -0 1 0 
1 0 558.79999999999995 0 1 0 -0 
1 0 0 457.19999999999999 -0 1 0 
1 0 558.79999999999995 0 0 0 1 
1 0 558.79999999999995 457.19999999999999 1 0 -0 
1 1168.4000000000001 0 457.19999999999999 0 1 0 
1 1168.4000000000001 0 0 -0 1 0 
1 1168.4000000000001 558.79999999999995 0 0 0 1 
1 0 0 457.19999999999999 -0 1 0 
1 0 558.79999999999995 457.19999999999999 1 0 -0 
1 0 0 0 -0 1 0 
1 0 558.79999999999995 0 1 0 -0 
1 0 558.79999999999995 0 0 0 1 
1 0 0 0 -0 1 0 
1 0 558.79999999999995 0 1 0 -0 
1 1168.4000000000001 0 0 -0 1 0 
1 1168.4000000000001 0 457.19999999999999 0 1 0 
1 1168.4000000000001 558.79999999999995 0 0 0 1 
1 0 0 457.19999999999999 -0 1 0 
1 0 558.79999999999995 0 0 0 1 
1 0 558.79999999999995 457.19999999999999 1 0 -0 
1 1168.4000000000001 0 457.19999999999999 0 1 0 
1 1168.4000000000001 0 0 -0 1 0 
1 1168.4000000000001 558.79999999999995 0 0 0 1 
1 0 0 457.19999999999999 -0 1 0 
1 0 558.79999999999995 457.19999999999999 1 0 -0 
1 0 0 0 -0 1 0 
1 0 558.79999999999995 0 1 0 -0 
1 0 558.79999999999995 0 0 0 1 
Polygon3D 0
PolygonOnTriangulations 200
2 1 4 
p 6.604 1 0 2133.6 
2 1 4 
p 6.604 1 0 2133.6 
2 1 4 
p 6.604 1 0 2133.6 
2 1 4 
p 6.604 1 0 2133.6 
2 1 4 
p 6.604 1 0 2133.6 
2 1 4 
p 6.604 1 0 2133.6 
2 1 4 
p 6.604 1 0 2133.6 
2 1 4 
p 6.604 1 0 2133.6 
2 1 4 
p 6.604 1 0 2133.6 
2 1 4 
p 6.604 1 0 2133.6 
2 1 4 
p 6.604 1 0 2133.6 
2 1 4 
p 6.604 1 0 2133.6 
2 1 2 
p 6.604 1 0 2133.6 
2 1 4 
p 6.604 1 0 2133.6 
2 2 3 
p 6.604 1 0 609.6 
2 1 2 
p 6.604 1 0 609.6 
2 1 4 
p 6.604 1 0 2133.6 
2 1 4 
p 6.604 1 0 2133.6 
2 4 3 
p 6.604 1 0 2133.6 
2 1 4 
p 6.604 1 0 2133.6 
2 1 4 
p 6.604 1 0 609.6 
2 1 2 
p 6.604 1 0 609.6 
2 1 2 
p 6.604 1 0 1219.2 
2 1 2 
p 6.604 1 0 1219.2 
2 1 2 
p 6.604 1 0 1219.2 
2 1 2 
p 6.604 1 0 1219.2 
2 1 2 
p 6.604 1 0 1219.2 
2 1 2 
p 6.604 1 0 1219.2 
2 1 2 
p 6.604 1 0 1219.2 
2 1 2 
p 6.604 1 0 1219.2 
2 1 2 
p 6.604 1 0 1219.2 
2 1 2 
p 6.604 1 0 1219.2 
2 1 2 
p 6.604 1 0 1219.2 
2 1 2 
p 6.604 1 0 1219.2 
2 1 2 
p 6.604 1 0 1219.2 
2 1 4 
p 6.604 1 0 1219.2 
2 2 3 
p 6.604 1 0 2133.6 
2 2 3 
p 6.604 1 0 2133.6 
2 2 3 
p 6.604 1 0 2133.6 
2 2 3 
p 6.604 1 0 2133.6 
2 2 3 
p 6.604 1 0 2133.6 
2 2 3 
p 6.604 1 0 2133.6 
2 2 3 
p 6.604 1 0 2133.6 
2 2 3 
p 6.604 1 0 2133.6 
2 2 3 
p 6.604 1 0 2133.6 
2 2 3 
p 6.604 1 0 2133.6 
2 2 3 
p 6.604 1 0 2133.6 
2 2 3 
p 6.604 1 0 2133.6 
2 2 3 
p 6.604 1 0 2133.6 
2 1 2 
p 6.604 1 0 2133.6 
2 4 3 
p 6.604 1 0 1219.2 
2 4 3 
p 6.604 1 0 1219.2 
2 4 3 
p 6.604 1 0 1219.2 
2 4 3 
p 6.604 1 0 1219.2 
2 4 3 
p 6.604 1 0 1219.2 
2 4 3 
p 6.604 1 0 1219.2 
2 4 3 
p 6.604 1 0 1219.2 
2 4 3 
p 6.604 1 0 1219.2 
2 4 3 
p 6.604 1 0 1219.2 
2 4 3 
p 6.604 1 0 1219.2 
2 4 3 
p 6.604 1 0 1219.2 
2 4 3 
p 6.604 1 0 1219.2 
2 4 3 
p 6.604 1 0 1219.2 
2 1 4 
p 6.604 1 0 1219.2 
2 5 6 
p 6.604 1 0 457.2 
2 1 2 
p 6.604 1 0 457.2 
2 7 5 
p 6.604 1 0 1168.4 
2 1 4 
p 6.604 1 0 1168.4 
2 7 8 
p 6.604 1 0 457.2 
2 1 2 
p 6.604 1 0 457.2 
2 8 6 
p 6.604 1 0 1168.4 
2 1 4 
p 6.604 1 0 1168.4 
2 5 6 
p 6.604 1 0 457.2 
2 9 10 
p 6.604 1 0 457.2 
2 5 6 
p 6.604 1 0 457.2 
2 9 10 
p 6.604 1 0 457.2 
2 1 2 
p 6.604 1 0 457.2 
2 8 6 
p 6.604 1 0 1168.4 
2 11 10 
p 6.604 1 0 1168.4 
2 7 6 
p 6.604 1 0 1168.4 
2 11 10 
p 6.604 1 0 1168.4 
2 1 4 
p 6.604 1 0 1168.4 
2 7 5 
p 6.604 1 0 1168.4 
2 12 9 
p 6.604 1 0 1168.4 
2 8 5 
p 6.604 1 0 1168.4 
2 12 9 
p 6.604 1 0 1168.4 
2 1 4 
p 6.604 1 0 1168.4 
2 7 8 
p 6.604 1 0 457.2 
2 12 11 
p 6.604 1 0 457.2 
2 8 7 
p 6.604 1 0 457.2 
2 12 11 
p 6.604 1 0 457.2 
2 1 2 
p 6.604 1 0 457.2 
2 5 6 
p 6.604 1 0 1168.4 
2 9 10 
p 6.604 1 0 1168.4 
2 13 14 
p 6.604 1 0 1168.4 
2 1 4 
p 6.604 1 0 1168.4 
2 6 8 
p 6.604 1 0 457.2 
2 10 11 
p 6.604 1 0 457.2 
2 14 15 
p 6.604 1 0 457.2 
2 1 2 
p 6.604 1 0 457.2 
2 5 7 
p 6.604 1 0 457.2 
2 9 12 
p 6.604 1 0 457.2 
2 13 16 
p 6.604 1 0 457.2 
2 1 2 
p 6.604 1 0 457.2 
2 7 8 
p 6.604 1 0 1168.4 
2 12 11 
p 6.604 1 0 1168.4 
2 16 15 
p 6.604 1 0 1168.4 
2 1 4 
p 6.604 1 0 1168.4 
2 13 14 
p 6.604 1 0 457.2 
2 17 18 
p 6.604 1 0 457.2 
2 1 2 
p 6.604 1 0 457.2 
2 16 14 
p 6.604 1 0 1168.4 
2 19 18 
p 6.604 1 0 1168.4 
2 1 4 
p 6.604 1 0 1168.4 
2 15 13 
p 6.604 1 0 1168.4 
2 20 17 
p 6.604 1 0 1168.4 
2 1 4 
p 6.604 1 0 1168.4 
2 15 16 
p 6.604 1 0 457.2 
2 20 19 
p 6.604 1 0 457.2 
2 1 2 
p 6.604 1 0 457.2 
2 4 3 
p 6.604 1 0 1219.2 
2 4 3 
p 6.604 1 0 1219.2 
2 2 3 
p 6.604 1 0 1219.2 
2 4 3 
p 6.604 1 0 1219.2 
2 4 3 
p 6.604 1 0 609.6 
2 2 3 
p 6.604 1 0 609.6 
2 1 2 
p 6.604 1 0 1219.2 
2 1 2 
p 6.604 1 0 1219.2 
2 1 2 
p 6.604 1 0 1219.2 
2 2 3 
p 6.604 1 0 1219.2 
2 2 3 
p 6.604 1 0 2133.6 
2 2 3 
p 6.604 1 0 2133.6 
2 2 3 
p 6.604 1 0 2133.6 
2 4 3 
p 6.604 1 0 2133.6 
2 4 3 
p 6.604 1 0 609.6 
2 1 4 
p 6.604 1 0 609.6 
2 2 3 
p 6.604 1 0 558.8 
2 4 3 
p 6.604 1 0 558.8 
2 1 4 
p 6.604 1 0 558.8 
2 4 3 
p 6.604 1 0 558.8 
2 4 3 
p 6.604 1 0 457.2 
2 2 3 
p 6.604 1 0 457.2 
2 1 2 
p 6.604 1 0 558.8 
2 1 4 
p 6.604 1 0 558.8 
2 2 3 
p 6.604 1 0 1168.4 
2 1 2 
p 6.604 1 0 1168.4 
2 2 3 
p 6.604 1 0 558.8 
2 1 2 
p 6.604 1 0 558.8 
2 4 3 
p 6.604 1 0 457.2 
2 1 4 
p 6.604 1 0 457.2 
2 2 3 
p 6.604 1 0 1168.4 
2 4 3 
p 6.604 1 0 1168.4 
2 2 3 
p 6.604 1 0 558.8 
2 4 3 
p 6.604 1 0 558.8 
2 1 4 
p 6.604 1 0 558.8 
2 4 3 
p 6.604 1 0 558.8 
2 4 3 
p 6.604 1 0 457.2 
2 2 3 
p 6.604 1 0 457.2 
2 1 2 
p 6.604 1 0 558.8 
2 2 3 
p 6.604 1 0 558.8 
2 2 3 
p 6.604 1 0 1168.4 
2 4 3 
p 6.604 1 0 1168.4 
2 1 2 
p 6.604 1 0 558.8 
2 1 4 
p 6.604 1 0 558.8 
2 2 3 
p 6.604 1 0 1168.4 
2 1 2 
p 6.604 1 0 1168.4 
2 4 3 
p 6.604 1 0 457.2 
2 1 4 
p 6.604 1 0 457.2 
2 1 2 
p 6.604 1 0 558.8 
2 1 4 
p 6.604 1 0 558.8 
2 2 3 
p 6.604 1 0 1168.4 
2 1 2 
p 6.604 1 0 1168.4 
2 4 3 
p 6.604 1 0 558.8 
2 1 4 
p 6.604 1 0 558.8 
2 2 3 
p 6.604 1 0 558.8 
2 4 3 
p 6.604 1 0 558.8 
2 4 3 
p 6.604 1 0 457.2 
2 2 3 
p 6.604 1 0 457.2 
2 2 3 
p 6.604 1 0 558.8 
2 1 2 
p 6.604 1 0 558.8 
2 4 3 
p 6.604 1 0 457.2 
2 1 4 
p 6.604 1 0 457.2 
2 2 3 
p 6.604 1 0 1168.4 
2 4 3 
p 6.604 1 0 1168.4 
2 2 3 
p 6.604 1 0 558.8 
2 4 3 
p 6.604 1 0 558.8 
2 1 4 
p 6.604 1 0 558.8 
2 4 3 
p 6.604 1 0 558.8 
2 4 3 
p 6.604 1 0 457.2 
2 2 3 
p 6.604 1 0 457.2 
2 1 2 
p 6.604 1 0 558.8 
2 2 3 
p 6.604 1 0 558.8 
2 2 3 
p 6.604 1 0 1168.4 
2 4 3 
p 6.604 1 0 1168.4 
2 1 2 
p 6.604 1 0 558.8 
2 1 4 
p 6.604 1 0 558.8 
2 2 3 
p 6.604 1 0 1168.4 
2 1 2 
p 6.604 1 0 1168.4 
2 4 3 
p 6.604 1 0 457.2 
2 1 4 
p 6.604 1 0 457.2 
Surfaces 30
1 0 0 0 1 0 -0 0 0 1 0 -1 0 
1 0 0 0 -0 1 0 0 0 1 1 0 -0 
1 0 0 2133.5999999999999 0 0 1 1 0 -0 -0 1 0 
1 0 609.60000000000002 0 -0 1 0 0 0 1 1 0 -0 
1 0 0 0 0 0 1 1 0 -0 -0 1 0 
1 1219.2 0 0 1 0 -0 0 0 1 0 -1 0 
1 1168.4000000000001 0 0 1 0 -0 0 0 1 0 -1 0 
1 0 0 0 -0 1 0 0 0 1 1 0 -0 
1 0 0 0 0 0 1 1 0 -0 -0 1 0 
1 0 0 0 1 0 -0 0 0 1 0 -1 0 
1 0 0 457.19999999999999 0 0 1 1 0 -0 -0 1 0 
1 1168.4000000000001 0 0 1 0 -0 0 0 1 0 -1 0 
1 0 0 0 -0 1 0 0 0 1 1 0 -0 
1 0 0 457.19999999999999 0 0 1 1 0 -0 -0 1 0 
1 0 0 0 0 0 1 1 0 -0 -0 1 0 
1 0 0 0 1 0 -0 0 0 1 0 -1 0 
1 0 0 0 -0 1 0 0 0 1 1 0 -0 
1 0 0 0 0 0 1 1 0 -0 -0 1 0 
1 1168.4000000000001 0 0 1 0 -0 0 0 1 0 -1 0 
1 0 0 0 1 0 -0 0 0 1 0 -1 0 
1 0 0 457.19999999999999 0 0 1 1 0 -0 -0 1 0 
1 1168.4000000000001 0 0 1 0 -0 0 0 1 0 -1 0 
1 0 0 0 -0 1 0 0 0 1 1 0 -0 
1 0 0 457.19999999999999 0 0 1 1 0 -0 -0 1 0 
1 0 0 0 0 0 1 1 0 -0 -0 1 0 
1 0 0 0 1 0 -0 0 0 1 0 -1 0 
1 0 558.79999999999995 0 -0 1 0 0 0 1 1 0 -0 
1 0 558.79999999999995 0 -0 1 0 0 0 1 1 0 -0 
1 0 558.79999999999995 0 -0 1 0 0 0 1 1 0 -0 
1 0 558.79999999999995 0 -0 1 0 0 0 1 1 0 -0 
Triangulations 40
4 2 1 0
0 0 0 0 0 2133.6 0 609.6 2133.6 0 609.6 0 0 0 2133.6 0 2133.6 -609.6 0 -609.6 2 4 3 2 1 4 
8 8 1 1.70530256582424e-13
0 0 0 1219.2 0 0 1219.2 0 2133.6 0 0 2133.6 1193.8 0 25.4 1193.8 0 1498.6 25.4 0 25.4 25.4 0 1498.6 0 0 0 1219.2 2133.6 1219.2 2133.6 0 25.4 1193.8 1498.6 1193.8 25.4 25.4 1498.6 25.4 2 1 7 5 2 7 8 7 1 6 2 5 3 6 8 3 8 4 3 2 6 1 4 8 
4 2 1 0
0 0 0 1219.2 0 0 1219.2 0 2133.6 0 0 2133.6 0 0 0 1219.2 2133.6 1219.2 2133.6 0 4 2 1 3 2 4 
8 8 1 1.70530256582424e-13
0 0 0 1219.2 0 0 1219.2 0 2133.6 0 0 2133.6 1193.8 0 1168.4 1193.8 0 1625.6 25.4 0 1168.4 25.4 0 1625.6 0 0 0 1219.2 2133.6 1219.2 2133.6 0 1168.4 1193.8 1625.6 1193.8 1168.4 25.4 1625.6 25.4 2 1 7 5 2 7 3 6 8 3 8 4 3 2 5 3 5 6 1 4 8 1 8 7 
8 8 1 1.70530256582424e-13
0 0 0 1219.2 0 0 1219.2 0 2133.6 0 0 2133.6 1193.8 0 1168.4 1193.8 0 1625.6 25.4 0 1168.4 25.4 0 1625.6 0 0 0 1219.2 2133.6 1219.2 2133.6 0 1168.4 1193.8 1625.6 1193.8 1168.4 25.4 1625.6 25.4 2 1 7 5 2 7 3 6 8 3 8 4 3 2 5 3 5 6 1 4 8 1 8 7 
8 8 1 1.70530256582424e-13
0 0 0 1219.2 0 0 1219.2 0 2133.6 0 0 2133.6 1193.8 0 1168.4 1193.8 0 1625.6 25.4 0 1168.4 25.4 0 1625.6 0 0 0 1219.2 2133.6 1219.2 2133.6 0 1168.4 1193.8 1625.6 1193.8 1168.4 25.4 1625.6 25.4 2 1 7 5 2 7 3 6 8 3 8 4 3 2 5 3 5 6 1 4 8 1 8 7 
8 8 1 1.70530256582424e-13
0 0 0 1219.2 0 0 1219.2 0 2133.6 0 0 2133.6 1193.8 0 1168.4 1193.8 0 1625.6 25.4 0 1168.4 25.4 0 1625.6 0 0 0 1219.2 2133.6 1219.2 2133.6 0 1168.4 1193.8 1625.6 1193.8 1168.4 25.4 1625.6 25.4 2 1 7 5 2 7 3 6 8 3 8 4 3 2 5 3 5 6 1 4 8 1 8 7 
8 8 1 1.70530256582424e-13
0 0 0 1219.2 0 0 1219.2 0 2133.6 0 0 2133.6 1193.8 0 1168.4 1193.8 0 1625.6 25.4 0 1168.4 25.4 0 1625.6 0 0 0 1219.2 2133.6 1219.2 2133.6 0 1168.4 1193.8 1625.6 1193.8 1168.4 25.4 1625.6 25.4 2 1 7 5 2 7 3 6 8 3 8 4 3 2 5 3 5 6 1 4 8 1 8 7 
8 8 1 1.70530256582424e-13
0 0 0 1219.2 0 0 1219.2 0 2133.6 0 0 2133.6 1193.8 0 1168.4 1193.8 0 1625.6 25.4 0 1168.4 25.4 0 1625.6 0 0 0 1219.2 2133.6 1219.2 2133.6 0 1168.4 1193.8 1625.6 1193.8 1168.4 25.4 1625.6 25.4 2 1 7 5 2 7 3 6 8 3 8 4 3 2 5 3 5 6 1 4 8 1 8 7 
8 8 1 1.70530256582424e-13
0 0 0 1219.2 0 0 1219.2 0 2133.6 0 0 2133.6 1193.8 0 1168.4 1193.8 0 1625.6 25.4 0 1168.4 25.4 0 1625.6 0 0 0 1219.2 2133.6 1219.2 2133.6 0 1168.4 1193.8 1625.6 1193.8 1168.4 25.4 1625.6 25.4 2 1 7 5 2 7 3 6 8 3 8 4 3 2 5 3 5 6 1 4 8 1 8 7 
8 8 1 1.70530256582424e-13
0 0 0 1219.2 0 0 1219.2 0 2133.6 0 0 2133.6 1193.8 0 1168.4 1193.8 0 1625.6 25.4 0 1168.4 25.4 0 1625.6 0 0 0 1219.2 2133.6 1219.2 2133.6 0 1168.4 1193.8 1625.6 1193.8 1168.4 25.4 1625.6 25.4 2 1 7 5 2 7 3 6 8 3 8 4 3 2 5 3 5 6 1 4 8 1 8 7 
12 14 1 1.70530256582424e-13
0 0 0 1219.2 0 0 1219.2 0 2133.6 0 0 2133.6 25.4 0 203.2 1193.8 0 203.2 25.4 0 660.4 1193.8 0 660.4 1193.8 0 1168.4 1193.8 0 1625.6 25.4 0 1625.6 25.4 0 1168.4 0 0 0 1219.2 2133.6 1219.2 2133.6 0 203.2 25.4 203.2 1193.8 660.4 25.4 660.4 1193.8 1168.4 1193.8 1625.6 1193.8 1625.6 25.4 1168.4 25.4 7 5 1 2 1 5 6 2 5 9 8 7 9 7 12 3 10 11 3 11 4 3 2 6 3 6 8 3 8 9 3 9 10 1 4 11 1 11 12 1 12 7 
16 20 1 1.70530256582424e-13
0 0 0 1219.2 0 0 1219.2 0 2133.6 0 0 2133.6 1193.8 0 1168.4 1193.8 0 1625.6 25.4 0 1625.6 25.4 0 1168.4 25.4 0 203.2 1193.8 0 203.2 1193.8 0 660.4 25.4 0 660.4 1193.8 0 685.8 1193.8 0 1143 25.4 0 685.8 25.4 0 1143 0 0 0 1219.2 2133.6 1219.2 2133.6 0 1168.4 1193.8 1625.6 1193.8 1625.6 25.4 1168.4 25.4 203.2 25.4 203.2 1193.8 660.4 1193.8 660.4 25.4 685.8 1193.8 1143 1193.8 685.8 25.4 1143 25.4 12 9 1 2 1 9 10 2 9 13 11 12 13 12 15 5 14 16 5 16 8 3 6 7 3 7 4 3 2 10 3 10 11 3 11 13 3 13 14 3 14 5 3 5 6 1 4 7 1 7 8 1 8 16 1 16 15 1 15 12 
20 26 1 2.29150032282632e-13
0 0 0 1219.2 0 0 1219.2 0 2133.6 0 0 2133.6 1193.8 0 1651 1193.8 0 2108.2 25.4 0 1651 25.4 0 2108.2 1193.8 0 1168.4 1193.8 0 1625.6 25.4 0 1625.6 25.4 0 1168.4 25.4 0 203.2 1193.8 0 203.2 1193.8 0 660.4 25.4 0 660.4 1193.8 0 685.8 1193.8 0 1143 25.4 0 1143 25.4 0 685.8 0 0 0 1219.2 2133.6 1219.2 2133.6 0 1651 1193.8 2108.2 1193.8 1651 25.4 2108.2 25.4 1168.4 1193.8 1625.6 1193.8 1625.6 25.4 1168.4 25.4 203.2 25.4 203.2 1193.8 660.4 1193.8 660.4 25.4 685.8 1193.8 1143 1193.8 1143 25.4 685.8 25.4 16 13 1 2 1 13 14 2 13 17 15 16 17 16 20 4 8 7 4 7 11 9 18 19 9 19 12 5 10 11 5 11 7 3 5 6 3 6 8 3 8 4 3 2 14 3 14 15 3 15 17 3 17 18 3 18 9 3 9 10 3 10 5 1 4 11 1 11 12 1 12 19 1 19 20 1 20 16 
4 2 1 0
0 0 2133.6 0 609.6 2133.6 1219.2 609.6 2133.6 1219.2 0 2133.6 0 0 0 609.6 1219.2 609.6 1219.2 0 3 2 1 3 1 4 
8 8 1 1.70530256582424e-13
0 609.6 0 1219.2 609.6 0 1219.2 609.6 2133.6 0 609.6 2133.6 1193.8 609.6 1168.4 1193.8 609.6 1625.6 25.4 609.6 1168.4 25.4 609.6 1625.6 0 0 0 1219.2 2133.6 1219.2 2133.6 0 1168.4 1193.8 1625.6 1193.8 1168.4 25.4 1625.6 25.4 2 1 7 5 2 7 3 6 8 3 8 4 3 2 5 3 5 6 1 4 8 1 8 7 
8 8 1 1.70530256582424e-13
0 609.6 0 1219.2 609.6 0 1219.2 609.6 2133.6 0 609.6 2133.6 1193.8 609.6 1168.4 1193.8 609.6 1625.6 25.4 609.6 1168.4 25.4 609.6 1625.6 0 0 0 1219.2 2133.6 1219.2 2133.6 0 1168.4 1193.8 1625.6 1193.8 1168.4 25.4 1625.6 25.4 2 1 7 5 2 7 3 6 8 3 8 4 3 2 5 3 5 6 1 4 8 1 8 7 
4 2 1 0
0 609.6 0 1219.2 609.6 0 1219.2 609.6 2133.6 0 609.6 2133.6 0 0 0 1219.2 2133.6 1219.2 2133.6 0 4 2 1 3 2 4 
4 2 1 0
0 0 0 0 609.6 0 1219.2 609.6 0 1219.2 0 0 0 0 0 609.6 1219.2 609.6 1219.2 0 3 2 1 3 1 4 
4 2 1 0
1219.2 0 0 1219.2 0 2133.6 1219.2 609.6 2133.6 1219.2 609.6 0 0 0 2133.6 0 2133.6 -609.6 0 -609.6 2 4 3 2 1 4 
4 2 1 0
1193.8 0 1651 1193.8 0 2108.2 1193.8 558.8 2108.2 1193.8 558.8 1651 0 0 457.2 0 457.2 -558.8 0 -558.8 2 1 4 2 4 3 
4 2 1 5.6843418860808e-14
25.4 0 1651 25.4 558.8 1651 1193.8 558.8 1651 1193.8 0 1651 0 0 0 558.8 1168.4 558.8 1168.4 0 4 2 1 3 2 4 
4 2 1 0
25.4 0 1651 25.4 0 2108.2 25.4 558.8 2108.2 25.4 558.8 1651 0 0 457.2 0 457.2 -558.8 0 -558.8 2 1 4 2 4 3 
4 2 1 5.6843418860808e-14
25.4 0 2108.2 25.4 558.8 2108.2 1193.8 558.8 2108.2 1193.8 0 2108.2 0 0 0 558.8 1168.4 558.8 1168.4 0 4 2 1 3 2 4 
4 2 1 1.13686837721616e-13
1193.8 0 1168.4 1193.8 0 1625.6 1193.8 558.8 1625.6 1193.8 558.8 1168.4 0 0 457.2 0 457.2 -558.8 0 -558.8 2 1 4 2 4 3 
4 2 1 5.6843418860808e-14
25.4 0 1625.6 25.4 558.8 1625.6 1193.8 558.8 1625.6 1193.8 0 1625.6 0 0 0 558.8 1168.4 558.8 1168.4 0 4 2 1 3 2 4 
4 2 1 5.6843418860808e-14
25.4 0 1168.4 25.4 558.8 1168.4 1193.8 558.8 1168.4 1193.8 0 1168.4 0 0 0 558.8 1168.4 558.8 1168.4 0 4 2 1 3 2 4 
4 2 1 1.13686837721616e-13
25.4 0 1168.4 25.4 0 1625.6 25.4 558.8 1625.6 25.4 558.8 1168.4 0 0 457.2 0 457.2 -558.8 0 -558.8 2 1 4 2 4 3 
4 2 1 5.6843418860808e-14
25.4 0 203.2 25.4 558.8 203.2 1193.8 558.8 203.2 1193.8 0 203.2 0 0 0 558.8 1168.4 558.8 1168.4 0 4 2 1 3 2 4 
4 2 1 2.8421709430404e-14
1193.8 0 203.2 1193.8 0 660.4 1193.8 558.8 660.4 1193.8 558.8 203.2 0 0 457.2 0 457.2 -558.8 0 -558.8 2 1 4 2 4 3 
4 2 1 2.8421709430404e-14
25.4 0 203.2 25.4 0 660.4 25.4 558.8 660.4 25.4 558.8 203.2 0 0 457.2 0 457.2 -558.8 0 -558.8 2 1 4 2 4 3 
4 2 1 5.6843418860808e-14
25.4 0 660.4 25.4 558.8 660.4 1193.8 558.8 660.4 1193.8 0 660.4 0 0 0 558.8 1168.4 558.8 1168.4 0 4 2 1 3 2 4 
4 2 1 0
1193.8 0 685.8 1193.8 0 1143 1193.8 558.8 1143 1193.8 558.8 685.8 0 0 457.2 0 457.2 -558.8 0 -558.8 2 1 4 2 4 3 
4 2 1 5.6843418860808e-14
25.4 0 1143 25.4 558.8 1143 1193.8 558.8 1143 1193.8 0 1143 0 0 0 558.8 1168.4 558.8 1168.4 0 4 2 1 3 2 4 
4 2 1 5.6843418860808e-14
25.4 0 685.8 25.4 558.8 685.8 1193.8 558.8 685.8 1193.8 0 685.8 0 0 0 558.8 1168.4 558.8 1168.4 0 4 2 1 3 2 4 
4 2 1 0
25.4 0 685.8 25.4 0 1143 25.4 558.8 1143 25.4 558.8 685.8 0 0 457.2 0 457.2 -558.8 0 -558.8 2 1 4 2 4 3 
4 2 1 0
0 558.8 0 1168.4 558.8 0 1168.4 558.8 457.2 0 558.8 457.2 0 0 0 1168.4 457.2 1168.4 457.2 0 3 2 1 3 1 4 
4 2 1 1.13686837721616e-13
0 558.8 0 1168.4 558.8 0 1168.4 558.8 457.2 0 558.8 457.2 0 0 0 1168.4 457.2 1168.4 457.2 0 3 2 1 3 1 4 
4 2 1 5.6843418860808e-14
0 558.8 0 1168.4 558.8 0 1168.4 558.8 457.2 0 558.8 457.2 0 0 0 1168.4 457.2 1168.4 457.2 0 2 1 4 3 2 4 
4 2 1 0
0 558.8 0 1168.4 558.8 0 1168.4 558.8 457.2 0 558.8 457.2 0 0 0 1168.4 457.2 1168.4 457.2 0 2 1 4 3 2 4 

TShapes 160
Ve
1e-07
0 0 2133.6
0 0

0101101
*
Ve
1e-07
0 0 0
0 0

0101101
*
Ed
 1e-07 1 1 0
1  1 0 0 2133.6
2  1 1 0 0 2133.6
2  2 2 0 0 2133.6
6  1 2 7
6  2 3 0
6  3 4 7
6  4 5 7
6  5 6 7
6  6 7 7
6  7 8 7
6  8 9 7
6  9 10 7
6  10 11 7
6  11 12 8
6  12 13 9
6  13 1 0
6  14 14 10
0

0101000
-160 7 +159 7 *
Ve
1e-07
0 609.6 2133.6
0 0

0101101
*
Ed
 1e-07 1 1 0
1  2 0 0 609.6
2  3 1 0 0 609.6
2  4 3 0 0 609.6
6  15 1 0
6  16 15 0
0

0101000
-157 7 +160 7 *
Ve
1e-07
0 609.6 0
0 0

0101101
*
Ed
 1e-07 1 1 0
1  3 0 0 2133.6
2  5 1 0 0 2133.6
2  6 4 0 0 2133.6
6  17 16 7
6  18 17 7
6  19 1 0
6  20 18 0
0

0101000
-157 7 +155 7 *
Ed
 1e-07 1 1 0
1  4 0 0 609.6
2  7 1 0 0 609.6
2  8 5 0 0 609.6
6  21 1 0
6  22 19 0
0

0101000
-155 7 +159 7 *
Wi

0101000
-158 0 -156 0 +154 0 +153 0 *
Fa
0  1e-07 1 0
2  1
0101000
+152 0 *
Ve
1e-07
1219.2 0 0
0 0

0101101
*
Ed
 1e-07 1 1 0
1  5 0 0 1219.2
2  9 2 0 0 1219.2
2  10 5 0 0 1219.2
6  23 2 7
6  24 3 0
6  25 4 7
6  26 5 7
6  27 6 7
6  28 7 7
6  29 8 7
6  30 9 7
6  31 10 7
6  32 11 7
6  33 12 8
6  34 13 9
6  35 14 10
6  36 19 0
0

0101000
-150 7 +159 7 *
Ve
1e-07
1219.2 0 2133.6
0 0

0101101
*
Ed
 1e-07 1 1 0
1  6 0 0 2133.6
2  11 6 0 0 2133.6
2  12 2 0 0 2133.6
6  37 2 7
6  38 3 0
6  39 4 7
6  40 5 7
6  41 6 7
6  42 7 7
6  43 8 7
6  44 9 7
6  45 10 7
6  46 11 7
6  47 12 8
6  48 13 9
6  49 14 10
6  50 20 0
0

0101000
-148 7 +150 7 *
Ed
 1e-07 1 1 0
1  7 0 0 1219.2
2  13 2 0 0 1219.2
2  14 3 0 0 1219.2
6  51 2 7
6  52 3 0
6  53 4 7
6  54 5 7
6  55 6 7
6  56 7 7
6  57 8 7
6  58 9 7
6  59 10 7
6  60 11 7
6  61 12 8
6  62 13 9
6  63 14 10
6  64 15 0
0

0101000
-148 7 +160 7 *
Wi

0101000
-149 6 -147 6 +158 6 +146 6 *
Ve
1e-07
1168.4 0 457.2
0 0

0101101
*
Ve
1e-07
1168.4 0 0
0 0

0101101
*
Ed
 1e-07 1 1 0
1  8 0 0 457.2
2  15 7 0 0 457.2
2  16 8 0 0 457.2
2  17 2 12 0 457.2
6  65 14 13
6  66 21 13
0

0101000
-144 0 +143 0 *
Ve
1e-07
0 0 0
0 0

0101101
*
Ed
 1e-07 1 1 0
1  9 0 0 1168.4
2  18 8 0 0 1168.4
2  19 9 0 0 1168.4
2  20 2 12 0 1168.4
6  67 14 13
6  68 22 13
0

0101000
-143 0 +141 0 *
Ve
1e-07
0 0 457.2
0 0

0101101
*
Ed
 1e-07 1 1 0
1  10 0 0 457.2
2  21 10 0 0 457.2
2  22 8 0 0 457.2
2  23 2 12 0 457.2
6  69 14 13
6  70 23 13
0

0101000
-139 0 +141 0 *
Ed
 1e-07 1 1 0
1  11 0 0 1168.4
2  24 8 0 0 1168.4
2  25 11 0 0 1168.4
2  26 2 12 0 1168.4
6  71 14 13
6  72 24 13
0

0101000
-144 0 +139 0 *
Wi

0101000
+142 11 +140 11 -138 11 -137 11 *
Ve
1e-07
1168.4 0 457.2
0 0

0101101
*
Ve
1e-07
1168.4 0 0
0 0

0101101
*
Ed
 1e-07 1 1 0
1  12 0 0 457.2
2  27 12 0 0 457.2
2  28 13 0 0 457.2
2  29 2 16 0 457.2
6  73 11 17
6  74 12 18
6  75 13 19
6  76 14 20
6  77 25 17
0

0101000
-135 0 +134 0 *
Ve
1e-07
0 0 457.2
0 0

0101101
*
Ed
 1e-07 1 1 0
1  13 0 0 1168.4
2  30 13 0 0 1168.4
2  31 14 0 0 1168.4
2  32 2 16 0 1168.4
6  78 11 17
6  79 12 18
6  80 13 19
6  81 14 20
6  82 26 17
0

0101000
-135 0 +132 0 *
Ve
1e-07
0 0 0
0 0

0101101
*
Ed
 1e-07 1 1 0
1  14 0 0 1168.4
2  33 13 0 0 1168.4
2  34 15 0 0 1168.4
2  35 2 16 0 1168.4
6  83 11 17
6  84 12 18
6  85 13 19
6  86 14 20
6  87 27 17
0

0101000
-134 0 +130 0 *
Ed
 1e-07 1 1 0
1  15 0 0 457.2
2  36 16 0 0 457.2
2  37 13 0 0 457.2
2  38 2 16 0 457.2
6  88 11 17
6  89 12 18
6  90 13 19
6  91 14 20
6  92 28 17
0

0101000
-132 0 +130 0 *
Wi

0101000
+133 15 -131 15 +129 15 -128 15 *
Ve
1e-07
1168.4 0 0
0 0

0101101
*
Ve
1e-07
0 0 0
0 0

0101101
*
Ed
 1e-07 1 1 0
1  16 0 0 1168.4
2  39 17 0 0 1168.4
2  40 18 0 0 1168.4
2  41 2 23 0 1168.4
6  93 12 24
6  94 13 25
6  95 14 26
6  96 29 24
0

0101000
-126 0 +125 0 *
Ve
1e-07
1168.4 0 457.2
0 0

0101101
*
Ed
 1e-07 1 1 0
1  17 0 0 457.2
2  42 19 0 0 457.2
2  43 17 0 0 457.2
2  44 2 23 0 457.2
6  97 12 24
6  98 13 25
6  99 14 26
6  100 30 24
0

0101000
-123 0 +126 0 *
Ve
1e-07
0 0 457.2
0 0

0101101
*
Ed
 1e-07 1 1 0
1  18 0 0 457.2
2  45 20 0 0 457.2
2  46 17 0 0 457.2
2  47 2 23 0 457.2
6  101 12 24
6  102 13 25
6  103 14 26
6  104 31 24
0

0101000
-121 0 +125 0 *
Ed
 1e-07 1 1 0
1  19 0 0 1168.4
2  48 17 0 0 1168.4
2  49 21 0 0 1168.4
2  50 2 23 0 1168.4
6  105 12 24
6  106 13 25
6  107 14 26
6  108 32 24
0

0101000
-123 0 +121 0 *
Wi

0101000
+124 22 +122 22 -120 22 -119 22 *
Ve
1e-07
1168.4 0 457.2
0 0

0101101
*
Ve
1e-07
1168.4 0 0
0 0

0101101
*
Ed
 1e-07 1 1 0
1  20 0 0 457.2
2  51 22 0 0 457.2
2  52 23 0 0 457.2
2  53 2 29 0 457.2
6  109 13 30
6  110 14 31
6  111 33 30
0

0101000
-117 0 +116 0 *
Ve
1e-07
0 0 457.2
0 0

0101101
*
Ed
 1e-07 1 1 0
1  21 0 0 1168.4
2  54 23 0 0 1168.4
2  55 24 0 0 1168.4
2  56 2 29 0 1168.4
6  112 13 30
6  113 14 31
6  114 34 30
0

0101000
-117 0 +114 0 *
Ve
1e-07
0 0 0
0 0

0101101
*
Ed
 1e-07 1 1 0
1  22 0 0 1168.4
2  57 23 0 0 1168.4
2  58 25 0 0 1168.4
2  59 2 29 0 1168.4
6  115 13 30
6  116 14 31
6  117 35 30
0

0101000
-116 0 +112 0 *
Ed
 1e-07 1 1 0
1  23 0 0 457.2
2  60 26 0 0 457.2
2  61 23 0 0 457.2
2  62 2 29 0 457.2
6  118 13 30
6  119 14 31
6  120 36 30
0

0101000
-114 0 +112 0 *
Wi

0101000
+115 28 -113 28 +111 28 -110 28 *
Fa
0  1e-07 2 6
2  14
0101000
+145 0 +136 0 +127 0 +118 0 +109 0 *
Ve
1e-07
1219.2 609.6 2133.6
0 0

0101101
*
Ed
 1e-07 1 1 0
1  24 0 0 1219.2
2  63 4 0 0 1219.2
2  64 3 0 0 1219.2
6  121 16 7
6  122 17 7
6  123 15 0
6  124 18 0
0

0101000
-107 7 +157 7 *
Ed
 1e-07 1 1 0
1  25 0 0 609.6
2  65 6 0 0 609.6
2  66 3 0 0 609.6
6  125 15 0
6  126 20 0
0

0101000
-107 7 +148 7 *
Wi

0101000
-156 0 -106 0 +105 0 +146 0 *
Fa
0  1e-07 3 0
2  15
0101000
+104 0 *
Ve
1e-07
1219.2 609.6 0
0 0

0101101
*
Ed
 1e-07 1 1 0
1  26 0 0 1219.2
2  67 4 0 0 1219.2
2  68 5 0 0 1219.2
6  127 16 7
6  128 17 7
6  129 18 0
6  130 19 0
0

0101000
-102 7 +155 7 *
Ed
 1e-07 1 1 0
1  27 0 0 2133.6
2  69 6 0 0 2133.6
2  70 4 0 0 2133.6
6  131 16 7
6  132 17 7
6  133 18 0
6  134 20 0
0

0101000
-107 7 +102 7 *
Wi

0101000
-101 0 -100 0 +106 0 +154 0 *
Fa
0  1e-07 4 0
2  18
0101000
+99 0 *
Ed
 1e-07 1 1 0
1  28 0 0 609.6
2  71 6 0 0 609.6
2  72 5 0 0 609.6
6  135 19 0
6  136 20 0
0

0101000
-102 7 +150 7 *
Wi

0101000
-153 0 -101 0 +97 0 +149 0 *
Fa
0  1e-07 5 0
2  19
0101000
+96 0 *
Wi

0101000
-147 0 -105 0 +100 0 +97 0 *
Fa
0  1e-07 6 0
2  20
0101000
+94 0 *
Ve
1e-07
1168.4 558.8 457.2
0 0

0101101
*
Ed
 1e-07 1 1 0
1  29 0 0 558.8
2  73 7 0 0 558.8
2  74 11 0 0 558.8
6  137 21 13
6  138 24 13
0

0101000
-92 0 +144 0 *
Ve
1e-07
1168.4 558.8 0
0 0

0101101
*
Ed
 1e-07 1 1 0
1  30 0 0 558.8
2  75 7 0 0 558.8
2  76 9 0 0 558.8
6  139 21 13
6  140 22 13
0

0101000
-90 0 +143 0 *
Ed
 1e-07 1 1 0
1  31 0 0 457.2
2  77 7 0 0 457.2
2  78 27 0 0 457.2
6  141 21 13
6  142 37 0
0

0101000
-92 0 +90 0 *
Wi

0101000
-142 11 -91 11 +89 11 +88 11 *
Fa
0  1e-07 7 11
2  21
0101000
+87 0 *
Ve
1e-07
0 558.8 0
0 0

0101101
*
Ed
 1e-07 1 1 0
1  32 0 0 558.8
2  79 10 0 0 558.8
2  80 9 0 0 558.8
6  143 22 13
6  144 23 13
0

0101000
-85 0 +141 0 *
Ed
 1e-07 1 1 0
1  33 0 0 1168.4
2  81 27 0 0 1168.4
2  82 9 0 0 1168.4
6  145 22 13
6  146 37 0
0

0101000
-90 0 +85 0 *
Wi

0101000
-84 11 -83 11 +140 11 +89 11 *
Fa
0  1e-07 9 11
2  22
0101000
+82 0 *
Ve
1e-07
0 558.8 457.2
0 0

0101101
*
Ed
 1e-07 1 1 0
1  34 0 0 558.8
2  83 10 0 0 558.8
2  84 11 0 0 558.8
6  147 23 13
6  148 24 13
0

0101000
-80 0 +139 0 *
Ed
 1e-07 1 1 0
1  35 0 0 457.2
2  85 10 0 0 457.2
2  86 27 0 0 457.2
6  149 23 13
6  150 37 0
0

0101000
-80 0 +85 0 *
Wi

0101000
-138 11 -79 11 +84 11 +78 11 *
Fa
0  1e-07 10 11
2  23
0101000
+77 0 *
Ed
 1e-07 1 1 0
1  36 0 0 1168.4
2  87 27 0 0 1168.4
2  88 11 0 0 1168.4
6  151 24 13
6  152 37 0
0

0101000
-92 0 +80 0 *
Wi

0101000
-79 11 -75 11 +137 11 +91 11 *
Fa
0  1e-07 11 11
2  24
0101000
+74 0 *
Ve
1e-07
1168.4 558.8 457.2
0 0

0101101
*
Ed
 1e-07 1 1 0
1  37 0 0 558.8
2  89 12 0 0 558.8
2  90 14 0 0 558.8
6  153 25 17
6  154 26 17
0

0101000
-72 0 +135 0 *
Ve
1e-07
1168.4 558.8 0
0 0

0101101
*
Ed
 1e-07 1 1 0
1  38 0 0 558.8
2  91 12 0 0 558.8
2  92 15 0 0 558.8
6  155 25 17
6  156 27 17
0

0101000
-70 0 +134 0 *
Ed
 1e-07 1 1 0
1  39 0 0 457.2
2  93 12 0 0 457.2
2  94 28 0 0 457.2
6  157 25 17
6  158 38 0
0

0101000
-72 0 +70 0 *
Wi

0101000
-133 14 -71 14 +69 14 +68 14 *
Fa
0  1e-07 12 14
2  25
0101000
+67 0 *
Ve
1e-07
0 558.8 457.2
0 0

0101101
*
Ed
 1e-07 1 1 0
1  40 0 0 558.8
2  95 16 0 0 558.8
2  96 14 0 0 558.8
6  159 26 17
6  160 28 17
0

0101000
-65 0 +132 0 *
Ed
 1e-07 1 1 0
1  41 0 0 1168.4
2  97 28 0 0 1168.4
2  98 14 0 0 1168.4
6  161 26 17
6  162 38 0
0

0101000
-72 0 +65 0 *
Wi

0101000
-64 14 -63 14 +131 14 +71 14 *
Fa
0  1e-07 14 14
2  26
0101000
+62 0 *
Ve
1e-07
0 558.8 0
0 0

0101101
*
Ed
 1e-07 1 1 0
1  42 0 0 558.8
2  99 16 0 0 558.8
2  100 15 0 0 558.8
6  163 27 17
6  164 28 17
0

0101000
-60 0 +130 0 *
Ed
 1e-07 1 1 0
1  43 0 0 1168.4
2  101 28 0 0 1168.4
2  102 15 0 0 1168.4
6  165 27 17
6  166 38 0
0

0101000
-70 0 +60 0 *
Wi

0101000
-59 14 -58 14 +129 14 +69 14 *
Fa
0  1e-07 15 14
2  27
0101000
+57 0 *
Ed
 1e-07 1 1 0
1  44 0 0 457.2
2  103 16 0 0 457.2
2  104 28 0 0 457.2
6  167 28 17
6  168 38 0
0

0101000
-65 0 +60 0 *
Wi

0101000
-128 14 -64 14 +59 14 +55 14 *
Fa
0  1e-07 16 14
2  28
0101000
+54 0 *
Ve
1e-07
0 558.8 0
0 0

0101101
*
Ed
 1e-07 1 1 0
1  45 0 0 558.8
2  105 20 0 0 558.8
2  106 18 0 0 558.8
6  169 29 24
6  170 31 24
0

0101000
-52 0 +125 0 *
Ve
1e-07
1168.4 558.8 0
0 0

0101101
*
Ed
 1e-07 1 1 0
1  46 0 0 1168.4
2  107 29 0 0 1168.4
2  108 18 0 0 1168.4
6  171 29 24
6  172 39 0
0

0101000
-50 0 +52 0 *
Ed
 1e-07 1 1 0
1  47 0 0 558.8
2  109 19 0 0 558.8
2  110 18 0 0 558.8
6  173 29 24
6  174 30 24
0

0101000
-50 0 +126 0 *
Wi

0101000
-51 21 -49 21 +124 21 +48 21 *
Fa
0  1e-07 18 21
2  29
0101000
+47 0 *
Ve
1e-07
1168.4 558.8 457.2
0 0

0101101
*
Ed
 1e-07 1 1 0
1  48 0 0 558.8
2  111 19 0 0 558.8
2  112 21 0 0 558.8
6  175 30 24
6  176 32 24
0

0101000
-45 0 +123 0 *
Ed
 1e-07 1 1 0
1  49 0 0 457.2
2  113 19 0 0 457.2
2  114 29 0 0 457.2
6  177 30 24
6  178 39 0
0

0101000
-45 0 +50 0 *
Wi

0101000
-122 21 -44 21 +48 21 +43 21 *
Fa
0  1e-07 19 21
2  30
0101000
+42 0 *
Ve
1e-07
0 558.8 457.2
0 0

0101101
*
Ed
 1e-07 1 1 0
1  50 0 0 558.8
2  115 20 0 0 558.8
2  116 21 0 0 558.8
6  179 31 24
6  180 32 24
0

0101000
-40 0 +121 0 *
Ed
 1e-07 1 1 0
1  51 0 0 457.2
2  117 20 0 0 457.2
2  118 29 0 0 457.2
6  181 31 24
6  182 39 0
0

0101000
-40 0 +52 0 *
Wi

0101000
-120 21 -39 21 +51 21 +38 21 *
Fa
0  1e-07 20 21
2  31
0101000
+37 0 *
Ed
 1e-07 1 1 0
1  52 0 0 1168.4
2  119 29 0 0 1168.4
2  120 21 0 0 1168.4
6  183 32 24
6  184 39 0
0

0101000
-45 0 +40 0 *
Wi

0101000
-39 21 -35 21 +119 21 +44 21 *
Fa
0  1e-07 21 21
2  32
0101000
+34 0 *
Ve
1e-07
1168.4 558.8 457.2
0 0

0101101
*
Ed
 1e-07 1 1 0
1  53 0 0 558.8
2  121 22 0 0 558.8
2  122 24 0 0 558.8
6  185 33 30
6  186 34 30
0

0101000
-32 0 +117 0 *
Ve
1e-07
1168.4 558.8 0
0 0

0101101
*
Ed
 1e-07 1 1 0
1  54 0 0 558.8
2  123 22 0 0 558.8
2  124 25 0 0 558.8
6  187 33 30
6  188 35 30
0

0101000
-30 0 +116 0 *
Ed
 1e-07 1 1 0
1  55 0 0 457.2
2  125 22 0 0 457.2
2  126 30 0 0 457.2
6  189 33 30
6  190 40 0
0

0101000
-32 0 +30 0 *
Wi

0101000
-115 27 -31 27 +29 27 +28 27 *
Fa
0  1e-07 22 27
2  33
0101000
+27 0 *
Ve
1e-07
0 558.8 457.2
0 0

0101101
*
Ed
 1e-07 1 1 0
1  56 0 0 558.8
2  127 26 0 0 558.8
2  128 24 0 0 558.8
6  191 34 30
6  192 36 30
0

0101000
-25 0 +114 0 *
Ed
 1e-07 1 1 0
1  57 0 0 1168.4
2  129 30 0 0 1168.4
2  130 24 0 0 1168.4
6  193 34 30
6  194 40 0
0

0101000
-32 0 +25 0 *
Wi

0101000
-24 27 -23 27 +113 27 +31 27 *
Fa
0  1e-07 24 27
2  34
0101000
+22 0 *
Ve
1e-07
0 558.8 0
0 0

0101101
*
Ed
 1e-07 1 1 0
1  58 0 0 558.8
2  131 26 0 0 558.8
2  132 25 0 0 558.8
6  195 35 30
6  196 36 30
0

0101000
-20 0 +112 0 *
Ed
 1e-07 1 1 0
1  59 0 0 1168.4
2  133 30 0 0 1168.4
2  134 25 0 0 1168.4
6  197 35 30
6  198 40 0
0

0101000
-30 0 +20 0 *
Wi

0101000
-19 27 -18 27 +111 27 +29 27 *
Fa
0  1e-07 25 27
2  35
0101000
+17 0 *
Ed
 1e-07 1 1 0
1  60 0 0 457.2
2  135 26 0 0 457.2
2  136 30 0 0 457.2
6  199 36 30
6  200 40 0
0

0101000
-25 0 +20 0 *
Wi

0101000
-110 27 -24 27 +19 27 +15 27 *
Fa
0  1e-07 26 27
2  36
0101000
+14 0 *
Wi

0101000
-83 0 -88 0 +75 0 +78 0 *
Fa
0  1e-07 27 0
2  37
0101000
+12 0 *
Wi

0101000
-58 0 -68 0 +63 0 +55 0 *
Fa
0  1e-07 28 0
2  38
0101000
+10 0 *
Wi

0101000
-49 0 -43 0 +35 0 +38 0 *
Fa
0  1e-07 29 0
2  39
0101000
+8 0 *
Wi

0101000
-18 0 -28 0 +23 0 +15 0 *
Fa
0  1e-07 30 0
2  40
0101000
+6 0 *
Sh

0101100
-151 6 -108 0 +103 6 +98 6 -95 6 +93 6 -86 0 +81 0 +76 0 -73 0 
-66 32 -61 32 +56 32 +53 32 +46 33 -41 33 +36 33 -33 33 -26 5 -21 5 
+16 5 +13 5 -11 11 -9 15 -7 22 -5 28 *
So

0100000
+4 0 *
Co

0100000
+3 0 *
Co

1100000
+2 1 *

+1 0 