<?xml version="1.0" encoding="UTF-8" standalone="no"?>
<!-- Created with Inkscape (http://www.inkscape.org/) -->
<svg
   xmlns:svg="http://www.w3.org/2000/svg"
   xmlns="http://www.w3.org/2000/svg"
   version="1.0"
   width="909.74408"
   height="299.76376"
   id="svg1979">
  <defs
     id="defs1981" />
  <g
     transform="translate(58.36816,-232.461)"
     id="layer1">
    <g
       transform="translate(3.541442,3.551494)"
       id="g25789">
      <path
         d="M 203.25824,425.35124 C 203.25824,437.9303 184.30354,438.96422 130.0242,437.9303 C 45.589695,436.55178 -25.231917,428.10826 -25.231917,428.10826 L -58.368161,519.43547 C -58.368161,519.43547 22.016955,524.94952 107.79553,524.94952 C 230.13942,524.94952 330.9439,529.77439 349.38165,448.95841 C 362.47762,391.92203 312.67847,365.04094 253.402,347.46472 C 213.42484,335.57498 140.53545,319.20497 140.53545,304.90281 C 140.53545,286.63739 189.473,287.15428 223.41912,286.1205 C 260.46692,285.08658 404.00561,284.91428 404.00561,284.91428 L 422.27103,233.21967 C 422.27103,233.21967 319.05414,230.46264 216.52651,235.4598 C 68.852259,242.86926 41.281815,275.60928 37.835503,306.97065 C 33.355298,347.63701 88.151578,375.89676 121.40844,388.64811 C 153.11447,400.71014 203.25824,409.67055 203.25824,425.35124"
         style="fill:black;fill-rule:nonzero;stroke:none"
         id="path13557" />
      <path
         d="M 597.51575,328.50998 C 596.82647,327.13146 595.96491,325.75295 595.10333,324.37444 L 773.10508,279.57253 C 801.36479,293.35766 824.972,311.10619 837.20639,333.85174 C 848.23457,353.84039 845.99447,374.51824 833.24313,394.67906 C 731.40477,521.15858 466.55608,520.29695 370.92107,524.60493 L 412.44906,407.60271 L 412.44906,407.60271 C 437.77942,406.74123 474.31027,403.12258 496.19432,398.81474 C 517.90605,394.50676 537.37769,388.82041 553.2307,382.10014 C 569.08371,375.37986 581.49041,367.79797 589.41692,359.69904 C 597.17111,351.60026 600.96204,343.32917 599.41121,334.71336 C 599.06658,332.64566 598.37731,330.57782 597.51575,328.50998"
         style="fill:black;fill-rule:nonzero;stroke:none"
         id="path13559" />
      <path
         d="M 735.36802,264.06414 C 725.0291,259.75616 710.72692,254.4144 700.21569,251.65738 L 569.94529,304.21362 C 573.73622,306.10902 579.42263,310.41686 582.352,312.3124 C 583.21356,313.00159 583.90283,313.51862 584.7644,314.03551 L 735.36802,264.06414"
         style="fill:black;fill-rule:nonzero;stroke:none"
         id="path13561" />
      <path
         d="M 628.5325,239.59535 C 606.99309,236.49359 589.0723,235.11507 578.56105,234.77048 C 537.03306,233.73656 520.6631,232.87507 474.48258,233.04737 L 456.04485,285.08658 L 456.04485,285.08658 C 467.41766,285.43118 472.58712,284.91428 491.71412,286.80969 C 509.29029,288.53294 525.48793,291.11767 539.7901,294.90848 L 628.5325,239.59535"
         style="fill:black;fill-rule:nonzero;stroke:none"
         id="path13563" />
      <path
         d="M 793.26597,486.52315 L 780.85927,486.52315 L 775.51749,525.12182 L 769.31414,525.12182 L 774.82823,486.52315 L 762.42153,486.52315 L 763.2831,481.0091 L 794.12755,481.0091 L 793.26597,486.52315"
         style="fill:black;fill-rule:nonzero;stroke:none"
         id="path13565" />
      <path
         d="M 838.92954,525.12182 L 833.07082,525.12182 L 833.07082,491.69262 L 833.07082,491.69262 L 815.32234,525.12182 L 807.74046,491.34802 L 807.56815,491.34802 L 796.71228,525.12182 L 790.85356,525.12182 L 805.50036,481.0091 L 810.49751,481.0091 L 817.21781,510.81965 L 833.07082,481.0091 L 838.92954,481.0091 L 838.92954,525.12182"
         style="fill:black;fill-rule:nonzero;stroke:none"
         id="path13567" />
    </g>
  </g>
</svg>
