<?xml version="1.0" encoding="UTF-8" standalone="no"?>
<!-- Created with Inkscape (http://www.inkscape.org/) -->
<svg
   xmlns:svg="http://www.w3.org/2000/svg"
   xmlns="http://www.w3.org/2000/svg"
   version="1.0"
   width="509.03149"
   height="300.79132"
   id="svg18998">
  <defs
     id="defs19000" />
  <g
     transform="translate(48.1805,-428.3616)"
     id="layer1">
    <g
       transform="translate(3.541339,3.537934)"
       id="g19013">
      <path
         d="M 157.50794,537.58621 C 164.10054,508.78168 138.94731,495.29233 109.12857,486.367 C 88.843699,480.38291 52.128128,472.06614 52.128128,464.86498 C 52.128128,455.63541 76.774215,455.93963 93.914936,455.43253 C 112.67843,454.92544 185.09536,454.824 185.09536,454.824 L 194.22354,428.75797 C 194.22354,428.75797 142.09146,427.338 90.466494,429.8736 C 15.91965,433.62631 2.0245184,450.15844 0.30028484,465.98071 C -1.9310422,486.46833 25.757807,500.66776 42.492798,507.15894 C 58.41643,513.24436 83.772488,517.70701 83.772488,525.61814 C 83.772488,532.00788 74.238597,532.51499 46.752624,532.00788 C 4.2558455,531.19647 -31.546927,527.0381 -31.546927,527.0381 L -48.180504,573.08476 C -48.180504,573.08476 -7.6107861,575.9246 35.595964,575.9246 C 97.261914,575.9246 148.17693,578.25731 157.50794,537.58621"
         style="fill:#231f20;fill-rule:nonzero;stroke:none"
         id="path15576" />
      <path
         d="M 282.5641,476.73167 C 283.07122,477.84732 283.47693,478.86153 283.67978,479.97726 C 284.28831,484.23706 282.5641,488.49683 278.60857,492.55383 C 274.55159,496.61076 268.26329,500.46488 260.35219,503.81191 C 252.33966,507.26038 242.5015,510.10021 231.54769,512.33159 C 220.49245,514.46153 202.03322,516.28715 189.25377,516.6928 L 168.36036,575.62036 C 216.63833,573.49042 350.21412,573.99751 401.53482,510.20165 C 408.02597,500.05923 409.14162,489.61249 403.56329,479.47006 C 397.37641,468.00914 385.50978,459.18522 371.20894,452.0855 L 281.44845,474.70317 C 281.85413,475.41314 282.25984,476.12313 282.5641,476.73167"
         style="fill:#231f20;fill-rule:nonzero;stroke:none"
         id="path15578" />
      <path
         d="M 275.05871,468.61767 C 275.46442,468.92198 275.76868,469.2262 276.2758,469.53052 L 352.14118,444.37726 C 346.96856,442.14596 339.76743,439.50893 334.49334,438.08896 L 268.77041,464.56074 C 270.59603,465.47352 273.53735,467.60346 275.05871,468.61767"
         style="fill:#231f20;fill-rule:nonzero;stroke:none"
         id="path15580" />
      <path
         d="M 253.45534,459.79377 L 298.28488,431.9021 C 287.43246,430.38072 278.40571,429.67072 273.13165,429.46794 C 252.13681,428.96082 243.82003,428.55509 220.59386,428.65653 L 211.26282,454.92544 C 217.04401,455.02688 219.57962,454.824 229.31634,455.73685 C 238.14026,456.54818 246.25421,457.96815 253.45534,459.79377"
         style="fill:#231f20;fill-rule:nonzero;stroke:none"
         id="path15582" />
      <path
         d="M 365.52919,638.80769 L 229.82346,638.80769 C 224.54942,639.11193 223.33233,640.73477 223.33233,644.89311 L 223.33233,674.40761 C 223.33233,678.46453 224.54942,680.18879 229.82346,680.39159 L 365.52919,680.39159 L 365.52919,702.60357 L 214.91412,702.60357 C 203.14887,702.60357 196.86057,698.14092 196.86057,688.40415 L 196.86057,630.79513 C 196.86057,621.15982 203.14887,616.69714 214.91412,616.69714 L 365.52919,616.69714 L 365.52919,638.80769 z M 162.98486,702.60357 L 136.71598,702.60357 L 136.71598,670.75626 L 20.788009,670.75626 L 20.788009,702.60357 L -5.6837252,702.60357 L -5.6837252,616.69714 L 20.788009,616.69714 L 20.788009,648.54438 L 136.71598,648.54438 L 136.71598,616.69714 L 162.98486,616.69714 L 162.98486,702.60357 z M 387.43684,597.22373 L -27.997071,597.22373 C -37.733815,597.22373 -45.746324,605.23622 -45.746324,614.97296 L -45.746324,704.32776 C -45.746324,714.06453 -37.733815,722.07701 -27.997071,722.07701 L 387.43684,722.07701 C 397.17358,722.07701 405.08468,714.06453 405.08468,704.32776 L 405.08468,614.97296 C 405.08468,605.23622 397.17358,597.22373 387.43684,597.22373"
         style="fill:#231f20;fill-rule:nonzero;stroke:none"
         id="path15584" />
      <path
         d="M 415.12566,455.43253 L 418.47266,432.10497 L 425.97805,432.10497 L 426.4852,428.65653 L 407.72168,428.65653 L 407.21456,432.10497 L 414.71998,432.10497 L 411.37298,455.43253 L 415.12566,455.43253 z "
         style="fill:#231f20;fill-rule:nonzero;stroke:none"
         id="path15586" />
      <path
         d="M 453.76832,455.43253 L 453.76832,428.65653 L 450.3199,428.65653 L 440.58316,446.91285 L 436.42477,428.65653 L 433.38203,428.65653 L 424.55811,455.43253 L 428.10797,455.43253 L 434.70056,434.94481 L 434.80197,434.94481 L 439.36607,455.43253 L 450.21846,435.14769 L 450.3199,435.14769 L 450.3199,455.43253 L 453.76832,455.43253 z "
         style="fill:#231f20;fill-rule:nonzero;stroke:none"
         id="path15588" />
    </g>
  </g>
</svg>
