<?xml version="1.0" encoding="UTF-8" standalone="no"?>
<!-- Created with Inkscape (http://www.inkscape.org/) -->

<svg
   width="109.28189mm"
   height="76.861595mm"
   viewBox="0 0 109.28189 76.861595"
   version="1.1"
   id="svg5"
   xml:space="preserve"
   inkscape:version="1.2.2 (732a01da63, 2022-12-09)"
   sodipodi:docname="SD_IO_Vector.svg"
   xmlns:inkscape="http://www.inkscape.org/namespaces/inkscape"
   xmlns:sodipodi="http://sodipodi.sourceforge.net/DTD/sodipodi-0.dtd"
   xmlns="http://www.w3.org/2000/svg"
   xmlns:svg="http://www.w3.org/2000/svg"><sodipodi:namedview
     id="namedview7"
     pagecolor="#ffffff"
     bordercolor="#666666"
     borderopacity="1.0"
     inkscape:showpageshadow="2"
     inkscape:pageopacity="0.0"
     inkscape:pagecheckerboard="0"
     inkscape:deskcolor="#d1d1d1"
     inkscape:document-units="mm"
     showgrid="false"
     inkscape:zoom="0.914906"
     inkscape:cx="345.93718"
     inkscape:cy="24.046186"
     inkscape:window-width="2560"
     inkscape:window-height="1369"
     inkscape:window-x="-8"
     inkscape:window-y="-8"
     inkscape:window-maximized="1"
     inkscape:current-layer="layer1" /><defs
     id="defs2" /><g
     inkscape:label="Layer 1"
     inkscape:groupmode="layer"
     id="layer1"
     transform="translate(-2.7636407,-3.5887715)"><path
       style="fill:#000000;stroke-width:0.0910682"
       d="M 2.7636407,42.019569 V 3.5887715 H 57.404584 112.04553 V 42.019569 80.45037 H 57.404584 2.7636407 Z M 37.005304,73.31429 v -0.7613 l -2.39055,-0.0455 c -1.98049,-0.0377 -2.48118,-0.0742 -2.91899,-0.21306 -0.66996,-0.21249 -1.18084,-0.64295 -1.32192,-1.11382 -0.13807,-0.46082 -0.15369,-14.19292 -0.0167,-14.68601 0.12597,-0.45344 0.56251,-0.86361 1.16825,-1.09768 0.47405,-0.18317 0.72153,-0.20322 2.9983,-0.24282 l 2.48161,-0.0432 V 54.34803 53.58517 H 24.665554 12.325807 v 0.76353 0.76353 l 2.436077,0.0467 c 1.9388,0.0371 2.53432,0.0781 2.91735,0.20046 0.65473,0.20922 1.07367,0.65125 1.20169,1.26794 0.0668,0.32164 0.0901,2.722 0.0728,7.48105 -0.023,6.32251 -0.0402,7.03434 -0.17641,7.28255 -0.50205,0.91518 -1.02215,1.0564 -4.10652,1.11504 l -2.345011,0.0446 v 0.7625 0.76249 h 12.339741 12.33975 z m 41.25391,0.58017 c 0.57601,-0.0474 1.66199,-0.13022 2.41331,-0.18402 3.03671,-0.21745 7.12059,-0.87843 9.6077,-1.55503 0.94148,-0.25612 2.08293,-0.62034 2.42707,-0.77444 0.15783,-0.0707 0.33605,-0.1285 0.39604,-0.1285 0.06,0 0.24846,-0.0615 0.41881,-0.1366 0.17036,-0.0751 0.44912,-0.19807 0.61947,-0.2732 0.17036,-0.0751 0.34866,-0.13661 0.39625,-0.13661 0.0476,0 0.28726,-0.1076 0.53265,-0.23911 0.24537,-0.13151 0.61005,-0.32253 0.8104,-0.42449 0.62622,-0.31868 1.68477,-0.99095 1.68477,-1.06998 0,-0.0415 0.0726,-0.0986 0.16133,-0.12671 0.19767,-0.0627 0.86546,-0.63453 1.3597,-1.16423 0.0602,-0.0645 0.16267,-0.16306 0.22767,-0.21895 0.065,-0.0559 0.17967,-0.19289 0.2548,-0.30446 0.0751,-0.11157 0.20832,-0.28726 0.29597,-0.39043 0.0877,-0.10317 0.159366,-0.22772 0.159366,-0.27679 0,-0.0491 0.0765,-0.15554 0.16992,-0.23659 0.0935,-0.081 0.19916,-0.28052 0.23491,-0.44326 0.0357,-0.16274 0.0989,-0.29588 0.14027,-0.29588 0.0414,0 0.10347,-0.20491 0.13791,-0.45535 0.0344,-0.25043 0.0998,-0.45534 0.14515,-0.45534 0.0454,0 0.0825,-0.22539 0.0825,-0.50087 0,-0.27548 0.041,-0.50088 0.0911,-0.50088 0.0501,0 0.0911,-0.18441 0.0911,-0.4098 0,-0.2254 -0.041,-0.40981 -0.0911,-0.40981 -0.0501,0 -0.0911,-0.2254 -0.0911,-0.50088 0,-0.27548 -0.0357,-0.50087 -0.0793,-0.50087 -0.0436,0 -0.10652,-0.20491 -0.13974,-0.45534 -0.0332,-0.25044 -0.1,-0.45535 -0.14833,-0.45535 -0.0484,0 -0.0879,-0.079 -0.0879,-0.17563 0,-0.0966 -0.0615,-0.2371 -0.1366,-0.31223 -0.0751,-0.0751 -0.1366,-0.18051 -0.1366,-0.23418 0,-0.0537 -0.0365,-0.0976 -0.0812,-0.0976 -0.0447,0 -0.1069,-0.10245 -0.138326,-0.22767 -0.0314,-0.12522 -0.0973,-0.22767 -0.14648,-0.22767 -0.0491,0 -0.0893,-0.0478 -0.0893,-0.10619 0,-0.11987 -0.063,-0.19342 -0.76672,-0.89556 -0.8469,-0.84496 -1.08318,-1.03708 -1.94161,-1.57872 -0.84764,-0.53485 -2.20696,-1.24439 -2.38395,-1.24439 -0.0542,0 -0.0986,-0.0357 -0.0986,-0.0792 0,-0.0436 -0.19466,-0.13275 -0.43257,-0.19817 -0.23792,-0.0654 -0.45307,-0.14469 -0.47811,-0.17619 -0.0725,-0.0912 -1.5904,-0.5941 -2.73205,-0.90514 -0.576,-0.15693 -1.17022,-0.32201 -1.32049,-0.36683 -0.15026,-0.0448 -0.51909,-0.12893 -0.81961,-0.1869 -0.30053,-0.058 -0.83328,-0.16581 -1.18389,-0.23962 -2.0389,-0.42925 -5.50144,-0.87648 -7.96847,-1.02924 -4.10456,-0.25415 -6.69485,-0.30794 -9.56216,-0.19856 -4.83393,0.1844 -5.73414,0.25078 -8.83362,0.65141 -2.41634,0.31234 -3.06399,0.42291 -5.00876,0.85515 -1.05704,0.23494 -1.77197,0.41635 -1.95796,0.49683 -0.10018,0.0434 -0.42803,0.1476 -0.72855,0.23168 -0.30053,0.0841 -0.62837,0.18604 -0.72855,0.22659 -0.10017,0.0405 -0.40753,0.14652 -0.68301,0.23549 -0.27548,0.089 -0.53981,0.19702 -0.58739,0.24011 -0.0476,0.0431 -0.15003,0.0791 -0.22767,0.08 -0.0776,9.4e-4 -0.42271,0.14437 -0.76683,0.31874 -0.34412,0.17437 -0.68221,0.31703 -0.75131,0.31703 -0.0691,0 -0.12564,0.041 -0.12564,0.0911 0,0.0501 -0.043,0.0911 -0.0954,0.0911 -0.0525,0 -0.31966,0.14344 -0.59371,0.31874 -0.27405,0.17531 -0.55895,0.31874 -0.63311,0.31874 -0.0742,0 -0.13483,0.0376 -0.13483,0.0836 0,0.046 -0.15213,0.17766 -0.33806,0.29257 -0.29888,0.18472 -0.7397,0.57258 -1.4833,1.30508 -0.43573,0.42922 -0.72855,0.80124 -0.72855,0.9256 0,0.0688 -0.0402,0.12516 -0.0893,0.12516 -0.0491,0 -0.11505,0.10245 -0.14648,0.22767 -0.0314,0.12522 -0.0937,0.22767 -0.13833,0.22767 -0.0447,0 -0.0812,0.0615 -0.0812,0.1366 0,0.0751 -0.0377,0.1366 -0.0838,0.1366 -0.0461,0 -0.11273,0.13319 -0.14805,0.29598 -0.0353,0.16278 -0.10112,0.31955 -0.14624,0.34836 -0.0451,0.0288 -0.10715,0.26446 -0.13785,0.52365 -0.0307,0.25918 -0.0911,0.47124 -0.13419,0.47124 -0.0431,0 -0.0784,0.53275 -0.0784,1.18389 0,0.65114 0.0357,1.18389 0.0793,1.18389 0.0436,0 0.10712,0.24588 0.14112,0.54641 0.034,0.30052 0.0962,0.5464 0.13823,0.5464 0.042,0 0.10332,0.14344 0.13621,0.31874 0.0329,0.17531 0.0989,0.31874 0.14673,0.31874 0.0478,0 0.0869,0.0615 0.0869,0.1366 0,0.0751 0.041,0.13661 0.0911,0.13661 0.0501,0 0.0911,0.0552 0.0911,0.12267 0,0.10805 0.0834,0.23125 0.45366,0.67033 0.051,0.0605 0.0928,0.13235 0.0928,0.15968 0,0.0597 1.33286,1.38728 1.64242,1.63593 0.38425,0.30865 1.75876,1.14519 1.88165,1.14519 0.0653,0 0.11866,0.041 0.11866,0.0911 0,0.0501 0.0415,0.0911 0.0922,0.0911 0.0507,0 0.40927,0.14696 0.79684,0.32658 1.2158,0.56346 1.42698,0.65463 1.6609,0.71699 0.12522,0.0334 0.30963,0.0986 0.4098,0.14492 0.10018,0.0463 0.63293,0.22273 1.18389,0.39201 3.15183,0.9684 7.29103,1.65087 12.02101,1.98201 3.56273,0.24942 9.97329,0.291 12.52188,0.0812 z m -8.60595,-1.8808 c -2.0945,-0.23876 -3.34086,-0.43698 -4.007,-0.63729 -1.22418,-0.36811 -1.95448,-0.6182 -2.3849,-0.81669 -0.25986,-0.11984 -0.49777,-0.21789 -0.52869,-0.21789 -0.1926,0 -1.62619,-1.04252 -2.08833,-1.51865 -0.81636,-0.84107 -0.93564,-0.98355 -1.00416,-1.19944 -0.0342,-0.10785 -0.0959,-0.19609 -0.13703,-0.19609 -0.0411,0 -0.1017,-0.14343 -0.13459,-0.31874 -0.0329,-0.17531 -0.0989,-0.31874 -0.14674,-0.31874 -0.0478,0 -0.0869,-0.082 -0.0869,-0.18214 0,-0.10017 -0.0385,-0.18213 -0.0855,-0.18213 -0.047,0 -0.11418,-0.19466 -0.14924,-0.43258 -0.0351,-0.23791 -0.10929,-0.46181 -0.16495,-0.49755 -0.14181,-0.0911 -0.14181,-4.51453 0,-4.60559 0.0557,-0.0357 0.12988,-0.25964 0.16495,-0.49755 0.0351,-0.23792 0.10222,-0.43258 0.14924,-0.43258 0.047,0 0.0855,-0.082 0.0855,-0.18213 0,-0.10018 0.041,-0.18214 0.0911,-0.18214 0.0501,0 0.0911,-0.079 0.0911,-0.17563 0,-0.0966 0.0561,-0.2317 0.12459,-0.30022 0.0685,-0.0685 0.15524,-0.22116 0.1927,-0.3392 0.0375,-0.11804 0.15557,-0.31083 0.26245,-0.42843 0.36106,-0.39722 1.12841,-1.16884 1.31386,-1.32115 0.37632,-0.30907 1.15854,-0.8049 1.26981,-0.8049 0.0633,0 0.11505,-0.041 0.11505,-0.0911 0,-0.0501 0.0435,-0.0911 0.0967,-0.0911 0.0532,0 0.30932,-0.0968 0.56917,-0.21502 1.41996,-0.64624 3.36922,-1.12434 5.47273,-1.34233 1.53951,-0.15955 5.92681,-0.21173 7.15735,-0.0851 1.96861,0.20252 3.17799,0.37229 3.52545,0.49488 0.19105,0.0674 0.52476,0.15252 0.74158,0.18916 0.37666,0.0636 1.6562,0.49796 1.9932,0.67658 0.088,0.0467 0.35298,0.16953 0.58874,0.27304 0.45781,0.20101 1.34488,0.74561 1.62162,0.99557 0.0923,0.0834 0.222,0.19978 0.2882,0.25867 0.0662,0.0589 0.24331,0.25393 0.39357,0.43343 0.15026,0.1795 0.3859,0.45325 0.52364,0.60834 0.13774,0.15509 0.25044,0.33912 0.25044,0.40895 0,0.0698 0.0377,0.12698 0.0838,0.12698 0.0461,0 0.11084,0.12294 0.14384,0.2732 0.033,0.15026 0.0977,0.27321 0.14384,0.27321 0.0461,0 0.0838,0.082 0.0838,0.18213 0,0.10018 0.0374,0.18214 0.0831,0.18214 0.0457,0 0.11217,0.17417 0.14775,0.38704 0.0356,0.21287 0.0998,0.4094 0.14265,0.43673 0.0429,0.0273 0.10537,0.40641 0.13888,0.84239 0.0335,0.43597 0.0959,0.79268 0.13857,0.79268 0.0427,0 0.0776,0.4303 0.0776,0.95622 0,0.52592 -0.0349,0.95621 -0.0776,0.95621 -0.0427,0 -0.10505,0.35671 -0.13857,0.79269 -0.0335,0.43598 -0.096,0.81505 -0.13888,0.84238 -0.0429,0.0273 -0.10707,0.22386 -0.14265,0.43674 -0.0356,0.21287 -0.10207,0.38704 -0.14775,0.38704 -0.0457,0 -0.0831,0.082 -0.0831,0.18213 0,0.10018 -0.0377,0.18214 -0.0838,0.18214 -0.0461,0 -0.11084,0.12294 -0.14384,0.2732 -0.033,0.15027 -0.0977,0.27321 -0.14384,0.27321 -0.0461,0 -0.0838,0.0563 -0.0838,0.12515 0,0.11983 -0.14296,0.3045 -0.79685,1.02933 -0.16278,0.18045 -0.29597,0.35402 -0.29597,0.38571 0,0.0317 -0.14343,0.13486 -0.31874,0.22927 -0.1753,0.0944 -0.31874,0.20036 -0.31874,0.23544 0,0.0837 -0.94677,0.66009 -1.41155,0.85943 -0.20035,0.0859 -0.43631,0.19432 -0.52436,0.24086 -0.34246,0.18105 -1.61882,0.61304 -1.9944,0.67502 -0.21749,0.0359 -0.43787,0.0993 -0.48974,0.14097 -0.10536,0.0846 -2.19647,0.41292 -3.45735,0.54284 -0.75563,0.0779 -5.93108,0.1023 -6.55691,0.031 z M 107.76532,25.946024 V 8.4153885 H 57.313514 6.8617117 V 25.946024 43.47666 H 57.313514 107.76532 Z M 23.071854,40.92316 c -3.24169,-0.07055 -7.42086,-0.233851 -9.26049,-0.361853 -0.710608,-0.04944 -1.681482,-0.0899 -2.157493,-0.0899 -0.477562,0 -0.89065,-0.04073 -0.921643,-0.09088 -0.03089,-0.04998 0.0028,-0.203662 0.07495,-0.341506 0.07212,-0.137844 0.243678,-0.57847 0.381246,-0.97917 0.618037,-1.800193 1.334449,-3.822348 1.70998,-4.826617 0.224753,-0.60105 0.52083,-1.418102 0.65795,-1.815669 0.35006,-1.014961 0.51564,-1.283393 0.78231,-1.268274 0.12007,0.0068 0.97645,0.08178 1.90307,0.166614 2.21686,0.202951 4.79028,0.382714 7.14886,0.499377 1.05184,0.05203 2.52714,0.136006 3.27846,0.18662 2.20232,0.148365 8.42599,0.119123 9.20426,-0.04324 0.84902,-0.177129 1.25595,-0.354794 1.48784,-0.649595 0.66516,-0.84562 -0.41047,-1.820583 -2.90577,-2.633814 -2.14342,-0.698552 -2.60847,-0.846038 -3.14185,-0.996399 -0.84865,-0.239236 -1.44878,-0.442095 -1.54361,-0.521777 -0.0476,-0.03998 -0.14204,-0.07269 -0.2099,-0.07269 -0.10684,0 -0.42703,-0.12586 -1.16068,-0.456238 -0.10017,-0.04511 -0.44851,-0.190379 -0.77408,-0.322819 -2.65791,-1.081223 -5.31222,-3.062869 -6.30203,-4.704945 -0.66708,-1.106687 -0.75576,-1.420598 -0.75576,-2.675393 0,-0.671109 0.0396,-1.151556 0.10128,-1.229422 0.0557,-0.0703 0.12782,-0.239001 0.16026,-0.374896 0.10326,-0.43255 0.692,-1.338698 1.17623,-1.810358 0.55077,-0.53648 1.68115,-1.29337 2.54455,-1.703798 0.33704,-0.160214 0.6444,-0.291439 0.68301,-0.291611 0.0386,-1.82e-4 0.35912,-0.118043 0.71221,-0.261937 0.3531,-0.143893 0.84487,-0.309897 1.09282,-0.368898 0.24796,-0.059 0.69671,-0.169035 0.99724,-0.244519 1.75604,-0.441072 4.33665,-0.860808 6.37478,-1.036857 0.55096,-0.04759 1.41155,-0.127236 1.91243,-0.176989 0.50087,-0.04975 1.5049,-0.113847 2.23117,-0.14243 0.72627,-0.02858 2.11961,-0.09203 3.09632,-0.141005 4.36426,-0.218812 18.05517,-0.275083 18.25495,-0.07503 0.031,0.03102 -0.27388,0.994066 -0.67746,2.140104 -0.40358,1.146037 -0.80509,2.288608 -0.89225,2.539045 -0.15702,0.451192 -0.16261,0.455816 -0.61275,0.507442 -0.24986,0.02866 -4.28598,0.05979 -8.96917,0.06918 -13.15117,0.02637 -16.12955,0.23849 -17.26661,1.229719 -0.35083,0.305833 -0.40063,0.395394 -0.40063,0.720496 0,0.31061 0.0528,0.418266 0.32354,0.659088 0.34136,0.303691 1.11793,0.721892 1.95317,1.05183 0.27548,0.108821 0.58284,0.230272 0.68301,0.269892 0.33808,0.133712 0.998,0.347333 1.68477,0.545374 0.37565,0.108327 0.78546,0.232327 0.91068,0.275556 0.12522,0.04323 0.36976,0.106862 0.54342,0.141406 0.17366,0.03454 0.37856,0.09578 0.45534,0.136085 0.0768,0.0403 0.324,0.119665 0.5494,0.176363 2.36315,0.594454 2.98245,0.764186 3.32399,0.911009 0.10017,0.04306 0.48949,0.167711 0.86515,0.276994 1.28381,0.373473 1.59379,0.46798 1.77583,0.541407 0.10017,0.04041 0.55096,0.202563 1.00175,0.360347 0.45079,0.157784 0.94255,0.342401 1.09282,0.410259 1.42635,0.644139 1.77583,0.818163 1.77583,0.884275 0,0.04219 0.0545,0.07671 0.12122,0.07671 0.0667,0 0.55405,0.286935 1.08305,0.637634 0.96156,0.637449 2.43846,2.047534 2.43846,2.328135 0,0.0718 0.0343,0.130551 0.0763,0.130551 0.12143,0 0.56468,0.97251 0.75303,1.652166 0.32166,1.160753 0.20279,3.260845 -0.24927,4.403872 -0.37511,0.948474 -0.88845,1.8755 -1.34402,2.427157 -2.08949,2.530165 -5.37331,3.755772 -11.18961,4.176242 -3.46965,0.250828 -10.05018,0.321053 -16.64185,0.177595 z m 31.78282,-0.07313 c 0,-0.102279 0.19286,-0.644722 0.40983,-1.152698 0.0642,-0.150262 0.32417,-0.887915 0.57775,-1.639228 0.51089,-1.513695 1.25798,-3.658418 2.09369,-6.010504 0.90932,-2.559282 1.04022,-2.909226 1.13266,-3.028019 0.0588,-0.07552 0.36832,-0.115604 0.91981,-0.119091 1.85506,-0.01173 5.56471,-0.420798 7.70688,-0.84985 1.35967,-0.272327 2.61827,-0.578585 2.82611,-0.687687 0.0768,-0.0403 0.28033,-0.104188 0.45235,-0.141969 0.17202,-0.03778 0.37558,-0.101012 0.45235,-0.140512 0.0768,-0.0395 0.42646,-0.159748 0.77707,-0.267218 0.75383,-0.231063 0.68768,-0.203299 2.16788,-0.909956 0.64138,-0.306194 1.37903,-0.707283 1.63923,-0.891309 0.792,-0.56013 1.57797,-1.373524 1.89886,-1.965125 0.27502,-0.507015 0.3041,-0.632041 0.30008,-1.289975 -0.003,-0.515734 -0.0517,-0.817473 -0.16609,-1.032981 -0.0889,-0.167439 -0.14836,-0.312257 -0.13214,-0.321818 0.09,-0.05305 0.71152,-0.232403 0.9857,-0.284429 0.1753,-0.03327 0.44168,-0.09868 0.59194,-0.145355 0.15026,-0.04668 0.86743,-0.227429 1.59369,-0.401664 0.72627,-0.174235 1.54589,-0.380516 1.82137,-0.458402 0.78156,-0.220966 1.04448,-0.288463 2.50438,-0.642915 0.75131,-0.182414 1.89877,-0.474316 2.54991,-0.64867 0.65113,-0.174356 1.94203,-0.501114 2.86865,-0.726131 0.92662,-0.225017 1.91015,-0.468766 2.18563,-0.541664 0.27549,-0.0729 0.93118,-0.231492 1.4571,-0.352429 0.52592,-0.120938 1.10116,-0.266006 1.27832,-0.322373 0.29971,-0.09536 0.37665,-0.07371 1.1066,0.311275 4.575736,2.413337 7.123396,5.945969 6.412366,8.891547 -0.38795,1.607189 -0.78118,2.328322 -1.94154,3.560489 -1.24343,1.320382 -2.685706,2.524336 -4.305836,3.594326 -0.52592,0.347336 -0.97671,0.656876 -1.00175,0.687868 -0.2021,0.250097 -4.48034,2.35696 -4.78609,2.35696 -0.064,0 -0.13008,0.03276 -0.14678,0.0728 -0.0657,0.157584 -3.62597,1.409357 -5.31231,1.867789 -0.10018,0.02723 -0.63293,0.178851 -1.18389,0.336929 -0.55096,0.158077 -1.24763,0.342791 -1.54816,0.410475 -0.30052,0.06768 -0.60788,0.146384 -0.68301,0.174888 -0.45129,0.171215 -3.69342,0.794161 -5.7373,1.102368 -0.52592,0.07931 -1.18161,0.18037 -1.45709,0.224586 -0.27548,0.04422 -1.23853,0.16462 -2.1401,0.267563 -0.90158,0.102943 -1.98757,0.229058 -2.41331,0.280254 -2.11943,0.254864 -7.1113,0.583717 -11.11033,0.731923 -1.32732,0.04919 -2.91532,0.114689 -3.52889,0.14555 -0.79442,0.03996 -1.11559,0.02683 -1.11559,-0.04561 z m 21.2393,-22.035898 c -0.31434,-0.234724 -0.5638,-0.467753 -0.55435,-0.51784 0.01,-0.05009 0.20517,-0.167784 0.43494,-0.261549 0.22976,-0.09376 0.54069,-0.221996 0.69095,-0.284961 0.15027,-0.06296 0.76498,-0.309854 1.36603,-0.548643 0.60105,-0.238789 1.1338,-0.463192 1.18389,-0.498672 0.0501,-0.03548 0.21401,-0.108465 0.36427,-0.162187 0.50474,-0.180456 4.73213,-1.856707 5.09982,-2.022186 0.10018,-0.04508 0.55096,-0.231949 1.00175,-0.415255 0.45079,-0.183305 1.24991,-0.513813 1.77583,-0.734462 0.52592,-0.220648 1.05913,-0.400818 1.18492,-0.400378 0.36732,0.0013 3.27743,1.053139 3.27743,1.18462 0,0.03615 -1.44457,0.543673 -3.21016,1.127835 -1.76559,0.584162 -3.27297,1.096927 -3.34975,1.13948 -0.0768,0.04255 -0.28033,0.10828 -0.45235,0.146061 -0.17202,0.03778 -0.37558,0.102087 -0.45235,0.1429 -0.0768,0.04081 -0.52891,0.194536 -1.00474,0.341605 -1.23528,0.3818 -4.61903,1.499093 -5.69144,1.879275 -0.50069,0.177503 -0.95148,0.320123 -1.00175,0.316932 -0.0503,-0.0032 -0.34859,-0.19785 -0.66294,-0.432575 z m -4.84702,-1.709287 c -0.57656,-0.142762 -2.08149,-0.382347 -3.14185,-0.500183 -0.4007,-0.04453 -1.00593,-0.122671 -1.34495,-0.173649 -0.33902,-0.05098 -1.17016,-0.09269 -1.84699,-0.09269 -0.93944,0 -1.24157,-0.02863 -1.27703,-0.121024 -0.0255,-0.06656 0.0782,-0.4447 0.23053,-0.840304 0.15233,-0.395604 0.27697,-0.755003 0.27697,-0.798663 0,-0.04366 0.0575,-0.208518 0.12781,-0.36635 0.0703,-0.157832 0.27722,-0.737755 0.45984,-1.288718 0.18262,-0.550963 0.36578,-1.064567 0.40702,-1.141342 0.0412,-0.07678 0.10512,-0.276764 0.14194,-0.444418 l 0.0669,-0.304825 5.02168,0.05137 c 4.83465,0.04945 7.45622,0.149868 8.70995,0.33362 0.32557,0.04772 0.89102,0.113243 1.25655,0.145615 0.38822,0.03438 0.65171,0.09754 0.6336,0.151885 -0.0348,0.104472 -4.01014,2.621296 -5.25229,3.325293 -0.22133,0.125442 -0.69261,0.420433 -1.04729,0.655535 -0.35467,0.235103 -0.78829,0.5149 -0.96359,0.621771 -1.71707,1.046774 -1.58316,1.003909 -2.45885,0.78708 z"
       id="path183" /></g></svg>
