<?xml version="1.0" encoding="utf-8"?>
<!-- Generator: Adobe Illustrator 22.1.0, SVG Export Plug-In . SVG Version: 6.00 Build 0)  -->
<svg version="1.1" id="Layer_1" xmlns="http://www.w3.org/2000/svg" xmlns:xlink="http://www.w3.org/1999/xlink" x="0px" y="0px"
	 viewBox="0 0 20.033754 12.897679" enable-background="new 0 0 20.033754 12.897679" xml:space="preserve">
<g id="SDUC">
	<path d="M9.282629,4.597224C9.087622,2.293238,4.863623,2.767237,4.883581,1.884241
		c0.014038-0.580994,5.496033-0.334991,5.496033-0.334991l0.45697-1.13501c0,0-8.226013-0.605011-8.190002,1.656006
		c0.025024,1.731995,3.536987,1.798981,3.48999,2.410004c-0.036987,0.431-1.936951,0.304993-3.108948,0.185974
		C1.847571,4.557246,1.351599,4.479243,1.351599,4.479243L0.67362,6.441248c0,0,2.089966,0.117004,3.295959,0.117004
		C5.188574,6.558253,9.474585,6.894251,9.282629,4.597224"/>
	<path d="M15.079992,0.564936c-0.843018-0.105988-1.888-0.175995-3.14502-0.148987l-0.392029,1.085999
		c0.153992,0.002014,0.997009,0.024017,1.749023,0.192017L15.079992,0.564936z"/>
	<path d="M14.289526,2.085444l3.064941-1.027984c-0.23999-0.076996-0.522949-0.160004-0.876953-0.23999l-2.51001,1.082977
		C14.083471,1.957453,14.200476,2.018458,14.289526,2.085444"/>
	<path d="M14.558996,2.562037c0,1.02002-1.58606,1.356018-3.946045,1.536011v0.005005L9.733984,6.559046
		c0,0,8.567993,0.156006,9.895996-3.053986c0.510986-1.231018-1.179993-1.986023-1.437988-2.093018l-3.684021,0.930023
		C14.541967,2.412043,14.558996,2.48205,14.558996,2.562037"/>
	<path d="M8.502295,7.814936h1.439941l-1.57196,2.798004c-0.35199,0.627014-0.940002,1.130005-1.596008,1.464996
		c-0.836975,0.426025-1.838989,0.482025-3.429992,0.482025c-1.679993,0-2.233032-0.365021-2.59198-0.70401
		c-0.335022-0.31601-0.468018-1.053009-0.122009-1.669006l1.291992-2.372009H3.36228l-1.067993,1.95401
		c-0.187012,0.332001-0.281006,0.644012-0.087036,0.832001c0.769043,0.746002,3.023987,0.653015,4.03302,0.218018
		c0.302979-0.131012,0.90802-0.483002,1.210999-1.083008L8.502295,7.814936z"/>
	<path d="M16.18302,12.560114h-3.585022c-0.673035,0-1.195984-0.020996-1.561035-0.063995
		c-0.516968-0.061981-0.958984-0.184998-1.328979-0.360992c-0.83197-0.399994-1.046997-1.023987-0.645996-1.868011
		c0.393005-0.828979,1.067993-1.442993,2.023987-1.838989c0.487-0.200989,1.041992-0.355988,1.665039-0.458984
		C13.4,7.866145,14.11698,7.815119,14.905005,7.815119h3.532959l-0.457947,0.966003h-3.487
		c-0.784058,0-1.397034,0.115997-1.83905,0.350006c-0.445007,0.235016-0.796997,0.627991-1.060974,1.182007
		c-0.224976,0.473999-0.218994,0.809998,0.020996,1.001007c0.22699,0.186981,0.742004,0.280975,1.544006,0.280975h3.484985
		L16.18302,12.560114z"/>
</g>
<g id="micro_SDUC" display="none">
	<path display="inline" d="M6.985693,7.897784L6.516638,9.253802c0,0,1.438049,0.079987,2.27301,0.079987
		c0.835999,0,3.783997,0.235016,3.656006-1.358979c-0.130981-1.596008-3.042969-1.265015-3.028015-1.881012
		c0.007996-0.39801,3.787048-0.233002,3.787048-0.233002l0.310974-0.785004c0,0-5.666992-0.417999-5.638,1.149994
		c0.017029,1.197998,2.434021,1.248016,2.400024,1.671997c-0.022034,0.292023-1.332031,0.210022-2.140015,0.131012
		C7.327673,7.948809,6.985693,7.897784,6.985693,7.897784"/>
	<path display="inline" d="M16.438879,5.182971c-0.581055-0.074982-1.298035-0.120972-2.164001-0.106995l-0.268005,0.753021
		c0.099976,0,0.682983,0.018982,1.203003,0.134003L16.438879,5.182971"/>
	<path display="inline" d="M18.00382,5.522784c-0.160034-0.054993-0.358032-0.112976-0.596008-0.168976L15.67478,6.106799
		c0.082031,0.037994,0.155029,0.07901,0.221985,0.127014L18.00382,5.522784"/>
	<path display="inline" d="M18.581884,5.765978l-2.534058,0.649017c0.022034,0.041992,0.035034,0.093994,0.035034,0.14801
		c0,0.708984-1.093994,0.940979-2.721008,1.065002l-0.002014,0.007996l-0.597961,1.696991c0,0,5.899963,0.109985,6.815002-2.114014
		C19.925879,6.364001,18.762854,5.839007,18.581884,5.765978"/>
	<path display="inline" d="M2.781592,7.192767V2.03377c0-0.216003-0.162048-0.402985-0.482056-0.402985
		c-0.321961,0-0.481995,0.186981-0.481995,0.402985v5.158997H0.510534V1.741778c0-0.809998,0.824036-1.320984,1.729004-1.320984
		c0.432007,0,0.873047,0.208984,1.170044,0.488983c0.294983-0.279999,0.734009-0.488983,1.166992-0.488983
		c0.904968,0,1.729004,0.510986,1.729004,1.320984v5.450989h-1.30603L5.000586,2.03377
		c0-0.216003-0.161011-0.402985-0.483032-0.402985c-0.320984,0-0.482971,0.186981-0.482971,0.402985v5.158997H2.781592"/>
	<path display="inline" d="M11.725012,0.952471c0,0.563019-0.532043,0.593018-0.532043,0.593018h-0.726013
		c-0.655945,0-1.000977,0.39801-1.000977,0.915009c0,0.515991,0.345032,0.923004,1.000977,0.923004h0.726013
		c0,0,0.532043,0.08197,0.532043,0.552979c0,0.473999-0.532043,0.618011-0.532043,0.618011h-0.77301
		c-1.148987,0-2.307007-0.768005-2.307007-2.093994c0-1.319,1.15802-2.094025,2.307007-2.094025h0.77301
		C11.192968,0.366473,11.725012,0.385485,11.725012,0.952471"/>
	<path display="inline" d="M17.672827,0.366778c1.463989,0,1.96698,1,1.96698,2.117004c0,1.112-0.509033,2.065002-1.96698,2.065002
		c-1.44104,0-1.975037-0.946991-1.975037-2.062988C15.69779,1.368792,16.206823,0.366778,17.672827,0.366778 M17.672827,3.442767
		c0.65094,0,0.85498-0.304993,0.85498-0.958984c0-0.652008-0.204041-1.023987-0.843994-1.023987
		c-0.66803,0-0.880005,0.383972-0.880005,1.023987C16.803808,3.130785,17.018774,3.442767,17.672827,3.442767"/>
	<path display="inline" d="M11.938879,4.569689h1.202942V1.858691c0,0-0.020996-0.488983,0.537048-0.488983
		c0.480957,0,0.638,0.237,0.638,0.237l-0.001038,0.359985c0,0,0.106995,0.306,0.629028,0.306
		c0.521973,0,0.584961-0.299988,0.584961-0.299988V1.590716c0,0,0.015015-1.25-1.665955-1.25
		c-1.954041,0-1.924988,1.341003-1.924988,1.341003V4.569689"/>
	<path display="inline" d="M7.239721,1.656573c0.369995,0,0.659973-0.26297,0.659973-0.616974
		c0-0.35202-0.289978-0.619019-0.659973-0.619019c-0.370056,0-0.659058,0.266998-0.659058,0.619019
		C6.580664,1.393603,6.869665,1.656573,7.239721,1.656573"/>
	<path display="inline" d="M7.274817,1.786486c-0.518005,0-0.669006,0.344025-0.669006,0.344025v2.522003h1.261963V2.130511
		C7.867773,2.130511,7.746801,1.786486,7.274817,1.786486"/>
	<path display="inline" d="M10.267004,10.465167h1.269958l-1.385986,2.46701c-0.310974,0.553009-0.828979,0.997009-1.40802,1.291992
		c-0.737976,0.376007-1.622009,0.426025-3.024963,0.426025c-1.481018,0-1.968994-0.322998-2.286011-0.622009
		c-0.294983-0.278992-0.411987-0.927002-0.106995-1.471008l1.140014-2.09201h1.268982l-0.942017,1.72403
		c-0.164978,0.292999-0.247986,0.565979-0.075989,0.732971c0.677002,0.65802,2.666992,0.576019,3.555969,0.192017
		c0.267029-0.11499,0.801025-0.424988,1.068054-0.955017L10.267004,10.465167z"/>
	<path display="inline" d="M17.26499,14.649768h-3.212036c-0.604004,0-1.070007-0.019989-1.398987-0.056976
		c-0.462036-0.056-0.858032-0.162018-1.190002-0.31601c-0.744019-0.355011-0.937012-0.904999-0.578003-1.648987
		c0.353027-0.732025,0.95697-1.272003,1.812012-1.623016c0.435974-0.178009,0.93396-0.313995,1.492981-0.403992
		c0.580994-0.091003,1.223022-0.136017,1.927979-0.136017h3.165039l-0.411011,0.85202h-3.122009
		c-0.701965,0-1.252014,0.104004-1.648987,0.30899c-0.397034,0.208008-0.713013,0.554993-0.949036,1.042999
		c-0.201965,0.419006-0.195984,0.712006,0.019043,0.881989c0.203003,0.164001,0.664001,0.247009,1.381958,0.247009h3.122009
		L17.26499,14.649768z"/>
</g>
<g>
</g>
<g>
</g>
<g>
</g>
<g>
</g>
<g>
</g>
<g>
</g>
</svg>
