<?xml version="1.0" encoding="utf-8"?>
<!-- Generator: Adobe Illustrator 14.0.0, SVG Export Plug-In . SVG Version: 6.00 Build 43363)  -->
<!DOCTYPE svg PUBLIC "-//W3C//DTD SVG 1.1//EN" "http://www.w3.org/Graphics/SVG/1.1/DTD/svg11.dtd">
<svg version="1.1" id="svg18998" xmlns:svg="http://www.w3.org/2000/svg"
	 xmlns="http://www.w3.org/2000/svg" xmlns:xlink="http://www.w3.org/1999/xlink" x="0px" y="0px" width="509.031px"
	 height="306.556px" viewBox="0 0 509.031 306.556" enable-background="new 0 0 509.031 306.556" xml:space="preserve">
<g id="layer1" transform="translate(48.1805,-428.3616)">
	<g id="g19013" transform="translate(3.541339,3.537934)">
		<path id="path15576" fill="#231F20" d="M157.508,537.586c6.592-28.805-18.561-42.294-48.379-51.219
			c-20.285-5.984-57-14.301-57-21.502c0-9.23,24.646-8.925,41.787-9.433c18.764-0.507,91.181-0.608,91.181-0.608l9.128-26.066
			c0,0-52.132-1.42-103.757,1.115C15.92,433.626,2.025,450.159,0.3,465.981c-2.231,20.487,25.458,34.687,42.193,41.178
			c15.923,6.085,41.279,10.548,41.279,18.459c0,6.39-9.534,6.897-37.02,6.39c-42.497-0.811-78.3-4.97-78.3-4.97l-16.633,46.047
			c0,0,40.569,2.839,83.776,2.839C97.262,575.924,148.177,578.257,157.508,537.586"/>
		<path id="path15578" fill="#231F20" d="M282.564,476.732c0.507,1.115,0.913,2.13,1.115,3.246c0.608,4.26-1.115,8.52-5.071,12.577
			c-4.057,4.057-10.345,7.911-18.256,11.258c-8.013,3.448-17.852,6.288-28.805,8.52c-11.055,2.13-29.515,3.956-42.294,4.361
			L168.36,575.62c48.278-2.13,181.854-1.623,233.175-65.419c6.491-10.143,7.606-20.589,2.028-30.731
			c-6.187-11.461-18.054-20.285-32.354-27.385l-89.761,22.618C281.854,475.413,282.26,476.123,282.564,476.732"/>
		<path id="path15580" fill="#231F20" d="M275.059,468.618c0.404,0.305,0.709,0.608,1.217,0.913l75.865-25.153
			c-5.173-2.231-12.374-4.868-17.648-6.288l-65.723,26.472C270.597,465.474,273.538,467.603,275.059,468.618"/>
		<path id="path15582" fill="#231F20" d="M253.456,459.794l44.829-27.892c-10.853-1.521-19.88-2.231-25.153-2.434
			c-20.995-0.507-29.312-0.913-52.537-0.812l-9.332,26.269c5.781,0.102,8.316-0.101,18.054,0.812
			C238.14,456.548,246.255,457.968,253.456,459.794"/>
		<path id="path15586" fill="#231F20" d="M415.126,455.432l3.347-23.328h7.506l0.507-3.448h-18.764l-0.507,3.448h7.505
			l-3.347,23.328H415.126z"/>
		<path id="path15588" fill="#231F20" d="M453.768,455.432v-26.776h-3.448l-9.737,18.256l-4.158-18.256h-3.043l-8.823,26.776h3.55
			l6.593-20.488h0.101l4.564,20.488l10.853-20.285h0.102v20.285H453.768z"/>
	</g>
</g>
<g id="XMLID_1_">
	<g>
		<polygon fill="#231F20" points="261.075,160.634 166.792,225.203 231.634,284.163 191.17,283.794 140.966,239.736 48.145,306.186 
			3.542,306.556 123.362,225.404 57.347,160.634 94.597,160.634 148.167,209.897 220.598,160.634 		"/>
	</g>
	<g>
	</g>
</g>
<g id="XMLID_2_">
	<g>
		<path fill="#231F20" d="M433.016,160.636l-9,24.63h-91c-58,0-101.37,76.5-26.52,76.5h88.52l-9,22.399l-102-0.189
			c-63.42-0.18-63.93-98.71,36.48-123.34H433.016z"/>
	</g>
	<g>
	</g>
</g>
</svg>
