DBRep_DrawableShape

CASCADE Topology V1, (c) Matra-Datavision
Locations 25
1
              1               0               0               0 
              0               1               0               0 
              0               0               1               0 
1
              1               0               0               0 
              0               1               0               0 
              0               0               1             400 
1
              1               0               0               0 
              0               1               0               0 
              0               0               1               0 
2  2 1 3 1 0
2  1 -1 3 -1 2 -1 0
2  2 -1 0
1
              1               0               0             1.5 
              0               1               0             1.5 
              0               0               1               0 
2  1 -1 3 -1 0
1
              1               0               0             848 
              0               1               0             498 
              0               0               1               0 
1
              1               0               0             848 
              0               1               0             1.5 
              0               0               1               0 
1
              1               0               0             1.5 
              0               1               0             498 
              0               0               1               0 
2  7 -1 0
2  1 -1 3 -1 7 -1 0
2  9 -1 0
2  1 -1 3 -1 9 -1 0
2  10 -1 0
2  1 -1 3 -1 10 -1 0
2  11 -1 0
2  1 -1 3 -1 11 -1 0
2  7 1 3 1 0
2  9 1 3 1 0
2  10 1 3 1 0
2  11 1 3 1 0
1
              1               0               0               5 
              0               1               0            52.5 
              0               0               1             200 
2  1 -1 24 -1 0
Curve2ds 144
1 0 0 1 0 
1 0 0 1 0 
1 50 0 0 -1 
1 0 0 0 1 
1 0 -550 1 0 
1 0 0 1 0 
1 0 0 0 -1 
1 0 0 0 1 
1 0 0 0 1 
1 0 0 1 0 
1 0 900 1 0 
1 0 0 1 0 
1 50 0 0 1 
1 0 0 1 0 
1 0 550 1 0 
1 50 0 0 1 
1 900 0 0 1 
1 50 0 0 -1 
1 0 0 0 1 
1 0 550 1 0 
1 0 900 1 0 
1 0 -550 1 0 
1 0.75 1.5 -1 0 
1 400 -0.75 0 -1 
1 52 0.75 0 1 
1 400 0.75 0 -1 
1 0.75 52 -1 0 
1 400 -0.75 0 -1 
1 1.5 0.75 0 1 
1 400 0.75 0 -1 
1 424 498 -1 0 
1 400 -424 0 -1 
1 898.5 249 0 1 
1 400 249 0 -1 
1 848 249 0 1 
1 400 249 0 -1 
1 424 548.5 -1 0 
1 400 -424 0 -1 
1 424 1.5 -1 0 
1 400 -424 0 -1 
1 898.5 0.75 0 1 
1 400 0.75 0 -1 
1 848 0.75 0 1 
1 400 0.75 0 -1 
1 424 52 -1 0 
1 400 -424 0 -1 
1 0.75 498 -1 0 
1 400 -0.75 0 -1 
1 52 249 0 1 
1 400 249 0 -1 
1 1.5 249 0 1 
1 400 249 0 -1 
1 0.75 548.5 -1 0 
1 400 -0.75 0 -1 
1 900 0 0 1 
1 0 0 0 -1 
1 0 0 1 0 
1 0 0 1 0 
1 0 0 0 1 
1 0 0 1 0 
1 0 50.5 1 0 
1 0 0 1 0 
1 0 -50.5 1 0 
1 0 50.5 1 0 
1 0 0 0 -1 
1 50.5 0 0 1 
1 0 0 1 0 
1 0 -50.5 1 0 
1 0 0 0 1 
1 0 50.5 1 0 
1 0 0 0 -1 
1 0 0 0 1 
1 0 0 1 0 
1 0 0 1 0 
1 0 0 0 1 
1 0 0 1 0 
1 0 50.5 1 0 
1 0 0 1 0 
1 0 -50.5 1 0 
1 0 50.5 1 0 
1 0 0 0 -1 
1 50.5 0 0 1 
1 0 -50.5 1 0 
1 0 0 1 0 
1 0 0 0 -1 
1 0 0 0 1 
1 0 0 0 1 
1 0 50.5 1 0 
1 0 0 1 0 
1 0 0 1 0 
1 0 0 0 1 
1 0 0 1 0 
1 0 50.5 1 0 
1 0 0 1 0 
1 0 -50.5 1 0 
1 0 50.5 1 0 
1 0 0 0 -1 
1 50.5 0 0 1 
1 0 -50.5 1 0 
1 0 0 1 0 
1 0 0 0 -1 
1 0 0 0 1 
1 0 0 0 1 
1 0 50.5 1 0 
1 0 0 1 0 
1 0 0 1 0 
1 0 0 0 1 
1 0 0 1 0 
1 0 50.5 1 0 
1 0 0 1 0 
1 0 -50.5 1 0 
1 0 50.5 1 0 
1 0 0 0 -1 
1 50.5 0 0 1 
1 0 -50.5 1 0 
1 0 0 1 0 
1 0 0 0 -1 
1 0 0 0 1 
1 0 0 0 1 
1 0 50.5 1 0 
1 0 0 1 0 
1 0 0 1 0 
1 12.199999809265137 0 0 -1 
1 0 0 0 1 
1 0 -445 1 0 
1 0 0 1 0 
1 0 0 0 -1 
1 0 0 0 1 
1 0 0 0 1 
1 0 0 1 0 
1 0 890 1 0 
1 0 0 1 0 
1 12.199999809265137 0 0 1 
1 0 0 1 0 
1 0 445 1 0 
1 12.199999809265137 0 0 1 
1 890 0 0 1 
1 12.199999809265137 0 0 -1 
1 0 0 0 1 
1 0 445 1 0 
1 0 890 1 0 
1 0 -445 1 0 
1 890 0 0 1 
1 0 0 0 -1 
Curves 72
1 0 0 0 0 0 1 
1 0 0 50 0 1 0 
1 0 550 0 0 0 1 
1 0 0 0 0 1 0 
1 0 0 0 1 0 0 
1 900 0 0 0 0 1 
1 0 0 50 1 0 0 
1 0 550 50 1 0 0 
1 900 0 50 0 1 0 
1 0 550 0 1 0 0 
1 900 550 0 0 0 1 
1 0.75 1.5 400 -1 0 0 
1 52 0.75 400 0 1 0 
1 0.75 52 400 -1 0 0 
1 1.5 0.75 400 0 1 0 
1 424 498 400 -1 0 0 
1 898.5 249 400 0 1 0 
1 848 249 400 0 1 0 
1 424 548.5 400 -1 0 0 
1 424 1.5 400 -1 0 0 
1 898.5 0.75 400 0 1 0 
1 848 0.75 400 0 1 0 
1 424 52 400 -1 0 0 
1 0.75 498 400 -1 0 0 
1 52 249 400 0 1 0 
1 1.5 249 400 0 1 0 
1 0.75 548.5 400 -1 0 0 
1 900 0 0 0 1 0 
1 0 0 0 0 0 1 
1 0 0 0 1 0 0 
1 50.5 0 0 0 0 1 
1 50.5 50.5 0 0 0 1 
1 50.5 0 0 0 1 0 
1 0 50.5 0 0 0 1 
1 0 50.5 0 1 0 0 
1 0 0 0 0 1 0 
1 0 0 0 0 0 1 
1 0 0 0 1 0 0 
1 50.5 0 0 0 0 1 
1 50.5 50.5 0 0 0 1 
1 50.5 0 0 0 1 0 
1 0 50.5 0 0 0 1 
1 0 0 0 0 1 0 
1 0 50.5 0 1 0 0 
1 0 0 0 0 0 1 
1 0 0 0 1 0 0 
1 50.5 0 0 0 0 1 
1 50.5 50.5 0 0 0 1 
1 50.5 0 0 0 1 0 
1 0 50.5 0 0 0 1 
1 0 0 0 0 1 0 
1 0 50.5 0 1 0 0 
1 0 0 0 0 0 1 
1 0 0 0 1 0 0 
1 50.5 0 0 0 0 1 
1 50.5 50.5 0 0 0 1 
1 50.5 0 0 0 1 0 
1 0 50.5 0 0 0 1 
1 0 0 0 0 1 0 
1 0 50.5 0 1 0 0 
1 0 0 0 0 0 1 
1 0 0 12.199999809265137 0 1 0 
1 0 445 0 0 0 1 
1 0 0 0 0 1 0 
1 0 0 0 1 0 0 
1 890 0 0 0 0 1 
1 0 0 12.199999809265137 1 0 0 
1 0 445 12.199999809265137 1 0 0 
1 890 0 12.199999809265137 0 1 0 
1 0 445 0 1 0 0 
1 890 445 0 0 0 1 
1 890 0 0 0 1 0 
Polygon3D 0
PolygonOnTriangulations 144
2 1 2 
p 3.16666666666667 1 0 50 
2 1 4 
p 3.16666666666667 1 0 50 
2 2 3 
p 3.16666666666667 1 0 550 
2 1 2 
p 3.16666666666667 1 0 550 
2 4 3 
p 3.16666666666667 1 0 50 
2 1 4 
p 3.16666666666667 1 0 50 
2 1 4 
p 3.16666666666667 1 0 550 
2 17 18 
p 3.16666666666667 1 0 550 
2 1 2 
p 3.16666666666667 1 0 900 
2 17 20 
p 3.16666666666667 1 0 900 
2 2 3 
p 3.16666666666667 1 0 50 
2 1 2 
p 3.16666666666667 1 0 50 
2 4 3 
p 3.16666666666667 1 0 900 
2 1 4 
p 3.16666666666667 1 0 900 
2 2 3 
p 3.16666666666667 1 0 900 
2 4 3 
p 3.16666666666667 1 0 900 
2 4 3 
p 3.16666666666667 1 0 550 
2 2 3 
p 3.16666666666667 1 0 550 
2 1 2 
p 3.16666666666667 1 0 900 
2 18 19 
p 3.16666666666667 1 0 900 
2 2 3 
p 3.16666666666667 1 0 50 
2 4 3 
p 3.16666666666667 1 0 50 
2 1 2 
p 3.16666666666667 1 -51.25 -0.75 
2 1 2 
p 3.16666666666667 1 -51.25 -0.75 
2 1 3 
p 3.16666666666667 1 0.75 51.25 
2 1 2 
p 3.16666666666667 1 0.75 51.25 
2 3 4 
p 3.16666666666667 1 -51.25 -0.75 
2 1 2 
p 3.16666666666667 1 -51.25 -0.75 
2 2 4 
p 3.16666666666667 1 0.75 51.25 
2 1 2 
p 3.16666666666667 1 0.75 51.25 
2 5 6 
p 3.16666666666667 1 -474.5 -424 
2 1 2 
p 3.16666666666667 1 -474.5 -424 
2 5 7 
p 3.16666666666667 1 249 299.5 
2 1 2 
p 3.16666666666667 1 249 299.5 
2 6 8 
p 3.16666666666667 1 249 299.5 
2 1 2 
p 3.16666666666667 1 249 299.5 
2 7 8 
p 3.16666666666667 1 -474.5 -424 
2 1 2 
p 3.16666666666667 1 -474.5 -424 
2 9 10 
p 3.16666666666667 1 -474.5 -424 
2 1 2 
p 3.16666666666667 1 -474.5 -424 
2 9 11 
p 3.16666666666667 1 0.75 51.25 
2 1 2 
p 3.16666666666667 1 0.75 51.25 
2 10 12 
p 3.16666666666667 1 0.75 51.25 
2 1 2 
p 3.16666666666667 1 0.75 51.25 
2 11 12 
p 3.16666666666667 1 -474.5 -424 
2 1 2 
p 3.16666666666667 1 -474.5 -424 
2 13 14 
p 3.16666666666667 1 -51.25 -0.75 
2 1 2 
p 3.16666666666667 1 -51.25 -0.75 
2 13 15 
p 3.16666666666667 1 249 299.5 
2 1 2 
p 3.16666666666667 1 249 299.5 
2 14 16 
p 3.16666666666667 1 249 299.5 
2 1 2 
p 3.16666666666667 1 249 299.5 
2 15 16 
p 3.16666666666667 1 -51.25 -0.75 
2 1 2 
p 3.16666666666667 1 -51.25 -0.75 
2 20 19 
p 3.16666666666667 1 0 550 
2 1 4 
p 3.16666666666667 1 0 550 
2 3 2 
p 3.16666666666667 1 0 400 
2 4 1 
p 3.16666666666667 1 0 400 
2 3 4 
p 3.16666666666667 1 0 50.5 
2 1 4 
p 3.16666666666667 1 0 50.5 
2 4 1 
p 3.16666666666667 1 0 400 
2 4 1 
p 3.16666666666667 1 0 400 
2 3 2 
p 3.16666666666667 1 0 400 
2 4 1 
p 3.16666666666667 1 0 400 
2 4 3 
p 3.16666666666667 1 0 50.5 
2 4 3 
p 3.16666666666667 1 0 50.5 
2 3 2 
p 3.16666666666667 1 0 400 
2 3 2 
p 3.16666666666667 1 0 400 
2 3 4 
p 3.16666666666667 1 0 50.5 
2 2 3 
p 3.16666666666667 1 0 50.5 
2 4 3 
p 3.16666666666667 1 0 50.5 
2 1 2 
p 3.16666666666667 1 0 50.5 
2 3 2 
p 3.16666666666667 1 0 400 
2 4 1 
p 3.16666666666667 1 0 400 
2 3 4 
p 3.16666666666667 1 0 50.5 
2 1 4 
p 3.16666666666667 1 0 50.5 
2 4 1 
p 3.16666666666667 1 0 400 
2 4 1 
p 3.16666666666667 1 0 400 
2 3 2 
p 3.16666666666667 1 0 400 
2 4 1 
p 3.16666666666667 1 0 400 
2 4 3 
p 3.16666666666667 1 0 50.5 
2 4 3 
p 3.16666666666667 1 0 50.5 
2 3 2 
p 3.16666666666667 1 0 400 
2 3 2 
p 3.16666666666667 1 0 400 
2 4 3 
p 3.16666666666667 1 0 50.5 
2 1 2 
p 3.16666666666667 1 0 50.5 
2 3 4 
p 3.16666666666667 1 0 50.5 
2 2 3 
p 3.16666666666667 1 0 50.5 
2 3 2 
p 3.16666666666667 1 0 400 
2 4 1 
p 3.16666666666667 1 0 400 
2 3 4 
p 3.16666666666667 1 0 50.5 
2 1 4 
p 3.16666666666667 1 0 50.5 
2 4 1 
p 3.16666666666667 1 0 400 
2 4 1 
p 3.16666666666667 1 0 400 
2 3 2 
p 3.16666666666667 1 0 400 
2 4 1 
p 3.16666666666667 1 0 400 
2 4 3 
p 3.16666666666667 1 0 50.5 
2 4 3 
p 3.16666666666667 1 0 50.5 
2 3 2 
p 3.16666666666667 1 0 400 
2 3 2 
p 3.16666666666667 1 0 400 
2 4 3 
p 3.16666666666667 1 0 50.5 
2 1 2 
p 3.16666666666667 1 0 50.5 
2 3 4 
p 3.16666666666667 1 0 50.5 
2 2 3 
p 3.16666666666667 1 0 50.5 
2 3 2 
p 3.16666666666667 1 0 400 
2 4 1 
p 3.16666666666667 1 0 400 
2 3 4 
p 3.16666666666667 1 0 50.5 
2 1 4 
p 3.16666666666667 1 0 50.5 
2 4 1 
p 3.16666666666667 1 0 400 
2 4 1 
p 3.16666666666667 1 0 400 
2 3 2 
p 3.16666666666667 1 0 400 
2 4 1 
p 3.16666666666667 1 0 400 
2 4 3 
p 3.16666666666667 1 0 50.5 
2 4 3 
p 3.16666666666667 1 0 50.5 
2 3 2 
p 3.16666666666667 1 0 400 
2 3 2 
p 3.16666666666667 1 0 400 
2 4 3 
p 3.16666666666667 1 0 50.5 
2 1 2 
p 3.16666666666667 1 0 50.5 
2 3 4 
p 3.16666666666667 1 0 50.5 
2 2 3 
p 3.16666666666667 1 0 50.5 
2 1 2 
p 3.16666666666667 1 0 12.1999998092651 
2 1 4 
p 3.16666666666667 1 0 12.1999998092651 
2 2 3 
p 3.16666666666667 1 0 445 
2 1 2 
p 3.16666666666667 1 0 445 
2 4 3 
p 3.16666666666667 1 0 12.1999998092651 
2 1 4 
p 3.16666666666667 1 0 12.1999998092651 
2 1 4 
p 3.16666666666667 1 0 445 
2 1 2 
p 3.16666666666667 1 0 445 
2 1 2 
p 3.16666666666667 1 0 890 
2 1 4 
p 3.16666666666667 1 0 890 
2 2 3 
p 3.16666666666667 1 0 12.1999998092651 
2 1 2 
p 3.16666666666667 1 0 12.1999998092651 
2 4 3 
p 3.16666666666667 1 0 890 
2 1 4 
p 3.16666666666667 1 0 890 
2 2 3 
p 3.16666666666667 1 0 890 
2 4 3 
p 3.16666666666667 1 0 890 
2 4 3 
p 3.16666666666667 1 0 445 
2 2 3 
p 3.16666666666667 1 0 445 
2 1 2 
p 3.16666666666667 1 0 890 
2 2 3 
p 3.16666666666667 1 0 890 
2 2 3 
p 3.16666666666667 1 0 12.1999998092651 
2 4 3 
p 3.16666666666667 1 0 12.1999998092651 
2 4 3 
p 3.16666666666667 1 0 445 
2 1 4 
p 3.16666666666667 1 0 445 
Surfaces 32
1 0 0 0 1 0 0 0 0 1 0 -1 0 
1 0 0 0 0 1 0 0 -0 1 1 0 -0 
1 0 0 50 0 0 1 1 0 -0 -0 1 0 
1 0 550 0 0 1 0 0 -0 1 1 0 -0 
1 0 0 0 0 0 1 1 0 -0 -0 1 0 
1 900 0 0 1 0 0 0 0 1 0 -1 0 
1 0 0 0 0 1 0 0 -0 1 1 0 -0 
1 50.5 0 0 1 0 0 0 0 1 0 -1 0 
1 0 50.5 0 0 1 0 0 -0 1 1 0 -0 
1 0 0 0 1 0 0 0 0 1 0 -1 0 
1 0 0 0 0 1 0 0 -0 1 1 0 -0 
1 50.5 0 0 1 0 0 0 0 1 0 -1 0 
1 0 0 0 1 0 0 0 0 1 0 -1 0 
1 0 50.5 0 0 1 0 0 -0 1 1 0 -0 
1 0 0 0 0 1 0 0 -0 1 1 0 -0 
1 50.5 0 0 1 0 0 0 0 1 0 -1 0 
1 0 0 0 1 0 0 0 0 1 0 -1 0 
1 0 50.5 0 0 1 0 0 -0 1 1 0 -0 
1 0 0 0 0 1 0 0 -0 1 1 0 -0 
1 50.5 0 0 1 0 0 0 0 1 0 -1 0 
1 0 0 0 1 0 0 0 0 1 0 -1 0 
1 0 50.5 0 0 1 0 0 -0 1 1 0 -0 
1 0 0 0 0 0 1 1 0 -0 -0 1 0 
1 0 0 0 0 0 1 1 0 -0 -0 1 0 
1 0 0 0 0 0 1 1 0 -0 -0 1 0 
1 0 0 0 0 0 1 1 0 -0 -0 1 0 
1 0 0 0 1 0 0 0 0 1 0 -1 0 
1 0 0 0 0 1 0 0 -0 1 1 0 -0 
1 0 0 12.199999809265137 0 0 1 1 0 -0 -0 1 0 
1 0 445 0 0 1 0 0 -0 1 1 0 -0 
1 0 0 0 0 0 1 1 0 -0 -0 1 0 
1 890 0 0 1 0 0 0 0 1 0 -1 0 
Triangulations 32
4 2 1 0
0 0 0 0 0 50 0 550 50 0 550 0 0 0 50 0 50 -550 0 -550 2 4 3 2 1 4 
4 2 1 0
0 0 0 900 0 0 900 0 50 0 0 50 0 0 0 900 50 900 50 0 3 2 1 3 1 4 
4 2 1 0
0 0 50 0 550 50 900 550 50 900 0 50 0 0 0 550 900 550 900 0 3 2 1 3 1 4 
4 2 1 0
0 550 0 900 550 0 900 550 50 0 550 50 0 0 0 900 50 900 50 0 3 2 1 3 1 4 
21 28 1 0
52 1.5 400 1.5 1.5 400 52 52 400 1.5 52 400 898.5 498 400 848 498 400 898.5 548.5 400 848 548.5 400 898.5 1.5 400 848 1.5 400 898.5 52 400 848 52 400 52 498 400 1.5 498 400 52 548.5 400 1.5 548.5 400 0 0 400 0 550 400 900 550 400 900 0 400 450 275 400 52 1.5 1.5 1.5 52 52 1.5 52 898.5 498 848 498 898.5 548.5 848 548.5 898.5 1.5 848 1.5 898.5 52 848 52 52 498 1.5 498 52 548.5 1.5 548.5 0 0 0 550 900 550 900 0 450 275 20 19 5 20 5 11 21 3 1 21 6 8 21 10 12 21 15 13 21 8 15 21 1 10 21 13 3 21 12 6 4 17 2 1 2 17 14 4 3 13 14 3 16 18 14 15 18 16 9 10 20 11 9 20 6 12 11 5 6 11 19 7 5 19 8 7 18 17 4 18 4 14 19 18 15 19 15 8 17 20 10 17 10 1 
4 2 1 0
900 0 0 900 0 50 900 550 50 900 550 0 0 0 50 0 50 -550 0 -550 2 4 3 2 1 4 
4 2 1 0
52 1.5 400 1.5 1.5 400 1.5 1.5 0 52 1.5 0 400 50.5 400 0 0 0 0 50.5 1 3 2 1 4 3 
4 2 1 0
52 1.5 400 52 52 400 52 52 0 52 1.5 0 400 0 400 -50.5 0 -50.5 0 0 2 4 3 1 4 2 
4 2 1 0
52 52 400 1.5 52 400 1.5 52 0 52 52 0 400 50.5 400 0 0 0 0 50.5 1 3 2 1 4 3 
4 2 1 0
1.5 1.5 400 1.5 52 400 1.5 52 0 1.5 1.5 0 400 0 400 -50.5 0 -50.5 0 0 2 4 3 1 4 2 
4 2 1 0
898.5 498 400 848 498 400 848 498 0 898.5 498 0 400 50.5 400 0 0 0 0 50.5 2 4 3 1 4 2 
4 2 1 0
898.5 498 400 898.5 548.5 400 898.5 548.5 0 898.5 498 0 400 0 400 -50.5 0 -50.5 0 0 2 4 3 1 4 2 
4 2 1 0
848 498 400 848 548.5 400 848 548.5 0 848 498 0 400 0 400 -50.5 0 -50.5 0 0 2 4 3 1 4 2 
4 2 1 0
898.5 548.5 400 848 548.5 400 848 548.5 0 898.5 548.5 0 400 50.5 400 0 0 0 0 50.5 2 4 3 1 4 2 
4 2 1 0
898.5 1.5 400 848 1.5 400 848 1.5 0 898.5 1.5 0 400 50.5 400 0 0 0 0 50.5 2 4 3 1 4 2 
4 2 1 0
898.5 1.5 400 898.5 52 400 898.5 52 0 898.5 1.5 0 400 0 400 -50.5 0 -50.5 0 0 2 4 3 1 4 2 
4 2 1 0
848 1.5 400 848 52 400 848 52 0 848 1.5 0 400 0 400 -50.5 0 -50.5 0 0 2 4 3 1 4 2 
4 2 1 0
898.5 52 400 848 52 400 848 52 0 898.5 52 0 400 50.5 400 0 0 0 0 50.5 2 4 3 1 4 2 
4 2 1 0
52 498 400 1.5 498 400 1.5 498 0 52 498 0 400 50.5 400 0 0 0 0 50.5 1 3 2 1 4 3 
4 2 1 0
52 498 400 52 548.5 400 52 548.5 0 52 498 0 400 0 400 -50.5 0 -50.5 0 0 2 4 3 1 4 2 
4 2 1 0
1.5 498 400 1.5 548.5 400 1.5 548.5 0 1.5 498 0 400 0 400 -50.5 0 -50.5 0 0 2 4 3 1 4 2 
4 2 1 0
52 548.5 400 1.5 548.5 400 1.5 548.5 0 52 548.5 0 400 50.5 400 0 0 0 0 50.5 1 3 2 1 4 3 
4 2 1 0
0 0 0 0 50.5 0 50.5 50.5 0 50.5 0 0 0 0 0 50.5 50.5 50.5 50.5 0 3 2 1 3 1 4 
4 2 1 0
0 0 0 0 50.5 0 50.5 50.5 0 50.5 0 0 0 0 0 50.5 50.5 50.5 50.5 0 4 2 1 3 2 4 
4 2 1 0
0 0 0 0 50.5 0 50.5 50.5 0 50.5 0 0 0 0 0 50.5 50.5 50.5 50.5 0 3 2 1 3 1 4 
4 2 1 0
0 0 0 0 50.5 0 50.5 50.5 0 50.5 0 0 0 0 0 50.5 50.5 50.5 50.5 0 3 2 1 3 1 4 
4 2 1 0
0 0 0 0 0 12.199999809265 0 445 12.199999809265 0 445 0 0 0 12.1999998092651 0 12.1999998092651 -445 0 -445 2 4 3 2 1 4 
4 2 1 0
0 0 0 890 0 0 890 0 12.199999809265 0 0 12.199999809265 0 0 0 890 12.1999998092651 890 12.1999998092651 0 3 2 1 3 1 4 
4 2 1 1.4210854715202e-013
0 0 12.199999809265 0 445 12.199999809265 890 445 12.199999809265 890 0 12.199999809265 0 0 0 445 890 445 890 0 3 2 1 3 1 4 
4 2 1 0
0 445 0 890 445 0 890 445 12.199999809265 0 445 12.199999809265 0 0 0 890 12.1999998092651 890 12.1999998092651 0 3 2 1 3 1 4 
4 2 1 0
0 0 0 0 445 0 890 445 0 890 0 0 0 0 0 445 890 445 890 0 3 2 1 3 1 4 
4 2 1 0
890 0 0 890 0 12.199999809265 890 445 12.199999809265 890 445 0 0 0 12.1999998092651 0 12.1999998092651 -445 0 -445 2 4 3 2 1 4 

TShapes 194
Ve
1e-007
0 0 450
0 0

0101101
*
Ve
1e-007
0 0 400
0 0

0101101
*
Ed
 1e-007 1 1 0
1  1 0 0 50
2  1 1 0 0 50
2  2 2 0 0 50
6  1 1 0
6  2 2 0
0

0101000
-194 5 +193 5 *
Ve
1e-007
0 550 450
0 0

0101101
*
Ed
 1e-007 1 1 0
1  2 0 0 550
2  3 1 0 0 550
2  4 3 0 0 550
6  3 1 0
6  4 3 0
0

0101000
-191 5 +194 5 *
Ve
1e-007
0 550 400
0 0

0101101
*
Ed
 1e-007 1 1 0
1  3 0 0 50
2  5 1 0 0 50
2  6 4 0 0 50
6  5 1 0
6  6 4 0
0

0101000
-191 5 +189 5 *
Ed
 1e-007 1 1 0
1  4 0 0 550
2  7 1 0 0 550
2  8 5 0 0 550
6  7 1 0
6  8 5 6
0

0101000
-189 5 +193 5 *
Wi

0101000
-192 0 -190 0 +188 0 +187 0 *
Fa
0  1e-007 1 0
2  1
0101000
+186 0 *
Ve
1e-007
900 0 400
0 0

0101101
*
Ed
 1e-007 1 1 0
1  5 0 0 900
2  9 2 0 0 900
2  10 5 0 0 900
6  9 2 0
6  10 5 6
0

0101000
-184 5 +193 5 *
Ve
1e-007
900 0 450
0 0

0101101
*
Ed
 1e-007 1 1 0
1  6 0 0 50
2  11 2 0 0 50
2  12 6 0 0 50
6  11 2 0
6  12 6 0
0

0101000
-182 5 +184 5 *
Ed
 1e-007 1 1 0
1  7 0 0 900
2  13 2 0 0 900
2  14 3 0 0 900
6  13 2 0
6  14 3 0
0

0101000
-182 5 +194 5 *
Wi

0101000
-183 0 -181 0 +180 0 +192 0 *
Fa
0  1e-007 2 0
2  2
0101000
+179 0 *
Ve
1e-007
900 550 450
0 0

0101101
*
Ed
 1e-007 1 1 0
1  8 0 0 900
2  15 3 0 0 900
2  16 4 0 0 900
6  15 3 0
6  16 4 0
0

0101000
-177 5 +191 5 *
Ed
 1e-007 1 1 0
1  9 0 0 550
2  17 3 0 0 550
2  18 6 0 0 550
6  17 3 0
6  18 6 0
0

0101000
-177 5 +182 5 *
Wi

0101000
-190 0 -176 0 +175 0 +180 0 *
Fa
0  1e-007 3 0
2  3
0101000
+174 0 *
Ve
1e-007
900 550 400
0 0

0101101
*
Ed
 1e-007 1 1 0
1  10 0 0 900
2  19 4 0 0 900
2  20 5 0 0 900
6  19 4 0
6  20 5 6
0

0101000
-172 5 +189 5 *
Ed
 1e-007 1 1 0
1  11 0 0 50
2  21 4 0 0 50
2  22 6 0 0 50
6  21 4 0
6  22 6 0
0

0101000
-177 5 +172 5 *
Wi

0101000
-171 0 -170 0 +176 0 +188 0 *
Fa
0  1e-007 4 0
2  4
0101000
+169 0 *
Ve
2.00001e-007
52 1.5 400
0 0

0101101
*
Ve
2.00001e-007
1.5 1.5 400
0 0

0101101
*
Ed
 2.00001e-007 1 1 0
1  12 0 -51.25 -0.75
2  23 5 2 -51.25 -0.75
2  24 7 7 -51.25 -0.75
6  23 5 0
6  24 7 0
0

0101000
+167 8 -166 8 *
Ve
2.00001e-007
52 52 400
0 0

0101101
*
Ed
 2.00001e-007 1 1 0
1  13 0 0.75 51.25
2  25 5 2 0.75 51.25
2  26 8 7 0.75 51.25
6  25 5 0
6  26 8 0
0

0101000
+167 8 -164 8 *
Ve
2.00001e-007
1.5 52 400
0 0

0101101
*
Ed
 2.00001e-007 1 1 0
1  14 0 -51.25 -0.75
2  27 5 2 -51.25 -0.75
2  28 9 7 -51.25 -0.75
6  27 5 0
6  28 9 0
0

0101000
+164 8 -162 8 *
Ed
 2.00001e-007 1 1 0
1  15 0 0.75 51.25
2  29 5 2 0.75 51.25
2  30 10 7 0.75 51.25
6  29 5 0
6  30 10 0
0

0101000
+166 8 -162 8 *
Wi

0101000
+165 0 -163 0 -161 0 +160 0 *
Ve
2.00001e-007
898.5 498 400
0 0

0101101
*
Ve
2.00001e-007
848 498 400
0 0

0101101
*
Ed
 2.00001e-007 1 1 0
1  16 0 -474.5 -424
2  31 5 2 -474.5 -424
2  32 11 9 -474.5 -424
6  31 5 0
6  32 11 0
0

0101000
+158 8 -157 8 *
Ve
2.00001e-007
898.5 548.5 400
0 0

0101101
*
Ed
 2.00001e-007 1 1 0
1  17 0 249 299.5
2  33 5 2 249 299.5
2  34 12 9 249 299.5
6  33 5 0
6  34 12 0
0

0101000
+158 8 -155 8 *
Ve
2.00001e-007
848 548.5 400
0 0

0101101
*
Ed
 2.00001e-007 1 1 0
1  18 0 249 299.5
2  35 5 2 249 299.5
2  36 13 9 249 299.5
6  35 5 0
6  36 13 0
0

0101000
+157 8 -153 8 *
Ed
 2.00001e-007 1 1 0
1  19 0 -474.5 -424
2  37 5 2 -474.5 -424
2  38 14 9 -474.5 -424
6  37 5 0
6  38 14 0
0

0101000
+155 8 -153 8 *
Wi

0101000
+156 0 -154 0 +152 0 -151 0 *
Ve
2.00001e-007
898.5 1.5 400
0 0

0101101
*
Ve
2.00001e-007
848 1.5 400
0 0

0101101
*
Ed
 2.00001e-007 1 1 0
1  20 0 -474.5 -424
2  39 5 2 -474.5 -424
2  40 15 10 -474.5 -424
6  39 5 0
6  40 15 0
0

0101000
+149 8 -148 8 *
Ve
2.00001e-007
898.5 52 400
0 0

0101101
*
Ed
 2.00001e-007 1 1 0
1  21 0 0.75 51.25
2  41 5 2 0.75 51.25
2  42 16 10 0.75 51.25
6  41 5 0
6  42 16 0
0

0101000
+149 8 -146 8 *
Ve
2.00001e-007
848 52 400
0 0

0101101
*
Ed
 2.00001e-007 1 1 0
1  22 0 0.75 51.25
2  43 5 2 0.75 51.25
2  44 17 10 0.75 51.25
6  43 5 0
6  44 17 0
0

0101000
+148 8 -144 8 *
Ed
 2.00001e-007 1 1 0
1  23 0 -474.5 -424
2  45 5 2 -474.5 -424
2  46 18 10 -474.5 -424
6  45 5 0
6  46 18 0
0

0101000
+146 8 -144 8 *
Wi

0101000
+147 0 -145 0 +143 0 -142 0 *
Ve
2.00001e-007
52 498 400
0 0

0101101
*
Ve
2.00001e-007
1.5 498 400
0 0

0101101
*
Ed
 2.00001e-007 1 1 0
1  24 0 -51.25 -0.75
2  47 5 2 -51.25 -0.75
2  48 19 11 -51.25 -0.75
6  47 5 0
6  48 19 0
0

0101000
+140 8 -139 8 *
Ve
2.00001e-007
52 548.5 400
0 0

0101101
*
Ed
 2.00001e-007 1 1 0
1  25 0 249 299.5
2  49 5 2 249 299.5
2  50 20 11 249 299.5
6  49 5 0
6  50 20 0
0

0101000
+140 8 -137 8 *
Ve
2.00001e-007
1.5 548.5 400
0 0

0101101
*
Ed
 2.00001e-007 1 1 0
1  26 0 249 299.5
2  51 5 2 249 299.5
2  52 21 11 249 299.5
6  51 5 0
6  52 21 0
0

0101000
+139 8 -135 8 *
Ed
 2.00001e-007 1 1 0
1  27 0 -51.25 -0.75
2  53 5 2 -51.25 -0.75
2  54 22 11 -51.25 -0.75
6  53 5 0
6  54 22 0
0

0101000
+137 8 -135 8 *
Wi

0101000
+138 0 -136 0 +134 0 -133 0 *
Ed
 1e-007 1 1 0
1  28 0 0 550
2  55 5 0 0 550
2  56 6 0 0 550
6  55 5 6
6  56 6 0
0

0101000
-172 5 +184 5 *
Wi

0101000
-187 2 -171 2 +183 2 +131 2 *
Fa
0  1e-007 5 2
2  5
0101000
+159 0 +150 0 +141 0 +132 0 +130 0 *
Wi

0101000
-181 0 -175 0 +170 0 +131 0 *
Fa
0  1e-007 6 0
2  6
0101000
+128 0 *
Ve
1e-007
1.5 1.5 0
0 0

0101101
*
Ed
 2.00001e-007 1 1 0
1  29 0 0 400
2  57 7 0 0 400
2  58 10 0 0 400
6  57 7 12
6  58 10 12
0

0101000
+126 13 -166 13 *
Ve
1e-007
52 1.5 0
0 0

0101101
*
Ed
 1e-007 1 1 0
1  30 0 0 50.5
2  59 7 0 0 50.5
2  60 23 0 0 50.5
6  59 7 12
6  60 23 0
0

0101000
-124 13 +126 13 *
Ed
 2.00001e-007 1 1 0
1  31 0 0 400
2  61 7 0 0 400
2  62 8 0 0 400
6  61 7 12
6  62 8 12
0

0101000
+124 13 -167 13 *
Wi

0101000
-165 0 +125 7 -123 7 -122 7 *
Fa
0  1e-007 7 7
2  7
0101000
+121 0 *
Ve
1e-007
52 52 0
0 0

0101101
*
Ed
 2.00001e-007 1 1 0
1  32 0 0 400
2  63 8 0 0 400
2  64 9 0 0 400
6  63 8 12
6  64 9 12
0

0101000
+119 13 -164 13 *
Ed
 1e-007 1 1 0
1  33 0 0 50.5
2  65 8 0 0 50.5
2  66 23 0 0 50.5
6  65 8 12
6  66 23 0
0

0101000
-119 13 +124 13 *
Wi

0101000
-163 0 +118 7 +117 7 -122 7 *
Fa
0  1e-007 8 7
2  8
0101000
+116 0 *
Ve
1e-007
1.5 52 0
0 0

0101101
*
Ed
 2.00001e-007 1 1 0
1  34 0 0 400
2  67 9 0 0 400
2  68 10 0 0 400
6  67 9 12
6  68 10 12
0

0101000
+114 13 -162 13 *
Ed
 1e-007 1 1 0
1  35 0 0 50.5
2  69 9 0 0 50.5
2  70 23 0 0 50.5
6  69 9 12
6  70 23 0
0

0101000
-119 13 +114 13 *
Wi

0101000
-161 0 +113 7 -112 7 -118 7 *
Fa
0  1e-007 9 7
2  9
0101000
+111 0 *
Ed
 1e-007 1 1 0
1  36 0 0 50.5
2  71 10 0 0 50.5
2  72 23 0 0 50.5
6  71 10 12
6  72 23 0
0

0101000
-114 13 +126 13 *
Wi

0101000
-160 0 +113 7 +109 7 -125 7 *
Fa
0  1e-007 10 7
2  10
0101000
+108 0 *
Ve
1e-007
848 498 0
0 0

0101101
*
Ed
 2.00001e-007 1 1 0
1  37 0 0 400
2  73 11 0 0 400
2  74 13 0 0 400
6  73 11 14
6  74 13 14
0

0101000
+106 15 -157 15 *
Ve
1e-007
898.5 498 0
0 0

0101101
*
Ed
 1e-007 1 1 0
1  38 0 0 50.5
2  75 11 0 0 50.5
2  76 24 0 0 50.5
6  75 11 14
6  76 24 0
0

0101000
-104 15 +106 15 *
Ed
 2.00001e-007 1 1 0
1  39 0 0 400
2  77 11 0 0 400
2  78 12 0 0 400
6  77 11 14
6  78 12 14
0

0101000
+104 15 -158 15 *
Wi

0101000
-156 0 +105 9 -103 9 -102 9 *
Fa
0  1e-007 11 9
2  11
0101000
+101 0 *
Ve
1e-007
898.5 548.5 0
0 0

0101101
*
Ed
 2.00001e-007 1 1 0
1  40 0 0 400
2  79 12 0 0 400
2  80 14 0 0 400
6  79 12 14
6  80 14 14
0

0101000
+99 15 -155 15 *
Ed
 1e-007 1 1 0
1  41 0 0 50.5
2  81 12 0 0 50.5
2  82 24 0 0 50.5
6  81 12 14
6  82 24 0
0

0101000
-99 15 +104 15 *
Wi

0101000
-154 0 +98 9 +97 9 -102 9 *
Fa
0  1e-007 12 9
2  12
0101000
+96 0 *
Ve
1e-007
848 548.5 0
0 0

0101101
*
Ed
 2.00001e-007 1 1 0
1  42 0 0 400
2  83 13 0 0 400
2  84 14 0 0 400
6  83 13 14
6  84 14 14
0

0101000
+94 15 -153 15 *
Ed
 1e-007 1 1 0
1  43 0 0 50.5
2  85 13 0 0 50.5
2  86 24 0 0 50.5
6  85 13 14
6  86 24 0
0

0101000
-94 15 +106 15 *
Wi

0101000
-152 0 +93 9 +92 9 -105 9 *
Fa
0  1e-007 13 9
2  13
0101000
+91 0 *
Ed
 1e-007 1 1 0
1  44 0 0 50.5
2  87 14 0 0 50.5
2  88 24 0 0 50.5
6  87 14 14
6  88 24 0
0

0101000
-99 15 +94 15 *
Wi

0101000
-151 0 +93 9 -89 9 -98 9 *
Fa
0  1e-007 14 9
2  14
0101000
+88 0 *
Ve
1e-007
848 1.5 0
0 0

0101101
*
Ed
 2.00001e-007 1 1 0
1  45 0 0 400
2  89 15 0 0 400
2  90 17 0 0 400
6  89 15 16
6  90 17 16
0

0101000
+86 17 -148 17 *
Ve
1e-007
898.5 1.5 0
0 0

0101101
*
Ed
 1e-007 1 1 0
1  46 0 0 50.5
2  91 15 0 0 50.5
2  92 25 0 0 50.5
6  91 15 16
6  92 25 0
0

0101000
-84 17 +86 17 *
Ed
 2.00001e-007 1 1 0
1  47 0 0 400
2  93 15 0 0 400
2  94 16 0 0 400
6  93 15 16
6  94 16 16
0

0101000
+84 17 -149 17 *
Wi

0101000
-147 0 +85 10 -83 10 -82 10 *
Fa
0  1e-007 15 10
2  15
0101000
+81 0 *
Ve
1e-007
898.5 52 0
0 0

0101101
*
Ed
 2.00001e-007 1 1 0
1  48 0 0 400
2  95 16 0 0 400
2  96 18 0 0 400
6  95 16 16
6  96 18 16
0

0101000
+79 17 -146 17 *
Ed
 1e-007 1 1 0
1  49 0 0 50.5
2  97 16 0 0 50.5
2  98 25 0 0 50.5
6  97 16 16
6  98 25 0
0

0101000
-79 17 +84 17 *
Wi

0101000
-145 0 +78 10 +77 10 -82 10 *
Fa
0  1e-007 16 10
2  16
0101000
+76 0 *
Ve
1e-007
848 52 0
0 0

0101101
*
Ed
 2.00001e-007 1 1 0
1  50 0 0 400
2  99 17 0 0 400
2  100 18 0 0 400
6  99 17 16
6  100 18 16
0

0101000
+74 17 -144 17 *
Ed
 1e-007 1 1 0
1  51 0 0 50.5
2  101 17 0 0 50.5
2  102 25 0 0 50.5
6  101 17 16
6  102 25 0
0

0101000
-74 17 +86 17 *
Wi

0101000
-143 0 +73 10 +72 10 -85 10 *
Fa
0  1e-007 17 10
2  17
0101000
+71 0 *
Ed
 1e-007 1 1 0
1  52 0 0 50.5
2  103 18 0 0 50.5
2  104 25 0 0 50.5
6  103 18 16
6  104 25 0
0

0101000
-79 17 +74 17 *
Wi

0101000
-142 0 +73 10 -69 10 -78 10 *
Fa
0  1e-007 18 10
2  18
0101000
+68 0 *
Ve
1e-007
1.5 498 0
0 0

0101101
*
Ed
 2.00001e-007 1 1 0
1  53 0 0 400
2  105 19 0 0 400
2  106 21 0 0 400
6  105 19 18
6  106 21 18
0

0101000
+66 19 -139 19 *
Ve
1e-007
52 498 0
0 0

0101101
*
Ed
 1e-007 1 1 0
1  54 0 0 50.5
2  107 19 0 0 50.5
2  108 26 0 0 50.5
6  107 19 18
6  108 26 0
0

0101000
-64 19 +66 19 *
Ed
 2.00001e-007 1 1 0
1  55 0 0 400
2  109 19 0 0 400
2  110 20 0 0 400
6  109 19 18
6  110 20 18
0

0101000
+64 19 -140 19 *
Wi

0101000
-138 0 +65 11 -63 11 -62 11 *
Fa
0  1e-007 19 11
2  19
0101000
+61 0 *
Ve
1e-007
52 548.5 0
0 0

0101101
*
Ed
 2.00001e-007 1 1 0
1  56 0 0 400
2  111 20 0 0 400
2  112 22 0 0 400
6  111 20 18
6  112 22 18
0

0101000
+59 19 -137 19 *
Ed
 1e-007 1 1 0
1  57 0 0 50.5
2  113 20 0 0 50.5
2  114 26 0 0 50.5
6  113 20 18
6  114 26 0
0

0101000
-59 19 +64 19 *
Wi

0101000
-136 0 +58 11 +57 11 -62 11 *
Fa
0  1e-007 20 11
2  20
0101000
+56 0 *
Ve
1e-007
1.5 548.5 0
0 0

0101101
*
Ed
 2.00001e-007 1 1 0
1  58 0 0 400
2  115 21 0 0 400
2  116 22 0 0 400
6  115 21 18
6  116 22 18
0

0101000
+54 19 -135 19 *
Ed
 1e-007 1 1 0
1  59 0 0 50.5
2  117 21 0 0 50.5
2  118 26 0 0 50.5
6  117 21 18
6  118 26 0
0

0101000
-54 19 +66 19 *
Wi

0101000
-134 0 +53 11 +52 11 -65 11 *
Fa
0  1e-007 21 11
2  21
0101000
+51 0 *
Ed
 1e-007 1 1 0
1  60 0 0 50.5
2  119 22 0 0 50.5
2  120 26 0 0 50.5
6  119 22 18
6  120 26 0
0

0101000
-59 19 +54 19 *
Wi

0101000
-133 0 +53 11 -49 11 -58 11 *
Fa
0  1e-007 22 11
2  22
0101000
+48 0 *
Wi

0101000
-109 0 -112 0 +117 0 +123 0 *
Fa
0  1e-007 23 0
2  23
0101000
+46 0 *
Wi

0101000
-92 0 -89 0 +97 0 +103 0 *
Fa
0  1e-007 24 0
2  24
0101000
+44 0 *
Wi

0101000
-72 0 -69 0 +77 0 +83 0 *
Fa
0  1e-007 25 0
2  25
0101000
+42 0 *
Wi

0101000
-52 0 -49 0 +57 0 +63 0 *
Fa
0  1e-007 26 0
2  26
0101000
+40 0 *
Sh

0101000
-185 4 -178 4 +173 4 +168 4 -129 3 +127 4 -120 3 +115 3 +110 3 -107 3 
-100 3 +95 3 -90 3 +87 3 -80 3 +75 3 -70 3 +67 3 -60 3 +55 3 
-50 3 +47 3 -45 20 -43 21 -41 22 -39 23 *
So

0100000
+38 0 *
Ve
1e-007
5 52.5 212.199999809265
0 0

0101101
*
Ve
1e-007
5 52.5 200
0 0

0101101
*
Ed
 1e-007 1 1 0
1  61 0 0 12.1999998092651
2  121 27 0 0 12.1999998092651
2  122 28 0 0 12.1999998092651
6  121 27 0
6  122 28 0
0

0101000
-36 25 +35 25 *
Ve
1e-007
5 497.5 212.199999809265
0 0

0101101
*
Ed
 1e-007 1 1 0
1  62 0 0 445
2  123 27 0 0 445
2  124 29 0 0 445
6  123 27 0
6  124 29 0
0

0101000
-33 25 +36 25 *
Ve
1e-007
5 497.5 200
0 0

0101101
*
Ed
 1e-007 1 1 0
1  63 0 0 12.1999998092651
2  125 27 0 0 12.1999998092651
2  126 30 0 0 12.1999998092651
6  125 27 0
6  126 30 0
0

0101000
-33 25 +31 25 *
Ed
 1e-007 1 1 0
1  64 0 0 445
2  127 27 0 0 445
2  128 31 0 0 445
6  127 27 0
6  128 31 0
0

0101000
-31 25 +35 25 *
Wi

0101000
-34 0 -32 0 +30 0 +29 0 *
Fa
0  1e-007 27 0
2  27
0101000
+28 0 *
Ve
1e-007
895 52.5 200
0 0

0101101
*
Ed
 1e-007 1 1 0
1  65 0 0 890
2  129 28 0 0 890
2  130 31 0 0 890
6  129 28 0
6  130 31 0
0

0101000
-26 25 +35 25 *
Ve
1e-007
895 52.5 212.199999809265
0 0

0101101
*
Ed
 1e-007 1 1 0
1  66 0 0 12.1999998092651
2  131 28 0 0 12.1999998092651
2  132 32 0 0 12.1999998092651
6  131 28 0
6  132 32 0
0

0101000
-24 25 +26 25 *
Ed
 1e-007 1 1 0
1  67 0 0 890
2  133 28 0 0 890
2  134 29 0 0 890
6  133 28 0
6  134 29 0
0

0101000
-24 25 +36 25 *
Wi

0101000
-25 0 -23 0 +22 0 +34 0 *
Fa
0  1e-007 28 0
2  28
0101000
+21 0 *
Ve
1e-007
895 497.5 212.199999809265
0 0

0101101
*
Ed
 1e-007 1 1 0
1  68 0 0 890
2  135 29 0 0 890
2  136 30 0 0 890
6  135 29 0
6  136 30 0
0

0101000
-19 25 +33 25 *
Ed
 1e-007 1 1 0
1  69 0 0 445
2  137 29 0 0 445
2  138 32 0 0 445
6  137 29 0
6  138 32 0
0

0101000
-19 25 +24 25 *
Wi

0101000
-32 0 -18 0 +17 0 +22 0 *
Fa
0  1e-007 29 0
2  29
0101000
+16 0 *
Ve
1e-007
895 497.5 200
0 0

0101101
*
Ed
 1e-007 1 1 0
1  70 0 0 890
2  139 30 0 0 890
2  140 31 0 0 890
6  139 30 0
6  140 31 0
0

0101000
-14 25 +31 25 *
Ed
 1e-007 1 1 0
1  71 0 0 12.1999998092651
2  141 30 0 0 12.1999998092651
2  142 32 0 0 12.1999998092651
6  141 30 0
6  142 32 0
0

0101000
-19 25 +14 25 *
Wi

0101000
-13 0 -12 0 +18 0 +30 0 *
Fa
0  1e-007 30 0
2  30
0101000
+11 0 *
Ed
 1e-007 1 1 0
1  72 0 0 445
2  143 31 0 0 445
2  144 32 0 0 445
6  143 31 0
6  144 32 0
0

0101000
-14 25 +26 25 *
Wi

0101000
-29 0 -13 0 +9 0 +25 0 *
Fa
0  1e-007 31 0
2  31
0101000
+8 0 *
Wi

0101000
-23 0 -17 0 +12 0 +9 0 *
Fa
0  1e-007 32 0
2  32
0101000
+6 0 *
Sh

0101000
-27 24 -20 24 +15 24 +10 24 -7 24 +5 24 *
So

0100000
+4 0 *
Co

0100000
+37 0 +3 0 *
Co

1100000
+2 1 *

+1 0 