  0
SECTION
  2
HEADER
  9
$ACADVER
  1
AC1014
  9
$HANDSEED
  5
FFFF
  9
$MEASUREMENT
 70
     1
  0
ENDSEC
  0
SECTION
  2
TABLES
  0
TABLE
  2
VPORT
  5
8
330
0
100
AcDbSymbolTable
 70
     4
  0
VPORT
  5
2E
330
8
100
AcDbSymbolTableRecord
100
AcDbViewportTableRecord
  2
*ACTIVE
 70
     0
 10
0.0
 20
0.0
 11
1.0
 21
1.0
 12
210.0
 22
148.5
 13
0.0
 23
0.0
 14
10.0
 24
10.0
 15
10.0
 25
10.0
 16
0.0
 26
0.0
 36
1.0
 17
0.0
 27
0.0
 37
0.0
 40
341.0
 41
1.24
 42
50.0
 43
0.0
 44
0.0
 50
0.0
 51
0.0
 71
     0
 72
   100
 73
     1
 74
     3
 75
     0
 76
     0
 77
     0
 78
     0
  0
ENDTAB
  0
TABLE
  2
LTYPE
  5
5
330
0
100
AcDbSymbolTable
 70
     1
  0
LTYPE
  5
14
330
5
100
AcDbSymbolTableRecord
100
AcDbLinetypeTableRecord
  2
BYBLOCK
 70
     0
  3

 72
    65
 73
     0
 40
0.0
  0
LTYPE
  5
15
330
5
100
AcDbSymbolTableRecord
100
AcDbLinetypeTableRecord
  2
BYLAYER
 70
     0
  3

 72
    65
 73
     0
 40
0.0
  0
LTYPE
  5
16
330
5
100
AcDbSymbolTableRecord
100
AcDbLinetypeTableRecord
  2
CONTINUOUS
 70
     0
  3
Solid line
 72
    65
 73
     0
 40
0.0
  0
ENDTAB
  0
TABLE
  2
LAYER
  5
2
100
AcDbSymbolTable
 70
4
  0
LAYER
  5
50
100
AcDbSymbolTableRecord
100
AcDbLayerTableRecord
  2
0
 70
0
  6
CONTINUOUS
  0
LAYER
  5
51
100
AcDbSymbolTableRecord
100
AcDbLayerTableRecord
  2
Capa_1
 70
0
  6
CONTINUOUS
  0
LAYER
  5
52
100
AcDbSymbolTableRecord
100
AcDbLayerTableRecord
  2
Capa_2
 70
0
  6
CONTINUOUS
  0
LAYER
  5
53
100
AcDbSymbolTableRecord
100
AcDbLayerTableRecord
  2
Capa_3
 70
0
  6
CONTINUOUS
  0
ENDTAB
  0
TABLE
  2
STYLE
  5
3
330
0
100
AcDbSymbolTable
 70
     1
  0
STYLE
  5
11
330
3
100
AcDbSymbolTableRecord
100
AcDbTextStyleTableRecord
  2
STANDARD
 70
     0
 40
0.0
 41
1.0
 50
0.0
 71
     0
 42
2.5
  3
txt
  4

  0
ENDTAB
  0
TABLE
  2
VIEW
  5
6
330
0
100
AcDbSymbolTable
 70
     0
  0
ENDTAB
  0
TABLE
  2
UCS
  5
7
330
0
100
AcDbSymbolTable
 70
     0
  0
ENDTAB
  0
TABLE
  2
APPID
  5
9
330
0
100
AcDbSymbolTable
 70
     2
  0
APPID
  5
12
330
9
100
AcDbSymbolTableRecord
100
AcDbRegAppTableRecord
  2
ACAD
 70
     0
  0
ENDTAB
  0
TABLE
  2
DIMSTYLE
  5
A
330
0
100
AcDbSymbolTable
 70
     1
  0
DIMSTYLE
105
27
330
A
100
AcDbSymbolTableRecord
100
AcDbDimStyleTableRecord
  2
ISO-25
 70
     0
  3

  4

  5

  6

  7

 40
1.0
 41
2.5
 42
0.625
 43
3.75
 44
1.25
 45
0.0
 46
0.0
 47
0.0
 48
0.0
140
2.5
141
2.5
142
0.0
143
0.03937007874016
144
1.0
145
0.0
146
1.0
147
0.625
 71
     0
 72
     0
 73
     0
 74
     0
 75
     0
 76
     0
 77
     1
 78
     8
170
     0
171
     3
172
     1
173
     0
174
     0
175
     0
176
     0
177
     0
178
     0
270
     2
271
     2
272
     2
273
     2
274
     3
340
11
275
     0
280
     0
281
     0
282
     0
283
     0
284
     8
285
     0
286
     0
287
     3
288
     0
  0
ENDTAB
  0
TABLE
  2
BLOCK_RECORD
  5
1
330
0
100
AcDbSymbolTable
 70
     1
  0
BLOCK_RECORD
  5
1F
330
1
100
AcDbSymbolTableRecord
100
AcDbBlockTableRecord
  2
*MODEL_SPACE
  0
BLOCK_RECORD
  5
1B
330
1
100
AcDbSymbolTableRecord
100
AcDbBlockTableRecord
  2
*PAPER_SPACE
  0
ENDTAB
  0
ENDSEC
  0
SECTION
  2
BLOCKS
  0
BLOCK
  5
20
330
1F
100
AcDbEntity
  8
0
100
AcDbBlockBegin
  2
*MODEL_SPACE
 70
     0
 10
0.0
 20
0.0
 30
0.0
  3
*MODEL_SPACE
  1

  0
ENDBLK
  5
21
330
1F
100
AcDbEntity
  8
0
100
AcDbBlockEnd
  0
BLOCK
  5
1C
330
1B
100
AcDbEntity
 67
     1
  8
0
100
AcDbBlockBegin
  2
*PAPER_SPACE
  1

  0
ENDBLK
  5
1D
330
1B
100
AcDbEntity
 67
     1
  8
0
100
AcDbBlockEnd
  0
ENDSEC
  0
SECTION
  2
ENTITIES
  0
LWPOLYLINE
  5
100
100
AcDbEntity
  8
Capa_2
 62
7
100
AcDbPolyline
 90
64
 70
1
 10
3.538054
 20
6.338150
 30
0.0
 10
2.712397
 20
8.748210
 30
0.0
 10
2.152000
 20
10.964370
 30
0.0
 10
1.842200
 20
12.986050
 30
0.0
 10
1.768334
 20
14.812650
 30
0.0
 10
1.915736
 20
16.443580
 30
0.0
 10
2.269742
 20
17.878260
 30
0.0
 10
2.815690
 20
19.116100
 30
0.0
 10
3.538916
 20
20.156500
 30
0.0
 10
4.424754
 20
20.998880
 30
0.0
 10
5.458542
 20
21.642670
 30
0.0
 10
6.625614
 20
22.087250
 30
0.0
 10
7.911311
 20
22.332040
 30
0.0
 10
9.300965
 20
22.376440
 30
0.0
 10
10.779911
 20
22.219870
 30
0.0
 10
12.333484
 20
21.861760
 30
0.0
 10
13.947031
 20
21.301540
 30
0.0
 10
14.525266
 20
21.059510
 30
0.0
 10
15.114461
 20
20.798040
 30
0.0
 10
15.715637
 20
20.519950
 30
0.0
 10
16.329819
 20
20.228080
 30
0.0
 10
16.958026
 20
19.925260
 30
0.0
 10
17.601287
 20
19.614320
 30
0.0
 10
18.260619
 20
19.298100
 30
0.0
 10
18.937050
 20
18.979420
 30
0.0
 10
19.631597
 20
18.661130
 30
0.0
 10
20.345290
 20
18.346040
 30
0.0
 10
21.079145
 20
18.037000
 30
0.0
 10
21.834190
 20
17.736840
 30
0.0
 10
22.611445
 20
17.448390
 30
0.0
 10
23.411934
 20
17.174480
 30
0.0
 10
24.236680
 20
16.917940
 30
0.0
 10
25.086705
 20
16.681610
 30
0.0
 10
23.242168
 20
16.651410
 30
0.0
 10
21.455459
 20
16.549760
 30
0.0
 10
19.728407
 20
16.374130
 30
0.0
 10
18.062843
 20
16.122360
 30
0.0
 10
16.460594
 20
15.792210
 30
0.0
 10
14.923492
 20
15.381420
 30
0.0
 10
13.453365
 20
14.887730
 30
0.0
 10
12.052046
 20
14.308880
 30
0.0
 10
10.721360
 20
13.642620
 30
0.0
 10
9.463142
 20
12.886680
 30
0.0
 10
8.279217
 20
12.038820
 30
0.0
 10
7.171416
 20
11.096770
 30
0.0
 10
6.141570
 20
10.058280
 30
0.0
 10
5.191508
 20
8.921100
 30
0.0
 10
4.323059
 20
7.682960
 30
0.0
 10
3.538054
 20
6.341610
 30
0.0
 10
3.538054
 20
6.341390
 30
0.0
 10
3.538054
 20
6.341180
 30
0.0
 10
3.538054
 20
6.340960
 30
0.0
 10
3.538054
 20
6.340750
 30
0.0
 10
3.538054
 20
6.340530
 30
0.0
 10
3.538054
 20
6.340320
 30
0.0
 10
3.538054
 20
6.340100
 30
0.0
 10
3.538054
 20
6.339880
 30
0.0
 10
3.538054
 20
6.339660
 30
0.0
 10
3.538054
 20
6.339450
 30
0.0
 10
3.538054
 20
6.339230
 30
0.0
 10
3.538054
 20
6.339020
 30
0.0
 10
3.538054
 20
6.338800
 30
0.0
 10
3.538054
 20
6.338590
 30
0.0
 10
3.538054
 20
6.338370
 30
0.0
  0
ENDSEC
  0
SECTION
  2
OBJECTS
  0
DICTIONARY
  5
C
330
0
100
AcDbDictionary
  3
ACAD_GROUP
350
D
  3
ACAD_MLINESTYLE
350
17
  0
DICTIONARY
  5
D
330
C
100
AcDbDictionary
  0
DICTIONARY
  5
1A
330
C
100
AcDbDictionary
  0
DICTIONARY
  5
17
330
C
100
AcDbDictionary
  3
STANDARD
350
18
  0
DICTIONARY
  5
19
330
C
100
AcDbDictionary
  0
ENDSEC
  0
EOF
