<?xml version="1.0" encoding="UTF-8" standalone="no"?>
<!-- Generator: Adobe Illustrator 14.0.0, SVG Export Plug-In . SVG Version: 6.00 Build 43363)  -->

<svg
   xmlns:dc="http://purl.org/dc/elements/1.1/"
   xmlns:cc="http://creativecommons.org/ns#"
   xmlns:rdf="http://www.w3.org/1999/02/22-rdf-syntax-ns#"
   xmlns:svg="http://www.w3.org/2000/svg"
   xmlns="http://www.w3.org/2000/svg"
   xmlns:sodipodi="http://sodipodi.sourceforge.net/DTD/sodipodi-0.dtd"
   xmlns:inkscape="http://www.inkscape.org/namespaces/inkscape"
   version="1.1"
   id="Layer_1"
   x="0px"
   y="0px"
   width="612px"
   height="792px"
   viewBox="0 0 612 792"
   enable-background="new 0 0 612 792"
   xml:space="preserve"
   sodipodi:docname="batman-11.svg"
   inkscape:version="0.92.5 (2060ec1f9f, 2020-04-08)"><metadata
   id="metadata13"><rdf:RDF><cc:Work
       rdf:about=""><dc:format>image/svg+xml</dc:format><dc:type
         rdf:resource="http://purl.org/dc/dcmitype/StillImage" /><dc:title></dc:title></cc:Work></rdf:RDF></metadata><defs
   id="defs11" /><sodipodi:namedview
   pagecolor="#ffffff"
   bordercolor="#666666"
   borderopacity="1"
   objecttolerance="10"
   gridtolerance="10"
   guidetolerance="10"
   inkscape:pageopacity="0"
   inkscape:pageshadow="2"
   inkscape:window-width="1920"
   inkscape:window-height="1017"
   id="namedview9"
   showgrid="false"
   inkscape:zoom="1.4142136"
   inkscape:cx="281.73872"
   inkscape:cy="187.46368"
   inkscape:window-x="-8"
   inkscape:window-y="760"
   inkscape:window-maximized="1"
   inkscape:current-layer="g6" />
<g
   id="g6"
   transform="matrix(2.5408081,0,0,2.5408081,-510.80008,-385.89496)">
	
	<path
   d="m 321.33177,392.7732 c 3.38853,0 4.74641,0.67826 4.74641,0.67826 l 2.03339,-8.58619 c 0,0 1.58214,6.5528 2.2604,12.42871 0.67825,5.87592 11.0722,2.03477 19.88539,0.22563 8.81182,-1.80776 10.62095,-16.04424 10.62095,-16.04424 h 81.57498 c 0,0 -49.26224,14.91473 -36.83215,47.67872 0,0 -72.76316,-11.0722 -84.06099,34.34888 h -0.001 c -11.29784,-45.42108 -84.061,-34.34888 -84.061,-34.34888 12.42872,-32.76399 -36.83214,-47.67872 -36.83214,-47.67872 h 81.57497 c 0,0 1.80777,14.23648 10.61958,16.04424 8.81319,1.80776 19.20852,5.64892 19.8854,-0.22563 0.67825,-5.87591 2.26039,-12.42871 2.26039,-12.42871 l 2.03476,8.58619 c 0,0 1.35514,-0.67826 4.74504,-0.67826 z"
   id="path4"
   inkscape:connector-curvature="0"
   style="stroke-width:1.37577116;stroke:#000000;stroke-opacity:1;fill:none" />
</g>
</svg>