  0
SECTION
  2
HEADER
  9
$ACADVER
  1
AC1014
  9
$HANDSEED
  5
FFFF
  9
$MEASUREMENT
 70
     1
  0
ENDSEC
  0
SECTION
  2
TABLES
  0
TABLE
  2
VPORT
  5
8
330
0
100
AcDbSymbolTable
 70
     4
  0
VPORT
  5
2E
330
8
100
AcDbSymbolTableRecord
100
AcDbViewportTableRecord
  2
*ACTIVE
 70
     0
 10
0.0
 20
0.0
 11
1.0
 21
1.0
 12
210.0
 22
148.5
 13
0.0
 23
0.0
 14
10.0
 24
10.0
 15
10.0
 25
10.0
 16
0.0
 26
0.0
 36
1.0
 17
0.0
 27
0.0
 37
0.0
 40
341.0
 41
1.24
 42
50.0
 43
0.0
 44
0.0
 50
0.0
 51
0.0
 71
     0
 72
   100
 73
     1
 74
     3
 75
     0
 76
     0
 77
     0
 78
     0
  0
ENDTAB
  0
TABLE
  2
LTYPE
  5
5
330
0
100
AcDbSymbolTable
 70
     1
  0
LTYPE
  5
14
330
5
100
AcDbSymbolTableRecord
100
AcDbLinetypeTableRecord
  2
BYBLOCK
 70
     0
  3

 72
    65
 73
     0
 40
0.0
  0
LTYPE
  5
15
330
5
100
AcDbSymbolTableRecord
100
AcDbLinetypeTableRecord
  2
BYLAYER
 70
     0
  3

 72
    65
 73
     0
 40
0.0
  0
LTYPE
  5
16
330
5
100
AcDbSymbolTableRecord
100
AcDbLinetypeTableRecord
  2
CONTINUOUS
 70
     0
  3
Solid line
 72
    65
 73
     0
 40
0.0
  0
ENDTAB
  0
TABLE
  2
LAYER
  5
2
100
AcDbSymbolTable
 70
2
  0
LAYER
  5
50
100
AcDbSymbolTableRecord
100
AcDbLayerTableRecord
  2
0
 70
0
  6
CONTINUOUS
  0
LAYER
  5
51
100
AcDbSymbolTableRecord
100
AcDbLayerTableRecord
  2
Capa_1
 70
0
  6
CONTINUOUS
  0
ENDTAB
  0
TABLE
  2
STYLE
  5
3
330
0
100
AcDbSymbolTable
 70
     1
  0
STYLE
  5
11
330
3
100
AcDbSymbolTableRecord
100
AcDbTextStyleTableRecord
  2
STANDARD
 70
     0
 40
0.0
 41
1.0
 50
0.0
 71
     0
 42
2.5
  3
txt
  4

  0
ENDTAB
  0
TABLE
  2
VIEW
  5
6
330
0
100
AcDbSymbolTable
 70
     0
  0
ENDTAB
  0
TABLE
  2
UCS
  5
7
330
0
100
AcDbSymbolTable
 70
     0
  0
ENDTAB
  0
TABLE
  2
APPID
  5
9
330
0
100
AcDbSymbolTable
 70
     2
  0
APPID
  5
12
330
9
100
AcDbSymbolTableRecord
100
AcDbRegAppTableRecord
  2
ACAD
 70
     0
  0
ENDTAB
  0
TABLE
  2
DIMSTYLE
  5
A
330
0
100
AcDbSymbolTable
 70
     1
  0
DIMSTYLE
105
27
330
A
100
AcDbSymbolTableRecord
100
AcDbDimStyleTableRecord
  2
ISO-25
 70
     0
  3

  4

  5

  6

  7

 40
1.0
 41
2.5
 42
0.625
 43
3.75
 44
1.25
 45
0.0
 46
0.0
 47
0.0
 48
0.0
140
2.5
141
2.5
142
0.0
143
0.03937007874016
144
1.0
145
0.0
146
1.0
147
0.625
 71
     0
 72
     0
 73
     0
 74
     0
 75
     0
 76
     0
 77
     1
 78
     8
170
     0
171
     3
172
     1
173
     0
174
     0
175
     0
176
     0
177
     0
178
     0
270
     2
271
     2
272
     2
273
     2
274
     3
340
11
275
     0
280
     0
281
     0
282
     0
283
     0
284
     8
285
     0
286
     0
287
     3
288
     0
  0
ENDTAB
  0
TABLE
  2
BLOCK_RECORD
  5
1
330
0
100
AcDbSymbolTable
 70
     1
  0
BLOCK_RECORD
  5
1F
330
1
100
AcDbSymbolTableRecord
100
AcDbBlockTableRecord
  2
*MODEL_SPACE
  0
BLOCK_RECORD
  5
1B
330
1
100
AcDbSymbolTableRecord
100
AcDbBlockTableRecord
  2
*PAPER_SPACE
  0
ENDTAB
  0
ENDSEC
  0
SECTION
  2
BLOCKS
  0
BLOCK
  5
20
330
1F
100
AcDbEntity
  8
0
100
AcDbBlockBegin
  2
*MODEL_SPACE
 70
     0
 10
0.0
 20
0.0
 30
0.0
  3
*MODEL_SPACE
  1

  0
ENDBLK
  5
21
330
1F
100
AcDbEntity
  8
0
100
AcDbBlockEnd
  0
BLOCK
  5
1C
330
1B
100
AcDbEntity
 67
     1
  8
0
100
AcDbBlockBegin
  2
*PAPER_SPACE
  1

  0
ENDBLK
  5
1D
330
1B
100
AcDbEntity
 67
     1
  8
0
100
AcDbBlockEnd
  0
ENDSEC
  0
SECTION
  2
ENTITIES
  0
LWPOLYLINE
  5
100
100
AcDbEntity
  8
Capa_1
 62
7
100
AcDbPolyline
 90
64
 70
1
 10
27.998103
 20
14.059600
 30
0.0
 10
27.926143
 20
12.634470
 30
0.0
 10
27.714926
 20
11.250500
 30
0.0
 10
27.371461
 20
9.914710
 30
0.0
 10
26.902750
 20
8.634100
 30
0.0
 10
26.315804
 20
7.415680
 30
0.0
 10
25.617628
 20
6.266440
 30
0.0
 10
24.815230
 20
5.193410
 30
0.0
 10
23.915611
 20
4.203580
 30
0.0
 10
22.925780
 20
3.303960
 30
0.0
 10
21.852748
 20
2.501560
 30
0.0
 10
20.703515
 20
1.803380
 30
0.0
 10
19.485090
 20
1.216440
 30
0.0
 10
18.204478
 20
0.747730
 30
0.0
 10
16.868688
 20
0.404260
 30
0.0
 10
15.484723
 20
0.193040
 30
0.0
 10
14.059590
 20
0.121040
 30
0.0
 10
12.634457
 20
0.193040
 30
0.0
 10
11.250492
 20
0.404260
 30
0.0
 10
9.914701
 20
0.747730
 30
0.0
 10
8.634089
 20
1.216440
 30
0.0
 10
7.415665
 20
1.803390
 30
0.0
 10
6.266431
 20
2.501560
 30
0.0
 10
5.193398
 20
3.303960
 30
0.0
 10
4.203565
 20
4.203580
 30
0.0
 10
3.303949
 20
5.193410
 30
0.0
 10
2.501547
 20
6.266440
 30
0.0
 10
1.803370
 20
7.415680
 30
0.0
 10
1.216425
 20
8.634100
 30
0.0
 10
0.747716
 20
9.914710
 30
0.0
 10
0.404249
 20
11.250500
 30
0.0
 10
0.193030
 20
12.634470
 30
0.0
 10
0.121068
 20
14.059600
 30
0.0
 10
0.193031
 20
15.484730
 30
0.0
 10
0.404249
 20
16.868700
 30
0.0
 10
0.747716
 20
18.204490
 30
0.0
 10
1.216426
 20
19.485100
 30
0.0
 10
1.803372
 20
20.703520
 30
0.0
 10
2.501548
 20
21.852760
 30
0.0
 10
3.303946
 20
22.925790
 30
0.0
 10
4.203566
 20
23.915620
 30
0.0
 10
5.193396
 20
24.815240
 30
0.0
 10
6.266428
 20
25.617640
 30
0.0
 10
7.415661
 20
26.315820
 30
0.0
 10
8.634086
 20
26.902760
 30
0.0
 10
9.914698
 20
27.371470
 30
0.0
 10
11.250488
 20
27.714940
 30
0.0
 10
12.634453
 20
27.926160
 30
0.0
 10
14.059586
 20
27.998160
 30
0.0
 10
15.484719
 20
27.926160
 30
0.0
 10
16.868684
 20
27.714940
 30
0.0
 10
18.204474
 20
27.371470
 30
0.0
 10
19.485086
 20
26.902760
 30
0.0
 10
20.703510
 20
26.315810
 30
0.0
 10
21.852744
 20
25.617640
 30
0.0
 10
22.925777
 20
24.815240
 30
0.0
 10
23.915606
 20
23.915620
 30
0.0
 10
24.815222
 20
22.925790
 30
0.0
 10
25.617623
 20
21.852760
 30
0.0
 10
26.315800
 20
20.703520
 30
0.0
 10
26.902745
 20
19.485100
 30
0.0
 10
27.371455
 20
18.204490
 30
0.0
 10
27.714922
 20
16.868700
 30
0.0
 10
27.926141
 20
15.484730
 30
0.0
  0
LWPOLYLINE
  5
101
100
AcDbEntity
  8
Capa_1
 62
7
100
AcDbPolyline
 90
64
 70
1
 10
4.020589
 20
7.096420
 30
0.0
 10
5.810666
 20
8.179500
 30
0.0
 10
7.493042
 20
8.887480
 30
0.0
 10
9.085827
 20
9.269690
 30
0.0
 10
10.607132
 20
9.375470
 30
0.0
 10
12.075064
 20
9.254160
 30
0.0
 10
13.507733
 20
8.955100
 30
0.0
 10
14.923247
 20
8.527630
 30
0.0
 10
16.339717
 20
8.021080
 30
0.0
 10
17.775252
 20
7.484800
 30
0.0
 10
19.247960
 20
6.968110
 30
0.0
 10
20.775950
 20
6.520370
 30
0.0
 10
22.377334
 20
6.190910
 30
0.0
 10
24.070218
 20
6.029070
 30
0.0
 10
25.872713
 20
6.084170
 30
0.0
 10
27.802928
 20
6.405580
 30
0.0
 10
29.878972
 20
7.042610
 30
0.0
 10
28.604339
 20
7.245840
 30
0.0
 10
27.388540
 20
7.555990
 30
0.0
 10
26.222001
 20
7.957610
 30
0.0
 10
25.095150
 20
8.435250
 30
0.0
 10
23.998413
 20
8.973490
 30
0.0
 10
22.922222
 20
9.556880
 30
0.0
 10
21.857000
 20
10.169970
 30
0.0
 10
20.793174
 20
10.797340
 30
0.0
 10
19.721174
 20
11.423540
 30
0.0
 10
18.631427
 20
12.033120
 30
0.0
 10
17.514359
 20
12.610650
 30
0.0
 10
16.360397
 20
13.140690
 30
0.0
 10
15.159972
 20
13.607800
 30
0.0
 10
13.903506
 20
13.996530
 30
0.0
 10
12.581430
 20
14.291450
 30
0.0
 10
11.184171
 20
14.477110
 30
0.0
 10
9.949872
 20
14.487110
 30
0.0
 10
8.818326
 20
14.449710
 30
0.0
 10
7.789987
 20
14.361710
 30
0.0
 10
6.865307
 20
14.219870
 30
0.0
 10
6.044738
 20
14.020820
 30
0.0
 10
5.328734
 20
13.761200
 30
0.0
 10
4.717743
 20
13.437660
 30
0.0
 10
4.212224
 20
13.046850
 30
0.0
 10
3.812627
 20
12.585420
 30
0.0
 10
3.519398
 20
12.050030
 30
0.0
 10
3.332998
 20
11.437310
 30
0.0
 10
3.253875
 20
10.743930
 30
0.0
 10
3.282483
 20
9.966520
 30
0.0
 10
3.419273
 20
9.101740
 30
0.0
 10
3.664697
 20
8.146240
 30
0.0
 10
4.019211
 20
7.096670
 30
0.0
 10
4.019297
 20
7.096670
 30
0.0
 10
4.019383
 20
7.096670
 30
0.0
 10
4.019469
 20
7.096670
 30
0.0
 10
4.019555
 20
7.096680
 30
0.0
 10
4.019641
 20
7.096680
 30
0.0
 10
4.019728
 20
7.096680
 30
0.0
 10
4.019814
 20
7.096680
 30
0.0
 10
4.019900
 20
7.096690
 30
0.0
 10
4.019986
 20
7.096690
 30
0.0
 10
4.020072
 20
7.096690
 30
0.0
 10
4.020158
 20
7.096690
 30
0.0
 10
4.020245
 20
7.096690
 30
0.0
 10
4.020331
 20
7.096690
 30
0.0
 10
4.020417
 20
7.096700
 30
0.0
 10
4.020503
 20
7.096680
 30
0.0
  0
LWPOLYLINE
  5
102
100
AcDbEntity
  8
Capa_1
 62
7
100
AcDbPolyline
 90
64
 70
1
 10
3.538054
 20
6.338150
 30
0.0
 10
2.712397
 20
8.748210
 30
0.0
 10
2.152000
 20
10.964370
 30
0.0
 10
1.842200
 20
12.986050
 30
0.0
 10
1.768334
 20
14.812650
 30
0.0
 10
1.915736
 20
16.443580
 30
0.0
 10
2.269742
 20
17.878260
 30
0.0
 10
2.815690
 20
19.116100
 30
0.0
 10
3.538916
 20
20.156500
 30
0.0
 10
4.424754
 20
20.998880
 30
0.0
 10
5.458542
 20
21.642670
 30
0.0
 10
6.625614
 20
22.087250
 30
0.0
 10
7.911311
 20
22.332040
 30
0.0
 10
9.300965
 20
22.376440
 30
0.0
 10
10.779911
 20
22.219870
 30
0.0
 10
12.333484
 20
21.861760
 30
0.0
 10
13.947031
 20
21.301540
 30
0.0
 10
14.525266
 20
21.059510
 30
0.0
 10
15.114461
 20
20.798040
 30
0.0
 10
15.715637
 20
20.519950
 30
0.0
 10
16.329819
 20
20.228080
 30
0.0
 10
16.958026
 20
19.925260
 30
0.0
 10
17.601287
 20
19.614320
 30
0.0
 10
18.260619
 20
19.298100
 30
0.0
 10
18.937050
 20
18.979420
 30
0.0
 10
19.631597
 20
18.661130
 30
0.0
 10
20.345290
 20
18.346040
 30
0.0
 10
21.079145
 20
18.037000
 30
0.0
 10
21.834190
 20
17.736840
 30
0.0
 10
22.611445
 20
17.448390
 30
0.0
 10
23.411934
 20
17.174480
 30
0.0
 10
24.236680
 20
16.917940
 30
0.0
 10
25.086705
 20
16.681610
 30
0.0
 10
23.242168
 20
16.651410
 30
0.0
 10
21.455459
 20
16.549760
 30
0.0
 10
19.728407
 20
16.374130
 30
0.0
 10
18.062843
 20
16.122360
 30
0.0
 10
16.460594
 20
15.792210
 30
0.0
 10
14.923492
 20
15.381420
 30
0.0
 10
13.453365
 20
14.887730
 30
0.0
 10
12.052046
 20
14.308880
 30
0.0
 10
10.721360
 20
13.642620
 30
0.0
 10
9.463142
 20
12.886680
 30
0.0
 10
8.279217
 20
12.038820
 30
0.0
 10
7.171416
 20
11.096770
 30
0.0
 10
6.141570
 20
10.058280
 30
0.0
 10
5.191508
 20
8.921100
 30
0.0
 10
4.323059
 20
7.682960
 30
0.0
 10
3.538054
 20
6.341610
 30
0.0
 10
3.538054
 20
6.341390
 30
0.0
 10
3.538054
 20
6.341180
 30
0.0
 10
3.538054
 20
6.340960
 30
0.0
 10
3.538054
 20
6.340750
 30
0.0
 10
3.538054
 20
6.340530
 30
0.0
 10
3.538054
 20
6.340320
 30
0.0
 10
3.538054
 20
6.340100
 30
0.0
 10
3.538054
 20
6.339880
 30
0.0
 10
3.538054
 20
6.339660
 30
0.0
 10
3.538054
 20
6.339450
 30
0.0
 10
3.538054
 20
6.339230
 30
0.0
 10
3.538054
 20
6.339020
 30
0.0
 10
3.538054
 20
6.338800
 30
0.0
 10
3.538054
 20
6.338590
 30
0.0
 10
3.538054
 20
6.338370
 30
0.0
  0
ENDSEC
  0
SECTION
  2
OBJECTS
  0
DICTIONARY
  5
C
330
0
100
AcDbDictionary
  3
ACAD_GROUP
350
D
  3
ACAD_MLINESTYLE
350
17
  0
DICTIONARY
  5
D
330
C
100
AcDbDictionary
  0
DICTIONARY
  5
1A
330
C
100
AcDbDictionary
  0
DICTIONARY
  5
17
330
C
100
AcDbDictionary
  3
STANDARD
350
18
  0
DICTIONARY
  5
19
330
C
100
AcDbDictionary
  0
ENDSEC
  0
EOF
