DBRep_DrawableShape

CASCADE Topology V1, (c) Matra-Datavision
Locations 45
1
              1               0               0               0 
              0               1               0               0 
              0               0               1               0 
2  1 -1 0
1
              1               0               0               0 
              0               1               0               0 
              0               0               1               0 
2  3 -1 0
2  1 -1 3 -1 0
1
              1               0               0              -0 
              0               1               0              -0 
              0               0               1             3.5 
2  3 1 6 1 0
2  6 -1 3 -1 0
2  1 -1 6 -1 3 -1 0
1
              1               0               0              -0 
              0               1               0              -0 
              0               0               1             3.5 
2  3 1 10 1 0
2  6 1 10 -1 3 -1 0
2  10 -1 3 -1 0
2  1 -1 10 -1 3 -1 0
1
              1               0               0              -0 
              0               1               0               0 
              0               0               1            1.75 
2  1 -1 15 -1 0
2  1 -1 15 -1 3 -1 0
1
              1               0               0              -0 
              0               1               0               0 
              0               0               1             3.5 
2  3 1 18 1 0
2  18 -1 3 -1 0
2  1 -1 15 -1 18 -1 3 -1 0
1
              1               0               0              -0 
              0               1               0               0 
              0               0               1             3.5 
2  3 1 22 1 0
2  18 1 22 -1 3 -1 0
2  22 -1 3 -1 0
2  1 -1 15 -1 22 -1 3 -1 0
1
              1               0               0              -0 
              0               1               0               0 
              0               0               1             3.5 
2  3 1 27 1 0
2  18 1 27 -1 3 -1 0
2  27 -1 3 -1 0
2  1 -1 15 -1 27 -1 3 -1 0
1
              1               0               0              -0 
              0               1               0               0 
              0               0               1             3.5 
2  1 -1 32 -1 0
2  1 -1 32 -1 3 -1 0
1
              1               0               0              -0 
              0               1               0               0 
              0               0               1             0.3 
2  3 1 35 1 0
2  35 -1 3 -1 0
2  1 -1 32 -1 35 -1 3 -1 0
1
              1               0               0              -0 
              0               1               0               0 
              0               0               1             3.5 
2  1 -1 39 -1 0
2  1 -1 39 -1 3 -1 0
1
              1               0               0              -0 
              0               1               0               0 
              0               0               1             0.3 
2  3 1 42 1 0
2  42 -1 3 -1 0
2  1 -1 39 -1 42 -1 3 -1 0
Curve2ds 168
1 0 0 0 -1 
1 120 0 0 -1 
1 100 0 0 -1 
1 0 0 0 -1 
1 0 0 1 0 
1 0 0 -1 0 
1 0 -3.5 1 0 
1 0 0 -1 0 
1 0 0 0 -1 
1 100 0 0 -1 
1 0 0 1 0 
1 0 120 0 -1 
1 0 -3.5 1 0 
1 0 120 0 -1 
1 120 0 0 -1 
1 0 0 0 -1 
1 0 0 1 0 
1 -100 0 0 1 
1 0 -3.5 1 0 
1 -100 0 0 1 
1 -100 120 1 0 
1 0 0 1 0 
1 -3.5 116.5 -1 0 
1 0 0 1 0 
1 -96.5 116.5 0 -1 
1 0 0 1 0 
1 -96.5 6 1 0 
1 0 0 1 0 
1 -3.5 6 0 1 
1 0 0 1 0 
1 -100 120 1 0 
1 0 -3.5 1 0 
1 -3.5 116.5 -1 0 
1 0 -3.5 1 0 
1 -3.5 6 0 1 
1 0 -3.5 1 0 
1 -96.5 116.5 0 -1 
1 0 -3.5 1 0 
1 -96.5 6 1 0 
1 0 -3.5 1 0 
1 0 0 0 -1 
1 110.5 0 0 -1 
1 93 0 0 -1 
1 0 0 0 -1 
1 110.5 0 0 -1 
1 0 0 0 -1 
1 93 0 0 -1 
1 0 0 0 -1 
1 0 0 0 -1 
1 110.5 0 0 -1 
1 93 0 0 -1 
1 0 0 0 -1 
1 0 0 1 0 
1 0 0 1 0 
1 0 -3.5 1 0 
1 0 0 1 0 
1 0 0 0 -1 
1 93 0 0 -1 
1 0 0 1 0 
1 0 -110.5 0 1 
1 0 -3.5 1 0 
1 0 -110.5 0 1 
1 110.5 0 0 -1 
1 0 -0 0 -1 
1 0 0 1 0 
1 93 0 0 -1 
1 0 -3.5 1 0 
1 93 0 0 -1 
1 93 -110.5 -1 0 
1 0 -0 1 0 
1 5 -105.5 0 1 
1 0 0 1 0 
1 44 -105.5 -1 0 
1 0 -0 1 0 
1 5 -5 1 0 
1 0 0 1 0 
1 44 -5 0 -1 
1 0 0 1 0 
1 49 -105.5 0 1 
1 0 0 1 0 
1 88 -105.5 -1 0 
1 0 -0 1 0 
1 88 -5 0 -1 
1 0 0 1 0 
1 49 -5 1 0 
1 0 0 1 0 
1 93 -110.5 -1 0 
1 0 -3.5 1 0 
1 5 -105.5 0 1 
1 0 -3.5 1 0 
1 44 -105.5 -1 0 
1 0 -3.5 1 0 
1 5 -5 1 0 
1 0 -3.5 1 0 
1 44 -5 0 -1 
1 0 -3.5 1 0 
1 49 -105.5 0 1 
1 0 -3.5 1 0 
1 88 -105.5 -1 0 
1 0 -3.5 1 0 
1 88 -5 0 -1 
1 0 -3.5 1 0 
1 49 -5 1 0 
1 0 -3.5 1 0 
1 0 0 0 -1 
1 39 0 0 -1 
1 100.5 0 0 -1 
1 0 0 0 -1 
1 0 -0 0 -1 
1 100.5 0 0 -1 
1 39 0 0 -1 
1 0 0 0 -1 
1 0 0 0 -1 
1 39 0 0 -1 
1 100.5 0 0 -1 
1 0 0 0 -1 
1 0 -0 0 -1 
1 100.5 0 0 -1 
1 0 0 0 -1 
1 39 0 0 -1 
1 0 0 0 -1 
1 100.5 0 0 -1 
1 39 0 0 -1 
1 0 0 0 -1 
1 0 0 1 0 
1 0 0 1 0 
1 0 -0.29999999999999982 1 0 
1 0 0 1 0 
1 100.5 0 0 -1 
1 0 -0 0 -1 
1 0 0 1 0 
1 39 0 0 -1 
1 0 -0.29999999999999982 1 0 
1 39 0 0 -1 
1 39 0 0 -1 
1 0 0 0 -1 
1 0 -0 1 0 
1 39 -100.5 -1 0 
1 0 -0.29999999999999982 1 0 
1 39 -100.5 -1 0 
1 0 0 1 0 
1 0 -100.5 0 1 
1 0 -0.29999999999999982 1 0 
1 0 -100.5 0 1 
1 0 0 0 -1 
1 100.5 0 0 -1 
1 39 0 0 -1 
1 0 0 0 -1 
1 0 0 1 0 
1 0 0 1 0 
1 0 -0.29999999999999982 1 0 
1 0 0 1 0 
1 100.5 0 0 -1 
1 0 -0 0 -1 
1 0 0 1 0 
1 39 0 0 -1 
1 0 -0.29999999999999982 1 0 
1 39 0 0 -1 
1 39 0 0 -1 
1 0 0 0 -1 
1 0 -0 1 0 
1 39 -100.5 -1 0 
1 0 -0.29999999999999982 1 0 
1 39 -100.5 -1 0 
1 0 0 1 0 
1 0 -100.5 0 1 
1 0 -0.29999999999999982 1 0 
1 0 -100.5 0 1 
Curves 84
1 0 0 0 -0 -0 1 
1 100 0 0 -0 -0 1 
1 0 0 0 1 0 0 
1 0 0 0 1 0 0 
1 0 120 0 -0 -0 1 
1 0 120 0 0 -1 0 
1 0 120 0 0 -1 0 
1 100 120 0 -0 -0 1 
1 100 0 0 0 1 0 
1 100 0 0 0 1 0 
1 100 120 0 -1 0 0 
1 3.5 116.5 0 1 0 0 
1 96.5 116.5 0 0 -1 0 
1 96.5 6 0 -1 0 0 
1 3.5 6 0 0 1 0 
1 100 120 0 -1 0 0 
1 3.5 116.5 0 1 0 0 
1 3.5 6 0 0 1 0 
1 96.5 116.5 0 0 -1 0 
1 96.5 6 0 -1 0 0 
1 3.5 116.5 0 -0 -0 1 
1 96.5 116.5 0 -0 -0 1 
1 96.5 6 0 -0 -0 1 
1 3.5 6 0 -0 -0 1 
1 3.5 116.5 0 -0 0 1 
1 96.5 116.5 0 -0 0 1 
1 3.5 116.5 0 1 0 0 
1 3.5 116.5 0 1 0 0 
1 3.5 6 0 -0 0 1 
1 3.5 6 0 0 1 0 
1 3.5 6 0 0 1 0 
1 96.5 6 0 -0 0 1 
1 96.5 116.5 0 0 -1 0 
1 96.5 116.5 0 0 -1 0 
1 96.5 6 0 -1 0 0 
1 8.5 11 0 0 1 0 
1 47.5 11 0 -1 0 0 
1 8.5 111.5 0 1 0 0 
1 47.5 111.5 0 0 -1 0 
1 52.5 11 0 0 1 0 
1 91.5 11 0 -1 0 0 
1 91.5 111.5 0 0 -1 0 
1 52.5 111.5 0 1 0 0 
1 96.5 6 0 -1 0 0 
1 8.5 11 0 0 1 0 
1 47.5 11 0 -1 0 0 
1 8.5 111.5 0 1 0 0 
1 47.5 111.5 0 0 -1 0 
1 52.5 11 0 0 1 0 
1 91.5 11 0 -1 0 0 
1 91.5 111.5 0 0 -1 0 
1 52.5 111.5 0 1 0 0 
1 8.5 11 0 -0 0 1 
1 8.5 111.5 0 -0 0 1 
1 47.5 11 0 -0 0 1 
1 47.5 111.5 0 -0 0 1 
1 52.5 11 0 -0 0 1 
1 52.5 111.5 0 -0 0 1 
1 91.5 11 0 -0 0 1 
1 91.5 111.5 0 -0 0 1 
1 8.5 111.5 0 -0 0 1 
1 47.5 111.5 0 -0 0 1 
1 8.5 111.5 0 1 0 0 
1 8.5 111.5 0 1 0 0 
1 47.5 11 0 -0 0 1 
1 47.5 111.5 0 0 -1 0 
1 47.5 111.5 0 0 -1 0 
1 8.5 11 0 -0 0 1 
1 47.5 11 0 -1 0 0 
1 47.5 11 0 -1 0 0 
1 8.5 11 0 0 1 0 
1 8.5 11 0 0 1 0 
1 52.5 111.5 0 -0 0 1 
1 91.5 111.5 0 -0 0 1 
1 52.5 111.5 0 1 0 0 
1 52.5 111.5 0 1 0 0 
1 91.5 11 0 -0 0 1 
1 91.5 111.5 0 0 -1 0 
1 91.5 111.5 0 0 -1 0 
1 52.5 11 0 -0 0 1 
1 91.5 11 0 -1 0 0 
1 91.5 11 0 -1 0 0 
1 52.5 11 0 0 1 0 
1 52.5 11 0 0 1 0 
Polygon3D 0
PolygonOnTriangulations 168
2 1 2 
p 0.375416666666667 1 0 3.5 
2 3 4 
p 0.375416666666667 1 0 3.5 
2 3 4 
p 0.375416666666667 1 0 3.5 
2 1 2 
p 0.375416666666667 1 0 3.5 
2 1 3 
p 0.375416666666667 1 0 100 
2 1 2 
p 0.375416666666667 1 0 100 
2 2 4 
p 0.375416666666667 1 0 100 
2 1 2 
p 0.375416666666667 1 0 100 
2 1 2 
p 0.375416666666667 1 0 3.5 
2 3 4 
p 0.375416666666667 1 0 3.5 
2 1 3 
p 0.375416666666667 1 0 120 
2 3 1 
p 0.375416666666667 1 0 120 
2 2 4 
p 0.375416666666667 1 0 120 
2 3 1 
p 0.375416666666667 1 0 120 
2 3 4 
p 0.375416666666667 1 0 3.5 
2 1 2 
p 0.375416666666667 1 0 3.5 
2 1 3 
p 0.375416666666667 1 0 120 
2 2 4 
p 0.375416666666667 1 0 120 
2 2 4 
p 0.375416666666667 1 0 120 
2 2 4 
p 0.375416666666667 1 0 120 
2 4 3 
p 0.375416666666667 1 0 100 
2 1 3 
p 0.375416666666667 1 0 100 
2 5 6 
p 0.375416666666667 1 0 93 
2 1 3 
p 0.375416666666667 1 0 93 
2 6 7 
p 0.375416666666667 1 0 110.5 
2 1 3 
p 0.375416666666667 1 0 110.5 
2 7 8 
p 0.375416666666667 1 0 93 
2 1 3 
p 0.375416666666667 1 0 93 
2 8 5 
p 0.375416666666667 1 0 110.5 
2 1 3 
p 0.375416666666667 1 0 110.5 
2 4 3 
p 0.375416666666667 1 0 100 
2 2 4 
p 0.375416666666667 1 0 100 
2 5 6 
p 0.375416666666667 1 0 93 
2 2 4 
p 0.375416666666667 1 0 93 
2 7 5 
p 0.375416666666667 1 0 110.5 
2 2 4 
p 0.375416666666667 1 0 110.5 
2 6 8 
p 0.375416666666667 1 0 110.5 
2 2 4 
p 0.375416666666667 1 0 110.5 
2 8 7 
p 0.375416666666667 1 0 93 
2 2 4 
p 0.375416666666667 1 0 93 
2 1 2 
p 0.375416666666667 1 0 3.5 
2 3 4 
p 0.375416666666667 1 0 3.5 
2 3 4 
p 0.375416666666667 1 0 3.5 
2 1 2 
p 0.375416666666667 1 0 3.5 
2 3 4 
p 0.375416666666667 1 0 3.5 
2 1 2 
p 0.375416666666667 1 0 3.5 
2 3 4 
p 0.375416666666667 1 0 3.5 
2 1 2 
p 0.375416666666667 1 0 3.5 
2 1 2 
p 0.375416666666667 1 0 3.5 
2 3 4 
p 0.375416666666667 1 0 3.5 
2 3 4 
p 0.375416666666667 1 0 3.5 
2 1 2 
p 0.375416666666667 1 0 3.5 
2 1 3 
p 0.375416666666667 1 0 93 
2 1 2 
p 0.375416666666667 1 0 93 
2 2 4 
p 0.375416666666667 1 0 93 
2 1 2 
p 0.375416666666667 1 0 93 
2 1 2 
p 0.375416666666667 1 0 3.5 
2 3 4 
p 0.375416666666667 1 0 3.5 
2 1 3 
p 0.375416666666667 1 0 110.5 
2 3 1 
p 0.375416666666667 1 0 110.5 
2 2 4 
p 0.375416666666667 1 0 110.5 
2 3 1 
p 0.375416666666667 1 0 110.5 
2 3 4 
p 0.375416666666667 1 0 3.5 
2 1 2 
p 0.375416666666667 1 0 3.5 
2 1 3 
p 0.375416666666667 1 0 110.5 
2 2 4 
p 0.375416666666667 1 0 110.5 
2 2 4 
p 0.375416666666667 1 0 110.5 
2 2 4 
p 0.375416666666667 1 0 110.5 
2 4 3 
p 0.375416666666667 1 0 93 
2 1 3 
p 0.375416666666667 1 0 93 
2 5 6 
p 0.375416666666667 1 0 100.5 
2 1 3 
p 0.375416666666667 1 0 100.5 
2 7 5 
p 0.375416666666667 1 0 39 
2 1 3 
p 0.375416666666667 1 0 39 
2 6 8 
p 0.375416666666667 1 0 39 
2 1 3 
p 0.375416666666667 1 0 39 
2 8 7 
p 0.375416666666667 1 0 100.5 
2 1 3 
p 0.375416666666667 1 0 100.5 
2 9 10 
p 0.375416666666667 1 0 100.5 
2 1 3 
p 0.375416666666667 1 0 100.5 
2 11 9 
p 0.375416666666667 1 0 39 
2 1 3 
p 0.375416666666667 1 0 39 
2 12 11 
p 0.375416666666667 1 0 100.5 
2 1 3 
p 0.375416666666667 1 0 100.5 
2 10 12 
p 0.375416666666667 1 0 39 
2 1 3 
p 0.375416666666667 1 0 39 
2 4 3 
p 0.375416666666667 1 0 93 
2 2 4 
p 0.375416666666667 1 0 93 
2 5 6 
p 0.375416666666667 1 0 100.5 
2 2 4 
p 0.375416666666667 1 0 100.5 
2 7 5 
p 0.375416666666667 1 0 39 
2 2 4 
p 0.375416666666667 1 0 39 
2 6 8 
p 0.375416666666667 1 0 39 
2 2 4 
p 0.375416666666667 1 0 39 
2 8 7 
p 0.375416666666667 1 0 100.5 
2 2 4 
p 0.375416666666667 1 0 100.5 
2 9 10 
p 0.375416666666667 1 0 100.5 
2 2 4 
p 0.375416666666667 1 0 100.5 
2 11 9 
p 0.375416666666667 1 0 39 
2 2 4 
p 0.375416666666667 1 0 39 
2 12 11 
p 0.375416666666667 1 0 100.5 
2 2 4 
p 0.375416666666667 1 0 100.5 
2 10 12 
p 0.375416666666667 1 0 39 
2 2 4 
p 0.375416666666667 1 0 39 
2 1 2 
p 0.375416666666667 1 0 3.5 
2 3 4 
p 0.375416666666667 1 0 3.5 
2 3 4 
p 0.375416666666667 1 0 3.5 
2 1 2 
p 0.375416666666667 1 0 3.5 
2 1 2 
p 0.375416666666667 1 0 3.5 
2 3 4 
p 0.375416666666667 1 0 3.5 
2 3 4 
p 0.375416666666667 1 0 3.5 
2 1 2 
p 0.375416666666667 1 0 3.5 
2 1 2 
p 0.375416666666667 1 0 3.5 
2 3 4 
p 0.375416666666667 1 0 3.5 
2 3 4 
p 0.375416666666667 1 0 3.5 
2 1 2 
p 0.375416666666667 1 0 3.5 
2 1 2 
p 0.375416666666667 1 0 3.5 
2 3 4 
p 0.375416666666667 1 0 3.5 
2 1 2 
p 0.375416666666667 1 0 3.5 
2 3 4 
p 0.375416666666667 1 0 3.5 
2 1 2 
p 0.375416666666667 1 0 0.3 
2 3 4 
p 0.375416666666667 1 0 0.3 
2 3 4 
p 0.375416666666667 1 0 0.3 
2 1 2 
p 0.375416666666667 1 0 0.3 
2 1 3 
p 0.375416666666667 1 0 39 
2 1 2 
p 0.375416666666667 1 0 39 
2 2 4 
p 0.375416666666667 1 0 39 
2 1 2 
p 0.375416666666667 1 0 39 
2 3 4 
p 0.375416666666667 1 0 0.3 
2 1 2 
p 0.375416666666667 1 0 0.3 
2 1 3 
p 0.375416666666667 1 0 100.5 
2 2 3 
p 0.375416666666667 1 0 100.5 
2 2 4 
p 0.375416666666667 1 0 100.5 
2 2 3 
p 0.375416666666667 1 0 100.5 
2 3 4 
p 0.375416666666667 1 0 0.3 
2 1 2 
p 0.375416666666667 1 0 0.3 
2 1 3 
p 0.375416666666667 1 0 39 
2 3 4 
p 0.375416666666667 1 0 39 
2 2 4 
p 0.375416666666667 1 0 39 
2 3 4 
p 0.375416666666667 1 0 39 
2 1 3 
p 0.375416666666667 1 0 100.5 
2 4 1 
p 0.375416666666667 1 0 100.5 
2 2 4 
p 0.375416666666667 1 0 100.5 
2 4 1 
p 0.375416666666667 1 0 100.5 
2 1 2 
p 0.375416666666667 1 0 0.3 
2 3 4 
p 0.375416666666667 1 0 0.3 
2 3 4 
p 0.375416666666667 1 0 0.3 
2 1 2 
p 0.375416666666667 1 0 0.3 
2 1 3 
p 0.375416666666667 1 0 39 
2 1 2 
p 0.375416666666667 1 0 39 
2 2 4 
p 0.375416666666667 1 0 39 
2 1 2 
p 0.375416666666667 1 0 39 
2 3 4 
p 0.375416666666667 1 0 0.3 
2 1 2 
p 0.375416666666667 1 0 0.3 
2 1 3 
p 0.375416666666667 1 0 100.5 
2 2 3 
p 0.375416666666667 1 0 100.5 
2 2 4 
p 0.375416666666667 1 0 100.5 
2 2 3 
p 0.375416666666667 1 0 100.5 
2 3 4 
p 0.375416666666667 1 0 0.3 
2 1 2 
p 0.375416666666667 1 0 0.3 
2 1 3 
p 0.375416666666667 1 0 39 
2 3 4 
p 0.375416666666667 1 0 39 
2 2 4 
p 0.375416666666667 1 0 39 
2 3 4 
p 0.375416666666667 1 0 39 
2 1 3 
p 0.375416666666667 1 0 100.5 
2 4 1 
p 0.375416666666667 1 0 100.5 
2 2 4 
p 0.375416666666667 1 0 100.5 
2 4 1 
p 0.375416666666667 1 0 100.5 
Surfaces 36
1 0 0 0 -0 1 0 1 0 0 0 0 -1 
1 0 120 0 1 0 0 0 -1 0 0 0 -1 
1 100 0 0 -1 0 0 0 1 0 0 0 -1 
1 0 0 0 0 0 -1 -1 0 -0 0 1 0 
1 0 0 0 0 0 -1 -1 0 -0 0 1 0 
1 100 120 0 -0 -1 -0 -1 0 0 0 0 -1 
1 3.5 116.5 0 -0 1 0 1 0 0 0 0 -1 
1 96.5 116.5 0 1 0 0 0 -1 0 0 0 -1 
1 96.5 6 0 -0 -1 -0 -1 0 0 0 0 -1 
1 3.5 6 0 -1 0 0 0 1 0 0 0 -1 
1 3.5 116.5 0 0 1 -0 1 0 0 0 -0 -1 
1 3.5 6 0 -1 0 -0 0 1 0 0 0 -1 
1 96.5 116.5 0 1 0 0 0 -1 0 0 0 -1 
1 3.5 116.5 0 -0 0 1 1 0 0 0 1 -0 
1 3.5 116.5 0 -0 0 1 1 0 0 0 1 -0 
1 96.5 6 0 0 -1 0 -1 0 0 -0 -0 -1 
1 8.5 11 0 -1 0 -0 0 1 0 0 0 -1 
1 47.5 11 0 0 -1 0 -1 0 0 -0 -0 -1 
1 8.5 111.5 0 0 1 -0 1 0 0 0 -0 -1 
1 47.5 111.5 0 1 0 0 0 -1 0 0 0 -1 
1 52.5 11 0 -1 0 -0 0 1 0 0 0 -1 
1 91.5 11 0 0 -1 0 -1 0 0 -0 -0 -1 
1 91.5 111.5 0 1 0 0 0 -1 0 0 0 -1 
1 52.5 111.5 0 0 1 -0 1 0 0 0 -0 -1 
1 8.5 111.5 0 0 1 -0 1 0 0 0 -0 -1 
1 8.5 11 0 -1 0 -0 0 1 0 0 0 -1 
1 47.5 111.5 0 1 0 0 0 -1 0 0 0 -1 
1 8.5 111.5 0 -0 0 1 1 0 0 0 1 -0 
1 8.5 111.5 0 -0 0 1 1 0 0 0 1 -0 
1 47.5 11 0 0 -1 0 -1 0 0 -0 -0 -1 
1 52.5 111.5 0 0 1 -0 1 0 0 0 -0 -1 
1 52.5 11 0 -1 0 -0 0 1 0 0 0 -1 
1 91.5 111.5 0 1 0 0 0 -1 0 0 0 -1 
1 52.5 111.5 0 -0 0 1 1 0 0 0 1 -0 
1 52.5 111.5 0 -0 0 1 1 0 0 0 1 -0 
1 91.5 11 0 0 -1 0 -1 0 0 -0 -0 -1 
Triangulations 36
4 2 1 2.22044604925031e-16
0 0 0 0 0 3.5 100 0 0 100 0 3.5 0 0 0 -3.5 100 0 100 -3.5 3 1 2 3 2 4 
4 2 1 0
0 120 0 0 120 3.5 0 0 0 0 0 3.5 0 0 0 -3.5 120 0 120 -3.5 4 1 2 3 1 4 
4 2 1 0
100 0 0 100 0 3.5 100 120 0 100 120 3.5 0 0 0 -3.5 120 0 120 -3.5 4 1 2 3 1 4 
8 8 1 2.22044604925031e-16
0 0 0 100 0 0 0 120 0 100 120 0 3.5 116.5 0 96.5 116.5 0 96.5 6 0 3.5 6 0 0 0 -100 0 0 120 -100 120 -3.5 116.5 -96.5 116.5 -96.5 6 -3.5 6 1 7 2 8 7 1 4 2 7 6 4 7 3 6 5 3 5 8 3 8 1 3 4 6 
8 8 1 2.22044604925031e-16
0 0 3.5 100 0 3.5 0 120 3.5 100 120 3.5 3.5 116.5 3.5 96.5 116.5 3.5 3.5 6 3.5 96.5 6 3.5 0 0 -100 0 0 120 -100 120 -3.5 116.5 -96.5 116.5 -3.5 6 -96.5 6 1 8 2 7 8 1 4 2 8 6 4 8 3 6 5 3 5 7 3 7 1 3 4 6 
4 2 1 2.22044604925031e-16
100 120 0 100 120 3.5 0 120 0 0 120 3.5 0 0 0 -3.5 100 0 100 -3.5 3 1 2 3 2 4 
4 2 1 2.22044604925031e-16
3.5 116.5 0 3.5 116.5 3.5 96.5 116.5 0 96.5 116.5 3.5 0 0 0 -3.5 93 0 93 -3.5 3 1 2 3 2 4 
4 2 1 2.22044604925031e-16
96.5 116.5 0 96.5 116.5 3.5 96.5 6 0 96.5 6 3.5 0 0 0 -3.5 110.5 0 110.5 -3.5 4 1 2 3 1 4 
4 2 1 2.22044604925031e-16
96.5 6 0 96.5 6 3.5 3.5 6 0 3.5 6 3.5 0 0 0 -3.5 93 0 93 -3.5 3 1 2 3 2 4 
4 2 1 2.22044604925031e-16
3.5 6 0 3.5 6 3.5 3.5 116.5 0 3.5 116.5 3.5 0 0 0 -3.5 110.5 0 110.5 -3.5 4 1 2 3 1 4 
4 2 1 2.22044604925031e-16
3.5 116.5 0 3.5 116.5 3.5 96.5 116.5 0 96.5 116.5 3.5 0 0 0 -3.5 93 0 93 -3.5 3 1 2 3 2 4 
4 2 1 2.22044604925031e-16
3.5 6 0 3.5 6 3.5 3.5 116.5 0 3.5 116.5 3.5 0 0 0 -3.5 110.5 0 110.5 -3.5 3 1 2 3 2 4 
4 2 1 2.22044604925031e-16
96.5 116.5 0 96.5 116.5 3.5 96.5 6 0 96.5 6 3.5 0 0 0 -3.5 110.5 0 110.5 -3.5 3 1 2 3 2 4 
12 14 1 0
3.5 116.5 0 96.5 116.5 0 3.5 6 0 96.5 6 0 8.5 11 0 8.5 111.5 0 47.5 11 0 47.5 111.5 0 52.5 11 0 52.5 111.5 0 91.5 11 0 91.5 111.5 0 0 0 93 0 0 -110.5 93 -110.5 5 -105.5 5 -5 44 -105.5 44 -5 49 -105.5 49 -5 88 -105.5 88 -5 7 5 3 4 7 3 4 9 7 11 9 4 1 5 6 1 3 5 8 1 6 10 8 7 10 7 9 2 12 11 2 10 12 2 11 4 2 1 8 2 8 10 
12 14 1 0
3.5 116.5 3.5 96.5 116.5 3.5 3.5 6 3.5 96.5 6 3.5 8.5 11 3.5 8.5 111.5 3.5 47.5 11 3.5 47.5 111.5 3.5 52.5 11 3.5 52.5 111.5 3.5 91.5 11 3.5 91.5 111.5 3.5 0 0 93 0 0 -110.5 93 -110.5 5 -105.5 5 -5 44 -105.5 44 -5 49 -105.5 49 -5 88 -105.5 88 -5 7 5 3 4 7 3 4 9 7 11 9 4 1 5 6 1 3 5 8 1 6 10 8 7 10 7 9 2 12 11 2 10 12 2 11 4 2 1 8 2 8 10 
4 2 1 2.22044604925031e-16
96.5 6 0 96.5 6 3.5 3.5 6 0 3.5 6 3.5 0 0 0 -3.5 93 0 93 -3.5 3 1 2 3 2 4 
4 2 1 2.22044604925031e-16
8.5 11 0 8.5 11 3.5 8.5 111.5 0 8.5 111.5 3.5 0 0 0 -3.5 100.5 0 100.5 -3.5 3 1 2 3 2 4 
4 2 1 0
47.5 11 0 47.5 11 3.5 8.5 11 0 8.5 11 3.5 0 0 0 -3.5 39 0 39 -3.5 4 1 2 3 1 4 
4 2 1 0
8.5 111.5 0 8.5 111.5 3.5 47.5 111.5 0 47.5 111.5 3.5 0 0 0 -3.5 39 0 39 -3.5 4 1 2 3 1 4 
4 2 1 2.22044604925031e-16
47.5 111.5 0 47.5 111.5 3.5 47.5 11 0 47.5 11 3.5 0 0 0 -3.5 100.5 0 100.5 -3.5 3 1 2 3 2 4 
4 2 1 2.22044604925031e-16
52.5 11 0 52.5 11 3.5 52.5 111.5 0 52.5 111.5 3.5 0 0 0 -3.5 100.5 0 100.5 -3.5 3 1 2 3 2 4 
4 2 1 0
91.5 11 0 91.5 11 3.5 52.5 11 0 52.5 11 3.5 0 0 0 -3.5 39 0 39 -3.5 3 1 2 3 2 4 
4 2 1 2.22044604925031e-16
91.5 111.5 0 91.5 111.5 3.5 91.5 11 0 91.5 11 3.5 0 0 0 -3.5 100.5 0 100.5 -3.5 3 1 2 3 2 4 
4 2 1 0
52.5 111.5 0 52.5 111.5 3.5 91.5 111.5 0 91.5 111.5 3.5 0 0 0 -3.5 39 0 39 -3.5 3 1 2 3 2 4 
4 2 1 0
8.5 111.5 0 8.5 111.5 0.3 47.5 111.5 0 47.5 111.5 0.3 0 0 0 -0.3 39 0 39 -0.3 3 1 2 3 2 4 
4 2 1 0
8.5 11 0 8.5 11 0.3 8.5 111.5 0 8.5 111.5 0.3 0 0 0 -0.3 100.5 0 100.5 -0.3 4 1 2 3 1 4 
4 2 1 0
47.5 111.5 0 47.5 111.5 0.3 47.5 11 0 47.5 11 0.3 0 0 0 -0.3 100.5 0 100.5 -0.3 4 1 2 3 1 4 
4 2 1 0
8.5 111.5 0 47.5 111.5 0 47.5 11 0 8.5 11 0 0 0 39 0 39 -100.5 0 -100.5 2 4 3 2 1 4 
4 2 1 0
8.5 111.5 0 47.5 111.5 0 47.5 11 0 8.5 11 0 0 0 39 0 39 -100.5 0 -100.5 2 4 3 2 1 4 
4 2 1 0
47.5 11 0 47.5 11 0.3 8.5 11 0 8.5 11 0.3 0 0 0 -0.3 39 0 39 -0.3 3 1 2 3 2 4 
4 2 1 0
52.5 111.5 0 52.5 111.5 0.3 91.5 111.5 0 91.5 111.5 0.3 0 0 0 -0.3 39 0 39 -0.3 3 1 2 3 2 4 
4 2 1 0
52.5 11 0 52.5 11 0.3 52.5 111.5 0 52.5 111.5 0.3 0 0 0 -0.3 100.5 0 100.5 -0.3 4 1 2 3 1 4 
4 2 1 0
91.5 111.5 0 91.5 111.5 0.3 91.5 11 0 91.5 11 0.3 0 0 0 -0.3 100.5 0 100.5 -0.3 4 1 2 3 1 4 
4 2 1 0
52.5 111.5 0 91.5 111.5 0 91.5 11 0 52.5 11 0 0 0 39 0 39 -100.5 0 -100.5 2 4 3 2 1 4 
4 2 1 0
52.5 111.5 0 91.5 111.5 0 91.5 11 0 52.5 11 0 0 0 39 0 39 -100.5 0 -100.5 2 4 3 2 1 4 
4 2 1 0
91.5 11 0 91.5 11 0.3 52.5 11 0 52.5 11 0.3 0 0 0 -0.3 39 0 39 -0.3 3 1 2 3 2 4 

TShapes 230
Ve
1e-07
0 0 0
0 0

0101101
*
Ve
1e-07
0 0 3.5
0 0

0101101
*
Ed
 1e-07 1 1 0
1  1 0 0 3.5
2  1 1 0 0 3.5
2  2 2 0 0 3.5
6  1 1 0
6  2 2 0
0

0101000
+230 2 -229 2 *
Ve
1e-07
100 0 0
0 0

0101101
*
Ve
1e-07
100 0 3.5
0 0

0101101
*
Ed
 1e-07 1 1 0
1  2 0 0 3.5
2  3 1 0 0 3.5
2  4 3 0 0 3.5
6  3 1 0
6  4 3 0
0

0101000
+227 2 -226 2 *
Ed
 1e-07 1 1 0
1  3 0 0 100
2  5 1 4 0 100
2  6 4 4 0 100
6  5 1 4
6  6 4 4
0

0101000
+230 5 -227 5 *
Ed
 1e-07 1 1 0
1  4 0 0 100
2  7 1 8 0 100
2  8 5 4 0 100
6  7 1 8
6  8 5 8
0

0101000
+229 9 -226 9 *
Wi

0101000
+228 0 -225 0 -224 3 +223 7 *
Fa
0  1e-07 1 0
2  1
0101000
+222 0 *
Ve
1e-07
0 120 0
0 0

0101101
*
Ve
1e-07
0 120 3.5
0 0

0101101
*
Ed
 1e-07 1 1 0
1  5 0 0 3.5
2  9 2 0 0 3.5
2  10 6 0 0 3.5
6  9 2 0
6  10 6 0
0

0101000
+220 2 -219 2 *
Ed
 1e-07 1 1 0
1  6 0 0 120
2  11 2 4 0 120
2  12 4 4 0 120
6  11 2 4
6  12 4 4
0

0101000
+220 5 -230 5 *
Ed
 1e-07 1 1 0
1  7 0 0 120
2  13 2 8 0 120
2  14 5 4 0 120
6  13 2 8
6  14 5 8
0

0101000
+219 9 -229 9 *
Wi

0101000
+218 0 -228 0 -217 3 +216 7 *
Fa
0  1e-07 2 0
2  2
0101000
+215 0 *
Ve
1e-07
100 120 0
0 0

0101101
*
Ve
1e-07
100 120 3.5
0 0

0101101
*
Ed
 1e-07 1 1 0
1  8 0 0 3.5
2  15 3 0 0 3.5
2  16 6 0 0 3.5
6  15 3 0
6  16 6 0
0

0101000
+213 2 -212 2 *
Ed
 1e-07 1 1 0
1  9 0 0 120
2  17 3 4 0 120
2  18 4 4 0 120
6  17 3 4
6  18 4 4
0

0101000
+227 5 -213 5 *
Ed
 1e-07 1 1 0
1  10 0 0 120
2  19 3 8 0 120
2  20 5 4 0 120
6  19 3 8
6  20 5 8
0

0101000
+226 9 -212 9 *
Wi

0101000
+225 0 -211 0 -210 3 +209 7 *
Fa
0  1e-07 3 0
2  3
0101000
+208 0 *
Ed
 1e-07 1 1 0
1  11 0 0 100
2  21 4 4 0 100
2  22 6 4 0 100
6  21 4 4
6  22 6 4
0

0101000
+213 5 -220 5 *
Wi

0101000
-224 3 -217 3 -210 3 -206 3 *
Ve
1e-07
3.5 116.5 0
0 0

0101101
*
Ve
1e-07
96.5 116.5 0
0 0

0101101
*
Ed
 1e-07 1 1 0
1  12 0 0 93
2  23 4 4 0 93
2  24 7 4 0 93
6  23 4 4
6  24 7 4
0

0101000
+204 5 -203 5 *
Ve
1e-07
96.5 6 0
0 0

0101101
*
Ed
 1e-07 1 1 0
1  13 0 0 110.5
2  25 4 4 0 110.5
2  26 8 4 0 110.5
6  25 4 4
6  26 8 4
0

0101000
+203 5 -201 5 *
Ve
1e-07
3.5 6 0
0 0

0101101
*
Ed
 1e-07 1 1 0
1  14 0 0 93
2  27 4 4 0 93
2  28 9 4 0 93
6  27 4 4
6  28 9 4
0

0101000
+201 5 -199 5 *
Ed
 1e-07 1 1 0
1  15 0 0 110.5
2  29 4 4 0 110.5
2  30 10 4 0 110.5
6  29 4 4
6  30 10 4
0

0101000
+199 5 -204 5 *
Wi

0101000
-202 3 -200 3 -198 3 -197 3 *
Fa
0  1e-07 4 0
2  4
0101000
+205 0 +196 0 *
Ed
 1e-07 1 1 0
1  16 0 0 100
2  31 5 4 0 100
2  32 6 8 0 100
6  31 5 8
6  32 6 8
0

0101000
+212 9 -219 9 *
Wi

0101000
-223 7 -216 7 -209 7 -194 7 *
Ve
1e-07
3.5 116.5 3.5
0 0

0101101
*
Ve
1e-07
96.5 116.5 3.5
0 0

0101101
*
Ed
 1e-07 1 1 0
1  17 0 0 93
2  33 5 12 0 93
2  34 7 13 0 93
6  33 5 13
6  34 7 13
0

0101000
+192 14 -191 14 *
Ve
1e-07
3.5 6 3.5
0 0

0101101
*
Ed
 1e-07 1 1 0
1  18 0 0 110.5
2  35 5 12 0 110.5
2  36 10 13 0 110.5
6  35 5 13
6  36 10 13
0

0101000
+189 14 -192 14 *
Ve
1e-07
96.5 6 3.5
0 0

0101101
*
Ed
 1e-07 1 1 0
1  19 0 0 110.5
2  37 5 12 0 110.5
2  38 8 13 0 110.5
6  37 5 13
6  38 8 13
0

0101000
+191 14 -187 14 *
Ed
 1e-07 1 1 0
1  20 0 0 93
2  39 5 12 0 93
2  40 9 13 0 93
6  39 5 13
6  40 9 13
0

0101000
+187 14 -189 14 *
Wi

0101000
-190 11 -188 11 -186 11 -185 11 *
Fa
0  1e-07 5 6
2  5
0101000
+193 0 +184 0 *
Wi

0101000
+211 0 -218 0 -206 3 +194 7 *
Fa
0  1e-07 6 0
2  6
0101000
+182 0 *
Ed
 1e-07 1 1 0
1  21 0 0 3.5
2  41 7 0 0 3.5
2  42 10 0 0 3.5
6  41 7 0
6  42 10 0
0

0101000
+204 2 -192 2 *
Ed
 1e-07 1 1 0
1  22 0 0 3.5
2  43 7 0 0 3.5
2  44 8 0 0 3.5
6  43 7 0
6  44 8 0
0

0101000
+203 2 -191 2 *
Wi

0101000
+180 0 -202 3 +190 11 -179 0 *
Fa
0  1e-07 7 0
2  7
0101000
+178 0 *
Ed
 1e-07 1 1 0
1  23 0 0 3.5
2  45 8 0 0 3.5
2  46 9 0 0 3.5
6  45 8 0
6  46 9 0
0

0101000
+201 2 -187 2 *
Wi

0101000
+179 0 -200 3 +186 11 -176 0 *
Fa
0  1e-07 8 0
2  8
0101000
+175 0 *
Ed
 1e-07 1 1 0
1  24 0 0 3.5
2  47 9 0 0 3.5
2  48 10 0 0 3.5
6  47 9 0
6  48 10 0
0

0101000
+199 2 -189 2 *
Wi

0101000
+176 0 -198 3 +185 11 -173 0 *
Fa
0  1e-07 9 0
2  9
0101000
+172 0 *
Wi

0101000
+173 0 -197 3 +188 11 -180 0 *
Fa
0  1e-07 10 0
2  10
0101000
+170 0 *
Sh

0101000
-221 0 -214 0 -207 0 +195 0 -183 0 -181 0 -177 0 -174 0 -171 0 -169 0 
*
So

0100000
+168 0 *
Co

0100000
+167 0 *
Ve
1e-07
3.5 116.5 1.75
0 0

0101101
*
Ve
1e-07
3.5 116.5 5.25
0 0

0101101
*
Ed
 1e-07 1 1 0
1  25 0 0 3.5
2  49 11 0 0 3.5
2  50 12 0 0 3.5
6  49 11 0
6  50 12 0
0

0101000
+165 16 -164 16 *
Ve
1e-07
96.5 116.5 1.75
0 0

0101101
*
Ve
1e-07
96.5 116.5 5.25
0 0

0101101
*
Ed
 1e-07 1 1 0
1  26 0 0 3.5
2  51 11 0 0 3.5
2  52 13 0 0 3.5
6  51 11 0
6  52 13 0
0

0101000
+162 16 -161 16 *
Ed
 1e-07 1 1 0
1  27 0 0 93
2  53 11 4 0 93
2  54 14 4 0 93
6  53 11 4
6  54 14 4
0

0101000
+165 17 -162 17 *
Ed
 1e-07 1 1 0
1  28 0 0 93
2  55 11 20 0 93
2  56 15 4 0 93
6  55 11 20
6  56 15 20
0

0101000
+164 21 -161 21 *
Wi

0101000
+163 0 -160 0 -159 3 +158 19 *
Fa
0  1e-07 11 0
2  11
0101000
+157 0 *
Ve
1e-07
3.5 6 1.75
0 0

0101101
*
Ve
1e-07
3.5 6 5.25
0 0

0101101
*
Ed
 1e-07 1 1 0
1  29 0 0 3.5
2  57 12 0 0 3.5
2  58 16 0 0 3.5
6  57 12 0
6  58 16 0
0

0101000
+155 16 -154 16 *
Ed
 1e-07 1 1 0
1  30 0 0 110.5
2  59 12 4 0 110.5
2  60 14 4 0 110.5
6  59 12 4
6  60 14 4
0

0101000
+155 17 -165 17 *
Ed
 1e-07 1 1 0
1  31 0 0 110.5
2  61 12 20 0 110.5
2  62 15 4 0 110.5
6  61 12 20
6  62 15 20
0

0101000
+154 21 -164 21 *
Wi

0101000
+153 0 -163 0 -152 3 +151 19 *
Fa
0  1e-07 12 0
2  12
0101000
+150 0 *
Ve
1e-07
96.5 6 1.75
0 0

0101101
*
Ve
1e-07
96.5 6 5.25
0 0

0101101
*
Ed
 1e-07 1 1 0
1  32 0 0 3.5
2  63 13 0 0 3.5
2  64 16 0 0 3.5
6  63 13 0
6  64 16 0
0

0101000
+148 16 -147 16 *
Ed
 1e-07 1 1 0
1  33 0 0 110.5
2  65 13 4 0 110.5
2  66 14 4 0 110.5
6  65 13 4
6  66 14 4
0

0101000
+162 17 -148 17 *
Ed
 1e-07 1 1 0
1  34 0 0 110.5
2  67 13 20 0 110.5
2  68 15 4 0 110.5
6  67 13 20
6  68 15 20
0

0101000
+161 21 -147 21 *
Wi

0101000
+160 0 -146 0 -145 3 +144 19 *
Fa
0  1e-07 13 0
2  13
0101000
+143 0 *
Ed
 1e-07 1 1 0
1  35 0 0 93
2  69 14 4 0 93
2  70 16 4 0 93
6  69 14 4
6  70 16 4
0

0101000
+148 17 -155 17 *
Wi

0101000
-159 3 -152 3 -145 3 -141 3 *
Ve
1e-07
8.5 11 1.75
0 0

0101101
*
Ve
1e-07
8.5 111.5 1.75
0 0

0101101
*
Ed
 1e-07 1 1 0
1  36 0 0 100.5
2  71 14 4 0 100.5
2  72 17 4 0 100.5
6  71 14 4
6  72 17 4
0

0101000
+139 17 -138 17 *
Ve
1e-07
47.5 11 1.75
0 0

0101101
*
Ed
 1e-07 1 1 0
1  37 0 0 39
2  73 14 4 0 39
2  74 18 4 0 39
6  73 14 4
6  74 18 4
0

0101000
+136 17 -139 17 *
Ve
1e-07
47.5 111.5 1.75
0 0

0101101
*
Ed
 1e-07 1 1 0
1  38 0 0 39
2  75 14 4 0 39
2  76 19 4 0 39
6  75 14 4
6  76 19 4
0

0101000
+138 17 -134 17 *
Ed
 1e-07 1 1 0
1  39 0 0 100.5
2  77 14 4 0 100.5
2  78 20 4 0 100.5
6  77 14 4
6  78 20 4
0

0101000
+134 17 -136 17 *
Wi

0101000
+137 3 +135 3 +133 3 +132 3 *
Ve
1e-07
52.5 11 1.75
0 0

0101101
*
Ve
1e-07
52.5 111.5 1.75
0 0

0101101
*
Ed
 1e-07 1 1 0
1  40 0 0 100.5
2  79 14 4 0 100.5
2  80 21 4 0 100.5
6  79 14 4
6  80 21 4
0

0101000
+130 17 -129 17 *
Ve
1e-07
91.5 11 1.75
0 0

0101101
*
Ed
 1e-07 1 1 0
1  41 0 0 39
2  81 14 4 0 39
2  82 22 4 0 39
6  81 14 4
6  82 22 4
0

0101000
+127 17 -130 17 *
Ve
1e-07
91.5 111.5 1.75
0 0

0101101
*
Ed
 1e-07 1 1 0
1  42 0 0 100.5
2  83 14 4 0 100.5
2  84 23 4 0 100.5
6  83 14 4
6  84 23 4
0

0101000
+125 17 -127 17 *
Ed
 1e-07 1 1 0
1  43 0 0 39
2  85 14 4 0 39
2  86 24 4 0 39
6  85 14 4
6  86 24 4
0

0101000
+129 17 -125 17 *
Wi

0101000
+128 3 +126 3 +124 3 +123 3 *
Fa
0  1e-07 14 0
2  14
0101000
+140 0 +131 0 +122 0 *
Ed
 1e-07 1 1 0
1  44 0 0 93
2  87 15 4 0 93
2  88 16 20 0 93
6  87 15 20
6  88 16 20
0

0101000
+147 21 -154 21 *
Wi

0101000
-158 19 -151 19 -144 19 -120 19 *
Ve
1e-07
8.5 11 5.25
0 0

0101101
*
Ve
1e-07
8.5 111.5 5.25
0 0

0101101
*
Ed
 1e-07 1 1 0
1  45 0 0 100.5
2  89 15 24 0 100.5
2  90 17 25 0 100.5
6  89 15 25
6  90 17 25
0

0101000
+118 26 -117 26 *
Ve
1e-07
47.5 11 5.25
0 0

0101101
*
Ed
 1e-07 1 1 0
1  46 0 0 39
2  91 15 24 0 39
2  92 18 25 0 39
6  91 15 25
6  92 18 25
0

0101000
+115 26 -118 26 *
Ve
1e-07
47.5 111.5 5.25
0 0

0101101
*
Ed
 1e-07 1 1 0
1  47 0 0 39
2  93 15 24 0 39
2  94 19 25 0 39
6  93 15 25
6  94 19 25
0

0101000
+117 26 -113 26 *
Ed
 1e-07 1 1 0
1  48 0 0 100.5
2  95 15 24 0 100.5
2  96 20 25 0 100.5
6  95 15 25
6  96 20 25
0

0101000
+113 26 -115 26 *
Wi

0101000
+116 23 +114 23 +112 23 +111 23 *
Ve
1e-07
52.5 11 5.25
0 0

0101101
*
Ve
1e-07
52.5 111.5 5.25
0 0

0101101
*
Ed
 1e-07 1 1 0
1  49 0 0 100.5
2  97 15 29 0 100.5
2  98 21 30 0 100.5
6  97 15 30
6  98 21 30
0

0101000
+109 31 -108 31 *
Ve
1e-07
91.5 11 5.25
0 0

0101101
*
Ed
 1e-07 1 1 0
1  50 0 0 39
2  99 15 29 0 39
2  100 22 30 0 39
6  99 15 30
6  100 22 30
0

0101000
+106 31 -109 31 *
Ve
1e-07
91.5 111.5 5.25
0 0

0101101
*
Ed
 1e-07 1 1 0
1  51 0 0 100.5
2  101 15 29 0 100.5
2  102 23 30 0 100.5
6  101 15 30
6  102 23 30
0

0101000
+104 31 -106 31 *
Ed
 1e-07 1 1 0
1  52 0 0 39
2  103 15 29 0 39
2  104 24 30 0 39
6  103 15 30
6  104 24 30
0

0101000
+108 31 -104 31 *
Wi

0101000
+107 28 +105 28 +103 28 +102 28 *
Fa
0  1e-07 15 18
2  15
0101000
+119 0 +110 0 +101 0 *
Wi

0101000
+146 0 -153 0 -141 3 +120 19 *
Fa
0  1e-07 16 0
2  16
0101000
+99 0 *
Ed
 1e-07 1 1 0
1  53 0 0 3.5
2  105 17 0 0 3.5
2  106 18 0 0 3.5
6  105 17 0
6  106 18 0
0

0101000
+139 16 -118 16 *
Ed
 1e-07 1 1 0
1  54 0 0 3.5
2  107 17 0 0 3.5
2  108 19 0 0 3.5
6  107 17 0
6  108 19 0
0

0101000
+138 16 -117 16 *
Wi

0101000
+97 0 -137 3 +116 23 -96 0 *
Fa
0  1e-07 17 0
2  17
0101000
+95 0 *
Ed
 1e-07 1 1 0
1  55 0 0 3.5
2  109 18 0 0 3.5
2  110 20 0 0 3.5
6  109 18 0
6  110 20 0
0

0101000
+136 16 -115 16 *
Wi

0101000
+93 0 -135 3 +114 23 -97 0 *
Fa
0  1e-07 18 0
2  18
0101000
+92 0 *
Ed
 1e-07 1 1 0
1  56 0 0 3.5
2  111 19 0 0 3.5
2  112 20 0 0 3.5
6  111 19 0
6  112 20 0
0

0101000
+134 16 -113 16 *
Wi

0101000
+96 0 -133 3 +112 23 -90 0 *
Fa
0  1e-07 19 0
2  19
0101000
+89 0 *
Wi

0101000
+90 0 -132 3 +111 23 -93 0 *
Fa
0  1e-07 20 0
2  20
0101000
+87 0 *
Ed
 1e-07 1 1 0
1  57 0 0 3.5
2  113 21 0 0 3.5
2  114 22 0 0 3.5
6  113 21 0
6  114 22 0
0

0101000
+130 16 -109 16 *
Ed
 1e-07 1 1 0
1  58 0 0 3.5
2  115 21 0 0 3.5
2  116 24 0 0 3.5
6  115 21 0
6  116 24 0
0

0101000
+129 16 -108 16 *
Wi

0101000
+85 0 -128 3 +107 28 -84 0 *
Fa
0  1e-07 21 0
2  21
0101000
+83 0 *
Ed
 1e-07 1 1 0
1  59 0 0 3.5
2  117 22 0 0 3.5
2  118 23 0 0 3.5
6  117 22 0
6  118 23 0
0

0101000
+127 16 -106 16 *
Wi

0101000
+81 0 -126 3 +105 28 -85 0 *
Fa
0  1e-07 22 0
2  22
0101000
+80 0 *
Ed
 1e-07 1 1 0
1  60 0 0 3.5
2  119 23 0 0 3.5
2  120 24 0 0 3.5
6  119 23 0
6  120 24 0
0

0101000
+125 16 -104 16 *
Wi

0101000
+78 0 -124 3 +103 28 -81 0 *
Fa
0  1e-07 23 0
2  23
0101000
+77 0 *
Wi

0101000
+84 0 -123 3 +102 28 -78 0 *
Fa
0  1e-07 24 0
2  24
0101000
+75 0 *
Sh

0101000
+156 0 +149 0 +142 0 -121 0 +100 0 +98 0 -94 0 -91 0 -88 0 -86 0 
-82 0 -79 0 -76 0 -74 0 *
So

0100000
+73 0 *
Co

0100000
+72 0 *
Ve
1e-07
8.5 111.5 3.5
0 0

0101101
*
Ve
1e-07
8.5 111.5 3.8
0 0

0101101
*
Ed
 1e-07 1 1 0
1  61 0 0 0.3
2  121 25 0 0 0.3
2  122 26 0 0 0.3
6  121 25 0
6  122 26 0
0

0101000
+70 33 -69 33 *
Ve
1e-07
47.5 111.5 3.5
0 0

0101101
*
Ve
1e-07
47.5 111.5 3.8
0 0

0101101
*
Ed
 1e-07 1 1 0
1  62 0 0 0.3
2  123 25 0 0 0.3
2  124 27 0 0 0.3
6  123 25 0
6  124 27 0
0

0101000
+67 33 -66 33 *
Ed
 1e-07 1 1 0
1  63 0 0 39
2  125 25 4 0 39
2  126 28 4 0 39
6  125 25 4
6  126 28 4
0

0101000
+70 34 -67 34 *
Ed
 1e-07 1 1 0
1  64 0 0 39
2  127 25 37 0 39
2  128 29 4 0 39
6  127 25 37
6  128 29 4
0

0101000
+69 38 -66 38 *
Wi

0101000
+68 0 -65 0 -64 3 +63 36 *
Fa
0  1e-07 25 0
2  25
0101000
+62 0 *
Ve
1e-07
47.5 11 3.5
0 0

0101101
*
Ve
1e-07
47.5 11 3.8
0 0

0101101
*
Ed
 1e-07 1 1 0
1  65 0 0 0.3
2  129 27 0 0 0.3
2  130 30 0 0 0.3
6  129 27 0
6  130 30 0
0

0101000
+60 33 -59 33 *
Ed
 1e-07 1 1 0
1  66 0 0 100.5
2  131 27 4 0 100.5
2  132 28 4 0 100.5
6  131 27 4
6  132 28 4
0

0101000
+67 34 -60 34 *
Ed
 1e-07 1 1 0
1  67 0 0 100.5
2  133 27 37 0 100.5
2  134 29 4 0 100.5
6  133 27 37
6  134 29 4
0

0101000
+66 38 -59 38 *
Wi

0101000
+65 0 -58 0 -57 3 +56 36 *
Fa
0  1e-07 27 0
2  27
0101000
+55 0 *
Ve
1e-07
8.5 11 3.5
0 0

0101101
*
Ve
1e-07
8.5 11 3.8
0 0

0101101
*
Ed
 1e-07 1 1 0
1  68 0 0 0.3
2  135 30 0 0 0.3
2  136 26 0 0 0.3
6  135 30 0
6  136 26 0
0

0101000
+53 33 -52 33 *
Ed
 1e-07 1 1 0
1  69 0 0 39
2  137 30 4 0 39
2  138 28 4 0 39
6  137 30 4
6  138 28 4
0

0101000
+60 34 -53 34 *
Ed
 1e-07 1 1 0
1  70 0 0 39
2  139 30 37 0 39
2  140 29 4 0 39
6  139 30 37
6  140 29 4
0

0101000
+59 38 -52 38 *
Wi

0101000
+58 0 -51 0 -50 3 +49 36 *
Fa
0  1e-07 30 0
2  30
0101000
+48 0 *
Ed
 1e-07 1 1 0
1  71 0 0 100.5
2  141 26 4 0 100.5
2  142 28 4 0 100.5
6  141 26 4
6  142 28 4
0

0101000
+53 34 -70 34 *
Ed
 1e-07 1 1 0
1  72 0 0 100.5
2  143 26 37 0 100.5
2  144 29 4 0 100.5
6  143 26 37
6  144 29 4
0

0101000
+52 38 -69 38 *
Wi

0101000
+51 0 -68 0 -46 3 +45 36 *
Fa
0  1e-07 26 0
2  26
0101000
+44 0 *
Wi

0101100
+64 0 +57 0 +50 0 +46 0 *
Fa
0  1e-07 28 0
2  28
0101000
-42 3 *
Wi

0101100
+63 0 +56 0 +49 0 +45 0 *
Fa
0  1e-07 29 0
2  29
0101000
-40 3 *
Sh

0101000
-61 0 -54 0 -47 0 -43 0 +41 0 -39 35 *
So

0100000
-38 0 *
Ve
1e-07
52.5 111.5 3.5
0 0

0101101
*
Ve
1e-07
52.5 111.5 3.8
0 0

0101101
*
Ed
 1e-07 1 1 0
1  73 0 0 0.3
2  145 31 0 0 0.3
2  146 32 0 0 0.3
6  145 31 0
6  146 32 0
0

0101000
+36 40 -35 40 *
Ve
1e-07
91.5 111.5 3.5
0 0

0101101
*
Ve
1e-07
91.5 111.5 3.8
0 0

0101101
*
Ed
 1e-07 1 1 0
1  74 0 0 0.3
2  147 31 0 0 0.3
2  148 33 0 0 0.3
6  147 31 0
6  148 33 0
0

0101000
+33 40 -32 40 *
Ed
 1e-07 1 1 0
1  75 0 0 39
2  149 31 4 0 39
2  150 34 4 0 39
6  149 31 4
6  150 34 4
0

0101000
+36 41 -33 41 *
Ed
 1e-07 1 1 0
1  76 0 0 39
2  151 31 44 0 39
2  152 35 4 0 39
6  151 31 44
6  152 35 4
0

0101000
+35 45 -32 45 *
Wi

0101000
+34 0 -31 0 -30 3 +29 43 *
Fa
0  1e-07 31 0
2  31
0101000
+28 0 *
Ve
1e-07
91.5 11 3.5
0 0

0101101
*
Ve
1e-07
91.5 11 3.8
0 0

0101101
*
Ed
 1e-07 1 1 0
1  77 0 0 0.3
2  153 33 0 0 0.3
2  154 36 0 0 0.3
6  153 33 0
6  154 36 0
0

0101000
+26 40 -25 40 *
Ed
 1e-07 1 1 0
1  78 0 0 100.5
2  155 33 4 0 100.5
2  156 34 4 0 100.5
6  155 33 4
6  156 34 4
0

0101000
+33 41 -26 41 *
Ed
 1e-07 1 1 0
1  79 0 0 100.5
2  157 33 44 0 100.5
2  158 35 4 0 100.5
6  157 33 44
6  158 35 4
0

0101000
+32 45 -25 45 *
Wi

0101000
+31 0 -24 0 -23 3 +22 43 *
Fa
0  1e-07 33 0
2  33
0101000
+21 0 *
Ve
1e-07
52.5 11 3.5
0 0

0101101
*
Ve
1e-07
52.5 11 3.8
0 0

0101101
*
Ed
 1e-07 1 1 0
1  80 0 0 0.3
2  159 36 0 0 0.3
2  160 32 0 0 0.3
6  159 36 0
6  160 32 0
0

0101000
+19 40 -18 40 *
Ed
 1e-07 1 1 0
1  81 0 0 39
2  161 36 4 0 39
2  162 34 4 0 39
6  161 36 4
6  162 34 4
0

0101000
+26 41 -19 41 *
Ed
 1e-07 1 1 0
1  82 0 0 39
2  163 36 44 0 39
2  164 35 4 0 39
6  163 36 44
6  164 35 4
0

0101000
+25 45 -18 45 *
Wi

0101000
+24 0 -17 0 -16 3 +15 43 *
Fa
0  1e-07 36 0
2  36
0101000
+14 0 *
Ed
 1e-07 1 1 0
1  83 0 0 100.5
2  165 32 4 0 100.5
2  166 34 4 0 100.5
6  165 32 4
6  166 34 4
0

0101000
+19 41 -36 41 *
Ed
 1e-07 1 1 0
1  84 0 0 100.5
2  167 32 44 0 100.5
2  168 35 4 0 100.5
6  167 32 44
6  168 35 4
0

0101000
+18 45 -35 45 *
Wi

0101000
+17 0 -34 0 -12 3 +11 43 *
Fa
0  1e-07 32 0
2  32
0101000
+10 0 *
Wi

0101100
+30 0 +23 0 +16 0 +12 0 *
Fa
0  1e-07 34 0
2  34
0101000
-8 3 *
Wi

0101100
+29 0 +22 0 +15 0 +11 0 *
Fa
0  1e-07 35 0
2  35
0101000
-6 3 *
Sh

0101000
-27 0 -20 0 -13 0 -9 0 +7 0 -5 42 *
So

0100000
-4 0 *
Co

0100000
+166 0 +71 15 +37 32 +3 39 *
Co

1100000
+2 1 *

+1 0 