<?xml version="1.0" encoding="UTF-8" standalone="no"?>
<svg
   xmlns:dc="http://purl.org/dc/elements/1.1/"
   xmlns:cc="http://creativecommons.org/ns#"
   xmlns:rdf="http://www.w3.org/1999/02/22-rdf-syntax-ns#"
   xmlns:svg="http://www.w3.org/2000/svg"
   xmlns="http://www.w3.org/2000/svg"
   xmlns:sodipodi="http://sodipodi.sourceforge.net/DTD/sodipodi-0.dtd"
   xmlns:inkscape="http://www.inkscape.org/namespaces/inkscape"
   width="2500"
   height="2500"
   viewBox="0 0 192.756 192.756"
   version="1.1"
   id="svg12"
   sodipodi:docname="atmel.svg"
   inkscape:version="0.92.5 (2060ec1f9f, 2020-04-08)">
  <metadata
     id="metadata18">
    <rdf:RDF>
      <cc:Work
         rdf:about="">
        <dc:format>image/svg+xml</dc:format>
        <dc:type
           rdf:resource="http://purl.org/dc/dcmitype/StillImage" />
      </cc:Work>
    </rdf:RDF>
  </metadata>
  <defs
     id="defs16" />
  <sodipodi:namedview
     pagecolor="#ffffff"
     bordercolor="#666666"
     borderopacity="1"
     objecttolerance="10"
     gridtolerance="10"
     guidetolerance="10"
     inkscape:pageopacity="0"
     inkscape:pageshadow="2"
     inkscape:window-width="1920"
     inkscape:window-height="1017"
     id="namedview14"
     showgrid="false"
     inkscape:zoom="0.7552"
     inkscape:cx="439.63883"
     inkscape:cy="199.51988"
     inkscape:window-x="-8"
     inkscape:window-y="760"
     inkscape:window-maximized="1"
     inkscape:current-layer="g10" />
  <g
     fill-rule="evenodd"
     clip-rule="evenodd"
     id="g10">
    <path
       d="m 12.719306,191.83712 0.328674,-0.72501 H 1.109264 v 0.72501 z m -10.0971426,-0.9763 v -0.57039 H 2.3514363 l 0.5607459,-0.92322 v 1.49361 h 1.0439674 v -3.81847 H 3.04751 l -1.8947325,3.81847 z"
       id="path4"
       style="fill:none;stroke:#000000;stroke-width:0.07145081;stroke-opacity:1"
       inkscape:connector-curvature="0" />
    <path
       d="m 4.2606736,190.86082 v -4.14722 h -1.121349 l 0.725011,-1.27118 h 9.7926194 v 1.27118 H 5.1983936 v 4.14722 z"
       id="path6"
       style="fill:none;stroke:#000000;stroke-width:0.07145081;stroke-opacity:1"
       inkscape:connector-curvature="0" />
    <path
       d="m 5.5318546,190.86082 v -3.81847 h 2.639035 c 0.667065,0 0.845978,0.58003 0.845978,0.88449 v 2.93398 h -0.966658 v -3.09346 c 0,0.14018 0.03866,-0.232 -0.120823,-0.232 h -0.183629 v 3.32546 h -0.937863 v -3.35933 h -0.333461 v 3.35933 z m 3.760456,0 v -3.81847 h 2.0928654 v 1.06819 H 9.9690206 v 0.29002 h 1.4258014 v 1.02467 H 9.9786666 v 0.26094 h 1.4065094 v 1.17465 z m 2.3828844,0 v -3.81847 h 0.990809 v 2.65347 h 1.000597 l -0.483437,1.165 z"
       id="path8"
       style="fill:none;stroke:#000000;stroke-width:0.07145081;stroke-opacity:1"
       inkscape:connector-curvature="0" />
    <text
       xml:space="preserve"
       style="font-style:normal;font-weight:normal;font-size:3.72333646px;line-height:1.25;font-family:sans-serif;letter-spacing:0px;word-spacing:0px;fill:#000000;fill-opacity:1;stroke:none;stroke-width:0.09308341"
       x="2.3854511"
       y="109.7294"
       id="text817"
       transform="scale(0.728799,1.3721204)"><tspan
         sodipodi:role="line"
         id="tspan815"
         x="2.3854511"
         y="109.7294"
         style="stroke-width:0.09308341">ATMEGA328P-PU</tspan></text>
    <text
       xml:space="preserve"
       style="font-style:normal;font-weight:normal;font-size:4.00709152px;line-height:1.25;font-family:sans-serif;letter-spacing:0px;word-spacing:0px;fill:#000000;fill-opacity:1;stroke:none;stroke-width:0.1001773"
       x="19.49955"
       y="110.67802"
       id="text821"
       transform="scale(0.76965947,1.2992759)"><tspan
         sodipodi:role="line"
         id="tspan819"
         x="19.49955"
         y="110.67802"
         style="stroke-width:0.1001773">1121</tspan></text>
    <g
       id="g920">
      <g
         id="g903">
        <g
           aria-label="ATMEGA328P-PU"
           transform="scale(0.72879901,1.3721204)"
           style="font-style:normal;font-weight:normal;font-size:3.72333646px;line-height:1.25;font-family:sans-serif;letter-spacing:0px;word-spacing:0px;fill:#000000;fill-opacity:1;stroke:none;stroke-width:0.0930834"
           id="text817-5">
          <path
             d="m 26.480034,137.06227 -0.498142,1.3508 h 0.998101 z m -0.207256,-0.36179 h 0.41633 l 1.034462,2.71433 H 27.341782 L 27.09453,138.7185 h -1.223538 l -0.247253,0.69631 h -0.387242 z"
             style="stroke-width:0.0930834"
             id="path856" />
          <path
             d="m 27.450864,136.70048 h 2.296179 v 0.30907 h -0.963559 v 2.40526 h -0.369061 v -2.40526 h -0.963559 z"
             style="stroke-width:0.0930834"
             id="path858" />
          <path
             d="m 30.103378,136.70048 h 0.547229 l 0.692671,1.84713 0.696308,-1.84713 h 0.547229 v 2.71433 h -0.358153 v -2.38344 l -0.699944,1.86166 h -0.369061 l -0.699944,-1.86166 v 2.38344 h -0.356335 z"
             style="stroke-width:0.0930834"
             id="path860" />
          <path
             d="m 33.317665,136.70048 h 1.716225 v 0.30907 h -1.348982 v 0.80357 h 1.292623 v 0.30907 h -1.292623 v 0.98355 h 1.381707 v 0.30907 h -1.74895 z"
             style="stroke-width:0.0930834"
             id="path862" />
          <path
             d="m 37.524599,139.02757 v -0.72903 h -0.599952 v -0.3018 h 0.963559 v 1.16536 q -0.21271,0.1509 -0.469053,0.22908 -0.256343,0.0764 -0.547229,0.0764 -0.636312,0 -0.996283,-0.37088 -0.358153,-0.37269 -0.358153,-1.03628 0,-0.6654 0.358153,-1.03628 0.359971,-0.37269 0.996283,-0.37269 0.265433,0 0.503596,0.0654 0.23998,0.0654 0.441782,0.19271 v 0.39088 q -0.20362,-0.17272 -0.432692,-0.25998 -0.229073,-0.0873 -0.481779,-0.0873 -0.498142,0 -0.749031,0.27816 -0.249071,0.27816 -0.249071,0.82902 0,0.54905 0.249071,0.82721 0.250889,0.27816 0.749031,0.27816 0.194529,0 0.347244,-0.0327 0.152715,-0.0345 0.274524,-0.10544 z"
             style="stroke-width:0.0930834"
             id="path864" />
          <path
             d="m 39.468078,137.06227 -0.498141,1.3508 h 0.998101 z m -0.207256,-0.36179 h 0.41633 l 1.034463,2.71433 h -0.381788 l -0.247253,-0.69631 h -1.223537 l -0.247253,0.69631 h -0.387242 z"
             style="stroke-width:0.0930834"
             id="path866" />
          <path
             d="m 42.25149,137.95129 q 0.263615,0.0564 0.410876,0.23453 0.149079,0.17817 0.149079,0.43996 0,0.40179 -0.276341,0.62177 -0.276342,0.21998 -0.785392,0.21998 -0.170895,0 -0.352699,-0.0345 -0.179985,-0.0327 -0.372697,-0.1 v -0.35452 q 0.152715,0.0891 0.334519,0.13454 0.181803,0.0454 0.379969,0.0454 0.345427,0 0.525412,-0.13636 0.181804,-0.13635 0.181804,-0.39633 0,-0.23998 -0.169077,-0.37451 -0.16726,-0.13636 -0.467236,-0.13636 h -0.316338 v -0.30179 h 0.330883 q 0.270887,0 0.414512,-0.10726 0.143625,-0.10909 0.143625,-0.31271 0,-0.20907 -0.149079,-0.31997 -0.147261,-0.11272 -0.423603,-0.11272 -0.150897,0 -0.32361,0.0327 -0.172713,0.0327 -0.379969,0.10181 v -0.32725 q 0.209074,-0.0582 0.390877,-0.0873 0.183622,-0.0291 0.345427,-0.0291 0.418148,0 0.661765,0.19089 0.243617,0.18908 0.243617,0.51269 0,0.22543 -0.129081,0.38178 -0.12908,0.15454 -0.367243,0.21453 z"
             style="stroke-width:0.0930834"
             id="path868" />
          <path
             d="m 43.825909,139.10574 h 1.281715 v 0.30907 h -1.723497 v -0.30907 q 0.209074,-0.21634 0.569045,-0.57995 0.361789,-0.36542 0.454509,-0.47087 0.176349,-0.19817 0.245435,-0.33452 0.0709,-0.13817 0.0709,-0.27089 0,-0.21634 -0.152715,-0.35269 -0.150897,-0.13636 -0.394514,-0.13636 -0.172713,0 -0.365425,0.06 -0.190894,0.06 -0.409058,0.1818 v -0.37088 q 0.221801,-0.0891 0.414512,-0.13453 0.192712,-0.0455 0.352699,-0.0455 0.421784,0 0.672673,0.21089 0.250889,0.21089 0.250889,0.56359 0,0.16726 -0.06363,0.31816 -0.06181,0.14907 -0.227255,0.35269 -0.04545,0.0527 -0.289067,0.30543 -0.243617,0.25089 -0.687218,0.70358 z"
             style="stroke-width:0.0930834"
             id="path870" />
          <path
             d="m 46.665681,138.12582 q -0.261797,0 -0.412694,0.13999 -0.149079,0.13999 -0.149079,0.38543 0,0.24543 0.149079,0.38542 0.150897,0.13999 0.412694,0.13999 0.261797,0 0.412694,-0.13999 0.150897,-0.14181 0.150897,-0.38542 0,-0.24544 -0.150897,-0.38543 -0.149079,-0.13999 -0.412694,-0.13999 z m -0.367244,-0.15635 q -0.236344,-0.0582 -0.369061,-0.21998 -0.130898,-0.16181 -0.130898,-0.39451 0,-0.32543 0.23089,-0.51451 0.232709,-0.18907 0.636313,-0.18907 0.405422,0 0.636312,0.18907 0.23089,0.18908 0.23089,0.51451 0,0.2327 -0.132716,0.39451 -0.130899,0.1618 -0.365425,0.21998 0.265433,0.0618 0.412694,0.2418 0.149079,0.17999 0.149079,0.43997 0,0.39451 -0.241799,0.6054 -0.239981,0.21089 -0.689035,0.21089 -0.449055,0 -0.690854,-0.21089 -0.23998,-0.21089 -0.23998,-0.6054 0,-0.25998 0.149078,-0.43997 0.149079,-0.17998 0.414512,-0.2418 z m -0.134534,-0.57995 q 0,0.21089 0.130898,0.32906 0.132717,0.11818 0.37088,0.11818 0.236344,0 0.369061,-0.11818 0.134534,-0.11817 0.134534,-0.32906 0,-0.21089 -0.134534,-0.32907 -0.132717,-0.11817 -0.369061,-0.11817 -0.238163,0 -0.37088,0.11817 -0.130898,0.11818 -0.130898,0.32907 z"
             style="stroke-width:0.0930834"
             id="path872" />
          <path
             d="m 48.585526,137.00228 v 1.01992 h 0.461781 q 0.256343,0 0.396332,-0.13272 0.139988,-0.13272 0.139988,-0.37815 0,-0.24362 -0.139988,-0.37634 -0.139989,-0.13271 -0.396332,-0.13271 z m -0.367243,-0.3018 h 0.829024 q 0.456327,0 0.689035,0.20726 0.234527,0.20544 0.234527,0.60359 0,0.40178 -0.234527,0.60722 -0.232708,0.20544 -0.689035,0.20544 h -0.461781 v 1.09082 h -0.367243 z"
             style="stroke-width:0.0930834"
             id="path874" />
          <path
             d="m 50.20176,138.24581 h 0.979921 v 0.29816 H 50.20176 Z"
             style="stroke-width:0.0930834"
             id="path876" />
          <path
             d="m 52.097971,137.00228 v 1.01992 h 0.461781 q 0.256343,0 0.396332,-0.13272 0.139989,-0.13272 0.139989,-0.37815 0,-0.24362 -0.139989,-0.37634 -0.139989,-0.13271 -0.396332,-0.13271 z m -0.367243,-0.3018 h 0.829024 q 0.456327,0 0.689036,0.20726 0.234526,0.20544 0.234526,0.60359 0,0.40178 -0.234526,0.60722 -0.232709,0.20544 -0.689036,0.20544 h -0.461781 v 1.09082 h -0.367243 z"
             style="stroke-width:0.0930834"
             id="path878" />
          <path
             d="m 53.936005,136.70048 h 0.369061 v 1.64896 q 0,0.43633 0.158169,0.62904 0.158169,0.1909 0.512686,0.1909 0.352699,0 0.510868,-0.1909 0.158169,-0.19271 0.158169,-0.62904 v -1.64896 h 0.369061 v 1.69441 q 0,0.53087 -0.263615,0.80176 -0.261797,0.27088 -0.774483,0.27088 -0.514504,0 -0.778119,-0.27088 -0.261797,-0.27089 -0.261797,-0.80176 z"
             style="stroke-width:0.0930834"
             id="path880" />
        </g>
      </g>
    </g>
    <g
       aria-label="1121"
       transform="scale(0.76965947,1.2992759)"
       style="font-style:normal;font-weight:normal;font-size:4.00709152px;line-height:1.25;font-family:sans-serif;letter-spacing:0px;word-spacing:0px;fill:#000000;fill-opacity:1;stroke:none;stroke-width:0.1001773"
       id="text821-8">
      <g
         id="g887">
        <path
           id="path847"
           style="stroke-width:0.1001773"
           d="m 41.60689,141.69514 h 0.645674 v -2.22856 l -0.702415,0.14088 v -0.36002 l 0.698502,-0.14087 h 0.39523 v 2.58857 h 0.645674 v 0.33262 H 41.60689 Z" />
        <path
           id="path849"
           style="stroke-width:0.1001773"
           d="m 44.15828,141.69514 h 0.645674 v -2.22856 l -0.702415,0.14088 v -0.36002 l 0.698502,-0.14087 h 0.395231 v 2.58857 h 0.645674 v 0.33262 H 44.15828 Z" />
        <path
           id="path851"
           style="stroke-width:0.1001773"
           d="m 46.981636,141.69514 h 1.379395 v 0.33262 h -1.854845 v -0.33262 q 0.225007,-0.23284 0.612412,-0.62416 0.389361,-0.39327 0.489147,-0.50675 0.189789,-0.21327 0.264139,-0.36001 0.07631,-0.1487 0.07631,-0.29154 0,-0.23283 -0.164354,-0.37957 -0.162396,-0.14675 -0.424579,-0.14675 -0.185876,0 -0.393274,0.0646 -0.205442,0.0646 -0.440232,0.19566 v -0.39915 q 0.238703,-0.0959 0.446102,-0.14478 0.207398,-0.0489 0.379578,-0.0489 0.453928,0 0.723937,0.22697 0.270009,0.22696 0.270009,0.60654 0,0.18 -0.06848,0.3424 -0.06652,0.16044 -0.244573,0.37958 -0.04892,0.0567 -0.311097,0.32871 -0.262183,0.27001 -0.739591,0.7572 z" />
        <path
           id="path853"
           style="stroke-width:0.1001773"
           d="m 49.261061,141.69514 h 0.645674 v -2.22856 l -0.702415,0.14088 v -0.36002 l 0.698502,-0.14087 h 0.39523 v 2.58857 h 0.645674 v 0.33262 h -1.682665 z" />
      </g>
    </g>
  </g>
</svg>
