<?xml version="1.0" encoding="UTF-8" standalone="no"?>
<!-- Created with Inkscape (http://www.inkscape.org/) -->

<svg
   xmlns:dc="http://purl.org/dc/elements/1.1/"
   xmlns:cc="http://creativecommons.org/ns#"
   xmlns:rdf="http://www.w3.org/1999/02/22-rdf-syntax-ns#"
   xmlns:svg="http://www.w3.org/2000/svg"
   xmlns="http://www.w3.org/2000/svg"
   xmlns:sodipodi="http://sodipodi.sourceforge.net/DTD/sodipodi-0.dtd"
   xmlns:inkscape="http://www.inkscape.org/namespaces/inkscape"
   width="210mm"
   height="297mm"
   viewBox="0 0 210 297"
   version="1.1"
   id="svg8"
   inkscape:version="0.92.5 (2060ec1f9f, 2020-04-08)"
   sodipodi:docname="103.svg">
  <defs
     id="defs2" />
  <sodipodi:namedview
     id="base"
     pagecolor="#ffffff"
     bordercolor="#666666"
     borderopacity="1.0"
     inkscape:pageopacity="0.0"
     inkscape:pageshadow="2"
     inkscape:zoom="16"
     inkscape:cx="5.5777068"
     inkscape:cy="12.778874"
     inkscape:document-units="mm"
     inkscape:current-layer="layer1"
     showgrid="false"
     inkscape:window-width="1920"
     inkscape:window-height="1017"
     inkscape:window-x="-8"
     inkscape:window-y="760"
     inkscape:window-maximized="1" />
  <metadata
     id="metadata5">
    <rdf:RDF>
      <cc:Work
         rdf:about="">
        <dc:format>image/svg+xml</dc:format>
        <dc:type
           rdf:resource="http://purl.org/dc/dcmitype/StillImage" />
        <dc:title></dc:title>
      </cc:Work>
    </rdf:RDF>
  </metadata>
  <g
     inkscape:label="Capa 1"
     inkscape:groupmode="layer"
     id="layer1">
    <g
       aria-label="103
"
       transform="matrix(0.04650639,0,0,0.04650639,-1.0016132,244.71792)"
       style="font-style:normal;font-weight:normal;font-size:40px;line-height:1.25;font-family:sans-serif;letter-spacing:0px;word-spacing:0px;fill:#000000;fill-opacity:1;stroke:none"
       id="flowRoot815">
      <path
         d="m 22.103516,1120.3047 h 6.445312 v -22.2461 l -7.011719,1.4062 v -3.5937 l 6.972657,-1.4063 h 3.945312 v 25.8399 h 6.445313 v 3.3203 H 22.103516 Z"
         style=""
         id="path852" />
      <path
         d="m 55.326172,1097.0625 q -3.046875,0 -4.589844,3.0078 -1.523437,2.9883 -1.523437,9.0039 0,5.9961 1.523437,9.0039 1.542969,2.9883 4.589844,2.9883 3.066406,0 4.589844,-2.9883 1.542968,-3.0078 1.542968,-9.0039 0,-6.0156 -1.542968,-9.0039 -1.523438,-3.0078 -4.589844,-3.0078 z m 0,-3.125 q 4.902344,0 7.480469,3.8867 2.597656,3.8672 2.597656,11.25 0,7.3633 -2.597656,11.25 -2.578125,3.8672 -7.480469,3.8672 -4.902344,0 -7.5,-3.8672 -2.578125,-3.8867 -2.578125,-11.25 0,-7.3828 2.578125,-11.25 2.597656,-3.8867 7.5,-3.8867 z"
         style=""
         id="path854" />
      <path
         d="m 84.310547,1107.9023 q 2.832031,0.6055 4.414062,2.5196 1.601563,1.914 1.601563,4.7265 0,4.3164 -2.96875,6.6797 -2.96875,2.3633 -8.4375,2.3633 -1.835938,0 -3.789063,-0.3711 -1.933593,-0.3515 -4.003906,-1.0742 v -3.8086 q 1.640625,0.957 3.59375,1.4453 1.953125,0.4883 4.082031,0.4883 3.710938,0 5.644532,-1.4648 1.953125,-1.4649 1.953125,-4.2579 0,-2.5781 -1.816407,-4.0234 -1.796875,-1.4648 -5.019531,-1.4648 h -3.398437 v -3.2422 h 3.554687 q 2.910156,0 4.453125,-1.1524 1.542969,-1.1718 1.542969,-3.3593 0,-2.2461 -1.601563,-3.4375 -1.582031,-1.211 -4.550781,-1.211 -1.621094,0 -3.476562,0.3516 -1.855469,0.3515 -4.082032,1.0937 v -3.5156 q 2.246094,-0.625 4.199219,-0.9375 1.972656,-0.3125 3.710938,-0.3125 4.492187,0 7.109375,2.0508 2.617187,2.0312 2.617187,5.5078 0,2.4219 -1.386719,4.1016 -1.386718,1.6601 -3.945312,2.3046 z"
         style=""
         id="path856" />
    </g>
    <flowRoot
       xml:space="preserve"
       id="flowRoot815-3"
       style="font-style:normal;font-weight:normal;font-size:40px;line-height:1.25;font-family:sans-serif;letter-spacing:0px;word-spacing:0px;fill:#000000;fill-opacity:1;stroke:none"
       transform="matrix(0.04650639,0,0,0.04650639,-1.0016132,242.71792)"><flowRegion
         id="flowRegion817-6"><rect
           id="rect819-2"
           width="220"
           height="94.285713"
           x="17.142857"
           y="1088.234" /></flowRegion><flowPara
         id="flowPara821-7">103</flowPara><flowPara
         id="flowPara823-2" /></flowRoot>  </g>
</svg>
