DBRep_DrawableShape

CASCADE Topology V1, (c) Matra-Datavision
Locations 45
1
              1               0               0               0 
              0               1               0               0 
              0               0               1               0 
1
              1               0               0               0 
              0               1               0               0 
              0               0               1               0 
1
              1               0               0               0 
              0               1               0               0 
              0               0               1               0 
1
              1               0               0               0 
              0               1               0               0 
              0               0               1               0 
1
              1               0               0               0 
              0               1               0               0 
              0               0               1               0 
1
              1               0               0               0 
              0               1               0               0 
              0               0               1               0 
2  2 1 3 1 4 1 5 1 6 1 0
2  2 -1 0
2  4 -1 3 -1 2 -1 0
2  5 -1 4 -1 3 -1 2 -1 0
2  5 1 6 1 0
2  2 1 3 1 4 1 0
1
              1               0               0           609.6 
              0               1               0               0 
              0               0               1            25.4 
2  2 1 3 1 4 1 13 -1 0
1
              1               0               0            25.4 
              0               1               0               0 
              0               0               1            25.4 
2  15 1 3 1 4 1 13 -1 0
2  13 -1 0
2  15 1 3 1 4 1 0
2  2 1 15 -1 0
2  4 -1 3 -1 15 -1 0
2  13 1 4 -1 3 -1 15 -1 0
2  15 -1 0
2  6 -1 5 -1 4 -1 3 -1 15 -1 0
2  5 -1 4 -1 3 -1 15 -1 0
2  3 1 4 1 5 1 6 1 0
2  13 1 5 1 6 1 0
2  5 -1 13 -1 0
2  6 -1 5 -1 13 -1 0
1
              1               0               0            25.4 
              0               1               0            50.8 
              0               0               1           914.4 
2  29 1 6 -1 5 -1 13 -1 0
2  13 1 5 1 6 1 29 -1 0
2  29 -1 0
2  15 1 3 1 4 1 5 1 6 1 0
2  13 1 5 1 0
1
              1               0               0            25.4 
              0               1               0            50.8 
              0               0               1            25.4 
2  35 1 5 -1 13 -1 0
2  15 1 3 1 4 1 5 1 0
2  13 1 5 1 35 -1 0
2  35 -1 0
2  5 -1 0
2  6 -1 5 -1 0
2  35 1 6 1 0
2  6 -1 35 -1 0
2  35 1 6 1 29 -1 0
2  29 1 6 -1 35 -1 0
Curve2ds 143
1 0 0 1 0 
1 0 0 1 0 
1 2133.5999999999999 0 0 -1 
1 0 0 0 1 
1 0 -609.60000000000002 1 0 
1 0 0 1 0 
1 0 0 0 -1 
1 0 0 0 1 
1 0 0 0 1 
1 0 0 1 0 
1 0 0 1 0 
1 0 1219.2 1 0 
1 2133.5999999999999 0 0 1 
1 0 0 1 0 
1 0 0 1 0 
1 0 584.20000000000005 1 0 
1 25.399999999999999 1193.8000000000002 1 0 
1 0 0 1 0 
1 0 0 0 1 
1 0 0 1 0 
1 25.399999999999999 609.60000000000002 0 1 
1 584.20000000000005 0 1 0 
1 2082.8000000000002 0 0 1 
1 0 0 1 0 
1 2108.2000000000003 609.60000000000002 0 1 
1 584.20000000000005 0 1 0 
1 0 0 0 1 
1 0 0 1 0 
1 25.399999999999999 25.399999999999999 0 1 
1 2082.8000000000002 0 0 1 
1 0 0 1 0 
1 2108.2000000000003 25.399999999999999 0 1 
1 0 0 1 0 
1 0 0 1 0 
1 25.399999999999999 25.399999999999999 1 0 
1 2133.5999999999999 0 0 1 
1 0 609.60000000000002 1 0 
1 2133.5999999999999 0 0 -1 
1 1219.2 0 0 1 
1 0 0 0 1 
1 0 609.60000000000002 1 0 
1 0 -609.60000000000002 1 0 
1 0 1219.2 1 0 
1 0 0 0 -1 
1 1219.2 0 0 1 
1 0 0 0 -1 
1 584.20000000000005 0 0 1 
1 0 0 0 -1 
1 1168.4000000000001 0 0 1 
1 2082.8000000000002 0 0 -1 
1 584.20000000000005 0 0 1 
1 2082.8000000000002 0 0 -1 
1 1168.4000000000001 0 0 1 
1 0 -25.399999999999999 1 0 
1 0 1168.4000000000001 1 0 
1 0 -25.399999999999999 1 0 
1 0 0 0 1 
1 0 25.399999999999999 1 0 
1 -584.20000000000005 25.399999999999999 1 0 
1 0 0 0 -1 
1 0 0 0 1 
1 584.20000000000005 0 0 1 
1 2082.8000000000002 0 0 1 
1 0 25.399999999999999 1 0 
1 -584.20000000000005 25.399999999999999 1 0 
1 2082.8000000000002 0 0 -1 
1 0 0 0 1 
1 584.20000000000005 0 0 1 
1 0 0 0 -1 
1 0 0 0 1 
1 2082.8000000000002 0 0 -1 
1 0 0 0 1 
1 0 -25.399999999999999 1 0 
1 0 0 1 0 
1 0 -558.79999999999995 1 0 
1 0 584.20000000000005 1 0 
1 25.399999999999999 0 0 -1 
1 1168.4000000000001 0 0 1 
1 914.39999999999998 -50.799999999999997 0 -1 
1 0 0 1 0 
1 0 1168.4000000000001 1 0 
1 889 -50.799999999999997 1 0 
1 0 0 0 -1 
1 1168.4000000000001 0 0 1 
1 889 -50.799999999999997 0 -1 
1 0 0 0 -1 
1 584.20000000000005 0 0 1 
1 0 50.799999999999997 0 1 
1 0 -50.799999999999997 0 -1 
1 0 0 0 1 
1 0 558.79999999999995 1 0 
1 2082.8000000000002 0 0 -1 
1 584.20000000000005 0 0 1 
1 0 50.799999999999997 0 1 
1 2082.8000000000002 -50.799999999999997 0 -1 
1 2082.8000000000002 0 0 1 
1 0 558.79999999999995 1 0 
8 -2291.0800000000004 208.28000000000003
1 0 584.20000000000005 -1 0 
8 -2291.0800000000004 208.28000000000003
1 0 -25.399999999999999 -1 0 
1 25.399999999999999 0 0 1 
1 0 508 1 0 
1 914.39999999999998 -584.20000000000005 0 1 
1 0 -508 1 0 
1 0 584.20000000000005 1 0 
1 0 0 1 0 
1 0 -558.79999999999995 1 0 
1 25.399999999999999 0 0 -1 
1 0 0 0 1 
1 914.39999999999998 0 0 -1 
1 914.39999999999998 0 0 1 
1 25.399999999999999 0 0 1 
1 0 0 1 0 
1 914.39999999999998 0 0 1 
1 0 0 0 1 
1 0 0 1 0 
1 0 0 1 0 
1 0 584.20000000000005 1 0 
1 0 -50.799999999999997 1 0 
1 -889 584.20000000000005 1 0 
1 0 0 0 -1 
1 0 0 0 1 
1 889 0 0 -1 
1 0 0 0 1 
1 0 508 1 0 
1 889 0 0 1 
1 889 0 0 1 
1 889 -584.20000000000005 0 1 
1 0 0 0 -1 
1 0 0 0 1 
1 0 0 0 1 
1 0 508 1 0 
1 0 0 0 1 
1 0 0 1 0 
1 2082.8000000000002 0 0 -1 
1 0 0 0 1 
1 2082.8000000000002 0 0 1 
1 0 508 1 0 
1 2082.8000000000002 0 0 1 
1 0 0 1 0 
1 0 -508 1 0 
1 0 0 1 0 
1 0 0 1 0 
1 0 0 1 0 
Curves 53
1 0 0 0 0 0 1 
1 0 0 2133.5999999999999 -0 1 0 
1 0 609.60000000000002 0 0 0 1 
1 0 0 0 -0 1 0 
1 0 0 0 1 0 -0 
1 1219.2 0 0 0 0 1 
1 0 0 2133.5999999999999 1 0 -0 
1 584.20000000000005 0 0 0 0 1 
1 0 0 0 1 0 -0 
1 0 0 2082.8000000000002 1 0 -0 
1 0 0 0 1 0 -0 
1 0 0 2082.8000000000002 1 0 -0 
1 0 0 0 0 0 1 
1 0 609.60000000000002 2133.5999999999999 1 0 -0 
1 1219.2 0 2133.5999999999999 0 1 0 
1 0 609.60000000000002 0 1 0 -0 
1 1219.2 609.60000000000002 0 0 0 1 
1 1219.2 0 0 -0 1 0 
1 584.20000000000005 0 0 -0 1 0 
1 584.20000000000005 0 2082.8000000000002 0 1 0 
1 1168.4000000000001 25.399999999999999 0 0 0 1 
1 0 25.399999999999999 0 1 0 -0 
1 0 0 0 -0 1 0 
1 0 25.399999999999999 2082.8000000000002 1 0 -0 
1 0 0 2082.8000000000002 -0 1 0 
1 0 0 0 -0 1 0 
1 0 0 2082.8000000000002 -0 1 0 
1 0 25.399999999999999 0 0 0 1 
1 584.20000000000005 558.79999999999995 0 0 0 1 
1 1168.4000000000001 0 25.399999999999999 0 1 0 
1 1168.4000000000001 0 0 0 0 1 
1 1168.4000000000001 0 0 -0 1 0 
1 584.20000000000005 0 0 -0 1 0 
1 0 558.79999999999995 0 1 0 -0 
1 584.20000000000005 0 2082.8000000000002 0 1 0 
1 0 558.79999999999995 2082.8000000000002 1 0 -0 
1 609.60000000000002 25.399999999999999 25.399999999999999 0 0 -1 
1 0 508 25.399999999999999 1 0 -0 
1 584.20000000000005 508 0 0 0 1 
1 0 0 25.399999999999999 -0 1 0 
1 0 0 25.399999999999999 1 0 -0 
1 0 0 0 1 0 -0 
1 584.20000000000005 0 0 0 0 1 
1 0 0 0 -0 1 0 
1 0 508 0 1 0 -0 
1 0 0 0 -0 1 0 
1 0 508 0 1 0 -0 
1 0 0 0 1 0 -0 
1 0 0 2082.8000000000002 -0 1 0 
1 0 508 2082.8000000000002 1 0 -0 
1 0 0 2082.8000000000002 1 0 -0 
1 0 508 0 0 0 1 
1 0 0 0 0 0 1 
Polygon3D 0
PolygonOnTriangulations 203
2 1 4 
p 6.604 1 0 2133.6 
2 1 4 
p 6.604 1 0 2133.6 
2 1 2 
p 6.604 1 0 2133.6 
2 1 4 
p 6.604 1 0 2133.6 
2 2 3 
p 6.604 1 0 609.6 
2 1 2 
p 6.604 1 0 609.6 
2 1 4 
p 6.604 1 0 2133.6 
2 4 3 
p 6.604 1 0 2133.6 
2 1 4 
p 6.604 1 0 2133.6 
2 1 4 
p 6.604 1 0 609.6 
2 1 2 
p 6.604 1 0 609.6 
2 1 2 
p 6.604 1 0 1219.2 
2 1 2 
p 6.604 1 0 1219.2 
2 1 2 
p 6.604 1 0 1219.2 
2 1 4 
p 6.604 1 0 1219.2 
2 2 3 
p 6.604 1 0 2133.6 
2 2 3 
p 6.604 1 0 2133.6 
2 2 3 
p 6.604 1 0 2133.6 
2 1 2 
p 6.604 1 0 2133.6 
2 4 3 
p 6.604 1 0 1219.2 
2 4 3 
p 6.604 1 0 1219.2 
2 4 3 
p 6.604 1 0 1219.2 
2 1 4 
p 6.604 1 0 1219.2 
2 5 6 
p 6.604 1 0 2082.8 
2 1 2 
p 6.604 1 0 2082.8 
2 7 5 
p 6.604 1 0 584.2 
2 4 3 
p 6.604 1 0 584.2 
2 8 6 
p 6.604 1 0 584.2 
2 4 3 
p 6.604 1 0 584.2 
2 9 7 
p 6.604 1 0 584.2 
2 4 3 
p 6.604 1 0 584.2 
2 10 8 
p 6.604 1 0 584.2 
2 4 3 
p 6.604 1 0 584.2 
2 1 2 
p 5.461 1 0 2082.8 
2 1 4 
p 5.461 1 0 2082.8 
2 7 8 
p 6.604 1 0 2082.8 
2 9 10 
p 6.604 1 0 2082.8 
2 1 2 
p 6.604 1 0 2082.8 
2 4 3 
p 6.604 1 0 1219.2 
2 2 3 
p 6.604 1 0 1219.2 
2 4 3 
p 6.604 1 0 1219.2 
2 4 3 
p 6.604 1 0 609.6 
2 2 3 
p 6.604 1 0 609.6 
2 1 2 
p 6.604 1 0 1219.2 
2 1 2 
p 6.604 1 0 1219.2 
2 2 3 
p 6.604 1 0 1219.2 
2 2 3 
p 6.604 1 0 2133.6 
2 2 3 
p 6.604 1 0 2133.6 
2 4 3 
p 6.604 1 0 2133.6 
2 4 3 
p 6.604 1 0 609.6 
2 1 4 
p 6.604 1 0 609.6 
2 1 3 
p 6.604 1 0 25.4 
2 3 2 
p 6.604 1 0 25.4 
2 2 4 
p 6.604 1 0 25.4 
2 3 2 
p 6.604 1 0 25.4 
2 4 3 
p 5.461 1 0 2082.8 
2 4 3 
p 6.604 1 0 2082.8 
2 2 3 
p 6.604 1 0 2082.8 
2 1 2 
p 6.604 1 0 2082.8 
2 3 4 
p 6.604 1 0 2082.8 
2 8 1 
p 6.604 1 0 2082.8 
2 1 4 
p 6.604 1 584.2 1168.4 
2 1 3 
p 6.604 1 584.2 1168.4 
2 1 3 
p 6.604 1 584.2 1168.4 
2 1 2 
p 6.604 1 584.2 1168.4 
2 1 3 
p 6.604 1 584.2 1168.4 
2 4 1 
p 6.604 1 0 25.4 
2 3 2 
p 6.604 1 0 25.4 
2 1 4 
p 6.604 1 584.2 1168.4 
2 1 3 
p 6.604 1 584.2 1168.4 
2 1 3 
p 6.604 1 584.2 1168.4 
2 1 2 
p 6.604 1 584.2 1168.4 
2 1 3 
p 6.604 1 584.2 1168.4 
2 4 1 
p 6.604 1 0 25.4 
2 3 2 
p 6.604 1 0 25.4 
2 1 2 
p 6.604 1 0 584.2 
2 1 2 
p 6.604 1 0 584.2 
2 1 4 
p 5.461 1 0 25.4 
2 1 2 
p 5.461 1 0 25.4 
2 1 2 
p 6.604 1 0 25.4 
2 4 1 
p 6.604 1 0 25.4 
2 1 4 
p 6.604 1 0 25.4 
2 1 2 
p 6.604 1 0 584.2 
2 4 3 
p 6.604 1 0 584.2 
2 2 3 
p 5.461 1 0 25.4 
2 1 2 
p 5.461 1 0 25.4 
2 1 2 
p 6.604 1 0 25.4 
2 4 1 
p 6.604 1 0 25.4 
2 2 3 
p 6.604 1 0 25.4 
2 4 3 
p 5.461 1 0 2082.8 
2 1 4 
p 6.604 1 0 2082.8 
2 4 3 
p 6.604 1 0 2082.8 
2 1 4 
p 6.604 1 0 2082.8 
2 4 3 
p 6.604 1 25.4 558.8 
2 3 5 
p 6.604 1 25.4 558.8 
2 3 5 
p 6.604 1 25.4 558.8 
2 2 3 
p 6.604 1 25.4 558.8 
2 1 2 
p 6.604 1 25.4 558.8 
2 3 5 
p 6.604 1 25.4 558.8 
2 3 2 
p 6.604 1 914.4 2082.8 
2 2 3 
p 6.604 1 914.4 2082.8 
2 2 3 
p 2.83633333333333 1 0 508 
2 4 3 
p 2.83633333333333 1 0 508 
2 4 3 
p 6.604 1 0 508 
2 6 5 
p 6.604 1 0 508 
2 1 2 
p 2.83633333333333 1 0 25.4 
2 2 3 
p 2.83633333333333 1 0 25.4 
2 5 4 
p 6.604 1 0 25.4 
2 2 3 
p 6.604 1 0 25.4 
2 1 4 
p 2.83633333333333 1 0 508 
2 4 3 
p 2.83633333333333 1 0 508 
2 5 6 
p 6.604 1 0 508 
2 6 5 
p 6.604 1 0 508 
2 7 6 
p 6.604 1 0 889 
2 2 3 
p 6.604 1 0 889 
2 4 3 
p 6.604 1 25.4 558.8 
2 3 5 
p 6.604 1 25.4 558.8 
2 3 5 
p 6.604 1 25.4 558.8 
2 1 4 
p 6.604 1 25.4 558.8 
2 8 7 
p 6.604 1 25.4 558.8 
2 3 5 
p 6.604 1 25.4 558.8 
2 4 3 
p 6.604 1 25.4 50.8 
2 1 2 
p 6.604 1 25.4 50.8 
2 3 5 
p 6.604 1 25.4 50.8 
2 2 4 
p 6.604 1 0 508 
2 4 3 
p 6.604 1 0 508 
2 1 2 
p 6.604 1 0 584.2 
2 4 5 
p 6.604 1 0 584.2 
2 1 2 
p 6.604 1 0 584.2 
2 1 2 
p 6.604 1 25.4 50.8 
2 1 2 
p 6.604 1 25.4 50.8 
2 1 2 
p 6.604 1 25.4 50.8 
2 2 4 
p 6.604 1 0 508 
2 4 3 
p 6.604 1 0 508 
2 3 4 
p 6.604 1 0 584.2 
2 4 5 
p 6.604 1 0 584.2 
2 4 3 
p 6.604 1 0 584.2 
2 1 4 
p 6.604 1 -2082.8 0 
2 1 4 
p 6.604 1 -2082.8 0 
2 1 4 
p 6.604 1 -2082.8 0 
2 1 4 
p 6.604 1 -2082.8 0 
2 3 2 
p 6.604 1 -2082.8 0 
2 1 3 
p 6.604 1 -2082.8 0 
2 1 2 
p 6.604 1 584.2 1168.4 
2 3 5 
p 6.604 1 584.2 1168.4 
2 1 4 
p 6.604 1 914.4 2082.8 
2 2 3 
p 6.604 1 914.4 2082.8 
2 2 3 
p 2.83633333333333 1 0 508 
2 1 2 
p 2.83633333333333 1 0 508 
2 1 2 
p 6.604 1 0 508 
2 1 4 
p 6.604 1 0 508 
2 2 3 
p 6.604 1 0 584.2 
2 1 2 
p 6.604 1 0 584.2 
2 1 4 
p 6.604 1 0 584.2 
2 4 1 
p 6.604 1 0 584.2 
2 4 6 
p 6.604 1 584.2 1168.4 
2 4 3 
p 6.604 1 584.2 1168.4 
2 1 2 
p 6.604 1 584.2 1168.4 
2 4 6 
p 6.604 1 584.2 1168.4 
2 1 4 
p 6.604 1 889 914.4 
2 6 4 
p 6.604 1 889 914.4 
2 1 4 
p 2.83633333333333 1 0 508 
2 1 2 
p 2.83633333333333 1 0 508 
2 1 2 
p 6.604 1 0 508 
2 2 3 
p 6.604 1 0 508 
2 2 3 
p 6.604 1 0 584.2 
2 4 3 
p 6.604 1 0 584.2 
2 1 4 
p 6.604 1 0 584.2 
2 3 2 
p 6.604 1 0 584.2 
2 3 5 
p 6.604 1 584.2 1168.4 
2 4 3 
p 6.604 1 584.2 1168.4 
2 1 4 
p 6.604 1 0 889 
2 2 3 
p 6.604 1 0 889 
2 4 2 
p 6.604 1 914.4 2082.8 
2 1 2 
p 6.604 1 914.4 2082.8 
2 5 6 
p 6.604 1 0 889 
2 1 2 
p 6.604 1 0 889 
2 1 4 
p 6.604 1 0 508 
2 1 2 
p 6.604 1 0 508 
2 1 4 
p 6.604 1 0 508 
2 1 2 
p 6.604 1 0 584.2 
2 2 3 
p 6.604 1 0 584.2 
2 1 2 
p 6.604 1 0 584.2 
2 1 2 
p 6.604 1 0 584.2 
2 1 4 
p 6.604 1 0 584.2 
2 4 1 
p 6.604 1 0 584.2 
2 2 3 
p 6.604 1 0 508 
2 1 2 
p 6.604 1 0 508 
2 2 3 
p 6.604 1 0 508 
2 3 4 
p 6.604 1 0 584.2 
2 2 3 
p 6.604 1 0 584.2 
2 4 3 
p 6.604 1 0 584.2 
2 4 3 
p 6.604 1 0 584.2 
2 1 4 
p 6.604 1 0 584.2 
2 3 2 
p 6.604 1 0 584.2 
2 1 4 
p 6.604 1 914.4 2082.8 
2 4 3 
p 6.604 1 914.4 2082.8 
2 1 2 
p 6.604 1 914.4 2082.8 
2 4 3 
p 6.604 1 914.4 2082.8 
2 1 2 
p 6.604 1 0 889 
2 4 3 
p 6.604 1 0 889 
2 4 3 
p 6.604 1 0 889 
2 1 4 
p 6.604 1 0 889 
Surfaces 30
1 0 0 0 1 0 -0 0 0 1 0 -1 0 
1 0 0 0 -0 1 0 0 0 1 1 0 -0 
1 0 0 2133.5999999999999 0 0 1 1 0 -0 -0 1 0 
1 0 609.60000000000002 0 -0 1 0 0 0 1 1 0 -0 
1 0 0 0 0 0 1 1 0 -0 -0 1 0 
1 1219.2 0 0 1 0 -0 0 0 1 0 -1 0 
1 584.20000000000005 0 0 1 0 -0 0 0 1 0 -1 0 
1 0 0 0 -0 1 0 0 0 1 1 0 -0 
1 1168.4000000000001 0 0 1 0 -0 0 0 1 0 -1 0 
1 0 0 0 0 0 1 1 0 -0 -0 1 0 
1 0 0 0 0 0 1 1 0 -0 -0 1 0 
1 0 0 2082.8000000000002 0 0 1 1 0 -0 -0 1 0 
1 0 0 2082.8000000000002 0 0 1 1 0 -0 -0 1 0 
1 0 0 0 -0 1 0 0 0 1 1 0 -0 
1 0 0 0 1 0 -0 0 0 1 0 -1 0 
1 0 25.399999999999999 0 -0 1 0 0 0 1 1 0 -0 
1 0 0 0 1 0 -0 0 0 1 0 -1 0 
1 0 558.79999999999995 0 -0 1 0 0 0 1 1 0 -0 
1 1168.4000000000001 0 0 1 0 -0 0 0 1 0 -1 0 
1 0 0 25.399999999999999 0 0 1 1 0 -0 -0 1 0 
1 0 0 0 -0 1 0 0 0 1 1 0 -0 
1 0 0 0 0 0 1 1 0 -0 -0 1 0 
1 584.20000000000005 0 0 1 0 -0 0 0 1 0 -1 0 
1 0 0 0 0 0 1 1 0 -0 -0 1 0 
1 0 0 2082.8000000000002 0 0 1 1 0 -0 -0 1 0 
1 0 508 0 -0 1 0 0 0 1 1 0 -0 
1 0 508 0 -0 1 0 0 0 1 1 0 -0 
1 0 0 0 1 0 -0 0 0 1 0 -1 0 
1 0 0 0 1 0 -0 0 0 1 0 -1 0 
1 0 0 0 -0 1 0 0 0 1 1 0 -0 
Triangulations 62
4 2 1 0
0 0 0 0 0 2133.6 0 609.6 2133.6 0 609.6 0 0 0 2133.6 0 2133.6 -609.6 0 -609.6 2 4 3 2 1 4 
4 2 1 0
0 0 0 1219.2 0 0 1219.2 0 2133.6 0 0 2133.6 0 0 0 1219.2 2133.6 1219.2 2133.6 0 4 2 1 3 2 4 
8 8 1 1.13686837721616e-13
0 0 0 1219.2 0 0 1219.2 0 2133.6 0 0 2133.6 1193.8 0 25.4 1193.8 0 2108.2 25.4 0 25.4 25.4 0 2108.2 0 0 0 1219.2 2133.6 1219.2 2133.6 0 25.4 1193.8 2108.2 1193.8 25.4 25.4 2108.2 25.4 2 1 7 5 2 7 4 7 1 8 7 4 3 6 8 3 8 4 3 2 5 3 5 6 
10 10 1 1.13686837721616e-13
0 0 0 1219.2 0 0 1219.2 0 2133.6 0 0 2133.6 1193.8 0 25.4 1193.8 0 2108.2 609.6 0 25.4 609.6 0 2108.2 25.4 0 25.4 25.4 0 2108.2 0 0 0 1219.2 2133.6 1219.2 2133.6 0 25.4 1193.8 2108.2 1193.8 25.4 609.6 2108.2 609.6 25.4 25.4 2108.2 25.4 7 1 9 5 2 7 4 9 1 10 9 4 8 10 4 3 6 8 2 1 7 3 2 5 3 5 6 4 3 8 
4 2 1 0
0 0 2133.6 0 609.6 2133.6 1219.2 609.6 2133.6 1219.2 0 2133.6 0 0 0 609.6 1219.2 609.6 1219.2 0 3 2 1 3 1 4 
8 8 1 7.57912251477454e-14
0 609.6 0 1219.2 609.6 0 1219.2 609.6 2133.6 0 609.6 2133.6 609.6 609.6 25.4 609.6 609.6 2108.2 25.4 609.6 25.4 25.4 609.6 2108.2 0 0 0 1219.2 2133.6 1219.2 2133.6 0 25.4 609.6 2108.2 609.6 25.4 25.4 2108.2 25.4 5 1 7 4 7 1 8 7 4 6 8 4 3 5 6 3 2 5 2 1 5 4 3 6 
4 2 1 0
0 609.6 0 1219.2 609.6 0 1219.2 609.6 2133.6 0 609.6 2133.6 0 0 0 1219.2 2133.6 1219.2 2133.6 0 4 2 1 3 2 4 
4 2 1 0
0 0 0 0 609.6 0 1219.2 609.6 0 1219.2 0 0 0 0 0 609.6 1219.2 609.6 1219.2 0 3 2 1 3 1 4 
4 2 1 0
1219.2 0 0 1219.2 0 2133.6 1219.2 609.6 2133.6 1219.2 609.6 0 0 0 2133.6 0 2133.6 -609.6 0 -609.6 2 4 3 2 1 4 
4 2 1 0
1193.8 0 25.4 1193.8 0 2108.2 1193.8 25.4 25.4 1193.8 25.4 2108.2 0 0 2082.8 0 0 -25.4 2082.8 -25.4 2 1 3 2 3 4 
4 2 1 1.77635683940025e-15
609.6 25.4 25.4 1193.8 25.4 25.4 1193.8 0 25.4 609.6 0 25.4 584.2 25.4 1168.4 25.4 1168.4 0 584.2 0 2 4 3 2 1 4 
4 2 1 1.77635683940025e-15
609.6 25.4 2108.2 1193.8 25.4 2108.2 1193.8 0 2108.2 609.6 0 2108.2 584.2 25.4 1168.4 25.4 1168.4 0 584.2 0 2 4 3 2 1 4 
4 2 1 0
25.4 25.4 25.4 609.6 25.4 25.4 609.6 0 25.4 25.4 0 25.4 0 25.4 584.2 25.4 584.2 0 0 0 2 4 3 2 1 4 
4 2 1 0
25.4 25.4 2108.2 609.6 25.4 2108.2 609.6 0 2108.2 25.4 0 2108.2 0 25.4 584.2 25.4 584.2 0 0 0 2 4 3 2 1 4 
4 2 1 0
0 0 0 0 0 2082.8 0 25.4 2082.8 0 25.4 0 0 0 2082.8 0 2082.8 -25.4 0 -25.4 2 4 3 2 1 4 
4 2 1 5.6843418860808e-14
0 0 0 1168.4 0 0 1168.4 0 2082.8 0 0 2082.8 0 0 0 1168.4 2082.8 1168.4 2082.8 0 3 2 1 3 1 4 
4 2 1 0
25.4 0 25.4 25.4 0 2108.2 25.4 25.4 2108.2 25.4 25.4 25.4 0 0 2082.8 0 2082.8 -25.4 0 -25.4 2 1 4 2 4 3 
4 2 1 0
1168.4 0 0 1168.4 0 2082.8 1168.4 25.4 2082.8 1168.4 25.4 0 0 0 2082.8 0 2082.8 -25.4 0 -25.4 2 4 3 2 1 4 
4 2 1 0
1193.8 0 25.4 1193.8 0 2108.2 1193.8 25.4 2108.2 1193.8 25.4 25.4 0 0 2082.8 0 2082.8 -25.4 0 -25.4 2 1 4 2 4 3 
4 2 1 5.6843418860808e-14
0 25.4 0 1168.4 25.4 0 1168.4 25.4 2082.8 0 25.4 2082.8 0 0 0 1168.4 2082.8 1168.4 2082.8 0 3 2 1 3 1 4 
4 2 1 0
1193.8 25.4 25.4 1193.8 25.4 2108.2 1193.8 558.8 2108.2 1193.8 558.8 25.4 0 -25.4 2082.8 -25.4 2082.8 -558.8 0 -558.8 2 4 3 2 1 4 
8 6 1 5.6843418860808e-14
1193.8 25.4 2108.2 1193.8 558.8 2108.2 1193.8 558.8 939.8 1193.8 50.8 939.8 1193.8 50.8 914.4 1193.8 558.8 914.4 1193.8 558.8 25.4 1193.8 25.4 25.4 2082.8 -25.4 2082.8 -558.8 914.4 -558.8 914.4 -50.8 889 -50.8 889 -558.8 0 -558.8 0 -25.4 5 7 6 5 8 7 2 4 3 1 4 2 1 8 5 1 5 4 
4 2 1 5.6843418860808e-14
609.6 25.4 25.4 609.6 558.8 25.4 1193.8 558.8 25.4 1193.8 25.4 25.4 0 25.4 0 558.8 584.2 558.8 584.2 25.4 3 2 1 3 1 4 
5 3 1 2.8421709430404e-14
609.6 25.4 25.4 609.6 50.8 25.4 1193.8 25.4 25.4 609.6 558.8 25.4 1193.8 558.8 25.4 0 25.4 0 50.8 584.2 25.4 0 558.8 584.2 558.8 3 2 1 5 4 2 5 2 3 
5 3 1 2.8421709430404e-14
609.6 25.4 25.4 609.6 50.8 25.4 1193.8 25.4 25.4 609.6 558.8 25.4 1193.8 558.8 25.4 0 25.4 0 50.8 584.2 25.4 0 558.8 584.2 558.8 3 2 1 5 4 2 5 2 3 
5 3 1 2.8421709430404e-14
609.6 25.4 25.4 609.6 50.8 25.4 1193.8 25.4 25.4 609.6 558.8 25.4 1193.8 558.8 25.4 0 25.4 0 50.8 584.2 25.4 0 558.8 584.2 558.8 3 2 1 5 4 2 5 2 3 
4 2 1 5.6843418860808e-14
609.6 25.4 2108.2 609.6 558.8 2108.2 1193.8 558.8 2108.2 1193.8 25.4 2108.2 0 25.4 0 558.8 584.2 558.8 584.2 25.4 3 2 1 3 1 4 
5 3 1 2.8421709430404e-14
609.6 25.4 2108.2 609.6 50.8 2108.2 1193.8 25.4 2108.2 609.6 558.8 2108.2 1193.8 558.8 2108.2 0 25.4 0 50.8 584.2 25.4 0 558.8 584.2 558.8 3 2 1 5 4 2 5 2 3 
5 3 1 2.8421709430404e-14
609.6 25.4 2108.2 609.6 50.8 2108.2 1193.8 25.4 2108.2 609.6 558.8 2108.2 1193.8 558.8 2108.2 0 25.4 0 50.8 584.2 25.4 0 558.8 584.2 558.8 3 2 1 5 4 2 5 2 3 
5 3 1 2.8421709430404e-14
609.6 25.4 2108.2 609.6 50.8 2108.2 1193.8 25.4 2108.2 609.6 558.8 2108.2 1193.8 558.8 2108.2 0 25.4 0 50.8 584.2 25.4 0 558.8 584.2 558.8 3 2 1 5 4 2 5 2 3 
4 2 1 5.6843418860808e-14
25.4 25.4 25.4 609.6 25.4 25.4 609.6 25.4 2108.2 25.4 25.4 2108.2 0 0 0 584.2 2082.8 584.2 2082.8 0 3 2 1 3 1 4 
4 2 1 1.77635683940025e-15
0 0 0 0 25.4 0 1168.4 25.4 0 1168.4 0 0 0 0 0 25.4 1168.4 25.4 1168.4 0 3 2 1 3 1 4 
4 2 1 1.77635683940025e-15
25.4 0 25.4 25.4 25.4 25.4 1193.8 25.4 25.4 1193.8 0 25.4 0 0 0 25.4 1168.4 25.4 1168.4 0 3 2 1 3 1 4 
4 2 1 1.77635683940025e-15
0 0 2082.8 0 25.4 2082.8 1168.4 25.4 2082.8 1168.4 0 2082.8 0 0 0 25.4 1168.4 25.4 1168.4 0 3 2 1 3 1 4 
4 2 1 1.77635683940025e-15
25.4 0 2108.2 25.4 25.4 2108.2 1193.8 25.4 2108.2 1193.8 0 2108.2 0 0 0 25.4 1168.4 25.4 1168.4 0 3 2 1 3 1 4 
4 2 1 5.6843418860808e-14
609.6 558.8 939.8 1193.8 558.8 939.8 1193.8 558.8 2108.2 609.6 558.8 2108.2 914.4 0 914.4 584.2 2082.8 584.2 2082.8 0 3 2 1 3 1 4 
4 2 1 5.6843418860808e-14
1168.4 0 0 1168.4 0 25.4 1168.4 508 25.4 1168.4 508 0 0 0 25.4 0 25.4 -508 0 -508 2 4 3 2 1 4 
4 2 1 2.8421709430404e-14
0 0 25.4 0 508 25.4 1168.4 508 25.4 1168.4 0 25.4 0 0 0 508 1168.4 508 1168.4 0 4 2 1 3 2 4 
6 4 1 5.6843418860808e-14
25.4 50.8 939.8 25.4 558.8 939.8 609.6 558.8 939.8 609.6 50.8 939.8 1193.8 558.8 939.8 1193.8 50.8 939.8 0 0 0 508 584.2 508 584.2 0 1168.4 508 1168.4 0 3 2 1 3 1 4 5 4 6 5 3 4 
4 2 1 5.6843418860808e-14
0 0 0 1168.4 0 0 1168.4 0 25.4 0 0 25.4 0 0 0 1168.4 25.4 1168.4 25.4 0 3 2 1 3 1 4 
4 2 1 6.03961325396085e-14
609.6 50.8 914.4 1193.8 50.8 914.4 1193.8 50.8 939.8 609.6 50.8 939.8 0 584.2 0 1168.4 25.4 1168.4 25.4 584.2 3 2 1 3 1 4 
4 2 1 2.8421709430404e-14
0 0 0 0 508 0 1168.4 508 0 1168.4 0 0 0 0 0 508 1168.4 508 1168.4 0 4 2 1 3 2 4 
6 4 1 5.6843418860808e-14
25.4 50.8 914.4 25.4 558.8 914.4 609.6 558.8 914.4 609.6 50.8 914.4 1193.8 558.8 914.4 1193.8 50.8 914.4 0 0 0 508 584.2 508 584.2 0 1168.4 508 1168.4 0 3 2 1 3 1 4 5 4 6 5 3 4 
4 2 1 5.6843418860808e-14
609.6 558.8 25.4 1193.8 558.8 25.4 1193.8 558.8 914.4 609.6 558.8 914.4 0 0 0 584.2 889 584.2 889 0 3 2 1 3 1 4 
4 2 1 3.5527136788005e-15
609.6 25.4 2108.2 609.6 50.8 2108.2 609.6 50.8 25.4 609.6 25.4 25.4 2082.8 -25.4 2082.8 -50.8 0 -50.8 0 -25.4 1 3 2 1 4 3 
6 4 1 1.77635683940025e-15
609.6 25.4 2108.2 609.6 50.8 2108.2 609.6 25.4 25.4 609.6 50.8 939.8 609.6 50.8 25.4 609.6 50.8 914.4 2082.8 -25.4 2082.8 -50.8 0 -25.4 914.4 -50.8 0 -50.8 889 -50.8 6 3 5 1 4 2 1 3 6 1 6 4 
4 2 1 2.8421709430404e-14
25.4 50.8 25.4 25.4 558.8 25.4 609.6 558.8 25.4 609.6 50.8 25.4 0 0 0 508 584.2 508 584.2 0 3 2 1 3 1 4 
4 2 1 0
609.6 558.8 25.4 1193.8 558.8 25.4 609.6 558.8 2108.2 1193.8 558.8 2108.2 0 0 0 584.2 2082.8 0 2082.8 584.2 4 2 1 4 1 3 
4 2 1 2.8421709430404e-14
25.4 50.8 2108.2 25.4 558.8 2108.2 609.6 558.8 2108.2 609.6 50.8 2108.2 0 0 0 508 584.2 508 584.2 0 3 2 1 3 1 4 
4 2 1 0
609.6 25.4 2108.2 609.6 558.8 2108.2 609.6 558.8 25.4 609.6 25.4 25.4 2082.8 -25.4 2082.8 -558.8 0 -558.8 0 -25.4 1 3 2 1 4 3 
4 2 1 3.5527136788005e-15
609.6 25.4 2108.2 609.6 50.8 2108.2 609.6 50.8 25.4 609.6 25.4 25.4 2082.8 -25.4 2082.8 -50.8 0 -50.8 0 -25.4 1 3 2 1 4 3 
4 2 1 3.5527136788005e-15
609.6 25.4 2108.2 609.6 50.8 2108.2 609.6 50.8 25.4 609.6 25.4 25.4 2082.8 -25.4 2082.8 -50.8 0 -50.8 0 -25.4 1 3 2 1 4 3 
4 2 1 1.13686837721616e-13
25.4 558.8 939.8 609.6 558.8 939.8 609.6 558.8 2108.2 25.4 558.8 2108.2 914.4 0 914.4 584.2 2082.8 584.2 2082.8 0 4 2 1 3 2 4 
4 2 1 5.6843418860808e-14
0 0 0 0 0 25.4 0 508 25.4 0 508 0 0 0 25.4 0 25.4 -508 0 -508 2 4 3 2 1 4 
4 2 1 5.6843418860808e-14
25.4 50.8 939.8 25.4 50.8 2108.2 25.4 558.8 2108.2 25.4 558.8 939.8 914.4 0 2082.8 0 2082.8 -508 914.4 -508 2 4 3 2 1 4 
4 2 1 1.13686837721616e-13
609.6 50.8 939.8 609.6 50.8 2108.2 25.4 50.8 2108.2 25.4 50.8 939.8 914.4 584.2 2082.8 584.2 2082.8 0 914.4 0 3 1 4 2 1 3 
4 2 1 0
25.4 50.8 25.4 25.4 50.8 914.4 25.4 558.8 914.4 25.4 558.8 25.4 0 0 889 0 889 -508 0 -508 3 1 4 2 1 3 
4 2 1 0
25.4 558.8 25.4 609.6 558.8 25.4 609.6 558.8 914.4 25.4 558.8 914.4 0 0 0 584.2 889 584.2 889 0 3 2 1 3 1 4 
4 2 1 0
609.6 50.8 25.4 609.6 50.8 914.4 25.4 50.8 914.4 25.4 50.8 25.4 0 584.2 889 584.2 889 0 0 0 2 4 3 2 1 4 
4 2 1 0
0 0 0 0 0 2082.8 0 508 2082.8 0 508 0 0 0 2082.8 0 2082.8 -508 0 -508 2 4 3 2 1 4 
4 2 1 5.6843418860808e-14
25.4 558.8 25.4 609.6 558.8 25.4 25.4 558.8 2108.2 609.6 558.8 2108.2 0 0 0 584.2 2082.8 0 2082.8 584.2 4 2 1 4 1 3 
4 2 1 5.6843418860808e-14
25.4 50.8 25.4 609.6 50.8 25.4 609.6 50.8 2108.2 25.4 50.8 2108.2 0 0 0 584.2 2082.8 584.2 2082.8 0 3 2 1 3 1 4 

TShapes 176
Ve
1e-07
0 0 2133.6
0 0

0101101
*
Ve
1e-07
0 0 0
0 0

0101101
*
Ed
 1e-07 1 1 0
1  1 0 0 2133.6
2  1 1 0 0 2133.6
2  2 2 0 0 2133.6
6  1 2 0
6  2 3 8
6  3 1 0
6  4 4 9
0

0101000
-176 0 +175 0 *
Ve
1e-07
0 609.6 2133.6
0 0

0101101
*
Ed
 1e-07 1 1 0
1  2 0 0 609.6
2  3 1 0 0 609.6
2  4 3 0 0 609.6
6  5 1 0
6  6 5 0
0

0101000
-173 0 +176 0 *
Ve
1e-07
0 609.6 0
0 0

0101101
*
Ed
 1e-07 1 1 0
1  3 0 0 2133.6
2  5 1 0 0 2133.6
2  6 4 0 0 2133.6
6  7 6 10
6  8 1 0
6  9 7 0
0

0101000
-173 0 +171 0 *
Ed
 1e-07 1 1 0
1  4 0 0 609.6
2  7 1 0 0 609.6
2  8 5 0 0 609.6
6  10 1 0
6  11 8 0
0

0101000
-171 0 +175 0 *
Wi

0101000
-174 0 -172 0 +170 0 +169 0 *
Fa
0  1e-07 1 0
2  1
0101000
+168 0 *
Ve
1e-07
1219.2 0 0
0 0

0101101
*
Ed
 1e-07 1 1 0
1  5 0 0 1219.2
2  9 2 0 0 1219.2
2  10 5 0 0 1219.2
6  12 2 0
6  13 3 8
6  14 4 9
6  15 8 0
0

0101000
-166 0 +175 0 *
Ve
1e-07
1219.2 0 2133.6
0 0

0101101
*
Ed
 1e-07 1 1 0
1  6 0 0 2133.6
2  11 6 0 0 2133.6
2  12 2 0 0 2133.6
6  16 2 0
6  17 3 8
6  18 4 9
6  19 9 0
0

0101000
-164 0 +166 0 *
Ed
 1e-07 1 1 0
1  7 0 0 1219.2
2  13 2 0 0 1219.2
2  14 3 0 0 1219.2
6  20 2 0
6  21 3 8
6  22 4 9
6  23 5 0
0

0101000
-164 0 +176 0 *
Wi

0101000
-165 12 -163 12 +174 12 +162 12 *
Ve
1e-07
1193.8 0 25.4
0 0

0101101
*
Ve
1e-07
1193.8 0 2108.2
0 0

0101101
*
Ed
 1e-07 1 1 0
1  8 0 0 2082.8
2  15 7 0 0 2082.8
2  16 8 0 0 2082.8
2  17 2 14 0 2082.8
2  18 9 16 0 2082.8
6  24 4 17
6  25 10 17
0

0101000
+160 17 -159 17 *
Ve
1e-07
0 0 0
0 0

0101101
*
Ed
 1e-07 1 1 0
1  9 0 0 584.2
2  19 8 0 0 584.2
2  20 10 0 0 584.2
2  21 2 14 0 584.2
2  22 11 16 0 584.2
6  26 4 17
6  27 11 17
0

0101000
+157 0 -160 17 *
Ve
1e-07
0 0 2082.8
0 0

0101101
*
Ed
 1e-07 1 1 0
1  10 0 0 584.2
2  23 8 0 0 584.2
2  24 12 0 0 584.2
2  25 2 14 0 584.2
2  26 13 16 0 584.2
6  28 4 17
6  29 12 17
0

0101000
+155 0 -159 17 *
Ve
1e-07
0 0 0
0 0

0101101
*
Ed
 1e-07 1 1 0
1  11 0 0 584.2
2  27 14 0 0 584.2
2  28 11 0 0 584.2
2  29 2 19 0 584.2
6  30 4 20
6  31 13 20
0

0101000
+153 0 -157 21 *
Ve
1e-07
0 0 2082.8
0 0

0101101
*
Ed
 1e-07 1 1 0
1  12 0 0 584.2
2  30 14 0 0 584.2
2  31 13 0 0 584.2
2  32 2 19 0 584.2
6  32 4 20
6  33 14 20
0

0101000
+151 0 -155 21 *
Ed
 1e-07 1 1 0
1  13 0 0 2082.8
2  33 15 0 0 2082.8
2  34 14 0 0 2082.8
6  34 15 0
6  35 16 0
2  35 2 19 0 2082.8
6  36 3 22
6  37 4 20
6  38 17 22
0

0101000
-151 0 +153 0 *
Wi

0101000
+158 13 +156 13 -154 13 +152 18 -150 18 -149 18 *
Fa
0  1e-07 2 12
2  4
0101000
+161 0 +148 0 *
Ve
1e-07
1219.2 609.6 2133.6
0 0

0101101
*
Ed
 1e-07 1 1 0
1  14 0 0 1219.2
2  36 4 0 0 1219.2
2  37 3 0 0 1219.2
6  39 6 10
6  40 5 0
6  41 7 0
0

0101000
-146 0 +173 0 *
Ed
 1e-07 1 1 0
1  15 0 0 609.6
2  38 6 0 0 609.6
2  39 3 0 0 609.6
6  42 5 0
6  43 9 0
0

0101000
-146 0 +164 0 *
Wi

0101000
-172 0 -145 0 +144 0 +162 0 *
Fa
0  1e-07 3 0
2  5
0101000
+143 0 *
Ve
1e-07
1219.2 609.6 0
0 0

0101101
*
Ed
 1e-07 1 1 0
1  16 0 0 1219.2
2  40 4 0 0 1219.2
2  41 5 0 0 1219.2
6  44 6 10
6  45 7 0
6  46 8 0
0

0101000
-141 0 +171 0 *
Ed
 1e-07 1 1 0
1  17 0 0 2133.6
2  42 6 0 0 2133.6
2  43 4 0 0 2133.6
6  47 6 10
6  48 7 0
6  49 9 0
0

0101000
-146 0 +141 0 *
Wi

0101000
-140 0 -139 0 +145 0 +170 0 *
Fa
0  1e-07 4 0
2  7
0101000
+138 0 *
Ed
 1e-07 1 1 0
1  18 0 0 609.6
2  44 6 0 0 609.6
2  45 5 0 0 609.6
6  50 8 0
6  51 9 0
0

0101000
-141 0 +166 0 *
Wi

0101000
-169 0 -140 0 +136 0 +165 0 *
Fa
0  1e-07 5 0
2  8
0101000
+135 0 *
Wi

0101000
-163 0 -144 0 +139 0 +136 0 *
Fa
0  1e-07 6 0
2  9
0101000
+133 0 *
Ve
1e-07
1168.4 25.4 0
0 0

0101101
*
Ed
 1e-07 1 1 0
1  19 0 0 25.4
2  46 7 0 0 25.4
2  47 10 0 0 25.4
2  48 9 16 0 25.4
2  49 11 16 0 25.4
6  52 10 17
6  53 11 17
0

0101000
+160 17 -131 16 *
Ve
1e-07
1168.4 25.4 2082.8
0 0

0101101
*
Ed
 1e-07 1 1 0
1  20 0 0 25.4
2  50 7 0 0 25.4
2  51 12 0 0 25.4
2  52 9 16 0 25.4
2  53 13 16 0 25.4
6  54 10 17
6  55 12 17
0

0101000
+159 17 -129 16 *
Ed
 1e-07 1 1 0
1  21 0 0 2082.8
2  54 9 0 0 2082.8
2  55 16 0 0 2082.8
6  56 18 0
6  57 19 22
6  58 20 0
2  56 7 21 0 2082.8
6  59 21 20
6  60 10 20
6  61 22 23
0

0101000
-129 0 +131 0 *
Wi

0101000
-158 13 +130 13 -128 13 +127 18 *
Fa
0  1e-07 9 18
2  10
0101000
+126 0 *
Ve
1e-07
609.6 25.4 25.4
0 0

0101101
*
Ed
 1e-07 1 1 0
1  22 0 584.2 1168.4
2  57 16 0 584.2 1168.4
2  58 11 0 584.2 1168.4
2  59 10 21 584.2 1168.4
6  62 23 20
6  63 24 24
6  64 25 24
6  65 11 20
6  66 26 24
0

0101000
+124 20 -131 0 *
Ed
 1e-07 1 1 0
1  23 0 0 25.4
2  60 17 0 0 25.4
2  61 10 0 0 25.4
2  62 11 16 0 25.4
6  67 11 17
6  68 13 17
0

0101000
+157 0 -124 17 *
Wi

0101000
-123 18 +130 13 +156 13 -122 13 *
Fa
0  1e-07 11 18
2  11
0101000
+121 0 *
Ve
1e-07
609.6 25.4 2108.2
0 0

0101101
*
Ed
 1e-07 1 1 0
1  24 0 584.2 1168.4
2  63 16 0 584.2 1168.4
2  64 13 0 584.2 1168.4
2  65 12 21 584.2 1168.4
6  69 27 20
6  70 28 24
6  71 29 24
6  72 12 20
6  73 30 24
0

0101000
+119 20 -129 0 *
Ed
 1e-07 1 1 0
1  25 0 0 25.4
2  66 17 0 0 25.4
2  67 12 0 0 25.4
2  68 13 16 0 25.4
6  74 12 17
6  75 14 17
0

0101000
+155 0 -119 17 *
Wi

0101000
-118 18 +128 13 +154 13 -117 13 *
Fa
0  1e-07 13 18
2  12
0101000
+116 0 *
Ve
1e-07
0 25.4 0
0 0

0101101
*
Ed
 1e-07 1 1 0
1  22 0 0 584.2
2  57 16 0 0 584.2
2  58 11 0 0 584.2
6  76 13 20
6  77 31 20
0

0101000
+114 0 -124 20 *
Ed
 1e-07 1 1 0
1  26 0 0 25.4
2  69 15 0 0 25.4
2  70 11 0 0 25.4
6  78 15 0
6  79 32 0
6  80 33 22
6  81 13 20
6  82 17 22
0

0101000
-114 0 +153 0 *
Wi

0101000
-113 18 +122 13 +152 18 -112 18 *
Fa
0  1e-07 11 18
2  13
0101000
+111 0 *
Ve
1e-07
0 25.4 2082.8
0 0

0101101
*
Ed
 1e-07 1 1 0
1  24 0 0 584.2
2  63 16 0 0 584.2
2  64 13 0 0 584.2
6  83 14 20
6  84 31 20
0

0101000
+109 0 -119 20 *
Ed
 1e-07 1 1 0
1  27 0 0 25.4
2  71 15 0 0 25.4
2  72 13 0 0 25.4
6  85 15 0
6  86 34 0
6  87 35 22
6  88 14 20
6  89 17 22
0

0101000
-109 0 +151 0 *
Wi

0101000
-108 18 +117 13 +150 18 -107 18 *
Fa
0  1e-07 13 18
2  14
0101000
+106 0 *
Ed
 1e-07 1 1 0
1  28 0 0 2082.8
2  73 15 0 0 2082.8
2  74 16 0 0 2082.8
6  90 15 0
6  91 20 0
6  92 17 22
6  93 31 20
0

0101000
-109 0 +114 0 *
Wi

0101000
-149 15 -107 15 +112 15 +104 15 *
Fa
0  1e-07 15 15
2  17
0101000
+103 0 *
Ve
1e-07
584.2 558.8 2082.8
0 0

0101101
*
Ed
 1e-07 1 1 0
1  20 0 25.4 558.8
2  50 7 0 25.4 558.8
2  51 12 0 25.4 558.8
6  94 27 17
6  95 28 27
6  96 29 27
6  97 21 17
6  98 22 28
6  99 30 27
0

0101000
+129 16 -101 0 *
Ve
1e-07
1168.4 508 25.4
0 0

0101101
*
Ed
 1e-07 1 1 0
1  29 0 914.4 2082.8
2  75 7 0 914.4 2082.8
2  76 18 0 914.4 2082.8
6  100 22 28
6  101 36 28
0

0101000
+99 30 -101 0 *
Ve
1e-07
1168.4 0 25.4
0 0

0101101
*
Ed
 1e-07 1 1 0
1  30 0 0 508
2  77 19 0 0 508
2  78 20 0 0 508
6  102 37 0
6  103 38 0
2  79 7 31 0 508
6  104 22 32
6  105 39 32
0

0101000
-99 0 +97 0 *
Ve
1e-07
1168.4 0 0
0 0

0101101
*
Ed
 1e-07 1 1 0
1  31 0 0 25.4
2  80 19 0 0 25.4
2  81 21 0 0 25.4
6  106 37 0
6  107 40 0
2  82 7 31 0 25.4
6  108 22 32
6  109 41 32
0

0101000
-97 0 +95 0 *
Ve
1e-07
1168.4 508 0
0 0

0101101
*
Ed
 1e-07 1 1 0
1  32 0 0 508
2  83 19 0 0 508
2  84 22 0 0 508
6  110 37 0
6  111 42 0
2  85 7 31 0 508
6  112 22 32
6  113 43 32
0

0101000
-93 0 +95 0 *
Ve
1e-07
584.2 558.8 0
0 0

0101101
*
Ed
 1e-07 1 1 0
1  29 0 0 889
2  75 7 0 0 889
2  76 18 0 0 889
6  114 22 28
6  115 44 28
0

0101000
+91 0 -93 30 *
Ed
 1e-07 1 1 0
1  19 0 25.4 558.8
2  46 7 0 25.4 558.8
2  47 10 0 25.4 558.8
6  116 23 17
6  117 24 27
6  118 25 27
6  119 21 17
6  120 22 28
6  121 26 27
0

0101000
+131 16 -91 0 *
Wi

0101000
-100 26 +98 26 +96 29 +94 29 -92 29 +90 26 +89 26 -127 33 *
Fa
0  1e-07 7 26
2  22
0101000
+88 0 *
Ve
1e-07
584.2 0 0
0 0

0101101
*
Ed
 1e-07 1 1 0
1  23 0 25.4 50.8
2  60 17 0 25.4 50.8
2  61 10 0 25.4 50.8
6  122 45 27
6  123 26 27
6  124 46 28
0

0101000
+124 17 -86 36 *
Ve
1e-07
609.6 558.8 25.4
0 0

0101101
*
Ed
 1e-07 1 1 0
1  33 0 0 508
2  86 23 0 0 508
2  87 24 0 0 508
2  88 10 38 0 508
2  89 17 38 0 508
6  125 26 39
6  126 47 39
0

0101000
+86 0 -84 39 *
Ed
 1e-07 1 1 0
1  34 0 0 584.2
2  90 18 0 0 584.2
2  91 10 0 0 584.2
6  127 48 27
6  128 26 27
6  129 44 28
0

0101000
+84 27 -91 0 *
Wi

0101000
-85 34 +123 37 -83 35 +89 34 -82 34 *
Fa
0  1e-07 10 34
2  26
0101000
+81 0 *
Ve
1e-07
584.2 0 2082.8
0 0

0101101
*
Ed
 1e-07 1 1 0
1  25 0 25.4 50.8
2  66 17 0 25.4 50.8
2  67 12 0 25.4 50.8
6  130 45 27
6  131 30 27
6  132 46 28
0

0101000
+119 17 -79 36 *
Ve
1e-07
609.6 558.8 2108.2
0 0

0101101
*
Ed
 1e-07 1 1 0
1  35 0 0 508
2  92 23 0 0 508
2  93 25 0 0 508
2  94 12 38 0 508
2  95 17 38 0 508
6  133 30 39
6  134 49 39
0

0101000
+79 0 -77 39 *
Ed
 1e-07 1 1 0
1  36 0 0 584.2
2  96 18 0 0 584.2
2  97 12 0 0 584.2
6  135 48 27
6  136 30 27
6  137 36 28
0

0101000
+77 27 -101 0 *
Wi

0101000
-78 34 +118 37 -76 35 +100 34 -75 34 *
Fa
0  1e-07 12 34
2  30
0101000
+74 0 *
Ed
 1e-07 1 1 0
1  37 0 -2082.8 0
2  98 16 18 -2082.8 0
2  99 17 13 -2082.8 0
6  138 50 0
6  139 51 40
6  140 52 40
6  141 45 40
6  142 31 0
6  143 46 41
0

0101000
+119 0 -124 0 *
Wi

0101000
-113 18 +72 0 +108 18 +104 18 *
Fa
0  1e-07 16 18
2  31
0101000
+71 0 *
Ve
1e-07
609.6 558.8 939.8
0 0

0101101
*
Ed
 1e-07 1 1 0
1  38 0 584.2 1168.4
2  100 26 0 584.2 1168.4
2  101 20 0 584.2 1168.4
2  102 18 31 584.2 1168.4
6  144 36 32
6  145 39 32
0

0101000
+69 32 -99 0 *
Ed
 1e-07 1 1 0
1  39 0 914.4 2082.8
2  103 23 0 914.4 2082.8
2  104 27 0 914.4 2082.8
2  105 18 38 914.4 2082.8
2  106 17 38 914.4 2082.8
6  146 36 43
6  147 53 43
0

0101000
+69 43 -77 39 *
Wi

0101000
-68 29 -98 26 +75 26 +67 42 *
Fa
0  1e-07 18 26
2  36
0101000
+66 0 *
Ve
1e-07
0 508 25.4
0 0

0101101
*
Ve
1e-07
0 0 25.4
0 0

0101101
*
Ed
 1e-07 1 1 0
1  40 0 0 508
2  107 28 0 0 508
2  108 20 0 0 508
6  148 54 0
6  149 38 0
2  109 29 44 0 508
6  150 39 32
6  151 55 32
0

0101000
-64 0 +63 0 *
Ed
 1e-07 1 1 0
1  38 0 0 584.2
2  100 26 0 0 584.2
2  101 20 0 0 584.2
2  110 27 44 0 584.2
6  152 39 32
6  153 53 32
0

0101000
+64 0 -69 32 *
Ve
1e-07
609.6 50.8 939.8
0 0

0101101
*
Ed
 1e-07 1 1 0
1  41 0 0 584.2
2  111 21 0 0 584.2
2  112 20 0 0 584.2
2  113 30 44 0 584.2
6  154 39 32
6  155 56 32
0

0101000
+63 0 -60 32 *
Ed
 1e-07 1 1 0
1  41 0 584.2 1168.4
2  111 21 0 584.2 1168.4
2  112 20 0 584.2 1168.4
6  156 39 32
6  157 41 32
0

0101000
+60 32 -97 0 *
Wi

0101000
-62 29 -61 29 +59 29 -68 29 +58 29 +96 29 *
Fa
0  1e-07 20 29
2  39
0101000
+57 0 *
Ve
1e-07
609.6 50.8 914.4
0 0

0101101
*
Ed
 1e-07 1 1 0
1  42 0 584.2 1168.4
2  114 21 0 584.2 1168.4
2  115 22 0 584.2 1168.4
6  158 41 32
6  159 43 32
0

0101000
+55 32 -95 0 *
Ed
 1e-07 1 1 0
1  43 0 889 914.4
2  116 23 0 889 914.4
2  117 30 0 889 914.4
2  118 17 38 889 914.4
2  119 21 45 889 914.4
6  160 41 43
6  161 46 43
0

0101000
+55 43 -60 43 *
Wi

0101000
-54 29 -94 29 +58 29 +53 42 *
Fa
0  1e-07 21 29
2  41
0101000
+52 0 *
Ve
1e-07
0 508 0
0 0

0101101
*
Ve
1e-07
0 0 0
0 0

0101101
*
Ed
 1e-07 1 1 0
1  44 0 0 508
2  120 28 0 0 508
2  121 22 0 0 508
6  162 54 0
6  163 42 0
2  122 29 44 0 508
6  164 43 32
6  165 57 32
0

0101000
-50 0 +49 0 *
Ve
1e-07
609.6 558.8 914.4
0 0

0101101
*
Ed
 1e-07 1 1 0
1  45 0 0 584.2
2  123 26 0 0 584.2
2  124 22 0 0 584.2
2  125 27 44 0 584.2
6  166 43 32
6  167 58 32
0

0101000
+50 0 -47 32 *
Ed
 1e-07 1 1 0
1  42 0 0 584.2
2  114 21 0 0 584.2
2  115 22 0 0 584.2
2  126 30 44 0 584.2
6  168 43 32
6  169 59 32
0

0101000
+49 0 -55 32 *
Ed
 1e-07 1 1 0
1  45 0 584.2 1168.4
2  123 26 0 584.2 1168.4
2  124 22 0 584.2 1168.4
2  127 18 31 584.2 1168.4
6  170 43 32
6  171 44 32
0

0101000
+47 32 -93 0 *
Wi

0101000
-48 29 -46 29 +45 29 -44 29 +54 29 +92 29 *
Fa
0  1e-07 22 29
2  43
0101000
+43 0 *
Ed
 1e-07 1 1 0
1  39 0 0 889
2  103 23 0 0 889
2  104 27 0 0 889
2  105 18 38 0 889
2  106 17 38 0 889
6  172 44 43
6  173 58 43
0

0101000
+84 39 -47 43 *
Wi

0101000
-82 26 -90 26 +44 29 +41 42 *
Fa
0  1e-07 18 26
2  44
0101000
+40 0 *
Ed
 1e-07 1 1 0
1  43 0 914.4 2082.8
2  116 23 0 914.4 2082.8
2  117 30 0 914.4 2082.8
2  118 17 38 914.4 2082.8
6  174 46 43
6  175 56 43
0

0101000
+60 43 -79 0 *
Ed
 1e-07 1 1 0
1  43 0 0 889
2  116 23 0 0 889
2  117 30 0 0 889
2  118 17 38 0 889
6  176 46 43
6  177 59 43
0

0101000
+86 0 -55 43 *
Wi

0101000
-78 26 +72 11 +38 42 +85 26 +53 42 +37 42 *
Fa
0  1e-07 17 26
2  46
0101000
+36 0 *
Ve
1e-07
0 508 0
0 0

0101101
*
Ve
1e-07
0 0 0
0 0

0101101
*
Ed
 1e-07 1 1 0
1  46 0 0 508
2  128 29 0 0 508
2  129 24 0 0 508
6  178 60 0
6  179 47 39
6  180 57 43
0

0101000
-34 0 +33 0 *
Ed
 1e-07 1 1 0
1  47 0 0 584.2
2  130 27 0 0 584.2
2  131 24 0 0 584.2
6  181 61 39
6  182 47 39
6  183 58 43
0

0101000
+34 0 -84 39 *
Ed
 1e-07 1 1 0
1  48 0 0 584.2
2  132 30 0 0 584.2
2  133 24 0 0 584.2
6  184 62 39
6  185 47 39
6  186 59 43
0

0101000
-86 0 +33 0 *
Wi

0101000
-32 35 -31 35 +30 35 +83 35 *
Fa
0  1e-07 24 35
2  47
0101000
+29 0 *
Ve
1e-07
0 508 2082.8
0 0

0101101
*
Ve
1e-07
0 0 2082.8
0 0

0101101
*
Ed
 1e-07 1 1 0
1  49 0 0 508
2  134 29 0 0 508
2  135 25 0 0 508
6  187 60 0
6  188 49 39
6  189 55 43
0

0101000
-27 0 +26 0 *
Ed
 1e-07 1 1 0
1  50 0 0 584.2
2  136 27 0 0 584.2
2  137 25 0 0 584.2
6  190 61 39
6  191 49 39
6  192 53 43
0

0101000
+27 0 -77 39 *
Ed
 1e-07 1 1 0
1  51 0 0 584.2
2  138 30 0 0 584.2
2  139 25 0 0 584.2
6  193 62 39
6  194 49 39
6  195 56 43
0

0101000
-79 0 +26 0 *
Wi

0101000
-25 35 -24 35 +23 35 +76 35 *
Fa
0  1e-07 25 35
2  49
0101000
+22 0 *
Ed
 1e-07 1 1 0
1  52 0 914.4 2082.8
2  140 29 0 914.4 2082.8
2  141 27 0 914.4 2082.8
6  196 53 43
6  197 55 43
0

0101000
+64 45 -27 0 *
Wi

0101000
-61 29 -67 42 +24 42 +20 42 *
Fa
0  1e-07 27 42
2  53
0101000
+19 0 *
Ed
 1e-07 1 1 0
1  53 0 914.4 2082.8
2  142 29 0 914.4 2082.8
2  143 30 0 914.4 2082.8
6  198 55 43
6  199 56 43
0

0101000
+63 45 -26 0 *
Wi

0101000
-17 42 -25 42 +20 42 +62 29 *
Fa
0  1e-07 29 42
2  55
0101000
+16 0 *
Wi

0101000
-38 42 +23 42 +17 42 -59 29 *
Fa
0  1e-07 30 42
2  56
0101000
+14 0 *
Ed
 1e-07 1 1 0
1  53 0 0 889
2  142 29 0 0 889
2  143 30 0 0 889
6  200 57 43
6  201 59 43
0

0101000
+33 0 -49 45 *
Ed
 1e-07 1 1 0
1  52 0 0 889
2  140 29 0 0 889
2  141 27 0 0 889
6  202 57 43
6  203 58 43
0

0101000
+34 0 -50 45 *
Wi

0101000
-12 42 -48 29 +11 42 +32 42 *
Fa
0  1e-07 29 42
2  57
0101000
+10 0 *
Wi

0101000
-31 42 -41 42 +46 29 +11 42 *
Fa
0  1e-07 27 42
2  58
0101000
+8 0 *
Wi

0101000
-37 42 +45 29 +12 42 -30 42 *
Fa
0  1e-07 30 42
2  59
0101000
+6 0 *
Sh

0101100
-167 7 -147 11 +142 7 +137 7 -134 7 +132 7 -125 11 +120 11 -115 11 +110 11 
-105 11 +102 25 -87 0 +80 6 -73 6 -70 11 -65 0 +56 0 -51 0 -42 0 
-39 0 +35 0 +28 6 -21 6 -18 0 +15 0 +13 0 +9 0 -7 0 +5 0 
*
So

0100000
+4 0 *
Co

0100000
+3 0 *
Co

1100000
+2 1 *

+1 0 